<?xml version="1.0" encoding="utf-8"?>
<!-- Generator: Adobe Illustrator 15.0.2, SVG Export Plug-In . SVG Version: 6.00 Build 0)  -->
<!DOCTYPE svg PUBLIC "-//W3C//DTD SVG 1.1//EN" "http://www.w3.org/Graphics/SVG/1.1/DTD/svg11.dtd">
<svg version="1.1" id="レイヤー1" xmlns="http://www.w3.org/2000/svg" xmlns:xlink="http://www.w3.org/1999/xlink" x="0px"
	 y="0px" width="841.8896484px" height="595.2753906px" viewBox="0 0 841.8896484 595.2753906"
	 enable-background="new 0 0 841.8896484 595.2753906" xml:space="preserve">
<g>
	<rect x="195.5" y="147.5" fill="none" stroke="#999999" stroke-width="0.1" width="50" height="100"/>
	<rect x="295.5" y="147.5" fill="none" stroke="#999999" stroke-width="0.1" width="50" height="100"/>
	<rect x="395.5" y="147.5" fill="none" stroke="#999999" stroke-width="0.1" width="50" height="100"/>
	<rect x="495.5" y="147.5" fill="none" stroke="#999999" stroke-width="0.1" width="50" height="100"/>
	<rect x="595.5" y="147.5" fill="none" stroke="#999999" stroke-width="0.1" width="50" height="100"/>
	<rect x="195.5" y="247.5" fill="none" stroke="#999999" stroke-width="0.1" width="50" height="100"/>
	<rect x="295.5" y="247.5" fill="none" stroke="#999999" stroke-width="0.1" width="50" height="100"/>
	<rect x="395.5" y="247.5" fill="none" stroke="#999999" stroke-width="0.1" width="50" height="100"/>
	<rect x="495.5" y="247.5" fill="none" stroke="#999999" stroke-width="0.1" width="50" height="100"/>
	<rect x="595.5" y="247.5" fill="none" stroke="#999999" stroke-width="0.1" width="50" height="100"/>
	<rect x="195.5" y="-52.5" fill="none" stroke="#999999" stroke-width="0.1" width="50" height="100"/>
	<rect x="295.5" y="-52.5" fill="none" stroke="#999999" stroke-width="0.1" width="50" height="100"/>
	<rect x="395.5" y="-52.5" fill="none" stroke="#999999" stroke-width="0.1" width="50" height="100"/>
	<rect x="495.5" y="-52.5" fill="none" stroke="#999999" stroke-width="0.1" width="50" height="100"/>
	<rect x="595.5" y="-52.5" fill="none" stroke="#999999" stroke-width="0.1" width="50" height="100"/>
	<rect x="195.5" y="47.5" fill="none" stroke="#999999" stroke-width="0.1" width="50" height="100"/>
	<rect x="295.5" y="47.5" fill="none" stroke="#999999" stroke-width="0.1" width="50" height="100"/>
	<rect x="395.5" y="47.5" fill="none" stroke="#999999" stroke-width="0.1" width="50" height="100"/>
	<rect x="495.5" y="47.5" fill="none" stroke="#999999" stroke-width="0.1" width="50" height="100"/>
	<rect x="595.5" y="47.5" fill="none" stroke="#999999" stroke-width="0.1" width="50" height="100"/>
	<rect x="195.5" y="347.5" fill="none" stroke="#999999" stroke-width="0.1" width="50" height="100"/>
	<rect x="295.5" y="347.5" fill="none" stroke="#999999" stroke-width="0.1" width="50" height="100"/>
	<rect x="395.5" y="347.5" fill="none" stroke="#999999" stroke-width="0.1" width="50" height="100"/>
	<rect x="495.5" y="347.5" fill="none" stroke="#999999" stroke-width="0.1" width="50" height="100"/>
	<rect x="595.5" y="347.5" fill="none" stroke="#999999" stroke-width="0.1" width="50" height="100"/>
	<rect x="195.5" y="447.5" fill="none" stroke="#999999" stroke-width="0.1" width="50" height="100"/>
	<rect x="295.5" y="447.5" fill="none" stroke="#999999" stroke-width="0.1" width="50" height="100"/>
	<rect x="395.5" y="447.5" fill="none" stroke="#999999" stroke-width="0.1" width="50" height="100"/>
	<rect x="495.5" y="447.5" fill="none" stroke="#999999" stroke-width="0.1" width="50" height="100"/>
	<rect x="595.5" y="447.5" fill="none" stroke="#999999" stroke-width="0.1" width="50" height="100"/>
	<rect x="195.5" y="547.5" fill="none" stroke="#999999" stroke-width="0.1" width="50" height="100"/>
	<rect x="295.5" y="547.5" fill="none" stroke="#999999" stroke-width="0.1" width="50" height="100"/>
	<rect x="395.5" y="547.5" fill="none" stroke="#999999" stroke-width="0.1" width="50" height="100"/>
	<rect x="495.5" y="547.5" fill="none" stroke="#999999" stroke-width="0.1" width="50" height="100"/>
	<rect x="595.5" y="547.5" fill="none" stroke="#999999" stroke-width="0.1" width="50" height="100"/>
</g>
<g>
	<polygon points="331,620.5 332.2001953,575.8994141 306.9003906,575.8994141 306.9003906,590.5 318,590.5 317.2001953,620.5 
		303.3007812,620.5 303.3007812,635.0996094 337.7001953,635.0996094 337.7001953,620.5 	"/>
	<polygon points="330.7744141,521.9667969 332.1748047,476.5332031 307.1000977,476.5332031 307.1000977,489.0332031 
		319.8242188,489.0332031 318.7744141,521.9667969 303.4335938,521.9667969 303.4335938,534.4658203 337.5668945,534.4658203 
		337.5668945,521.9667969 	"/>
	<polygon points="330.5498047,423.4335938 332.1503906,377.1660156 307.2998047,377.1660156 307.2998047,387.5664062 
		321.6494141,387.5664062 320.3496094,423.4335938 303.5668945,423.4335938 303.5668945,433.8320312 337.4335938,433.8320312 
		337.4335938,423.4335938 	"/>
	<polygon points="330.3242188,324.9003906 332.125,277.7998047 307.5,277.7998047 307.5,286.0996094 323.4746094,286.0996094 
		321.9238281,324.9003906 303.7001953,324.9003906 303.7001953,333.1992188 337.3007812,333.1992188 337.3007812,324.9003906 	"/>
	<polygon points="329.9326172,226.3666992 331.9331055,178.4331055 307.6992188,178.4331055 307.6992188,184.6328125 
		325.4663086,184.6328125 323.6645508,226.3666992 303.8330078,226.3666992 303.8330078,232.5654297 337.1669922,232.5654297 
		337.1669922,226.3666992 	"/>
	<polygon points="329.5410156,127.8330078 331.7412109,79.0664062 307.8994141,79.0664062 307.8994141,83.1669922 
		327.4584961,83.1669922 325.4052734,127.8330078 303.9667969,127.8330078 303.9667969,131.9326172 337.0341797,131.9326172 
		337.0341797,127.8330078 	"/>
	<polygon points="329.1494141,29.2998047 331.5498047,-20.2998047 308.0996094,-20.2998047 308.0996094,-18.2998047 
		329.4501953,-18.2998047 327.1464844,29.2998047 304.0996094,29.2998047 304.0996094,31.2998047 336.9003906,31.2998047 
		336.9003906,29.2998047 	"/>
</g>
<g>
	<polygon points="404.9003906,575.0996094 404.9003906,589.2998047 421.9003906,589.2998047 421.9003906,597 407.3007812,597 
		407.3007812,611.2001953 421.9003906,611.2001953 421.9003906,621.2998047 404.9003906,621.2998047 404.9003906,635.8994141 
		435.7001953,635.8994141 435.7001953,575.0996094 	"/>
	<polygon points="405.0996094,475.7324219 405.0996094,487.8994141 423.5332031,487.8994141 423.5332031,497.8496094 
		407.3671875,497.8496094 407.3671875,510.0166016 423.5332031,510.0166016 423.5332031,522.765625 405.0996094,522.765625 
		405.0996094,535.265625 435.5332031,535.265625 435.5332031,475.7324219 	"/>
	<polygon points="405.2998047,376.3671875 405.2998047,386.5 425.1679688,386.5 425.1679688,398.7001953 407.4335938,398.7001953 
		407.4335938,408.8339844 425.1679688,408.8339844 425.1679688,424.2324219 405.2998047,424.2324219 405.2998047,434.6328125 
		435.3671875,434.6328125 435.3671875,376.3671875 	"/>
	<polygon points="405.5,277 405.5,285.0996094 426.8007812,285.0996094 426.8007812,299.5498047 407.5,299.5498047 
		407.5,307.6503906 426.8007812,307.6503906 426.8007812,325.6992188 405.5,325.6992188 405.5,334 435.2001953,334 435.2001953,277 
			"/>
	<polygon points="405.699707,177.6328125 405.699707,183.6992188 428.7675781,183.6992188 428.7675781,200.3994141 
		407.5664062,200.3994141 407.5664062,206.4667969 428.7675781,206.4667969 428.7675781,227.1655273 405.699707,227.1655273 
		405.699707,233.3662109 435.0332031,233.3662109 435.0332031,177.6328125 	"/>
	<polygon points="405.8999023,78.2666016 405.8999023,82.2998047 430.7333984,82.2998047 430.7333984,101.25 407.6337891,101.25 
		407.6337891,105.2832031 430.7333984,105.2832031 430.7333984,128.6328125 405.8999023,128.6328125 405.8999023,132.7333984 
		434.8671875,132.7333984 434.8671875,78.2666016 	"/>
	<polygon points="406.0996094,-21.1005859 406.0996094,-19.1005859 432.7001953,-19.1005859 432.7001953,2.0996094 
		407.7001953,2.0996094 407.7001953,4.0996094 432.7001953,4.0996094 432.7001953,30.0996094 406.0996094,30.0996094 
		406.0996094,32.0996094 434.7001953,32.0996094 434.7001953,-21.1005859 	"/>
</g>
<g>
	<g>
		<path d="M501.2001953,579.8994141c1.0966797,8.4443359,2.2285156,17.9335938,3.2001953,26.8007812L514.5,603.5
			c-1.0126953-9.0546875-2.1728516-18.7314453-3.2001953-26.7998047L501.2001953,579.8994141z"/>
		<path d="M513.7001953,577.5c1.0566406,8.6162109,2.1933594,18.1894531,3.2001953,27.2001953L527,601.5
			c-1.0322266-9.2392578-2.1767578-18.9501953-3.2001953-27.2001953L513.7001953,577.5z"/>
		<path d="M526.9003906,574.7001953c0,31.7617188-5.3574219,42.9785156-17.6005859,48.5996094l5.4003906,15
			c16.7773438-6.6923828,25.2001953-23.2519531,25.2001953-62.7998047L526.9003906,574.7001953z"/>
	</g>
	<g>
		<path d="M505.1181641,506.7871094c-1.0283203-9.1425781-2.1621094-18.4462891-3.2666016-26.7294922l9.1630859-2.7158203
			c1.046875,7.9726562,2.2041016,17.4355469,3.2666016,26.7373047L505.1181641,506.7871094z"/>
		<path d="M517.3183594,504.8525391c-1.0195312-9.0742188-2.1855469-18.7509766-3.2675781-27.3291016l9.1640625-2.7138672
			c1.0527344,8.2753906,2.2265625,18.0703125,3.2675781,27.3378906L517.3183594,504.8525391z"/>
		<path d="M514.1992188,537.9189453l-4.7988281-12.8056641c12.5976562-5.7226562,18.3935547-16.8828125,18.5664062-49.9511719
			l11.3330078,0.6757812C539.1425781,514.8232422,531.0878906,531.0820312,514.1992188,537.9189453z"/>
	</g>
	<g>
		<path d="M505.8359375,406.875c-1.0839844-9.4179688-2.2207031-18.5361328-3.3320312-26.6582031l8.2255859-2.2333984
			c1.0673828,7.8769531,2.2216797,17.1269531,3.3339844,26.6748047L505.8359375,406.875z"/>
		<path d="M517.7363281,405.0048828c-1.0332031-9.1376953-2.2275391-18.9179688-3.3330078-27.4580078l8.2265625-2.2275391
			c1.0830078,8.3017578,2.2841797,18.1806641,3.3349609,27.4765625L517.7363281,405.0048828z"/>
		<path d="M513.6992188,437.5390625l-4.1982422-10.6123047c12.953125-5.8232422,19.1865234-16.9277344,19.5322266-51.3017578
			l9.6669922,0.5507812C538.3847656,414.5986328,530.6992188,430.5585938,513.6992188,437.5390625z"/>
	</g>
	<g>
		<path d="M506.5546875,306.9619141c-1.1416016-9.6923828-2.2792969-18.6259766-3.3984375-26.5869141l7.2880859-1.75
			c1.0869141,7.78125,2.2392578,16.8183594,3.4013672,26.6132812L506.5546875,306.9619141z"/>
		<path d="M518.1542969,305.1572266c-1.0458984-9.2001953-2.2695312-19.0849609-3.3994141-27.5869141l7.2900391-1.7412109
			c1.1132812,8.3271484,2.3427734,18.2900391,3.4023438,27.6142578L518.1542969,305.1572266z"/>
		<path d="M513.1992188,337.1582031l-3.5976562-8.4179688c13.3085938-5.9238281,19.9804688-16.9726562,20.4980469-52.6533203
			l8,0.4267578C537.6269531,314.3740234,530.3105469,330.0332031,513.1992188,337.1582031z"/>
	</g>
	<g>
		<path d="M507.2714844,207.0488281c-1.1972656-9.9672852-2.3369141-18.7158203-3.4638672-26.5151367l5.5185547-1.2680664
			c1.1054688,7.6860352,2.2558594,16.5097656,3.46875,26.5512695L507.2714844,207.0488281z"/>
		<path d="M518.7382812,205.3095703c-1.0585938-9.2641602-2.3115234-19.2524414-3.4658203-27.7158203l5.5205078-1.2548828
			c1.1435547,8.3520508,2.4003906,18.3994141,3.4697266,27.7519531L518.7382812,205.3095703z"/>
		<path d="M512.6982422,236.777832l-2.6630859-6.2241211c13.6640625-6.0249023,20.7734375-17.0175781,21.4648438-54.0048828
			l6,0.3022461C536.8681641,214.1494141,529.921875,229.5087891,512.6982422,236.777832z"/>
	</g>
	<g>
		<path d="M507.9902344,107.1367188c-1.2539062-10.2421875-2.3955078-18.8066406-3.5302734-26.4443359l3.7470703-0.7851562
			c1.1269531,7.5908203,2.2744141,16.2006836,3.5371094,26.4892578L507.9902344,107.1367188z"/>
		<path d="M519.3232422,105.4619141c-1.0712891-9.3271484-2.3544922-19.4189453-3.5322266-27.84375l3.7509766-0.7695312
			c1.1738281,8.3779297,2.4589844,18.5092773,3.5361328,27.8896484L519.3232422,105.4619141z"/>
		<path d="M512.1982422,136.3974609l-1.7294922-4.0292969c14.0195312-6.1259766,21.5673828-17.0629883,22.4316406-55.3569336
			l3.9990234,0.1772461C536.1103516,113.9248047,529.5332031,128.984375,512.1982422,136.3974609z"/>
	</g>
	<g>
		<path d="M508.7080078,7.2236328c-1.3105469-10.5166016-2.453125-18.8964844-3.5957031-26.3720703l1.9765625-0.3027344
			c1.1455078,7.4951172,2.2910156,15.8916016,3.6035156,26.4267578L508.7080078,7.2236328z"/>
		<path d="M519.9072266,5.6142578c-1.0839844-9.390625-2.3955078-19.5859375-3.5976562-27.9726562l1.9804688-0.2832031
			c1.2041016,8.4033203,2.5175781,18.6191406,3.6035156,28.0273438L519.9072266,5.6142578z"/>
		<path d="M511.6972656,36.0175781l-0.7949219-1.8359375c14.375-6.2265625,22.3613281-17.1074219,23.3974609-56.7080078l2,0.0527344
			C535.3525391,13.7001953,529.1445312,28.4599609,511.6972656,36.0175781z"/>
	</g>
</g>
<g>
	<polygon points="239,592 237.8007812,576.5996094 201.5996094,590.2001953 202.8007812,605.5996094 	"/>
	<path d="M226.4003906,592c-0.7460938,6.4462891-2.4570312,14.1142578-4.8007812,21.5996094l11,7.6005859
		C235.5625,613.3525391,238.0507812,602.3222656,239,592H226.4003906z"/>
	<polygon points="224.5996094,637.8994141 219.8007812,570.2998047 206.4003906,572.2998047 211.2001953,639.8994141 	"/>
</g>
<g>
	<g>
		<polygon points="202.949707,504.5361328 201.8173828,491.3964844 237.5849609,477.6630859 238.715332,490.8027344 		"/>
		<path d="M232.8774414,520.3710938l-9.8232422-6.1933594c2.4560547-7.3476562,4.1669922-15.7011719,4.6669922-23.0146484
			l10.9941406-0.3603516C238.1557617,501.4082031,235.8725586,512.6542969,232.8774414,520.3710938z"/>
		<polygon points="212.3007812,539.5146484 207.3007812,472.515625 218.9667969,470.8173828 223.9658203,537.8164062 		"/>
	</g>
	<g>
		<polygon points="203.0986328,403.4726562 202.0356445,392.59375 237.3696289,378.7265625 238.4306641,389.6054688 		"/>
		<path d="M231.6142578,419.2089844l-8.3125-5.2939453c2.9492188-7.0761719,5.0957031-16.0185547,5.7333984-24.1630859
			l9.3955078-0.1464844C237.7070312,400.4550781,235.0419922,411.7871094,231.6142578,419.2089844z"/>
		<polygon points="213.4013672,439.1308594 208.2016602,372.7314453 218.1328125,371.3359375 223.3320312,437.734375 		"/>
	</g>
	<g>
		<polygon points="203.2480469,302.4091797 202.2539062,293.7910156 237.1542969,279.7900391 238.1464844,288.4091797 		"/>
		<path d="M230.3515625,318.0478516l-6.8027344-4.3955078c3.4433594-6.8046875,6.0253906-16.3349609,6.8007812-25.3125
			l7.796875,0.0693359C237.2578125,299.5019531,234.2109375,310.9199219,230.3515625,318.0478516z"/>
		<polygon points="214.5019531,338.7460938 209.1025391,272.9472656 217.2988281,271.8535156 222.6982422,337.6523438 		"/>
	</g>
	<g>
		<polygon points="203.3969727,201.3457031 202.4716797,194.9873047 236.9384766,180.8535156 237.8623047,187.2119141 		"/>
		<path d="M229.6025391,216.9970703l-5.0703125-3.3276367c3.8095703-6.5771484,6.6821289-16.7285156,7.4667969-26.5498047
			l5.8632812,0.0922852C236.9936523,198.5620117,233.7602539,210.109375,229.6025391,216.9970703z"/>
		<polygon points="215.7695312,238.3618164 210.1699219,173.1625977 216.2983398,172.3710938 221.8979492,237.5703125 		"/>
	</g>
	<g>
		<polygon points="203.5458984,100.2822266 202.6894531,96.184082 236.7226562,81.9169922 237.578125,86.0151367 		"/>
		<path d="M228.8530273,115.9462891l-3.3378906-2.2597656c4.1762695-6.3496094,7.3393555-17.1220703,8.1333008-27.7871094
			l3.9296875,0.1157227C236.7294922,97.6220703,233.3095703,109.2988281,228.8530273,115.9462891z"/>
		<polygon points="217.0371094,137.9775391 211.2373047,73.3779297 215.2978516,72.8886719 221.0976562,137.4882812 		"/>
	</g>
</g>
<g>
	
		<rect x="219.1009064" y="-27.1781425" transform="matrix(0.3936835 0.919246 -0.919246 0.3936835 125.2689667 -207.7230377)" width="1.9993457" height="36.5555038"/>
	<path d="M228.1035156,14.8955078l-1.6054688-1.1914062c4.5429688-6.1230469,7.9960938-17.515625,8.7998047-29.0244141
		l1.9960938,0.1386719C236.4648438-3.3173828,232.859375,8.4882812,228.1035156,14.8955078z"/>
	
		<rect x="184.1604614" y="4.4995041" transform="matrix(0.0933407 0.9956343 -0.9956343 0.0933407 201.5871124 -210.3698273)" width="64.280632" height="2.0009916"/>
</g>
<g>
	<rect x="600.5" y="-3.5" width="40" height="2"/>
	<rect x="600.3330078" y="95.0830078" width="40.3330078" height="4.8330078"/>
	<rect x="600.1660156" y="193.6669922" width="40.6669922" height="7.6660156"/>
	<rect x="600" y="292.25" width="41" height="10.5"/>
	<rect x="599.8330078" y="390.8330078" width="41.3330078" height="13.3330078"/>
	<rect x="599.6669922" y="489.4160156" width="41.6669922" height="16.1679688"/>
	<rect x="599.5" y="588" width="42" height="19"/>
</g>
</svg>
