<?xml version="1.0" encoding="utf-8"?>
<!-- Generator: Adobe Illustrator 15.0.2, SVG Export Plug-In . SVG Version: 6.00 Build 0)  -->
<!DOCTYPE svg PUBLIC "-//W3C//DTD SVG 1.1//EN" "http://www.w3.org/Graphics/SVG/1.1/DTD/svg11.dtd">
<svg version="1.1" id="レイヤー1" xmlns="http://www.w3.org/2000/svg" xmlns:xlink="http://www.w3.org/1999/xlink" x="0px"
	 y="0px" width="841.8896484px" height="595.2753906px" viewBox="0 0 841.8896484 595.2753906"
	 enable-background="new 0 0 841.8896484 595.2753906" xml:space="preserve">
<g>
	<rect x="195.5" y="147.5" fill="none" stroke="#999999" stroke-width="0.1" width="50" height="100"/>
	<rect x="295.5" y="147.5" fill="none" stroke="#999999" stroke-width="0.1" width="50" height="100"/>
	<rect x="395.5" y="147.5" fill="none" stroke="#999999" stroke-width="0.1" width="50" height="100"/>
	<rect x="495.5" y="147.5" fill="none" stroke="#999999" stroke-width="0.1" width="50" height="100"/>
	<rect x="595.5" y="147.5" fill="none" stroke="#999999" stroke-width="0.1" width="50" height="100"/>
	<rect x="195.5" y="247.5" fill="none" stroke="#999999" stroke-width="0.1" width="50" height="100"/>
	<rect x="295.5" y="247.5" fill="none" stroke="#999999" stroke-width="0.1" width="50" height="100"/>
	<rect x="395.5" y="247.5" fill="none" stroke="#999999" stroke-width="0.1" width="50" height="100"/>
	<rect x="495.5" y="247.5" fill="none" stroke="#999999" stroke-width="0.1" width="50" height="100"/>
	<rect x="595.5" y="247.5" fill="none" stroke="#999999" stroke-width="0.1" width="50" height="100"/>
	<rect x="195.5" y="-52.5" fill="none" stroke="#999999" stroke-width="0.1" width="50" height="100"/>
	<rect x="295.5" y="-52.5" fill="none" stroke="#999999" stroke-width="0.1" width="50" height="100"/>
	<rect x="395.5" y="-52.5" fill="none" stroke="#999999" stroke-width="0.1" width="50" height="100"/>
	<rect x="495.5" y="-52.5" fill="none" stroke="#999999" stroke-width="0.1" width="50" height="100"/>
	<rect x="595.5" y="-52.5" fill="none" stroke="#999999" stroke-width="0.1" width="50" height="100"/>
	<rect x="195.5" y="47.5" fill="none" stroke="#999999" stroke-width="0.1" width="50" height="100"/>
	<rect x="295.5" y="47.5" fill="none" stroke="#999999" stroke-width="0.1" width="50" height="100"/>
	<rect x="395.5" y="47.5" fill="none" stroke="#999999" stroke-width="0.1" width="50" height="100"/>
	<rect x="495.5" y="47.5" fill="none" stroke="#999999" stroke-width="0.1" width="50" height="100"/>
	<rect x="595.5" y="47.5" fill="none" stroke="#999999" stroke-width="0.1" width="50" height="100"/>
	<rect x="195.5" y="347.5" fill="none" stroke="#999999" stroke-width="0.1" width="50" height="100"/>
	<rect x="295.5" y="347.5" fill="none" stroke="#999999" stroke-width="0.1" width="50" height="100"/>
	<rect x="395.5" y="347.5" fill="none" stroke="#999999" stroke-width="0.1" width="50" height="100"/>
	<rect x="495.5" y="347.5" fill="none" stroke="#999999" stroke-width="0.1" width="50" height="100"/>
	<rect x="595.5" y="347.5" fill="none" stroke="#999999" stroke-width="0.1" width="50" height="100"/>
	<rect x="195.5" y="447.5" fill="none" stroke="#999999" stroke-width="0.1" width="50" height="100"/>
	<rect x="295.5" y="447.5" fill="none" stroke="#999999" stroke-width="0.1" width="50" height="100"/>
	<rect x="395.5" y="447.5" fill="none" stroke="#999999" stroke-width="0.1" width="50" height="100"/>
	<rect x="495.5" y="447.5" fill="none" stroke="#999999" stroke-width="0.1" width="50" height="100"/>
	<rect x="595.5" y="447.5" fill="none" stroke="#999999" stroke-width="0.1" width="50" height="100"/>
	<rect x="195.5" y="547.5" fill="none" stroke="#999999" stroke-width="0.1" width="50" height="100"/>
	<rect x="295.5" y="547.5" fill="none" stroke="#999999" stroke-width="0.1" width="50" height="100"/>
	<rect x="395.5" y="547.5" fill="none" stroke="#999999" stroke-width="0.1" width="50" height="100"/>
	<rect x="495.5" y="547.5" fill="none" stroke="#999999" stroke-width="0.1" width="50" height="100"/>
	<rect x="595.5" y="547.5" fill="none" stroke="#999999" stroke-width="0.1" width="50" height="100"/>
</g>
<g>
	<polygon points="527.4003906,590.5 535.2998047,590.5 535.2998047,575.9003906 505.7001953,575.9003906 505.7001953,590.5 
		513.6005859,590.5 513.6005859,620.5 504.5,620.5 504.5,635.0996094 536.5,635.0996094 536.5,620.5 527.4003906,620.5 	"/>
	<polygon points="526.5,489.0332031 535.1660156,489.0332031 535.1660156,476.5332031 505.8330078,476.5332031 
		505.8330078,489.0332031 514.5,489.0332031 514.5,521.9667969 504.6328125,521.9667969 504.6328125,534.4667969 
		536.3662109,534.4667969 536.3662109,521.9667969 526.5,521.9667969 	"/>
	<polygon points="525.6005859,387.5664062 535.0332031,387.5664062 535.0332031,377.1669922 505.9667969,377.1669922 
		505.9667969,387.5664062 515.4003906,387.5664062 515.4003906,423.4335938 504.7675781,423.4335938 504.7675781,433.8339844 
		536.2333984,433.8339844 536.2333984,423.4335938 525.6005859,423.4335938 	"/>
	<polygon points="524.7001953,286.0996094 534.9003906,286.0996094 534.9003906,277.8007812 506.0996094,277.8007812 
		506.0996094,286.0996094 516.3007812,286.0996094 516.3007812,324.9003906 504.9003906,324.9003906 504.9003906,333.2001953 
		536.0996094,333.2001953 536.0996094,324.9003906 524.7001953,324.9003906 	"/>
	<polygon points="523.6328125,184.6328125 534.7666016,184.6328125 534.7666016,178.4335938 506.2324219,178.4335938 
		506.2324219,184.6328125 517.3671875,184.6328125 517.3671875,226.3671875 505.0332031,226.3671875 505.0332031,232.5668945 
		535.9667969,232.5668945 535.9667969,226.3671875 523.6328125,226.3671875 	"/>
	<polygon points="522.5664062,83.1669922 534.6337891,83.1669922 534.6337891,79.0668945 506.3671875,79.0668945 
		506.3671875,83.1669922 518.4335938,83.1669922 518.4335938,127.8339844 505.1669922,127.8339844 505.1669922,131.9335938 
		535.8339844,131.9335938 535.8339844,127.8339844 522.5664062,127.8339844 	"/>
	<polygon points="521.5,29.3007812 521.5,-18.2998047 534.5,-18.2998047 534.5,-20.2998047 506.5,-20.2998047 506.5,-18.2998047 
		519.5,-18.2998047 519.5,29.3007812 505.2998047,29.3007812 505.2998047,31.3007812 535.7001953,31.3007812 
		535.7001953,29.3007812 	"/>
</g>
<g>
	<path d="M421.0996094-16.2998047v-13.3994141h-2v13.3994141H405.5V7.0996094h2v-21.3994141h26v9.3994141
		c0,22.4140625-7.2128906,36.1894531-20.8574219,39.8339844l0.515625,1.9335938
		C423.3505859,34.1425781,435.5,24.6865234,435.5-4.9003906v-11.3994141H421.0996094z"/>
	<path d="M422.2324219,83.1166992v-12.949707h-4.1328125v12.949707H405.25v24.3828125h4V87.1499023h22.4326172v8.3496094
		c0,21.684082-6.6923828,34.1918945-19.847168,37.7280273l1.2963867,3.8779297
		C424.2822266,134.2617188,435.75,124.421875,435.75,95.4995117V83.1166992H422.2324219z"/>
	<path d="M423.3662109,182.5332031v-12.4995117h-6.2666016v12.4995117H405v25.3662109h6v-19.2988281h18.8662109v7.2988281
		c0,20.9550781-6.1728516,32.1953125-18.8374023,35.6230469l2.0766602,5.8222656
		C425.2148438,234.3818359,436,224.1582031,436,195.8994141v-13.3662109H423.3662109z"/>
	<path d="M424.5,281.9501953v-12.0498047h-8.4003906v12.0498047H404.75v26.3496094h8v-18.2490234h15.2998047v6.2490234
		c0,20.2255859-5.6533203,30.1982422-17.828125,33.5175781l2.8574219,7.7666016
		C426.1464844,334.5019531,436.25,323.8935547,436.25,296.2998047v-14.3496094H424.5z"/>
	<path d="M425.4667969,381.3662109v-11.5996094h-10.2006836v11.5996094H404.5v27.3330078h9.6665039V391.5h12.3999023v5.1992188
		c0,19.1630859-5.1337891,27.8681641-16.8183594,31.0791016l3.3046875,10.0439453
		C427.078125,434.6210938,436.5,423.6289062,436.5,396.6992188v-15.3330078H425.4667969z"/>
	<path d="M426.4335938,480.7832031v-11.1494141h-12.0004883v11.1494141H404.25v28.3164062h11.3330078v-16.1494141h9.5v4.1494141
		c0,18.0996094-4.6142578,25.5371094-15.8085938,28.6396484l3.7519531,12.3232422
		C428.0107422,534.7402344,436.75,523.3652344,436.75,497.0996094v-16.3164062H426.4335938z"/>
	<path d="M413,638.3007812c15.9433594-3.4404297,24-15.2001953,24-40.8007812v-17.2998047h-9.5996094V569.5h-13.8007812v10.7001953
		H404V609.5h13v-15.0996094h6.5996094V597.5c0,17.0361328-4.0942383,23.2070312-14.7988281,26.2001953L413,638.3007812z"/>
</g>
<g>
	<g>
		<rect x="203.7001953" y="575.0996094" width="35.2001953" height="14.2011719"/>
		<path d="M225.9003906,586.9003906c-0.234375,6.7675781-2.3759766,14.0664062-6.4003906,21.1992188l11.4003906,7.6005859
			c3.8164062-6.2822266,7.0996094-16.7792969,8-26.3994141L225.9003906,586.9003906z"/>
		<path d="M222.9003906,593.5H209.5c0,25.0078125-0.9990234,29.5029297-5.8398438,36.8007812l10.5996094,8.7988281
			C221.015625,630.2265625,222.9003906,622.9003906,222.9003906,593.5z"/>
	</g>
	<g>
		<rect x="204.0332031" y="475.5996094" width="34.5336914" height="12.1669922"/>
		<path d="M230.0112305,514.1230469l-9.8588867-6.6777344c4.2631836-6.7617188,6.6635742-14.2802734,7.1152344-21.8203125
			l11.2993164,2.1416016C237.5498047,497.7636719,234.1611328,508.0175781,230.0112305,514.1230469z"/>
		<path d="M213.5756836,538.5585938l-9.2192383-7.5839844c5.2861328-7.1738281,6.6767578-13.2666016,6.6767578-38.2753906
			h11.6669922C222.7001953,521.4726562,220.5361328,530.0019531,213.5756836,538.5585938z"/>
	</g>
	<g>
		<rect x="204.3666992" y="376.0996094" width="33.8671875" height="10.1337891"/>
		<path d="M229.1230469,412.5478516l-8.3178711-5.7568359c4.5014648-6.3896484,7.1606445-14.1289062,7.8295898-22.4394531
			l9.5991211,1.8818359C237.1005859,396.6054688,233.6054688,406.6171875,229.1230469,412.5478516z"/>
		<path d="M212.8925781,438.0175781l-7.8388672-6.3691406c5.7304688-7.0507812,7.5126953-14.7392578,7.5126953-39.7490234h9.9345703
			C222.5009766,420.046875,220.0576172,429.7783203,212.8925781,438.0175781z"/>
	</g>
	<g>
		<rect x="204.7001953" y="276.5996094" width="33.2001953" height="8.1005859"/>
		<path d="M228.234375,310.9716797l-6.7763672-4.8339844c4.7402344-6.0185547,7.6582031-13.9775391,8.5439453-23.0615234
			l7.8984375,1.6240234C236.6503906,295.4482422,233.0498047,305.2167969,228.234375,310.9716797z"/>
		<path d="M212.2089844,337.4765625l-6.4580078-5.1533203c6.1748047-6.9277344,8.3486328-16.2138672,8.3486328-41.2236328h8.2011719
			C222.3007812,318.6191406,219.578125,329.5546875,212.2089844,337.4765625z"/>
	</g>
</g>
<g>
	<g>
		<rect x="205.0332031" y="177.0996094" width="32.5336914" height="6.0668945"/>
		<path d="M228.2670898,209.7358398l-5.0898438-3.543457c4.7783203-5.8178711,7.6679688-14.1020508,8.4257812-23.9902344
			l5.9638672,0.9643555C236.5893555,194.331543,233.2182617,203.9804688,228.2670898,209.7358398z"/>
		<path d="M211.1914062,236.9350586l-4.7436523-3.9379883c6.6196289-6.8037109,9.1850586-17.6875,9.1850586-42.6977539h6.1342773
			C221.7670898,217.1923828,218.765625,229.3300781,211.1914062,236.9350586z"/>
	</g>
	<g>
		<rect x="205.3666992" y="77.5996094" width="31.8666992" height="4.0332031"/>
		<path d="M226.9179688,107.9902344l-3.2138672-2.5161133c5.1171875-5.3618164,8.4091797-13.8129883,9.5566406-24.4560547
			l3.9726562,0.6147461C235.9443359,93.1542969,232.3007812,102.4980469,226.9179688,107.9902344z"/>
		<path d="M210.1748047,136.3945312l-3.0302734-2.7226562c7.0649414-6.6806641,10.0219727-19.1616211,10.0219727-44.171875
			h4.0668945C221.2333984,115.765625,217.953125,129.105957,210.1748047,136.3945312z"/>
	</g>
	<g>
		<rect x="205.7001953" y="-21.9003906" width="31.2001953" height="2"/>
		<path d="M225.5693359,6.2441406l-1.3378906-1.4882812c5.4560547-4.9052734,9.1503906-13.5234375,10.6865234-24.921875
			l1.9824219,0.265625C235.2998047-8.0234375,231.3828125,1.015625,225.5693359,6.2441406z"/>
		<path d="M209.1582031,35.8535156l-1.3164062-1.5068359c7.5097656-6.5576172,10.8583984-20.6357422,10.8583984-45.6464844h2
			C220.7001953,14.3388672,217.140625,28.8818359,209.1582031,35.8535156z"/>
	</g>
</g>
<g>
	<g>
		<path d="M327.7001953,573.0996094c-5.5849609,12.9453125-15.0322266,23.1796875-24,27.2011719l1.7138672,14.9931641
			c13.5488281-4.5556641,27.9179688-19.4462891,33.1992188-35.6005859L327.7001953,573.0996094z"/>
		<rect x="316" y="592.7001953" width="13.8007812" height="46"/>
	</g>
	<g>
		<path d="M305.3813477,514.0859375l-1.534668-12.8105469c9.4414062-4.0175781,19.3100586-14.5976562,24.9658203-27.7734375
			l9.4018555,5.6230469C332.7768555,495.0585938,318.7260742,509.59375,305.3813477,514.0859375z"/>
		<rect x="316.8999023" y="493.0996094" width="12.0004883" height="45.4003906"/>
	</g>
	<g>
		<path d="M305.3496094,412.8789062l-1.3554688-10.6269531c9.9150391-4.0146484,20.2045898-14.9414062,25.9316406-28.3476562
			l7.890625,4.6542969C332.2216797,394.2695312,318.4897461,408.4501953,305.3496094,412.8789062z"/>
		<rect x="317.7998047" y="393.5" width="10.2011719" height="44.7998047"/>
	</g>
	<g>
		<path d="M305.3173828,311.6708984l-1.1767578-8.4443359c10.3886719-4.0097656,21.0996094-15.2832031,26.8984375-28.9199219
			l6.3789062,3.6835938C331.6669922,293.4804688,318.2529297,307.3066406,305.3173828,311.6708984z"/>
		<rect x="318.7001953" y="293.9003906" width="8.4003906" height="44.1992188"/>
	</g>
	<g>
		<path d="M305.284668,210.4628906l-0.9975586-6.2612305c10.8623047-4.0058594,21.9951172-15.6254883,27.8652344-29.4931641
			l4.8666992,2.7138672C331.1113281,192.6914062,318.0161133,206.1630859,305.284668,210.4628906z"/>
		<rect x="319.7666016" y="194.2998047" width="6.2670898" height="43.5996094"/>
	</g>
	<g>
		<path d="M305.2529297,109.2548828l-0.8193359-4.078125c11.3369141-4.0014648,22.890625-15.9677734,28.8320312-30.0654297
			l3.3554688,1.7431641C330.5566406,91.9023438,317.7792969,105.0205078,305.2529297,109.2548828z"/>
		<rect x="320.8339844" y="94.7001953" width="4.1328125" height="42.9995117"/>
	</g>
	<g>
		<path d="M305.2207031,8.046875l-0.640625-1.8945312c11.8105469-3.9980469,23.7861328-16.3105469,29.7988281-30.6386719
			l1.84375,0.7734375C330.0019531-8.8867188,317.5429688,3.8769531,305.2207031,8.046875z"/>
		<rect x="321.9003906" y="-4.9003906" width="2" height="42.4003906"/>
	</g>
</g>
<g>
	<g>
		<path d="M633.7998047,621.9003906c0,14.8652344-0.9111328,16-10.8994141,16c-1.7412109,0-5.828125-0.3378906-9.2001953-0.8007812
			l0.4003906-14.1992188c3.1347656,0.6328125,4.3916016,0.7998047,5.1992188,0.7998047
			c0.9365234,0,1.1005859-0.1865234,1.1005859-2.7998047v-26.0996094h-16.2998047v-14.2011719h16.2998047v-10.6992188h13.3994141
			v10.6992188h3.9003906v14.2011719h-3.9003906V621.9003906z"/>
		<path d="M619.2070312,586.8300781c-5.4101562,11.6591797-11.7089844,21.984375-17.5996094,29.2001953l7.2929688,12.8701172
			c6.3251953-8.0048828,13.0126953-19.6708984,18.3994141-32.4003906L619.2070312,586.8300781z"/>
	</g>
	<g>
		<path d="M632.8330078,522.7666016c0,13.2402344-0.8701172,14.5673828-9.9326172,14.5673828
			c-1.8535156,0-5.7099609-0.3320312-8.9042969-0.8046875l0.4082031-12.1582031
			c2.9726562,0.609375,4.4433594,0.7949219,5.4951172,0.7949219c1.0029297,0,1.2675781-0.1542969,1.2675781-3.2324219v-28.5166016
			h-16.9335938v-12.1679688h16.9335938v-11.1494141h11.6660156v11.1494141h4.7333984v12.1679688h-4.7333984V522.7666016z"/>
		<path d="M608.5175781,528.1796875l-6.4238281-11.0761719c6.140625-7.5205078,12.6816406-18.5078125,18.0390625-30.5527344
			l7.1455078,8.3144531C621.9287109,507.8339844,615.0429688,519.9755859,608.5175781,528.1796875z"/>
	</g>
	<g>
		<path d="M631.8671875,423.6337891c0,11.6152344-0.8300781,13.1337891-8.9667969,13.1337891
			c-1.9648438,0-5.5917969-0.3261719-8.6074219-0.8095703l0.4150391-10.1162109
			c2.8105469,0.5859375,4.4960938,0.7910156,5.7919922,0.7910156c1.0693359,0,1.4335938-0.1230469,1.4335938-3.6660156v-30.9326172
			h-17.5664062v-10.1347656h17.5664062v-11.5996094h9.9335938v11.5996094h5.5664062v10.1347656h-5.5664062V423.6337891z"/>
		<path d="M608.1357422,427.4609375l-5.5556641-9.2851562c6.3916016-7.8242188,13.1748047-19.4726562,18.4785156-31.9023438
			l6.1982422,6.9560547C621.9453125,406.4394531,614.8603516,419.0566406,608.1357422,427.4609375z"/>
	</g>
	<g>
		<path d="M637.3007812,282.5498047v8.1005859h-6.4003906V324.5c0,9.9902344-0.7890625,11.7001953-8,11.7001953
			c-2.0771484,0-5.4736328-0.3193359-8.3105469-0.8125l0.421875-8.0751953
			c2.6484375,0.5634766,4.5488281,0.7871094,6.0878906,0.7871094c1.1367188,0,1.6005859-0.0917969,1.6005859-4.0996094v-33.3496094
			H604.5v-8.1005859h18.2001953V270.5h8.2001953v12.0498047H637.3007812z"/>
		<path d="M607.7529297,326.7402344l-4.6865234-7.4912109c6.6416016-8.1289062,13.6679688-20.4394531,18.9179688-33.2548828
			l5.2509766,5.6005859C621.9609375,305.0439453,614.6777344,318.1367188,607.7529297,326.7402344z"/>
	</g>
	<g>
		<path d="M637.1669922,183.199707v6.0668945h-7.4003906v36.0996094c0,8.3662109-0.7470703,10.2670898-6.8662109,10.2670898
			c-2.1894531,0-5.3554688-0.3129883-8.0146484-0.8168945l0.4287109-6.0332031
			c2.4873047,0.5395508,4.6025391,0.7832031,6.3847656,0.7832031c1.3710938,0,1.9335938-0.0615234,1.9335938-4.5336914v-35.7661133
			h-19v-6.0668945h19v-12.5h6.1337891v12.5H637.1669922z"/>
		<path d="M607.1933594,225.7373047l-3.640625-5.4160156c6.8916016-8.4326172,14.1601562-21.4052734,19.3564453-34.605957
			l4.1279297,3.9614258C621.7998047,203.3657227,614.3173828,216.934082,607.1933594,225.7373047z"/>
	</g>
	<g>
		<path d="M637.0341797,83.8500977v4.0332031h-8.4003906v38.3496094c0,6.7416992-0.7060547,8.8334961-5.7333984,8.8334961
			c-2.3007812,0-5.2373047-0.3066406-7.7177734-0.8203125l0.4355469-3.9921875
			c2.3261719,0.5166016,4.6552734,0.7792969,6.6816406,0.7792969c1.6054688,0,2.2666016-0.0302734,2.2666016-4.9667969V87.8833008
			h-19.7998047v-4.0332031h19.7998047V70.8999023h4.0673828v12.9501953H637.0341797z"/>
		<path d="M606.6337891,124.7353516l-2.5947266-3.3408203c7.1425781-8.7373047,14.6533203-22.3720703,19.7958984-35.9580078
			l3.0029297,2.3232422C621.6396484,101.6879883,613.9580078,115.7319336,606.6337891,124.7353516z"/>
	</g>
	<g>
		<path d="M636.9003906-15.5H627.5v-13.4003906h-2V-15.5h-20.5996094v2H625.5v40.5996094
			C625.5,32.5,624.7392578,32.5,622.9003906,32.5c-2.2705078,0-4.8144531-0.2822266-6.9785156-0.7753906l-0.4433594,1.9511719
			C617.78125,34.1992188,620.4873047,34.5,622.9003906,34.5C626.8359375,34.5,627.5,32.2167969,627.5,27.0996094V-13.5h9.4003906
			V-15.5z"/>
		<path d="M606.0742188,23.7324219l-1.5488281-1.265625c7.3925781-9.0410156,15.1455078-23.3378906,20.2353516-37.3085938
			l1.8789062,0.6835938C621.4785156,0.0097656,613.5986328,14.5292969,606.0742188,23.7324219z"/>
	</g>
</g>
</svg>
