<?xml version="1.0" encoding="utf-8"?>
<!-- Generator: Adobe Illustrator 15.0.2, SVG Export Plug-In . SVG Version: 6.00 Build 0)  -->
<!DOCTYPE svg PUBLIC "-//W3C//DTD SVG 1.1//EN" "http://www.w3.org/Graphics/SVG/1.1/DTD/svg11.dtd">
<svg version="1.1" id="レイヤー1" xmlns="http://www.w3.org/2000/svg" xmlns:xlink="http://www.w3.org/1999/xlink" x="0px"
	 y="0px" width="841.8896484px" height="595.2753906px" viewBox="0 0 841.8896484 595.2753906"
	 enable-background="new 0 0 841.8896484 595.2753906" xml:space="preserve">
<g>
	<rect x="195.5" y="147.5" fill="none" stroke="#999999" stroke-width="0.1" width="50" height="100"/>
	<rect x="295.5" y="147.5" fill="none" stroke="#999999" stroke-width="0.1" width="50" height="100"/>
	<rect x="395.5" y="147.5" fill="none" stroke="#999999" stroke-width="0.1" width="50" height="100"/>
	<rect x="495.5" y="147.5" fill="none" stroke="#999999" stroke-width="0.1" width="50" height="100"/>
	<rect x="595.5" y="147.5" fill="none" stroke="#999999" stroke-width="0.1" width="50" height="100"/>
	<rect x="195.5" y="247.5" fill="none" stroke="#999999" stroke-width="0.1" width="50" height="100"/>
	<rect x="295.5" y="247.5" fill="none" stroke="#999999" stroke-width="0.1" width="50" height="100"/>
	<rect x="395.5" y="247.5" fill="none" stroke="#999999" stroke-width="0.1" width="50" height="100"/>
	<rect x="495.5" y="247.5" fill="none" stroke="#999999" stroke-width="0.1" width="50" height="100"/>
	<rect x="595.5" y="247.5" fill="none" stroke="#999999" stroke-width="0.1" width="50" height="100"/>
	<rect x="195.5" y="-52.5" fill="none" stroke="#999999" stroke-width="0.1" width="50" height="100"/>
	<rect x="295.5" y="-52.5" fill="none" stroke="#999999" stroke-width="0.1" width="50" height="100"/>
	<rect x="395.5" y="-52.5" fill="none" stroke="#999999" stroke-width="0.1" width="50" height="100"/>
	<rect x="495.5" y="-52.5" fill="none" stroke="#999999" stroke-width="0.1" width="50" height="100"/>
	<rect x="595.5" y="-52.5" fill="none" stroke="#999999" stroke-width="0.1" width="50" height="100"/>
	<rect x="195.5" y="47.5" fill="none" stroke="#999999" stroke-width="0.1" width="50" height="100"/>
	<rect x="295.5" y="47.5" fill="none" stroke="#999999" stroke-width="0.1" width="50" height="100"/>
	<rect x="395.5" y="47.5" fill="none" stroke="#999999" stroke-width="0.1" width="50" height="100"/>
	<rect x="495.5" y="47.5" fill="none" stroke="#999999" stroke-width="0.1" width="50" height="100"/>
	<rect x="595.5" y="47.5" fill="none" stroke="#999999" stroke-width="0.1" width="50" height="100"/>
	<rect x="195.5" y="347.5" fill="none" stroke="#999999" stroke-width="0.1" width="50" height="100"/>
	<rect x="295.5" y="347.5" fill="none" stroke="#999999" stroke-width="0.1" width="50" height="100"/>
	<rect x="395.5" y="347.5" fill="none" stroke="#999999" stroke-width="0.1" width="50" height="100"/>
	<rect x="495.5" y="347.5" fill="none" stroke="#999999" stroke-width="0.1" width="50" height="100"/>
	<rect x="595.5" y="347.5" fill="none" stroke="#999999" stroke-width="0.1" width="50" height="100"/>
	<rect x="195.5" y="447.5" fill="none" stroke="#999999" stroke-width="0.1" width="50" height="100"/>
	<rect x="295.5" y="447.5" fill="none" stroke="#999999" stroke-width="0.1" width="50" height="100"/>
	<rect x="395.5" y="447.5" fill="none" stroke="#999999" stroke-width="0.1" width="50" height="100"/>
	<rect x="495.5" y="447.5" fill="none" stroke="#999999" stroke-width="0.1" width="50" height="100"/>
	<rect x="595.5" y="447.5" fill="none" stroke="#999999" stroke-width="0.1" width="50" height="100"/>
	<rect x="195.5" y="547.5" fill="none" stroke="#999999" stroke-width="0.1" width="50" height="100"/>
	<rect x="295.5" y="547.5" fill="none" stroke="#999999" stroke-width="0.1" width="50" height="100"/>
	<rect x="395.5" y="547.5" fill="none" stroke="#999999" stroke-width="0.1" width="50" height="100"/>
	<rect x="495.5" y="547.5" fill="none" stroke="#999999" stroke-width="0.1" width="50" height="100"/>
	<rect x="595.5" y="547.5" fill="none" stroke="#999999" stroke-width="0.1" width="50" height="100"/>
</g>
<g>
	<polygon points="528.5,577.5 539,577.5 539,560.5 502,560.5 502,577.5 512.5,577.5 512.5,617.5 500.5,617.5 500.5,634.5 
		540.5,634.5 540.5,617.5 528.5,617.5 	"/>
	<polygon points="527.4580078,475.8330078 538.8330078,475.8330078 538.8330078,461.3330078 502.1660156,461.3330078 
		502.1660156,475.8330078 513.5410156,475.8330078 513.5410156,519.1660156 500.6660156,519.1660156 500.6660156,533.6660156 
		540.3330078,533.6660156 540.3330078,519.1660156 527.4580078,519.1660156 	"/>
	<polygon points="526.4160156,374.1669922 538.6660156,374.1669922 538.6660156,362.1669922 502.3330078,362.1669922 
		502.3330078,374.1669922 514.5830078,374.1669922 514.5830078,420.8330078 500.8330078,420.8330078 500.8330078,432.8330078 
		540.1660156,432.8330078 540.1660156,420.8330078 526.4160156,420.8330078 	"/>
	<polygon points="525.375,272.5 538.5,272.5 538.5,263 502.5,263 502.5,272.5 515.625,272.5 515.625,322.5 501,322.5 501,332 
		540,332 540,322.5 525.375,322.5 	"/>
	<polygon points="524.0830078,170.8330078 538.3330078,170.8330078 538.3330078,163.8330078 502.6660156,163.8330078 
		502.6660156,170.8330078 516.9160156,170.8330078 516.9160156,224.1660156 501.1660156,224.1660156 501.1660156,231.1665039 
		539.8330078,231.1665039 539.8330078,224.1660156 524.0830078,224.1660156 	"/>
	<polygon points="522.7919922,69.1669922 538.1669922,69.1669922 538.1669922,64.6665039 502.8330078,64.6665039 
		502.8330078,69.1669922 518.2080078,69.1669922 518.2080078,125.8330078 501.3330078,125.8330078 501.3330078,130.3334961 
		539.6669922,130.3334961 539.6669922,125.8330078 522.7919922,125.8330078 	"/>
	<polygon points="521.5,27.5 521.5,-32.5 538,-32.5 538,-34.5 503,-34.5 503,-32.5 519.5,-32.5 519.5,27.5 501.5,27.5 501.5,29.5 
		539.5,29.5 539.5,27.5 	"/>
</g>
<g>
	<path d="M421-29.5v-17h-2v17h-17v29h2v-27h33v12c0,28.1425781-9.0800781,45.4433594-26.2578125,50.0332031l0.515625,1.9335938
		C423.9140625,33.0839844,439,21.3242188,439-15.5v-14H421z"/>
	<path d="M422.375,69.8330078v-16.5h-4.5834961v16.5h-16.0419922V100h4.4169922V74.25H434.75V85
		c0,27.5507812-8.703125,43.0009766-25.0058594,47.3554688l1.34375,4.4555664C425.5292969,133.140625,439.25,120.2265625,439.25,85
		V69.8330078H422.375z"/>
	<path d="M423.75,169.1665039v-15.9995117h-7.1665039v15.9995117H401.5V200.5h6.8334961V176H432.5v9.5
		c0,26.9589844-8.3271484,40.559082-23.7529297,44.6777344l2.171875,6.9775391
		C427.1445312,233.1972656,439.5,219.1289062,439.5,185.5v-16.3334961H423.75z"/>
	<path d="M425.125,268.5V253h-9.75v15.5H401.25V301h9.25v-23.25h19.75V286c0,26.3671875-7.9501953,38.1171875-22.5,42l3,9.5
		c18.0097656-4.2460938,29-19.46875,29-51.5v-17.5H425.125z"/>
	<path d="M426.25,367.8330078v-15h-11.8334961v15h-13.4169922V401.5h11.1669922v-22H428.5v7
		c0,25.0927734-7.0068359,35.4970703-21.1669922,39.3330078l3.3334961,12C429.3164062,433.5693359,440,418.5205078,440,386.5
		v-18.6669922H426.25z"/>
	<path d="M427.375,467.1669922v-14.5h-13.9169922v14.5H400.75V502h13.0830078v-20.75H426.75V487
		c0,23.8193359-6.0625,32.8779297-19.8334961,36.6669922l3.6669922,14.5C429.8730469,533.8847656,440.25,519.0097656,440.25,487
		v-19.8330078H427.375z"/>
	<path d="M410.5,638.5c19.9296875-4.2998047,30-19,30-51v-21h-12v-14h-16v14h-12v36h15V583h9.5v4.5
		c0,22.5449219-5.1191406,30.2587891-18.5,34L410.5,638.5z"/>
</g>
<g>
	<g>
		<rect x="202" y="-36.5" width="39" height="2"/>
		<path d="M226.6650391-1.7529297l-1.3300781-1.4941406c6.9892578-6.2167969,11.7207031-17.1171875,13.6826172-31.5224609L241-34.5
			C238.9716797-19.6152344,234.0146484-8.2910156,226.6650391-1.7529297z"/>
		<path d="M206.1582031,35.2539062l-1.3164062-1.5078125C214.2880859,25.4970703,218.5,7.8417969,218.5-23.5h2
			C220.5,8.4697266,216.0771484,26.5898438,206.1582031,35.2539062z"/>
	</g>
	<g>
		<rect x="201.7915039" y="62.8330078" width="39.4165039" height="4.4165039"/>
		<path d="M236.8032227,66.5698242l4.4047852,0.6796875c-1.8339844,14.4086914-6.5620117,26.0288086-13.2646484,32.831543
			l-3.3867188-2.8291016C230.9150391,90.5507812,235.1694336,79.984375,236.8032227,66.5698242z"/>
		<path d="M207.2719727,136.0024414l-3.0444336-3.171875C212.9013672,124.4355469,216.5,109.7275391,216.5,77.5h4.4995117
			C220.9995117,111.1459961,216.9453125,126.9335938,207.2719727,136.0024414z"/>
	</g>
	<g>
		<rect x="201.5830078" y="162.1669922" width="39.8339844" height="6.8330078"/>
		<path d="M234.5893555,167.9101562L241.4169922,169c-1.6396484,13.9316406-6.1386719,25.8486328-12.1953125,32.9155273
			l-5.4433594-4.1645508C229.5068359,190.5654297,233.2841797,180.3339844,234.5893555,167.9101562z"/>
		<path d="M208.3862305,236.7509766l-4.7719727-4.8354492C211.5146484,223.375,214.5,211.6132812,214.5,178.5h7
			C221.5,213.8232422,217.8134766,227.2783203,208.3862305,236.7509766z"/>
	</g>
	<g>
		<rect x="201.375" y="261.5" width="40.25" height="9.25"/>
		<path d="M232.375,269.25l9.25,1.5c-1.4453125,13.4550781-5.7148438,25.6679688-11.125,33l-7.5-5.5
			C228.0986328,290.5800781,231.3984375,280.6826172,232.375,269.25z"/>
		<path d="M222,279.5c0,37-3.3183594,48.1220703-12.5,58L203,331c7.1279297-8.6855469,9.5-17.5009766,9.5-51.5H222z"/>
	</g>
	<g>
		<rect x="201.1660156" y="360.8330078" width="40.6669922" height="11.6669922"/>
		<path d="M230.6665039,370.5l11.1665039,2c-1.3383789,12.9785156-5.5527344,25.4941406-10.75,33L221.75,398.6660156
			C226.8256836,390.5810547,229.9179688,380.9414062,230.6665039,370.5z"/>
		<path d="M222.4995117,380.5c0,36.9160156-2.9970703,47.3837891-11.9331055,57.6660156l-8.3330078-8
			C209.0019531,421.3359375,211,413.5859375,211,380.5H222.4995117z"/>
	</g>
	<g>
		<rect x="200.9580078" y="460.1660156" width="41.0834961" height="14.0839844"/>
		<path d="M228.9580078,471.75l13.0834961,2.5c-1.2319336,12.5019531-5.3901367,25.3203125-10.3745117,33L220.5,499.0839844
			C225.5532227,490.5820312,228.4384766,481.2011719,228.9580078,471.75z"/>
		<path d="M223,481.5c0,36.8330078-2.6767578,46.6464844-11.3662109,57.3330078l-10.1669922-9.5
			C207.8764648,520.3574219,209.5,513.6728516,209.5,481.5H223z"/>
	</g>
	<g>
		<rect x="200.75" y="559.5" width="41.5" height="16.5"/>
		<path d="M227.25,573c-0.2919922,8.4599609-2.9697266,17.5839844-8,26.5l13,9.5c4.7714844-7.8535156,8.875-20.9746094,10-33
			L227.25,573z"/>
		<path d="M223.5,582.5H208c0,31.2597656-1.2490234,36.8789062-7.2998047,46l12,11
			C221.1445312,628.4082031,223.5,619.25,223.5,582.5z"/>
	</g>
</g>
<g>
	<g>
		<path d="M641-28.5h-12v-17h-2v17h-26v2h26v51c0,7-1.0966797,7-3.5,7c-2.8554688,0-6.0546875-0.3554688-8.7783203-0.9746094
			l-0.4433594,1.9492188C617.140625,33.1269531,620.5019531,33.5,623.5,33.5c4.7353516,0,5.5-2.6533203,5.5-9v-51h12V-28.5z"/>
		<path d="M602.2744141,20.1328125l-1.5488281-1.265625c9.2568359-11.3232422,18.9648438-29.2207031,25.3349609-46.7089844
			l1.8789062,0.6835938C621.4970703-9.4726562,611.6630859,8.6474609,602.2744141,20.1328125z"/>
	</g>
	<g>
		<path d="M630.4160156,123.4165039c0,8.5551758-0.9677734,10.8334961-6.9160156,10.8334961
			c-2.8613281,0-6.4765625-0.3769531-9.5644531-1.0170898l0.1289062-4.3828125
			c2.8671875,0.6362305,5.9970703,0.9829102,8.6015625,0.9829102c2.3828125,0,3.25-0.1455078,3.25-6.4165039v-48.25h-25.0830078
			v-4.4169922h25.0830078V54.25h4.5v16.4995117h10.75v4.4169922h-10.75V123.4165039z"/>
		<path d="M624.9570312,72.8554688l3.3359375,2.6220703c-6.4912109,17.3901367-16.1230469,34.8823242-25.2773438,46.1103516
			l-2.8652344-3.7602539C609.0917969,106.8881836,618.5214844,89.8574219,624.9570312,72.8554688z"/>
	</g>
	<g>
		<path d="M631.8339844,222.3334961C631.8339844,233.0976562,630.6611328,235,623.5,235
			c-2.7236328,0-6.59375-0.3808594-9.9072266-1.0083008l-0.1855469-6.8168945
			c3.0107422,0.6533203,6.0712891,0.9921875,8.4257812,0.9921875c2.3623047,0,3-0.2910156,3-5.8334961v-45.5h-24.1660156V170
			h24.1660156v-16h7.0009766v16h9.5v6.8334961h-9.5V222.3334961z"/>
		<path d="M623.8535156,173.5527344l4.7929688,4.5615234c-6.5400391,17.0942383-15.9677734,33.9584961-24.8886719,44.9296875
			l-4.1826172-6.2548828C608.2001953,206.2333984,617.3525391,190.0693359,623.8535156,173.5527344z"/>
	</g>
	<g>
		<path d="M633.25,321.25c0,12.9726562-1.3759766,14.5-9.75,14.5c-2.5869141,0-6.7109375-0.3847656-10.25-1l-0.5-9.25
			c3.1533203,0.6699219,6.1464844,1,8.25,1c2.3417969,0,2.75-0.4355469,2.75-5.25V278.5H600.5v-9.25h23.25v-15.5h9.5v15.5h8.25v9.25
			h-8.25V321.25z"/>
		<path d="M622.75,274.25l6.25,6.5c-6.5888672,16.7988281-15.8134766,33.0351562-24.5,43.75l-5.5-8.75
			C607.3095703,305.578125,616.1835938,290.28125,622.75,274.25z"/>
	</g>
	<g>
		<path d="M634.3330078,420.1660156C634.3330078,435.0078125,633.0351562,436.5,623.5,436.5
			c-2.4501953,0-6.9023438-0.3974609-10.6669922-1l-0.1669922-11.6669922c3.4091797,0.7109375,5.9277344,1,7.6669922,1
			c2.1601562,0,2.5-0.3681641,2.5-4.6669922v-40h-22.5V368.5h22.5v-15h11.5v15h7.3330078v11.6660156h-7.3330078V420.1660156z"/>
		<path d="M621.6660156,375L629,383c-6.6376953,16.5029297-15.5742188,32.1875-24,42.6660156l-6.5-10.8330078
			C606.4941406,405.0449219,615.0341797,390.5449219,621.6660156,375z"/>
	</g>
	<g>
		<path d="M635.4169922,519.0830078c0,16.7109375-1.2197266,18.1669922-11.9169922,18.1669922
			c-2.3125,0-7.09375-0.4091797-11.0839844-1l0.1669922-14.0830078c3.6640625,0.7509766,5.7089844,1,7.0839844,1
			c1.9785156,0,2.2490234-0.2998047,2.2490234-4.0839844v-37.25h-21.75V467.75h21.75v-14.5h13.5009766v14.5h6.4160156v14.0830078
			h-6.4160156V519.0830078z"/>
		<path d="M620.5830078,475.75L629,485.25c-6.6855469,16.2080078-15.3330078,31.3408203-23.5,41.5839844l-7.5-12.9169922
			C605.6787109,504.5126953,613.8857422,490.8105469,620.5830078,475.75z"/>
	</g>
	<g>
		<path d="M636.5,618c0,18.5800781-1.140625,20-13,20c-2.1757812,0-7.2851562-0.421875-11.5-1l0.5-16.5
			c3.9189453,0.7919922,5.4902344,1,6.5,1c1.796875,0,2-0.2324219,2-3.5v-34.5h-21V567h21v-14h15.5v14h5.5v16.5h-5.5V618z"/>
		<path d="M619.5,576.5c-6.7626953,14.5742188-14.6367188,27.4804688-22,36.5l8.5,15
			c7.9072266-10.0058594,16.265625-24.5878906,23-40.5L619.5,576.5z"/>
	</g>
</g>
<g>
	<g>
		<path d="M301.3701172,0.4296875l-0.7402344-1.859375c15.0644531-5.9941406,30.4628906-21.8085938,37.4482422-38.4570312
			l1.84375,0.7734375C332.6328125-21.7382812,317.1396484-5.8476562,301.3701172,0.4296875z"/>
		<rect x="322.5" y="-16" width="2" height="53.5"/>
	</g>
	<g>
		<path d="M336.6352539,59.5751953l3.8125,1.765625c-7.1743164,17.8442383-23.0708008,34.1816406-39.034668,40.3623047
			l-0.9936523-4.4067383C314.8427734,91.4638672,329.6523438,76.1455078,336.6352539,59.5751953z"/>
		<rect x="321.1660156" y="83.5830078" width="4.5839844" height="54.1665039"/>
	</g>
	<g>
		<path d="M335.1923828,159.0380859l5.7817383,2.7578125c-7.0600586,18.3134766-23.3588867,35.0976562-39.5175781,41.1806641
			l-1.246582-6.953125C313.9921875,190.3525391,328.2128906,175.5302734,335.1923828,159.0380859z"/>
		<rect x="319.8330078" y="183.1665039" width="7.1669922" height="54.8334961"/>
	</g>
	<g>
		<path d="M333.75,258.5l7.75,3.75c-6.9453125,18.7832031-23.6474609,36.0136719-40,42l-1.5-9.5
			C313.140625,289.2402344,326.7734375,274.9140625,333.75,258.5z"/>
		<rect x="318.5" y="282.75" width="9.75" height="55.5"/>
	</g>
	<g>
		<path d="M332.3330078,358L342,362.8330078c-6.8310547,19.2529297-23.953125,36.9443359-40.5004883,42.8330078L299.8330078,393.5
			C312.3300781,388.1513672,325.3554688,374.3359375,332.3330078,358z"/>
		<rect x="317.5" y="382.3330078" width="11.8330078" height="56.1669922"/>
	</g>
	<g>
		<path d="M330.9169922,457.5L342.5,463.4160156c-6.7163086,19.7226562-24.2583008,37.875-41,43.6679688L299.6669922,492.25
			C311.5205078,487.0634766,323.9375,473.7578125,330.9169922,457.5z"/>
		<rect x="316.5" y="481.9169922" width="13.9165039" height="56.8330078"/>
	</g>
	<g>
		<path d="M329.5,557c-6.9804688,16.1796875-18.7900391,28.9746094-30,34l2,17.5
			c16.9365234-5.6953125,34.8984375-24.3085938,41.5-44.5L329.5,557z"/>
		<rect x="315.5" y="581.5" width="16" height="57.5"/>
	</g>
</g>
</svg>
