<?xml version="1.0" encoding="utf-8"?>
<!-- Generator: Adobe Illustrator 15.0.2, SVG Export Plug-In . SVG Version: 6.00 Build 0)  -->
<!DOCTYPE svg PUBLIC "-//W3C//DTD SVG 1.1//EN" "http://www.w3.org/Graphics/SVG/1.1/DTD/svg11.dtd">
<svg version="1.1" id="レイヤー1" xmlns="http://www.w3.org/2000/svg" xmlns:xlink="http://www.w3.org/1999/xlink" x="0px"
	 y="0px" width="841.8896484px" height="595.2753906px" viewBox="0 0 841.8896484 595.2753906"
	 enable-background="new 0 0 841.8896484 595.2753906" xml:space="preserve">
<g>
	<rect x="195.5" y="147.5" fill="none" stroke="#999999" stroke-width="0.1" width="50" height="100"/>
	<rect x="295.5" y="147.5" fill="none" stroke="#999999" stroke-width="0.1" width="50" height="100"/>
	<rect x="395.5" y="147.5" fill="none" stroke="#999999" stroke-width="0.1" width="50" height="100"/>
	<rect x="495.5" y="147.5" fill="none" stroke="#999999" stroke-width="0.1" width="50" height="100"/>
	<rect x="595.5" y="147.5" fill="none" stroke="#999999" stroke-width="0.1" width="50" height="100"/>
	<rect x="195.5" y="247.5" fill="none" stroke="#999999" stroke-width="0.1" width="50" height="100"/>
	<rect x="295.5" y="247.5" fill="none" stroke="#999999" stroke-width="0.1" width="50" height="100"/>
	<rect x="395.5" y="247.5" fill="none" stroke="#999999" stroke-width="0.1" width="50" height="100"/>
	<rect x="495.5" y="247.5" fill="none" stroke="#999999" stroke-width="0.1" width="50" height="100"/>
	<rect x="595.5" y="247.5" fill="none" stroke="#999999" stroke-width="0.1" width="50" height="100"/>
	<rect x="195.5" y="-52.5" fill="none" stroke="#999999" stroke-width="0.1" width="50" height="100"/>
	<rect x="295.5" y="-52.5" fill="none" stroke="#999999" stroke-width="0.1" width="50" height="100"/>
	<rect x="395.5" y="-52.5" fill="none" stroke="#999999" stroke-width="0.1" width="50" height="100"/>
	<rect x="495.5" y="-52.5" fill="none" stroke="#999999" stroke-width="0.1" width="50" height="100"/>
	<rect x="595.5" y="-52.5" fill="none" stroke="#999999" stroke-width="0.1" width="50" height="100"/>
	<rect x="195.5" y="47.5" fill="none" stroke="#999999" stroke-width="0.1" width="50" height="100"/>
	<rect x="295.5" y="47.5" fill="none" stroke="#999999" stroke-width="0.1" width="50" height="100"/>
	<rect x="395.5" y="47.5" fill="none" stroke="#999999" stroke-width="0.1" width="50" height="100"/>
	<rect x="495.5" y="47.5" fill="none" stroke="#999999" stroke-width="0.1" width="50" height="100"/>
	<rect x="595.5" y="47.5" fill="none" stroke="#999999" stroke-width="0.1" width="50" height="100"/>
	<rect x="195.5" y="347.5" fill="none" stroke="#999999" stroke-width="0.1" width="50" height="100"/>
	<rect x="295.5" y="347.5" fill="none" stroke="#999999" stroke-width="0.1" width="50" height="100"/>
	<rect x="395.5" y="347.5" fill="none" stroke="#999999" stroke-width="0.1" width="50" height="100"/>
	<rect x="495.5" y="347.5" fill="none" stroke="#999999" stroke-width="0.1" width="50" height="100"/>
	<rect x="595.5" y="347.5" fill="none" stroke="#999999" stroke-width="0.1" width="50" height="100"/>
	<rect x="195.5" y="447.5" fill="none" stroke="#999999" stroke-width="0.1" width="50" height="100"/>
	<rect x="295.5" y="447.5" fill="none" stroke="#999999" stroke-width="0.1" width="50" height="100"/>
	<rect x="395.5" y="447.5" fill="none" stroke="#999999" stroke-width="0.1" width="50" height="100"/>
	<rect x="495.5" y="447.5" fill="none" stroke="#999999" stroke-width="0.1" width="50" height="100"/>
	<rect x="595.5" y="447.5" fill="none" stroke="#999999" stroke-width="0.1" width="50" height="100"/>
	<rect x="195.5" y="547.5" fill="none" stroke="#999999" stroke-width="0.1" width="50" height="100"/>
	<rect x="295.5" y="547.5" fill="none" stroke="#999999" stroke-width="0.1" width="50" height="100"/>
	<rect x="395.5" y="547.5" fill="none" stroke="#999999" stroke-width="0.1" width="50" height="100"/>
	<rect x="495.5" y="547.5" fill="none" stroke="#999999" stroke-width="0.1" width="50" height="100"/>
	<rect x="595.5" y="547.5" fill="none" stroke="#999999" stroke-width="0.1" width="50" height="100"/>
</g>
<g>
	<polygon points="638,29.5 603.5,29.5 603.5,27.5 636,27.5 636,-32.5 603.5,-32.5 603.5,-34.5 638,-34.5 	"/>
	<polygon points="638.0830078,130.3330078 603.1660156,130.3330078 603.1660156,125.8330078 633.5,125.8330078 633.5,69.1665039 
		603.1660156,69.1665039 603.1660156,64.6660156 638.0830078,64.6660156 	"/>
	<polygon points="638.1660156,231.1669922 602.8339844,231.1669922 602.8339844,224.1665039 631,224.1665039 631,170.8334961 
		602.8339844,170.8334961 602.8339844,163.8330078 638.1660156,163.8330078 	"/>
	<polygon points="638.25,263 638.25,332 602.5,332 602.5,322.5 628.5,322.5 628.5,272.5 602.5,272.5 602.5,263 	"/>
	<polygon points="638.3330078,362.1660156 638.3330078,432.8330078 602.1660156,432.8330078 602.1660156,420.8330078 
		626.5,420.8330078 626.5,374.1660156 602.1660156,374.1660156 602.1660156,362.1660156 	"/>
	<polygon points="638.4169922,461.3339844 638.4169922,533.6660156 601.8330078,533.6660156 601.8330078,519.1669922 
		624.5,519.1669922 624.5,475.8330078 601.8330078,475.8330078 601.8330078,461.3339844 	"/>
	<polygon points="638.5,560.5 601.5,560.5 601.5,577.5 622.5,577.5 622.5,617.5 601.5,617.5 601.5,634.5 638.5,634.5 	"/>
</g>
<g>
	<g>
		<path d="M210.5,639.5c7.5185547-15.4179688,10.5-33.0253906,10.5-86h-15c0,47.4609375-2.1806641,61.8623047-8,75L210.5,639.5z"/>
		<path d="M224.5,584.5H200v-17h40v15c0,51.4550781-2.1103516,55-9,55c-2.5400391,0-8.0371094-0.5732422-13-1.5l0.5-17
			c2.6943359,0.7626953,3.9990234,1,4.5,1c1.0380859,0,1.5-1.59375,1.5-28V584.5z"/>
	</g>
	<g>
		<path d="M209.5,538.75l-11.0004883-9.3339844c6.5776367-13.6113281,9.0834961-28.7207031,9.0834961-75.9160156h13.0834961
			C220.6665039,505.6933594,217.5092773,523.2636719,209.5,538.75z"/>
		<path d="M239.6660156,480.6660156c0,52.3222656-2.1484375,56.1669922-9,56.1669922
			c-2.6518555,0-7.9140625-0.5449219-12.5830078-1.4169922l0.1669922-14.5c2.7109375,0.7128906,4.6865234,1,5.5830078,1
			c1.5839844,0,2.3291016-2.4287109,2.3334961-33.1660156v-6.25h-25.75V468h39.2495117V480.6660156z"/>
	</g>
	<g>
		<path d="M208.5,438l-9.5-7.6669922c7.3359375-14.0859375,10.1665039-29.9023438,10.1665039-76.8330078h11.1669922
			C220.3334961,404.9130859,217.0009766,422.4472656,208.5,438z"/>
		<path d="M239.3330078,378.8339844c0,53.1875-2.1870117,57.3330078-9,57.3330078
			c-2.7636719,0-7.7919922-0.5175781-12.1665039-1.3339844l-0.1665039-12c2.7285156,0.6611328,5.375,1.0009766,6.6669922,1.0009766
			c2.1289062,0,3.1582031-3.265625,3.1660156-38.3339844v-5h-26.9995117v-12h38.4995117V378.8339844z"/>
	</g>
	<g>
		<path d="M207.5,337.25l-8-6c8.09375-14.5605469,11.25-31.0839844,11.25-77.75H220
			C220,304.1318359,216.4921875,321.6298828,207.5,337.25z"/>
		<path d="M239,277c0,54.0546875-2.2255859,58.5-9,58.5c-2.8759766,0-7.6699219-0.4892578-11.75-1.25l-0.5-9.5
			c2.7460938,0.6103516,6.0625,1,7.75,1c2.6748047,0,3.9873047-4.0996094,4-43.5v-3.75h-28.25V269H239V277z"/>
	</g>
	<g>
		<path d="M206.1123047,236.515625l-5.8916016-4.3647461c8.7006836-14.7631836,12.2788086-30.8505859,12.2788086-78.6513672
			h6.8334961C219.3330078,202.5390625,215.8979492,220.3012695,206.1123047,236.515625z"/>
		<path d="M229.8330078,234.8330078c-2.918457,0-7.3847656-0.4599609-11.0703125-1.1738281l-0.1928711-6.9853516
			c2.7539062,0.6049805,6.1801758,0.9926758,8.2631836,0.9926758c3.3012695,0,4.8164062-5.4755859,4.8330078-48.6665039v-2.5
			h-29.9995117v-7h37v5.6665039C238.6665039,230.0878906,236.4052734,234.8330078,229.8330078,234.8330078z"/>
	</g>
	<g>
		<path d="M204.7246094,135.78125l-3.7822266-2.7290039C210.2495117,118.0864258,214.25,102.4350586,214.25,53.5h4.4169922
			C218.6669922,100.9472656,215.3046875,118.9736328,204.7246094,135.78125z"/>
		<path d="M229.6665039,134.1669922c-2.9604492,0-7.0996094-0.4306641-10.3901367-1.0986328l0.1132812-4.4697266
			c2.762207,0.5986328,6.2983398,0.984375,8.7768555,0.984375c3.9277344,0,5.6455078-6.8505859,5.6665039-53.8330078V74.5h-31.75V70
			h36.2504883v3.3330078C238.3334961,129.1220703,236.0371094,134.1669922,229.6665039,134.1669922z"/>
	</g>
	<g>
		<path d="M203.3369141,35.046875l-1.6738281-1.09375C211.5771484,18.7851562,216,3.5693359,216-46.5h2
			C218-0.6455078,214.7109375,17.6455078,203.3369141,35.046875z"/>
		<path d="M229.5,33.5c-3.0029297,0-6.8144531-0.4013672-9.7099609-1.0224609l0.4199219-1.9550781
			C222.9794922,31.1162109,226.6259766,31.5,229.5,31.5c4.5537109,0,6.4746094-8.2265625,6.5-59l0,0h-33.5v-2H238v1
			C238,28.1552734,235.6689453,33.5,229.5,33.5z"/>
	</g>
</g>
<g>
	<g>
		<polygon points="340,585 339.5,568 301,571 301.5,588 		"/>
		<polygon points="342,618 341.5,601 299,604 299.5,621 		"/>
		<polygon points="331.5,640 325.5,553.5 309.5,555 315.5,641.5 		"/>
	</g>
	<g>
		<polygon points="301.6777344,486.0820312 301.2382812,471.5839844 339.3212891,468.6669922 339.7617188,483.1660156 		"/>
		<polygon points="299.6767578,519.0820312 299.2392578,504.5839844 341.3227539,501.6669922 341.7597656,516.1660156 		"/>
		<polygon points="316.2915039,541.171875 310.7915039,455.0888672 324.7080078,453.8271484 330.2080078,539.9101562 		"/>
	</g>
	<g>
		<polygon points="301.8564453,384.1660156 301.4765625,372.1669922 339.1430664,369.3339844 339.5234375,381.3330078 		"/>
		<polygon points="299.8544922,417.1660156 299.4790039,405.1669922 341.1455078,402.3339844 341.5205078,414.3330078 		"/>
		<polygon points="317.0834961,440.8447266 312.0834961,355.1787109 323.9169922,354.1552734 328.9169922,439.8212891 		"/>
	</g>
	<g>
		<polygon points="302.0351562,282.2490234 301.7148438,272.7509766 338.9648438,270.0009766 339.2851562,279.4990234 		"/>
		<polygon points="300.03125,315.2490234 299.71875,305.7509766 340.96875,303.0009766 341.28125,312.4990234 		"/>
		<polygon points="317.875,340.5175781 313.375,255.2675781 323.125,254.4824219 327.625,339.7324219 		"/>
	</g>
	<g>
		<polygon points="302.2128906,180.331543 301.953125,173.3339844 338.7861328,170.6679688 339.0463867,177.6650391 		"/>
		<polygon points="300.2080078,213.331543 299.9580078,206.3339844 340.7910156,203.6679688 341.0415039,210.6650391 		"/>
		<polygon points="318.9169922,240.1899414 314.9169922,155.3569336 322.0830078,154.8095703 326.0830078,239.6425781 		"/>
	</g>
	<g>
		<polygon points="302.3911133,78.4150391 302.1923828,73.9179688 338.6083984,71.3349609 338.8076172,75.8320312 		"/>
		<polygon points="300.3852539,111.4150391 300.1982422,106.9179688 340.6142578,104.3349609 340.8022461,108.8320312 		"/>
		<polygon points="319.9589844,139.8632812 316.4589844,55.4462891 321.0410156,55.1367188 324.5410156,139.5537109 		"/>
	</g>
	<g>
		
			<rect x="319.4995422" y="-43.7933502" transform="matrix(0.0693046 0.9975955 -0.9975955 0.0693046 272.5997925 -343.6947632)" width="2.0009048" height="36.0867004"/>
		
			<rect x="319.5" y="-12.7890244" transform="matrix(0.0624998 0.998045 -0.998045 0.0624998 307.7046204 -313.0765381)" width="2.0000038" height="40.0780487"/>
		
			<rect x="278.4732361" y="-3.4996767" transform="matrix(0.0356915 0.9993629 -0.9993629 0.0356915 306.5624695 -322.7065735)" width="84.0535507" height="1.9993533"/>
	</g>
</g>
<g>
	<g>
		<path d="M518,554.5l-15-1c-0.7529297,16.4970703-2.5273438,29.5595703-5.5,42l13,9.5
			C514.6806641,591.2285156,517.2509766,575.3964844,518,554.5z"/>
		<path d="M513.5,638.5c15.0634766-6.1142578,22.5-19.8574219,22.5-55h6v-17h-36v17h14.5c0,26.9296875-3.6552734,33.9121094-14,38.5
			L513.5,638.5z"/>
	</g>
	<g>
		<path d="M508.9853516,504.1503906l-11.3876953-8.0517578c3.4072266-12.453125,5.3701172-25.5820312,6.1523438-42.2744141
			l13.0830078,0.8515625C516.0517578,475.0761719,513.4169922,490.5498047,508.9853516,504.1503906z"/>
		<path d="M506.1660156,467.3330078v14.5h15.1669922c0,28.3398438-3.9658203,37.1552734-14.7431641,42.1025391l6.2363281,14.0449219
			c14.8359375-6.2841797,22.0068359-20.8222656,22.0068359-56.1474609H542v-14.5H506.1660156z"/>
	</g>
	<g>
		<path d="M507.4707031,403.3027344l-9.7753906-6.6044922c3.8427734-12.4658203,5.9941406-25.6611328,6.8046875-42.5488281
			l11.1660156,0.7011719C514.8535156,374.7568359,512.1542969,389.8720703,507.4707031,403.3027344z"/>
		<path d="M506.3339844,368.1669922v12h15.8330078c0,29.75-4.2773438,40.3974609-15.4873047,45.7041016l5.4746094,11.5908203
			c14.6074219-6.4550781,21.5117188-21.7871094,21.5117188-57.2949219H542v-12H506.3339844z"/>
	</g>
	<g>
		<path d="M505.9570312,302.453125l-8.1640625-5.15625c4.2773438-12.4785156,6.6171875-25.7402344,7.4570312-42.8232422
			l9.25,0.5527344C513.6542969,274.4375,510.890625,289.1933594,505.9570312,302.453125z"/>
		<path d="M506.5,269v9.5H523c0,31.1601562-4.5878906,43.640625-16.2304688,49.3066406l4.7109375,9.1367188
			C525.8603516,330.3173828,532.5,314.1914062,532.5,278.5h9.5V269H506.5z"/>
	</g>
	<g>
		<path d="M504.1083984,201.6044922l-6.0507812-3.7089844c4.7119141-12.4912109,7.2392578-25.8193359,8.109375-43.0976562
			l6.8320312,0.4033203C512.1210938,174.1171875,509.2929688,188.5146484,504.1083984,201.6044922z"/>
		<path d="M506.6660156,169.8330078v7h17.5c0,32.5703125-4.8984375,46.8837891-16.9736328,52.9091797l3.4482422,6.6816406
			c14.1523438-6.7958984,20.5253906-23.7163086,20.5253906-59.5908203H542v-7H506.6660156z"/>
	</g>
	<g>
		<path d="M502.2607422,100.7558594l-3.9384766-2.2617188c5.1474609-12.5029297,7.8632812-25.8974609,8.7617188-43.3710938
			l4.4150391,0.2539062C510.5888672,73.7973633,507.6972656,87.8359375,502.2607422,100.7558594z"/>
		<path d="M506.8330078,70.6665039v4.5004883h18.5c0,33.9804688-5.2099609,50.1259766-17.7177734,56.5107422l2.1865234,4.2275391
			c13.9228516-6.9667969,20.03125-24.6806641,20.03125-60.7382812H542v-4.5004883H506.8330078z"/>
	</g>
	<g>
		<path d="M500.4130859-0.0927734l-1.8261719-0.8144531c5.5820312-12.515625,8.4863281-25.9765625,9.4140625-43.6455078
			l1.9980469,0.1054688C509.0566406-26.5224609,506.1005859-12.8427734,500.4130859-0.0927734z"/>
		<path d="M507-28.5v2h19.5c0,35.390625-5.5214844,53.3691406-18.4619141,60.1132812l0.9238281,1.7734375
			C522.6572266,28.2490234,528.5,9.7412109,528.5-26.5H542v-2H507z"/>
	</g>
</g>
<g>
	<g>
		<path d="M403.3798828-0.0253906l-1.7597656-0.9492188c6.3164062-11.7109375,9.9775391-26.3730469,10.8808594-43.578125
			l1.9980469,0.1054688C413.5791016-26.9453125,409.8378906-11.9990234,403.3798828-0.0253906z"/>
		<path d="M412.5-31.5v-2H437v1c0,40.0419922-9.4716797,59.4394531-32.6923828,66.9511719l-0.6152344-1.9023438
			C425.7382812,25.4160156,434.8427734,6.8291016,434.9980469-31.5H412.5z"/>
	</g>
	<g>
		<path d="M404.815918,101.3120117l-3.7993164-2.7075195c5.949707-11.4980469,9.5029297-26.3798828,10.3173828-43.3154297
			l4.4150391,0.2548828C414.9160156,73.8476562,411.2207031,89.1074219,404.815918,101.3120117z"/>
		<path d="M412.3330078,70.4995117V66h25.25v1.3330078c0,41.7910156-9.0849609,60.1635742-31.9931641,67.9594727
			l-1.5131836-4.4189453c20.3413086-6.9711914,28.7924805-24.2138672,28.9213867-60.3740234H412.3330078z"/>
	</g>
	<g>
		<path d="M406.2529297,202.6494141l-5.8388672-4.4658203c5.5820312-11.2841797,9.0283203-26.3867188,9.7529297-43.0522461
			L417,155.5351562C416.2529297,174.640625,412.6035156,190.2138672,406.2529297,202.6494141z"/>
		<path d="M412.1669922,172.5v-7h25.9990234v1.6665039c0,43.5405273-8.6992188,60.887207-31.2939453,68.9672852
			l-2.4106445-6.9345703c18.6362305-6.8105469,26.434082-22.7080078,26.5375977-56.6992188H412.1669922z"/>
	</g>
	<g>
		<path d="M407.6894531,303.9873047l-7.8789062-6.2246094c5.2158203-11.0703125,8.5546875-26.3935547,9.1894531-42.7890625
			l9.25,0.5527344C417.5898438,275.4335938,413.9863281,291.3203125,407.6894531,303.9873047z"/>
		<path d="M428.9990234,274.5H412V265h26.75v2c0,45.2890625-8.3134766,61.6113281-30.5957031,69.9755859l-3.3085938-9.4511719
			C421.7773438,320.875,428.921875,306.3222656,428.9990234,274.5z"/>
	</g>
	<g>
		<path d="M408.7924805,405.3242188l-9.4189453-7.9824219c4.8491211-10.8574219,8.0810547-26.4003906,8.6264648-42.5263672
			l11.1665039,0.7021484C418.5927734,376.2265625,415.0351562,392.4267578,408.7924805,405.3242188z"/>
		<path d="M427.4990234,376.5h-15.6660156v-12h27.5v2.3330078c0,47.0380859-7.9267578,62.3349609-29.8969727,70.9833984
			l-3.7055664-11.9667969C420.9570312,419.3613281,427.4472656,406.1523438,427.4990234,376.5z"/>
	</g>
	<g>
		<path d="M409.8964844,506.6621094l-10.9594727-9.7412109c4.4829102-10.6435547,7.6074219-26.4082031,8.0629883-42.2626953
			l13.0834961,0.8505859C419.5966797,477.0195312,416.0849609,493.5341797,409.8964844,506.6621094z"/>
		<path d="M426,478.5h-14.3330078V464h28.25v2.6669922c0,48.7861328-7.5419922,63.0585938-29.1987305,71.9912109
			l-4.1030273-14.4833984C420.137207,517.8466797,425.9736328,505.9833984,426,478.5z"/>
	</g>
	<g>
		<g>
			<path d="M411,608c6.1337891-13.359375,9.5996094-30.1875,10-52.5l-15-1c-0.3662109,15.5849609-3.3837891,31.5703125-7.5,42
				L411,608z"/>
		</g>
		<path d="M424.5,580.5c0,25.3144531-5.1826172,35.8330078-17,42l4.5,17c21.3447266-9.2167969,28.5-22.4638672,28.5-73v-3h-29v17
			H424.5z"/>
	</g>
</g>
</svg>
