<?xml version="1.0" encoding="utf-8"?>
<!-- Generator: Adobe Illustrator 15.0.2, SVG Export Plug-In . SVG Version: 6.00 Build 0)  -->
<!DOCTYPE svg PUBLIC "-//W3C//DTD SVG 1.1//EN" "http://www.w3.org/Graphics/SVG/1.1/DTD/svg11.dtd">
<svg version="1.1" id="レイヤー1" xmlns="http://www.w3.org/2000/svg" xmlns:xlink="http://www.w3.org/1999/xlink" x="0px"
	 y="0px" width="841.8896484px" height="595.2753906px" viewBox="0 0 841.8896484 595.2753906"
	 enable-background="new 0 0 841.8896484 595.2753906" xml:space="preserve">
<g>
	<rect x="195.5" y="147.5" fill="none" stroke="#999999" stroke-width="0.1" width="50" height="100"/>
	<rect x="295.5" y="147.5" fill="none" stroke="#999999" stroke-width="0.1" width="50" height="100"/>
	<rect x="395.5" y="147.5" fill="none" stroke="#999999" stroke-width="0.1" width="50" height="100"/>
	<rect x="495.5" y="147.5" fill="none" stroke="#999999" stroke-width="0.1" width="50" height="100"/>
	<rect x="595.5" y="147.5" fill="none" stroke="#999999" stroke-width="0.1" width="50" height="100"/>
	<rect x="195.5" y="247.5" fill="none" stroke="#999999" stroke-width="0.1" width="50" height="100"/>
	<rect x="295.5" y="247.5" fill="none" stroke="#999999" stroke-width="0.1" width="50" height="100"/>
	<rect x="395.5" y="247.5" fill="none" stroke="#999999" stroke-width="0.1" width="50" height="100"/>
	<rect x="495.5" y="247.5" fill="none" stroke="#999999" stroke-width="0.1" width="50" height="100"/>
	<rect x="595.5" y="247.5" fill="none" stroke="#999999" stroke-width="0.1" width="50" height="100"/>
	<rect x="195.5" y="-52.5" fill="none" stroke="#999999" stroke-width="0.1" width="50" height="100"/>
	<rect x="295.5" y="-52.5" fill="none" stroke="#999999" stroke-width="0.1" width="50" height="100"/>
	<rect x="395.5" y="-52.5" fill="none" stroke="#999999" stroke-width="0.1" width="50" height="100"/>
	<rect x="495.5" y="-52.5" fill="none" stroke="#999999" stroke-width="0.1" width="50" height="100"/>
	<rect x="595.5" y="-52.5" fill="none" stroke="#999999" stroke-width="0.1" width="50" height="100"/>
	<rect x="195.5" y="47.5" fill="none" stroke="#999999" stroke-width="0.1" width="50" height="100"/>
	<rect x="295.5" y="47.5" fill="none" stroke="#999999" stroke-width="0.1" width="50" height="100"/>
	<rect x="395.5" y="47.5" fill="none" stroke="#999999" stroke-width="0.1" width="50" height="100"/>
	<rect x="495.5" y="47.5" fill="none" stroke="#999999" stroke-width="0.1" width="50" height="100"/>
	<rect x="595.5" y="47.5" fill="none" stroke="#999999" stroke-width="0.1" width="50" height="100"/>
	<rect x="195.5" y="347.5" fill="none" stroke="#999999" stroke-width="0.1" width="50" height="100"/>
	<rect x="295.5" y="347.5" fill="none" stroke="#999999" stroke-width="0.1" width="50" height="100"/>
	<rect x="395.5" y="347.5" fill="none" stroke="#999999" stroke-width="0.1" width="50" height="100"/>
	<rect x="495.5" y="347.5" fill="none" stroke="#999999" stroke-width="0.1" width="50" height="100"/>
	<rect x="595.5" y="347.5" fill="none" stroke="#999999" stroke-width="0.1" width="50" height="100"/>
	<rect x="195.5" y="447.5" fill="none" stroke="#999999" stroke-width="0.1" width="50" height="100"/>
	<rect x="295.5" y="447.5" fill="none" stroke="#999999" stroke-width="0.1" width="50" height="100"/>
	<rect x="395.5" y="447.5" fill="none" stroke="#999999" stroke-width="0.1" width="50" height="100"/>
	<rect x="495.5" y="447.5" fill="none" stroke="#999999" stroke-width="0.1" width="50" height="100"/>
	<rect x="595.5" y="447.5" fill="none" stroke="#999999" stroke-width="0.1" width="50" height="100"/>
	<rect x="195.5" y="547.5" fill="none" stroke="#999999" stroke-width="0.1" width="50" height="100"/>
	<rect x="295.5" y="547.5" fill="none" stroke="#999999" stroke-width="0.1" width="50" height="100"/>
	<rect x="395.5" y="547.5" fill="none" stroke="#999999" stroke-width="0.1" width="50" height="100"/>
	<rect x="495.5" y="547.5" fill="none" stroke="#999999" stroke-width="0.1" width="50" height="100"/>
	<rect x="595.5" y="547.5" fill="none" stroke="#999999" stroke-width="0.1" width="50" height="100"/>
</g>
<g>
	<path d="M242-24.5h-9v-19h-2v19h-21v-19h-2v19h-9v2h9v25h2v-25h21v7c0,35.8662109-6.8701172,44.3935547-21.3066406,49.0478516
		l0.6132812,1.9042969C227.4853516,29.9121094,233,17.53125,233-15.5v-7h9V-24.5z"/>
	<path d="M208.9619141,131.6982422c14.246582-4.5473633,20.4541016-12.6660156,20.4541016-45.8652344v-6.6669922h-17.9165039V103
		h-4.4165039V79.1660156h-8.1665039v-4.4995117h8.1665039V56.1660156h4.4165039v18.5004883h17.9165039V56.1660156h4.5004883
		v18.5004883h8.1665039v4.4995117h-8.1665039v6.6669922c0,32.9609375-6.1303711,44.9692383-23.2124023,50.3012695
		L208.9619141,131.6982422z"/>
	<path d="M208.2314453,229.8496094c14.0566406-4.4414062,19.6015625-12.1513672,19.6015625-42.6826172v-6.3339844H213V203.5
		h-6.8330078v-22.6669922h-7.3339844v-7h7.3339844v-18H213v18h14.8330078v-18h7.0004883v18h7.3330078v7h-7.3330078v6.3339844
		c0,32.890625-6.7456055,44.5263672-23.7314453,49.6503906L208.2314453,229.8496094z"/>
	<path d="M207.5,328c13.8671875-4.3339844,18.75-11.6357422,18.75-39.5v-6H214.5V304h-9.25v-21.5h-6.5V273h6.5v-17.5h9.25V273h11.75
		v-17.5h9.5V273h6.5v9.5h-6.5v6c0,32.8212891-7.3613281,44.0839844-24.25,49L207.5,328z"/>
	<path d="M207.1665039,426.1660156C220.6054688,422.0136719,225,415.4072266,225,389.8330078v-5.6669922h-9.3339844V404.5H204.5
		v-20.3339844h-5.8339844v-12H204.5v-17h11.1660156v17H225v-17h11.5v17h5.8330078v12H236.5v5.6669922
		c0,32.1259766-7.4179688,43.4931641-24.6669922,48.3330078L207.1665039,426.1660156z"/>
	<path d="M206.8334961,524.3330078C219.8447266,520.3613281,223.75,514.4501953,223.75,491.1660156v-5.3320312h-6.9169922V505
		H203.75v-19.1660156h-5.1669922v-14.5009766H203.75v-16.4990234h13.0830078v16.4990234H223.75v-16.4990234h13.5v16.4990234
		h5.1669922v14.5009766H237.25v5.3320312c0,31.4306641-7.4741211,42.9023438-25.0830078,47.6669922L206.8334961,524.3330078z"/>
	<path d="M206.5,622.5c12.5839844-3.7910156,16-9.0068359,16-30v-5H218v18h-15v-18h-4.5v-17h4.5v-16h15v16h4.5v-16H238v16h4.5v17
		H238v5c0,30.734375-7.5302734,42.3105469-25.5,47L206.5,622.5z"/>
</g>
<g>
	<g>
		<path d="M321.6376953-31.5683594c-5.7724609-2.2441406-11.1552734-4.1435547-16.9404297-5.9785156l0.6054688-1.90625
			c5.8251953,1.8476562,11.2460938,3.7607422,17.0595703,6.0214844L321.6376953-31.5683594z"/>
		<path d="M318.6376953-6.5683594c-7.2304688-2.8095703-11.5585938-4.4326172-15.9707031-5.9882812l0.6660156-1.8867188
			c4.4326172,1.5644531,8.7773438,3.1933594,16.0292969,6.0117188L318.6376953-6.5683594z"/>
		<path d="M305.2910156,35.4570312l-0.5820312-1.9140625c21.8095703-6.6376953,31.5644531-23.4970703,34.7949219-60.1308594
			l1.9921875,0.1757812C338.1806641,11.1894531,328.0302734,28.5361328,305.2910156,35.4570312z"/>
	</g>
	<g>
		<path d="M320.831543,69.8671875c-5.8334961-2.3066406-11.140625-4.2045898-16.9501953-6.0654297l1.4868164-4.2705078
			c5.84375,1.8706055,11.1821289,3.7802734,17.0498047,6.1010742L320.831543,69.8671875z"/>
		<path d="M301.777832,88.628418l1.5273438-4.2578125c4.6630859,1.628418,9.1049805,3.3041992,16.1494141,6.0932617
			l-1.5766602,4.2382812C310.8515625,91.9204102,306.4238281,90.25,301.777832,88.628418z"/>
		<path d="M337.1689453,72.6079102l4.4946289,0.6171875c-3.4199219,39.0874023-13.8930664,55.9428711-36.4702148,62.7460938
			l-1.3041992-4.609375C324.5405273,125.0063477,334.0058594,109.5195312,337.1689453,72.6079102z"/>
	</g>
	<g>
		<path d="M320.0258789,171.3032227c-5.894043-2.3696289-11.1254883-4.2661133-16.9604492-6.1518555l2.3691406-6.6357422
			c5.8613281,1.8945312,11.1176758,3.8007812,17.0400391,6.1811523L320.0258789,171.3032227z"/>
		<path d="M300.8886719,189.8144531l2.3891602-6.6289062c4.8935547,1.6923828,9.4321289,3.4150391,16.2700195,6.1748047
			l-2.4291992,6.6132812C310.2958984,193.2197266,305.7685547,191.5019531,300.8886719,189.8144531z"/>
		<path d="M334.8349609,171.8041992l6.9970703,1.0585938c-3.5253906,40.5727539-14.3212891,56.9379883-36.7353516,63.6230469
			l-2.0273438-7.3051758C322.5629883,223.1079102,331.7392578,208.9941406,334.8349609,171.8041992z"/>
	</g>
	<g>
		<path d="M319.2197266,272.7392578C313.2646484,270.3066406,308.109375,268.4121094,302.25,266.5l3.25-9
			c5.8798828,1.9179688,11.0537109,3.8203125,17.0302734,6.2607422L319.2197266,272.7392578z"/>
		<path d="M300,291l3.25-9c5.1240234,1.7568359,9.7597656,3.5263672,16.390625,6.2558594l-3.28125,8.9882812
			C309.7402344,294.5185547,305.1132812,292.7529297,300,291z"/>
		<path d="M332.5,271l9.5,1.5c-3.6298828,42.0585938-14.7490234,57.9326172-37,64.5l-2.75-10
			C320.5849609,321.2089844,329.4716797,308.46875,332.5,271z"/>
	</g>
	<g>
		<path d="M318.6464844,374.3261719C312.6298828,371.8310547,307.550293,369.9375,301.6660156,368L305.5,356.5
			c5.8974609,1.9414062,10.9892578,3.8398438,17.0200195,6.3398438L318.6464844,374.3261719z"/>
		<path d="M299.3330078,392.1660156l3.8334961-11.3330078c5.3540039,1.8212891,10.0874023,3.6376953,16.5102539,6.3369141
			l-3.8544922,11.3261719C309.4072266,395.7978516,304.6801758,393.984375,299.3330078,392.1660156z"/>
		<path d="M330.6665039,370.1660156l11.4995117,2C338.4711914,415.2480469,327.4399414,430.9462891,305,437.5l-3.5004883-12.6669922
			C319.4638672,419.171875,327.7045898,407.3330078,330.6665039,370.1660156z"/>
	</g>
	<g>
		<path d="M318.0732422,475.9130859c-6.0776367-2.5576172-11.0810547-4.4501953-16.9902344-6.4130859L305.5,455.5
			c5.9160156,1.9648438,10.9257812,3.8603516,17.0097656,6.4199219L318.0732422,475.9130859z"/>
		<path d="M298.6669922,493.3330078l4.4160156-13.6660156c5.5849609,1.8847656,10.4150391,3.7470703,16.6308594,6.4179688
			l-4.4277344,13.6630859C309.074707,497.078125,304.2470703,495.2167969,298.6669922,493.3330078z"/>
		<path d="M328.8330078,469.3330078l13.5,2.5C338.5732422,515.9375,327.6293945,531.4609375,305,538l-4.25-15.3330078
			C318.3427734,517.1337891,325.9379883,506.1972656,328.8330078,469.3330078z"/>
	</g>
	<g>
		<path d="M317.5,577.5c-6.1386719-2.6201172-11.0664062-4.5117188-17-6.5l5-16.5c5.9335938,1.9882812,10.8613281,3.8798828,17,6.5
			L317.5,577.5z"/>
		<path d="M298,594.5c5.8144531,1.9492188,10.7421875,3.8583984,16.75,6.5l5-16
			c-6.0078125-2.6416016-10.9355469-4.5507812-16.75-6.5L298,594.5z"/>
		<path d="M327,568.5c-2.8291016,36.5625-9.7783203,46.5966797-27,52l5,18c22.8183594-6.5253906,33.6748047-21.8730469,37.5-67
			L327,568.5z"/>
	</g>
</g>
<g>
	<g>
		<rect x="405.5" y="-36.5" width="30.5" height="2"/>
		<path d="M402.2373047,33.1748047l-1.4746094-1.3496094c16.7519531-18.3056641,28.8789062-42.6113281,33.2705078-66.6845703
			L436-34.5C431.5429688-10.0664062,419.2373047,14.5996094,402.2373047,33.1748047z"/>
		<path d="M438.0878906,34.9101562c-4.7958984-10.6533203-10.1708984-21.7392578-15.9755859-32.9501953l1.7753906-0.9199219
			c5.8222656,11.2431641,11.2128906,22.3623047,16.0244141,33.0498047L438.0878906,34.9101562z"/>
	</g>
	<g>
		<rect x="405.0830078" y="62.6665039" width="31.25" height="4.5830078"/>
		<path d="M431.7734375,66.2587891l4.5595703,0.9907227c-4.4765625,24.8364258-16.8295898,49.3139648-33.425293,66.8666992
			l-2.565918-4.1499023C416.1289062,112.7919922,427.5361328,89.7724609,431.7734375,66.2587891z"/>
		<path d="M421.2451172,102.6479492l3.6748047-3.3803711c5.6152344,11.2822266,10.7949219,22.359375,15.4375,33.0419922
			l-3.7988281,3.2133789C431.9316406,124.8095703,426.8007812,113.8012695,421.2451172,102.6479492z"/>
	</g>
	<g>
		<rect x="404.6665039" y="161.8330078" width="32.0004883" height="7.1669922"/>
		<path d="M429.5146484,167.3779297L436.6669922,169c-4.4960938,25.2392578-16.8969727,49.5283203-33.0878906,66.0581055
			l-3.6582031-6.949707C414.7436523,212.0649414,425.4316406,190.3320312,429.5146484,167.3779297z"/>
		<path d="M420.3789062,203.3369141l5.5751953-5.8408203c5.4072266,11.3208008,10.3740234,22.3564453,14.8505859,33.0341797
			l-5.7753906,5.6064453C430.5722656,225.362793,425.6855469,214.4321289,420.3789062,203.3369141z"/>
	</g>
	<g>
		<rect x="404.25" y="261" width="32.75" height="9.75"/>
		<path d="M427.2548828,268.4960938L437,270.75c-4.5146484,25.6425781-16.9638672,49.7421875-32.75,65.25l-4.75-9.75
			C413.3583984,311.3378906,423.3271484,290.890625,427.2548828,268.4960938z"/>
		<path d="M419.5126953,304.0253906l7.4746094-8.3007812C432.1865234,307.0839844,436.9423828,318.078125,441.25,328.75l-7.75,8
			C429.2128906,325.9160156,424.5703125,315.0625,419.5126953,304.0253906z"/>
	</g>
	<g>
		<rect x="403.8330078" y="360.1660156" width="33.5" height="12.3339844"/>
		<path d="M425.5029297,369.6640625L437.3330078,372.5c-4.7558594,26.0185547-17.3017578,49.7558594-32.8334961,64.3330078
			l-5.3330078-12.5C412.3085938,410.5517578,421.6591797,391.4990234,425.5029297,369.6640625z"/>
		<path d="M418.6748047,404.6835938l8.8164062-10.7011719C432.6650391,405.3798828,437.375,416.3330078,441.6660156,427
			L432.5,437.3330078C428.2285156,426.4394531,423.6640625,415.6630859,418.6748047,404.6835938z"/>
	</g>
	<g>
		<rect x="403.4169922" y="459.3330078" width="34.2490234" height="14.9169922"/>
		<path d="M423.7519531,470.8320312L437.6660156,474.25c-4.9960938,26.3945312-17.6396484,49.7714844-32.9160156,63.4169922
			l-5.9165039-15.25C411.2597656,509.7666016,419.9916992,492.1074219,423.7519531,470.8320312z"/>
		<path d="M417.8374023,505.3417969l10.1586914-13.0996094c5.1484375,11.4345703,9.8125,22.3457031,14.0869141,33.0078125
			L431.5,537.9169922C427.2441406,526.9628906,422.7578125,516.2646484,417.8374023,505.3417969z"/>
	</g>
	<g>
		<rect x="403" y="558.5" width="35" height="17.5"/>
		<path d="M422,572c-3.6757812,20.7167969-11.7890625,36.9804688-23.5,48.5l6.5,18
			c15.0214844-12.7148438,27.7617188-35.7294922,33-62.5L422,572z"/>
		<path d="M417,606c4.8515625,10.8652344,9.2607422,21.4863281,13.5,32.5l12-15c-4.2578125-10.6572266-8.8769531-21.5263672-14-33
			L417,606z"/>
	</g>
</g>
<g>
	<g>
		
			<rect x="518.7495728" y="-44.0346947" transform="matrix(0.3328711 0.9429723 -0.9429723 0.3328711 326.4663086 -504.453125)" width="2.0008209" height="45.0693893"/>
		<path d="M528.7773438,6.6298828l-1.5546875-1.2597656c5.9658203-7.3623047,10.6103516-20.2568359,12.1220703-33.6513672
			l1.9882812,0.2246094C539.7802734-14.3037109,534.9697266-1.0126953,528.7773438,6.6298828z"/>
		<path d="M522.5,33.5c-10.2060547,0-12-3.3642578-12-22.5v-54.5h2V11c0,19.6875,2.0732422,20.5,10,20.5
			c5.2216797,0,11.8232422-0.9433594,17.2294922-2.4628906l0.5410156,1.9257812C534.7011719,32.5273438,527.8916016,33.5,522.5,33.5
			z"/>
	</g>
	<g>
		<polygon points="498.8046875,88.1289062 497.9443359,83.6210938 540.7773438,68.9541016 541.6386719,73.4619141 		"/>
		<path d="M526.2314453,105.3295898c5.3828125-7.5273438,9.6064453-19.8129883,11.1015625-32.4594727l4.3056641,0.5917969
			c-1.5234375,13.3344727-5.9833984,26.4267578-11.6210938,34.2910156L526.2314453,105.3295898z"/>
		<path d="M514,110.5830078c0,18.3691406,1.5976562,19.0830078,8.9160156,19.0830078
			c5.2548828,0,11.6044922-0.9189453,16.9863281-2.4746094l0.5273438,4.4501953
			c-5.9335938,1.5961914-12.8183594,2.5249023-18.5966797,2.5249023C511.6005859,134.1665039,509.5,130.7983398,509.5,111.25
			V56.1660156h4.5V110.5830078z"/>
	</g>
	<g>
		<polygon points="498.7773438,189.3144531 497.7226562,182.1855469 540.8886719,167.8525391 541.9443359,174.9814453 		"/>
		<path d="M525.2402344,205.2900391c4.8007812-7.6923828,8.6035156-19.3696289,10.0820312-31.2680664l6.6220703,0.9594727
			c-1.4941406,12.9155273-5.6025391,25.8085938-10.6855469,33.8955078L525.2402344,205.2900391z"/>
		<path d="M515.5,210.1665039c0,17.0507812,1.1220703,17.6665039,7.8339844,17.6665039
			c5.2871094,0,11.3837891-0.8945312,16.7421875-2.4873047l0.5136719,6.9750977
			c-6.2978516,1.6279297-13.2587891,2.5126953-19.4238281,2.5126953C510.9082031,234.8334961,508.5,231.4609375,508.5,211.5
			v-55.6669922h7V210.1665039z"/>
	</g>
	<g>
		<polygon points="542.25,276.5 498.75,290.5 497.5,280.75 541,266.75 		"/>
		<path d="M524.25,305.25c4.2177734-7.8574219,7.5996094-18.9257812,9.0605469-30.0761719L542.25,276.5
			c-1.4648438,12.4970703-5.2226562,25.1914062-9.75,33.5L524.25,305.25z"/>
		<path d="M517,309.75c0,15.7324219,0.6464844,16.25,6.75,16.25c5.3203125,0,11.1650391-0.8710938,16.5-2.5l0.5,9.5
			c-6.6630859,1.6591797-13.6992188,2.5-20.25,2.5c-10.2841797,0-13-3.3759766-13-23.75V255.5h9.5V309.75z"/>
	</g>
	<g>
		<polygon points="542.5,378 498.6660156,391.6660156 497.3330078,379.3330078 541.1660156,365.6660156 		"/>
		<path d="M523.5,405.5c3.6347656-8.0234375,6.5957031-18.4824219,8.0400391-28.8847656L542.5,378
			c-1.4941406,12.0722656-4.8613281,24.46875-8.8339844,33L523.5,405.5z"/>
		<path d="M518.1660156,409.3330078c0,14.46875,0.453125,14.8330078,6,14.8330078c5.3945312,0,10.8955078-0.8457031,16.1669922-2.5
			l0.5,12c-7.0283203,1.6914062-14.0634766,2.5-21,2.5c-10.2470703,0-13.1669922-3.4931641-13.1669922-24.1660156v-56.8339844h11.5
			V409.3330078z"/>
	</g>
	<g>
		<polygon points="542.75,479.5 498.5830078,492.8330078 497.1669922,477.9169922 541.3330078,464.5839844 		"/>
		<path d="M522.75,505.75c3.0527344-8.1875,5.5927734-18.0380859,7.0195312-27.6923828L542.75,479.5
			c-1.5234375,11.6474609-4.5,23.7460938-7.9169922,32.5L522.75,505.75z"/>
		<path d="M519.3330078,508.9169922c0,13.2050781,0.2607422,13.4169922,5.25,13.4169922
			c5.4667969,0,10.6259766-0.8222656,15.8339844-2.5009766l0.5,14.5c-7.3935547,1.7226562-14.4277344,2.5-21.75,2.5
			c-10.2119141,0-13.3330078-3.6103516-13.3330078-24.5830078v-57.4160156h13.4990234V508.9169922z"/>
	</g>
	<g>
		<polygon points="543,581 541.5,563.5 497,576.5 498.5,594 		"/>
		<path d="M522,606c2.4697266-8.3525391,4.5888672-17.5947266,6-26.5l15,1.5c-1.5527344,11.2226562-4.1386719,23.0234375-7,32
			L522,606z"/>
		<path d="M520.5,608.5c0,11.9423828,0.0673828,12,4.5,12c5.5400391,0,10.3554688-0.796875,15.5-2.5l0.5,17
			c-7.7578125,1.7539062-14.7910156,2.5-22.5,2.5c-10.1748047,0-13.5-3.7275391-13.5-25v-58h15.5V608.5z"/>
	</g>
</g>
<g>
	<g>
		<path d="M609.5214844-4.2919922c-2.5048828-11.8046875-4.8857422-22.28125-7.4931641-32.9707031l1.9433594-0.4746094
			c2.6113281,10.7099609,4.9970703,21.2050781,7.5068359,33.0292969L609.5214844-4.2919922z"/>
		<path d="M608.4541016,34.390625l-0.9082031-1.78125c17.7773438-9.0703125,27.8164062-23.2558594,29.9550781-72.1533203
			l1.9980469,0.0878906C637.5585938,4.9033203,629.7255859,23.5380859,608.4541016,34.390625z"/>
	</g>
	<g>
		<path d="M605.8144531,61.5913086c2.59375,10.7734375,5.0341797,21.7026367,7.5048828,33.5249023l-4.3896484,1.3500977
			c-2.4248047-11.6904297-4.828125-22.5454102-7.4111328-33.3920898L605.8144531,61.5913086z"/>
		<path d="M608.46875,134.9267578l-1.6884766-4.4375c17.6533203-8.6396484,26.7119141-22.7626953,28.4697266-70.4355469
			l4.4990234,0.2255859C638.1201172,106.918457,629.7041016,124.9082031,608.46875,134.9267578z"/>
	</g>
	<g>
		<path d="M607.6572266,160.9208984c2.5761719,10.8364258,5.0722656,22.2001953,7.5039062,34.0205078l-6.8222656,2.2841797
			c-2.3447266-11.5766602-4.7705078-22.8105469-7.3291016-33.8134766L607.6572266,160.9208984z"/>
		<path d="M608.484375,235.4633789l-2.46875-7.09375c17.5273438-8.2094727,25.6074219-22.2700195,26.984375-68.7172852l7,0.3623047
			C638.6826172,208.934082,629.6826172,226.2783203,608.484375,235.4633789z"/>
	</g>
	<g>
		<path d="M609.5,260.25c2.5585938,10.8994141,5.109375,22.6972656,7.5029297,34.515625l-9.2558594,3.21875
			C605.4833984,286.5214844,603.0351562,274.9091797,600.5,263.75L609.5,260.25z"/>
		<path d="M608.5,336l-3.25-9.75c17.4033203-7.7792969,24.5029297-21.7773438,25.5-67l9.5,0.5
			C639.2451172,310.9492188,629.6611328,327.6484375,608.5,336z"/>
	</g>
	<g>
		<path d="M610.6660156,359.6660156c2.5419922,10.9628906,5.1484375,23.1943359,7.5019531,35.0107422l-11.0039062,4.1455078
			c-2.1826172-11.3496094-4.6533203-23.3398438-7.1640625-34.65625L610.6660156,359.6660156z"/>
		<path d="M608.5,436.5l-4-12.3339844c17.0771484-7.1123047,23.8349609-20.1132812,24.5-65.3330078L640.5,359.5
			C639.8300781,411.828125,630.2363281,428.7402344,608.5,436.5z"/>
	</g>
	<g>
		<path d="M611.8339844,459.0830078c2.5244141,11.0253906,5.1855469,23.6914062,7.5,35.5058594l-12.7519531,5.0722656
			c-2.1025391-11.2363281-4.5947266-23.6044922-7.0820312-35.0771484L611.8339844,459.0830078z"/>
		<path d="M608.5,537l-4.75-14.9169922c16.7509766-6.4462891,23.1679688-18.4501953,23.5-63.6669922L640.75,459.25
			C640.4150391,512.7070312,630.8125,529.8330078,608.5,537z"/>
	</g>
	<g>
		<path d="M613,558.5c2.5078125,11.0878906,5.2236328,24.1875,7.5,36l-14.5,6c-2.0224609-11.1230469-4.5371094-23.8701172-7-35.5
			L613,558.5z"/>
		<path d="M608.5,637.5L603,620c16.4248047-5.7802734,22.5-16.7861328,22.5-62l15.5,1
			C641,613.5859375,631.3886719,630.9248047,608.5,637.5z"/>
	</g>
</g>
</svg>
