<?xml version="1.0" encoding="utf-8"?>
<!-- Generator: Adobe Illustrator 15.0.2, SVG Export Plug-In . SVG Version: 6.00 Build 0)  -->
<!DOCTYPE svg PUBLIC "-//W3C//DTD SVG 1.1//EN" "http://www.w3.org/Graphics/SVG/1.1/DTD/svg11.dtd">
<svg version="1.1" id="レイヤー1" xmlns="http://www.w3.org/2000/svg" xmlns:xlink="http://www.w3.org/1999/xlink" x="0px"
	 y="0px" width="841.8896484px" height="595.2753906px" viewBox="0 0 841.8896484 595.2753906"
	 enable-background="new 0 0 841.8896484 595.2753906" xml:space="preserve">
<g>
	<rect x="195.5" y="147.5" fill="none" stroke="#999999" stroke-width="0.1" width="50" height="100"/>
	<rect x="295.5" y="147.5" fill="none" stroke="#999999" stroke-width="0.1" width="50" height="100"/>
	<rect x="395.5" y="147.5" fill="none" stroke="#999999" stroke-width="0.1" width="50" height="100"/>
	<rect x="495.5" y="147.5" fill="none" stroke="#999999" stroke-width="0.1" width="50" height="100"/>
	<rect x="595.5" y="147.5" fill="none" stroke="#999999" stroke-width="0.1" width="50" height="100"/>
	<rect x="195.5" y="247.5" fill="none" stroke="#999999" stroke-width="0.1" width="50" height="100"/>
	<rect x="295.5" y="247.5" fill="none" stroke="#999999" stroke-width="0.1" width="50" height="100"/>
	<rect x="395.5" y="247.5" fill="none" stroke="#999999" stroke-width="0.1" width="50" height="100"/>
	<rect x="495.5" y="247.5" fill="none" stroke="#999999" stroke-width="0.1" width="50" height="100"/>
	<rect x="595.5" y="247.5" fill="none" stroke="#999999" stroke-width="0.1" width="50" height="100"/>
	<rect x="195.5" y="-52.5" fill="none" stroke="#999999" stroke-width="0.1" width="50" height="100"/>
	<rect x="295.5" y="-52.5" fill="none" stroke="#999999" stroke-width="0.1" width="50" height="100"/>
	<rect x="395.5" y="-52.5" fill="none" stroke="#999999" stroke-width="0.1" width="50" height="100"/>
	<rect x="495.5" y="-52.5" fill="none" stroke="#999999" stroke-width="0.1" width="50" height="100"/>
	<rect x="595.5" y="-52.5" fill="none" stroke="#999999" stroke-width="0.1" width="50" height="100"/>
	<rect x="195.5" y="47.5" fill="none" stroke="#999999" stroke-width="0.1" width="50" height="100"/>
	<rect x="295.5" y="47.5" fill="none" stroke="#999999" stroke-width="0.1" width="50" height="100"/>
	<rect x="395.5" y="47.5" fill="none" stroke="#999999" stroke-width="0.1" width="50" height="100"/>
	<rect x="495.5" y="47.5" fill="none" stroke="#999999" stroke-width="0.1" width="50" height="100"/>
	<rect x="595.5" y="47.5" fill="none" stroke="#999999" stroke-width="0.1" width="50" height="100"/>
	<rect x="195.5" y="347.5" fill="none" stroke="#999999" stroke-width="0.1" width="50" height="100"/>
	<rect x="295.5" y="347.5" fill="none" stroke="#999999" stroke-width="0.1" width="50" height="100"/>
	<rect x="395.5" y="347.5" fill="none" stroke="#999999" stroke-width="0.1" width="50" height="100"/>
	<rect x="495.5" y="347.5" fill="none" stroke="#999999" stroke-width="0.1" width="50" height="100"/>
	<rect x="595.5" y="347.5" fill="none" stroke="#999999" stroke-width="0.1" width="50" height="100"/>
	<rect x="195.5" y="447.5" fill="none" stroke="#999999" stroke-width="0.1" width="50" height="100"/>
	<rect x="295.5" y="447.5" fill="none" stroke="#999999" stroke-width="0.1" width="50" height="100"/>
	<rect x="395.5" y="447.5" fill="none" stroke="#999999" stroke-width="0.1" width="50" height="100"/>
	<rect x="495.5" y="447.5" fill="none" stroke="#999999" stroke-width="0.1" width="50" height="100"/>
	<rect x="595.5" y="447.5" fill="none" stroke="#999999" stroke-width="0.1" width="50" height="100"/>
	<rect x="195.5" y="547.5" fill="none" stroke="#999999" stroke-width="0.1" width="50" height="100"/>
	<rect x="295.5" y="547.5" fill="none" stroke="#999999" stroke-width="0.1" width="50" height="100"/>
	<rect x="395.5" y="547.5" fill="none" stroke="#999999" stroke-width="0.1" width="50" height="100"/>
	<rect x="495.5" y="547.5" fill="none" stroke="#999999" stroke-width="0.1" width="50" height="100"/>
	<rect x="595.5" y="547.5" fill="none" stroke="#999999" stroke-width="0.1" width="50" height="100"/>
</g>
<g>
	<path d="M402.5-35.5v2h34.4892578c-0.3095703,38.4375-9.5429688,58.8535156-29.8291016,66.0585938l0.6699219,1.8847656
		C429.3867188,26.7861328,439,5.2148438,439-35.5H402.5z"/>
	<path d="M402.25,63.8330078V68.5h32.2402344c-0.3476562,36.3266602-9.1259766,55.2260742-28.1069336,62.1318359
		l1.5581055,4.4873047C429.5800781,127.3046875,439.25,106.121582,439.25,63.8330078H402.25z"/>
	<path d="M402,163.1665039V170.5h29.9921875c-0.3876953,34.2158203-8.7089844,51.5996094-26.3857422,58.2060547l2.4472656,7.0893555
		C429.7744141,227.8242188,439.5,207.0292969,439.5,163.1665039H402z"/>
	<path d="M401.75,262.5v10h27.7441406c-0.4267578,32.1054688-8.2929688,47.9726562-24.6640625,54.2792969l3.3349609,9.6923828
		C429.96875,328.3427734,439.75,307.9365234,439.75,262.5H401.75z"/>
	<path d="M401.5,361.8330078V374.5h25.9960938c-0.4667969,29.9941406-7.8774414,44.3457031-22.9433594,50.3525391
		l3.7236328,12.2949219C430.1621094,428.8613281,440,408.84375,440,361.8330078H401.5z"/>
	<path d="M401.25,461.1669922V476.5h24.2480469c-0.5058594,27.8847656-7.4609375,40.7197266-21.2216797,46.4257812
		l4.1123047,14.8984375C430.3574219,529.3808594,440.25,509.7509766,440.25,461.1669922H401.25z"/>
	<path d="M401,560.5v18h22.5c-0.5449219,25.7744141-7.0449219,37.0927734-19.5,42.5l4.5,17.5
		c22.0507812-8.6005859,32-27.8417969,32-78H401z"/>
</g>
<g>
	<path d="M541.6054688,24.9472656c-9.0556641-18.1142578-14.5839844-29.8974609-18.2421875-37.6953125
		c-3.8671875-8.2431641-6.0195312-12.7412109-6.7832031-12.7412109c-0.5644531,0-2.3681641,4.7470703-4.7919922,10.9433594
		c-2.5292969,6.4658203-6.3515625,16.2382812-12.3671875,30.4355469l-1.8417969-0.7792969
		c6.0048828-14.1728516,9.8212891-23.9296875,12.3466797-30.3847656C513.8837891-25.3945312,514.7080078-27.5,516.5-27.5
		c2.1513672,0,3.1464844,2.1230469,8.6738281,13.9023438c3.6533203,7.7890625,9.1757812,19.5585938,18.2207031,37.6503906
		L541.6054688,24.9472656z"/>
	<path d="M497.3154297,114.5083008c5.2431641-12.9643555,8.6894531-22.0249023,10.9042969-28.269043
		c4.3808594-12.3491211,5.2275391-14.5727539,8.2802734-14.5727539c3.5175781,0,4.6748047,2.0229492,10.5166016,15.3808594
		c3.3447266,7.6484375,8.4638672,18.9926758,16.6455078,36.0795898l-3.8242188,3.1621094
		c-8.5058594-18.324707-13.6142578-29.9765625-16.9785156-37.5615234c-3.4345703-7.7055664-5.3759766-11.96875-6.0664062-11.96875
		c-0.5195312,0-2.1005859,4.4125977-4.2167969,10.2075195c-2.2597656,6.2192383-5.6777344,15.762207-11.1425781,29.9418945
		L497.3154297,114.5083008z"/>
	<path d="M497.0527344,213.9067383c4.4804688-11.7553711,7.5117188-20.1367188,9.4609375-26.1538086
		c4.7304688-14.6049805,5.6738281-16.9199219,9.9863281-16.9199219c4.8857422,0,6.2460938,1.9038086,12.359375,16.8598633
		c3.0634766,7.4946289,7.7519531,18.4267578,15.0703125,34.5092773l-5.859375,5.4296875
		c-7.9550781-18.5361328-12.6435547-30.0556641-15.7138672-37.4282227
		c-3.0029297-7.1674805-4.7333984-11.1962891-5.3505859-11.1962891c-0.4736328,0-1.8320312,4.0786133-3.640625,9.472168
		c-1.9892578,5.9726562-5.0039062,15.2851562-9.9179688,29.4472656L497.0527344,213.9067383z"/>
	<path d="M496.7890625,313.3046875c3.71875-10.546875,6.3076172-18.2558594,8.0185547-24.0380859
		C509.8027344,272.3808594,510.9277344,270,516.5,270c6.2529297,0,7.8662109,1.765625,14.2021484,18.3378906
		c2.8037109,7.3330078,7.0400391,17.8613281,13.4951172,32.9384766l-7.8945312,7.6972656
		c-7.4042969-18.7460938-11.6728516-30.1347656-14.4492188-37.2939453
		c-2.5712891-6.6298828-4.0898438-10.4238281-4.6347656-10.4238281c-0.4277344,0-1.5644531,3.7441406-3.0644531,8.7363281
		c-1.7197266,5.7255859-4.3300781,14.8085938-8.6933594,28.953125L496.7890625,313.3046875z"/>
	<path d="M496.5253906,412.703125c3.0878906-9.3388672,5.3056641-16.3818359,6.8574219-21.9228516
		c5.3720703-19.1855469,6.2851562-21.6142578,13.1171875-21.6142578c7.6191406,0,8.8457031,1.6064453,15.5712891,19.8173828
		c2.6630859,7.1621094,6.5751953,17.2949219,12.3935547,31.3671875l-9.4296875,9.9648438
		c-7.09375-18.9570312-11.1064453-30.2041016-13.6542969-37.1611328c-2.2441406-6.0820312-3.5800781-9.6503906-4.0683594-9.6503906
		c-0.3964844,0-1.3320312,3.4150391-2.5878906,8c-1.4873047,5.4863281-3.796875,14.3330078-7.7509766,28.4589844
		L496.5253906,412.703125z"/>
	<path d="M496.2636719,512.1015625c2.4550781-8.1298828,4.2890625-14.5117188,5.6943359-19.8076172
		c5.7050781-21.4980469,6.4501953-23.9609375,14.5419922-23.9609375c8.9873047,0,9.8242188,1.4462891,16.9414062,21.2958984
		c2.5224609,6.9921875,6.1103516,16.7294922,11.2910156,29.796875l-10.9648438,12.2324219
		c-6.7832031-19.1679688-10.5390625-30.2734375-12.8583984-37.0273438
		c-1.9189453-5.5351562-3.0693359-8.8789062-3.5029297-8.8789062c-0.3642578,0-1.0976562,3.0869141-2.1103516,7.2646484
		c-1.2548828,5.2451172-3.2636719,13.8564453-6.8095703,27.9658203L496.2636719,512.1015625z"/>
	<path d="M517.5,588c-0.3320312,0-0.8642578,2.7578125-1.6337891,6.5292969
		C514.8447266,599.5341797,513.1357422,607.9091797,510,622l-14-10.5c1.8242188-6.921875,3.2636719-12.6445312,4.5332031-17.6923828
		C506.5224609,569.9853516,507.1474609,567.5,516.5,567.5c10.3544922,0,10.8037109,1.2861328,18.3105469,22.7744141
		C537.1933594,597.0957031,540.4570312,606.4375,545,618.5L532.5,633
		c-6.4736328-19.3779297-9.9726562-30.3417969-12.0634766-36.8935547C518.8447266,591.1181641,517.8779297,588,517.5,588z"/>
</g>
<g>
	<g>
		<path d="M306.3017578-6.546875l-0.6035156-1.90625c11.0888672-3.5126953,21.0244141-8.7109375,32.2128906-16.8554688
			l1.1777344,1.6171875C327.7177734-15.4150391,317.6054688-10.1269531,306.3017578-6.546875z"/>
		<path d="M317,33.5c-8.9716797,0-12-3.7851562-12-15v-59h2v59c0,11.1230469,3.0849609,13,10,13
			c7.7226562,0,14.2607422-0.4462891,21.8642578-1.4902344l0.2714844,1.9804688C331.4384766,33.0488281,324.8183594,33.5,317,33.5z"
			/>
	</g>
	<g>
		<path d="M306.331543,89.7890625c10.8261719-3.4550781,20.7299805-8.5478516,31.5942383-16.2963867l1.3984375,4.1811523
			c-11.0107422,7.8779297-21.0703125,13.0566406-32.0732422,16.5371094L306.331543,89.7890625z"/>
		<path d="M309.1665039,117.5830078c0,10.3813477,2.6254883,12,9.1665039,12c7.1362305,0,13.265625-0.4287109,20.7202148-1.4916992
			l0.3100586,4.5668945c-7.5141602,1.0341797-14.3486328,1.5083008-22.1132812,1.5083008
			c-9.3476562,0-12.6669922-3.9487305-12.6669922-15.3334961V59.1660156h4.5834961V117.5830078z"/>
	</g>
	<g>
		<path d="M306.9658203,188.03125c10.5634766-3.3969727,20.4345703-8.3837891,30.9746094-15.7373047l1.6191406,6.7451172
			c-10.6494141,7.4804688-20.6572266,12.5498047-31.3583984,15.9296875L306.9658203,188.03125z"/>
		<path d="M311.3330078,216.6665039c0,9.6391602,2.1669922,11.0004883,8.3334961,11.0004883
			c6.5498047,0,12.2700195-0.4116211,19.5761719-1.4941406l0.3481445,7.1542969
			c-7.3300781,1.0087891-14.3789062,1.5063477-22.0908203,1.5063477c-9.7226562,0-13.3334961-4.1123047-13.3334961-15.6669922
			v-60.3334961h7.1665039V216.6665039z"/>
	</g>
	<g>
		<path d="M307.5996094,286.2734375c10.3007812-3.3388672,20.1396484-8.2207031,30.3554688-15.1777344l1.8398438,9.3085938
			c-10.2890625,7.0820312-20.2441406,12.0419922-30.6445312,15.3222656L307.5996094,286.2734375z"/>
		<path d="M313.5,315.75c0,8.8974609,1.7070312,10,7.5,10c5.9628906,0,11.2744141-0.3935547,18.4316406-1.4951172
			l0.3867188,9.7402344C332.671875,334.9794922,325.4082031,335.5,317.75,335.5c-10.0986328,0-14-4.2753906-14-16v-61h9.75V315.75z"
			/>
	</g>
	<g>
		<path d="M308.2324219,384.515625c10.0380859-3.28125,19.8457031-8.0576172,29.7373047-14.6191406l2.0600586,11.8730469
			c-9.9282227,6.6835938-19.8310547,11.5341797-29.9296875,14.7148438L308.2324219,384.515625z"/>
		<path d="M315.1660156,414.8330078c0,8.1552734,1.2480469,9,6.6669922,9c5.7392578,0,11.1362305-0.4316406,17.7880859-1.4970703
			l0.4243164,12.3271484c-6.9628906,0.9599609-14.4404297,1.5029297-22.0454102,1.5029297
			c-10.4746094,0-14.6669922-4.4394531-14.6669922-16.3330078v-61.6669922h11.8330078V414.8330078z"/>
	</g>
	<g>
		<path d="M308.8662109,482.7578125c9.7753906-3.2226562,19.5507812-7.8945312,29.1191406-14.0595703l2.2792969,14.4365234
			c-9.5673828,6.2851562-19.4179688,11.0273438-29.2148438,14.1074219L308.8662109,482.7578125z"/>
		<path d="M316.8330078,513.9169922c0,7.4130859,0.7880859,8,5.8339844,8c5.5146484,0,10.9970703-0.4697266,17.1435547-1.4990234
			l0.4619141,14.9140625c-6.7783203,0.9345703-14.4702148,1.5009766-22.0224609,1.5009766
			c-10.8500977,0-15.3330078-4.6025391-15.3330078-16.6660156v-62.3330078h13.9160156V513.9169922z"/>
	</g>
	<g>
		<path d="M309.5,581l2.5,17c9.4951172-2.9804688,19.2929688-7.6123047,28.5-13.5l-2.5-17
			C328.7558594,573.2695312,319.0126953,577.8349609,309.5,581z"/>
		<path d="M318.5,613c0,6.671875,0.328125,7,5,7c5.2910156,0,10.859375-0.5078125,16.5-1.5l0.5,17.5
			c-6.5947266,0.9101562-14.5009766,1.5-22,1.5c-11.2255859,0-16-4.7666016-16-17v-63h16V613z"/>
	</g>
</g>
<g>
	<g>
		<path d="M200.9648438,32.7636719l-1.9296875-0.5273438c6.3466797-23.2128906,10.0371094-44.4365234,11.9677734-68.8154297
			l1.9941406,0.1582031C211.0556641-11.9121094,207.3457031,9.4248047,200.9648438,32.7636719z"/>
		<path d="M239.0087891,33.6308594c-3.453125-26.1298828-7.3027344-47.6884766-12.4824219-69.9033203l1.9472656-0.4550781
			c5.1953125,22.28125,9.0556641,43.8994141,12.5175781,70.0966797L239.0087891,33.6308594z"/>
	</g>
	<g>
		<path d="M202.9702148,133.5527344l-4.2744141-1.855957c6.0395508-22.4516602,9.5429688-44.2963867,11.0566406-68.7626953
			l4.4111328,0.2983398C212.6787109,88.269043,209.1044922,110.7124023,202.9702148,133.5527344z"/>
		<path d="M236.9238281,134.2753906c-3.0454102-26.2050781-6.6210938-47.9550781-11.5688477-70.5029297l4.2895508-1.2954102
			c5.0512695,22.7358398,8.6650391,44.4848633,11.7646484,70.9135742L236.9238281,134.2753906z"/>
	</g>
	<g>
		<path d="M204.9765625,234.3427734l-6.6201172-3.1855469c5.7329102-21.6894531,9.0488281-44.15625,10.1455078-68.7099609
			l6.8291016,0.4384766C214.3027344,188.4511719,210.8642578,212.0009766,204.9765625,234.3427734z"/>
		<path d="M234.8388672,234.9208984c-2.6367188-26.28125-5.9384766-48.2226562-10.6542969-71.1025391l6.6308594-2.1362305
			c4.9082031,23.190918,8.2749023,45.0708008,11.0126953,71.730957L234.8388672,234.9208984z"/>
	</g>
	<g>
		<path d="M206.9824219,335.1318359l-8.9648438-4.5136719c5.4257812-20.9277344,8.5546875-44.0166016,9.234375-68.6572266
			l9.2460938,0.578125C215.9257812,288.6328125,212.6230469,313.2890625,206.9824219,335.1318359z"/>
		<path d="M242.2460938,333.4345703l-9.4921875,2.1308594c-2.2285156-26.3564453-5.2568359-48.4892578-9.7402344-71.7021484
			l8.9726562-2.9765625C236.7509766,284.5332031,239.8710938,306.5429688,242.2460938,333.4345703z"/>
	</g>
	<g>
		<path d="M208.487793,435.9208984l-10.8100586-5.8427734c5.1186523-20.1660156,8.0605469-43.8769531,8.3232422-68.6044922
			l11.1640625,0.71875C217.0493164,388.8134766,213.8818359,414.5771484,208.487793,435.9208984z"/>
		<path d="M242.6640625,433.4560547l-11.4951172,2.7539062c-1.8212891-26.4326172-4.5751953-48.7558594-8.8271484-72.3017578
			l10.8154297-3.8173828C237.777832,384.1933594,240.6508789,406.3330078,242.6640625,433.4560547z"/>
	</g>
	<g>
		<path d="M209.9941406,536.7109375l-12.6552734-7.171875c4.8115234-19.4042969,7.5664062-43.7363281,7.4121094-68.5517578
			l13.0820312,0.859375C218.1733398,488.9951172,215.140625,515.8662109,209.9941406,536.7109375z"/>
		<path d="M243.0820312,533.4785156l-13.4975586,3.3769531c-1.4135742-26.5087891-3.8930664-49.0234375-7.9135742-72.9013672
			l12.6577148-4.6582031C238.8056641,483.8535156,241.4316406,506.1240234,243.0820312,533.4785156z"/>
	</g>
	<g>
		<path d="M211.5,637.5c4.8994141-20.3457031,7.796875-48.3232422,7-76l-15-1c0.5712891,24.9023438-1.9960938,49.8574219-6.5,68.5
			L211.5,637.5z"/>
		<path d="M243.5,633.5c-1.2880859-27.5859375-3.6669922-49.9873047-8-75L221,564c3.7880859,24.2109375,5.9941406,46.9160156,7,73.5
			L243.5,633.5z"/>
	</g>
</g>
<g>
	<path d="M641.5-30.5H622v-15h-2v15h-20.5v2H620v55c0,7-0.9404297,7-3,7c-2.5888672,0-5.4121094-0.3525391-7.7451172-0.9667969
		l-0.5097656,1.9335938C611.2744141,35.1328125,614.2060547,35.5,617,35.5c4.5068359,0,5-2.8818359,5-9v-55h19.5V-30.5z"/>
	<path d="M600.9580078,22.7880859l-1.9160156-0.5761719c3.2587891-10.8466797,6.4501953-22.5488281,8.9863281-32.9492188
		l1.9433594,0.4746094C607.4267578,0.1699219,604.2255859,11.9082031,600.9580078,22.7880859z"/>
	<path d="M640.0283203,23.7373047c-2.8183594-11.5576172-6.0947266-23.9355469-8.9892578-33.9599609l1.921875-0.5546875
		c2.9013672,10.0507812,6.1855469,22.4580078,9.0107422,34.0400391L640.0283203,23.7373047z"/>
</g>
<g>
	<g>
		<path d="M608.6630859,135.2275391l0.2568359-4.4555664c2.2519531,0.5712891,4.9082031,0.8945312,7.1630859,0.8945312
			c1.9619141,0,2.6669922-0.0795898,2.6669922-6.4165039V73.3330078h-19.4169922v-4.5H618.75V54.1665039h4.5v14.6665039h18.4160156
			v4.5H623.25v52.3334961c0,8.0727539-0.7060547,10.5-6.0078125,10.5
			C614.5947266,136.1665039,611.4414062,135.8344727,608.6630859,135.2275391z"/>
		<path d="M606.9326172,89.0996094l4.2714844,0.9150391c-2.2910156,10.6904297-5.2470703,22.7583008-8.3740234,34.2929688
			l-4.21875-1.25C601.703125,111.6953125,604.6367188,99.7827148,606.9326172,89.0996094z"/>
		<path d="M629.8623047,90.222168l4.1923828-1.2470703c2.7753906,10.3432617,5.796875,22.9643555,8.3427734,35.1166992
			l-4.2392578,1.1801758C635.5947266,113.034668,632.578125,100.3344727,629.8623047,90.222168z"/>
	</g>
	<g>
		<path d="M608.5820312,235.9887695l0.0029297-6.9780273c2.1708984,0.5283203,4.6601562,0.8222656,6.5810547,0.8222656
			C617.03125,229.8330078,617.5,229.6743164,617.5,224v-48.8334961h-18.3339844v-7H617.5v-14.3334961h7v14.3334961h17.3330078v7
			H624.5v49.6665039c0,10.0273438-0.9179688,12-7.015625,12C614.984375,236.8330078,611.609375,236.5371094,608.5820312,235.9887695
			z"/>
		<path d="M605.8378906,188.9375l6.4355469,1.3071289c-2.0351562,10.9477539-4.7470703,23.3452148-7.7333984,35.5341797
			l-6.359375-1.875C601.1054688,212.0253906,603.7822266,199.9033203,605.8378906,188.9375z"/>
		<path d="M628.8505859,190.6210938l6.2988281-1.8935547c2.6484375,10.6367188,5.4072266,23.4716797,7.6748047,36.1933594
			l-6.3701172,1.8398438C634.1464844,213.84375,631.3886719,200.8212891,628.8505859,190.6210938z"/>
	</g>
	<g>
		<path d="M608.5,336.75l-0.25-9.5c2.0898438,0.4853516,4.4121094,0.75,6,0.75c1.7666016,0,2-0.2382812,2-5.25V277H599v-9.5h17.25
			v-14h9.5v14H642v9.5h-16.25v47c0,11.9814453-1.1298828,13.5-8.0224609,13.5
			C615.3740234,337.5,611.7763672,337.2392578,608.5,336.75z"/>
		<path d="M604.7421875,288.7753906l8.6015625,1.6992188C611.5634766,301.6796875,609.0957031,314.40625,606.25,327.25l-8.5-2.5
			C600.5068359,312.3554688,602.9277344,300.0234375,604.7421875,288.7753906z"/>
		<path d="M627.8388672,291.0195312l8.4052734-2.5390625C638.765625,299.4101562,641.2617188,312.4589844,643.25,325.75l-8.5,2.5
			C632.6982422,314.6523438,630.1982422,301.3085938,627.8388672,291.0195312z"/>
	</g>
	<g>
		<path d="M608.9589844,437.5l-0.3339844-12c2.0087891,0.4414062,3.9121094,0.6660156,5.1660156,0.6660156
			c1.3710938,0,1.5419922-0.1796875,1.5419922-4.6660156v-42.6660156h-16.5v-12.0009766h16.3339844v-13.6669922h11.6669922
			v13.6669922h15.3320312v12.0009766h-15.5v44.3320312c0,13.5966797-1.0839844,15-8.5566406,15
			C616.0058594,438.1660156,612.3417969,437.9306641,608.9589844,437.5z"/>
		<path d="M603.6611328,388.6835938l9.484375,1.7998047c-1.5244141,11.4619141-3.7480469,24.5185547-6.453125,38.0166016
			l-9.3583984-2.8339844C599.9238281,412.7558594,602.0869141,400.2138672,603.6611328,388.6835938z"/>
		<path d="M627.9765625,390.8466797l9.3535156-2.6923828c2.3945312,11.2216797,4.6269531,24.484375,6.3369141,38.3457031
			l-9.4726562,2.6669922C632.3984375,414.8896484,630.15625,401.2236328,627.9765625,390.8466797z"/>
	</g>
	<g>
		<path d="M609.4169922,538.25L609,523.75c1.9277344,0.3984375,3.4121094,0.5830078,4.3330078,0.5830078
			c0.9755859,0,1.0830078-0.1230469,1.0830078-4.0830078v-39.5830078h-15.75v-14.5009766h15.4179688v-13.3330078h13.8330078
			v13.3330078h14.4160156v14.5009766h-14.75v41.6660156c0,15.2109375-1.0400391,16.5-9.0908203,16.5
			C616.6367188,538.8330078,612.9082031,538.6220703,609.4169922,538.25z"/>
		<path d="M602.5800781,488.5917969l10.3671875,1.9003906c-1.2695312,11.7197266-3.2480469,25.1044922-5.8125,39.2578125
			l-10.2177734-3.1669922C599.3398438,513.1572266,601.2460938,500.4042969,602.5800781,488.5917969z"/>
		<path d="M628.1132812,490.6738281l10.3017578-2.8466797c2.2675781,11.5146484,4.2382812,24.9912109,5.6689453,39.4228516
			l-10.4453125,2.8339844C632.0986328,515.1269531,630.1152344,501.1386719,628.1132812,490.6738281z"/>
	</g>
</g>
<g>
	<path d="M609.5,639l-0.5-17c1.8466797,0.3554688,2.9121094,0.5,3.5,0.5c0.953125,0,1-0.0673828,1-3.5v-36.5h-15v-17H613v-13h16v13
		h13.5v17h-14v39c0,16.8251953-0.9951172,18-10,18C616.8935547,639.5,613.0986328,639.3134766,609.5,639z"/>
	<path d="M601.5,588.5c-1.0947266,12.0947266-2.7441406,25.0576172-5,39l10.3271484,3.5
		c2.4248047-14.8076172,4.1582031-28.5224609,5.1728516-40.5L601.5,588.5z"/>
	<path d="M629,590.5c1.8232422,10.5546875,3.5488281,24.8642578,4.8330078,40.5L644.5,628
		c-1.1503906-15.0009766-2.859375-28.6923828-5-40.5L629,590.5z"/>
</g>
</svg>
