<?xml version="1.0" encoding="utf-8"?>
<!-- Generator: Adobe Illustrator 15.0.2, SVG Export Plug-In . SVG Version: 6.00 Build 0)  -->
<!DOCTYPE svg PUBLIC "-//W3C//DTD SVG 1.1//EN" "http://www.w3.org/Graphics/SVG/1.1/DTD/svg11.dtd">
<svg version="1.1" id="レイヤー1" xmlns="http://www.w3.org/2000/svg" xmlns:xlink="http://www.w3.org/1999/xlink" x="0px"
	 y="0px" width="841.8896484px" height="595.2753906px" viewBox="0 0 841.8896484 595.2753906"
	 enable-background="new 0 0 841.8896484 595.2753906" xml:space="preserve">
<g>
	<rect x="195.5" y="147.5" fill="none" stroke="#999999" stroke-width="0.1" width="50" height="100"/>
	<rect x="295.5" y="147.5" fill="none" stroke="#999999" stroke-width="0.1" width="50" height="100"/>
	<rect x="395.5" y="147.5" fill="none" stroke="#999999" stroke-width="0.1" width="50" height="100"/>
	<rect x="495.5" y="147.5" fill="none" stroke="#999999" stroke-width="0.1" width="50" height="100"/>
	<rect x="595.5" y="147.5" fill="none" stroke="#999999" stroke-width="0.1" width="50" height="100"/>
	<rect x="195.5" y="247.5" fill="none" stroke="#999999" stroke-width="0.1" width="50" height="100"/>
	<rect x="295.5" y="247.5" fill="none" stroke="#999999" stroke-width="0.1" width="50" height="100"/>
	<rect x="395.5" y="247.5" fill="none" stroke="#999999" stroke-width="0.1" width="50" height="100"/>
	<rect x="495.5" y="247.5" fill="none" stroke="#999999" stroke-width="0.1" width="50" height="100"/>
	<rect x="595.5" y="247.5" fill="none" stroke="#999999" stroke-width="0.1" width="50" height="100"/>
	<rect x="195.5" y="-52.5" fill="none" stroke="#999999" stroke-width="0.1" width="50" height="100"/>
	<rect x="295.5" y="-52.5" fill="none" stroke="#999999" stroke-width="0.1" width="50" height="100"/>
	<rect x="395.5" y="-52.5" fill="none" stroke="#999999" stroke-width="0.1" width="50" height="100"/>
	<rect x="495.5" y="-52.5" fill="none" stroke="#999999" stroke-width="0.1" width="50" height="100"/>
	<rect x="595.5" y="-52.5" fill="none" stroke="#999999" stroke-width="0.1" width="50" height="100"/>
	<rect x="195.5" y="47.5" fill="none" stroke="#999999" stroke-width="0.1" width="50" height="100"/>
	<rect x="295.5" y="47.5" fill="none" stroke="#999999" stroke-width="0.1" width="50" height="100"/>
	<rect x="395.5" y="47.5" fill="none" stroke="#999999" stroke-width="0.1" width="50" height="100"/>
	<rect x="495.5" y="47.5" fill="none" stroke="#999999" stroke-width="0.1" width="50" height="100"/>
	<rect x="595.5" y="47.5" fill="none" stroke="#999999" stroke-width="0.1" width="50" height="100"/>
	<rect x="195.5" y="347.5" fill="none" stroke="#999999" stroke-width="0.1" width="50" height="100"/>
	<rect x="295.5" y="347.5" fill="none" stroke="#999999" stroke-width="0.1" width="50" height="100"/>
	<rect x="395.5" y="347.5" fill="none" stroke="#999999" stroke-width="0.1" width="50" height="100"/>
	<rect x="495.5" y="347.5" fill="none" stroke="#999999" stroke-width="0.1" width="50" height="100"/>
	<rect x="595.5" y="347.5" fill="none" stroke="#999999" stroke-width="0.1" width="50" height="100"/>
	<rect x="195.5" y="447.5" fill="none" stroke="#999999" stroke-width="0.1" width="50" height="100"/>
	<rect x="295.5" y="447.5" fill="none" stroke="#999999" stroke-width="0.1" width="50" height="100"/>
	<rect x="395.5" y="447.5" fill="none" stroke="#999999" stroke-width="0.1" width="50" height="100"/>
	<rect x="495.5" y="447.5" fill="none" stroke="#999999" stroke-width="0.1" width="50" height="100"/>
	<rect x="595.5" y="447.5" fill="none" stroke="#999999" stroke-width="0.1" width="50" height="100"/>
	<rect x="195.5" y="547.5" fill="none" stroke="#999999" stroke-width="0.1" width="50" height="100"/>
	<rect x="295.5" y="547.5" fill="none" stroke="#999999" stroke-width="0.1" width="50" height="100"/>
	<rect x="395.5" y="547.5" fill="none" stroke="#999999" stroke-width="0.1" width="50" height="100"/>
	<rect x="495.5" y="547.5" fill="none" stroke="#999999" stroke-width="0.1" width="50" height="100"/>
	<rect x="595.5" y="547.5" fill="none" stroke="#999999" stroke-width="0.1" width="50" height="100"/>
</g>
<g>
	<path d="M241-22.5h-17.5v-22h-2v22H200v2h21.5v3c0,35.7050781-5.3154297,44.9335938-16.484375,51.125l0.96875,1.75
		C219.4072266,27.9335938,223.5,15.5800781,223.5-17.5v-3H241V-22.5z"/>
	<path d="M241.1665039,76.4995117h-16.4169922V55.3330078h-4.5830078v21.1665039h-20.3334961v4.6669922h20.3334961V84
		c0,32.6552734-4.9291992,41.706543-15.7397461,47.6665039l2.2294922,4.4165039
		C219.9169922,128.9619141,224.7495117,116.5429688,224.7495117,84v-2.8334961h16.4169922V76.4995117z"/>
	<path d="M241.3330078,175.5H226v-20.3334961h-7.1669922V175.5h-19.1665039v7.3334961h19.1665039V185.5
		c0,29.6064453-4.5419922,38.4804688-14.9946289,44.2080078l3.4897461,7.0834961C220.4277344,229.9902344,226,217.5068359,226,185.5
		v-2.6665039h15.3330078V175.5z"/>
	<path d="M241.5,274.5h-14.25V255h-9.75v19.5h-18v10h18v2.5c0,26.5576172-4.1552734,35.2539062-14.25,40.75l4.75,9.75
		c12.9375-6.4814453,19.25-19.0302734,19.25-50.5v-2.5h14.25V274.5z"/>
	<path d="M241.6660156,373.5h-13.5v-18.6669922h-11.8330078V373.5h-17v12.6660156h17V388.5
		c0,23.9667969-3.9589844,32.1757812-13.5,37.3330078l5.5,12.3330078
		c13.2246094-6.3847656,19.8330078-19.4375,19.8330078-49.6660156v-2.3339844h13.5V373.5z"/>
	<path d="M241.8330078,472.5h-12.75v-17.8330078h-13.9160156V472.5h-16v15.3330078h16V490
		c0,21.375-3.7631836,29.0986328-12.75,33.9169922l6.25,14.9160156
		C222.1777344,532.5429688,229.0830078,518.9873047,229.0830078,490v-2.1669922h12.75V472.5z"/>
	<path d="M214,591.5c0,18.7841797-3.5664062,26.0205078-12,30.5l7,17.5c13.7978516-6.1943359,21-20.2539062,21-48v-2h12v-18h-12v-17
		h-16v17h-15v18h15V591.5z"/>
</g>
<g>
	<path d="M603.9970703,35.3681641l-0.9941406-1.7363281C622.75,22.3212891,631.1611328,1.5244141,633.0009766-40.5439453
		l1.9980469,0.0878906C633.1240234,2.4042969,624.4316406,23.6630859,603.9970703,35.3681641z"/>
	<path d="M604.5810547,136.0786133l-1.9130859-4.5742188c18.2705078-10.8168945,26.4912109-30.2045898,28.2490234-72.3676758
		l4.6650391,0.3920898C633.6835938,103.6826172,624.6142578,124.5053711,604.5810547,136.0786133z"/>
	<path d="M605.1660156,236.7890625l-2.8320312-7.4116211c16.7929688-10.3227539,24.8232422-28.3012695,26.5-70.559082
		l7.3320312,0.6962891C634.2421875,204.9609375,624.796875,225.3486328,605.1660156,236.7890625z"/>
	<path d="M636.75,259.5c-1.9482422,46.7392578-11.7705078,66.6914062-31,78L602,327.25
		c15.3154297-9.8291016,23.1552734-26.3984375,24.75-68.75L636.75,259.5z"/>
	<path d="M637.3330078,359.5c-1.9365234,47.171875-11.6669922,67.1923828-31,78.6660156l-4.6669922-13
		c14.765625-9.7226562,21.9980469-25.6591797,23.5-67L637.3330078,359.5z"/>
	<path d="M637.9169922,459.5c-1.9248047,47.6035156-11.5644531,67.6943359-31.0009766,79.3330078l-5.5820312-15.75
		c14.2148438-9.6171875,20.8398438-24.9208984,22.25-65.2490234L637.9169922,459.5z"/>
	<path d="M638.5,559.5l-16.5-2c-1.3173828,39.3173828-7.3349609,53.9882812-21,63.5l6.5,18.5
		C627.0390625,627.6962891,636.5878906,607.5361328,638.5,559.5z"/>
</g>
<g>
	<g>
		<rect x="304.5" y="-34.5" width="32" height="2"/>
		<rect x="301" y="27.5" width="39" height="2"/>
	</g>
	<g>
		<rect x="304.2495117" y="64.6660156" width="32.5004883" height="4.7504883"/>
		<rect x="300.8330078" y="125.5830078" width="39.3334961" height="4.75"/>
	</g>
	<g>
		<rect x="304" y="163.8330078" width="33" height="7.5004883"/>
		<rect x="300.6669922" y="223.6665039" width="39.6660156" height="7.5004883"/>
	</g>
	<g>
		<rect x="303.75" y="263" width="33.5" height="10.25"/>
		<rect x="300.5" y="321.75" width="40" height="10.25"/>
	</g>
	<g>
		<rect x="303.4995117" y="362.1660156" width="34.0004883" height="13"/>
		<rect x="300.3330078" y="419.8330078" width="40.3330078" height="13"/>
	</g>
	<g>
		<rect x="303.25" y="461.3339844" width="34.5" height="15.7490234"/>
		<rect x="300.1665039" y="517.9169922" width="40.6665039" height="15.7490234"/>
	</g>
	<g>
		<rect x="303" y="560.5" width="35" height="18.5"/>
		<rect x="300" y="616" width="41" height="18.5"/>
	</g>
</g>
<g>
	<g>
		<rect x="404.5" y="-36.5" width="34.5" height="2"/>
		<path d="M402.5341797,35.3457031l-1.0683594-1.6914062c20.421875-12.9072266,32.3808594-35.9033203,35.5439453-68.3476562
			L439-34.5C435.7744141-1.4091797,423.5048828,22.0908203,402.5341797,35.3457031z"/>
		<path d="M438.6376953,29.0058594c-9.0175781-15.3681641-18.2050781-28.6748047-28.9140625-41.8759766l1.5527344-1.2597656
			c10.7744141,13.28125,20.0166016,26.6660156,29.0859375,42.1240234L438.6376953,29.0058594z"/>
	</g>
	<g>
		<rect x="404.1665039" y="62.5" width="34.9995117" height="4.4995117"/>
		<path d="M434.7578125,66.0883789l4.4082031,0.9111328c-3.4775391,32.5454102-15.6191406,55.4077148-35.8935547,69.0639648
			l-2.1289062-4.1274414C420.0483398,119.3886719,431.7705078,96.8808594,434.7578125,66.0883789z"/>
		<path d="M408.3300781,88.1899414l3.2563477-3.3808594c10.6010742,13.3618164,20.0541992,27.1796875,28.9047852,42.1870117
			l-3.3994141,3.0908203C428.1894531,115.0532227,418.7646484,101.3095703,408.3300781,88.1899414z"/>
	</g>
	<g>
		<rect x="403.8330078" y="161.5" width="35.5" height="7"/>
		<path d="M432.5068359,166.8710938L439.3330078,168.5c-3.7304688,32-15.7431641,54.2246094-35.3212891,68.2817383
			l-3.1899414-6.5639648C418.2089844,218.0302734,429.6943359,196.0117188,432.5068359,166.8710938z"/>
		<path d="M406.9365234,189.2509766l4.9599609-5.5019531c10.4277344,13.4414062,20.0917969,27.6933594,28.7246094,42.2490234
			l-5.0751953,5.1704102C426.7597656,216.4697266,417.097168,202.2890625,406.9365234,189.2509766z"/>
	</g>
	<g>
		<rect x="403.5" y="260.5" width="36" height="9.5"/>
		<path d="M430.2548828,267.6533203L439.5,270c-3.9833984,31.4550781-15.8671875,53.0410156-34.75,67.5l-4.25-9
			C416.3701172,316.671875,427.6181641,295.1416016,430.2548828,267.6533203z"/>
		<path d="M405.5429688,290.3115234l6.6640625-7.6230469C422.4609375,296.2099609,432.3359375,310.8955078,440.75,325l-6.75,7.25
			C425.3291016,317.8857422,415.4296875,303.2675781,405.5429688,290.3115234z"/>
	</g>
	<g>
		<rect x="403.1660156" y="359.5" width="36.5" height="12"/>
		<path d="M428.5029297,368.2685547L439.6660156,371.5C435.4121094,402.1035156,423.875,422.9941406,405,438.1660156
			l-4.8339844-11.5C415.1938477,414.9003906,426.0332031,393.734375,428.5029297,368.2685547z"/>
		<path d="M404.8618164,391.7070312L412.4707031,381.625c10.0810547,13.6025391,20.1669922,28.7207031,28.3623047,42.375
			l-7.6669922,9.6660156C424.6103516,419.6367188,414.4736328,404.5820312,404.8618164,391.7070312z"/>
	</g>
	<g>
		<rect x="402.8330078" y="458.5" width="37" height="14.5"/>
		<path d="M426.7519531,468.8847656L439.8330078,473c-4.5244141,29.7539062-15.7148438,49.9472656-34.5830078,65.8330078
			l-5.4169922-14C414.0185547,513.1308594,424.4492188,492.328125,426.7519531,468.8847656z"/>
		<path d="M404.1806641,493.1035156l8.5546875-12.5410156c9.9082031,13.6826172,20.2041016,29.234375,28.1806641,42.4375
			l-8.5820312,12.0830078C423.8925781,521.3876953,413.5185547,505.8955078,404.1806641,493.1035156z"/>
	</g>
	<g>
		<rect x="402.5" y="557.5" width="37.5" height="17"/>
		<path d="M425,569.5c-2.1347656,21.4208984-12.1572266,41.859375-25.5,53.5l6,16.5
			c18.8613281-16.6005859,29.7050781-36.0976562,34.5-65L425,569.5z"/>
		<path d="M403.5,594.5c9.0625,12.7099609,19.6748047,28.6386719,28,42L441,622c-7.7587891-12.7519531-18.265625-28.7373047-28-42.5
			L403.5,594.5z"/>
	</g>
</g>
<g>
	<g>
		<polygon points="521.5,-29.5 521.5,-45.5 519.5,-45.5 519.5,-29.5 502.5,-29.5 502.5,-27.5 539,-27.5 539,-29.5 		"/>
		<path d="M500.9814453,19.3759766l-0.9628906-1.7519531C518.5458984,7.4394531,530.328125-7.09375,537.0957031-28.1132812L539-27.5
			C532.0654297-5.9638672,519.9853516,8.9306641,500.9814453,19.3759766z"/>
		<path d="M539.7011719,22.1015625c-4.8125-6.3974609-11.1572266-14.4208984-16.9726562-21.4648438l1.5429688-1.2734375
			c5.8330078,7.0654297,12.1982422,15.1162109,17.0273438,21.5351562L539.7011719,22.1015625z"/>
		<rect x="519.5" y="3" width="2" height="35.5"/>
	</g>
	<g>
		<polygon points="522.7910156,69.6665039 522.7910156,54.1665039 518.2080078,54.1665039 518.2080078,69.6665039 
			502.25,69.6665039 502.25,74.1665039 539.25,74.1665039 539.25,69.6665039 		"/>
		<path d="M534.9101562,72.8842773L539.25,74.1665039c-6.8554688,21.2768555-19.0634766,36.1791992-37.7626953,46.4174805
			l-1.8085938-4.3349609C516.8691406,106.7949219,528.4550781,92.6704102,534.9101562,72.8842773z"/>
		<path d="M522.15625,101.3466797l2.9365234-3.3603516c5.6953125,7.1376953,11.8759766,15.2226562,16.6894531,21.8623047
			l-3.3154297,3.21875C533.7382812,116.4453125,527.7089844,108.4448242,522.15625,101.3466797z"/>
		<rect x="518.2080078" y="102.9160156" width="4.5830078" height="35.9169922"/>
	</g>
	<g>
		<polygon points="524.0830078,168.8334961 524.0830078,153.8330078 516.9160156,153.8330078 516.9160156,168.8334961 
			502,168.8334961 502,175.8330078 539.5,175.8330078 539.5,168.8334961 		"/>
		<path d="M532.7246094,173.8828125L539.5,175.8330078c-6.7753906,21.0175781-19.1123047,35.9277344-37.5058594,45.9589844
			l-2.6542969-6.9174805C515.1933594,206.1503906,526.5839844,192.4350586,532.7246094,173.8828125z"/>
		<path d="M521.5859375,202.0576172l4.3291016-5.4482422c5.5566406,7.2109375,11.5537109,15.3300781,16.3515625,22.1904297
			l-5.0332031,5.234375C532.5869141,217.1875,526.8740234,209.2094727,521.5859375,202.0576172z"/>
		<rect x="516.9160156" y="202.8330078" width="7.1669922" height="36.3339844"/>
	</g>
	<g>
		<polygon points="525.375,268 525.375,253.5 515.625,253.5 515.625,268 501.75,268 501.75,277.5 539.75,277.5 539.75,268 		"/>
		<path d="M530.5380859,274.8808594L539.75,277.5c-6.6953125,20.7578125-19.1611328,35.6757812-37.25,45.5l-3.5-9.5
			C513.5166016,305.5058594,524.7109375,292.1992188,530.5380859,274.8808594z"/>
		<path d="M521.0136719,302.7675781l5.7226562-7.5351562C532.1552734,302.515625,537.9677734,310.6689453,542.75,317.75L536,325
			C531.4365234,317.9287109,526.0390625,309.9736328,521.0136719,302.7675781z"/>
		<rect x="515.625" y="302.75" width="9.75" height="36.75"/>
	</g>
	<g>
		<polygon points="526.4160156,367.1660156 526.4160156,353.1660156 514.5830078,353.1660156 514.5830078,367.1660156 
			501.5,367.1660156 501.5,379.1660156 540,379.1660156 540,367.1660156 		"/>
		<path d="M528.8583984,375.7539062L540,379.1660156c-6.6513672,20.3320312-19.3164062,35.2988281-37.5,45L498.6660156,412
			C512.2851562,404.6240234,523.2773438,391.7636719,528.8583984,375.7539062z"/>
		<path d="M521.1757812,403.6777344l6.3144531-9.8564453c5.28125,7.3554688,10.9101562,15.5439453,15.6757812,22.8447266
			l-7.6660156,9.5C531.0195312,418.8710938,525.9375,410.9384766,521.1757812,403.6777344z"/>
		<rect x="514.5830078" y="402.6660156" width="11.6669922" height="37.1669922"/>
	</g>
	<g>
		<polygon points="527.4580078,466.3330078 527.4580078,452.8330078 513.5419922,452.8330078 513.5419922,466.3330078 
			501.25,466.3330078 501.25,480.8330078 540.25,480.8330078 540.25,466.3330078 		"/>
		<path d="M527.1796875,476.6269531L540.25,480.8330078c-6.6064453,19.90625-19.4707031,34.921875-37.75,44.5009766
			L498.3330078,510.5C511.0537109,503.7421875,521.8447266,491.3291016,527.1796875,476.6269531z"/>
		<path d="M521.3378906,504.5898438l6.9082031-12.1796875c5.1425781,7.4277344,10.5869141,15.6503906,15.3378906,23.1738281
			L535,527.3330078C530.6035156,519.8125,525.8359375,511.9033203,521.3378906,504.5898438z"/>
		<rect x="513.5419922" y="502.5839844" width="13.5830078" height="37.5820312"/>
	</g>
	<g>
		<polygon points="540.5,582.5 540.5,565.5 528.5,565.5 528.5,552.5 512.5,552.5 512.5,565.5 501,565.5 501,582.5 		"/>
		<path d="M525.5,577.5c-5.0878906,13.3935547-15.6777344,25.3603516-27.5,31.5l4.5,17.5
			c18.3740234-9.4560547,31.4375-24.5195312,38-44L525.5,577.5z"/>
		<path d="M521.5,605.5c4.2353516,7.3681641,8.6865234,15.2548828,13,23l9.5-14c-4.734375-7.7431641-9.9941406-16-15-23.5
			L521.5,605.5z"/>
		<rect x="512.5" y="602.5" width="15.5" height="38"/>
	</g>
</g>
</svg>
