<?xml version="1.0" encoding="utf-8"?>
<!-- Generator: Adobe Illustrator 15.0.2, SVG Export Plug-In . SVG Version: 6.00 Build 0)  -->
<!DOCTYPE svg PUBLIC "-//W3C//DTD SVG 1.1//EN" "http://www.w3.org/Graphics/SVG/1.1/DTD/svg11.dtd">
<svg version="1.1" id="レイヤー1" xmlns="http://www.w3.org/2000/svg" xmlns:xlink="http://www.w3.org/1999/xlink" x="0px"
	 y="0px" width="841.8896484px" height="595.2753906px" viewBox="0 0 841.8896484 595.2753906"
	 enable-background="new 0 0 841.8896484 595.2753906" xml:space="preserve">
<g>
	<rect x="195.5" y="147.5" fill="none" stroke="#999999" stroke-width="0.1" width="50" height="100"/>
	<rect x="295.5" y="147.5" fill="none" stroke="#999999" stroke-width="0.1" width="50" height="100"/>
	<rect x="395.5" y="147.5" fill="none" stroke="#999999" stroke-width="0.1" width="50" height="100"/>
	<rect x="495.5" y="147.5" fill="none" stroke="#999999" stroke-width="0.1" width="50" height="100"/>
	<rect x="595.5" y="147.5" fill="none" stroke="#999999" stroke-width="0.1" width="50" height="100"/>
	<rect x="195.5" y="247.5" fill="none" stroke="#999999" stroke-width="0.1" width="50" height="100"/>
	<rect x="295.5" y="247.5" fill="none" stroke="#999999" stroke-width="0.1" width="50" height="100"/>
	<rect x="395.5" y="247.5" fill="none" stroke="#999999" stroke-width="0.1" width="50" height="100"/>
	<rect x="495.5" y="247.5" fill="none" stroke="#999999" stroke-width="0.1" width="50" height="100"/>
	<rect x="595.5" y="247.5" fill="none" stroke="#999999" stroke-width="0.1" width="50" height="100"/>
	<rect x="195.5" y="-52.5" fill="none" stroke="#999999" stroke-width="0.1" width="50" height="100"/>
	<rect x="295.5" y="-52.5" fill="none" stroke="#999999" stroke-width="0.1" width="50" height="100"/>
	<rect x="395.5" y="-52.5" fill="none" stroke="#999999" stroke-width="0.1" width="50" height="100"/>
	<rect x="495.5" y="-52.5" fill="none" stroke="#999999" stroke-width="0.1" width="50" height="100"/>
	<rect x="595.5" y="-52.5" fill="none" stroke="#999999" stroke-width="0.1" width="50" height="100"/>
	<rect x="195.5" y="47.5" fill="none" stroke="#999999" stroke-width="0.1" width="50" height="100"/>
	<rect x="295.5" y="47.5" fill="none" stroke="#999999" stroke-width="0.1" width="50" height="100"/>
	<rect x="395.5" y="47.5" fill="none" stroke="#999999" stroke-width="0.1" width="50" height="100"/>
	<rect x="495.5" y="47.5" fill="none" stroke="#999999" stroke-width="0.1" width="50" height="100"/>
	<rect x="595.5" y="47.5" fill="none" stroke="#999999" stroke-width="0.1" width="50" height="100"/>
	<rect x="195.5" y="347.5" fill="none" stroke="#999999" stroke-width="0.1" width="50" height="100"/>
	<rect x="295.5" y="347.5" fill="none" stroke="#999999" stroke-width="0.1" width="50" height="100"/>
	<rect x="395.5" y="347.5" fill="none" stroke="#999999" stroke-width="0.1" width="50" height="100"/>
	<rect x="495.5" y="347.5" fill="none" stroke="#999999" stroke-width="0.1" width="50" height="100"/>
	<rect x="595.5" y="347.5" fill="none" stroke="#999999" stroke-width="0.1" width="50" height="100"/>
	<rect x="195.5" y="447.5" fill="none" stroke="#999999" stroke-width="0.1" width="50" height="100"/>
	<rect x="295.5" y="447.5" fill="none" stroke="#999999" stroke-width="0.1" width="50" height="100"/>
	<rect x="395.5" y="447.5" fill="none" stroke="#999999" stroke-width="0.1" width="50" height="100"/>
	<rect x="495.5" y="447.5" fill="none" stroke="#999999" stroke-width="0.1" width="50" height="100"/>
	<rect x="595.5" y="447.5" fill="none" stroke="#999999" stroke-width="0.1" width="50" height="100"/>
	<rect x="195.5" y="547.5" fill="none" stroke="#999999" stroke-width="0.1" width="50" height="100"/>
	<rect x="295.5" y="547.5" fill="none" stroke="#999999" stroke-width="0.1" width="50" height="100"/>
	<rect x="395.5" y="547.5" fill="none" stroke="#999999" stroke-width="0.1" width="50" height="100"/>
	<rect x="495.5" y="547.5" fill="none" stroke="#999999" stroke-width="0.1" width="50" height="100"/>
	<rect x="595.5" y="547.5" fill="none" stroke="#999999" stroke-width="0.1" width="50" height="100"/>
</g>
<g>
	<path d="M641-4.5v-2h-24v-28h21v-2h-35v2h12v28h-15v2h15v16c0,20.4208984,1.3457031,23,12,23
		c3.9501953,0,7.2939453-0.3037109,11.1806641-1.0166016l-0.3613281-1.9667969C634.0585938,32.2060547,630.8232422,32.5,627,32.5
		c-8.4736328,0-10,0-10-21v-16H641z"/>
	<path d="M641.25,96.9995117V92.5h-22.8339844V67.0830078h19.75V62.5h-35.3330078v4.5830078h11.0830078V92.5H599.75v4.4995117
		h14.1660156v14.6669922c0,21.1376953,1.6396484,23.4995117,12.6669922,23.4995117
		c4.0966797,0,7.6025391-0.3076172,11.6503906-1.0136719l-0.3837891-4.5556641
		c-3.6621094,0.6928711-6.8056641,0.9863281-10.5166016,0.9863281c-7.7851562,0-8.9169922-0.0883789-8.9169922-19V96.9995117H641.25
		z"/>
	<path d="M641.5,198.5v-7h-21.6660156v-22.8330078h18.5V161.5h-35.6669922v7.1669922h10.1660156V191.5H599.5v7h13.3330078
		v13.3330078c0,21.8549805,1.9335938,24,13.3339844,24c4.2412109,0,7.9101562-0.3115234,12.1201172-1.0107422l-0.4072266-7.1450195
		c-3.5634766,0.6967773-6.6142578,0.9897461-10.2128906,0.9897461c-7.0966797,0-7.8330078-0.1777344-7.8330078-17V198.5H641.5z"/>
	<path d="M641.75,300v-9.5h-20.5v-20.25h17.25v-9.75h-36v9.75h9.25v20.25h-12.5v9.5h12.5v12c0,22.5712891,2.2265625,24.5,14,24.5
		c4.3876953,0,8.21875-0.3164062,12.5898438-1.0078125l-0.4296875-9.734375C634.4453125,326.4580078,631.4863281,326.75,628,326.75
		c-6.4082031,0-6.75-0.265625-6.75-15V300H641.75z"/>
	<path d="M642,401.5v-12h-19.6669922v-17.6669922h16.3330078V359.5h-36.3330078v12.3330078h8.5V389.5H599v12h11.8330078v10.6660156
		c0,22.4804688,2.5205078,25,14.5,25c4.5332031,0,8.5263672-0.3203125,13.0595703-1.0048828l-0.453125-12.3232422
		c-3.3652344,0.703125-6.2324219,0.9951172-9.6064453,0.9951172c-5.5498047,0-6-0.421875-6-13V401.5H642z"/>
	<path d="M642.25,503v-14.5h-18.8330078v-15.0830078h15.4160156V458.5h-36.6660156v14.9169922h7.7490234V488.5H598.75V503
		h11.1660156v9.3330078c0,22.3886719,2.8164062,25.5009766,15.0009766,25.5009766
		c4.6787109,0,8.8349609-0.3242188,13.5302734-1.0039062l-0.4775391-14.9111328
		c-3.2666016,0.7070312-6.0410156,0.9970703-9.3027344,0.9970703c-4.6914062,0-5.25-0.5771484-5.25-11V503H642.25z"/>
	<path d="M629,621c-3.8320312,0-4.5-0.734375-4.5-9v-7.5h18v-17h-18V575H639v-17.5h-37V575h7v12.5h-10.5v17H609v8
		c0,22.296875,3.109375,26,15.5,26c4.8251953,0,9.1425781-0.328125,14-1L638,620C634.8320312,620.7099609,632.1503906,621,629,621z"
		/>
</g>
<g>
	<g>
		<path d="M416.5,630c3.4580078-23.7441406,6.3349609-48.0869141,8.5-72l-15-2.5c-2.2421875,23.6064453-5.0839844,46.9628906-8.5,69
			L416.5,630z"/>
		<path d="M437.5,610.5c-13.3232422,4.2958984-26.3808594,6.9873047-39,8l1,17c12.7636719-0.8017578,26.0351562-3.4501953,40-8
			L437.5,610.5z"/>
		<path d="M422.5,592.5c2.5361328,13.7861328,5.7451172,32.2314453,8,46l13.5-6c-2.1572266-13.6943359-5.3339844-32.1357422-8-46.5
			L422.5,592.5z"/>
	</g>
	<g>
		<path d="M415.0810547,530.0976562l-13.1625977-4.6123047c3.565918-21.9228516,6.5839844-45.5849609,8.9145508-69.3193359
			L424,458.25C421.7329102,482.2490234,418.6835938,506.7421875,415.0810547,530.0976562z"/>
		<path d="M437.6289062,512.5068359l1.7421875,14.4853516C425.3535156,531.5380859,412.15625,534.1835938,399.5,535l-0.8334961-14.5
			C411.1762695,519.5097656,424.171875,516.8330078,437.6289062,512.5068359z"/>
		<path d="M423.3330078,492.75L435.25,487.25c2.7558594,13.8994141,6.0732422,31.8505859,8.4160156,45.5L431.75,537.8330078
			C429.3261719,524.125,425.9804688,506.1650391,423.3330078,492.75z"/>
	</g>
	<g>
		<path d="M413.6630859,430.1953125l-11.3261719-3.7246094c3.7158203-21.8085938,6.9101562-45.7753906,9.3295898-69.6367188
			L423,358.5C420.6313477,382.5859375,417.4091797,407.2285156,413.6630859,430.1953125z"/>
		<path d="M437.7578125,414.5146484l1.484375,11.9716797C425.1728516,431.0273438,412.0488281,433.6699219,399.5,434.5
			l-0.6669922-12C411.2338867,421.5322266,424.1660156,418.8701172,437.7578125,414.5146484z"/>
		<path d="M424.1669922,393L434.5,388.5c2.8466797,13.4345703,6.3037109,30.8964844,8.8330078,44.5L433,437.1669922
			C430.4072266,423.5185547,426.9257812,406.0439453,424.1669922,393z"/>
	</g>
	<g>
		<path d="M412.2441406,330.2929688l-9.4882812-2.8359375C406.6210938,305.7617188,409.9921875,281.4902344,412.5,257.5l9.5,1.25
			C419.5292969,282.921875,416.1347656,307.7148438,412.2441406,330.2929688z"/>
		<path d="M437.8867188,316.5214844l1.2265625,9.4570312C424.9921875,330.515625,411.9414062,333.1552734,399.5,334l-0.5-9.5
			C411.2910156,323.5546875,424.1611328,320.9072266,437.8867188,316.5214844z"/>
		<path d="M425,293.25l8.75-3.5c2.9365234,12.9697266,6.5341797,29.9414062,9.25,43.5l-8.75,3.25
			C431.4882812,322.9121094,427.8701172,305.9228516,425,293.25z"/>
	</g>
	<g>
		<path d="M410.3227539,230.4277344l-6.9794922-2.0229492c4.0151367-21.581543,7.5629883-46.1577148,10.1586914-70.2758789
			l6.9956055,0.9082031C417.9248047,183.2954102,414.3579102,208.2392578,410.3227539,230.4277344z"/>
		<path d="M399.5244141,233.4990234l-0.3828125-6.9980469c12.1816406-0.9233398,24.9892578-3.5556641,38.8486328-7.9711914
			l1.0185547,6.9399414C424.8359375,230.0019531,411.8583984,232.6391602,399.5244141,233.4990234z"/>
		<path d="M426.5117188,193.5883789l6.4765625-2.5107422c3.0263672,12.5053711,6.7675781,28.996582,9.6689453,42.5097656
			l-6.4814453,2.324707C433.2451172,222.3852539,429.4931641,205.8901367,426.5117188,193.5883789z"/>
	</g>
	<g>
		<path d="M408.4018555,130.5634766l-4.4702148-1.2099609c4.1650391-21.4682617,7.8896484-46.3486328,10.5732422-70.5957031
			l4.4907227,0.5673828C416.3212891,83.6694336,412.581543,108.7636719,408.4018555,130.5634766z"/>
		<path d="M399.5488281,132.9980469l-0.2646484-4.4960938c12.0722656-0.9003906,24.8173828-3.5175781,38.8105469-7.9638672
			l0.8105469,4.4238281C424.6806641,129.4892578,411.7753906,132.1240234,399.5488281,132.9980469z"/>
		<path d="M428.0234375,93.9277344l4.2021484-1.5224609c3.1181641,12.0410156,7.0009766,28.0517578,10.0888672,41.5195312
			l-4.2119141,1.3999023C435.0029297,121.8588867,431.1162109,105.8579102,428.0234375,93.9277344z"/>
	</g>
	<g>
		<path d="M406.4804688,30.6982422l-1.9609375-0.3964844c4.3144531-21.3544922,8.2158203-46.5400391,10.9873047-70.9150391
			l1.9863281,0.2265625C414.7167969-15.9570312,410.8046875,9.2880859,406.4804688,30.6982422z"/>
		<path d="M399.5732422,32.4970703l-0.1464844-1.9941406c11.9619141-0.8779297,24.6445312-3.4804688,38.7714844-7.9560547
			l0.6035156,1.90625C424.5244141,28.9765625,411.6923828,31.6083984,399.5732422,32.4970703z"/>
		<path d="M440.0283203,34.7373047c-3.2685547-13.4052734-7.2890625-28.9121094-10.4921875-40.4707031l1.9277344-0.5332031
			c3.2080078,11.5761719,7.234375,27.1064453,10.5078125,40.5292969L440.0283203,34.7373047z"/>
	</g>
</g>
<g>
	<g>
		<path d="M302.5,575c11.1044922,0.8144531,23.2373047,2.8623047,35.5,6l1-18c-11.96875-3.0625-24.1171875-5.0869141-36-6L302.5,575
			z"/>
		<path d="M335.5,590.5c-10.2861328-3.4736328-19.9589844-5.5673828-30-6.5l-0.5,18.5
			c9.5039062,0.9335938,19.4638672,3.1318359,29.5,6.5L335.5,590.5z"/>
		<path d="M340.5,620.5c-13.2666016-4.2949219-27.3632812-7.1103516-39.5-8l-0.5,18.5c11.5283203,0.8447266,26.015625,3.796875,39,8
			L340.5,620.5z"/>
	</g>
	<g>
		<path d="M302.9047852,473.0830078L303.3447266,457.75c11.8496094,0.8974609,23.4560547,2.8671875,35.2880859,6.0078125
			l-0.9331055,15.3173828C325.6489258,475.8808594,314.0771484,473.8955078,302.9047852,473.0830078z"/>
		<path d="M335.3886719,491.6757812l-0.9443359,15.7304688c-10.0419922-3.3984375-19.6816406-5.5175781-29.2060547-6.40625
			l0.4399414-15.75C315.6826172,486.1416016,325.1079102,488.1787109,335.3886719,491.6757812z"/>
		<path d="M340.1435547,522.6777344l-0.9541016,15.7265625c-12.6123047-4.1982422-26.878418-7.1523438-38.3681641-7.9882812
			l0.4404297-15.7490234C313.2890625,515.5419922,327.2666016,518.390625,340.1435547,522.6777344z"/>
	</g>
	<g>
		<path d="M303.3095703,371.1660156L303.6904297,358.5c11.8164062,0.8818359,22.8803711,2.7958984,34.5761719,6.015625
			l-0.8666992,12.6347656C325.5615234,373.8994141,314.550293,371.9765625,303.3095703,371.1660156z"/>
		<path d="M335.2773438,392.8525391l-0.8876953,12.9619141c-10.0488281-3.4296875-19.3676758-5.4697266-28.9130859-6.3154297
			L305.8564453,386.5C315.8242188,387.3515625,325.0019531,389.3320312,335.2773438,392.8525391z"/>
		<path d="M339.7880859,424.8564453l-0.9091797,12.9541016c-12.2397461-4.1943359-26.284668-7.1513672-37.7358398-7.9775391
			l0.3803711-12.9990234C313.4423828,417.6953125,327.300293,420.5771484,339.7880859,424.8564453z"/>
	</g>
	<g>
		<path d="M303.7148438,269.2490234l0.3203125-9.9980469c11.7832031,0.8652344,22.3056641,2.7246094,33.8652344,6.0224609
			l-0.8007812,9.953125C325.4736328,271.9179688,315.0234375,270.0585938,303.7148438,269.2490234z"/>
		<path d="M335.1660156,294.0283203l-0.8320312,10.1933594c-10.0546875-3.4599609-19.0527344-5.4208984-28.6191406-6.2226562
			l0.3203125-10.2480469C315.9658203,288.5605469,324.8964844,290.484375,335.1660156,294.0283203z"/>
		<path d="M339.4316406,327.0341797l-0.8632812,10.1816406c-11.8671875-4.1904297-25.6914062-7.1494141-37.1035156-7.9667969
			l0.3203125-10.2480469C313.5957031,319.8476562,327.3339844,322.7626953,339.4316406,327.0341797z"/>
	</g>
	<g>
		<path d="M304.1196289,167.3320312l0.2602539-7.3310547c11.75,0.8496094,21.7304688,2.6533203,33.1542969,6.0302734
			l-0.7353516,7.2705078C325.3852539,169.9360352,315.4960938,168.1396484,304.1196289,167.3320312z"/>
		<path d="M334.2783203,202.628418c-10.0605469-3.4907227-18.7382812-5.371582-28.3251953-6.1303711l0.2597656-7.4970703
			c9.8945312,0.7685547,18.5771484,2.6352539,28.8417969,6.203125L334.2783203,202.628418z"/>
		<path d="M338.2578125,236.6206055c-11.4951172-4.1860352-25.0981445-7.1474609-36.4716797-7.9555664l0.2602539-7.4970703
			c11.7016602,0.8320312,25.3208008,3.7802734,37.0288086,8.0439453L338.2578125,236.6206055z"/>
	</g>
	<g>
		<path d="M304.5253906,65.4150391l0.1992188-4.6630859c11.7177734,0.8330078,21.15625,2.5820312,32.4433594,6.0371094
			l-0.6689453,4.5888672C325.2978516,67.9545898,315.9697266,66.2216797,304.5253906,65.4150391z"/>
		<path d="M334.2226562,101.0361328c-10.0654297-3.5214844-18.4228516-5.3232422-28.0307617-6.0380859l0.199707-4.7460938
			c9.8574219,0.7265625,18.2929688,2.5371094,28.5527344,6.128418L334.2226562,101.0361328z"/>
		<path d="M337.9477539,136.0263672c-11.1225586-4.1826172-24.5053711-7.1459961-35.8393555-7.9448242l0.1992188-4.746582
			c11.5932617,0.8173828,25.09375,3.7993164,36.4111328,8.0551758L337.9477539,136.0263672z"/>
	</g>
	<g>
		<path d="M336.1982422-30.546875c-10.9882812-3.4804688-19.7548828-5.1503906-31.2675781-5.9550781l0.1386719-1.9960938
			c11.6845703,0.8173828,20.5810547,2.5117188,31.7324219,6.0449219L336.1982422-30.546875z"/>
		<path d="M334.1669922-0.5566406c-10.0712891-3.5517578-18.1074219-5.2744141-27.7363281-5.9453125l0.1386719-1.9960938
			c9.8212891,0.6855469,18.0097656,2.4394531,28.2636719,6.0546875L334.1669922-0.5566406z"/>
		<path d="M337.6376953,35.4316406c-10.7509766-4.1787109-23.9121094-7.1445312-35.2070312-7.9335938l0.1386719-1.9960938
			c11.484375,0.8027344,24.8652344,3.8183594,35.7929688,8.0664062L337.6376953,35.4316406z"/>
	</g>
</g>
<g>
	<g>
		<rect x="200" y="559.5" width="41.25" height="17.5"/>
		<path d="M226.25,572c-1.3183594,12.2392578-6.4414062,25.2041016-12.75,33l8.5,17
			c10.5986328-12.5400391,16.0947266-25.1308594,19.25-45L226.25,572z"/>
		<path d="M202.5,598c5.6835938,15.40625,9.7207031,26.8349609,15,42.5L231,633
			c-5.1054688-15.1894531-9.3203125-27.0917969-15.25-43L202.5,598z"/>
	</g>
	<g>
		<rect x="200.1665039" y="460.1660156" width="40.875" height="14.9169922"/>
		<path d="M227.9580078,470.9160156l13.0834961,4.1669922c-2.9487305,19.5048828-9.1640625,33.4892578-19.8466797,45.6230469
			l-7.559082-14.3769531C220.659668,498.2246094,226.5532227,483.9443359,227.9580078,470.9160156z"/>
		<path d="M203.2495117,497l11.5834961-6.75c5.8320312,15.5410156,10.2304688,27.9726562,15.4165039,43.5l-11.8334961,6.3330078
			C213.0869141,524.1640625,208.8486328,512.1279297,203.2495117,497z"/>
	</g>
	<g>
		<rect x="200.3334961" y="360.8330078" width="40.5" height="12.3339844"/>
		<path d="M229.6665039,369.8339844l11.1669922,3.3330078c-2.7421875,19.140625-9.6767578,34.5185547-20.4428711,46.2460938
			l-6.6186523-11.7548828C221.5117188,399.2441406,228.175293,383.6503906,229.6665039,369.8339844z"/>
		<path d="M204,396l9.9165039-5.5c5.7338867,15.1757812,10.3168945,28.1347656,15.5834961,44l-10.1669922,5.1669922
			C213.9541016,423.4941406,209.5146484,410.8505859,204,396z"/>
	</g>
	<g>
		<rect x="200.5" y="261.5" width="40.125" height="9.75"/>
		<path d="M231.375,268.75l9.25,2.5c-2.5351562,18.7773438-10.1894531,35.5488281-21.0390625,46.8691406l-5.6777344-9.1308594
			C222.3632812,300.2646484,229.796875,283.3554688,231.375,268.75z"/>
		<path d="M204.75,295l8.25-4.25c5.6357422,14.8085938,10.4023438,28.296875,15.75,44.5l-8.5,4
			C214.8203125,322.8242188,210.1796875,309.5722656,204.75,295z"/>
	</g>
	<g>
		<rect x="200.6665039" y="162.1665039" width="39.75" height="7.1665039"/>
		<path d="M218.78125,216.8256836l-4.2338867-6.5805664c9.1708984-9.0322266,17.3754883-27.2558594,19.0395508-42.6503906
			l6.8295898,1.7382812C238.0878906,187.7460938,229.7143555,205.9116211,218.78125,216.8256836z"/>
		<path d="M205.6875,193.9506836l6.1240234-3.0683594c5.4863281,14.4614258,10.4101562,28.4741211,15.8383789,45.0141602
			l-6.300293,2.8730469C215.8696289,222.090332,211.0332031,208.2446289,205.6875,193.9506836z"/>
	</g>
	<g>
		<rect x="200.8330078" y="62.8334961" width="39.375" height="4.5830078"/>
		<path d="M217.9775391,115.5327148l-2.7900391-4.0297852c9.8867188-9.3408203,18.8613281-28.8798828,20.6123047-45.0625
			l4.4082031,0.9760742C238.0869141,85.4658203,228.9931641,105.0249023,217.9775391,115.5327148z"/>
		<path d="M206.6259766,92.9013672l3.9980469-1.8862305c5.3364258,14.1137695,10.4174805,28.6508789,15.9267578,45.5288086
			l-4.1015625,1.7451172C216.9189453,121.3569336,211.8867188,106.9169922,206.6259766,92.9013672z"/>
	</g>
	<g>
		<rect x="201" y="-36.5" width="39" height="2"/>
		<path d="M217.1728516,14.2392578l-1.3457031-1.4785156c10.6025391-9.6503906,20.3476562-30.5039062,22.1845703-47.4755859
			L240-34.5C238.0859375-16.8154297,228.2724609,4.1376953,217.1728516,14.2392578z"/>
		<path d="M223.5488281,37.8085938c-5.5800781-17.1855469-10.8085938-32.21875-15.984375-45.9560547l1.8710938-0.7050781
			c5.1875,13.7666016,10.4257812,28.828125,16.015625,46.0439453L223.5488281,37.8085938z"/>
	</g>
</g>
<g>
	<g>
		<g>
			<path d="M502.2255859,37.1875l-1.4511719-1.375c16.9521484-17.8916016,25.8564453-40.0390625,30.734375-76.4453125
				l1.9824219,0.265625C528.5527344-3.5058594,519.4941406,18.9638672,502.2255859,37.1875z"/>
		</g>
		<path d="M537.1123047,26.9599609c-9.6777344-18.6904297-20.3046875-36.4042969-29.9257812-49.8789062l1.6269531-1.1621094
			c9.6748047,13.5488281,20.3554688,31.3496094,30.0742188,50.1210938L537.1123047,26.9599609z"/>
	</g>
	<g>
		<path d="M530.5068359,58.5556641l4.4853516,0.8881836C530.1875,96,520.6240234,119.3242188,503.3544922,137.5727539
			l-2.8759766-3.8129883C516.8789062,116.0126953,525.8066406,93.8212891,530.5068359,58.5556641z"/>
		<path d="M536.09375,127.7998047c-9.6357422-18.4887695-20.5644531-36.6171875-30.3554688-50.315918l3.3554688-3.2182617
			c9.8818359,13.8505859,20.8730469,32.0424805,30.4785156,50.5175781L536.09375,127.7998047z"/>
	</g>
	<g>
		<path d="M529.5058594,157.7446289l6.9882812,1.5102539c-4.6699219,36.2509766-14.7402344,60.4306641-32.0097656,78.703125
			l-4.3017578-6.25C516.03125,214.1054688,524.9824219,191.8701172,529.5058594,157.7446289z"/>
		<path d="M535.0751953,228.640625c-9.5927734-18.2875977-20.8242188-36.8310547-30.7841797-50.7529297l5.0839844-5.2753906
			c10.0878906,14.1533203,21.3896484,32.7363281,30.8828125,50.9140625L535.0751953,228.640625z"/>
	</g>
	<g>
		<path d="M528.5039062,256.9335938l9.4921875,2.1328125c-4.5371094,35.9453125-15.1123047,60.9804688-32.3828125,79.2773438
			l-5.7265625-8.6875C515.1835938,312.1972656,524.1591797,289.9179688,528.5039062,256.9335938z"/>
		<path d="M534.0566406,329.4804688c-9.5507812-18.0859375-21.0839844-37.0439453-31.2128906-51.1894531l6.8125-7.3320312
			c10.2939453,14.4560547,21.90625,33.4296875,31.2871094,51.3105469L534.0566406,329.4804688z"/>
	</g>
	<g>
		<path d="M527.5019531,356.1220703l11.4951172,2.7548828c-4.4033203,35.640625-15.4833984,61.53125-32.7548828,79.8515625
			l-6.6513672-11.125C514.3359375,410.2890625,523.3349609,387.9658203,527.5019531,356.1220703z"/>
		<path d="M533.3710938,430.3203125c-9.5087891-17.8847656-21.34375-37.2568359-31.6425781-51.6269531l8.0419922-9.3876953
			c10.5,14.7587891,22.4228516,34.1230469,31.6914062,51.7070312L533.3710938,430.3203125z"/>
	</g>
	<g>
		<path d="M526.5009766,455.3115234l13.4980469,3.3769531c-4.2695312,35.3339844-15.8554688,62.0810547-33.1279297,80.4257812
			l-7.5751953-13.5615234C513.4873047,508.3818359,522.5117188,486.0136719,526.5009766,455.3115234z"/>
		<path d="M532.6855469,531.1601562c-9.4658203-17.6826172-21.6035156-37.4697266-32.0712891-52.0634766l9.2705078-11.4433594
			c10.7070312,15.0595703,22.9394531,34.8164062,32.0966797,52.1035156L532.6855469,531.1601562z"/>
	</g>
	<g>
		<path d="M525.5,554.5c-3.8125,29.5615234-12.8603516,51.9736328-26.5,69l8.5,16
			c17.2734375-18.3691406,29.3652344-45.9716797,33.5-81L525.5,554.5z"/>
		<path d="M532,632l10.5-13.5c-9.0449219-16.9902344-21.5878906-37.1376953-32.5-52.5l-10.5,13.5
			C510.1376953,594.3173828,522.5761719,614.5185547,532,632z"/>
	</g>
</g>
</svg>
