<?xml version="1.0" encoding="utf-8"?>
<!-- Generator: Adobe Illustrator 15.0.2, SVG Export Plug-In . SVG Version: 6.00 Build 0)  -->
<!DOCTYPE svg PUBLIC "-//W3C//DTD SVG 1.1//EN" "http://www.w3.org/Graphics/SVG/1.1/DTD/svg11.dtd">
<svg version="1.1" id="レイヤー1" xmlns="http://www.w3.org/2000/svg" xmlns:xlink="http://www.w3.org/1999/xlink" x="0px"
	 y="0px" width="841.8896484px" height="595.2753906px" viewBox="0 0 841.8896484 595.2753906"
	 enable-background="new 0 0 841.8896484 595.2753906" xml:space="preserve">
<g>
	<rect x="195.5" y="147.5" fill="none" stroke="#999999" stroke-width="0.1" width="50" height="100"/>
	<rect x="295.5" y="147.5" fill="none" stroke="#999999" stroke-width="0.1" width="50" height="100"/>
	<rect x="395.5" y="147.5" fill="none" stroke="#999999" stroke-width="0.1" width="50" height="100"/>
	<rect x="495.5" y="147.5" fill="none" stroke="#999999" stroke-width="0.1" width="50" height="100"/>
	<rect x="595.5" y="147.5" fill="none" stroke="#999999" stroke-width="0.1" width="50" height="100"/>
	<rect x="195.5" y="247.5" fill="none" stroke="#999999" stroke-width="0.1" width="50" height="100"/>
	<rect x="295.5" y="247.5" fill="none" stroke="#999999" stroke-width="0.1" width="50" height="100"/>
	<rect x="395.5" y="247.5" fill="none" stroke="#999999" stroke-width="0.1" width="50" height="100"/>
	<rect x="495.5" y="247.5" fill="none" stroke="#999999" stroke-width="0.1" width="50" height="100"/>
	<rect x="595.5" y="247.5" fill="none" stroke="#999999" stroke-width="0.1" width="50" height="100"/>
	<rect x="195.5" y="-52.5" fill="none" stroke="#999999" stroke-width="0.1" width="50" height="100"/>
	<rect x="295.5" y="-52.5" fill="none" stroke="#999999" stroke-width="0.1" width="50" height="100"/>
	<rect x="395.5" y="-52.5" fill="none" stroke="#999999" stroke-width="0.1" width="50" height="100"/>
	<rect x="495.5" y="-52.5" fill="none" stroke="#999999" stroke-width="0.1" width="50" height="100"/>
	<rect x="595.5" y="-52.5" fill="none" stroke="#999999" stroke-width="0.1" width="50" height="100"/>
	<rect x="195.5" y="47.5" fill="none" stroke="#999999" stroke-width="0.1" width="50" height="100"/>
	<rect x="295.5" y="47.5" fill="none" stroke="#999999" stroke-width="0.1" width="50" height="100"/>
	<rect x="395.5" y="47.5" fill="none" stroke="#999999" stroke-width="0.1" width="50" height="100"/>
	<rect x="495.5" y="47.5" fill="none" stroke="#999999" stroke-width="0.1" width="50" height="100"/>
	<rect x="595.5" y="47.5" fill="none" stroke="#999999" stroke-width="0.1" width="50" height="100"/>
	<rect x="195.5" y="347.5" fill="none" stroke="#999999" stroke-width="0.1" width="50" height="100"/>
	<rect x="295.5" y="347.5" fill="none" stroke="#999999" stroke-width="0.1" width="50" height="100"/>
	<rect x="395.5" y="347.5" fill="none" stroke="#999999" stroke-width="0.1" width="50" height="100"/>
	<rect x="495.5" y="347.5" fill="none" stroke="#999999" stroke-width="0.1" width="50" height="100"/>
	<rect x="595.5" y="347.5" fill="none" stroke="#999999" stroke-width="0.1" width="50" height="100"/>
	<rect x="195.5" y="447.5" fill="none" stroke="#999999" stroke-width="0.1" width="50" height="100"/>
	<rect x="295.5" y="447.5" fill="none" stroke="#999999" stroke-width="0.1" width="50" height="100"/>
	<rect x="395.5" y="447.5" fill="none" stroke="#999999" stroke-width="0.1" width="50" height="100"/>
	<rect x="495.5" y="447.5" fill="none" stroke="#999999" stroke-width="0.1" width="50" height="100"/>
	<rect x="595.5" y="447.5" fill="none" stroke="#999999" stroke-width="0.1" width="50" height="100"/>
	<rect x="195.5" y="547.5" fill="none" stroke="#999999" stroke-width="0.1" width="50" height="100"/>
	<rect x="295.5" y="547.5" fill="none" stroke="#999999" stroke-width="0.1" width="50" height="100"/>
	<rect x="395.5" y="547.5" fill="none" stroke="#999999" stroke-width="0.1" width="50" height="100"/>
	<rect x="495.5" y="547.5" fill="none" stroke="#999999" stroke-width="0.1" width="50" height="100"/>
	<rect x="595.5" y="547.5" fill="none" stroke="#999999" stroke-width="0.1" width="50" height="100"/>
</g>
<g>
	<path d="M639.609375,5.7070312C630.0449219-1.6367188,619.9160156-7.9433594,611-12.1269531V-42.5h-2v80h2V-9.9052734
		c8.5820312,4.1220703,18.2373047,10.1708984,27.390625,17.1982422L639.609375,5.7070312z"/>
	<path d="M640.2392578,104.3876953c-9.1582031-6.9692383-18.8935547-13.0151367-27.5732422-17.1435547V57.1665039h-4.5830078
		v80.6665039h4.5830078v-45.34375c8.1113281,3.9995117,17.0966797,9.6484375,25.59375,16.1225586L640.2392578,104.3876953z"/>
	<path d="M640.8701172,203.0693359c-8.7519531-6.5957031-18.0927734-12.3803711-26.5361328-16.4541016v-29.7822266h-7.1669922
		v81.3339844h7.1669922v-43.2822266c7.6396484,3.8769531,15.9550781,9.125,23.7958984,15.0458984L640.8701172,203.0693359z"/>
	<path d="M641.5,301.75c-8.3457031-6.2207031-17.2919922-11.7451172-25.5-15.7636719V256.5h-9.75v82H616v-41.2207031
		c7.1699219,3.7548828,14.8144531,8.6025391,22,13.9707031L641.5,301.75z"/>
	<path d="M642,400.5c-8.0078125-5.8974609-16.640625-11.2050781-24.6669922-15.1757812v-29.1582031H605.5v82.6669922h11.8330078
		v-39.3134766c6.9248047,3.6826172,14.2041016,8.2998047,21,13.3134766L642,400.5z"/>
	<path d="M642.5,499.25c-7.6699219-5.5732422-15.9882812-10.6640625-23.8330078-14.5878906v-28.8291016H604.75v83.3339844
		h13.9169922v-37.4072266c6.6787109,3.6113281,13.5947266,7.9970703,19.9990234,12.6572266L642.5,499.25z"/>
	<path d="M643,598c-7.3320312-5.2490234-15.3359375-10.1230469-23-14v-28.5h-16v84h16V604
		c6.4326172,3.5390625,12.9853516,7.6943359,19,12L643,598z"/>
</g>
<g>
	<g>
		<path d="M202.8798828-0.0253906l-1.7597656-0.9492188c6.3164062-11.7109375,9.9775391-26.3730469,10.8808594-43.578125
			l1.9980469,0.1054688C213.0791016-26.9453125,209.3378906-11.9990234,202.8798828-0.0253906z"/>
		<path d="M204.8164062,35.4482422l-0.6328125-1.8964844C226.2421875,26.1982422,235.3486328,7.0351562,235.4980469-32.5H212v-2
			h25.5v1C237.5,7.734375,228.03125,27.7099609,204.8164062,35.4482422z"/>
		<path d="M231.7714844,4.6855469c-5.9765625-6.3486328-12.6914062-12.7197266-19.4179688-18.4228516l1.2929688-1.5253906
			c6.7832031,5.7509766,13.5546875,12.1748047,19.5820312,18.5771484L231.7714844,4.6855469z"/>
	</g>
	<g>
		<path d="M200.5996094,98.4375c5.949707-11.4975586,9.5039062-26.3798828,10.3173828-43.3149414l4.3320312,0.2543945
			c-0.8334961,18.3037109-4.5288086,33.5634766-10.9326172,45.7685547L200.5996094,98.4375z"/>
		<path d="M211.8330078,69.5v-4.5004883h26.25v1.3334961c0,43.015625-9.0830078,61.9306641-31.9863281,69.9570312
			l-1.5273438-4.4140625C224.9785156,124.671875,233.4570312,106.8657227,233.581543,69.5H211.8330078z"/>
		<path d="M214.9306641,85.324707c6.4545898,5.4975586,12.8603516,11.5874023,18.5546875,17.6347656l-2.7211914,3.6640625
			c-5.6875-6.034668-12.0844727-12.1191406-18.4453125-17.5322266L214.9306641,85.324707z"/>
	</g>
	<g>
		<path d="M200.0800781,197.8505859c5.5830078-11.2841797,9.0292969-26.3867188,9.7539062-43.0522461L216.5,155.2016602
			c-0.7470703,19.1054688-4.3964844,34.6791992-10.7470703,47.1147461L200.0800781,197.8505859z"/>
		<path d="M211.6665039,171.5v-7h27v1.6669922c0,44.796875-8.6977539,62.6503906-31.2890625,70.965332l-2.421875-6.9311523
			c18.7602539-7.0556641,26.6098633-23.5048828,26.7094727-58.7011719H211.6665039z"/>
		<path d="M216.215332,185.9121094c6.1264648,5.2441406,12.1655273,11.0009766,17.5273438,16.6923828l-3.9858398,5.9570312
			c-5.3984375-5.7197266-11.4765625-11.5180664-17.4726562-16.640625L216.215332,185.9121094z"/>
	</g>
	<g>
		<path d="M199.5605469,297.2626953c5.2158203-11.0703125,8.5546875-26.3935547,9.1894531-42.7890625l9,0.5527344
			c-0.6601562,19.9072266-4.2636719,35.7939453-10.5605469,48.4609375L199.5605469,297.2626953z"/>
		<path d="M211.5,273.5V264h27.75v2c0,46.578125-8.3125,63.3710938-30.5917969,71.9746094l-3.3164062-9.4492188
			c17.1113281-6.90625,24.3320312-21.9980469,24.4072266-55.0253906H211.5z"/>
		<path d="M217.5,286.5c5.7978516,4.9902344,11.4707031,10.4140625,16.5,15.75l-5.25,8.25
			c-5.109375-5.40625-10.8701172-10.9179688-16.5-15.75L217.5,286.5z"/>
	</g>
</g>
<g>
	<g>
		<path d="M199.0400391,396.6748047c4.8491211-10.8564453,8.0810547-26.4003906,8.6264648-42.5263672L218.5,354.8505859
			c-0.5742188,20.7089844-4.1318359,36.9091797-10.3740234,49.8076172L199.0400391,396.6748047z"/>
		<path d="M211.3330078,375.5v-12h28.5v2.3330078c0,48.359375-7.9267578,64.0908203-29.8945312,72.9833984l-3.7109375-11.9667969
			c15.4628906-6.7578125,22.0546875-20.4921875,22.1044922-51.3496094H211.3330078z"/>
		<path d="M214.9995117,384.1660156c6.0058594,5.2207031,11.8383789,10.8359375,17,16.3339844l-5,11
			c-5.2768555-5.5986328-11.2324219-11.3408203-17-16.3339844L214.9995117,384.1660156z"/>
	</g>
	<g>
		<path d="M198.5200195,496.0878906c4.4829102-10.6435547,7.6074219-26.4082031,8.0629883-42.2636719L219.25,454.6757812
			c-0.4873047,21.5097656-3.9990234,38.0244141-10.1870117,51.1533203L198.5200195,496.0878906z"/>
		<path d="M211.1665039,477.5V463h29.25v2.6660156c0,50.140625-7.5410156,64.8115234-29.1972656,73.9921875l-4.1054688-14.4833984
			c13.8139648-6.609375,19.7773438-18.9863281,19.8022461-47.6748047H211.1665039z"/>
		<path d="M215.5,484.8330078c6.2138672,5.4501953,12.2050781,11.2578125,17.5,16.9169922l-4.75,13.75
			c-5.4448242-5.7910156-11.5957031-11.7636719-17.5-16.9169922L215.5,484.8330078z"/>
	</g>
	<g>
		<path d="M198,595.5c4.1162109-10.4296875,7.1337891-26.4150391,7.5-42l14.5,1c-0.4003906,22.3125-3.8662109,39.140625-10,52.5
			L198,595.5z"/>
		<path d="M211,579.5v-17h30v3c0,51.9208984-7.1552734,65.53125-28.5,75l-4.5-17c12.1650391-6.4609375,17.5-17.4804688,17.5-44H211z
			"/>
		<path d="M216,585.5c6.421875,5.6787109,12.5722656,11.6796875,18,17.5l-4.5,16.5
			c-5.6123047-5.9833984-11.9580078-12.1855469-18-17.5L216,585.5z"/>
	</g>
</g>
<g>
	<g>
		<path d="M305-29.5v-2c12.9423828,0,21.7539062-2.5527344,30.4140625-8.8105469l1.171875,1.6210938
			C327.5537109-32.1621094,318.4023438-29.5,305-29.5z"/>
		<rect x="300" y="-5.5" width="41" height="2"/>
		<path d="M307.9697266,36.3828125l-0.9394531-1.765625C317.1728516,29.2167969,321.5,16.0224609,321.5-9.5V-33h2v23.5
			C323.5,16.8642578,318.8554688,30.5869141,307.9697266,36.3828125z"/>
	</g>
	<g>
		<path d="M335.4423828,58.6259766l1.6142578,4.1640625c-8.9804688,6.2504883-18.7617188,9.0429688-32.2236328,9.0429688v-4.5
			C317.2314453,67.3330078,326.5898438,64.6499023,335.4423828,58.6259766z"/>
		<rect x="299.7495117" y="93.6665039" width="41.5004883" height="4.5"/>
		<path d="M308.4379883,137.0883789l-2.0429688-4.2607422c9.543457-5.0375977,13.7299805-16.7158203,13.7299805-41.9946289
			V66.9160156h4.5v23.9169922C324.625,118.1264648,319.5249023,131.4179688,308.4379883,137.0883789z"/>
	</g>
	<g>
		<path d="M335.4716797,157.5629883l2.0566406,6.7075195c-8.9287109,5.9736328-19.3408203,8.8959961-32.8618164,8.8959961
			v-6.9995117C316.5214844,166.1669922,326.4267578,163.3530273,335.4716797,157.5629883z"/>
		<rect x="299.5" y="192.8334961" width="42" height="6.9995117"/>
		<path d="M308.90625,237.7944336l-3.1459961-6.7553711C314.7041016,226.3637695,318.75,216.2021484,318.75,191.1669922v-24.3339844
			h7v24.3339844C325.75,219.3886719,320.1953125,232.25,308.90625,237.7944336z"/>
	</g>
	<g>
		<path d="M335.5,256.5l2.5,9.25c-8.8769531,5.6972656-19.9199219,8.75-33.5,8.75V265
			C315.8105469,265,326.2626953,262.0556641,335.5,256.5z"/>
		<rect x="299.25" y="292" width="42.5" height="9.5"/>
		<path d="M326.875,291.5c0,29.1513672-6.0097656,41.5810547-17.5,47l-4.25-9.25c8.3447266-4.3125,12.25-12.9580078,12.25-37.75
			v-24.75h9.5V291.5z"/>
	</g>
	<g>
		<path d="M335.6665039,355.5l2.6665039,11.6660156c-8.7578125,5.5234375-20.3603516,8.6669922-34,8.6669922v-12
			C315.5932617,363.8330078,326.765625,360.7773438,335.6665039,355.5z"/>
		<rect x="298.9995117" y="391.1660156" width="43.0004883" height="12"/>
		<path d="M327.9165039,391.8330078c0,29.6572266-6.1000977,41.9423828-18.0004883,47.3330078L304.8330078,427.5
			c8.0878906-4.1269531,11.5834961-11.7949219,11.5834961-35.6669922v-25.1669922h11.5V391.8330078z"/>
	</g>
	<g>
		<path d="M335.8330078,454.5l2.8334961,14.0830078c-8.6386719,5.3496094-20.800293,8.5839844-34.4995117,8.5839844v-14.5
			C315.3764648,462.6669922,327.2685547,459.4980469,335.8330078,454.5z"/>
		<rect x="298.75" y="490.3330078" width="43.5" height="14.5"/>
		<path d="M328.9580078,492.1660156c0,30.1640625-6.1894531,42.3037109-18.5,47.6669922L304.5419922,525.75
			c7.8305664-3.9404297,10.9165039-10.6308594,10.9165039-33.5839844v-25.5820312h13.4995117V492.1660156z"/>
	</g>
	<g>
		<path d="M336,553.5c-8.2285156,4.7197266-20.8408203,8-32,8v17c13.7587891,0,26.4804688-3.3251953,35-8.5L336,553.5z"/>
		<rect x="298.5" y="589.5" width="44" height="17"/>
		<path d="M330,592.5v-26h-15.5v26c0,22.0332031-2.6757812,27.7460938-10.25,31.5l6.75,16.5
			C323.7207031,635.1640625,330,623.1699219,330,592.5z"/>
	</g>
</g>
<g>
	<g>
		<path d="M406.0078125-0.3759766c-1.6416016-13.1679688-3.0703125-23.6455078-4.4960938-32.9726562l1.9765625-0.3027344
			c1.4296875,9.3466797,2.8603516,19.8408203,4.5039062,33.0273438L406.0078125-0.3759766z"/>
		<path d="M420.0068359-2.3857422c-1.3564453-11.7490234-2.9951172-24.4960938-4.4970703-34.9726562l1.9804688-0.2832031
			c1.5029297,10.4931641,3.1445312,23.2607422,4.5029297,35.0273438L420.0068359-2.3857422z"/>
		<path d="M409.3974609,35.4179688l-0.7949219-1.8359375C426.6660156,25.7578125,436.7001953,12.1074219,438-37.5263672l2,0.0527344
			C438.8183594,7.6240234,431.0966797,26.0175781,409.3974609,35.4179688z"/>
	</g>
	<g>
		<path d="M400.7578125,66.4335938l4.2338867-0.9511719c1.4057617,9.4697266,2.8388672,20.2304688,4.4194336,33.1054688
			l-4.2397461,0.9067383C403.6010742,86.6733398,402.1743164,75.9658203,400.7578125,66.4335938z"/>
		<path d="M414.9228516,62.5942383l4.237793-0.9350586c1.4658203,10.4628906,3.0717773,23.1259766,4.418457,34.8564453
			l-4.2412109,0.8891602C417.9970703,85.7368164,416.3945312,73.1201172,414.9228516,62.5942383z"/>
		<path d="M436.1660156,61.8984375l4.4169922,0.2021484c-0.9912109,46.3764648-9.4628906,64.7441406-30.7353516,73.8447266
			l-1.6962891-4.390625C425.8671875,123.7675781,435.0917969,109.7207031,436.1660156,61.8984375z"/>
	</g>
	<g>
		<path d="M400.0039062,166.2167969l6.4921875-1.6005859c1.3818359,9.59375,2.8164062,20.6210938,4.3349609,33.1845703
			l-6.4951172,1.5649414C402.8364258,186.8916016,401.4121094,175.953125,400.0039062,166.2167969z"/>
		<path d="M414.3369141,162.546875l6.4941406-1.5864258c1.4287109,10.4331055,2.9990234,22.9907227,4.3349609,34.6850586
			l-6.4970703,1.550293C417.3447266,185.6083984,415.7783203,173.1220703,414.3369141,162.546875z"/>
		<path d="M434.3330078,161.3242188l6.8330078,0.3515625c-0.8007812,47.6542969-10.0224609,65.996582-30.8671875,74.796875
			l-2.5981445-6.9453125C425.0693359,221.7783203,433.484375,207.3344727,434.3330078,161.3242188z"/>
	</g>
	<g>
		<path d="M399.25,266l8.75-2.25c1.3574219,9.7167969,2.7949219,21.0117188,4.25,33.2636719l-8.75,2.2226562
			C402.0712891,287.109375,400.6494141,275.9404297,399.25,266z"/>
		<path d="M413.75,262.5l8.7519531-2.2382812c1.3916016,10.4023438,2.9257812,22.8554688,4.25,34.5136719L418,296.9863281
			C416.6914062,285.4804688,415.1611328,273.1240234,413.75,262.5z"/>
		<path d="M432.5,260.75l9.25,0.5c-0.6113281,48.9335938-10.5830078,67.25-31,75.75l-3.5-9.5
			C424.2714844,319.7890625,431.8759766,304.9482422,432.5,260.75z"/>
	</g>
</g>
<g>
	<path d="M398.25,365.8330078L408.4584961,363c1.3325195,9.8398438,2.7744141,21.4013672,4.1665039,33.3427734
		l-10.2084961,2.8154297C401.059082,387.3789062,399.6401367,375.9785156,398.25,365.8330078z"/>
	<path d="M412.9169922,362.5l10.2099609-2.8261719c1.3535156,10.3730469,2.8525391,22.7207031,4.1660156,34.3427734
		l-10.2094727,2.8076172C415.7919922,385.3994141,414.2978516,373.1728516,412.9169922,362.5z"/>
	<path d="M431.4169922,360.1669922l11.1669922,0.6669922c-0.4082031,49.0996094-10.5654297,68.2109375-31.1669922,76.6660156
		L407.25,425.3330078C423.6992188,417.8505859,431,403.2841797,431.4169922,360.1669922z"/>
</g>
<g>
	<path d="M397.75,465.6660156L409.4169922,462.25c1.3076172,9.9628906,2.7539062,21.7910156,4.0830078,33.421875
		l-11.6669922,3.4072266C400.546875,487.6474609,399.1308594,476.0166016,397.75,465.6660156z"/>
	<path d="M412.5834961,462.5l11.6674805-3.4130859c1.3154297,10.3427734,2.7802734,22.5859375,4.0830078,34.1708984
		l-11.6669922,3.4042969C415.3920898,485.3183594,413.9345703,473.2216797,412.5834961,462.5z"/>
	<path d="M429.8339844,459.5839844l13.0830078,0.8330078C442.7128906,509.6845703,432.3701172,529.5898438,411.5834961,538
		L406.75,523.1660156C422.6279297,515.9121094,429.625,501.6201172,429.8339844,459.5839844z"/>
</g>
<g>
	<path d="M397,565.5c1.3710938,10.5546875,2.7851562,22.4160156,4,33.5l12-4c-1.265625-11.3183594-2.7167969-23.4140625-4-33.5
		L397,565.5z"/>
	<path d="M412,562.5c1.3212891,10.7705078,2.7421875,22.7373047,4,34l12-4c-1.2910156-11.5488281-2.7216797-23.6875-4-34L412,562.5z
		"/>
	<path d="M428.5,559c0,40.9560547-6.6933594,54.9726562-22,62l5.5,17.5c20.9716797-8.3652344,31.5-29.0654297,31.5-78.5L428.5,559z"
		/>
</g>
<g>
	<g>
		<rect x="505.5" y="-37.5" width="30" height="2"/>
		<path d="M500-10.5v2h21.5c0,24.1992188-3.9472656,35.9003906-14.5654297,43.1748047l1.1308594,1.6503906
			C519.3164062,28.6162109,523.5,16.4677734,523.5-8.5H541v-2H500z"/>
	</g>
	<g>
		<rect x="505.3330078" y="61.6660156" width="30.3330078" height="4.5004883"/>
		<path d="M520.0830078,93.1665039c0,22.7290039-3.9130859,33.2958984-13.7939453,39.7832031l2.3378906,4.1000977
			c11.203125-7.0297852,15.9560547-18.9960938,15.9560547-43.8833008H541.25v-4.5004883h-41.5v4.5004883H520.0830078z"/>
	</g>
	<g>
		<rect x="505.1669922" y="160.8330078" width="30.6660156" height="7.0004883"/>
		<path d="M518.6669922,194.8334961c0,21.2583008-3.8789062,30.6914062-13.0224609,36.3916016l3.5439453,6.550293
			c11.15625-6.3510742,16.4785156-18.1347656,16.4785156-42.9418945H541.5v-7.0004883h-42v7.0004883H518.6669922z"/>
	</g>
	<g>
		<rect x="505" y="260" width="31" height="9.5"/>
		<path d="M517.25,296.5c0,19.7880859-3.8447266,28.0869141-12.25,33l4.75,9c11.1083984-5.671875,17-17.2734375,17-42h15V287h-42.5
			v9.5H517.25z"/>
	</g>
	<g>
		<rect x="504.8330078" y="359.1660156" width="31.3330078" height="12"/>
		<path d="M516.1660156,398.1660156c0,17.8476562-3.6035156,25.1923828-11.5830078,29.5l5.5,11.5
			c11.3730469-5.1513672,17.5830078-16.75,17.5830078-41H542v-12h-43v12H516.1660156z"/>
	</g>
	<g>
		<rect x="504.6669922" y="458.3339844" width="31.6669922" height="14.4990234"/>
		<path d="M515.0839844,499.8330078c0,15.90625-3.3652344,22.2978516-10.9169922,26l6.2490234,14
			c11.6386719-4.6308594,18.1669922-16.2265625,18.1669922-40H542.25v-14.4990234h-43.5v14.4990234H515.0839844z"/>
	</g>
	<g>
		<rect x="504.5" y="557.5" width="32" height="17"/>
		<path d="M514,601.5c0,13.9648438-3.1240234,19.4023438-10.25,22.5l7,16.5c11.9023438-4.1113281,18.75-15.7041016,18.75-39h13v-17
			h-44v17H514z"/>
	</g>
</g>
</svg>
