<?xml version="1.0" encoding="utf-8"?>
<!-- Generator: Adobe Illustrator 15.0.2, SVG Export Plug-In . SVG Version: 6.00 Build 0)  -->
<!DOCTYPE svg PUBLIC "-//W3C//DTD SVG 1.1//EN" "http://www.w3.org/Graphics/SVG/1.1/DTD/svg11.dtd">
<svg version="1.1" id="レイヤー1" xmlns="http://www.w3.org/2000/svg" xmlns:xlink="http://www.w3.org/1999/xlink" x="0px"
	 y="0px" width="841.8896484px" height="595.2753906px" viewBox="0 0 841.8896484 595.2753906"
	 enable-background="new 0 0 841.8896484 595.2753906" xml:space="preserve">
<g>
	<rect x="195.5" y="147.5" fill="none" stroke="#999999" stroke-width="0.1" width="50" height="100"/>
	<rect x="295.5" y="147.5" fill="none" stroke="#999999" stroke-width="0.1" width="50" height="100"/>
	<rect x="395.5" y="147.5" fill="none" stroke="#999999" stroke-width="0.1" width="50" height="100"/>
	<rect x="495.5" y="147.5" fill="none" stroke="#999999" stroke-width="0.1" width="50" height="100"/>
	<rect x="595.5" y="147.5" fill="none" stroke="#999999" stroke-width="0.1" width="50" height="100"/>
	<rect x="195.5" y="247.5" fill="none" stroke="#999999" stroke-width="0.1" width="50" height="100"/>
	<rect x="295.5" y="247.5" fill="none" stroke="#999999" stroke-width="0.1" width="50" height="100"/>
	<rect x="395.5" y="247.5" fill="none" stroke="#999999" stroke-width="0.1" width="50" height="100"/>
	<rect x="495.5" y="247.5" fill="none" stroke="#999999" stroke-width="0.1" width="50" height="100"/>
	<rect x="595.5" y="247.5" fill="none" stroke="#999999" stroke-width="0.1" width="50" height="100"/>
	<rect x="195.5" y="-52.5" fill="none" stroke="#999999" stroke-width="0.1" width="50" height="100"/>
	<rect x="295.5" y="-52.5" fill="none" stroke="#999999" stroke-width="0.1" width="50" height="100"/>
	<rect x="395.5" y="-52.5" fill="none" stroke="#999999" stroke-width="0.1" width="50" height="100"/>
	<rect x="495.5" y="-52.5" fill="none" stroke="#999999" stroke-width="0.1" width="50" height="100"/>
	<rect x="595.5" y="-52.5" fill="none" stroke="#999999" stroke-width="0.1" width="50" height="100"/>
	<rect x="195.5" y="47.5" fill="none" stroke="#999999" stroke-width="0.1" width="50" height="100"/>
	<rect x="295.5" y="47.5" fill="none" stroke="#999999" stroke-width="0.1" width="50" height="100"/>
	<rect x="395.5" y="47.5" fill="none" stroke="#999999" stroke-width="0.1" width="50" height="100"/>
	<rect x="495.5" y="47.5" fill="none" stroke="#999999" stroke-width="0.1" width="50" height="100"/>
	<rect x="595.5" y="47.5" fill="none" stroke="#999999" stroke-width="0.1" width="50" height="100"/>
	<rect x="195.5" y="347.5" fill="none" stroke="#999999" stroke-width="0.1" width="50" height="100"/>
	<rect x="295.5" y="347.5" fill="none" stroke="#999999" stroke-width="0.1" width="50" height="100"/>
	<rect x="395.5" y="347.5" fill="none" stroke="#999999" stroke-width="0.1" width="50" height="100"/>
	<rect x="495.5" y="347.5" fill="none" stroke="#999999" stroke-width="0.1" width="50" height="100"/>
	<rect x="595.5" y="347.5" fill="none" stroke="#999999" stroke-width="0.1" width="50" height="100"/>
	<rect x="195.5" y="447.5" fill="none" stroke="#999999" stroke-width="0.1" width="50" height="100"/>
	<rect x="295.5" y="447.5" fill="none" stroke="#999999" stroke-width="0.1" width="50" height="100"/>
	<rect x="395.5" y="447.5" fill="none" stroke="#999999" stroke-width="0.1" width="50" height="100"/>
	<rect x="495.5" y="447.5" fill="none" stroke="#999999" stroke-width="0.1" width="50" height="100"/>
	<rect x="595.5" y="447.5" fill="none" stroke="#999999" stroke-width="0.1" width="50" height="100"/>
	<rect x="195.5" y="547.5" fill="none" stroke="#999999" stroke-width="0.1" width="50" height="100"/>
	<rect x="295.5" y="547.5" fill="none" stroke="#999999" stroke-width="0.1" width="50" height="100"/>
	<rect x="395.5" y="547.5" fill="none" stroke="#999999" stroke-width="0.1" width="50" height="100"/>
	<rect x="495.5" y="547.5" fill="none" stroke="#999999" stroke-width="0.1" width="50" height="100"/>
	<rect x="595.5" y="547.5" fill="none" stroke="#999999" stroke-width="0.1" width="50" height="100"/>
</g>
<g>
	<path d="M538.5068359-7.6162109C535.7744141,16.3652344,523.8994141,32.1875,508,33.4130859V-39.5h-2v75
		c17.984375,0,31.5244141-16.8349609,34.4941406-42.8896484L538.5068359-7.6162109z"/>
	<path d="M536.5878906,90.7558594c-2.8164062,22.8891602-13.1748047,37.4829102-26.671875,39.519043V59.8330078h-4.5830078V136
		c18.3974609,0,32.2050781-15.8740234,35.6630859-44.0932617L536.5878906,90.7558594z"/>
	<path d="M534.6689453,189.1279297c-2.9003906,21.7978516-11.7412109,35.1625977-22.8359375,38.0097656v-67.9707031h-7.1669922
		V236.5c18.8095703,0,32.8867188-14.9121094,36.8320312-45.2963867L534.6689453,189.1279297z"/>
	<path d="M532.75,287.5c-2.984375,20.7060547-10.3085938,32.8417969-19,36.5v-65.5H504V337
		c19.2216797,0,33.5664062-13.9511719,38-46.5L532.75,287.5z"/>
	<path d="M531.6660156,385.5c-3.0253906,19.7773438-9.1826172,31.046875-16.5,35.1660156v-62.8330078h-11.8330078V437.5
		c20.1923828,0,34.3457031-13.6894531,39.1669922-47.6669922L531.6660156,385.5z"/>
	<path d="M530.5830078,483.5c-3.0673828,18.8486328-8.0576172,29.2519531-14,33.8330078v-60.1669922h-13.9160156V538
		C523.8300781,538,537.7910156,524.5732422,543,489.1669922L530.5830078,483.5z"/>
	<path d="M529.5,581.5c-3.1083984,17.9199219-6.9326172,27.4570312-11.5,32.5v-57.5h-16v82
		c22.1337891,0,35.9033203-13.1650391,41.5-50L529.5,581.5z"/>
</g>
<g>
	<polygon points="639,31.5 604,31.5 604,29.5 637,29.5 637,-34.5 604,-34.5 604,31.5 602,31.5 602,-36.5 639,-36.5 	"/>
	<polygon points="606.1660156,127.6665039 634.8330078,127.6665039 634.8330078,67.3330078 606.1660156,67.3330078 
		606.1660156,132.1660156 601.6660156,132.1660156 601.6660156,62.8330078 639.3330078,62.8330078 639.3330078,132.1660156 
		606.1660156,132.1660156 	"/>
	<polygon points="608.3330078,225.8330078 632.6669922,225.8330078 632.6669922,169.1669922 608.3330078,169.1669922 
		608.3330078,232.8330078 601.3339844,232.8330078 601.3339844,162.1669922 639.6669922,162.1669922 639.6669922,232.8330078 
		608.3330078,232.8330078 	"/>
	<polygon points="610.5,324 630.5,324 630.5,271 610.5,271 610.5,333.5 601,333.5 601,261.5 640,261.5 640,333.5 610.5,333.5 	"/>
	<polygon points="612.1660156,422.1660156 628.8330078,422.1660156 628.8330078,372.8330078 612.1660156,372.8330078 
		612.1660156,434.1660156 600.6660156,434.1660156 600.6660156,360.8330078 640.3330078,360.8330078 640.3330078,434.1660156 
		612.1660156,434.1660156 	"/>
	<polygon points="613.8330078,520.3330078 627.1660156,520.3330078 627.1660156,474.6669922 613.8330078,474.6669922 
		613.8330078,534.8339844 600.3330078,534.8339844 600.3330078,460.1660156 640.6669922,460.1660156 640.6669922,534.8339844 
		613.8330078,534.8339844 	"/>
	<polygon points="615.5,618.5 625.5,618.5 625.5,576.5 615.5,576.5 615.5,635.5 600,635.5 600,559.5 641,559.5 641,635.5 
		615.5,635.5 	"/>
</g>
<g>
	<g>
		<rect x="204.5" y="-37.5" width="32" height="2"/>
		<path d="M201.5-12.5v2h36.4755859c-0.4716797,24.4550781-9.6494141,38.7998047-28.7919922,45.0507812l0.6210938,1.9013672
			C230.4052734,29.7246094,240,14.1699219,240-12.5H201.5z"/>
	</g>
	<g>
		<rect x="204.1665039" y="61.6660156" width="32.6665039" height="4.5004883"/>
		<path d="M201.25,86.9165039v4.4995117h33.9833984c-0.6513672,22.605957-9.3378906,35.4951172-27.027832,41.1176758
			l1.4140625,4.434082c20.7504883-6.4160156,30.4633789-21.6777344,30.4633789-50.0512695H201.25z"/>
	</g>
	<g>
		<rect x="203.8334961" y="160.8330078" width="33.3334961" height="7.0004883"/>
		<path d="M201,186.3330078v7h31.4921875c-0.8310547,20.7558594-9.0273438,32.1899414-25.2646484,37.1835938l2.2070312,6.9677734
			c20.9013672-6.1044922,30.7324219-21.0742188,30.7324219-51.1513672H201z"/>
	</g>
	<g>
		<rect x="203.5" y="260" width="34" height="9.5"/>
		<path d="M200.75,285.75v9.5h29c-1.0097656,18.90625-8.7158203,28.8847656-23.5,33.25l3,9.5
			c21.0507812-5.7919922,31-20.4697266,31-52.25H200.75z"/>
	</g>
	<g>
		<rect x="203.1665039" y="359.1660156" width="34.6665039" height="12"/>
		<path d="M200.5,385.1660156v12h27C226.324707,413.9648438,219.2529297,422.6875,205.6660156,426.5l3.3334961,12
			c21.2783203-5.5019531,31.3334961-20.3212891,31.3334961-53.3339844H200.5z"/>
	</g>
	<g>
		<rect x="202.8330078" y="458.3339844" width="35.3334961" height="14.4990234"/>
		<path d="M200.25,484.5830078v14.5009766h25c-1.340332,14.6904297-7.7773438,22.1572266-20.1669922,25.4160156L208.75,539
			c21.5048828-5.2109375,31.6669922-20.1728516,31.6669922-54.4169922H200.25z"/>
	</g>
	<g>
		<rect x="202.5" y="557.5" width="36" height="17"/>
		<path d="M200,584v17h23c-1.5058594,12.5839844-7.3085938,18.7939453-18.5,21.5l4,17c21.7324219-4.9199219,32-20.0244141,32-55.5
			H200z"/>
	</g>
</g>
<g>
	<g>
		<path d="M400.6904297,35.2226562l-1.3808594-1.4453125C406.8300781,26.5908203,409.5,17.4619141,409.5-19.5v-19h2v19
			C411.5,18.1875,408.6679688,27.6005859,400.6904297,35.2226562z"/>
		<path d="M443.5-7.5c0,26.9160156-10.9316406,43-21.5,43v-74h2v71.7568359C432.7597656,31.2226562,441.5,16.0302734,441.5-7.5
			H443.5z"/>
	</g>
	<g>
		<path d="M407.9160156,80.1152344V60.7822266h4.5004883v19.3330078c0,38.1796875-2.7612305,47.8740234-10.706543,55.9589844
			l-3.0039062-3.8798828C405.6269531,124.7402344,407.9160156,116.4174805,407.9160156,80.1152344z"/>
		<path d="M439.5,92.0087891l4.25,0.4169922c0,28.9453125-10.3730469,43.6064453-22.5834961,43.6064453v-75.25h4.4165039v69.0649414
			C432.7470703,126.762207,439.5,112.9042969,439.5,92.0087891z"/>
	</g>
	<g>
		<path d="M406.3330078,179.5458984v-19.6665039h7.0004883v19.6665039c0,38.671875-2.6899414,48.6474609-10.6030273,57.1948242
			l-4.6274414-6.3149414C404.4238281,222.7050781,406.3330078,215.1875,406.3330078,179.5458984z"/>
		<path d="M437.5,191.3330078l6.5,0.8339844c0,30.9746094-9.8144531,44.2128906-23.6665039,44.2128906v-76.5004883h6.8334961
			v66.3730469C432.7353516,222.1162109,437.5,209.5927734,437.5,191.3330078z"/>
	</g>
	<g>
		<path d="M404.75,279.0693359v-20h9.5v20c0,39.1630859-2.6191406,49.4199219-10.5,58.4306641l-6.25-8.75
			C403.2207031,320.7617188,404.75,314.0507812,404.75,279.0693359z"/>
		<path d="M435.5,290.75c0,15.6240234-2.7773438,26.8134766-6.75,32v-63.6806641h-9.25v77.75
			c15.4941406,0,24.75-11.8154297,24.75-44.8193359L435.5,290.75z"/>
	</g>
	<g>
		<path d="M403.5,378.5458984v-20.3330078h11v20.3330078c0,39.8535156-2.5595703,50.2333984-10.3334961,59.6201172L396.9995117,427
			C402.2666016,418.9667969,403.5,413.21875,403.5,378.5458984z"/>
		<path d="M444.5,391.8330078c0,34.8662109-8.5439453,45.3798828-25.3334961,45.3798828v-79h10.6665039V421
			c3.1845703-4.3798828,5.5-14.5693359,5.5-30.8339844L444.5,391.8330078z"/>
	</g>
	<g>
		<path d="M402.25,478.0234375v-20.6669922h12.5v20.6669922c0,40.5429688-2.4990234,51.0449219-10.1669922,60.8095703L396.5,525.25
			C401.3125,517.171875,402.25,512.3867188,402.25,478.0234375z"/>
		<path d="M444.75,491.6669922c0,36.7294922-7.8310547,45.9394531-25.9169922,45.9394531v-80.25h12.0830078V519.25
			c2.3984375-3.5722656,4.25-12.7626953,4.25-29.6660156L444.75,491.6669922z"/>
	</g>
	<g>
		<path d="M401,577.5v-21h14v21c0,41.2333984-2.4394531,51.8583984-10,62l-9-16C400.3583984,615.3759766,401,611.5546875,401,577.5z
			"/>
		<path d="M445,591.5c0,38.5917969-7.1181641,46.5-26.5,46.5v-81.5H432v61c1.609375-2.7646484,3-10.9560547,3-28.5L445,591.5z"/>
	</g>
</g>
<g>
	<g>
		<rect x="306" y="-39.5" width="2" height="43"/>
		<path d="M312.3330078,37.4433594l-0.6660156-1.8867188C324.4716797,31.0410156,333,20.6298828,333-15.5v-24h2v24
			C335,16.8457031,328.6445312,31.6894531,312.3330078,37.4433594z"/>
	</g>
	<g>
		<rect x="305.4160156" y="59.8330078" width="4.5004883" height="43.5"/>
		<path d="M312.1386719,137.9619141l-1.6943359-4.4243164c13.0029297-4.6401367,20.6386719-14.875,20.6386719-48.7875977V59.8330078
			h4.5834961v24.8334961C335.6665039,117.7895508,328.6103516,132.3935547,312.1386719,137.9619141z"/>
	</g>
	<g>
		<rect x="304.8330078" y="159.1669922" width="7.0004883" height="43.9995117"/>
		<path d="M311.9443359,238.480957l-2.7216797-6.9619141c13.2011719-4.7641602,19.9443359-14.8232422,19.9443359-46.519043
			v-25.8330078h7.1665039v25.6660156C336.3334961,218.734375,328.5771484,233.0981445,311.9443359,238.480957z"/>
	</g>
	<g>
		<rect x="304.25" y="258.5" width="9.5" height="44.5"/>
		<path d="M311.75,339l-3.75-9.5c13.4003906-4.8886719,19.25-14.7714844,19.25-44.25V258.5H337V285
			C337,319.6787109,328.5429688,333.8027344,311.75,339z"/>
	</g>
	<g>
		<rect x="303.6665039" y="357.8330078" width="11.3334961" height="45"/>
		<path d="M311.5,439.5l-4-12c13.1494141-4.8496094,18.5-13.8027344,18.5-42v-27.6669922h11.6665039v27.3330078
			C337.6665039,420.0566406,328.7827148,434.3857422,311.5,439.5z"/>
	</g>
	<g>
		<rect x="303.0834961" y="457.1660156" width="13.1665039" height="45.5009766"/>
		<path d="M311.25,540L307,525.5c12.8984375-4.8085938,17.75-12.8339844,17.75-39.75v-28.5839844h13.5830078v28.1669922
			C338.3330078,520.4365234,329.0229492,534.9697266,311.25,540z"/>
	</g>
	<g>
		<rect x="302.5" y="556.5" width="15" height="46"/>
		<path d="M311,640.5c18.2626953-4.9462891,28-19.6845703,28-55v-29h-15.5V586c0,25.6347656-4.3525391,32.7304688-17,37.5L311,640.5
			z"/>
	</g>
</g>
</svg>
