<?xml version="1.0" encoding="utf-8"?>
<!-- Generator: Adobe Illustrator 15.0.2, SVG Export Plug-In . SVG Version: 6.00 Build 0)  -->
<!DOCTYPE svg PUBLIC "-//W3C//DTD SVG 1.1//EN" "http://www.w3.org/Graphics/SVG/1.1/DTD/svg11.dtd">
<svg version="1.1" id="レイヤー1" xmlns="http://www.w3.org/2000/svg" xmlns:xlink="http://www.w3.org/1999/xlink" x="0px"
	 y="0px" width="841.8896484px" height="595.2753906px" viewBox="0 0 841.8896484 595.2753906"
	 enable-background="new 0 0 841.8896484 595.2753906" xml:space="preserve">
<g>
	<rect x="195.5" y="147.5" fill="none" stroke="#999999" stroke-width="0.1" width="50" height="100"/>
	<rect x="295.5" y="147.5" fill="none" stroke="#999999" stroke-width="0.1" width="50" height="100"/>
	<rect x="395.5" y="147.5" fill="none" stroke="#999999" stroke-width="0.1" width="50" height="100"/>
	<rect x="495.5" y="147.5" fill="none" stroke="#999999" stroke-width="0.1" width="50" height="100"/>
	<rect x="595.5" y="147.5" fill="none" stroke="#999999" stroke-width="0.1" width="50" height="100"/>
	<rect x="195.5" y="247.5" fill="none" stroke="#999999" stroke-width="0.1" width="50" height="100"/>
	<rect x="295.5" y="247.5" fill="none" stroke="#999999" stroke-width="0.1" width="50" height="100"/>
	<rect x="395.5" y="247.5" fill="none" stroke="#999999" stroke-width="0.1" width="50" height="100"/>
	<rect x="495.5" y="247.5" fill="none" stroke="#999999" stroke-width="0.1" width="50" height="100"/>
	<rect x="595.5" y="247.5" fill="none" stroke="#999999" stroke-width="0.1" width="50" height="100"/>
	<rect x="195.5" y="-52.5" fill="none" stroke="#999999" stroke-width="0.1" width="50" height="100"/>
	<rect x="295.5" y="-52.5" fill="none" stroke="#999999" stroke-width="0.1" width="50" height="100"/>
	<rect x="395.5" y="-52.5" fill="none" stroke="#999999" stroke-width="0.1" width="50" height="100"/>
	<rect x="495.5" y="-52.5" fill="none" stroke="#999999" stroke-width="0.1" width="50" height="100"/>
	<rect x="595.5" y="-52.5" fill="none" stroke="#999999" stroke-width="0.1" width="50" height="100"/>
	<rect x="195.5" y="47.5" fill="none" stroke="#999999" stroke-width="0.1" width="50" height="100"/>
	<rect x="295.5" y="47.5" fill="none" stroke="#999999" stroke-width="0.1" width="50" height="100"/>
	<rect x="395.5" y="47.5" fill="none" stroke="#999999" stroke-width="0.1" width="50" height="100"/>
	<rect x="495.5" y="47.5" fill="none" stroke="#999999" stroke-width="0.1" width="50" height="100"/>
	<rect x="595.5" y="47.5" fill="none" stroke="#999999" stroke-width="0.1" width="50" height="100"/>
	<rect x="195.5" y="347.5" fill="none" stroke="#999999" stroke-width="0.1" width="50" height="100"/>
	<rect x="295.5" y="347.5" fill="none" stroke="#999999" stroke-width="0.1" width="50" height="100"/>
	<rect x="395.5" y="347.5" fill="none" stroke="#999999" stroke-width="0.1" width="50" height="100"/>
	<rect x="495.5" y="347.5" fill="none" stroke="#999999" stroke-width="0.1" width="50" height="100"/>
	<rect x="595.5" y="347.5" fill="none" stroke="#999999" stroke-width="0.1" width="50" height="100"/>
	<rect x="195.5" y="447.5" fill="none" stroke="#999999" stroke-width="0.1" width="50" height="100"/>
	<rect x="295.5" y="447.5" fill="none" stroke="#999999" stroke-width="0.1" width="50" height="100"/>
	<rect x="395.5" y="447.5" fill="none" stroke="#999999" stroke-width="0.1" width="50" height="100"/>
	<rect x="495.5" y="447.5" fill="none" stroke="#999999" stroke-width="0.1" width="50" height="100"/>
	<rect x="595.5" y="447.5" fill="none" stroke="#999999" stroke-width="0.1" width="50" height="100"/>
	<rect x="195.5" y="547.5" fill="none" stroke="#999999" stroke-width="0.1" width="50" height="100"/>
	<rect x="295.5" y="547.5" fill="none" stroke="#999999" stroke-width="0.1" width="50" height="100"/>
	<rect x="395.5" y="547.5" fill="none" stroke="#999999" stroke-width="0.1" width="50" height="100"/>
	<rect x="495.5" y="547.5" fill="none" stroke="#999999" stroke-width="0.1" width="50" height="100"/>
	<rect x="595.5" y="547.5" fill="none" stroke="#999999" stroke-width="0.1" width="50" height="100"/>
</g>
<g>
	<polygon points="402.5,-35.5 402.5,-33.5 436,-33.5 436,-6.5 404.5,-6.5 404.5,-4.5 436,-4.5 436,28.5 402.5,28.5 402.5,30.5 
		438,30.5 438,-35.5 	"/>
	<polygon points="402.25,63.6665039 402.25,68.0830078 433.6660156,68.0830078 433.6660156,92.5 404.4165039,92.5 
		404.4165039,96.9160156 433.6660156,96.9160156 433.6660156,126.8330078 402.25,126.8330078 402.25,131.3330078 
		438.25,131.3330078 438.25,63.6665039 	"/>
	<polygon points="402,162.8334961 402,169.6669922 431.3330078,169.6669922 431.3330078,191.5 404.3330078,191.5 
		404.3330078,198.3330078 431.3330078,198.3330078 431.3330078,225.1669922 402,225.1669922 402,232.1665039 438.5,232.1665039 
		438.5,162.8334961 	"/>
	<polygon points="401.75,262 401.75,271.25 429,271.25 429,290.5 404.25,290.5 404.25,299.75 429,299.75 429,323.5 401.75,323.5 
		401.75,333 438.75,333 438.75,262 	"/>
	<polygon points="401.5,361.1660156 401.5,372.8330078 427.1660156,372.8330078 427.1660156,389.5 404.1660156,389.5 
		404.1660156,401.1660156 427.1660156,401.1660156 427.1660156,421.8330078 401.5,421.8330078 401.5,433.8330078 439,433.8330078 
		439,361.1660156 	"/>
	<polygon points="401.25,460.3330078 401.25,474.4160156 425.3330078,474.4160156 425.3330078,488.5 404.0830078,488.5 
		404.0830078,502.5839844 425.3330078,502.5839844 425.3330078,520.1669922 401.25,520.1669922 401.25,534.6669922 
		439.25,534.6669922 439.25,460.3330078 	"/>
	<polygon points="401,559.5 401,576 423.5,576 423.5,587.5 404,587.5 404,604 423.5,604 423.5,618.5 401,618.5 401,635.5 
		439.5,635.5 439.5,559.5 	"/>
</g>
<g>
	<polygon points="331.0498047,27.5 334.0498047,-34.5 305,-34.5 305,-32.5 331.9501953,-32.5 329.046875,27.5 300,27.5 300,29.5 
		341,29.5 341,27.5 	"/>
	<polygon points="331.3662109,125.8330078 334.1162109,64.6660156 304.75,64.6660156 304.75,69.1665039 329.2998047,69.1665039 
		326.78125,125.8330078 299.8330078,125.8330078 299.8330078,130.3330078 341.1665039,130.3330078 341.1665039,125.8330078 	"/>
	<polygon points="331.6835938,224.1665039 334.1835938,163.8330078 304.5,163.8330078 304.5,170.8334961 326.6499023,170.8334961 
		324.515625,224.1665039 299.6669922,224.1665039 299.6669922,231.1669922 341.3334961,231.1669922 341.3334961,224.1665039 	"/>
	<polygon points="332,322.5 334.25,263 304.25,263 304.25,272.5 324,272.5 322.25,322.5 299.5,322.5 299.5,332 341.5,332 
		341.5,322.5 	"/>
	<polygon points="332.3330078,420.8330078 334.3330078,362.1660156 304,362.1660156 304,374.1660156 321.9995117,374.1660156 
		320.5,420.8330078 299.3330078,420.8330078 299.3330078,432.8330078 341.6665039,432.8330078 341.6665039,420.8330078 	"/>
	<polygon points="332.6665039,519.1669922 334.4165039,461.3339844 303.75,461.3339844 303.75,475.8330078 320,475.8330078 
		318.75,519.1669922 299.1669922,519.1669922 299.1669922,533.6660156 341.8330078,533.6660156 341.8330078,519.1669922 	"/>
	<polygon points="333,617.5 334.5,560.5 303.5,560.5 303.5,577.5 318,577.5 317,617.5 299,617.5 299,634.5 342,634.5 342,617.5 	"/>
</g>
<g>
	<g>
		
			<rect x="219.0003204" y="-43.3473206" transform="matrix(0.3936835 0.919246 -0.919246 0.3936835 114.5450821 -214.66362)" width="1.9993457" height="45.6946373"/>
		<path d="M229.8007812,9.0986328l-1.6015625-1.1972656c5.7822266-7.734375,10.1787109-22.109375,11.2001953-36.6230469
			l1.9941406,0.140625C240.3476562-13.7109375,235.796875,1.078125,229.8007812,9.0986328z"/>
		
			<rect x="175.0746002" y="-3.5004959" transform="matrix(0.0933407 0.9956343 -0.9956343 0.0933407 192.669342 -216.5769196)" width="80.3507919" height="2.0009916"/>
	</g>
	<g>
		<polygon points="199.328125,90.6821289 198.4213867,86.1503906 240.7548828,68.3173828 241.6611328,72.8486328 		"/>
		<path d="M237.2988281,72.5810547l4.3623047,0.2675781c-1.0693359,14.5419922-5.3466797,29.1484375-10.9609375,37.4667969
			l-3.734375-2.7148438C232.2724609,99.5952148,236.2929688,86.0195312,237.2988281,72.5810547z"/>
		<polygon points="216.4189453,138.0620117 209.1689453,57.3125 213.6635742,56.7705078 220.9135742,137.5205078 		"/>
	</g>
	<g>
		<polygon points="199.2626953,191.9453125 198.2373047,184.7207031 240.9042969,167.0546875 241.9291992,174.2792969 		"/>
		<path d="M235.1992188,173.8847656l6.7299805,0.3945312c-1.0932617,14.2138672-5.097168,28.6376953-10.3291016,37.253418
			l-5.8666992-4.2319336C230.5639648,199.0244141,234.2080078,186.2470703,235.1992188,173.8847656z"/>
		<polygon points="214.8349609,238.53125 207.8349609,157.03125 214.8320312,156.1357422 221.8320312,237.6357422 		"/>
	</g>
	<g>
		<polygon points="242.1972656,275.7089844 199.1972656,293.2089844 198.0527344,283.2910156 241.0527344,265.7910156 		"/>
		<path d="M233.0996094,275.1875l9.0976562,0.5214844C241.0800781,289.5957031,237.3496094,303.8359375,232.5,312.75l-8-5.75
			C228.8554688,298.453125,232.1230469,286.4746094,233.0996094,275.1875z"/>
		<polygon points="222.75,337.75 213.25,339 206.5,256.75 216,255.5 		"/>
	</g>
	<g>
		<polygon points="242.4643555,377.1386719 199.1313477,394.4726562 197.8681641,381.8603516 241.2016602,364.5273438 		"/>
		<path d="M231.5664062,376.7910156l10.8979492,0.3476562c-1.1401367,13.5595703-4.6635742,27.6484375-9.1313477,36.8613281l-9.5-7
			C227.7128906,398.1826172,230.6044922,387.0019531,231.5664062,376.7910156z"/>
		<polygon points="223.4995117,437.8330078 212,439.5 205.5,356.5 216.9995117,354.8330078 		"/>
	</g>
	<g>
		<polygon points="242.7324219,478.5703125 199.065918,495.7363281 197.6845703,480.4296875 241.3505859,463.2636719 		"/>
		<path d="M230.0332031,478.3964844l12.6992188,0.1738281c-1.1635742,13.2304688-4.4804688,27.1689453-8.5654297,36.6796875
			l-11-8.25C226.5712891,497.9130859,229.0869141,487.5302734,230.0332031,478.3964844z"/>
		<polygon points="224.25,537.9169922 210.75,540 204.5,456.25 218,454.1660156 		"/>
	</g>
	<g>
		<polygon points="243,580 241.5,562 197.5,579 199,597 		"/>
		<path d="M228.5,580c-0.9316406,8.0585938-3.0712891,17.6425781-6,27l12.5,9.5c3.703125-9.8095703,6.8134766-23.5966797,8-36.5
			H228.5z"/>
		<polygon points="225,638 219,553.5 203.5,556 209.5,640.5 		"/>
	</g>
</g>
</svg>
