<?xml version="1.0" encoding="utf-8"?>
<!-- Generator: Adobe Illustrator 15.0.2, SVG Export Plug-In . SVG Version: 6.00 Build 0)  -->
<!DOCTYPE svg PUBLIC "-//W3C//DTD SVG 1.1//EN" "http://www.w3.org/Graphics/SVG/1.1/DTD/svg11.dtd">
<svg version="1.1" id="レイヤー1" xmlns="http://www.w3.org/2000/svg" xmlns:xlink="http://www.w3.org/1999/xlink" x="0px"
	 y="0px" width="841.8896484px" height="595.2753906px" viewBox="0 0 841.8896484 595.2753906"
	 enable-background="new 0 0 841.8896484 595.2753906" xml:space="preserve">
<g>
	<rect x="71.5" y="-76.5" fill="none" stroke="#000000" stroke-width="0.25" width="50" height="150"/>
	<rect x="171.5" y="-76.5" fill="none" stroke="#000000" stroke-width="0.25" width="50" height="150"/>
	<rect x="271.5" y="-76.5" fill="none" stroke="#000000" stroke-width="0.25" width="50" height="150"/>
	<rect x="371.5" y="-76.5" fill="none" stroke="#000000" stroke-width="0.25" width="50" height="150"/>
	<rect x="471.5" y="-76.5" fill="none" stroke="#000000" stroke-width="0.25" width="50" height="150"/>
	<rect x="571.5" y="-76.5" fill="none" stroke="#000000" stroke-width="0.25" width="50" height="150"/>
	<rect x="671.5" y="-76.5" fill="none" stroke="#000000" stroke-width="0.25" width="50" height="150"/>
	<rect x="71.5" y="73.5" fill="none" stroke="#000000" stroke-width="0.25" width="50" height="150"/>
	<rect x="171.5" y="73.5" fill="none" stroke="#000000" stroke-width="0.25" width="50" height="150"/>
	<rect x="271.5" y="73.5" fill="none" stroke="#000000" stroke-width="0.25" width="50" height="150"/>
	<rect x="371.5" y="73.5" fill="none" stroke="#000000" stroke-width="0.25" width="50" height="150"/>
	<rect x="471.5" y="73.5" fill="none" stroke="#000000" stroke-width="0.25" width="50" height="150"/>
	<rect x="571.5" y="73.5" fill="none" stroke="#000000" stroke-width="0.25" width="50" height="150"/>
	<rect x="671.5" y="73.5" fill="none" stroke="#000000" stroke-width="0.25" width="50" height="150"/>
	<rect x="71.5" y="223.5" fill="none" stroke="#000000" stroke-width="0.25" width="50" height="150"/>
	<rect x="171.5" y="223.5" fill="none" stroke="#000000" stroke-width="0.25" width="50" height="150"/>
	<rect x="271.5" y="223.5" fill="none" stroke="#000000" stroke-width="0.25" width="50" height="150"/>
	<rect x="371.5" y="223.5" fill="none" stroke="#000000" stroke-width="0.25" width="50" height="150"/>
	<rect x="471.5" y="223.5" fill="none" stroke="#000000" stroke-width="0.25" width="50" height="150"/>
	<rect x="571.5" y="223.5" fill="none" stroke="#000000" stroke-width="0.25" width="50" height="150"/>
	<rect x="671.5" y="223.5" fill="none" stroke="#000000" stroke-width="0.25" width="50" height="150"/>
	<rect x="71.5" y="373.5" fill="none" stroke="#000000" stroke-width="0.25" width="50" height="150"/>
	<rect x="171.5" y="373.5" fill="none" stroke="#000000" stroke-width="0.25" width="50" height="150"/>
	<rect x="271.5" y="373.5" fill="none" stroke="#000000" stroke-width="0.25" width="50" height="150"/>
	<rect x="371.5" y="373.5" fill="none" stroke="#000000" stroke-width="0.25" width="50" height="150"/>
	<rect x="471.5" y="373.5" fill="none" stroke="#000000" stroke-width="0.25" width="50" height="150"/>
	<rect x="571.5" y="373.5" fill="none" stroke="#000000" stroke-width="0.25" width="50" height="150"/>
	<rect x="671.5" y="373.5" fill="none" stroke="#000000" stroke-width="0.25" width="50" height="150"/>
	<rect x="71.5" y="523.5" fill="none" stroke="#000000" stroke-width="0.25" width="50" height="150"/>
	<rect x="171.5" y="523.5" fill="none" stroke="#000000" stroke-width="0.25" width="50" height="150"/>
	<rect x="271.5" y="523.5" fill="none" stroke="#000000" stroke-width="0.25" width="50" height="150"/>
	<rect x="371.5" y="523.5" fill="none" stroke="#000000" stroke-width="0.25" width="50" height="150"/>
	<rect x="471.5" y="523.5" fill="none" stroke="#000000" stroke-width="0.25" width="50" height="150"/>
	<rect x="571.5" y="523.5" fill="none" stroke="#000000" stroke-width="0.25" width="50" height="150"/>
	<rect x="671.5" y="523.5" fill="none" stroke="#000000" stroke-width="0.25" width="50" height="150"/>
	<rect x="771.5" y="-76.5" fill="none" stroke="#000000" stroke-width="0.25" width="50" height="150"/>
	<rect x="771.5" y="73.5" fill="none" stroke="#000000" stroke-width="0.25" width="50" height="150"/>
	<rect x="771.5" y="223.5" fill="none" stroke="#000000" stroke-width="0.25" width="50" height="150"/>
	<rect x="771.5" y="373.5" fill="none" stroke="#000000" stroke-width="0.25" width="50" height="150"/>
	<rect x="771.5" y="523.5" fill="none" stroke="#000000" stroke-width="0.25" width="50" height="150"/>
</g>
<g>
	<polygon points="196.6000977,-39.5 215.4316406,31.5 217.5,31.5 198.1503906,-41.5 194.8500977,-41.5 175.5,31.5 177.5673828,31.5 
		196.3999023,-39.5 	"/>
	<polygon points="174.5,181.5 179.7333984,181.5 196.2998047,114 196.5,114 213.0654297,181.5 218.5,181.5 199.8251953,108.5 
		193.1748047,108.5 	"/>
	<polygon points="196.3994141,267.5 210.699707,331.5 219.5,331.5 201.5,258.5 191.5,258.5 173.5,331.5 181.8999023,331.5 
		196.2001953,267.5 	"/>
	<polygon points="172.75,481.5 183.9501953,481.5 196.2001953,419.5 196.3994141,419.5 208.6494141,481.5 220.25,481.5 203,408.5 
		190,408.5 	"/>
	<polygon points="196.3994141,571.5 206.5996094,631.5 221,631.5 204.5,558.5 188.5,558.5 172,631.5 186,631.5 196.2001953,571.5 	
		"/>
</g>
<g>
	<rect x="183.5" y="4.5" width="26" height="2"/>
	<rect x="183.5" y="154.1000977" width="26" height="4.199707"/>
	<rect x="183.5" y="303.7001953" width="26" height="6.3994141"/>
	<rect x="183" y="453.8496094" width="27" height="8.4501953"/>
	<rect x="182.5" y="604" width="28" height="10.5"/>
</g>
<g>
	<polygon points="583.5,-39.5 612.5,-39.5 612.5,-41.5 581.5,-41.5 581.5,31.5 612.5,31.5 612.5,29.5 583.5,29.5 583.5,-7.5 
		611.5,-7.5 611.5,-9.5 583.5,-9.5 	"/>
	<polygon points="612.75,112.7998047 612.75,108.5 580.75,108.5 580.75,181.5 612.75,181.5 612.75,177.2001953 
		585.9501953,177.2001953 585.9501953,143.75 611.75,143.75 611.75,139.5498047 585.9501953,139.5498047 585.9501953,112.7998047 	
		"/>
	<polygon points="588.4003906,265.0996094 613,265.0996094 613,258.5 580,258.5 580,331.5 613,331.5 613,324.9003906 
		588.4003906,324.9003906 588.4003906,295 612,295 612,288.5996094 588.4003906,288.5996094 	"/>
	<polygon points="614.25,417.1992188 614.25,408.5 579.25,408.5 579.25,481.5 614.25,481.5 614.25,472.8007812 
		590.4501953,472.8007812 590.4501953,446.5 613.25,446.5 613.25,438.0498047 590.4501953,438.0498047 590.4501953,417.1992188 	"/>
	<polygon points="592.5,569.2998047 615.5,569.2998047 615.5,558.5 578.5,558.5 578.5,631.5 615.5,631.5 615.5,620.7001953 
		592.5,620.7001953 592.5,598 614.5,598 614.5,587.5 592.5,587.5 	"/>
</g>
<g>
	<polygon points="684.5,-7.5 711.5,-7.5 711.5,-9.5 684.5,-9.5 684.5,-39.5 712.5,-39.5 712.5,-41.5 682.5,-41.5 682.5,31.5 
		684.5,31.5 	"/>
	<polygon points="712.75,112.7998047 712.75,108.5 681.75,108.5 681.75,181.5 686.9501953,181.5 686.9501953,143.75 711.75,143.75 
		711.75,139.5498047 686.9501953,139.5498047 686.9501953,112.7998047 	"/>
	<polygon points="689.4003906,295 712,295 712,288.5996094 689.4003906,288.5996094 689.4003906,265.0996094 713,265.0996094 
		713,258.5 681,258.5 681,331.5 689.4003906,331.5 	"/>
	<polygon points="714.25,417.1992188 714.25,408.5 680.25,408.5 680.25,481.5 691.4501953,481.5 691.4501953,446.5 713.25,446.5 
		713.25,438.0498047 691.4501953,438.0498047 691.4501953,417.1992188 	"/>
	<polygon points="693.5,598 714.5,598 714.5,587.5 693.5,587.5 693.5,569.2998047 715.5,569.2998047 715.5,558.5 679.5,558.5 
		679.5,631.5 693.5,631.5 	"/>
</g>
<g>
	<path d="M113.2998047-11.6835938C110.8286133-14.4555664,107.5263672-16,103.5-16C95.0888672-16,91-8.9672852,91,5.5h2
		C93-11.9785156,98.9926758-14,103.5-14c4.4174805,0,7.9541016,2.0561523,10,5.777832v28.3168945
		C110.3613281,23.6796875,107.703125,25,103.5,25C94.8217773,25,93,14.3959961,93,5.5h-2C91,24.2070312,98.831543,27,103.5,27
		c4.9296875,0,8.1171875-1.5854492,12-6.1308594V-12c0-13.2709961-5.3833008-20-16-20c-15.0092773,0-22,11.9160156-22,37.5
		c0,24.8833008,7.4018555,37.5,22,37.5c4.5463867,0,8.7055664-1.0463867,13-3.2490234V37.5
		c-4.4663086,2.4609375-8.5488281,3.5-13,3.5c-12.0336914,0-20-9.5517578-20-35.5c0-26.2709961,7.3725586-35.5,20-35.5
		c9.1352539,0,14,5.5751953,14,18v0.3164062H113.2998047z"/>
	<path d="M99.25,118c-15.1679688,0-23,11.1425781-23,37.5c0,26.4326172,7.9228516,37.5,23,37.5
		c4.5703125,0,8.7958984-0.9980469,13-3.1245117v-4.8251953c-4.3701172,2.5351562-8.4746094,3.6499023-12.75,3.6499023
		c-11.3037109,0-18.25-8.0605469-18.25-33.2001953c0-24.8300781,6.6225586-33.2001953,18.25-33.2001953
		c7.6181641,0,11.8999023,4.7387695,11.8999023,14.7001953v0.4082031h-0.2001953C108.800293,135.1328125,106.0727539,134,102.75,134
		c-8.5288086,0-12.9501953,6.3339844-12.9501953,21.5h4.7998047c0-15.1152344,3.9833984-17.3999023,8.6503906-17.3999023
		c3.5732422,0,6.2402344,1.6293945,7.8999023,5.0385742v25.5087891c-2.1489258,3.0703125-4.3120117,4.2524414-7.8999023,4.2524414
		c-6.5615234,0-8.6503906-6.7192383-8.6503906-17.3999023h-4.7998047c0,17.5703125,6.3417969,21.5,13.4501953,21.5
		c4.9365234,0,8.8320312-1.8085938,13-6.3154297V138C116.25,124.6210938,110.2460938,118,99.25,118z"/>
	<path d="M109.0996094,286.5C106.7719727,284.7207031,104.6191406,284,102,284c-8.6464844,0-13.4003906,5.6347656-13.4003906,21.5
		h7.6000977c0-12.7519531,1.9731445-15.2998047,6.800293-15.2998047c2.7294922,0,4.5263672,1.2021484,5.7998047,4.2998047
		v22.7001953c-1.1591797,2.5556641-2.8271484,3.5996094-5.7998047,3.5996094c-4.4453125,0-6.800293-2.8339844-6.800293-15.2998047
		h-7.6000977c0,16.4335938,4.8515625,21.5,14.4003906,21.5c4.9433594,0,9.546875-2.03125,14-6.5V288
		c0-13.4863281-6.6240234-20-18-20c-15.3266602,0-24,10.3691406-24,37.5c0,27.9814453,8.4438477,37.5,24,37.5
		c4.5947266,0,8.8867188-0.9492188,13-3v-7.3994141c-4.2744141,2.609375-8.4003906,3.7998047-12.5,3.7998047
		c-10.5737305,0-16.5-6.5693359-16.5-30.9003906c0-23.3886719,5.8725586-30.9003906,16.5-30.9003906
		c6.1010742,0,9.7998047,3.9023438,9.7998047,11.4003906v0.5H109.0996094z"/>
	<path d="M98.75,418c12.7426758,0,19.25,6.3310547,19.25,20v32.5996094c-4.1259766,4.0751953-10.2080078,6.5-15.75,6.5
		c-9.2138672,0-13.9501953-5.2109375-13.9501953-21.5h9.7998047C98.0996094,466.8769531,99.7817383,469,103.3500977,469
		c2.1274414,0,3.3374023-0.6835938,4.2998047-2.4492188v-21.2011719c-0.9570312-2.2246094-2.3320312-3.1494141-4.449707-3.1494141
		c-3.5913086,0-5.1005859,2.0654297-5.1005859,13.3994141h-9.7998047c0-15.7265625,4.6201172-21.5,12.9501953-21.5
		c2.6191406,0,4.6513672,0.6845703,6.949707,2.5h0.2001953V435.5c0-5.7919922-3.3447266-9.0996094-8.8999023-9.0996094
		c-10.3828125,0-15.75,6.8535156-15.75,29.0996094c0,22.3173828,5.84375,29.0996094,16.5,29.0996094
		c4.1777344,0,8.1635742-0.9785156,12.75-3.3994141V490.25c-4.3212891,1.8339844-9.1391602,2.75-14,2.75
		c-15.7900391,0-25-10.2753906-25-37.5C74,428.7402344,82.8613281,418,98.75,418z"/>
	<path d="M99.5,578.2001953c-10.1381836,0-15,6.1953125-15,27.2998047c0,20.3037109,5.7617188,27.2998047,16.5,27.2998047
		c4.2558594,0,8.1015625-0.7675781,13-3V640.5c-4.5292969,1.6162109-9.8730469,2.5-15,2.5c-16.0239258,0-26-11.0322266-26-37.5
		c0-26.3876953,9.0488281-37.5,25.5-37.5c14.109375,0,20.5,6.1484375,20.5,20v32.7001953
		c-3.7988281,3.6806641-11.359375,6.5-17.5,6.5c-8.8789062,0-13.5-5.3564453-13.5-21.5h12
		c0,10.0888672,1.0087891,11.5,3.7001953,11.5c1.2822266,0,2.034668-0.3242188,2.7998047-1.2998047v-19.7001953
		c-0.640625-1.3535156-1.59375-2-3.0996094-2c-2.3554688,0-3.4003906,1.5839844-3.4003906,11.5H88
		c0-15.5888672,4.4858398-21.5,12.5-21.5c2.6191406,0,4.5302734,0.6474609,6.7998047,2.5H107.5V585
		C107.5,580.9140625,104.5092773,578.2001953,99.5,578.2001953z"/>
</g>
<g>
	<path d="M800-40.5c4.2636719,0,8.3535156,0.940918,12.5,2.8720703v-2.1831055C808.3710938-41.6113281,804.2714844-42.5,800-42.5
		c-15.7714844,0-22.5,11.2148438-22.5,37.5c0,25.2333984,7.1962891,37.5,22,37.5c5.8701172,0,9.6630859-0.9487305,15-3.9111328V-9.5
		H794v2h18.5v34.8779297C808.2167969,29.6748047,804.8388672,30.5,799.5,30.5c-13.6445312,0-20-11.2802734-20-35.5
		C779.5-30.2148438,785.4394531-40.5,800-40.5z"/>
	<path d="M800.75,111.8999023c4.015625,0,8.0078125,0.8500977,12.25,2.6362305v-4.6914062
		C808.9121094,108.3027344,804.4980469,107.5,800.75,107.5c-15.9355469,0-24,11.0029297-24,37c0,26.6455078,8.265625,38,23,38
		c5.953125,0,10.0722656-0.9306641,15.5-3.7055664v-39.2446289h-22V143.75h16.9003906v31.9892578
		c-3.4072266,1.8110352-6.1035156,2.4609375-10.1503906,2.4609375c-11.5205078,0-17.9501953-9.8051758-17.9501953-33.7001953
		C782.0498047,121.1635742,788.3466797,111.8999023,800.75,111.8999023z"/>
	<path d="M807.7998047,324.1005859c-2.5302734,1.3251953-4.5449219,1.7998047-7.2998047,1.7998047
		c-9.3964844,0-15.9003906-8.3300781-15.9003906-31.9003906c0-21.4580078,6.6542969-29.7001953,16.9003906-29.7001953
		c3.7675781,0,7.6630859,0.7587891,12,2.4003906V259.5c-4.0478516-1.2832031-8.7753906-2-12-2
		c-16.0996094,0-25.5,10.7910156-25.5,36.5c0,28.0576172,9.3359375,38.5,24,38.5c6.0361328,0,10.4824219-0.9121094,16-3.5
		v-40.4003906h-23.5V295h15.2998047V324.1005859z"/>
	<path d="M802,416.2998047c3.7988281,0,7.8671875,0.7626953,12.5,2.4501953v-9c-4.0859375-1.5097656-8.4716797-2.25-12.5-2.25
		c-17.6464844,0-27,10.8876953-27,37c0,27.3808594,9.5546875,38,25,38c6.1689453,0,11.3789062-1.0273438,17-3.5v-40.9501953h-23.25
		V446.5h12.5498047v26.1503906c-2.0449219,0.8945312-3.8320312,1.25-6.0498047,1.25
		c-8.5644531,0-14.2001953-7.1914062-14.2001953-29.4003906C786.0498047,423.203125,791.5449219,416.2998047,802,416.2998047z"/>
	<path d="M802.5,568.2998047c3.8310547,0,8.0722656,0.7675781,13,2.5V560c-4.1240234-1.7373047-8.1679688-2.5-13-2.5
		c-19.1923828,0-28.5,10.984375-28.5,37.5c0,26.703125,9.7734375,37.5,26,37.5c6.3017578,0,12.2744141-1.1435547,18-3.5v-41.5h-23
		V598h9.7998047v23.2001953c-1.5595703,0.4638672-3.1191406,0.7001953-4.7998047,0.7001953
		c-7.7324219,0-12.5-6.0517578-12.5-26.9003906C787.5,573.8642578,791.8359375,568.2998047,802.5,568.2998047z"/>
</g>
<g>
	<path d="M281,30.7919922C284.90625,31.8183594,290.6855469,32.5,295,32.5c13.4580078,0,20-7.0327148,20-21.5h-2
		c0,13.4858398-5.5512695,19.5-18,19.5c-3.7646484,0-8.269043-0.5087891-12-1.3188477c0-1.5805664,0-66.8212891,0-68.3759766
		C286.4199219-39.996582,290.5439453-40.5,294-40.5c11.1030273,0,16.5,4.9067383,16.5,15c0,10.6166992-6.5605469,16-19.5,16h-8v2h8
		c15.2148438,0,22,5.7055664,22,18.5h2c0-11.0566406-4.7885742-17.3251953-14.875-19.515625v-0.2001953
		C308.2558594-10.987793,312.5-16.6088867,312.5-25.5c0-11.121582-6.3969727-17-18.5-17
		c-4.0605469,0-9.5151367,0.7148438-13,1.7236328V30.7919922z"/>
	<path d="M285.2001953,113.0029297c2.6210938-0.7265625,6.0854492-1.203125,9.0498047-1.203125
		c9.5585938,0,14.5,4.6103516,14.5,13.2001953c0,9.9228516-5.5849609,14.5498047-17.3999023,14.5498047h-6.1499023V143.75h6.6499023
		c13.050293,0,19.0498047,5.328125,19.0498047,17H316c0-10.3828125-5.3105469-17.3476562-14.1875-19.2080078v-0.199707
		C309.4091797,139.2783203,313.75,133.5664062,313.75,125c0-11.4472656-6.5498047-17.5-19.5-17.5
		c-4.5039062,0-10.2485352,0.7436523-14.25,1.8618164v71.2841797C284.2119141,181.7729492,290.1191406,182.5,294.75,182.5
		c14.0834961,0,21.25-6.9931641,21.25-21.75h-5.1000977c0,11.9794922-5.4145508,17.4501953-16.1499023,17.4501953
		c-3.1186523,0-6.7729492-0.4799805-9.5498047-1.2099609C285.2001953,176.2001953,285.2001953,113.7802734,285.2001953,113.0029297z
		"/>
	<path d="M287.4003906,324.7998047v-59.5996094c1.8222656-0.6503906,4.6269531-1.1005859,7.0996094-1.1005859
		c8.0136719,0,12.5,4.3144531,12.5,11.4003906c0,9.2285156-4.609375,13.0996094-15.2998047,13.0996094h-4.2998047V295h5.2998047
		c10.8857422,0,16.0996094,4.9511719,16.0996094,15.5H317c0-9.7089844-5.8320312-17.3701172-13.5-18.9003906v-0.1992188
		C310.5625,289.5439453,315,283.7421875,315,275.5c0-11.7734375-6.7021484-18-20.5-18c-4.9467773,0-10.9819336,0.7724609-15.5,2v71
		c4.5180664,1.2275391,10.5532227,2,15.5,2c14.7089844,0,22.5-6.953125,22.5-22h-8.2001953
		c0,10.4736328-5.2773438,15.4003906-14.2998047,15.4003906
		C292.0273438,325.9003906,289.2231445,325.4492188,287.4003906,324.7998047z"/>
	<path d="M288.9501953,416.9003906c1.2963867-0.4736328,3.2910156-0.8007812,5.0498047-0.8007812
		c7.3662109,0,11.0498047,3.4863281,11.0498047,10.3007812c0,8.1425781-4.0927734,11.6494141-13.199707,11.6494141h-2.8999023V446.5
		h4.1499023c9.4350586,0,13.75,4.1943359,13.75,13.75L317.75,460.5c0-9.6757812-5.9101562-17.234375-13.5-18.6503906v-0.1992188
		c6.8427734-1.6523438,11.5-7.5947266,11.5-15.9003906c0-11.8398438-6.9960938-18.25-21.75-18.25
		c-5.1865234,0-11.5131836,0.7724609-16.25,2v71c4.8828125,1.2275391,11.4042969,2,16.75,2c15.2285156,0,23.25-7.1142578,23.25-22
		l-10.8999023-0.25c0,9.5839844-4.2944336,13.6503906-12.3500977,13.6503906c-1.9326172,0-4.125-0.328125-5.5498047-0.8007812
		V416.9003906z"/>
	<path d="M304.9003906,610c0,8.6953125-3.3120117,11.9003906-10.3999023,11.9003906c-1.3935547,0-2.9731445-0.2041016-4.0004883-0.5
		v-52.8007812c0.7705078-0.2958984,1.9550781-0.5,3-0.5c6.7192383,0,9.5996094,2.6582031,9.5996094,9.2001953
		C303.0996094,584.3564453,299.5229492,587.5,292,587.5h-1.5V598h3C301.484375,598,304.9003906,601.4375,304.9003906,610
		L318.5,610.5c0-9.6425781-5.9882812-17.0986328-13.5-18.4003906v-0.2001953c6.6230469-1.4472656,11.5-7.5302734,11.5-15.8994141
		c0-11.9052734-7.2900391-18.5-23-18.5c-5.4257812,0-12.0444336,0.7724609-17,2c0.0004883,0,0,71,0,71
		c5.2470703,1.2275391,12.2553711,2,18.0004883,2c15.7480469,0,23.9995117-7.2753906,23.9995117-22L304.9003906,610z"/>
</g>
<g>
	<path d="M480,30.753418C483.3085938,31.7998047,488.1611328,32.5,492,32.5c16.8222656,0,24-11.5141602,24-38.5h-2
		c0,25.925293-6.3740234,36.5-22,36.5c-3.1748047,0-6.9912109-0.5068359-10-1.2866211c0-1.5200195,0-66.9067383,0-68.4267578
		C485.0087891-39.9931641,488.8251953-40.5,492-40.5c15.6259766,0,22,9.9951172,22,34.5h2c0-25.925293-6.953125-36.5-24-36.5
		c-3.8105469,0-9.0527344,0.7866211-12,1.746582V30.753418z"/>
	<path d="M491.8496094,111.7998047c-2.5185547,0-5.4824219,0.4765625-7.6494141,1.1933594c0,0.7602539,0,63.253418,0,64.0136719
		c2.1669922,0.7172852,5.1308594,1.1933594,7.6494141,1.1933594c13.9589844,0,20.0507812-8.4335938,20.0507812-34.2001953H517
		c0,28.0488281-8.0029297,38.5-25.1503906,38.5c-4.1054688,0-9.1992188-0.7363281-12.8496094-1.8730469v-71.2539062
		c3.4707031-1.09375,8.7587891-1.8730469,12.8496094-1.8730469C509.2919922,107.5,517,117.4892578,517,144h-5.0996094
		C511.9003906,120.3686523,505.7304688,111.7998047,491.8496094,111.7998047z"/>
	<path d="M486.4003906,324.7998047c1.3242188,0.6552734,3.4365234,1.1005859,5.2998047,1.1005859
		c12.2919922,0,18.0996094-6.2919922,18.0996094-31.9003906H518c0,29.1123047-8.828125,38.5-26.2998047,38.5
		c-4.3720703,0-9.7070312-0.7724609-13.7001953-2v-71c3.9931641-1.2275391,9.328125-2,13.7001953-2
		C509.5371094,257.5,518,266.9042969,518,294h-8.2001953c0-22.7578125-5.9658203-29.9003906-18.0996094-29.9003906
		c-1.8632812,0-3.9746094,0.4462891-5.2998047,1.1005859V324.7998047z"/>
	<path d="M492.4501953,416.1992188c-1.5820312,0-3.3740234,0.3652344-4.5,0.9003906V473
		c1.125,0.5351562,2.9179688,0.9003906,4.5,0.9003906c10.1943359,0,15.3994141-6.1015625,15.3994141-29.9003906H518.75
		c0,29.4648438-8.4619141,38.5-26.2998047,38.5c-4.6914062,0-11.3974609-0.8457031-15.7001953-2v-71
		c4.3046875-1.1474609,11.0087891-2,15.7001953-2C510.6708984,407.5,518.75,416.5429688,518.75,444h-10.9003906
		C507.8496094,422.6972656,502.6865234,416.1992188,492.4501953,416.1992188z"/>
	<path d="M505.9003906,594c0,21.9892578-4.6025391,27.9003906-12.7001953,27.9003906
		c-1.3007812,0-2.7744141-0.2841797-3.7001953-0.7001953V569c0.9257812-0.4160156,2.3994141-0.7001953,3.7001953-0.7001953
		C501.5390625,568.2998047,505.9003906,574.1523438,505.9003906,594H519.5c0-27.8193359-7.6953125-36.5-26.2998047-36.5
		c-5.0107422,0-13.0839844,0.9326172-17.7001953,2v71c4.6123047,1.0820312,12.6894531,2,17.7001953,2
		C511.4042969,632.5,519.5,623.8173828,519.5,594H505.9003906z"/>
</g>
<g>
	<path d="M399.5,30.5c-11.2685547,0-19-9.9140625-19-35.5c0-26.140625,7.2358398-35.5,19-35.5
		c3.8662109,0,6.9980469,0.5942383,10.5,2.0063477v16.6704102h2v-18C407.699707-41.734375,403.9785156-42.5,399.5-42.5
		c-14.1308594,0-21,12.2666016-21,37.5c0,30.9941406,11.4199219,37.5,21,37.5c4.5766602,0,7.7348633-0.7265625,12-2.7797852V27.5
		C406.9501953,29.8037109,403.9511719,30.5,399.5,30.5z"/>
	<path d="M401,111.9003906c2.2670898,0,4.4487305,0.3925781,6.6499023,1.203125v15.7348633H412.75v-19
		C408.7392578,108.2167969,404.8144531,107.5,400.5,107.5c-14.5395508,0-22.75,11.7651367-22.75,37
		c0,29.4692383,10.3183594,38,22.75,38c4.3583984,0,7.9697266-0.8095703,11.75-2.6396484v-4.7104492
		c-3.9101562,2.1660156-7.0742188,3.050293-11.25,3.050293c-10.6040039,0-17.9501953-9.2978516-17.9501953-33.7001953
		C383.0498047,120.9038086,390.0527344,111.9003906,401,111.9003906z"/>
	<path d="M413.5,279.5v-20c-3.7207031-1.3320312-7.8500977-2-12-2c-14.9482422,0-24.5,11.2636719-24.5,36.5
		c0,27.9443359,9.2172852,38.5,24.5,38.5c4.140625,0,8.2041016-0.8925781,11.5-2.5v-7.2001953
		c-3.2705078,2.0283203-6.5996094,3.1005859-10.5,3.1005859c-9.9394531,0-16.8999023-8.6816406-16.8999023-31.9003906
		c0-21.0517578,6.769043-29.6992188,16.8999023-29.6992188c0.6679688,0,1.8994141,0.1904297,2.7998047,0.3994141V279.5H413.5z"/>
	<path d="M401.5,416.3007812c-8.8574219,0-14.4501953,7.4960938-14.4501953,27.6992188
		c0,21.8447266,6.5820312,29.9003906,15.9501953,29.9003906c3.9833984,0,6.8085938-0.8154297,11-3.0507812V480
		c-3.8920898,1.6669922-8.1162109,2.5-12.75,2.5c-15.4091797,0-25.25-10.9785156-25.25-38.5c0-25.65625,9.1894531-36.5,25-36.5
		c4.6386719,0,9.3779297,0.7753906,13.5,2.25v22.5h-10.7001953v-15.5996094
		C403.0571289,416.4453125,402.1489258,416.3007812,401.5,416.3007812z"/>
	<path d="M415.5,560v25h-13.2001953v-16.4003906c-0.5849609-0.1992188-1.1699219-0.2998047-1.7998047-0.2998047
		c-7.5839844,0-12,6.3466797-12,25.7001953c0,20.4707031,6.2036133,27.9003906,15,27.9003906
		c4.0664062,0,6.3881836-0.5585938,11.5-3V630c-4.4882812,1.7265625-8.8730469,2.5-14,2.5c-15.5356445,0-26-11.4013672-26-38.5
		c0-26.0751953,8.8271484-36.5,25.5-36.5C405.6279297,557.5,410.9765625,558.3818359,415.5,560z"/>
</g>
</svg>
