<?xml version="1.0" encoding="utf-8"?>
<!-- Generator: Adobe Illustrator 15.0.2, SVG Export Plug-In . SVG Version: 6.00 Build 0)  -->
<!DOCTYPE svg PUBLIC "-//W3C//DTD SVG 1.1//EN" "http://www.w3.org/Graphics/SVG/1.1/DTD/svg11.dtd">
<svg version="1.1" id="レイヤー1" xmlns="http://www.w3.org/2000/svg" xmlns:xlink="http://www.w3.org/1999/xlink" x="0px"
	 y="0px" width="841.8896484px" height="595.2753906px" viewBox="0 0 841.8896484 595.2753906"
	 enable-background="new 0 0 841.8896484 595.2753906" xml:space="preserve">
<g>
	<rect x="71.5" y="-76.5" fill="none" stroke="#000000" stroke-width="0.25" width="50" height="150"/>
	<rect x="171.5" y="-76.5" fill="none" stroke="#000000" stroke-width="0.25" width="50" height="150"/>
	<rect x="271.5" y="-76.5" fill="none" stroke="#000000" stroke-width="0.25" width="50" height="150"/>
	<rect x="371.5" y="-76.5" fill="none" stroke="#000000" stroke-width="0.25" width="50" height="150"/>
	<rect x="471.5" y="-76.5" fill="none" stroke="#000000" stroke-width="0.25" width="50" height="150"/>
	<rect x="571.5" y="-76.5" fill="none" stroke="#000000" stroke-width="0.25" width="50" height="150"/>
	<rect x="671.5" y="-76.5" fill="none" stroke="#000000" stroke-width="0.25" width="50" height="150"/>
	<rect x="71.5" y="73.5" fill="none" stroke="#000000" stroke-width="0.25" width="50" height="150"/>
	<rect x="171.5" y="73.5" fill="none" stroke="#000000" stroke-width="0.25" width="50" height="150"/>
	<rect x="271.5" y="73.5" fill="none" stroke="#000000" stroke-width="0.25" width="50" height="150"/>
	<rect x="371.5" y="73.5" fill="none" stroke="#000000" stroke-width="0.25" width="50" height="150"/>
	<rect x="471.5" y="73.5" fill="none" stroke="#000000" stroke-width="0.25" width="50" height="150"/>
	<rect x="571.5" y="73.5" fill="none" stroke="#000000" stroke-width="0.25" width="50" height="150"/>
	<rect x="671.5" y="73.5" fill="none" stroke="#000000" stroke-width="0.25" width="50" height="150"/>
	<rect x="71.5" y="223.5" fill="none" stroke="#000000" stroke-width="0.25" width="50" height="150"/>
	<rect x="171.5" y="223.5" fill="none" stroke="#000000" stroke-width="0.25" width="50" height="150"/>
	<rect x="271.5" y="223.5" fill="none" stroke="#000000" stroke-width="0.25" width="50" height="150"/>
	<rect x="371.5" y="223.5" fill="none" stroke="#000000" stroke-width="0.25" width="50" height="150"/>
	<rect x="471.5" y="223.5" fill="none" stroke="#000000" stroke-width="0.25" width="50" height="150"/>
	<rect x="571.5" y="223.5" fill="none" stroke="#000000" stroke-width="0.25" width="50" height="150"/>
	<rect x="671.5" y="223.5" fill="none" stroke="#000000" stroke-width="0.25" width="50" height="150"/>
	<rect x="71.5" y="373.5" fill="none" stroke="#000000" stroke-width="0.25" width="50" height="150"/>
	<rect x="171.5" y="373.5" fill="none" stroke="#000000" stroke-width="0.25" width="50" height="150"/>
	<rect x="271.5" y="373.5" fill="none" stroke="#000000" stroke-width="0.25" width="50" height="150"/>
	<rect x="371.5" y="373.5" fill="none" stroke="#000000" stroke-width="0.25" width="50" height="150"/>
	<rect x="471.5" y="373.5" fill="none" stroke="#000000" stroke-width="0.25" width="50" height="150"/>
	<rect x="571.5" y="373.5" fill="none" stroke="#000000" stroke-width="0.25" width="50" height="150"/>
	<rect x="671.5" y="373.5" fill="none" stroke="#000000" stroke-width="0.25" width="50" height="150"/>
	<rect x="71.5" y="523.5" fill="none" stroke="#000000" stroke-width="0.25" width="50" height="150"/>
	<rect x="171.5" y="523.5" fill="none" stroke="#000000" stroke-width="0.25" width="50" height="150"/>
	<rect x="271.5" y="523.5" fill="none" stroke="#000000" stroke-width="0.25" width="50" height="150"/>
	<rect x="371.5" y="523.5" fill="none" stroke="#000000" stroke-width="0.25" width="50" height="150"/>
	<rect x="471.5" y="523.5" fill="none" stroke="#000000" stroke-width="0.25" width="50" height="150"/>
	<rect x="571.5" y="523.5" fill="none" stroke="#000000" stroke-width="0.25" width="50" height="150"/>
	<rect x="671.5" y="523.5" fill="none" stroke="#000000" stroke-width="0.25" width="50" height="150"/>
</g>
<g>
	<polygon points="96.5996094,598 89.7001953,579.5 75,579.5 87.5,605.5 75,631.5 89.7998047,631.5 96.1992188,613.5 
		96.3994141,613.5 102.7998047,631.5 118,631.5 105.5,605.5 118,579.5 103.7001953,579.5 96.7998047,598 	"/>
	<polygon points="96.5996094,449.25 87.75,429.5 76,429.5 89.5,455.5 76,481.5 87.699707,481.5 96.1992188,462 96.3994141,462 
		104.8999023,481.5 117,481.5 103.5,455.5 117,429.5 105.6503906,429.5 96.7998047,449.25 	"/>
	<polygon points="96.5996094,300.5 85.7998047,279.5 77,279.5 91.5,305.5 77,331.5 85.5996094,331.5 96.1992188,310.5 
		96.3994141,310.5 107,331.5 116,331.5 101.5,305.5 116,279.5 107.6005859,279.5 96.7998047,300.5 	"/>
	<polygon points="83.5800781,129.5 78,129.5 93.4101562,155.5 78,181.5 83.4799805,181.5 96.2998047,158.9404297 96.5,158.9404297 
		109.3198242,181.5 115,181.5 99.5898438,155.5 115,129.5 109.6201172,129.5 96.7001953,152.0595703 96.5,152.0595703 	"/>
	<polygon points="96.6000977,7.3803711 111.6396484,31.5 114,31.5 97.6801758,5.5 114,-20.5 111.6396484,-20.5 
		96.6000977,3.6196289 96.3999023,3.6196289 81.3603516,-20.5 79,-20.5 95.3198242,5.5 79,31.5 81.3603516,31.5 
		96.3999023,7.3803711 	"/>
</g>
<g>
	<polygon points="196.8994141,614.5 187.7998047,579.5 174,579.5 191,630.5 182.5,653.5 196.2998047,653.5 220,579.5 
		205.7998047,579.5 197.0996094,614.5 	"/>
	<polygon points="196.9995117,467.5 185.949707,429.5 175,429.5 192.25,480.5 184.1000977,503.5 195.1499023,503.5 219,429.5 
		207.6499023,429.5 197.199707,467.5 	"/>
	<polygon points="197.0996094,320.5 184.0996094,279.5 176,279.5 193.5,330.5 185.7001953,353.5 194,353.5 218,279.5 209.5,279.5 
		197.2998047,320.5 	"/>
	<polygon points="182.1147461,129.5 177,129.5 194.6499023,179.7490234 186.2802734,203.5 191.5,203.5 217,129.5 211.6801758,129.5 
		197.1362305,173.2792969 196.9360352,173.2792969 	"/>
	<polygon points="196.7724609,26.0585938 180.1298828,-20.5 178,-20.5 195.7998047,28.9985352 186.8603516,53.5 189,53.5 216,-20.5 
		213.8603516,-20.5 196.9726562,26.0585938 	"/>
</g>
<g>
	<polygon points="299,589.5 278,589.5 278,579.5 315,579.5 315,589.5 294,621.2998047 294,621.5 315,621.5 315,631.5 278,631.5 
		278,621.5 299,589.7001953 	"/>
	<polygon points="278.75,429.5 314.25,429.5 314.25,437.5996094 291.3500977,473.1992188 291.3500977,473.4003906 
		314.25,473.4003906 314.25,481.5 278.75,481.5 278.75,473.4003906 301.6499023,437.7998047 301.6499023,437.5996094 
		278.75,437.5996094 	"/>
	<polygon points="279.5,279.5 313.5,279.5 313.5,285.7001953 288.7001953,325.0996094 288.7001953,325.2998047 313.5,325.2998047 
		313.5,331.5 279.5,331.5 279.5,325.2998047 304.2998047,285.8994141 304.2998047,285.7001953 279.5,285.7001953 	"/>
	<polygon points="280.25,129.5 312.75,129.5 312.75,133.6000977 286.0703125,177.199707 286.0703125,177.3999023 
		312.75,177.3999023 312.75,181.5 280.25,181.5 280.25,177.3999023 306.9296875,133.7998047 306.9296875,133.6000977 
		280.25,133.6000977 	"/>
	<polygon points="309.5595703,-18.2998047 281,29.5 281,31.5 312,31.5 312,29.5 283.4404297,29.5 283.4404297,29.2998047 312,-18.5 
		312,-20.5 281,-20.5 281,-18.5 309.5595703,-18.5 	"/>
</g>
<g>
	<rect x="495.5" y="-49.5" width="2" height="103"/>
	<rect x="494.1503906" y="100.5" width="4.6992188" height="103"/>
	<rect x="492.7998047" y="250.5" width="7.4003906" height="103"/>
	<rect x="491.5253906" y="400.5" width="9.9492188" height="103"/>
	<rect x="490.25" y="550.5" width="12.5" height="103"/>
</g>
<g>
	<path d="M389.6669922,601.4003906c7.7304688-3.1328125,11.3339844-7.9296875,11.3339844-16.2333984V572.5
		c0-9.671875,0.3427734-10,8.6660156-10H416v-8h-11.6660156c-10.6201172,0-15.3330078,4.3613281-15.3330078,16v14.6679688
		c0,8.2714844-3.0263672,11.5820312-9.0009766,11.5820312h-4v9.5h4c5.9746094,0,9.0009766,3.3105469,9.0009766,11.5820312V632.5
		c0,11.6386719,4.7128906,16,15.3330078,16H416v-8h-6.3330078c-8.3232422,0-8.6660156-0.328125-8.6660156-10v-12.6669922
		c0-8.3037109-3.6035156-13.1005859-11.3339844-16.2333984V601.4003906z"/>
	<path d="M390.3334961,450.6503906c6.7495117-2.8857422,9.9169922-7.203125,9.9169922-15.5664062v-13.3837891
		c0-9.6904297,0.8110352-10.5,9.0830078-10.5H415V404.5h-9.6831055c-10.1030273,0-14.7666016,4.3398438-14.7666016,15.5v14.8339844
		c0,8.6123047-3.0180664,12.0410156-8.9003906,12.0410156H377v7.75h4.6499023c5.8823242,0,8.9003906,3.4287109,8.9003906,12.0410156
		V481.5c0,11.1601562,4.6635742,15.5,14.7666016,15.5H415v-6.7001953h-5.6665039c-8.2719727,0-9.0830078-0.8095703-9.0830078-10.5
		v-13.3837891c0-8.3632812-3.1674805-12.6806641-9.9169922-15.5664062V450.6503906z"/>
	<path d="M391,299.9003906c5.7680664-2.6391602,8.5-6.4775391,8.5-14.9003906v-14.0996094c0-9.7099609,1.2792969-11,9.5-11h5V254.5
		h-7.7001953c-9.5859375,0-14.2001953,4.3193359-14.2001953,15v15c0,8.953125-3.0097656,12.5-8.7998047,12.5H378v6h5.2998047
		c5.7900391,0,8.7998047,3.546875,8.7998047,12.5v15c0,10.6806641,4.6142578,15,14.2001953,15H414v-5.4003906h-5
		c-8.2207031,0-9.5-1.2900391-9.5-11V315c0-8.4228516-2.7319336-12.2617188-8.5-14.9003906V299.9003906z"/>
	<path d="M378.75,147.25v4h5.6499023c5.324707,0,8.3999023,4.324707,8.3999023,12.75v15.5
		c0,10.246582,4.1015625,14.5,13.1000977,14.5H412.75v-3.7001953h-5.5c-7.1113281,0-9.75-1.6655273-9.75-11.5V163.75
		c0-7.6674805-2.4970703-12.0615234-7.2519531-14.4003906v-0.199707C395.0029297,146.8105469,397.5,142.4169922,397.5,134.75
		v-15.0498047c0-9.8349609,2.6386719-11.5,9.75-11.5h5.5V104.5h-6.8500977c-8.9985352,0-13.1000977,4.2529297-13.1000977,14.5v15.5
		c0,8.425293-3.0751953,12.75-8.3999023,12.75H378.75z"/>
	<path d="M389.4960938-1.6005859C393.2382812-3.6396484,395.5-8.5888672,395.5-15.5v-16c0-9.9599609,3.9980469-12,10-12h6v-2h-6
		c-8.4111328,0-12,4.1865234-12,14v16c0,7.8974609-3.140625,13-8,13h-6v2h6c4.859375,0,8,5.1025391,8,13v16
		c0,9.8125,3.5888672,14,12,14h6v-2h-6c-6.0019531,0-10-2.0410156-10-12v-16c0-6.9121094-2.2617188-11.8613281-6.0039062-13.9003906
		V-1.6005859z"/>
</g>
<g>
	<path d="M603.3330078,601.4003906c-7.7304688-3.1328125-11.3339844-7.9296875-11.3339844-16.2333984V572.5
		c0-9.671875-0.3427734-10-8.6660156-10H577v-8h11.6660156c10.6201172,0,15.3330078,4.3613281,15.3330078,16v14.6679688
		c0,8.2714844,3.0263672,11.5820312,9.0009766,11.5820312h4v9.5h-4c-5.9746094,0-9.0009766,3.3105469-9.0009766,11.5820312V632.5
		c0,11.6386719-4.7128906,16-15.3330078,16H577v-8h6.3330078c8.3232422,0,8.6660156-0.328125,8.6660156-10v-12.6669922
		c0-8.3037109,3.6035156-13.1005859,11.3339844-16.2333984V601.4003906z"/>
	<path d="M602.6660156,450.6503906c-6.7490234-2.8857422-9.9160156-7.203125-9.9160156-15.5664062v-13.3837891
		c0-9.6904297-0.8115234-10.5-9.0839844-10.5H578V404.5h9.6835938c10.1025391,0,14.765625,4.3398438,14.765625,15.5v14.8339844
		c0,8.6123047,3.0185547,12.0410156,8.9003906,12.0410156H616v7.75h-4.6503906
		c-5.8818359,0-8.9003906,3.4287109-8.9003906,12.0410156V481.5c0,11.1601562-4.6630859,15.5-14.765625,15.5H578v-6.7001953
		h5.6660156c8.2724609,0,9.0839844-0.8095703,9.0839844-10.5v-13.3837891c0-8.3632812,3.1669922-12.6806641,9.9160156-15.5664062
		V450.6503906z"/>
	<path d="M602,299.9003906c-5.7675781-2.6391602-8.5-6.4775391-8.5-14.9003906v-14.0996094c0-9.7099609-1.2792969-11-9.5-11h-5
		V254.5h7.7001953c9.5859375,0,14.2001953,4.3193359,14.2001953,15v15c0,8.953125,3.0097656,12.5,8.7998047,12.5H615v6h-5.2998047
		c-5.7900391,0-8.7998047,3.546875-8.7998047,12.5v15c0,10.6806641-4.6142578,15-14.2001953,15H579v-5.4003906h5
		c8.2207031,0,9.5-1.2900391,9.5-11V315c0-8.4228516,2.7324219-12.2617188,8.5-14.9003906V299.9003906z"/>
	<path d="M614.25,147.25v4h-5.6503906c-5.3242188,0-8.3994141,4.324707-8.3994141,12.75v15.5
		c0,10.246582-4.1015625,14.5-13.1005859,14.5H580.25v-3.7001953h5.5c7.1113281,0,9.75-1.6655273,9.75-11.5V163.75
		c0-7.6674805,2.4970703-12.0615234,7.2519531-14.4003906v-0.199707C597.9970703,146.8105469,595.5,142.4169922,595.5,134.75
		v-15.0498047c0-9.8349609-2.6386719-11.5-9.75-11.5h-5.5V104.5h6.8496094c8.9990234,0,13.1005859,4.2529297,13.1005859,14.5v15.5
		c0,8.425293,3.0751953,12.75,8.3994141,12.75H614.25z"/>
	<path d="M603.5039062-1.6005859C599.7617188-3.6396484,597.5-8.5888672,597.5-15.5v-16c0-9.9599609-3.9980469-12-10-12h-6v-2h6
		c8.4111328,0,12,4.1865234,12,14v16c0,7.8974609,3.140625,13,8,13h6v2h-6c-4.859375,0-8,5.1025391-8,13v16
		c0,9.8125-3.5888672,14-12,14h-6v-2h6c6.0019531,0,10-2.0410156,10-12v-16c0-6.9121094,2.2617188-11.8613281,6.0039062-13.9003906
		V-1.6005859z"/>
</g>
<g>
	<path d="M715.5-4.5893555v2.6455078l-11.3037109,9.7895508c-1.3662109,1.1835938-2.5039062,2.0712891-3.6933594,1.8730469
		c-1.1240234-0.1894531-1.8242188-1.2587891-2.5595703-2.53125l-4.6191406-7.9980469
		c-0.7587891-1.315918-1.0507812-1.5429688-1.1582031-1.5605469c-0.1621094-0.0234375-0.6474609,0.1962891-2.0527344,1.4130859
		L677.5,9.9648438V7.3183594l11.3046875-9.7885742c1.3671875-1.184082,2.5039062-2.0737305,3.6933594-1.8735352
		c1.125,0.1899414,1.8242188,1.2597656,2.5585938,2.5332031L699.6757812,6.1875
		c0.7587891,1.3144531,1.0517578,1.5410156,1.1591797,1.5585938c0.1640625,0.0302734,0.6474609-0.1962891,2.0517578-1.4121094
		L715.5-4.5893555z"/>
	<path d="M677,161.4838867v-5.5063477l11.3662109-9.8427734c2.1591797-1.8701172,3.4931641-2.9047852,4.7294922-2.6972656
		c1.1337891,0.1914062,1.9248047,1.3466797,3.1269531,3.4301758l4.0429688,6.9970703
		c0.6650391,1.1518555,0.9560547,1.4838867,1.1933594,1.5249023c0.2773438,0.0478516,0.7675781-0.2597656,1.9902344-1.3173828
		L716,143.2021484v5.5058594l-11.3652344,9.84375c-2.1591797,1.8696289-3.4941406,2.9038086-4.7304688,2.6967773
		c-1.1328125-0.190918-1.9248047-1.3461914-3.1269531-3.4291992l-4.0429688-6.9970703
		c-0.6640625-1.1533203-0.9550781-1.4863281-1.1914062-1.5263672c-0.2773438-0.0458984-0.7685547,0.2597656-1.9912109,1.3178711
		L677,161.4838867z"/>
	<path d="M716.5,290.9941406v8.3662109l-11.4277344,9.8974609c-2.9511719,2.5556641-4.4833984,3.7363281-5.765625,3.5205078
		c-1.1425781-0.1923828-2.0263672-1.4335938-3.6962891-4.3271484l-3.4667969-5.9960938
		c-0.5693359-0.9902344-0.8583984-1.4296875-1.2246094-1.4921875c-0.390625-0.0683594-0.8886719,0.3232422-1.9287109,1.2226562
		L676.5,313.0029297v-8.3662109l11.4277344-9.8964844c2.9511719-2.5566406,4.4833984-3.7363281,5.765625-3.5214844
		c1.1425781,0.1933594,2.0253906,1.4335938,3.6962891,4.3271484l3.4667969,5.9960938
		c0.5703125,0.9892578,0.859375,1.4287109,1.2255859,1.4912109c0.390625,0.0683594,0.8896484-0.3232422,1.9287109-1.2226562
		L716.5,290.9941406z"/>
	<path d="M676,463.2421875v-9.8447266l11.7255859-9.9072266c3.0302734-2.5605469,4.6025391-3.7421875,5.9189453-3.5195312
		c1.1669922,0.1972656,2.0703125,1.4365234,3.7792969,4.3251953l3.5546875,5.9960938
		c0.5820312,0.9882812,0.8789062,1.4267578,1.2529297,1.4912109c0.4033203,0.0683594,0.9130859-0.3212891,1.9794922-1.2226562
		L717,439.7548828v9.8447266l-11.7265625,9.9082031c-3.0292969,2.5595703-4.6025391,3.7412109-5.9179688,3.5195312
		c-1.1679688-0.1982422-2.0712891-1.4375-3.7792969-4.3261719l-3.5546875-5.9960938
		c-0.5820312-0.9882812-0.8769531-1.4277344-1.2519531-1.4921875c-0.4023438-0.0683594-0.9121094,0.3222656-1.9794922,1.2226562
		L676,463.2421875z"/>
	<path d="M704.4111328,599.3105469L717.5,588.515625v11.3242188l-12.0244141,9.9179688
		c-3.109375,2.5634766-4.7226562,3.7460938-6.0712891,3.5175781c-1.1933594-0.203125-2.1162109-1.4414062-3.8632812-4.3242188
		l-3.640625-5.9960938c-0.5957031-0.9863281-0.8974609-1.4257812-1.2802734-1.4912109
		c-0.4140625-0.0693359-0.9355469,0.3193359-2.0302734,1.2226562L675.5,613.4824219v-11.3242188l12.0234375-9.9179688
		c3.109375-2.5644531,4.7226562-3.7470703,6.0712891-3.5175781c1.1923828,0.2021484,2.1162109,1.4394531,3.8642578,4.3232422
		l3.640625,5.9960938c0.5957031,0.9873047,0.8994141,1.4248047,1.28125,1.4902344
		C702.7958984,600.6015625,703.3164062,600.2138672,704.4111328,599.3105469z"/>
</g>
</svg>
