<?xml version="1.0" encoding="utf-8"?>
<!-- Generator: Adobe Illustrator 14.0.0, SVG Export Plug-In . SVG Version: 6.00 Build 43363)  -->
<!DOCTYPE svg PUBLIC "-//W3C//DTD SVG 1.1//EN" "http://www.w3.org/Graphics/SVG/1.1/DTD/svg11.dtd">
<svg version="1.1" id="レイヤー1" xmlns="http://www.w3.org/2000/svg" xmlns:xlink="http://www.w3.org/1999/xlink" x="0px"
	 y="0px" width="841.8896484px" height="595.2753906px" viewBox="0 0 841.8896484 595.2753906"
	 enable-background="new 0 0 841.8896484 595.2753906" xml:space="preserve">
<g>
	<rect x="71.5" y="-76.5" fill="none" stroke="#000000" stroke-width="0.25" width="50" height="150"/>
	<rect x="171.5" y="-76.5" fill="none" stroke="#000000" stroke-width="0.25" width="50" height="150"/>
	<rect x="271.5" y="-76.5" fill="none" stroke="#000000" stroke-width="0.25" width="50" height="150"/>
	<rect x="371.5" y="-76.5" fill="none" stroke="#000000" stroke-width="0.25" width="50" height="150"/>
	<rect x="471.5" y="-76.5" fill="none" stroke="#000000" stroke-width="0.25" width="50" height="150"/>
	<rect x="571.5" y="-76.5" fill="none" stroke="#000000" stroke-width="0.25" width="50" height="150"/>
	<rect x="671.5" y="-76.5" fill="none" stroke="#000000" stroke-width="0.25" width="50" height="150"/>
	<rect x="71.5" y="73.5" fill="none" stroke="#000000" stroke-width="0.25" width="50" height="150"/>
	<rect x="171.5" y="73.5" fill="none" stroke="#000000" stroke-width="0.25" width="50" height="150"/>
	<rect x="271.5" y="73.5" fill="none" stroke="#000000" stroke-width="0.25" width="50" height="150"/>
	<rect x="371.5" y="73.5" fill="none" stroke="#000000" stroke-width="0.25" width="50" height="150"/>
	<rect x="471.5" y="73.5" fill="none" stroke="#000000" stroke-width="0.25" width="50" height="150"/>
	<rect x="571.5" y="73.5" fill="none" stroke="#000000" stroke-width="0.25" width="50" height="150"/>
	<rect x="671.5" y="73.5" fill="none" stroke="#000000" stroke-width="0.25" width="50" height="150"/>
	<rect x="71.5" y="223.5" fill="none" stroke="#000000" stroke-width="0.25" width="50" height="150"/>
	<rect x="171.5" y="223.5" fill="none" stroke="#000000" stroke-width="0.25" width="50" height="150"/>
	<rect x="271.5" y="223.5" fill="none" stroke="#000000" stroke-width="0.25" width="50" height="150"/>
	<rect x="371.5" y="223.5" fill="none" stroke="#000000" stroke-width="0.25" width="50" height="150"/>
	<rect x="471.5" y="223.5" fill="none" stroke="#000000" stroke-width="0.25" width="50" height="150"/>
	<rect x="571.5" y="223.5" fill="none" stroke="#000000" stroke-width="0.25" width="50" height="150"/>
	<rect x="671.5" y="223.5" fill="none" stroke="#000000" stroke-width="0.25" width="50" height="150"/>
	<rect x="71.5" y="373.5" fill="none" stroke="#000000" stroke-width="0.25" width="50" height="150"/>
	<rect x="171.5" y="373.5" fill="none" stroke="#000000" stroke-width="0.25" width="50" height="150"/>
	<rect x="271.5" y="373.5" fill="none" stroke="#000000" stroke-width="0.25" width="50" height="150"/>
	<rect x="371.5" y="373.5" fill="none" stroke="#000000" stroke-width="0.25" width="50" height="150"/>
	<rect x="471.5" y="373.5" fill="none" stroke="#000000" stroke-width="0.25" width="50" height="150"/>
	<rect x="571.5" y="373.5" fill="none" stroke="#000000" stroke-width="0.25" width="50" height="150"/>
	<rect x="671.5" y="373.5" fill="none" stroke="#000000" stroke-width="0.25" width="50" height="150"/>
	<rect x="71.5" y="523.5" fill="none" stroke="#000000" stroke-width="0.25" width="50" height="150"/>
	<rect x="171.5" y="523.5" fill="none" stroke="#000000" stroke-width="0.25" width="50" height="150"/>
	<rect x="271.5" y="523.5" fill="none" stroke="#000000" stroke-width="0.25" width="50" height="150"/>
	<rect x="371.5" y="523.5" fill="none" stroke="#000000" stroke-width="0.25" width="50" height="150"/>
	<rect x="471.5" y="523.5" fill="none" stroke="#000000" stroke-width="0.25" width="50" height="150"/>
	<rect x="571.5" y="523.5" fill="none" stroke="#000000" stroke-width="0.25" width="50" height="150"/>
	<rect x="671.5" y="523.5" fill="none" stroke="#000000" stroke-width="0.25" width="50" height="150"/>
	<rect x="771.5" y="-76.5" fill="none" stroke="#000000" stroke-width="0.25" width="50" height="150"/>
	<rect x="771.5" y="73.5" fill="none" stroke="#000000" stroke-width="0.25" width="50" height="150"/>
	<rect x="771.5" y="223.5" fill="none" stroke="#000000" stroke-width="0.25" width="50" height="150"/>
	<rect x="771.5" y="373.5" fill="none" stroke="#000000" stroke-width="0.25" width="50" height="150"/>
	<rect x="771.5" y="523.5" fill="none" stroke="#000000" stroke-width="0.25" width="50" height="150"/>
</g>
<g>
	<polygon points="300.5,569.3007812 277.5,569.3007812 277.5,558.5 314.5,558.5 314.5,631.5 277.5,631.5 277.5,620.7001953 
		300.5,620.7001953 300.5,598 278.5,598 278.5,587.5 300.5,587.5 	"/>
	<polygon points="302.5498047,417.2001953 278.75,417.2001953 278.75,408.5 313.75,408.5 313.75,481.5 278.75,481.5 
		278.75,472.8007812 302.5498047,472.8007812 302.5498047,446.5 279.75,446.5 279.75,438.0498047 302.5498047,438.0498047 	"/>
	<polygon points="304.5996094,265.0996094 280,265.0996094 280,258.5 313,258.5 313,331.5 280,331.5 280,324.9003906 
		304.5996094,324.9003906 304.5996094,295 281,295 281,288.5996094 304.5996094,288.5996094 	"/>
	<polygon points="307.0498047,112.7998047 280.25,112.7998047 280.25,108.5 312.25,108.5 312.25,181.5 280.25,181.5 
		280.25,177.2001953 307.0498047,177.2001953 307.0498047,143.75 281.25,143.75 281.25,139.5498047 307.0498047,139.5498047 	"/>
	<polygon points="309.5,-39.5 280.5,-39.5 280.5,-41.5 311.5,-41.5 311.5,31.5 280.5,31.5 280.5,29.5 309.5,29.5 309.5,-7.5 
		281.5,-7.5 281.5,-9.5 309.5,-9.5 	"/>
</g>
<g>
	<g>
		<path d="M119.5,595h-13.5996094c0,21.4970703-4.4941406,26.9003906-9.4003906,26.9003906c-1.40625,0-2.9990234-0.2021484-4-0.5
			v-52.5996094c1-0.296875,2.59375-0.5,4-0.5c5.1425781,0,9.4003906,5.8085938,9.4003906,26.6992188H119.5
			c0-28.5800781-7.6074219-37.5-23-37.5c-5.0957031,0-13.3056641,0.6992188-18,1.5v72c4.6904297,0.8115234,12.9042969,1.5,18,1.5
			C111.4960938,632.5,119.5,624.0429688,119.5,595z"/>
		<rect x="72" y="588.5" width="29" height="12"/>
	</g>
	<g>
		<path d="M119,445c0,28.7001953-8.4165039,37.5-23.6499023,37.5c-4.734375,0-11.5083008-0.6347656-15.8500977-1.5v-72
			c4.34375-0.8603516,11.1157227-1.5,15.8500977-1.5C110.9648438,407.5,119,416.7910156,119,445h-10.8999023
			c0-22.2773438-5.1118164-28.7998047-12.75-28.7998047c-1.6699219,0-3.5625,0.2646484-4.75,0.6494141V473.25
			c1.1875,0.3876953,3.0795898,0.6503906,4.75,0.6503906c7.5991211,0,12.75-5.6894531,12.75-28.9003906H119z"/>
		<rect x="72.5" y="439.25" width="28.5" height="9.5996094"/>
	</g>
	<g>
		<path d="M118.5,295c0,28.3574219-8.8291016,37.5-24.2998047,37.5c-4.3730469,0-9.7070312-0.5800781-13.7001953-1.5v-72
			c3.9931641-0.9199219,9.3271484-1.5,13.7001953-1.5C110.0371094,257.5,118.5,267.1621094,118.5,295h-8.2001953
			c0-23.6640625-5.9658203-30.9003906-16.0996094-30.9003906c-1.9335938,0-4.125,0.3251953-5.5,0.7998047v60.2011719
			c1.3740234,0.4765625,3.5654297,0.7998047,5.5,0.7998047c10.2919922,0,16.0996094-5.9755859,16.0996094-30.9003906H118.5z"/>
		<rect x="73" y="290" width="28" height="7.2001953"/>
	</g>
	<g>
		<path d="M112.6499023,144.5H117.75c0,27.671875-8.003418,38-23.6499023,38c-4.105957,0-9.1601562-0.5366211-12.8500977-1.3730469
			v-72.2539062C84.7592773,108.0771484,90.0083008,107.5,94.1000977,107.5c15.9418945,0,23.6499023,10.1181641,23.6499023,37
			H112.6499023c0-24.0844727-6.0249023-32.7001953-18.5498047-32.7001953c-2.4277344,0-5.5537109,0.3510742-7.75,0.8486328
			v64.706543c2.2148438,0.5092773,5.2163086,0.8452148,7.75,0.8452148
			C104.4384766,178.2001953,112.6499023,173.0444336,112.6499023,144.5z"/>
		<rect x="73.5" y="141" width="27.5" height="4.6000977"/>
	</g>
	<g>
		<path d="M115-6c0,32.1640625-10.6152344,36.5-21,36.5c-3.1328125,0-6.9443359-0.3486328-10-0.890625v-69.2119141
			C87.0175781-40.1230469,91.078125-40.5,94-40.5C108.9160156-40.5,115-30.5048828,115-6h2c0-25.9257812-6.953125-36.5-23-36.5
			c-3.8105469,0-8.9746094,0.5742188-12,1.2460938v72.5078125C85.3867188,32.0068359,90.1611328,32.5,94,32.5
			c15.8222656,0,23-11.5136719,23-38.5H115z"/>
		<rect x="74" y="-8" width="27" height="2"/>
	</g>
</g>
<g>
	<path d="M199.6826172,568.3007812C205.1435547,568.3007812,208,574.109375,208,595
		c0,21.4970703-3.0136719,26.9003906-8.3173828,26.9003906c-0.9433594,0-2.0107422-0.2021484-2.6826172-0.5V565.5h-13V631
		c3.9443359,0.8115234,10.8515625,1.5,15.1367188,1.5C214.2695312,632.5,221,624.0429688,221,595
		c0-28.5830078-6.3964844-37.5-24-37.5c-19.875,0-25,5.0185547-25,20c0,3.5908203,0.2753906,6.4179688,1,10h9.5
		c-0.6894531-2.8251953-1-5.1035156-1-7.5C181.5,568.8486328,182.09375,568.3007812,199.6826172,568.3007812z"/>
	<path d="M198.3803711,416.2001953C182.3720703,416.2001953,181,417.3916016,181,427.875
		c0,2.4638672,0.4443359,4.8867188,1.375,7.625H174c-0.8774414-3.3320312-1.25-6.1347656-1.25-9.5
		c0-13.6894531,5.3388672-18.5,23.75-18.5c16.112793,0,23.25,9.2890625,23.25,37.5c0,28.6992188-7.0620117,37.5-21.9448242,37.5
		c-3.9731445,0-9.6611328-0.6347656-13.3051758-1.5v-67.125H195v59.375
		c0.8457031,0.3876953,2.1918945,0.6503906,3.3803711,0.6503906C205.5898438,473.9003906,209.25,468.2109375,209.25,445
		C209.25,422.7226562,205.6098633,416.2001953,198.3803711,416.2001953z"/>
	<path d="M197.078125,264.0996094c-14.4277344,0-16.578125,1.8349609-16.578125,11.6503906c0,2.53125,0.578125,5.0996094,1.75,7.75
		H175c-1.0302734-3.0810547-1.5-5.8613281-1.5-9c0-12.3974609,5.5527344-17,22.5-17c14.6220703,0,22.5,9.6611328,22.5,37.5
		c0,28.3564453-7.3935547,37.5-22.0263672,37.5C192.8125,332.5,188.34375,331.9199219,185,331v-68.75h8v62.8505859
		c1.0195312,0.4765625,2.6445312,0.7998047,4.078125,0.7998047C206.1933594,325.9003906,210.5,319.9248047,210.5,295
		C210.5,271.3359375,206.0761719,264.0996094,197.078125,264.0996094z"/>
	<path d="M185.5,181.1269531V110.625h5v66.7573242c1.7446289,0.4931641,4.0708008,0.8178711,6.0390625,0.8178711
		c9.0078125,0,15.7109375-5.15625,15.7109375-33.7001953c0-26.1962891-6.0380859-32.7001953-16.7109375-32.7001953
		c-14.684082,0-16.7890625,3.8012695-16.7890625,11.8251953c0,2.5991211,0.6303711,5.2441406,1.875,7.875h-4.7304688
		C174.7871094,128.6455078,174.25,125.9125977,174.25,123c0-10.7895508,5.3930664-15.5,20.75-15.5
		c14.8881836,0,22.25,9.3076172,22.25,37c0,28.8515625-7.3896484,38-21.0131836,38
		C192.8066406,182.5,188.5830078,181.9633789,185.5,181.1269531z"/>
	<path d="M177-28.5c0-6.2324219,2.0595703-12,17-12c12.3476562,0,20,5.7714844,20,34.5c0,32.1630859-9.0996094,36.5-18,36.5
		c-2.5029297,0-5.5302734-0.3261719-8-0.8359375V-41h-2v72.2539062C188.8222656,32.0068359,192.8007812,32.5,196,32.5
		c12.6142578,0,20-9.1533203,20-38.5c0-27.5458984-6.8457031-36.5-22-36.5c-13.7666016,0-19,4.8183594-19,14
		c0,2.6865234,0.6044922,5.3720703,1.7890625,8H179C177.6826172-23.1113281,177-25.8330078,177-28.5z"/>
</g>
<g>
	<path d="M405.5,595c0,22.3085938-2.6328125,26.7001953-9.5,26.7001953c-5.5429688,0-8.4101562-4.2773438-8.5-21.2001953h23V589
		h-35.75c-0.1630859,1.7255859-0.25,3.9199219-0.25,6c0,27.5703125,7.1064453,37.5,22,37.5c14.3105469,0,22-10.0546875,22-37.5
		c0-27.09375-8.8662109-37.5-24.5-37.5c-6.0966797,0-11.4902344,1.1669922-16.5,3.5v11.5498047
		c6.4189453-3.4990234,9.0673828-4.25,13.5-4.25C401.7519531,568.2998047,405.5,572.9521484,405.5,595z"/>
	<path d="M407,445c0,23.796875-3.3286133,28.8007812-11,28.8007812c-6.378418,0-9.8911133-5.2597656-9.9980469-23.9882812
		h25.2333984v-9.25H375.6875c-0.1225586,1.3574219-0.1875,3.2519531-0.1875,4.8125c0,27.5488281,6.7978516,37.125,20.625,37.125
		c14.0356445,0,21.375-9.8183594,21.375-37.5c0-27.1884766-8.4179688-37.5-23.375-37.5
		c-5.6987305,0-11.0561523,1.1738281-15.875,3.5v9.3867188c5.8325195-3.2353516,9.1767578-4.1875,13.625-4.1875
		C402.5253906,416.1992188,407,421.9580078,407,445z"/>
	<path d="M408.5,295c0,25.2841797-4.0244141,30.9003906-12.5,30.9003906c-7.2138672,0-11.3720703-6.2412109-11.4960938-26.7753906
		h27.4667969v-7H376.625c-0.0820312,0.9882812-0.125,2.5849609-0.125,3.625c0,27.5283203,6.4892578,36.75,19.25,36.75
		c13.7607422,0,20.75-9.5820312,20.75-37.5c0-27.2832031-7.9697266-37.5-22.25-37.5c-5.3007812,0-10.6220703,1.1816406-15.25,3.5
		v7.2246094c5.2460938-2.9726562,9.2861328-4.125,13.75-4.125C403.2988281,264.0996094,408.5,270.9638672,408.5,295z"/>
	<path fill="#110C0A" d="M379.75,115.8623047c4.6591797-2.7099609,9.3959961-4.0625,13.875-4.0625
		c9.4648438,0,16.875,5.449707,16.875,33.2001953c0,28.2416992-5.9775391,33.2001953-14.5,33.2001953
		c-7.5859375,0-13.3481445-5.1420898-13.4941406-29.8876953h30.2001953v-4.5H377.5625
		c-0.0410156,0.4941406-0.0625,1.7924805-0.0625,2.3125c0,27.440918,6.2368164,36.375,18.375,36.375
		c12.9462891,0,19.625-9.3183594,19.625-37.5c0-27.3588867-7.5405273-37.5-21.125-37.5
		c-4.9023438,0-10.1879883,1.2988281-14.625,3.6088867V115.8623047z"/>
	<path d="M413.4414062-4.5H378.5v1c0,27.3535156,5.984375,36,17.5,36c12.1318359,0,18.5-9.0546875,18.5-37.5
		c0-27.4345703-7.1113281-37.5-20-37.5c-4.5039062,0-9.7539062,1.4160156-14,3.7177734V-36.5c4.0722656-2.4472656,9.5058594-4,14-4
		c8.3808594,0,18,4.0351562,18,35.5c0,31.1992188-7.9306641,35.5-16.5,35.5c-7.9580078,0-15.3242188-4.0429688-15.4921875-33
		h32.9335938V-4.5z"/>
</g>
</svg>
