<?xml version="1.0" encoding="utf-8"?>
<!-- Generator: Adobe Illustrator 15.0.2, SVG Export Plug-In . SVG Version: 6.00 Build 0)  -->
<!DOCTYPE svg PUBLIC "-//W3C//DTD SVG 1.1//EN" "http://www.w3.org/Graphics/SVG/1.1/DTD/svg11.dtd">
<svg version="1.1" id="レイヤー1" xmlns="http://www.w3.org/2000/svg" xmlns:xlink="http://www.w3.org/1999/xlink" x="0px"
	 y="0px" width="841.8896484px" height="595.2753906px" viewBox="0 0 841.8896484 595.2753906"
	 enable-background="new 0 0 841.8896484 595.2753906" xml:space="preserve">
<g>
	<rect x="71.5" y="-76.5" fill="none" stroke="#000000" stroke-width="0.25" width="50" height="150"/>
	<rect x="171.5" y="-76.5" fill="none" stroke="#000000" stroke-width="0.25" width="50" height="150"/>
	<rect x="271.5" y="-76.5" fill="none" stroke="#000000" stroke-width="0.25" width="50" height="150"/>
	<rect x="371.5" y="-76.5" fill="none" stroke="#000000" stroke-width="0.25" width="50" height="150"/>
	<rect x="471.5" y="-76.5" fill="none" stroke="#000000" stroke-width="0.25" width="50" height="150"/>
	<rect x="571.5" y="-76.5" fill="none" stroke="#000000" stroke-width="0.25" width="50" height="150"/>
	<rect x="671.5" y="-76.5" fill="none" stroke="#000000" stroke-width="0.25" width="50" height="150"/>
	<rect x="71.5" y="73.5" fill="none" stroke="#000000" stroke-width="0.25" width="50" height="150"/>
	<rect x="171.5" y="73.5" fill="none" stroke="#000000" stroke-width="0.25" width="50" height="150"/>
	<rect x="271.5" y="73.5" fill="none" stroke="#000000" stroke-width="0.25" width="50" height="150"/>
	<rect x="371.5" y="73.5" fill="none" stroke="#000000" stroke-width="0.25" width="50" height="150"/>
	<rect x="471.5" y="73.5" fill="none" stroke="#000000" stroke-width="0.25" width="50" height="150"/>
	<rect x="571.5" y="73.5" fill="none" stroke="#000000" stroke-width="0.25" width="50" height="150"/>
	<rect x="671.5" y="73.5" fill="none" stroke="#000000" stroke-width="0.25" width="50" height="150"/>
	<rect x="71.5" y="223.5" fill="none" stroke="#000000" stroke-width="0.25" width="50" height="150"/>
	<rect x="171.5" y="223.5" fill="none" stroke="#000000" stroke-width="0.25" width="50" height="150"/>
	<rect x="271.5" y="223.5" fill="none" stroke="#000000" stroke-width="0.25" width="50" height="150"/>
	<rect x="371.5" y="223.5" fill="none" stroke="#000000" stroke-width="0.25" width="50" height="150"/>
	<rect x="471.5" y="223.5" fill="none" stroke="#000000" stroke-width="0.25" width="50" height="150"/>
	<rect x="571.5" y="223.5" fill="none" stroke="#000000" stroke-width="0.25" width="50" height="150"/>
	<rect x="671.5" y="223.5" fill="none" stroke="#000000" stroke-width="0.25" width="50" height="150"/>
	<rect x="71.5" y="373.5" fill="none" stroke="#000000" stroke-width="0.25" width="50" height="150"/>
	<rect x="171.5" y="373.5" fill="none" stroke="#000000" stroke-width="0.25" width="50" height="150"/>
	<rect x="271.5" y="373.5" fill="none" stroke="#000000" stroke-width="0.25" width="50" height="150"/>
	<rect x="371.5" y="373.5" fill="none" stroke="#000000" stroke-width="0.25" width="50" height="150"/>
	<rect x="471.5" y="373.5" fill="none" stroke="#000000" stroke-width="0.25" width="50" height="150"/>
	<rect x="571.5" y="373.5" fill="none" stroke="#000000" stroke-width="0.25" width="50" height="150"/>
	<rect x="671.5" y="373.5" fill="none" stroke="#000000" stroke-width="0.25" width="50" height="150"/>
	<rect x="71.5" y="523.5" fill="none" stroke="#000000" stroke-width="0.25" width="50" height="150"/>
	<rect x="171.5" y="523.5" fill="none" stroke="#000000" stroke-width="0.25" width="50" height="150"/>
	<rect x="271.5" y="523.5" fill="none" stroke="#000000" stroke-width="0.25" width="50" height="150"/>
	<rect x="371.5" y="523.5" fill="none" stroke="#000000" stroke-width="0.25" width="50" height="150"/>
	<rect x="471.5" y="523.5" fill="none" stroke="#000000" stroke-width="0.25" width="50" height="150"/>
	<rect x="571.5" y="523.5" fill="none" stroke="#000000" stroke-width="0.25" width="50" height="150"/>
	<rect x="671.5" y="523.5" fill="none" stroke="#000000" stroke-width="0.25" width="50" height="150"/>
	<rect x="771.5" y="-76.5" fill="none" stroke="#000000" stroke-width="0.25" width="50" height="150"/>
	<rect x="771.5" y="73.5" fill="none" stroke="#000000" stroke-width="0.25" width="50" height="150"/>
	<rect x="771.5" y="223.5" fill="none" stroke="#000000" stroke-width="0.25" width="50" height="150"/>
	<rect x="771.5" y="373.5" fill="none" stroke="#000000" stroke-width="0.25" width="50" height="150"/>
	<rect x="771.5" y="523.5" fill="none" stroke="#000000" stroke-width="0.25" width="50" height="150"/>
</g>
<g>
	<g>
		<polygon points="96.4785156,-25.6542969 95,-27 75,-5 95,17 96.4785156,15.6542969 77.703125,-5 		"/>
		<rect x="77" y="-6" width="41" height="2"/>
	</g>
	<g>
		<polygon points="98.3632812,125.3925781 95.25,122.5 74.5,145 95.25,167.5 98.3632812,164.6083984 80.300293,145 		"/>
		<rect x="78.1245117" y="142.875" width="40.3754883" height="4.25"/>
	</g>
	<g>
		<polygon points="100.2480469,276.4394531 95.5,272 74,295 95.5,318 100.2480469,313.5625 82.8974609,295 		"/>
		<rect x="79.2490234" y="291.75" width="39.7509766" height="6.5"/>
	</g>
	<g>
		<polygon points="101.7329102,427.1796875 95.75,421.5 73.5,445 95.75,468.5 101.7329102,462.8222656 84.8735352,445 		"/>
		<rect x="80.3745117" y="440.875" width="39.1254883" height="8.25"/>
	</g>
	<g>
		<polygon points="103.2177734,577.9199219 96,571 73,595 96,619 103.2177734,612.0820312 86.8496094,595 		"/>
		<rect x="81.5" y="590" width="38.5" height="10"/>
	</g>
</g>
<g>
	<g>
		<polygon points="296.5195312,-25.6542969 297.9990234,-27 317.9990234,-5 297.9990234,17 296.5195312,15.6542969 315.2958984,-5 
					"/>
		<rect x="274.9990234" y="-6" width="41" height="2"/>
	</g>
	<g>
		<polygon points="294.6357422,125.3925781 297.7490234,122.5 318.4990234,145 297.7490234,167.5 294.6357422,164.6083984 
			312.6992188,145 		"/>
		<rect x="274.4990234" y="142.875" width="40.3754883" height="4.25"/>
	</g>
	<g>
		<polygon points="292.7519531,276.4394531 297.4990234,272 318.9990234,295 297.4990234,318 292.7519531,313.5625 310.1025391,295 
					"/>
		<rect x="273.9990234" y="291.75" width="39.7509766" height="6.5"/>
	</g>
	<g>
		<polygon points="291.265625,427.1796875 297.2490234,421.5 319.4990234,445 297.2490234,468.5 291.265625,462.8222656 
			308.1259766,445 		"/>
		<rect x="273.4990234" y="440.875" width="39.1254883" height="8.25"/>
	</g>
	<g>
		<polygon points="289.7792969,577.9199219 296.9990234,571 319.9990234,595 296.9990234,619 289.7792969,612.0820312 
			306.1494141,595 		"/>
		<rect x="272.9990234" y="590" width="38.5" height="10"/>
	</g>
</g>
<g>
	<g>
		<polygon points="375.8457031,11.0214844 374.5,12.5 396.5,32.5 418.5,12.5 417.1542969,11.0214844 396.5,29.796875 		"/>
		<rect x="395.5" y="-41.5" width="2" height="72"/>
	</g>
	<g>
		<polygon points="376.8920898,158.6367188 374,161.75 396.5,182.5 419,161.75 416.1079102,158.6367188 396.5,176.7001953 		"/>
		<rect x="394.375" y="108.5" width="4.25" height="70.375"/>
	</g>
	<g>
		<polygon points="377.9384766,306.2519531 373.5,311 396.5,332.5 419.5,311 415.0615234,306.2519531 396.5,323.6035156 		"/>
		<rect x="393.25" y="258.5" width="6.5" height="68.75"/>
	</g>
	<g>
		<polygon points="378.6787109,454.2666016 373,460.25 396.5,482.5 420,460.25 414.3208008,454.2666016 396.5,471.1269531 		"/>
		<rect x="392.375" y="408.5" width="8.25" height="67.125"/>
	</g>
	<g>
		<polygon points="379.4189453,602.28125 372.5,609.5 396.5,632.5 420.5,609.5 413.5800781,602.28125 396.5,618.6503906 		"/>
		<rect x="391.5" y="558.5" width="10" height="65.5"/>
	</g>
</g>
<g>
	<g>
		<polygon points="217.1542969,-21.0195312 218.4990234,-22.5 196.5,-42.5 174.5,-22.5 175.8457031,-21.0195312 196.5,-39.796875 		
			"/>
		<rect x="195.5" y="-40.5" width="2" height="72"/>
	</g>
	<g>
		<polygon points="216.1079102,131.3642578 218.9990234,128.25 196.5,107.5 174,128.25 176.8916016,131.3642578 196.5,113.3007812 
					"/>
		<rect x="194.3745117" y="111.125" width="4.25" height="70.375"/>
	</g>
	<g>
		<polygon points="215.0615234,283.7480469 219.4990234,279 196.5,257.5 173.5,279 177.9375,283.7480469 196.5,266.3984375 		"/>
		<rect x="193.2490234" y="262.75" width="6.5" height="68.75"/>
	</g>
	<g>
		<polygon points="214.3208008,435.734375 219.9990234,429.75 196.5,407.5 173,429.75 178.6772461,435.734375 196.5,418.875 		"/>
		<rect x="192.3745117" y="414.375" width="8.25" height="67.125"/>
	</g>
	<g>
		<polygon points="213.5800781,587.7207031 220.4990234,580.5 196.5,557.5 172.5,580.5 179.4169922,587.7207031 196.5,571.3515625 
					"/>
		<rect x="191.5" y="566" width="10" height="65.5"/>
	</g>
</g>
<g>
	<g>
		<polygon points="713.7578125,-27.0878906 714.5175781,-28.9394531 687.0068359,-40.2070312 673.1728516,-13.890625 
			674.9414062,-12.9609375 687.9277344,-37.6679688 		"/>
		
			<rect x="663.9990845" y="-5.502327" transform="matrix(-0.342073 -0.9396734 0.9396734 -0.342073 943.6796265 651.7320557)" width="72.0018311" height="2.0046535"/>
	</g>
	<g>
		<polygon points="713.5898438,125.5097656 715.2441406,121.5947266 687.0068359,109.7919922 672.9580078,136.9853516 
			676.7392578,138.921875 688.9882812,115.2421875 		"/>
		
			<rect x="665.0900879" y="144.1369629" transform="matrix(-0.3420405 -0.9396852 0.9396852 -0.3420405 802.3598633 854.3318481)" width="70.3755417" height="4.2524319"/>
	</g>
	<g>
		<polygon points="713.4228516,278.1074219 715.9697266,272.1289062 687.0068359,259.7910156 672.7431641,287.8613281 
			678.5371094,290.8046875 690.0478516,268.1523438 		"/>
		
			<rect x="666.1803589" y="293.7762756" transform="matrix(-0.342019 -0.939693 0.939693 -0.342019 661.0447388 1056.921875)" width="68.7495956" height="6.5002103"/>
	</g>
	<g>
		<polygon points="713.40625,430.2275391 716.6962891,422.6630859 687.0068359,409.7919922 672.5302734,438.7373047 
			679.9121094,442.4179688 690.8935547,420.4804688 		"/>
		
			<rect x="667.2705688" y="443.6653442" transform="matrix(-0.3420047 -0.9396983 0.9396983 -0.3420047 519.7336426 1259.5079346)" width="67.1249008" height="8.2493906"/>
	</g>
	<g>
		<polygon points="713.3896484,582.3476562 717.4228516,573.1972656 687.0068359,559.7929688 672.3173828,589.6132812 
			681.2880859,594.03125 691.7392578,572.8085938 		"/>
		
			<rect x="668.3604126" y="593.5544434" transform="matrix(-0.342016 -0.9396941 0.9396941 -0.342016 378.4445496 1462.0983887)" width="65.5008698" height="9.9985714"/>
	</g>
</g>
<g>
	<g>
		<polygon points="779.2402344,-27.0878906 778.4824219,-28.9394531 805.9960938,-40.2070312 819.828125,-13.890625 
			818.0576172,-12.9609375 805.0722656,-37.6679688 		"/>
		
			<rect x="756.9997559" y="-5.5004916" transform="matrix(0.3420251 -0.9396908 0.9396908 0.3420251 526.0026855 742.2139282)" width="72.0004959" height="2.0009832"/>
	</g>
	<g>
		<polygon points="779.4091797,125.5097656 777.7558594,121.5947266 805.9960938,109.7919922 820.0429688,136.9853516 
			816.2617188,138.921875 804.0126953,115.2421875 		"/>
		
			<rect x="757.5340576" y="144.1378784" transform="matrix(0.3420283 -0.9396896 0.9396896 0.3420283 384.1464233 841.1494141)" width="70.3752136" height="4.2505965"/>
	</g>
	<g>
		<polygon points="779.578125,278.1074219 777.0302734,272.1289062 805.9960938,259.7910156 820.2568359,287.8613281 
			814.4648438,290.8046875 802.953125,268.1523438 		"/>
		
			<rect x="758.0685425" y="293.7767334" transform="matrix(0.342019 -0.939693 0.939693 0.342019 242.2990723 940.0911865)" width="68.7495956" height="6.4992924"/>
	</g>
	<g>
		<polygon points="779.59375,430.2275391 776.3046875,422.6630859 805.9960938,409.7919922 820.46875,438.7373047 
			813.0898438,442.4179688 802.1064453,420.4804688 		"/>
		
			<rect x="758.6029053" y="443.6653442" transform="matrix(0.3420176 -0.9396936 0.9396936 0.3420176 100.4455566 1039.0307617)" width="67.1252365" height="8.2493906"/>
	</g>
	<g>
		<polygon points="779.6103516,582.3476562 775.578125,573.1972656 805.9960938,559.7929688 820.6816406,589.6132812 
			811.7148438,594.03125 801.2597656,572.8085938 		"/>
		
			<rect x="759.1377563" y="593.5535278" transform="matrix(0.342016 -0.9396941 0.9396941 0.342016 -41.4076538 1137.9714355)" width="65.5008698" height="10.0004063"/>
	</g>
</g>
<g>
	<g>
		<polygon points="492.1416016,-26.8574219 490.5,-28 474.5,-5 490.5,18 492.1416016,16.8574219 476.9355469,-5 		"/>
		<polygon points="500.8583984,-26.8574219 502.5,-28 518.5,-5 502.5,18 500.8583984,16.8574219 516.0625,-5 		"/>
		<rect x="476.5" y="-6" width="40" height="2"/>
	</g>
	<g>
		<polygon points="492.8652344,123.6611328 489.5,121.5 474,145 489.5,168.5 492.8652344,166.3388672 478.7558594,145 		"/>
		<polygon points="500.1347656,123.6611328 503.5,121.5 519,145 503.5,168.5 500.1347656,166.3388672 514.2431641,145 		"/>
		<rect x="477.625" y="142.875" width="37.75" height="4.25"/>
	</g>
	<g>
		<polygon points="493.5888672,274.1796875 488.5,271 473.5,295 488.5,319 493.5888672,315.8203125 480.5761719,295 		"/>
		<polygon points="499.4121094,274.1796875 504.5,271 519.5,295 504.5,319 499.4121094,315.8203125 512.4238281,295 		"/>
		<rect x="478.75" y="291.75" width="35.5" height="6.5"/>
	</g>
	<g>
		<polygon points="493.9707031,424.2890625 487.5,420.5 473,445 487.5,469.5 493.9707031,465.7119141 481.6953125,445 		"/>
		<polygon points="499.0292969,424.2890625 505.5,420.5 520,445 505.5,469.5 499.0292969,465.7119141 511.3046875,445 		"/>
		<rect x="479.875" y="440.875" width="33.25" height="8.25"/>
	</g>
	<g>
		<polygon points="494.3515625,574.3984375 486.5,570 472.5,595 486.5,620 494.3515625,615.6035156 482.8144531,595 		"/>
		<polygon points="498.6464844,574.3984375 506.5,570 520.5,595 506.5,620 498.6464844,615.6035156 510.1855469,595 		"/>
		<rect x="481" y="590" width="31" height="10"/>
	</g>
</g>
<g>
	<g>
		<polygon points="617.1542969,-21.0195312 618.5,-22.5 596.5,-42.5 574.5,-22.5 575.8457031,-21.0195312 596.5,-39.796875 		"/>
		<rect x="595.5" y="-40.5" width="2" height="71"/>
		<polygon points="575.8457031,11.0214844 574.5,12.5 596.5,32.5 618.5,12.5 617.1542969,11.0214844 596.5,29.796875 		"/>
	</g>
	<g>
		<polygon points="616.1074219,131.3642578 619,128.25 596.5,107.5 574,128.25 576.8925781,131.3642578 596.5,113.3007812 		"/>
		<rect x="594.375" y="111.125" width="4.25" height="67.75"/>
		<polygon points="576.8925781,158.6367188 574,161.75 596.5,182.5 619,161.75 616.1074219,158.6367188 596.5,176.7001953 		"/>
	</g>
	<g>
		<polygon points="615.0615234,283.7480469 619.5,279 596.5,257.5 573.5,279 577.9384766,283.7480469 596.5,266.3984375 		"/>
		<rect x="593.25" y="262.75" width="6.5" height="64.5"/>
		<polygon points="577.9384766,306.2519531 573.5,311 596.5,332.5 619.5,311 615.0615234,306.2519531 596.5,323.6035156 		"/>
	</g>
	<g>
		<polygon points="614.3203125,435.734375 620,429.75 596.5,407.5 573,429.75 578.6787109,435.734375 596.5,418.875 		"/>
		<rect x="592.375" y="414.375" width="8.25" height="61.25"/>
		<polygon points="578.6787109,454.2666016 573,460.25 596.5,482.5 620,460.25 614.3203125,454.2666016 596.5,471.1269531 		"/>
	</g>
	<g>
		<polygon points="613.5800781,587.7207031 620.5,580.5 596.5,557.5 572.5,580.5 579.4189453,587.7207031 596.5,571.3515625 		"/>
		<rect x="591.5" y="566" width="10" height="58"/>
		<polygon points="579.4189453,602.28125 572.5,609.5 596.5,632.5 620.5,609.5 613.5800781,602.28125 596.5,618.6503906 		"/>
	</g>
</g>
</svg>
