<?xml version="1.0" encoding="utf-8"?>
<!-- Generator: Adobe Illustrator 15.0.2, SVG Export Plug-In . SVG Version: 6.00 Build 0)  -->
<!DOCTYPE svg PUBLIC "-//W3C//DTD SVG 1.1//EN" "http://www.w3.org/Graphics/SVG/1.1/DTD/svg11.dtd">
<svg version="1.1" id="レイヤー1" xmlns="http://www.w3.org/2000/svg" xmlns:xlink="http://www.w3.org/1999/xlink" x="0px"
	 y="0px" width="841.8896484px" height="595.2753906px" viewBox="0 0 841.8896484 595.2753906"
	 enable-background="new 0 0 841.8896484 595.2753906" xml:space="preserve">
<g>
	<rect x="71.5" y="-76.5" fill="none" stroke="#000000" stroke-width="0.25" width="50" height="150"/>
	<rect x="171.5" y="-76.5" fill="none" stroke="#000000" stroke-width="0.25" width="50" height="150"/>
	<rect x="271.5" y="-76.5" fill="none" stroke="#000000" stroke-width="0.25" width="50" height="150"/>
	<rect x="371.5" y="-76.5" fill="none" stroke="#000000" stroke-width="0.25" width="50" height="150"/>
	<rect x="471.5" y="-76.5" fill="none" stroke="#000000" stroke-width="0.25" width="50" height="150"/>
	<rect x="571.5" y="-76.5" fill="none" stroke="#000000" stroke-width="0.25" width="50" height="150"/>
	<rect x="671.5" y="-76.5" fill="none" stroke="#000000" stroke-width="0.25" width="50" height="150"/>
	<rect x="71.5" y="73.5" fill="none" stroke="#000000" stroke-width="0.25" width="50" height="150"/>
	<rect x="171.5" y="73.5" fill="none" stroke="#000000" stroke-width="0.25" width="50" height="150"/>
	<rect x="271.5" y="73.5" fill="none" stroke="#000000" stroke-width="0.25" width="50" height="150"/>
	<rect x="371.5" y="73.5" fill="none" stroke="#000000" stroke-width="0.25" width="50" height="150"/>
	<rect x="471.5" y="73.5" fill="none" stroke="#000000" stroke-width="0.25" width="50" height="150"/>
	<rect x="571.5" y="73.5" fill="none" stroke="#000000" stroke-width="0.25" width="50" height="150"/>
	<rect x="671.5" y="73.5" fill="none" stroke="#000000" stroke-width="0.25" width="50" height="150"/>
	<rect x="71.5" y="223.5" fill="none" stroke="#000000" stroke-width="0.25" width="50" height="150"/>
	<rect x="171.5" y="223.5" fill="none" stroke="#000000" stroke-width="0.25" width="50" height="150"/>
	<rect x="271.5" y="223.5" fill="none" stroke="#000000" stroke-width="0.25" width="50" height="150"/>
	<rect x="371.5" y="223.5" fill="none" stroke="#000000" stroke-width="0.25" width="50" height="150"/>
	<rect x="471.5" y="223.5" fill="none" stroke="#000000" stroke-width="0.25" width="50" height="150"/>
	<rect x="571.5" y="223.5" fill="none" stroke="#000000" stroke-width="0.25" width="50" height="150"/>
	<rect x="671.5" y="223.5" fill="none" stroke="#000000" stroke-width="0.25" width="50" height="150"/>
	<rect x="71.5" y="373.5" fill="none" stroke="#000000" stroke-width="0.25" width="50" height="150"/>
	<rect x="171.5" y="373.5" fill="none" stroke="#000000" stroke-width="0.25" width="50" height="150"/>
	<rect x="271.5" y="373.5" fill="none" stroke="#000000" stroke-width="0.25" width="50" height="150"/>
	<rect x="371.5" y="373.5" fill="none" stroke="#000000" stroke-width="0.25" width="50" height="150"/>
	<rect x="471.5" y="373.5" fill="none" stroke="#000000" stroke-width="0.25" width="50" height="150"/>
	<rect x="571.5" y="373.5" fill="none" stroke="#000000" stroke-width="0.25" width="50" height="150"/>
	<rect x="671.5" y="373.5" fill="none" stroke="#000000" stroke-width="0.25" width="50" height="150"/>
	<rect x="71.5" y="523.5" fill="none" stroke="#000000" stroke-width="0.25" width="50" height="150"/>
	<rect x="171.5" y="523.5" fill="none" stroke="#000000" stroke-width="0.25" width="50" height="150"/>
	<rect x="271.5" y="523.5" fill="none" stroke="#000000" stroke-width="0.25" width="50" height="150"/>
	<rect x="371.5" y="523.5" fill="none" stroke="#000000" stroke-width="0.25" width="50" height="150"/>
	<rect x="471.5" y="523.5" fill="none" stroke="#000000" stroke-width="0.25" width="50" height="150"/>
	<rect x="571.5" y="523.5" fill="none" stroke="#000000" stroke-width="0.25" width="50" height="150"/>
	<rect x="671.5" y="523.5" fill="none" stroke="#000000" stroke-width="0.25" width="50" height="150"/>
	<rect x="771.5" y="-76.5" fill="none" stroke="#000000" stroke-width="0.25" width="50" height="150"/>
	<rect x="771.5" y="73.5" fill="none" stroke="#000000" stroke-width="0.25" width="50" height="150"/>
	<rect x="771.5" y="223.5" fill="none" stroke="#000000" stroke-width="0.25" width="50" height="150"/>
	<rect x="771.5" y="373.5" fill="none" stroke="#000000" stroke-width="0.25" width="50" height="150"/>
	<rect x="771.5" y="523.5" fill="none" stroke="#000000" stroke-width="0.25" width="50" height="150"/>
</g>
<g>
	<g>
		<polygon points="79.2412109,17.1484375 78.4824219,18.9990234 105.9970703,30.2685547 119.8291016,3.9501953 
			118.0585938,3.0195312 105.0722656,27.7285156 		"/>
		
			<rect x="57.0006714" y="-6.4402657" transform="matrix(0.3420338 0.9396876 -0.9396876 0.3420338 56.0790062 -90.9702454)" width="71.9986572" height="2.000649"/>
	</g>
	<g>
		<polygon points="79.4091797,164.550293 77.7563477,168.465332 105.9970703,180.2685547 120.0424805,153.0742188 
			116.2602539,151.1376953 104.0131836,174.8178711 		"/>
		
			<rect x="57.5351028" y="141.6717987" transform="matrix(0.3420267 0.9396902 -0.9396902 0.3420267 196.1332245 7.4843903)" width="70.3741302" height="4.2501378"/>
	</g>
	<g>
		<polygon points="79.5771484,311.9521484 77.0302734,317.9316406 105.9970703,330.2685547 120.2558594,302.1982422 
			114.4619141,299.2558594 102.9541016,321.9072266 		"/>
		
			<rect x="58.0695381" y="289.7838745" transform="matrix(0.342019 0.939693 -0.939693 0.342019 336.1883545 105.9412842)" width="68.7495956" height="6.4996266"/>
	</g>
	<g>
		<polygon points="79.5932617,459.8339844 76.3037109,467.3984375 105.996582,480.2695312 120.4692383,451.3222656 
			113.0869141,447.6425781 102.1064453,469.5800781 		"/>
		
			<rect x="58.6033974" y="438.1451416" transform="matrix(0.3420176 0.9396936 -0.9396936 0.3420176 476.2419128 204.3980713)" width="67.1252365" height="8.2497253"/>
	</g>
	<g>
		<polygon points="79.609375,607.7148438 75.5771484,616.8652344 105.9960938,630.2695312 120.6826172,600.4472656 
			111.7119141,596.0302734 101.2587891,617.2539062 		"/>
		
			<rect x="59.1372604" y="586.5070801" transform="matrix(0.342016 0.9396941 -0.9396941 0.342016 616.2961426 302.8557129)" width="65.5008698" height="9.9994888"/>
	</g>
</g>
<g>
	<g>
		<polygon points="213.7587891,17.1484375 214.5175781,18.9990234 187.0029297,30.2685547 173.1708984,3.9501953 
			174.9414062,3.0195312 187.9277344,27.7285156 		"/>
		
			<rect x="164.0006714" y="-6.4402657" transform="matrix(-0.3420338 0.9396877 -0.9396877 -0.3420338 263.2949219 -195.2381134)" width="71.9986572" height="2.000649"/>
	</g>
	<g>
		<polygon points="213.5908203,164.550293 215.2436523,168.465332 187.0029297,180.2685547 172.9575195,153.0742188 
			176.7397461,151.1376953 188.9868164,174.8178711 		"/>
		
			<rect x="165.0907593" y="141.6717987" transform="matrix(-0.3420266 0.9396902 -0.9396902 -0.3420266 403.90271 4.7801056)" width="70.3741302" height="4.2501378"/>
	</g>
	<g>
		<polygon points="213.4228516,311.9521484 215.9697266,317.9316406 187.0029297,330.2685547 172.7441406,302.1982422 
			178.5380859,299.2558594 190.0458984,321.9072266 		"/>
		
			<rect x="166.1808624" y="289.7838745" transform="matrix(-0.342019 0.939693 -0.939693 -0.342019 544.5112305 204.7960205)" width="68.7495956" height="6.4996266"/>
	</g>
	<g>
		<polygon points="213.4067383,459.8339844 216.6962891,467.3984375 187.003418,480.2695312 172.5307617,451.3222656 
			179.9130859,447.6425781 190.8935547,469.5800781 		"/>
		
			<rect x="167.2713623" y="438.1451416" transform="matrix(-0.3420176 0.9396936 -0.9396936 -0.3420176 685.1210327 404.8117371)" width="67.1252365" height="8.2497253"/>
	</g>
	<g>
		<polygon points="213.390625,607.7148438 217.4228516,616.8652344 187.0039062,630.2695312 172.3173828,600.4472656 
			181.2880859,596.0302734 191.7412109,617.2539062 		"/>
		
			<rect x="168.3618774" y="586.5070801" transform="matrix(-0.342016 0.9396941 -0.9396941 -0.342016 825.7314453 604.8275757)" width="65.5008698" height="9.9994888"/>
	</g>
</g>
</svg>
