<?xml version="1.0" encoding="utf-8"?>
<!-- Generator: Adobe Illustrator 15.0.2, SVG Export Plug-In . SVG Version: 6.00 Build 0)  -->
<!DOCTYPE svg PUBLIC "-//W3C//DTD SVG 1.1//EN" "http://www.w3.org/Graphics/SVG/1.1/DTD/svg11.dtd">
<svg version="1.1" id="レイヤー1" xmlns="http://www.w3.org/2000/svg" xmlns:xlink="http://www.w3.org/1999/xlink" x="0px"
	 y="0px" width="841.8896484px" height="595.2753906px" viewBox="0 0 841.8896484 595.2753906"
	 enable-background="new 0 0 841.8896484 595.2753906" xml:space="preserve">
<g>
	<rect x="71.5" y="-76.5" fill="none" stroke="#000000" stroke-width="0.25" width="50" height="150"/>
	<rect x="171.5" y="-76.5" fill="none" stroke="#000000" stroke-width="0.25" width="50" height="150"/>
	<rect x="271.5" y="-76.5" fill="none" stroke="#000000" stroke-width="0.25" width="50" height="150"/>
	<rect x="371.5" y="-76.5" fill="none" stroke="#000000" stroke-width="0.25" width="50" height="150"/>
	<rect x="471.5" y="-76.5" fill="none" stroke="#000000" stroke-width="0.25" width="50" height="150"/>
	<rect x="571.5" y="-76.5" fill="none" stroke="#000000" stroke-width="0.25" width="50" height="150"/>
	<rect x="671.5" y="-76.5" fill="none" stroke="#000000" stroke-width="0.25" width="50" height="150"/>
	<rect x="71.5" y="73.5" fill="none" stroke="#000000" stroke-width="0.25" width="50" height="150"/>
	<rect x="171.5" y="73.5" fill="none" stroke="#000000" stroke-width="0.25" width="50" height="150"/>
	<rect x="271.5" y="73.5" fill="none" stroke="#000000" stroke-width="0.25" width="50" height="150"/>
	<rect x="371.5" y="73.5" fill="none" stroke="#000000" stroke-width="0.25" width="50" height="150"/>
	<rect x="471.5" y="73.5" fill="none" stroke="#000000" stroke-width="0.25" width="50" height="150"/>
	<rect x="571.5" y="73.5" fill="none" stroke="#000000" stroke-width="0.25" width="50" height="150"/>
	<rect x="671.5" y="73.5" fill="none" stroke="#000000" stroke-width="0.25" width="50" height="150"/>
	<rect x="71.5" y="223.5" fill="none" stroke="#000000" stroke-width="0.25" width="50" height="150"/>
	<rect x="171.5" y="223.5" fill="none" stroke="#000000" stroke-width="0.25" width="50" height="150"/>
	<rect x="271.5" y="223.5" fill="none" stroke="#000000" stroke-width="0.25" width="50" height="150"/>
	<rect x="371.5" y="223.5" fill="none" stroke="#000000" stroke-width="0.25" width="50" height="150"/>
	<rect x="471.5" y="223.5" fill="none" stroke="#000000" stroke-width="0.25" width="50" height="150"/>
	<rect x="571.5" y="223.5" fill="none" stroke="#000000" stroke-width="0.25" width="50" height="150"/>
	<rect x="671.5" y="223.5" fill="none" stroke="#000000" stroke-width="0.25" width="50" height="150"/>
	<rect x="71.5" y="373.5" fill="none" stroke="#000000" stroke-width="0.25" width="50" height="150"/>
	<rect x="171.5" y="373.5" fill="none" stroke="#000000" stroke-width="0.25" width="50" height="150"/>
	<rect x="271.5" y="373.5" fill="none" stroke="#000000" stroke-width="0.25" width="50" height="150"/>
	<rect x="371.5" y="373.5" fill="none" stroke="#000000" stroke-width="0.25" width="50" height="150"/>
	<rect x="471.5" y="373.5" fill="none" stroke="#000000" stroke-width="0.25" width="50" height="150"/>
	<rect x="571.5" y="373.5" fill="none" stroke="#000000" stroke-width="0.25" width="50" height="150"/>
	<rect x="671.5" y="373.5" fill="none" stroke="#000000" stroke-width="0.25" width="50" height="150"/>
	<rect x="71.5" y="523.5" fill="none" stroke="#000000" stroke-width="0.25" width="50" height="150"/>
	<rect x="171.5" y="523.5" fill="none" stroke="#000000" stroke-width="0.25" width="50" height="150"/>
	<rect x="271.5" y="523.5" fill="none" stroke="#000000" stroke-width="0.25" width="50" height="150"/>
	<rect x="371.5" y="523.5" fill="none" stroke="#000000" stroke-width="0.25" width="50" height="150"/>
	<rect x="471.5" y="523.5" fill="none" stroke="#000000" stroke-width="0.25" width="50" height="150"/>
	<rect x="571.5" y="523.5" fill="none" stroke="#000000" stroke-width="0.25" width="50" height="150"/>
	<rect x="671.5" y="523.5" fill="none" stroke="#000000" stroke-width="0.25" width="50" height="150"/>
	<rect x="771.5" y="-76.5" fill="none" stroke="#000000" stroke-width="0.25" width="50" height="150"/>
	<rect x="771.5" y="73.5" fill="none" stroke="#000000" stroke-width="0.25" width="50" height="150"/>
	<rect x="771.5" y="223.5" fill="none" stroke="#000000" stroke-width="0.25" width="50" height="150"/>
	<rect x="771.5" y="373.5" fill="none" stroke="#000000" stroke-width="0.25" width="50" height="150"/>
	<rect x="771.5" y="523.5" fill="none" stroke="#000000" stroke-width="0.25" width="50" height="150"/>
</g>
<g>
	<g>
		<polygon points="113.5800781,584.7207031 120.5,577.5 96.5,554.5 72.5,577.5 79.4189453,584.7207031 96.5,568.3515625 		"/>
		<rect x="91.5" y="563" width="10" height="58"/>
		<polygon points="79.4189453,599.28125 72.5,606.5 96.5,629.5 120.5,606.5 113.5800781,599.28125 96.5,615.6503906 		"/>
		<rect x="72.5" y="625" width="48" height="6"/>
	</g>
	<g>
		<polygon points="114.3208008,432.984375 120,427 96.5,404.75 73,427 78.6787109,432.984375 96.5,416.125 		"/>
		<rect x="92.375" y="411.625" width="8.25" height="61.25"/>
		<polygon points="78.6787109,451.5166016 73,457.5 96.5,479.75 120,457.5 114.3208008,451.5166016 96.5,468.3769531 		"/>
		<rect x="72.5" y="476.25" width="48" height="5"/>
	</g>
	<g>
		<polygon points="115.0615234,281.2480469 119.5,276.5 96.5,255 73.5,276.5 77.9384766,281.2480469 96.5,263.8984375 		"/>
		<rect x="93.25" y="260.25" width="6.5" height="64.5"/>
		<polygon points="77.9384766,303.7519531 73.5,308.5 96.5,330 119.5,308.5 115.0615234,303.7519531 96.5,321.1035156 		"/>
		<rect x="72.5" y="327.5" width="48" height="4"/>
	</g>
	<g>
		<polygon points="116.1079102,129.1142578 119,126 96.5,105.25 74,126 76.8920898,129.1142578 96.5,111.0507812 		"/>
		<rect x="94.375" y="108.875" width="4.25" height="67.75"/>
		<polygon points="76.8920898,156.3867188 74,159.5 96.5,180.25 119,159.5 116.1079102,156.3867188 96.5,174.4501953 		"/>
		<rect x="72.5" y="178.75" width="48" height="3"/>
	</g>
	<g>
		<polygon points="117.1542969,-23.0195312 118.5,-24.5 96.5,-44.5 74.5,-24.5 75.8457031,-23.0195312 96.5,-41.796875 		"/>
		<rect x="95.5" y="-42.5" width="2" height="71"/>
		<polygon points="75.8457031,9.0214844 74.5,10.5 96.5,30.5 118.5,10.5 117.1542969,9.0214844 96.5,27.796875 		"/>
		<rect x="72.5" y="30" width="48" height="2"/>
	</g>
</g>
</svg>
