<?xml version="1.0" encoding="utf-8"?>
<!-- Generator: Adobe Illustrator 15.0.2, SVG Export Plug-In . SVG Version: 6.00 Build 0)  -->
<!DOCTYPE svg PUBLIC "-//W3C//DTD SVG 1.1//EN" "http://www.w3.org/Graphics/SVG/1.1/DTD/svg11.dtd">
<svg version="1.1" id="レイヤー1" xmlns="http://www.w3.org/2000/svg" xmlns:xlink="http://www.w3.org/1999/xlink" x="0px"
	 y="0px" width="841.8896484px" height="595.2753906px" viewBox="0 0 841.8896484 595.2753906"
	 enable-background="new 0 0 841.8896484 595.2753906" xml:space="preserve">
<g>
	<rect x="71.5" y="-76.5" fill="none" stroke="#000000" stroke-width="0.25" width="50" height="150"/>
	<rect x="171.5" y="-76.5" fill="none" stroke="#000000" stroke-width="0.25" width="50" height="150"/>
	<rect x="271.5" y="-76.5" fill="none" stroke="#000000" stroke-width="0.25" width="50" height="150"/>
	<rect x="371.5" y="-76.5" fill="none" stroke="#000000" stroke-width="0.25" width="50" height="150"/>
	<rect x="471.5" y="-76.5" fill="none" stroke="#000000" stroke-width="0.25" width="50" height="150"/>
	<rect x="571.5" y="-76.5" fill="none" stroke="#000000" stroke-width="0.25" width="50" height="150"/>
	<rect x="671.5" y="-76.5" fill="none" stroke="#000000" stroke-width="0.25" width="50" height="150"/>
	<rect x="71.5" y="73.5" fill="none" stroke="#000000" stroke-width="0.25" width="50" height="150"/>
	<rect x="171.5" y="73.5" fill="none" stroke="#000000" stroke-width="0.25" width="50" height="150"/>
	<rect x="271.5" y="73.5" fill="none" stroke="#000000" stroke-width="0.25" width="50" height="150"/>
	<rect x="371.5" y="73.5" fill="none" stroke="#000000" stroke-width="0.25" width="50" height="150"/>
	<rect x="471.5" y="73.5" fill="none" stroke="#000000" stroke-width="0.25" width="50" height="150"/>
	<rect x="571.5" y="73.5" fill="none" stroke="#000000" stroke-width="0.25" width="50" height="150"/>
	<rect x="671.5" y="73.5" fill="none" stroke="#000000" stroke-width="0.25" width="50" height="150"/>
	<rect x="71.5" y="223.5" fill="none" stroke="#000000" stroke-width="0.25" width="50" height="150"/>
	<rect x="171.5" y="223.5" fill="none" stroke="#000000" stroke-width="0.25" width="50" height="150"/>
	<rect x="271.5" y="223.5" fill="none" stroke="#000000" stroke-width="0.25" width="50" height="150"/>
	<rect x="371.5" y="223.5" fill="none" stroke="#000000" stroke-width="0.25" width="50" height="150"/>
	<rect x="471.5" y="223.5" fill="none" stroke="#000000" stroke-width="0.25" width="50" height="150"/>
	<rect x="571.5" y="223.5" fill="none" stroke="#000000" stroke-width="0.25" width="50" height="150"/>
	<rect x="671.5" y="223.5" fill="none" stroke="#000000" stroke-width="0.25" width="50" height="150"/>
	<rect x="71.5" y="373.5" fill="none" stroke="#000000" stroke-width="0.25" width="50" height="150"/>
	<rect x="171.5" y="373.5" fill="none" stroke="#000000" stroke-width="0.25" width="50" height="150"/>
	<rect x="271.5" y="373.5" fill="none" stroke="#000000" stroke-width="0.25" width="50" height="150"/>
	<rect x="371.5" y="373.5" fill="none" stroke="#000000" stroke-width="0.25" width="50" height="150"/>
	<rect x="471.5" y="373.5" fill="none" stroke="#000000" stroke-width="0.25" width="50" height="150"/>
	<rect x="571.5" y="373.5" fill="none" stroke="#000000" stroke-width="0.25" width="50" height="150"/>
	<rect x="671.5" y="373.5" fill="none" stroke="#000000" stroke-width="0.25" width="50" height="150"/>
	<rect x="71.5" y="523.5" fill="none" stroke="#000000" stroke-width="0.25" width="50" height="150"/>
	<rect x="171.5" y="523.5" fill="none" stroke="#000000" stroke-width="0.25" width="50" height="150"/>
	<rect x="271.5" y="523.5" fill="none" stroke="#000000" stroke-width="0.25" width="50" height="150"/>
	<rect x="371.5" y="523.5" fill="none" stroke="#000000" stroke-width="0.25" width="50" height="150"/>
	<rect x="471.5" y="523.5" fill="none" stroke="#000000" stroke-width="0.25" width="50" height="150"/>
	<rect x="571.5" y="523.5" fill="none" stroke="#000000" stroke-width="0.25" width="50" height="150"/>
	<rect x="671.5" y="523.5" fill="none" stroke="#000000" stroke-width="0.25" width="50" height="150"/>
	<rect x="771.5" y="-76.5" fill="none" stroke="#000000" stroke-width="0.25" width="50" height="150"/>
	<rect x="771.5" y="73.5" fill="none" stroke="#000000" stroke-width="0.25" width="50" height="150"/>
	<rect x="771.5" y="223.5" fill="none" stroke="#000000" stroke-width="0.25" width="50" height="150"/>
	<rect x="771.5" y="373.5" fill="none" stroke="#000000" stroke-width="0.25" width="50" height="150"/>
	<rect x="771.5" y="523.5" fill="none" stroke="#000000" stroke-width="0.25" width="50" height="150"/>
</g>
<g>
	<g>
		<polygon points="102.7197266,564.4189453 95.5,557.5 72.5,581.5 95.5,605.5 102.7197266,598.5810547 86.3505859,581.5 		"/>
		<polygon points="81,586.5 106.5,586.5 106.5,631.5 116.5,631.5 116.5,576.5 81,576.5 		"/>
	</g>
	<g>
		<polygon points="101.2338867,413.1787109 95.25,407.5 73,431 95.25,454.5 101.2338867,448.8212891 84.3740234,431 		"/>
		<polygon points="79.875,435.125 107.25,435.125 107.25,481.5 115.5,481.5 115.5,426.875 79.875,426.875 		"/>
	</g>
	<g>
		<polygon points="99.7480469,261.9384766 95,257.5 73.5,280.5 95,303.5 99.7480469,299.0615234 82.3974609,280.5 		"/>
		<polygon points="78.75,283.75 108,283.75 108,331.5 114.5,331.5 114.5,277.25 78.75,277.25 		"/>
	</g>
	<g>
		<polygon points="97.8637695,110.3920898 94.75,107.5 74,130 94.75,152.5 97.8637695,149.6079102 79.800293,130 		"/>
		<polygon points="77.625,132.125 109.25,132.125 109.25,181.5 113.5,181.5 113.5,127.875 77.625,127.875 		"/>
	</g>
	<g>
		<polygon points="95.9794922,-41.1542969 94.5,-42.5 74.5,-20.5 94.5,1.5 95.9794922,0.1542969 77.203125,-20.5 		"/>
		<polygon points="76.5,-19.5 110.5,-19.5 110.5,31.5 112.5,31.5 112.5,-21.5 76.5,-21.5 		"/>
	</g>
</g>
<g>
	<g>
		<polygon points="302.7197266,625.5810547 295.5,632.5 272.5,608.5 295.5,584.5 302.7197266,591.4189453 286.3505859,608.5 		"/>
		<polygon points="281,603.5 306.5,603.5 306.5,558.5 316.5,558.5 316.5,613.5 281,613.5 		"/>
	</g>
	<g>
		<polygon points="301.2338867,476.8212891 295.25,482.5 273,459 295.25,435.5 301.2338867,441.1787109 284.3740234,459 		"/>
		<polygon points="279.875,454.875 307.25,454.875 307.25,408.5 315.5,408.5 315.5,463.125 279.875,463.125 		"/>
	</g>
	<g>
		<polygon points="299.7480469,328.0615234 295,332.5 273.5,309.5 295,286.5 299.7480469,290.9384766 282.3974609,309.5 		"/>
		<polygon points="278.75,306.25 308,306.25 308,258.5 314.5,258.5 314.5,312.75 278.75,312.75 		"/>
	</g>
	<g>
		<polygon points="297.8637695,179.6079102 294.75,182.5 274,160 294.75,137.5 297.8637695,140.3920898 279.800293,160 		"/>
		<polygon points="277.625,157.875 309.25,157.875 309.25,108.5 313.5,108.5 313.5,162.125 277.625,162.125 		"/>
	</g>
	<g>
		<polygon points="295.9794922,31.1542969 294.5,32.5 274.5,10.5 294.5,-11.5 295.9794922,-10.1542969 277.203125,10.5 		"/>
		<polygon points="276.5,9.5 310.5,9.5 310.5,-41.5 312.5,-41.5 312.5,11.5 276.5,11.5 		"/>
	</g>
</g>
<g>
	<g>
		<polygon points="602.7197266,622.5810547 595.5,629.5 572.5,605.5 595.5,581.5 602.7197266,588.4189453 586.3505859,605.5 		"/>
		<polygon points="581,600.5 606.5,600.5 606.5,564.5 616.5,564.5 616.5,610.5 581,610.5 		"/>
	</g>
	<g>
		<polygon points="601.234375,472.0712891 595.25,477.75 573,454.25 595.25,430.75 601.234375,436.4287109 584.3740234,454.25 		"/>
		<polygon points="579.875,450.125 607.25,450.125 607.25,414.5 615.5,414.5 615.5,458.375 579.875,458.375 		"/>
	</g>
	<g>
		<polygon points="599.7480469,321.5615234 595,326 573.5,303 595,280 599.7480469,284.4384766 582.3974609,303 		"/>
		<polygon points="578.75,299.75 608,299.75 608,264.5 614.5,264.5 614.5,306.25 578.75,306.25 		"/>
	</g>
	<g>
		<polygon points="597.8632812,171.6079102 594.75,174.5 574,152 594.75,129.5 597.8632812,132.3920898 579.8007812,152 		"/>
		<polygon points="577.625,149.875 609.25,149.875 609.25,114.5 613.5,114.5 613.5,154.125 577.625,154.125 		"/>
	</g>
	<g>
		<polygon points="595.9794922,21.6542969 594.5,23 574.5,1 594.5,-21 595.9794922,-19.6542969 577.203125,1 		"/>
		<polygon points="576.5,0 610.5,0 610.5,-35.5 612.5,-35.5 612.5,2 576.5,2 		"/>
	</g>
</g>
<g>
	<g>
		<polygon points="390.2802734,625.5810547 397.5,632.5 420.5,608.5 397.5,584.5 390.2802734,591.4189453 406.6494141,608.5 		"/>
		<polygon points="412,603.5 386.5,603.5 386.5,558.5 376.5,558.5 376.5,613.5 412,613.5 		"/>
	</g>
	<g>
		<polygon points="391.7661133,476.8212891 397.75,482.5 420,459 397.75,435.5 391.7661133,441.1787109 408.6259766,459 		"/>
		<polygon points="413.125,454.875 385.75,454.875 385.75,408.5 377.5,408.5 377.5,463.125 413.125,463.125 		"/>
	</g>
	<g>
		<polygon points="393.2519531,328.0615234 398,332.5 419.5,309.5 398,286.5 393.2519531,290.9384766 410.6025391,309.5 		"/>
		<polygon points="414.25,306.25 385,306.25 385,258.5 378.5,258.5 378.5,312.75 414.25,312.75 		"/>
	</g>
	<g>
		<polygon points="395.1362305,179.6079102 398.25,182.5 419,160 398.25,137.5 395.1362305,140.3920898 413.199707,160 		"/>
		<polygon points="415.375,157.875 383.75,157.875 383.75,108.5 379.5,108.5 379.5,162.125 415.375,162.125 		"/>
	</g>
	<g>
		<polygon points="397.0205078,31.1542969 398.5,32.5 418.5,10.5 398.5,-11.5 397.0205078,-10.1542969 415.796875,10.5 		"/>
		<polygon points="416.5,9.5 382.5,9.5 382.5,-41.5 380.5,-41.5 380.5,11.5 416.5,11.5 		"/>
	</g>
</g>
<g>
	<g>
		<polygon points="190.2802734,564.4189453 197.5,557.5 220.5,581.5 197.5,605.5 190.2802734,598.5810547 206.6494141,581.5 		"/>
		<polygon points="212,586.5 186.5,586.5 186.5,631.5 176.5,631.5 176.5,576.5 212,576.5 		"/>
	</g>
	<g>
		<polygon points="191.7661133,413.1787109 197.75,407.5 220,431 197.75,454.5 191.7661133,448.8212891 208.6259766,431 		"/>
		<polygon points="213.125,435.125 185.75,435.125 185.75,481.5 177.5,481.5 177.5,426.875 213.125,426.875 		"/>
	</g>
	<g>
		<polygon points="193.2519531,261.9384766 198,257.5 219.5,280.5 198,303.5 193.2519531,299.0615234 210.6025391,280.5 		"/>
		<polygon points="214.25,283.75 185,283.75 185,331.5 178.5,331.5 178.5,277.25 214.25,277.25 		"/>
	</g>
	<g>
		<polygon points="195.1362305,110.3920898 198.25,107.5 219,130 198.25,152.5 195.1362305,149.6079102 213.199707,130 		"/>
		<polygon points="215.375,132.125 183.75,132.125 183.75,181.5 179.5,181.5 179.5,127.875 215.375,127.875 		"/>
	</g>
	<g>
		<polygon points="197.0205078,-41.1542969 198.5,-42.5 218.5,-20.5 198.5,1.5 197.0205078,0.1542969 215.796875,-20.5 		"/>
		<polygon points="216.5,-19.5 182.5,-19.5 182.5,31.5 180.5,31.5 180.5,-21.5 216.5,-21.5 		"/>
	</g>
</g>
<g>
	<g>
		<polygon points="492,624 492,576.5 474.5,576.5 474.5,566.5 502,566.5 502,624 		"/>
		<polygon points="479.9189453,602.2802734 473,609.5 497,632.5 521,609.5 514.0810547,602.2802734 497,618.6494141 		"/>
	</g>
	<g>
		<polygon points="493.375,475.625 493.375,424.75 475.5,424.75 475.5,416.5 501.625,416.5 501.625,475.625 		"/>
		<polygon points="479.6787109,454.265625 474,460.25 497.5,482.5 521,460.25 515.3212891,454.265625 497.5,471.1259766 		"/>
	</g>
	<g>
		<polygon points="494.75,327.25 494.75,273 476.5,273 476.5,266.5 501.25,266.5 501.25,327.25 		"/>
		<polygon points="479.4384766,306.2519531 475,311 498,332.5 521,311 516.5615234,306.2519531 498,323.6025391 		"/>
	</g>
	<g>
		<polygon points="496.375,178.875 496.375,120.75 477.5,120.75 477.5,116.5 500.625,116.5 500.625,178.875 		"/>
		<polygon points="478.8925781,158.6362305 476,161.75 498.5,182.5 521,161.75 518.1074219,158.6362305 498.5,176.699707 		"/>
	</g>
	<g>
		<polygon points="498,30.5 498,-31.5 478.5,-31.5 478.5,-33.5 500,-33.5 500,30.5 		"/>
		<polygon points="478.3457031,11.0205078 477,12.5 499,32.5 521,12.5 519.6542969,11.0205078 499,29.796875 		"/>
	</g>
</g>
</svg>
