<?xml version="1.0" encoding="utf-8"?>
<!-- Generator: Adobe Illustrator 15.0.2, SVG Export Plug-In . SVG Version: 6.00 Build 0)  -->
<!DOCTYPE svg PUBLIC "-//W3C//DTD SVG 1.1//EN" "http://www.w3.org/Graphics/SVG/1.1/DTD/svg11.dtd">
<svg version="1.1" id="レイヤー1" xmlns="http://www.w3.org/2000/svg" xmlns:xlink="http://www.w3.org/1999/xlink" x="0px"
	 y="0px" width="841.8896484px" height="595.2753906px" viewBox="0 0 841.8896484 595.2753906"
	 enable-background="new 0 0 841.8896484 595.2753906" xml:space="preserve">
<g>
	<rect x="71.5" y="-76.5" fill="none" stroke="#000000" stroke-width="0.25" width="50" height="150"/>
	<rect x="171.5" y="-76.5" fill="none" stroke="#000000" stroke-width="0.25" width="50" height="150"/>
	<rect x="271.5" y="-76.5" fill="none" stroke="#000000" stroke-width="0.25" width="50" height="150"/>
	<rect x="371.5" y="-76.5" fill="none" stroke="#000000" stroke-width="0.25" width="50" height="150"/>
	<rect x="471.5" y="-76.5" fill="none" stroke="#000000" stroke-width="0.25" width="50" height="150"/>
	<rect x="571.5" y="-76.5" fill="none" stroke="#000000" stroke-width="0.25" width="50" height="150"/>
	<rect x="671.5" y="-76.5" fill="none" stroke="#000000" stroke-width="0.25" width="50" height="150"/>
	<rect x="71.5" y="73.5" fill="none" stroke="#000000" stroke-width="0.25" width="50" height="150"/>
	<rect x="171.5" y="73.5" fill="none" stroke="#000000" stroke-width="0.25" width="50" height="150"/>
	<rect x="271.5" y="73.5" fill="none" stroke="#000000" stroke-width="0.25" width="50" height="150"/>
	<rect x="371.5" y="73.5" fill="none" stroke="#000000" stroke-width="0.25" width="50" height="150"/>
	<rect x="471.5" y="73.5" fill="none" stroke="#000000" stroke-width="0.25" width="50" height="150"/>
	<rect x="571.5" y="73.5" fill="none" stroke="#000000" stroke-width="0.25" width="50" height="150"/>
	<rect x="671.5" y="73.5" fill="none" stroke="#000000" stroke-width="0.25" width="50" height="150"/>
	<rect x="71.5" y="223.5" fill="none" stroke="#000000" stroke-width="0.25" width="50" height="150"/>
	<rect x="171.5" y="223.5" fill="none" stroke="#000000" stroke-width="0.25" width="50" height="150"/>
	<rect x="271.5" y="223.5" fill="none" stroke="#000000" stroke-width="0.25" width="50" height="150"/>
	<rect x="371.5" y="223.5" fill="none" stroke="#000000" stroke-width="0.25" width="50" height="150"/>
	<rect x="471.5" y="223.5" fill="none" stroke="#000000" stroke-width="0.25" width="50" height="150"/>
	<rect x="571.5" y="223.5" fill="none" stroke="#000000" stroke-width="0.25" width="50" height="150"/>
	<rect x="671.5" y="223.5" fill="none" stroke="#000000" stroke-width="0.25" width="50" height="150"/>
	<rect x="71.5" y="373.5" fill="none" stroke="#000000" stroke-width="0.25" width="50" height="150"/>
	<rect x="171.5" y="373.5" fill="none" stroke="#000000" stroke-width="0.25" width="50" height="150"/>
	<rect x="271.5" y="373.5" fill="none" stroke="#000000" stroke-width="0.25" width="50" height="150"/>
	<rect x="371.5" y="373.5" fill="none" stroke="#000000" stroke-width="0.25" width="50" height="150"/>
	<rect x="471.5" y="373.5" fill="none" stroke="#000000" stroke-width="0.25" width="50" height="150"/>
	<rect x="571.5" y="373.5" fill="none" stroke="#000000" stroke-width="0.25" width="50" height="150"/>
	<rect x="671.5" y="373.5" fill="none" stroke="#000000" stroke-width="0.25" width="50" height="150"/>
	<rect x="71.5" y="523.5" fill="none" stroke="#000000" stroke-width="0.25" width="50" height="150"/>
	<rect x="171.5" y="523.5" fill="none" stroke="#000000" stroke-width="0.25" width="50" height="150"/>
	<rect x="271.5" y="523.5" fill="none" stroke="#000000" stroke-width="0.25" width="50" height="150"/>
	<rect x="371.5" y="523.5" fill="none" stroke="#000000" stroke-width="0.25" width="50" height="150"/>
	<rect x="471.5" y="523.5" fill="none" stroke="#000000" stroke-width="0.25" width="50" height="150"/>
	<rect x="571.5" y="523.5" fill="none" stroke="#000000" stroke-width="0.25" width="50" height="150"/>
	<rect x="671.5" y="523.5" fill="none" stroke="#000000" stroke-width="0.25" width="50" height="150"/>
	<rect x="771.5" y="-76.5" fill="none" stroke="#000000" stroke-width="0.25" width="50" height="150"/>
	<rect x="771.5" y="73.5" fill="none" stroke="#000000" stroke-width="0.25" width="50" height="150"/>
	<rect x="771.5" y="223.5" fill="none" stroke="#000000" stroke-width="0.25" width="50" height="150"/>
	<rect x="771.5" y="373.5" fill="none" stroke="#000000" stroke-width="0.25" width="50" height="150"/>
	<rect x="771.5" y="523.5" fill="none" stroke="#000000" stroke-width="0.25" width="50" height="150"/>
</g>
<g>
	<g>
		<rect x="80.5" y="-22" width="35" height="2"/>
		<polygon points="96.1416016,-42.8574219 94.5,-44 78.5,-21 94.5,2 96.1416016,0.8574219 80.9365234,-21 		"/>
		<rect x="77.5" y="-44" width="2" height="46"/>
		<rect x="77.5" y="10" width="35" height="2"/>
		<polygon points="96.8583984,-10.8574219 98.5,-12 114.5,11 98.5,34 96.8583984,32.8574219 112.0634766,11 		"/>
		<rect x="113.5" y="-12" width="2" height="46"/>
	</g>
	<g>
		<rect x="82" y="126.75" width="33.75" height="4.25"/>
		<polygon points="97.2397461,107.5361328 93.875,105.375 78.625,128.875 93.875,152.375 97.2397461,150.2138672 
			83.1313477,128.875 		"/>
		<rect x="77.25" y="105.875" width="2.75" height="46"/>
		<rect x="77.25" y="159" width="33.75" height="4.25"/>
		<polygon points="95.7602539,139.7861328 99.125,137.625 114.375,161.125 99.125,184.625 95.7602539,182.4638672 
			109.8686523,161.125 		"/>
		<rect x="113" y="138.125" width="2.75" height="46"/>
	</g>
	<g>
		<rect x="83.5" y="275.5" width="32.5" height="6.5"/>
		<polygon points="98.3378906,257.9296875 93.25,254.75 78.75,278.75 93.25,302.75 98.3378906,299.5703125 85.3261719,278.75 		"/>
		<rect x="77" y="255.75" width="3.5" height="46"/>
		<rect x="77" y="308" width="32.5" height="6.5"/>
		<polygon points="94.6621094,290.4296875 99.75,287.25 114.25,311.25 99.75,335.25 94.6621094,332.0703125 107.6738281,311.25 		
			"/>
		<rect x="112.5" y="288.25" width="3.5" height="46"/>
	</g>
	<g>
		<rect x="85" y="424.5" width="31.25" height="8.25"/>
		<polygon points="99.0952148,407.9140625 92.625,404.125 78.875,428.625 92.625,453.125 99.0952148,449.3359375 
			86.8203125,428.625 		"/>
		<rect x="76.75" y="405.625" width="4.25" height="46"/>
		<rect x="76.75" y="457.25" width="31.25" height="8.25"/>
		<polygon points="93.9047852,440.6640625 100.375,436.875 114.125,461.375 100.375,485.875 93.9047852,482.0859375 
			106.1796875,461.375 		"/>
		<rect x="112" y="438.375" width="4.25" height="46"/>
	</g>
	<g>
		<rect x="86.5" y="573.5" width="30" height="10"/>
		<polygon points="99.8525391,557.8974609 92,553.5 79,578.5 92,603.5 99.8525391,599.1025391 88.3144531,578.5 		"/>
		<rect x="76.5" y="555.5" width="5" height="46"/>
		<rect x="76.5" y="606.5" width="30" height="10"/>
		<polygon points="93.1474609,590.8974609 101,586.5 114,611.5 101,636.5 93.1474609,632.1025391 104.6855469,611.5 		"/>
		<rect x="111.5" y="588.5" width="5" height="46"/>
	</g>
</g>
</svg>
