<?xml version="1.0" encoding="utf-8"?>
<!-- Generator: Adobe Illustrator 15.0.2, SVG Export Plug-In . SVG Version: 6.00 Build 0)  -->
<!DOCTYPE svg PUBLIC "-//W3C//DTD SVG 1.1//EN" "http://www.w3.org/Graphics/SVG/1.1/DTD/svg11.dtd">
<svg version="1.1" id="レイヤー1" xmlns="http://www.w3.org/2000/svg" xmlns:xlink="http://www.w3.org/1999/xlink" x="0px"
	 y="0px" width="841.8896484px" height="595.2753906px" viewBox="0 0 841.8896484 595.2753906"
	 enable-background="new 0 0 841.8896484 595.2753906" xml:space="preserve">
<g>
	<rect x="71.5" y="-76.5" fill="none" stroke="#000000" stroke-width="0.25" width="50" height="150"/>
	<rect x="171.5" y="-76.5" fill="none" stroke="#000000" stroke-width="0.25" width="50" height="150"/>
	<rect x="271.5" y="-76.5" fill="none" stroke="#000000" stroke-width="0.25" width="50" height="150"/>
	<rect x="371.5" y="-76.5" fill="none" stroke="#000000" stroke-width="0.25" width="50" height="150"/>
	<rect x="471.5" y="-76.5" fill="none" stroke="#000000" stroke-width="0.25" width="50" height="150"/>
	<rect x="571.5" y="-76.5" fill="none" stroke="#000000" stroke-width="0.25" width="50" height="150"/>
	<rect x="671.5" y="-76.5" fill="none" stroke="#000000" stroke-width="0.25" width="50" height="150"/>
	<rect x="71.5" y="73.5" fill="none" stroke="#000000" stroke-width="0.25" width="50" height="150"/>
	<rect x="171.5" y="73.5" fill="none" stroke="#000000" stroke-width="0.25" width="50" height="150"/>
	<rect x="271.5" y="73.5" fill="none" stroke="#000000" stroke-width="0.25" width="50" height="150"/>
	<rect x="371.5" y="73.5" fill="none" stroke="#000000" stroke-width="0.25" width="50" height="150"/>
	<rect x="471.5" y="73.5" fill="none" stroke="#000000" stroke-width="0.25" width="50" height="150"/>
	<rect x="571.5" y="73.5" fill="none" stroke="#000000" stroke-width="0.25" width="50" height="150"/>
	<rect x="671.5" y="73.5" fill="none" stroke="#000000" stroke-width="0.25" width="50" height="150"/>
	<rect x="71.5" y="223.5" fill="none" stroke="#000000" stroke-width="0.25" width="50" height="150"/>
	<rect x="171.5" y="223.5" fill="none" stroke="#000000" stroke-width="0.25" width="50" height="150"/>
	<rect x="271.5" y="223.5" fill="none" stroke="#000000" stroke-width="0.25" width="50" height="150"/>
	<rect x="371.5" y="223.5" fill="none" stroke="#000000" stroke-width="0.25" width="50" height="150"/>
	<rect x="471.5" y="223.5" fill="none" stroke="#000000" stroke-width="0.25" width="50" height="150"/>
	<rect x="571.5" y="223.5" fill="none" stroke="#000000" stroke-width="0.25" width="50" height="150"/>
	<rect x="671.5" y="223.5" fill="none" stroke="#000000" stroke-width="0.25" width="50" height="150"/>
	<rect x="71.5" y="373.5" fill="none" stroke="#000000" stroke-width="0.25" width="50" height="150"/>
	<rect x="171.5" y="373.5" fill="none" stroke="#000000" stroke-width="0.25" width="50" height="150"/>
	<rect x="271.5" y="373.5" fill="none" stroke="#000000" stroke-width="0.25" width="50" height="150"/>
	<rect x="371.5" y="373.5" fill="none" stroke="#000000" stroke-width="0.25" width="50" height="150"/>
	<rect x="471.5" y="373.5" fill="none" stroke="#000000" stroke-width="0.25" width="50" height="150"/>
	<rect x="571.5" y="373.5" fill="none" stroke="#000000" stroke-width="0.25" width="50" height="150"/>
	<rect x="671.5" y="373.5" fill="none" stroke="#000000" stroke-width="0.25" width="50" height="150"/>
	<rect x="71.5" y="523.5" fill="none" stroke="#000000" stroke-width="0.25" width="50" height="150"/>
	<rect x="171.5" y="523.5" fill="none" stroke="#000000" stroke-width="0.25" width="50" height="150"/>
	<rect x="271.5" y="523.5" fill="none" stroke="#000000" stroke-width="0.25" width="50" height="150"/>
	<rect x="371.5" y="523.5" fill="none" stroke="#000000" stroke-width="0.25" width="50" height="150"/>
	<rect x="471.5" y="523.5" fill="none" stroke="#000000" stroke-width="0.25" width="50" height="150"/>
	<rect x="571.5" y="523.5" fill="none" stroke="#000000" stroke-width="0.25" width="50" height="150"/>
	<rect x="671.5" y="523.5" fill="none" stroke="#000000" stroke-width="0.25" width="50" height="150"/>
	<rect x="771.5" y="-76.5" fill="none" stroke="#000000" stroke-width="0.25" width="50" height="150"/>
	<rect x="771.5" y="73.5" fill="none" stroke="#000000" stroke-width="0.25" width="50" height="150"/>
	<rect x="771.5" y="223.5" fill="none" stroke="#000000" stroke-width="0.25" width="50" height="150"/>
	<rect x="771.5" y="373.5" fill="none" stroke="#000000" stroke-width="0.25" width="50" height="150"/>
	<rect x="771.5" y="523.5" fill="none" stroke="#000000" stroke-width="0.25" width="50" height="150"/>
</g>
<g>
	<g>
		<rect x="277" y="-22" width="40" height="2"/>
		<polygon points="292.6416016,-42.8574219 291,-44 275,-21 291,2 292.6416016,0.8574219 277.4365234,-21 		"/>
		<rect x="276" y="10" width="40" height="2"/>
		<polygon points="300.3583984,-10.8574219 302,-12 318,11 302,34 300.3583984,32.8574219 315.5634766,11 		"/>
	</g>
	<g>
		<rect x="278.125" y="126.75" width="39.375" height="4.25"/>
		<polygon points="293.3647461,107.5361328 290,105.375 274.5,128.875 290,152.375 293.3647461,150.2138672 279.2558594,128.875 		
			"/>
		<rect x="275.5" y="159" width="39.375" height="4.25"/>
		<polygon points="299.6352539,139.7861328 303,137.625 318.5,161.125 303,184.625 299.6352539,182.4638672 313.7441406,161.125 		
			"/>
	</g>
	<g>
		<rect x="279.25" y="275.5" width="38.75" height="6.5"/>
		<polygon points="294.0878906,257.9296875 289,254.75 274,278.75 289,302.75 294.0878906,299.5703125 281.0756836,278.75 		"/>
		<rect x="275" y="308" width="38.75" height="6.5"/>
		<polygon points="298.9121094,290.4296875 304,287.25 319,311.25 304,335.25 298.9121094,332.0703125 311.9243164,311.25 		"/>
	</g>
	<g>
		<rect x="280.375" y="424.5" width="38.125" height="8.25"/>
		<polygon points="294.4702148,407.9140625 288,404.125 273.5,428.625 288,453.125 294.4702148,449.3359375 282.1953125,428.625 		
			"/>
		<rect x="274.5" y="457.25" width="38.125" height="8.25"/>
		<polygon points="298.5297852,440.6640625 305,436.875 319.5,461.375 305,485.875 298.5297852,482.0859375 310.8046875,461.375 		
			"/>
	</g>
	<g>
		<rect x="281.5" y="573.5" width="37.5" height="10"/>
		<polygon points="294.8525391,557.8974609 287,553.5 273,578.5 287,603.5 294.8525391,599.1025391 283.3149414,578.5 		"/>
		<rect x="274" y="606.5" width="37.5" height="10"/>
		<polygon points="298.1474609,590.8974609 306,586.5 320,611.5 306,636.5 298.1474609,632.1025391 309.6850586,611.5 		"/>
	</g>
</g>
<g>
	<g>
		<rect x="76" y="-22" width="40" height="2"/>
		<polygon points="100.3583984,-42.8574219 102,-44 118,-21 102,2 100.3583984,0.8574219 115.5634766,-21 		"/>
		<rect x="77" y="10" width="40" height="2"/>
		<polygon points="92.6416016,-10.8574219 91,-12 75,11 91,34 92.6416016,32.8574219 77.4365234,11 		"/>
	</g>
	<g>
		<rect x="75.5" y="126.75" width="39.375" height="4.25"/>
		<polygon points="99.6352539,107.5361328 103,105.375 118.5,128.875 103,152.375 99.6352539,150.2138672 113.7441406,128.875 		"/>
		<rect x="78.125" y="159" width="39.375" height="4.25"/>
		<polygon points="93.3647461,139.7861328 90,137.625 74.5,161.125 90,184.625 93.3647461,182.4638672 79.2558594,161.125 		"/>
	</g>
	<g>
		<rect x="75" y="275.5" width="38.75" height="6.5"/>
		<polygon points="98.9121094,257.9296875 104,254.75 119,278.75 104,302.75 98.9121094,299.5703125 111.9243164,278.75 		"/>
		<rect x="79.25" y="308" width="38.75" height="6.5"/>
		<polygon points="94.0878906,290.4296875 89,287.25 74,311.25 89,335.25 94.0878906,332.0703125 81.0756836,311.25 		"/>
	</g>
	<g>
		<rect x="74.5" y="424.5" width="38.125" height="8.25"/>
		<polygon points="98.5297852,407.9140625 105,404.125 119.5,428.625 105,453.125 98.5297852,449.3359375 110.8046875,428.625 		"/>
		<rect x="80.375" y="457.25" width="38.125" height="8.25"/>
		<polygon points="94.4702148,440.6640625 88,436.875 73.5,461.375 88,485.875 94.4702148,482.0859375 82.1953125,461.375 		"/>
	</g>
	<g>
		<rect x="74" y="573.5" width="37.5" height="10"/>
		<polygon points="98.1474609,557.8974609 106,553.5 120,578.5 106,603.5 98.1474609,599.1025391 109.6850586,578.5 		"/>
		<rect x="81.5" y="606.5" width="37.5" height="10"/>
		<polygon points="94.8525391,590.8974609 87,586.5 73,611.5 87,636.5 94.8525391,632.1025391 83.3149414,611.5 		"/>
	</g>
</g>
<g>
	<g>
		<polygon points="378.203125,-21 396.9794922,-41.6542969 395.5,-43 375.5,-21 390.0454102,-5 375.5,11 395.5,33 
			396.9794922,31.6542969 378.203125,11 392.7485352,-5 		"/>
		<rect x="377.5" y="-22" width="40" height="2"/>
		<rect x="377.5" y="10" width="40" height="2"/>
	</g>
	<g>
		<polygon points="380.800293,128.875 398.8637695,109.2670898 395.75,106.375 375,128.875 389.8681641,145 375,161.125 
			395.75,183.625 398.8637695,180.7329102 380.800293,161.125 395.6679688,145 		"/>
		<rect x="378.625" y="126.75" width="39.375" height="4.25"/>
		<rect x="378.625" y="159" width="39.375" height="4.25"/>
	</g>
	<g>
		<polygon points="383.3974609,278.75 400.7480469,260.1884766 396,255.75 374.5,278.75 389.6904297,295 374.5,311.25 396,334.25 
			400.7480469,329.8115234 383.3974609,311.25 398.5878906,295 		"/>
		<rect x="379.75" y="275.5" width="38.75" height="6.5"/>
		<rect x="379.75" y="308" width="38.75" height="6.5"/>
	</g>
	<g>
		<polygon points="385.3740234,428.625 402.2338867,410.8037109 396.25,405.125 374,428.625 389.5014648,445 374,461.375 
			396.25,484.875 402.2338867,479.1962891 385.3740234,461.375 400.8754883,445 		"/>
		<rect x="380.875" y="424.5" width="38.125" height="8.25"/>
		<rect x="380.875" y="457.25" width="38.125" height="8.25"/>
	</g>
	<g>
		<polygon points="403.1630859,595 387.3505859,578.5 403.7197266,561.4189453 396.5,554.5 373.5,578.5 389.3125,595 373.5,611.5 
			396.5,635.5 403.7197266,628.5810547 387.3505859,611.5 		"/>
		<rect x="382" y="573.5" width="37.5" height="10"/>
		<rect x="382" y="606.5" width="37.5" height="10"/>
	</g>
</g>
<g>
	<g>
		<polygon points="200,588 204.5,580.5 188.25,557.5 172,580.5 176.5,588 188.25,569.5 		"/>
		<rect x="183.5" y="566" width="9.5" height="65.5"/>
	</g>
	<g>
		<polygon points="193,602 188.5,609.5 204.75,632.5 221,609.5 216.5,602 204.75,620.5 		"/>
		<rect x="200" y="558.5" width="9.5" height="65.5"/>
	</g>
</g>
<g>
	<g>
		<polygon points="203.125,430 187.6875,407.5 172.25,430 176.5,436.25 187.6875,418.5 198.875,436.25 		"/>
		<rect x="183.75" y="414.375" width="7.875" height="67.125"/>
	</g>
	<g>
		<polygon points="220.75,460 205.3125,482.5 189.875,460 194.125,453.75 205.3125,471.5 216.5,453.75 		"/>
		<rect x="201.375" y="408.5" width="7.875" height="67.125"/>
	</g>
</g>
<g>
	<g>
		<polygon points="203,-21.5 188,-42.5 173,-21.5 174.6274414,-20.3374023 188,-39.0595703 201.3730469,-20.3374023 		"/>
		<rect x="187" y="-40.5" width="2" height="72"/>
	</g>
	<g>
		<polygon points="220,11.5 205,32.5 190,11.5 191.6274414,10.3378906 205,29.0595703 218.3730469,10.3378906 		"/>
		<rect x="204" y="-41.5" width="2" height="72"/>
	</g>
</g>
<g>
	<g>
		<polygon points="202.375,129 187.5625,107.5 172.75,129 175.5634766,132.0810547 187.5625,114.2202148 199.5615234,132.0810547 		
			"/>
		<rect x="185.5" y="111.125" width="4.125" height="70.375"/>
	</g>
	<g>
		<polygon points="220.25,161 205.4375,182.5 190.625,161 193.4384766,157.9189453 205.4375,175.7797852 217.4365234,157.9189453 		
			"/>
		<rect x="203.375" y="108.5" width="4.125" height="70.375"/>
	</g>
</g>
<g>
	<g>
		<polygon points="202.75,279.5 187.625,257.5 172.5,279.5 176.5,284.5 187.625,267.5 198.75,284.5 		"/>
		<rect x="184.5" y="262.75" width="6.25" height="68.75"/>
	</g>
	<g>
		<polygon points="220.5,310.5 205.375,332.5 190.25,310.5 194.25,305.5 205.375,322.5 216.5,305.5 		"/>
		<rect x="202.25" y="258.5" width="6.25" height="68.75"/>
	</g>
</g>
</svg>
