<?xml version="1.0" encoding="utf-8"?>
<!-- Generator: Adobe Illustrator 15.0.2, SVG Export Plug-In . SVG Version: 6.00 Build 0)  -->
<!DOCTYPE svg PUBLIC "-//W3C//DTD SVG 1.1//EN" "http://www.w3.org/Graphics/SVG/1.1/DTD/svg11.dtd">
<svg version="1.1" id="レイヤー1" xmlns="http://www.w3.org/2000/svg" xmlns:xlink="http://www.w3.org/1999/xlink" x="0px"
	 y="0px" width="841.8896484px" height="595.2753906px" viewBox="0 0 841.8896484 595.2753906"
	 enable-background="new 0 0 841.8896484 595.2753906" xml:space="preserve">
<g>
	<rect x="71.5" y="-76.5" fill="none" stroke="#000000" stroke-width="0.25" width="50" height="150"/>
	<rect x="171.5" y="-76.5" fill="none" stroke="#000000" stroke-width="0.25" width="50" height="150"/>
	<rect x="271.5" y="-76.5" fill="none" stroke="#000000" stroke-width="0.25" width="50" height="150"/>
	<rect x="371.5" y="-76.5" fill="none" stroke="#000000" stroke-width="0.25" width="50" height="150"/>
	<rect x="471.5" y="-76.5" fill="none" stroke="#000000" stroke-width="0.25" width="50" height="150"/>
	<rect x="571.5" y="-76.5" fill="none" stroke="#000000" stroke-width="0.25" width="50" height="150"/>
	<rect x="671.5" y="-76.5" fill="none" stroke="#000000" stroke-width="0.25" width="50" height="150"/>
	<rect x="71.5" y="73.5" fill="none" stroke="#000000" stroke-width="0.25" width="50" height="150"/>
	<rect x="171.5" y="73.5" fill="none" stroke="#000000" stroke-width="0.25" width="50" height="150"/>
	<rect x="271.5" y="73.5" fill="none" stroke="#000000" stroke-width="0.25" width="50" height="150"/>
	<rect x="371.5" y="73.5" fill="none" stroke="#000000" stroke-width="0.25" width="50" height="150"/>
	<rect x="471.5" y="73.5" fill="none" stroke="#000000" stroke-width="0.25" width="50" height="150"/>
	<rect x="571.5" y="73.5" fill="none" stroke="#000000" stroke-width="0.25" width="50" height="150"/>
	<rect x="671.5" y="73.5" fill="none" stroke="#000000" stroke-width="0.25" width="50" height="150"/>
	<rect x="71.5" y="223.5" fill="none" stroke="#000000" stroke-width="0.25" width="50" height="150"/>
	<rect x="171.5" y="223.5" fill="none" stroke="#000000" stroke-width="0.25" width="50" height="150"/>
	<rect x="271.5" y="223.5" fill="none" stroke="#000000" stroke-width="0.25" width="50" height="150"/>
	<rect x="371.5" y="223.5" fill="none" stroke="#000000" stroke-width="0.25" width="50" height="150"/>
	<rect x="471.5" y="223.5" fill="none" stroke="#000000" stroke-width="0.25" width="50" height="150"/>
	<rect x="571.5" y="223.5" fill="none" stroke="#000000" stroke-width="0.25" width="50" height="150"/>
	<rect x="671.5" y="223.5" fill="none" stroke="#000000" stroke-width="0.25" width="50" height="150"/>
	<rect x="71.5" y="373.5" fill="none" stroke="#000000" stroke-width="0.25" width="50" height="150"/>
	<rect x="171.5" y="373.5" fill="none" stroke="#000000" stroke-width="0.25" width="50" height="150"/>
	<rect x="271.5" y="373.5" fill="none" stroke="#000000" stroke-width="0.25" width="50" height="150"/>
	<rect x="371.5" y="373.5" fill="none" stroke="#000000" stroke-width="0.25" width="50" height="150"/>
	<rect x="471.5" y="373.5" fill="none" stroke="#000000" stroke-width="0.25" width="50" height="150"/>
	<rect x="571.5" y="373.5" fill="none" stroke="#000000" stroke-width="0.25" width="50" height="150"/>
	<rect x="671.5" y="373.5" fill="none" stroke="#000000" stroke-width="0.25" width="50" height="150"/>
	<rect x="71.5" y="523.5" fill="none" stroke="#000000" stroke-width="0.25" width="50" height="150"/>
	<rect x="171.5" y="523.5" fill="none" stroke="#000000" stroke-width="0.25" width="50" height="150"/>
	<rect x="271.5" y="523.5" fill="none" stroke="#000000" stroke-width="0.25" width="50" height="150"/>
	<rect x="371.5" y="523.5" fill="none" stroke="#000000" stroke-width="0.25" width="50" height="150"/>
	<rect x="471.5" y="523.5" fill="none" stroke="#000000" stroke-width="0.25" width="50" height="150"/>
	<rect x="571.5" y="523.5" fill="none" stroke="#000000" stroke-width="0.25" width="50" height="150"/>
	<rect x="671.5" y="523.5" fill="none" stroke="#000000" stroke-width="0.25" width="50" height="150"/>
	<rect x="771.5" y="-76.5" fill="none" stroke="#000000" stroke-width="0.25" width="50" height="150"/>
	<rect x="771.5" y="73.5" fill="none" stroke="#000000" stroke-width="0.25" width="50" height="150"/>
	<rect x="771.5" y="223.5" fill="none" stroke="#000000" stroke-width="0.25" width="50" height="150"/>
	<rect x="771.5" y="373.5" fill="none" stroke="#000000" stroke-width="0.25" width="50" height="150"/>
	<rect x="771.5" y="523.5" fill="none" stroke="#000000" stroke-width="0.25" width="50" height="150"/>
</g>
<g>
	<g>
		<polygon points="214.796875,-21 196.0205078,-41.6542969 197.5,-43 217.5,-21 202.9550781,-5 217.5,11 197.5,33 
			196.0205078,31.6542969 214.796875,11 200.2519531,-5 		"/>
		<rect x="175.5" y="-22" width="40" height="2"/>
		<rect x="175.5" y="10" width="40" height="2"/>
	</g>
	<g>
		<polygon points="212.199707,128.875 194.1362305,109.2670898 197.25,106.375 218,128.875 203.1323242,145 218,161.125 
			197.25,183.625 194.1362305,180.7329102 212.199707,161.125 197.3320312,145 		"/>
		<rect x="175" y="126.75" width="39.375" height="4.25"/>
		<rect x="175" y="159" width="39.375" height="4.25"/>
	</g>
	<g>
		<polygon points="209.6025391,278.75 192.2519531,260.1884766 197,255.75 218.5,278.75 203.3095703,295 218.5,311.25 197,334.25 
			192.2519531,329.8115234 209.6025391,311.25 194.4125977,295 		"/>
		<rect x="174.5" y="275.5" width="38.75" height="6.5"/>
		<rect x="174.5" y="308" width="38.75" height="6.5"/>
	</g>
	<g>
		<polygon points="207.6259766,428.625 190.7661133,410.8037109 196.75,405.125 219,428.625 203.4985352,445 219,461.375 
			196.75,484.875 190.7661133,479.1962891 207.6259766,461.375 192.125,445 		"/>
		<rect x="174" y="424.5" width="38.125" height="8.25"/>
		<rect x="174" y="457.25" width="38.125" height="8.25"/>
	</g>
	<g>
		<polygon points="189.8369141,595 205.6494141,578.5 189.2802734,561.4189453 196.5,554.5 219.5,578.5 203.6875,595 219.5,611.5 
			196.5,635.5 189.2802734,628.5810547 205.6494141,611.5 		"/>
		<rect x="173.5" y="573.5" width="37.5" height="10"/>
		<rect x="173.5" y="606.5" width="37.5" height="10"/>
	</g>
</g>
<g>
	<g>
		<polygon points="104.75,569.5 116.5,588 121,580.5 104.75,557.5 96.5,569.1767578 88.25,557.5 72,580.5 76.5,588 88.25,569.5 
			96.5,582.4892578 		"/>
		<rect x="83.5" y="566" width="9.5" height="65.5"/>
		<rect x="100" y="566" width="9.5" height="65.5"/>
	</g>
	<g>
		<polygon points="105.0625,418.5 116.5,436.25 120.75,430 105.0625,407.5 96.5,419.7929688 87.9375,407.5 72.25,430 76.5,436.25 
			87.9375,418.5 96.5,431.7753906 		"/>
		<rect x="84" y="414.375" width="7.875" height="67.125"/>
		<rect x="101.125" y="414.375" width="7.875" height="67.125"/>
	</g>
	<g>
		<polygon points="105.375,267.5 116.5,284.5 120.5,279.5 105.375,257.5 96.5,270.4091797 87.625,257.5 72.5,279.5 76.5,284.5 
			87.625,267.5 96.5,281.0615234 		"/>
		<rect x="84.5" y="262.75" width="6.25" height="68.75"/>
		<rect x="102.25" y="262.75" width="6.25" height="68.75"/>
	</g>
	<g>
		<polygon points="105.1875,114.2202148 117.4365234,132.0810547 120.25,129 105.1875,107.5 96.5,119.9042969 87.8125,107.5 
			72.75,129 75.5634766,132.0810547 87.8125,114.2202148 96.5,126.9511719 		"/>
		<rect x="85.75" y="111.125" width="4.125" height="70.375"/>
		<rect x="103.125" y="111.125" width="4.125" height="70.375"/>
	</g>
	<g>
		<polygon points="105,-39.0595703 118.3725586,-20.3374023 120,-21.5 105,-42.5 96.5,-30.6000977 88,-42.5 73,-21.5 
			74.6274414,-20.3374023 88,-39.0595703 96.5,-27.1591797 		"/>
		<rect x="87" y="-40.5" width="2" height="72"/>
		<rect x="104" y="-40.5" width="2" height="72"/>
	</g>
</g>
<g>
	<g>
		<polygon points="304.75,620.5 316.5,602 321,609.5 304.75,632.5 296.5,620.8232422 288.25,632.5 272,609.5 276.5,602 
			288.25,620.5 296.5,607.5107422 		"/>
		<rect x="283.5" y="558.5" width="9.5" height="65.5"/>
		<rect x="300" y="558.5" width="9.5" height="65.5"/>
	</g>
	<g>
		<polygon points="305.0625,471.5 316.5,453.75 320.75,460 305.0625,482.5 296.5,470.2070312 287.9375,482.5 272.25,460 
			276.5,453.75 287.9375,471.5 296.5,458.2246094 		"/>
		<rect x="284" y="408.5" width="7.875" height="67.125"/>
		<rect x="301.125" y="408.5" width="7.875" height="67.125"/>
	</g>
	<g>
		<polygon points="305.375,322.5 316.5,305.5 320.5,310.5 305.375,332.5 296.5,319.5908203 287.625,332.5 272.5,310.5 276.5,305.5 
			287.625,322.5 296.5,308.9384766 		"/>
		<rect x="284.5" y="258.5" width="6.25" height="68.75"/>
		<rect x="302.25" y="258.5" width="6.25" height="68.75"/>
	</g>
	<g>
		<polygon points="305.1875,175.7797852 317.4365234,157.9189453 320.25,161 305.1875,182.5 296.5,170.0952148 287.8125,182.5 
			272.75,161 275.5634766,157.9189453 287.8125,175.7797852 296.5,163.0488281 		"/>
		<rect x="285.75" y="108.5" width="4.125" height="70.375"/>
		<rect x="303.125" y="108.5" width="4.125" height="70.375"/>
	</g>
	<g>
		<polygon points="305,29.0595703 318.3730469,10.3378906 320,11.5 305,32.5 296.5,20.5996094 288,32.5 273,11.5 
			274.6269531,10.3378906 288,29.0595703 296.5,17.1591797 		"/>
		<rect x="287" y="-41.5" width="2" height="72"/>
		<rect x="304" y="-41.5" width="2" height="72"/>
	</g>
</g>
</svg>
