<?xml version="1.0" encoding="utf-8"?>
<!-- Generator: Adobe Illustrator 15.0.2, SVG Export Plug-In . SVG Version: 6.00 Build 0)  -->
<!DOCTYPE svg PUBLIC "-//W3C//DTD SVG 1.1//EN" "http://www.w3.org/Graphics/SVG/1.1/DTD/svg11.dtd">
<svg version="1.1" id="レイヤー1" xmlns="http://www.w3.org/2000/svg" xmlns:xlink="http://www.w3.org/1999/xlink" x="0px"
	 y="0px" width="841.8896484px" height="595.2753906px" viewBox="0 0 841.8896484 595.2753906"
	 enable-background="new 0 0 841.8896484 595.2753906" xml:space="preserve">
<g>
	<rect x="71.5" y="-76.5" fill="none" stroke="#000000" stroke-width="0.25" width="50" height="150"/>
	<rect x="171.5" y="-76.5" fill="none" stroke="#000000" stroke-width="0.25" width="50" height="150"/>
	<rect x="271.5" y="-76.5" fill="none" stroke="#000000" stroke-width="0.25" width="50" height="150"/>
	<rect x="371.5" y="-76.5" fill="none" stroke="#000000" stroke-width="0.25" width="50" height="150"/>
	<rect x="471.5" y="-76.5" fill="none" stroke="#000000" stroke-width="0.25" width="50" height="150"/>
	<rect x="571.5" y="-76.5" fill="none" stroke="#000000" stroke-width="0.25" width="50" height="150"/>
	<rect x="671.5" y="-76.5" fill="none" stroke="#000000" stroke-width="0.25" width="50" height="150"/>
	<rect x="71.5" y="73.5" fill="none" stroke="#000000" stroke-width="0.25" width="50" height="150"/>
	<rect x="171.5" y="73.5" fill="none" stroke="#000000" stroke-width="0.25" width="50" height="150"/>
	<rect x="271.5" y="73.5" fill="none" stroke="#000000" stroke-width="0.25" width="50" height="150"/>
	<rect x="371.5" y="73.5" fill="none" stroke="#000000" stroke-width="0.25" width="50" height="150"/>
	<rect x="471.5" y="73.5" fill="none" stroke="#000000" stroke-width="0.25" width="50" height="150"/>
	<rect x="571.5" y="73.5" fill="none" stroke="#000000" stroke-width="0.25" width="50" height="150"/>
	<rect x="671.5" y="73.5" fill="none" stroke="#000000" stroke-width="0.25" width="50" height="150"/>
	<rect x="71.5" y="223.5" fill="none" stroke="#000000" stroke-width="0.25" width="50" height="150"/>
	<rect x="171.5" y="223.5" fill="none" stroke="#000000" stroke-width="0.25" width="50" height="150"/>
	<rect x="271.5" y="223.5" fill="none" stroke="#000000" stroke-width="0.25" width="50" height="150"/>
	<rect x="371.5" y="223.5" fill="none" stroke="#000000" stroke-width="0.25" width="50" height="150"/>
	<rect x="471.5" y="223.5" fill="none" stroke="#000000" stroke-width="0.25" width="50" height="150"/>
	<rect x="571.5" y="223.5" fill="none" stroke="#000000" stroke-width="0.25" width="50" height="150"/>
	<rect x="671.5" y="223.5" fill="none" stroke="#000000" stroke-width="0.25" width="50" height="150"/>
	<rect x="71.5" y="373.5" fill="none" stroke="#000000" stroke-width="0.25" width="50" height="150"/>
	<rect x="171.5" y="373.5" fill="none" stroke="#000000" stroke-width="0.25" width="50" height="150"/>
	<rect x="271.5" y="373.5" fill="none" stroke="#000000" stroke-width="0.25" width="50" height="150"/>
	<rect x="371.5" y="373.5" fill="none" stroke="#000000" stroke-width="0.25" width="50" height="150"/>
	<rect x="471.5" y="373.5" fill="none" stroke="#000000" stroke-width="0.25" width="50" height="150"/>
	<rect x="571.5" y="373.5" fill="none" stroke="#000000" stroke-width="0.25" width="50" height="150"/>
	<rect x="671.5" y="373.5" fill="none" stroke="#000000" stroke-width="0.25" width="50" height="150"/>
	<rect x="71.5" y="523.5" fill="none" stroke="#000000" stroke-width="0.25" width="50" height="150"/>
	<rect x="171.5" y="523.5" fill="none" stroke="#000000" stroke-width="0.25" width="50" height="150"/>
	<rect x="271.5" y="523.5" fill="none" stroke="#000000" stroke-width="0.25" width="50" height="150"/>
	<rect x="371.5" y="523.5" fill="none" stroke="#000000" stroke-width="0.25" width="50" height="150"/>
	<rect x="471.5" y="523.5" fill="none" stroke="#000000" stroke-width="0.25" width="50" height="150"/>
	<rect x="571.5" y="523.5" fill="none" stroke="#000000" stroke-width="0.25" width="50" height="150"/>
	<rect x="671.5" y="523.5" fill="none" stroke="#000000" stroke-width="0.25" width="50" height="150"/>
	<rect x="771.5" y="-76.5" fill="none" stroke="#000000" stroke-width="0.25" width="50" height="150"/>
	<rect x="771.5" y="73.5" fill="none" stroke="#000000" stroke-width="0.25" width="50" height="150"/>
	<rect x="771.5" y="223.5" fill="none" stroke="#000000" stroke-width="0.25" width="50" height="150"/>
	<rect x="771.5" y="373.5" fill="none" stroke="#000000" stroke-width="0.25" width="50" height="150"/>
	<rect x="771.5" y="523.5" fill="none" stroke="#000000" stroke-width="0.25" width="50" height="150"/>
</g>
<g>
	<g>
		<polygon points="98.0605469,-26.2558594 96.5,-27.5 78.5,-5 96.5,17.5 98.0605469,16.2558594 81.0698242,-5 		"/>
		<rect x="80.5" y="-6" width="35" height="2"/>
		<rect x="77.5" y="-28" width="2" height="46"/>
	</g>
	<g>
		<polygon points="99.7392578,124.5263672 96.5,122 78.625,145 96.5,168 99.7392578,165.4736328 83.6533203,145 		"/>
		<rect x="82.125" y="142.875" width="33.625" height="4.25"/>
		<rect x="77.25" y="122" width="2.75" height="46"/>
	</g>
	<g>
		<polygon points="101.4179688,275.3085938 96.5,271.5 78.75,295 96.5,318.5 101.4179688,314.6914062 86.2363281,295 		"/>
		<rect x="83.75" y="291.75" width="32.25" height="6.5"/>
		<rect x="77" y="272" width="3.5" height="46"/>
	</g>
	<g>
		<polygon points="102.7270508,425.7333984 96.5,421 78.875,445 96.5,469 102.7270508,464.2666016 88.159668,445 		"/>
		<rect x="85.375" y="440.875" width="30.875" height="8.25"/>
		<rect x="76.75" y="422" width="4.25" height="46"/>
	</g>
	<g>
		<polygon points="104.0361328,576.1582031 96.5,570.5 79,595 96.5,619.5 104.0361328,613.8417969 90.0830078,595 		"/>
		<rect x="87" y="590" width="29.5" height="10"/>
		<rect x="76.5" y="572" width="5" height="46"/>
	</g>
</g>
<g>
	<g>
		<polygon points="194.9394531,-26.2558594 196.5,-27.5 214.5,-5 196.5,17.5 194.9394531,16.2558594 211.9296875,-5 		"/>
		<rect x="177.5" y="-6" width="35" height="2"/>
		<rect x="213.5" y="-28" width="2" height="46"/>
	</g>
	<g>
		<polygon points="193.2607422,124.5263672 196.5,122 214.375,145 196.5,168 193.2607422,165.4736328 209.3466797,145 		"/>
		<rect x="177.25" y="142.875" width="33.625" height="4.25"/>
		<rect x="213" y="122" width="2.75" height="46"/>
	</g>
	<g>
		<polygon points="191.5820312,275.3085938 196.5,271.5 214.25,295 196.5,318.5 191.5820312,314.6914062 206.7636719,295 		"/>
		<rect x="177" y="291.75" width="32.25" height="6.5"/>
		<rect x="212.5" y="272" width="3.5" height="46"/>
	</g>
	<g>
		<polygon points="190.2729492,425.7333984 196.5,421 214.125,445 196.5,469 190.2729492,464.2666016 204.840332,445 		"/>
		<rect x="176.75" y="440.875" width="30.875" height="8.25"/>
		<rect x="212" y="422" width="4.25" height="46"/>
	</g>
	<g>
		<polygon points="188.9638672,576.1582031 196.5,570.5 214,595 196.5,619.5 188.9638672,613.8417969 202.9169922,595 		"/>
		<rect x="176.5" y="590" width="29.5" height="10"/>
		<rect x="211.5" y="572" width="5" height="46"/>
	</g>
</g>
</svg>
