<?xml version="1.0" encoding="utf-8"?>
<!-- Generator: Adobe Illustrator 25.3.1, SVG Export Plug-In . SVG Version: 6.00 Build 0)  -->
<svg version="1.1" id="text" xmlns="http://www.w3.org/2000/svg" xmlns:xlink="http://www.w3.org/1999/xlink" x="0px" y="0px"
	 viewBox="0 0 797.3 3057.6" style="enable-background:new 0 0 797.3 3057.6;" xml:space="preserve">
<style type="text/css">
	.st0{fill:#666666;}
	.st1{font-family:'Mplus1-Black';}
	.st2{font-size:70px;}
	.st3{fill:#999999;}
	.st4{font-family:'Mplus1-Medium';}
	.st5{font-size:16px;}
	.st6{font-size:25px;}
	.st7{font-family:'Mplus1-Bold';}
	.st8{font-size:22px;}
	.st9{font-family:'Mplus2-Black';}
	.st10{fill:#FBB161;}
	.st11{font-size:54px;}
	.st12{fill:#5DA9DD;}
	.st13{fill:#40BA8D;}
	.st14{font-family:'Mplus2-Medium';}
	.st15{font-family:'Mplus1Code-Bold';}
	.st16{font-family:'Mplus1Code-Medium';}
	.st17{font-family:'MplusCodeLatin60-Bold';}
	.st18{fill:none;stroke:#CCCCCC;stroke-miterlimit:10;}
	.st19{font-size:100px;}
	.st20{font-family:'MplusCodeLatin50-Bold';}
	.st21{font-family:'MplusCodeLatin60-Medium';}
	.st22{fill-rule:evenodd;clip-rule:evenodd;fill:#4495D1;}
	.st23{fill-rule:evenodd;clip-rule:evenodd;fill:#339C76;}
	.st24{fill:#63C29D;}
	.st25{fill:#FDC581;}
	.st26{fill:#F99E49;}
	.st27{fill:#FFFFFF;stroke:#FDC581;stroke-width:8;stroke-linejoin:round;}
	.st28{font-size:50px;}
</style>
<text transform="matrix(1 0 0 1 0.5001 423.7396)" class="st0 st1 st2">Mplus 1</text>
<g>
	<polygon class="st3" points="105.8,28.1 134,28.1 134,0 157.3,0 157.3,28.1 185.5,28.1 185.5,51.5 157.3,51.5 157.3,79.6 134,79.6 
		134,51.5 105.8,51.5 	"/>
	<polyline class="st0" points="105.8,28.1 105.8,128.4 78.4,128.4 78.4,70.7 78.1,70.7 66,107.1 41.3,107.1 29.2,70.7 29,70.7 
		29,128.4 1.5,128.4 1.5,28.1 35.5,28.1 53.5,81.7 53.8,81.7 71.8,28.1 105.8,28.1 	"/>
	<polygon class="st0" points="208.8,28.1 282.9,28.1 282.9,50.8 236.3,50.8 236.3,69.3 280.2,69.3 280.2,91.3 236.3,91.3 
		236.3,128.4 208.8,128.4 	"/>
	<path class="st0" d="M293.2,78.3c0-32.4,19.4-51.5,52.2-51.5s52.2,19.1,52.2,51.5c0,32.4-19.4,51.5-52.2,51.5
		S293.2,110.7,293.2,78.3z M369.4,78.3c0-18.7-8.1-28.1-24-28.1s-24,9.5-24,28.1c0,18.7,8.1,28.1,24,28.1S369.4,96.9,369.4,78.3z"/>
	<polygon class="st0" points="409.9,28.1 437.4,28.1 467.3,81.7 467.6,81.7 467.6,28.1 495.1,28.1 495.1,128.4 467.6,128.4 
		437.7,74.8 437.4,74.8 437.4,128.4 409.9,128.4 	"/>
	<polygon class="st0" points="535,51.5 506.6,51.5 506.6,28.1 591.7,28.1 591.7,51.5 563.3,51.5 563.3,128.4 535,128.4 	"/>
	<path class="st0" d="M599.9,121l5.8-23.3c9.5,5.4,24.4,9.5,34.6,9.5c8.1,0,12.4-2.6,12.4-7.6c0-4.8-4.1-7.1-21.4-11.9
		c-21.6-5.9-31.3-15.9-31.3-31.3c0-18.9,15.2-29.5,42.7-29.5c13.3,0,27.2,2.5,36.9,6.6l-5.8,23.3c-9.9-4.7-21.1-7.3-31.6-7.3
		c-9.2,0-13.5,2.1-13.5,6.7c0,5.2,3.7,7.8,20,12.6c23.3,6.9,32.7,15.7,32.7,30.8c0,19.4-15.5,30.2-43,30.2
		C623.4,129.7,608.9,126.4,599.9,121z"/>
</g>
<text transform="matrix(1 0 0 1 0.5001 488.7396)"><tspan x="0" y="0" class="st0 st4 st5">Mplus 1 is a Sans Serif font with nine weights from Thin to Black, </tspan><tspan x="0" y="36" class="st0 st4 st5">supporting 5,700+ Kanjis for Japanese with GF Latin Plus.</tspan><tspan x="0" y="72" class="st0 st4 st5">With the harmony of comfortable curves and straight lines, this font gives modern and </tspan><tspan x="0" y="108" class="st0 st4 st5">generous impression, suiting for any occasions including small texts to big titles.</tspan><tspan x="0" y="153" class="st0 st4 st5">Mplus 1 は Thin から Black までの 9 つのウェイトを持ち、5,700 字以上の漢字を含む日本語と </tspan><tspan x="0" y="189" class="st0 st4 st5">GF Latin Plus に対応したサンセリフ書体です。</tspan><tspan x="0" y="225" class="st0 st4 st5">ゆったりとした曲線と直線を組み合わせた特徴的なデザインは、小さな本文表示から大きな</tspan><tspan x="0" y="261" class="st0 st4 st5">見出し表示まで読みやすく、文章を明るくモダンでやさしい印象にします。</tspan></text>
<text transform="matrix(1 0 0 1 0.5001 178.7396)" class="st0 st1 st6">A LITTLE NIFTY FONT FAMILY FOR EVERYDAY USAGE</text>
<text transform="matrix(1 0 0 1 0.5001 210.7396)" class="st0 st7 st8">普段使い用の、ちょっと気のきいたフォントファミリーです</text>
<text transform="matrix(1 0 0 1 0.5001 1083.7396)" class="st0 st9 st2">Mplus 2</text>
<text transform="matrix(1 0 0 1 398.9627 384.5418)" class="st10 st9 st11">chick</text>
<text transform="matrix(1 0 0 1 362.3973 1080.9342)" class="st12 st9 st11">pao</text>
<text transform="matrix(1 0 0 1 538.9039 2237.1248)" class="st13 st9 st11">warnnie</text>
<text transform="matrix(1 0 0 1 0.5001 1148.7396)"><tspan x="0" y="0" class="st0 st14 st5">Mplus 2 is a Sans Serif font with nine weights from Thin to Black, </tspan><tspan x="0" y="36" class="st0 st14 st5">supporting 5,700+ Kanjis for Japanese with GF Latin Plus.</tspan><tspan x="0" y="72" class="st0 st14 st5">With the somewhat classic letterforms, this font pursues new standard of classic modern.</tspan><tspan x="0" y="117" class="st0 st14 st5">Mplus 2 は Thin から Black までの 9 つのウェイトを持ち、5,700 字以上の漢字を含む日本語と </tspan><tspan x="0" y="153" class="st0 st14 st5">GF Latin Plus に対応したサンセリフ書体です。</tspan><tspan x="0" y="189" class="st0 st14 st5">ちょっとだけクラシックな雰囲気を残したデザインは、モダンになりすぎず、かといって従来的な</tspan><tspan x="0" y="225" class="st0 st14 st5">デザインとも異なる、新たなスタンダード書体を目標として制作しました。</tspan></text>
<text transform="matrix(1 0 0 1 0.5001 1707.7396)" class="st0 st15 st2">Mplus 1 Code</text>
<text transform="matrix(1 0 0 1 0.5001 1772.7396)"><tspan x="0" y="0" class="st0 st16 st5">Mplus 1 Code is a Sans Serif font with seven weights from Thin to Bold, </tspan><tspan x="0" y="36" class="st0 st16 st5">supporting 5,700+ Kanjis for Japanese with GF Latin Plus.</tspan><tspan x="0" y="72" class="st0 st16 st5">Because this font is for programming usage, it has high readability even in small sizes, </tspan><tspan x="0" y="108" class="st0 st16 st5">and letterforms are designed to avoid misreadings as much as possible. This font is a combination </tspan><tspan x="0" y="144" class="st0 st16 st5">of Mplus 1 full-width Japanese with new half-width monospaced Latin alphabet and figures.</tspan><tspan x="0" y="189" class="st0 st16 st5">Mplus 1 Code は Thin から Bold までの 7 つのウェイトを持ち、5,700 字以上の漢字を含む日本語と </tspan><tspan x="0" y="225" class="st0 st16 st5">GF Latin Plus に対応したサンセリフ書体です。プログラミング用のフォントとして小さな</tspan><tspan x="0" y="261" class="st0 st16 st5">表示でも読みやすく、読み間違いのない字形を意識してデザインしました。</tspan><tspan x="0" y="297" class="st0 st16 st5">Mplus 1 の全角幅日本語グリフと新設計の半角幅英数字を組み合わせた等幅フォントになっています。</tspan></text>
<text transform="matrix(1 0 0 1 0.5001 2403.7395)" class="st0 st17 st2">Mplus Code Latin</text>
<g>
	<rect x="0.5" y="792.7" class="st18" width="300" height="100"/>
	<line class="st18" x1="50.5" y1="892.7" x2="50.5" y2="792.7"/>
	<line class="st18" x1="100.5" y1="892.7" x2="100.5" y2="792.7"/>
	<line class="st18" x1="150.5" y1="892.7" x2="150.5" y2="792.7"/>
	<line class="st18" x1="200.5" y1="892.7" x2="200.5" y2="792.7"/>
	<line class="st18" x1="250.5" y1="892.7" x2="250.5" y2="792.7"/>
	<line class="st18" x1="0.5" y1="842.7" x2="300.5" y2="842.7"/>
</g>
<text transform="matrix(1 0 0 1 0.5001 878.7396)" class="st3 st1 st19">あ永ア</text>
<g>
	<rect x="0.5" y="1416.7" class="st18" width="300" height="100"/>
	<line class="st18" x1="50.5" y1="1516.7" x2="50.5" y2="1416.7"/>
	<line class="st18" x1="100.5" y1="1516.7" x2="100.5" y2="1416.7"/>
	<line class="st18" x1="150.5" y1="1516.7" x2="150.5" y2="1416.7"/>
	<line class="st18" x1="200.5" y1="1516.7" x2="200.5" y2="1416.7"/>
	<line class="st18" x1="250.5" y1="1516.7" x2="250.5" y2="1416.7"/>
	<line class="st18" x1="0.5" y1="1466.7" x2="300.5" y2="1466.7"/>
</g>
<text transform="matrix(1 0 0 1 0.5001 1502.7396)" class="st3 st9 st19">あ永ア</text>
<g>
	<rect x="0.5" y="2112.7" class="st18" width="300" height="100"/>
	<line class="st18" x1="50.5" y1="2212.7" x2="50.5" y2="2112.7"/>
	<line class="st18" x1="100.5" y1="2212.7" x2="100.5" y2="2112.7"/>
	<line class="st18" x1="150.5" y1="2212.7" x2="150.5" y2="2112.7"/>
	<line class="st18" x1="200.5" y1="2212.7" x2="200.5" y2="2112.7"/>
	<line class="st18" x1="250.5" y1="2212.7" x2="250.5" y2="2112.7"/>
	<line class="st18" x1="0.5" y1="2162.7" x2="300.5" y2="2162.7"/>
</g>
<text transform="matrix(1 0 0 1 0.5001 2198.7395)" class="st3 st15 st19">あAaBb</text>
<g>
	<rect x="0.5" y="2808.7" class="st18" width="300" height="100"/>
	<line class="st18" x1="50.5" y1="2908.7" x2="50.5" y2="2808.7"/>
	<line class="st18" x1="100.5" y1="2908.7" x2="100.5" y2="2808.7"/>
	<line class="st18" x1="150.5" y1="2908.7" x2="150.5" y2="2808.7"/>
	<line class="st18" x1="200.5" y1="2908.7" x2="200.5" y2="2808.7"/>
	<line class="st18" x1="250.5" y1="2908.7" x2="250.5" y2="2808.7"/>
	<line class="st18" x1="0.5" y1="2858.7" x2="300.5" y2="2858.7"/>
</g>
<text transform="matrix(1 0 0 1 0.5001 2894.7395)"><tspan x="0" y="0" class="st3 st20 st19">abc</tspan><tspan x="150" y="0" class="st3 st17 st19">abc</tspan></text>
<text transform="matrix(1 0 0 1 0.5001 2468.7395)"><tspan x="0" y="0" class="st0 st21 st5">Mplus Code Latin is a Sans Serif font with seven weights from Thin to Bold, </tspan><tspan x="0" y="36" class="st0 st21 st5">supporting GF Latin Plus. Because this font is for programming usage, </tspan><tspan x="0" y="72" class="st0 st21 st5">it has high readability even in small sizes, and letterforms are designed </tspan><tspan x="0" y="108" class="st0 st21 st5">to avoid misreadings as much as possible. There are two styles—Mplus Code Latin 50 </tspan><tspan x="0" y="144" class="st0 st21 st5">and Mplus Code Latin 60, each having 50% and 60% character width.</tspan><tspan x="0" y="189" class="st0 st21 st5">Mplus Code Latin</tspan><tspan x="153.6" y="189" class="st0 st4 st5"> は </tspan><tspan x="178.6" y="189" class="st0 st21 st5">Thin</tspan><tspan x="217" y="189" class="st0 st4 st5"> から </tspan><tspan x="257.9" y="189" class="st0 st21 st5">Bold</tspan><tspan x="296.3" y="189" class="st0 st4 st5"> までの </tspan><tspan x="353.3" y="189" class="st0 st21 st5">7</tspan><tspan x="362.9" y="189" class="st0 st4 st5"> つのウェイトを持ち、</tspan><tspan x="527.4" y="189" class="st0 st21 st5">GF Latin Plus</tspan><tspan x="652.2" y="189" class="st0 st4 st5"> に対応した</tspan><tspan x="0" y="225" class="st0 st4 st5">サンセリフ書体です。プログラミング用の等幅フォントとして小さな表示でも読みやすく、</tspan><tspan x="0" y="261" class="st0 st4 st5">読み間違いのない字形を意識してデザインしました。文字幅 </tspan><tspan x="436.5" y="261" class="st0 st21 st5">50%</tspan><tspan x="465.3" y="261" class="st0 st4 st5"> の </tspan><tspan x="490.2" y="261" class="st0 st21 st5">Mplus Code Latin 50</tspan><tspan x="672.6" y="261" class="st0 st4 st5"> と、</tspan><tspan x="0" y="297" class="st0 st4 st5">もう少しゆったりとした文字幅 </tspan><tspan x="228.5" y="297" class="st0 st21 st5">60%</tspan><tspan x="257.3" y="297" class="st0 st4 st5"> の </tspan><tspan x="282.2" y="297" class="st0 st21 st5">Mplus Code Latin 60</tspan><tspan x="464.6" y="297" class="st0 st4 st5"> の </tspan><tspan x="489.6" y="297" class="st0 st21 st5">2</tspan><tspan x="499.2" y="297" class="st0 st4 st5"> 種類があります。</tspan></text>
<g>
	<path class="st22" d="M525.8,904c0,3.5,2.8,6.3,6.3,6.3c3.5,0,6.3-2.8,6.3-6.3c0-3.5-2.8-6.3-6.3-6.3
		C528.6,897.8,525.8,900.6,525.8,904z"/>
	<path class="st22" d="M497.4,904c0,3.5,2.8,6.3,6.3,6.3c3.5,0,6.3-2.8,6.3-6.3c0-3.5-2.8-6.3-6.3-6.3
		C500.2,897.8,497.4,900.6,497.4,904z"/>
	<path class="st12" d="M730.4,936.3c0,53.9,30.7,57,27,62.9c-2.7,4.4-36.9-14.6-36.9-62.9L730.4,936.3z"/>
	<path class="st12" d="M672.3,1060.4c0,21,0,21-5.4,21c-5.1,0-7.1-0.6-12.6-0.6c-5.5,0-7.5,0.6-12.6,0.6c-5.4,0-5.4,0-5.4-21v-47.9
		h36V1060.4z"/>
	<path class="st12" d="M562,1060.4c0,21,0,21-5.4,21c-5.1,0-7.1-0.6-12.6-0.6c-5.5,0-7.5,0.6-12.6,0.6c-5.4,0-5.4,0-5.4-21v-47.9h36
		V1060.4z"/>
	<path class="st12" d="M387.9,911.1c9.4-5.4,9.4-5.4,7.8-8.1c-0.9-1.5-2.1-2.6-4.2-6.2c-2.1-3.7-2.4-5.2-3.3-6.7
		c-1.5-2.7-1.6-2.7-10.9,2.7c-13.8,8-20,17.9-20,30.3c0,17.3,14,31.3,31.3,31.3c28.8,0,52.2-23.4,52.2-52.2
		c0-28.8-23.4-52.2-52.2-52.2c-40.3,0-73,32.7-73,73c0,38.9,30.4,72.6,73,72.6c36.7,0,61.2-6.5,104-30l-23.7-8.7
		c0,39.2,12.3,18.7,12.3,103.4c0,21,0,21,5.4,21c5.1,0,7.1-0.6,12.6-0.6c5.5,0,7.5,0.6,12.6,0.6c5.4,0,5.4,0,5.4-21v-47.9l-16.8,9
		c39.9,0,64.1,6,98.9,6c34.8,0,59-6,98.9-6l-16.8-9v47.9c0,21,0,21,5.4,21c5.1,0,7.1-0.6,12.6-0.6c5.5,0,7.5,0.6,12.6,0.6
		c5.4,0,5.4,0,5.4-21c0-70.3,13.2-73.2,13.2-124.1c0-56.2-34.8-94.7-86.3-94.7c-20.3,0-23.7,3-44.9,3c-21.2,0-24.7-3-44.9-3
		c-116.6,0-41.6,129.4-165.7,129.4c-26.5,0-48-21.5-48-48c0-26.5,21.5-48,48-48c15,0,27.1,12.1,27.1,27.1c0,15-12.1,27.1-27.1,27.1
		c-4.6,0-8.3-3.7-8.3-8.3C380.2,917.3,382.3,914.4,387.9,911.1z M536.1,892.4c4.2,0,7.6,3.4,7.6,7.6c0,4.2-3.4,7.6-7.6,7.6
		c-4.2,0-7.5-3.4-7.5-7.6C528.6,895.8,531.9,892.4,536.1,892.4z M507.7,892.4c4.2,0,7.5,3.4,7.5,7.6c0,4.2-3.4,7.6-7.5,7.6
		c-4.2,0-7.6-3.4-7.6-7.6C500.1,895.8,503.5,892.4,507.7,892.4z"/>
</g>
<g>
	<g>
		<path class="st23" d="M436.7,2251.3c0,3-4.3,5.8-10.1,5.8c-5.8,0-10.1-2.8-10.1-5.8H436.7z"/>
		<path class="st13" d="M445.4,2268.1c0-1.6-0.9-2.4-2.9-2.4c-6.7,0-6.9,7.7-65.4,7.7c-51.3,0-60.6-2.3-60.6-5.3
			c0-6.3,8.4-13.9,16.3-13.9c12.1,0,12.1,6.2,38,6.2c26.2,0,36.1-13.9,55.8-13.9c16.2,0,20.3,6.7,39.9,6.7c19.7,0,31.6-1.4,56.7-1.4
			c62.9,0,88.9,13.9,148,13.9c67,0,78.6-3.8,84.6-3.8c2,0,2.9,0.9,2.9,2.4c0,12.3-78.4,31.7-235.5,31.7c-180,0-204.8-6.6-204.8-16.8
			c0-1.4,0.7-1.9,4.8-1.9c8.5,0,26,1,58.2,1C428.4,2278.2,445.4,2273.5,445.4,2268.1z M411.8,2252.7c0,4.5,6.3,8.7,14.9,8.7
			c8.6,0,14.9-4.2,14.9-8.7H411.8z"/>
	</g>
	<g>
		<path class="st24" d="M573.3,2260.9c22,0,12.1,24.5,46.6,24.5c2.7,0,4.8,1.3,4.8,2.4c0,1.7-4.8,4.7-4.8,6.2c0,1.6,4.8,4.5,4.8,6.2
			c0,1.7-4.8,4.7-4.8,6.2c0,1.6,4.8,4.5,4.8,6.2c0,1.1-2.1,2.4-4.8,2.4c-35.8,0-62.5-18-62.5-38.5
			C557.4,2268,564.5,2260.9,573.3,2260.9z"/>
		<polyline class="st24" points="557.4,2276.7 573.3,2276.7 573.3,2260.9 		"/>
	</g>
	<g>
		<path class="st24" d="M467.5,2260.9c22,0,12.1,24.5,46.6,24.5c2.7,0,4.8,1.3,4.8,2.4c0,1.7-4.8,4.7-4.8,6.2c0,1.6,4.8,4.5,4.8,6.2
			c0,1.7-4.8,4.7-4.8,6.2c0,1.6,4.8,4.5,4.8,6.2c0,1.1-2.1,2.4-4.8,2.4c-35.8,0-62.5-18-62.5-38.5
			C451.6,2268,458.8,2260.9,467.5,2260.9z"/>
		<polyline class="st24" points="451.6,2276.7 467.5,2276.7 467.5,2260.9 		"/>
	</g>
</g>
<g>
	<path class="st25" d="M575.3,431.6c0.6,0,1.3-0.1,1.9-0.3c1.6-0.5,2.8-1.7,3.5-3.1l19.8-42.4c1.4-3,0.1-6.6-2.9-8
		c-3-1.4-6.6-0.1-8,2.9l-17.2,36.8c-4.2-2-8.4-3.9-12.7-5.7c-3.1-1.2-6.6,0.2-7.8,3.3c-1.2,3.1,0.2,6.6,3.3,7.8
		c5.9,2.4,11.7,5.1,17.2,8C573.3,431.3,574.3,431.6,575.3,431.6z"/>
	<path class="st25" d="M639.5,433.2c1.5,0,2.9-0.5,4.1-1.6c4.6-4.3,9.5-8.4,14.5-12.2c1.3-1,2.2-2.5,2.3-4.1
		c0.2-1.6-0.3-3.3-1.4-4.5L629,374.9c-2.1-2.5-5.9-2.9-8.4-0.7c-2.5,2.1-2.9,5.9-0.7,8.4l26.1,31.1c-3.6,2.9-7.1,6-10.5,9.1
		c-2.4,2.2-2.6,6-0.3,8.5C636.3,432.6,637.9,433.2,639.5,433.2z"/>
	<path class="st10" d="M693.9,334.1c-6.3,0-18.3,10.9-44.1,10.9c-25.6,0-27.3-15.8-49.5-15.8c-19.8,0-35.9,16.1-35.9,35.9
		c0,19.8,16.1,35.9,42.5,35.9c38.3,0,90.4-39.2,90.4-63.1C697.2,335.9,695.7,334.1,693.9,334.1z"/>
	<path class="st26" d="M579.1,298.2c0,7.5,6.1,13.6,13.6,13.6c7.5,0,13.6-6.1,13.6-13.6c0-7.5-6.1-13.6-13.6-13.6
		C585.2,284.6,579.1,290.7,579.1,298.2z"/>
	<g>
		<path class="st10" d="M661.8,286.8c0-0.6-0.5-1.1-1.1-1.1c-1.7,0-6.1,1.1-10.9,1.1c-19.7,0-22.9-15.2-46.3-15.2l27.5,33.7
			C645.8,305.3,661.8,294,661.8,286.8z"/>
		<path class="st10" d="M530.1,314c0,3.6,4.5,7.9,31,23.4c22.1,12.9,30.9,15.8,42.5,15.8l-38.6-51.7l-29.4,7.6
			C531.5,310.2,530.1,311.8,530.1,314z"/>
		<path class="st10" d="M603.6,271.5c22.5,0,40.8,18.3,40.8,40.8c0,22.5-18.3,40.8-40.8,40.8c-22.5,0-40.8-18.3-40.8-40.8
			C562.7,289.8,581,271.5,603.6,271.5z M582.3,306.9c0,9.9,8,18,18,18c9.9,0,18-8,18-18c0-9.9-8-18-18-18
			C590.4,289,582.3,297,582.3,306.9z"/>
	</g>
</g>
<g>
	<path class="st10" d="M528.6,2990.6c6.3,0,18.3,10.9,44.1,10.9c25.6,0,27.3-15.8,49.5-15.8c19.8,0,35.9,16.1,35.9,35.9
		c0,19.8-16.1,35.9-42.5,35.9c-38.3,0-90.4-39.2-90.4-63.1C525.4,2992.4,526.8,2990.6,528.6,2990.6z"/>
	<path class="st26" d="M601.1,2954.6c5.3-5.3,13.9-5.3,19.2,0c5.3,5.3,5.3,13.9,0,19.2c-5.3,5.3-13.9,5.3-19.2,0
		C595.8,2968.5,595.8,2959.9,601.1,2954.6z"/>
	<g>
		<path class="st10" d="M560.7,2943.3c0-0.6,0.5-1.1,1.1-1.1c1.7,0,6.1,1.1,10.9,1.1c19.7,0,22.9-15.2,46.3-15.2l-27.5,33.7
			C576.8,2961.8,560.7,2950.5,560.7,2943.3z"/>
		<path class="st10" d="M692.5,2970.5c0,3.6-4.5,7.9-31,23.4c-22.1,12.9-30.9,15.8-42.5,15.8l38.6-51.7l29.4,7.6
			C691,2966.7,692.5,2968.3,692.5,2970.5z"/>
		<path class="st10" d="M659.8,2968.9c0,22.5-18.3,40.8-40.8,40.8c-22.5,0-40.8-18.3-40.8-40.8s18.3-40.8,40.8-40.8
			C641.5,2928.1,659.8,2946.3,659.8,2968.9z M609.5,2976.1c7,7,18.4,7,25.4,0c7-7,7-18.4,0-25.4c-7-7-18.4-7-25.4,0
			C602.5,2957.7,602.5,2969.1,609.5,2976.1z"/>
	</g>
</g>
<g>
	<g>
		<path class="st25" d="M728.7,1619.8c-0.4,0-0.8-0.1-1.2-0.2c-1-0.3-1.8-1.1-2.3-2l-12.7-27.2c-0.9-1.9-0.1-4.2,1.9-5.1
			c1.9-0.9,4.2-0.1,5.1,1.9l11,23.6c2.7-1.3,5.4-2.5,8.1-3.6c2-0.8,4.2,0.1,5,2.1c0.8,2-0.1,4.2-2.1,5c-3.8,1.5-7.5,3.3-11,5.1
			C729.9,1619.7,729.3,1619.8,728.7,1619.8z"/>
		<path class="st25" d="M687.6,1620.9c-0.9,0-1.9-0.3-2.6-1c-3-2.8-6.1-5.4-9.3-7.8c-0.8-0.6-1.4-1.6-1.5-2.6
			c-0.1-1,0.2-2.1,0.9-2.9l19.3-23c1.4-1.6,3.8-1.8,5.4-0.5c1.6,1.4,1.8,3.8,0.5,5.4l-16.7,19.9c2.3,1.9,4.6,3.8,6.7,5.8
			c1.6,1.4,1.6,3.9,0.2,5.4C689.6,1620.4,688.6,1620.9,687.6,1620.9z"/>
		<path class="st10" d="M652.7,1557.5c4.1,0,11.7,7,28.2,7c16.4,0,17.5-10.1,31.7-10.1c12.7,0,23,10.3,23,23c0,12.7-10.3,23-27.2,23
			c-24.5,0-57.8-25.1-57.8-40.4C650.6,1558.5,651.6,1557.5,652.7,1557.5z"/>
		<path class="st26" d="M726.2,1534.5c0,4.8-3.9,8.7-8.7,8.7s-8.7-3.9-8.7-8.7c0-4.8,3.9-8.7,8.7-8.7S726.2,1529.7,726.2,1534.5z"/>
		<g>
			<path class="st10" d="M673.3,1527.1c0-0.4,0.3-0.7,0.7-0.7c1.1,0,3.9,0.7,7,0.7c12.6,0,14.7-9.8,29.6-9.8L693,1539
				C683.5,1539,673.3,1531.8,673.3,1527.1z"/>
			<path class="st10" d="M757.6,1544.6c0,2.3-2.9,5.1-19.9,15c-14.2,8.2-19.7,10.1-27.2,10.1l24.7-33.1l18.8,4.9
				C756.6,1542.1,757.6,1543.2,757.6,1544.6z"/>
			<path class="st10" d="M736.7,1543.5c0,14.4-11.7,26.1-26.1,26.1c-14.4,0-26.1-11.7-26.1-26.1s11.7-26.1,26.1-26.1
				C725,1517.4,736.7,1529.1,736.7,1543.5z M712.6,1528.5c-6.3,0-11.5,5.1-11.5,11.5c0,6.3,5.1,11.5,11.5,11.5
				c6.3,0,11.5-5.1,11.5-11.5C724.1,1533.7,719,1528.5,712.6,1528.5z"/>
		</g>
	</g>
	<g>
		<path class="st25" d="M619.7,1619.8c-0.4,0-0.8-0.1-1.2-0.2c-1-0.3-1.8-1.1-2.3-2l-12.7-27.2c-0.9-1.9-0.1-4.2,1.9-5.1
			c1.9-0.9,4.2-0.1,5.1,1.9l11,23.6c2.7-1.3,5.4-2.5,8.1-3.6c2-0.8,4.2,0.1,5,2.1c0.8,2-0.1,4.2-2.1,5c-3.8,1.5-7.5,3.3-11,5.1
			C620.9,1619.7,620.3,1619.8,619.7,1619.8z"/>
		<path class="st25" d="M578.6,1620.9c-0.9,0-1.9-0.3-2.6-1c-3-2.8-6.1-5.4-9.3-7.8c-0.8-0.6-1.4-1.6-1.5-2.6
			c-0.1-1,0.2-2.1,0.9-2.9l19.3-23c1.4-1.6,3.8-1.8,5.4-0.5c1.6,1.4,1.8,3.8,0.5,5.4l-16.7,19.9c2.3,1.9,4.6,3.8,6.7,5.8
			c1.6,1.4,1.6,3.9,0.2,5.4C580.6,1620.4,579.6,1620.9,578.6,1620.9z"/>
		<path class="st10" d="M543.7,1557.5c4.1,0,11.7,7,28.2,7c16.4,0,17.5-10.1,31.7-10.1c12.7,0,23,10.3,23,23c0,12.7-10.3,23-27.2,23
			c-24.5,0-57.8-25.1-57.8-40.4C541.6,1558.5,542.6,1557.5,543.7,1557.5z"/>
		<path class="st26" d="M609.2,1553.6c-4.8,0-8.7-3.9-8.7-8.7c0-4.8,3.9-8.7,8.7-8.7c4.8,0,8.7,3.9,8.7,8.7
			C617.9,1549.7,614,1553.6,609.2,1553.6z"/>
		<g>
			<path class="st10" d="M648.6,1544.6c0,2.3-2.9,5.1-19.9,15c-14.2,8.2-19.7,10.1-27.2,10.1l24.7-33.1l18.8,4.9
				C647.6,1542.1,648.6,1543.2,648.6,1544.6z"/>
			<path class="st10" d="M627.7,1543.5c0,14.4-11.7,26.1-26.1,26.1c-14.4,0-26.1-11.7-26.1-26.1s11.7-26.1,26.1-26.1
				C616,1517.4,627.7,1529.1,627.7,1543.5z M615.1,1540c0-6.3-5.1-11.5-11.5-11.5c-6.3,0-11.5,5.1-11.5,11.5s5.1,11.5,11.5,11.5
				C610,1551.5,615.1,1546.4,615.1,1540z"/>
		</g>
	</g>
	<g>
		<path class="st25" d="M510.7,1619.8c-0.4,0-0.8-0.1-1.2-0.2c-1-0.3-1.8-1.1-2.3-2l-12.7-27.2c-0.9-1.9-0.1-4.2,1.9-5.1
			c1.9-0.9,4.2-0.1,5.1,1.9l11,23.6c2.7-1.3,5.4-2.5,8.1-3.6c2-0.8,4.2,0.1,5,2.1c0.8,2-0.1,4.2-2.1,5c-3.8,1.5-7.5,3.3-11,5.1
			C511.9,1619.7,511.3,1619.8,510.7,1619.8z"/>
		<path class="st25" d="M469.6,1620.9c-0.9,0-1.9-0.3-2.6-1c-3-2.8-6.1-5.4-9.3-7.8c-0.8-0.6-1.4-1.6-1.5-2.6
			c-0.1-1,0.2-2.1,0.9-2.9l19.3-23c1.4-1.6,3.8-1.8,5.4-0.5c1.6,1.4,1.8,3.8,0.5,5.4l-16.7,19.9c2.3,1.9,4.6,3.8,6.7,5.8
			c1.6,1.4,1.6,3.9,0.2,5.4C471.6,1620.4,470.6,1620.9,469.6,1620.9z"/>
		<path class="st10" d="M434.7,1557.5c4.1,0,11.7,7,28.2,7c16.4,0,17.5-10.1,31.7-10.1c12.7,0,23,10.3,23,23c0,12.7-10.3,23-27.2,23
			c-24.5,0-57.8-25.1-57.8-40.4C432.6,1558.5,433.6,1557.5,434.7,1557.5z"/>
		<path class="st26" d="M508.2,1534.5c0,4.8-3.9,8.7-8.7,8.7s-8.7-3.9-8.7-8.7c0-4.8,3.9-8.7,8.7-8.7S508.2,1529.7,508.2,1534.5z"/>
		<g>
			<path class="st10" d="M539.6,1544.6c0,2.3-2.9,5.1-19.9,15c-14.2,8.2-19.7,10.1-27.2,10.1l24.7-33.1l18.8,4.9
				C538.6,1542.1,539.6,1543.2,539.6,1544.6z"/>
			<path class="st10" d="M518.7,1543.5c0,14.4-11.7,26.1-26.1,26.1c-14.4,0-26.1-11.7-26.1-26.1s11.7-26.1,26.1-26.1
				C507,1517.4,518.7,1529.1,518.7,1543.5z M494.6,1528.5c-6.3,0-11.5,5.1-11.5,11.5c0,6.3,5.1,11.5,11.5,11.5
				c6.3,0,11.5-5.1,11.5-11.5C506.1,1533.7,501,1528.5,494.6,1528.5z"/>
		</g>
	</g>
	<g>
		<path class="st25" d="M401.7,1619.8c-0.4,0-0.8-0.1-1.2-0.2c-1-0.3-1.8-1.1-2.3-2l-12.7-27.2c-0.9-1.9-0.1-4.2,1.9-5.1
			c1.9-0.9,4.2-0.1,5.1,1.9l11,23.6c2.7-1.3,5.4-2.5,8.1-3.6c2-0.8,4.2,0.1,5,2.1c0.8,2-0.1,4.2-2.1,5c-3.8,1.5-7.5,3.3-11,5.1
			C402.9,1619.7,402.3,1619.8,401.7,1619.8z"/>
		<path class="st25" d="M360.6,1620.9c-0.9,0-1.9-0.3-2.6-1c-3-2.8-6.1-5.4-9.3-7.8c-0.8-0.6-1.4-1.6-1.5-2.6
			c-0.1-1,0.2-2.1,0.9-2.9l19.3-23c1.4-1.6,3.8-1.8,5.4-0.5c1.6,1.4,1.8,3.8,0.5,5.4l-16.7,19.9c2.3,1.9,4.6,3.8,6.7,5.8
			c1.6,1.4,1.6,3.9,0.2,5.4C362.6,1620.4,361.6,1620.9,360.6,1620.9z"/>
		<path class="st10" d="M325.7,1557.5c4.1,0,11.7,7,28.2,7c16.4,0,17.5-10.1,31.7-10.1c12.7,0,23,10.3,23,23c0,12.7-10.3,23-27.2,23
			c-24.5,0-57.8-25.1-57.8-40.4C323.6,1558.5,324.6,1557.5,325.7,1557.5z"/>
		<path class="st26" d="M391.2,1553.6c-4.8,0-8.7-3.9-8.7-8.7c0-4.8,3.9-8.7,8.7-8.7c4.8,0,8.7,3.9,8.7,8.7
			C399.9,1549.7,396,1553.6,391.2,1553.6z"/>
		<g>
			<path class="st10" d="M430.6,1544.6c0,2.3-2.9,5.1-19.9,15c-14.2,8.2-19.7,10.1-27.2,10.1l24.7-33.1l18.8,4.9
				C429.6,1542.1,430.6,1543.2,430.6,1544.6z"/>
			<path class="st10" d="M409.7,1543.5c0,14.4-11.7,26.1-26.1,26.1c-14.4,0-26.1-11.7-26.1-26.1s11.7-26.1,26.1-26.1
				C398,1517.4,409.7,1529.1,409.7,1543.5z M397.1,1540c0-6.3-5.1-11.5-11.5-11.5c-6.3,0-11.5,5.1-11.5,11.5s5.1,11.5,11.5,11.5
				C392,1551.5,397.1,1546.4,397.1,1540z"/>
		</g>
	</g>
</g>
<path class="st27" d="M497.3,2901.7c0,7.7,6.3,14,14,14h176v28l20-28h8c7.7,0,14-6.3,14-14v-42c0-7.7-6.3-14-14-14h-204
	c-7.7,0-14,6.3-14,14V2901.7z"/>
<text transform="matrix(1 0 0 1 506.5991 2898.1907)" class="st10 st1 st28">THANKS</text>
</svg>
