<?xml version="1.0" encoding="utf-8"?>
<!-- Generator: Adobe Illustrator 25.2.3, SVG Export Plug-In . SVG Version: 6.00 Build 0)  -->
<svg version="1.1" id="text" xmlns="http://www.w3.org/2000/svg" xmlns:xlink="http://www.w3.org/1999/xlink" x="0px" y="0px"
	 viewBox="0 0 797.3 2711.7" style="enable-background:new 0 0 797.3 2711.7;" xml:space="preserve">
<style type="text/css">
	.st0{fill:#666666;}
	.st1{font-family:'Mplus1-Black';}
	.st2{font-size:60px;}
	.st3{fill:#999999;}
	.st4{font-family:'Mplus1-Medium';}
	.st5{font-size:16px;}
	.st6{font-size:25px;}
	.st7{font-family:'Mplus1-Bold';}
	.st8{font-size:22px;}
	.st9{font-family:'Mplus2-Black';}
	.st10{font-family:'Mplus2-Medium';}
	.st11{font-family:'Mplus1Code-Bold';}
	.st12{font-family:'Mplus1Code-Medium';}
	.st13{font-family:'MplusCodeLatin60-Bold';}
	.st14{fill:none;stroke:#CCCCCC;stroke-miterlimit:10;}
	.st15{font-size:100px;}
	.st16{font-family:'MplusCodeLatin50-Bold';}
	.st17{font-family:'MplusCodeLatin60-Medium';}
</style>
<text transform="matrix(1 0 0 1 0.5001 403.7396)" class="st0 st1 st2">Mplus 1</text>
<g>
	<polygon class="st3" points="105.8,28.1 134,28.1 134,0 157.3,0 157.3,28.1 185.5,28.1 185.5,51.5 157.3,51.5 157.3,79.6 134,79.6 
		134,51.5 105.8,51.5 	"/>
	<polyline class="st0" points="105.8,28.1 105.8,128.4 78.4,128.4 78.4,70.7 78.1,70.7 66,107.1 41.3,107.1 29.2,70.7 29,70.7 
		29,128.4 1.5,128.4 1.5,28.1 35.5,28.1 53.5,81.7 53.8,81.7 71.8,28.1 105.8,28.1 	"/>
	<polygon class="st0" points="208.8,28.1 282.9,28.1 282.9,50.8 236.3,50.8 236.3,69.3 280.2,69.3 280.2,91.3 236.3,91.3 
		236.3,128.4 208.8,128.4 	"/>
	<path class="st0" d="M293.2,78.3c0-32.4,19.4-51.5,52.2-51.5s52.2,19.1,52.2,51.5c0,32.4-19.4,51.5-52.2,51.5
		S293.2,110.7,293.2,78.3z M369.4,78.3c0-18.7-8.1-28.1-24-28.1s-24,9.5-24,28.1c0,18.7,8.1,28.1,24,28.1S369.4,96.9,369.4,78.3z"/>
	<polygon class="st0" points="409.9,28.1 437.4,28.1 467.3,81.7 467.6,81.7 467.6,28.1 495.1,28.1 495.1,128.4 467.6,128.4 
		437.7,74.8 437.4,74.8 437.4,128.4 409.9,128.4 	"/>
	<polygon class="st0" points="535,51.5 506.6,51.5 506.6,28.1 591.7,28.1 591.7,51.5 563.3,51.5 563.3,128.4 535,128.4 	"/>
	<path class="st0" d="M599.9,121l5.8-23.3c9.5,5.4,24.4,9.5,34.6,9.5c8.1,0,12.4-2.6,12.4-7.6c0-4.8-4.1-7.1-21.4-11.9
		c-21.6-5.9-31.3-15.9-31.3-31.3c0-18.9,15.2-29.5,42.7-29.5c13.3,0,27.2,2.5,36.9,6.6l-5.8,23.3c-9.9-4.7-21.1-7.3-31.6-7.3
		c-9.2,0-13.5,2.1-13.5,6.7c0,5.2,3.7,7.8,20,12.6c23.3,6.9,32.7,15.7,32.7,30.8c0,19.4-15.5,30.2-43,30.2
		C623.4,129.7,608.9,126.4,599.9,121z"/>
</g>
<text transform="matrix(1 0 0 1 0.5001 458.7396)"><tspan x="0" y="0" class="st0 st4 st5">Mplus 1 is a Sans Serif font with seven weights from Thin to Black, </tspan><tspan x="0" y="36" class="st0 st4 st5">supporting 5,700+ Kanjis for Japanese with GF Latin Plus.</tspan><tspan x="0" y="72" class="st0 st4 st5">With the harmony of comfortable curves and straight lines, this font gives modern and </tspan><tspan x="0" y="108" class="st0 st4 st5">generous impression, suiting for any occasions including small texts to big titles.</tspan><tspan x="0" y="158" class="st0 st4 st5">Mplus 1 は Thin から Black までの 7 つのウェイトを持ち、5,700 字以上の漢字を含む日本語と </tspan><tspan x="0" y="194" class="st0 st4 st5">GF Latin Plus に対応したサンセリフ書体です。</tspan><tspan x="0" y="230" class="st0 st4 st5">ゆったりとした曲線と直線を組み合わせた特徴的なデザインは、小さな本文表示から大きな</tspan><tspan x="0" y="266" class="st0 st4 st5">見出し表示まで読みやすく、文章を明るくモダンでやさしい印象にします。</tspan></text>
<text transform="matrix(1 0 0 1 0.5001 178.7396)" class="st0 st1 st6">A LITTLE NIFTY FONT FAMILY FOR EVERYDAY USAGE</text>
<text transform="matrix(1 0 0 1 0.5001 210.7396)" class="st0 st7 st8">普段使い用の、ちょっと気のきいたフォントファミリーです</text>
<text transform="matrix(1 0 0 1 0.5001 1003.7396)" class="st0 st9 st2">Mplus 2</text>
<text transform="matrix(1 0 0 1 0.5001 1058.7396)"><tspan x="0" y="0" class="st0 st10 st5">Mplus 2 is a Sans Serif font with seven weights from Thin to Black, </tspan><tspan x="0" y="36" class="st0 st10 st5">supporting 5,700+ Kanjis for Japanese with GF Latin Plus.</tspan><tspan x="0" y="72" class="st0 st10 st5">With the somewhat classic letterforms, this font pursues new standard of classic modern.</tspan><tspan x="0" y="122" class="st0 st10 st5">Mplus 2 は Thin から Black までの 7 つのウェイトを持ち、5,700 字以上の漢字を含む日本語と </tspan><tspan x="0" y="158" class="st0 st10 st5">GF Latin Plus に対応したサンセリフ書体です。</tspan><tspan x="0" y="194" class="st0 st10 st5">ちょっとだけクラシックな雰囲気を残したデザインは、モダンになりすぎず、かといって従来的な</tspan><tspan x="0" y="230" class="st0 st10 st5">デザインとも異なる、新たなスタンダード書体を目標として制作しました。</tspan></text>
<text transform="matrix(1 0 0 1 0.5001 1567.7396)" class="st0 st11 st2">Mplus 1 Code</text>
<text transform="matrix(1 0 0 1 0.5001 1622.7396)"><tspan x="0" y="0" class="st0 st12 st5">Mplus 1 Code is a Sans Serif font with five weights from Thin to Bold, </tspan><tspan x="0" y="36" class="st0 st12 st5">supporting 5,700+ Kanjis for Japanese with GF Latin Plus.</tspan><tspan x="0" y="72" class="st0 st12 st5">Because this font is for programming usage, it has high readability even in small sizes, </tspan><tspan x="0" y="108" class="st0 st12 st5">and letterforms are designed to avoid misreadings as much as possible. This font is a combination </tspan><tspan x="0" y="144" class="st0 st12 st5">of Mplus 1 full-width Japanese with new half-width monospaced Latin alphabet and figures.</tspan><tspan x="0" y="194" class="st0 st12 st5">Mplus 1 Code は Thin から Bold までの 5 つのウェイトを持ち、5,700 字以上の漢字を含む日本語と </tspan><tspan x="0" y="230" class="st0 st12 st5">GF Latin Plus に対応したサンセリフ書体です。プログラミング用のフォントとして小さな</tspan><tspan x="0" y="266" class="st0 st12 st5">表示でも読みやすく、読み間違いのない字形を意識してデザインしました。</tspan><tspan x="0" y="302" class="st0 st12 st5">Mplus 1 の全角幅日本語グリフと新設計の半角幅英数字を組み合わせた等幅フォントになっています。</tspan></text>
<text transform="matrix(1 0 0 1 0.5001 2203.7395)" class="st0 st13 st2">Mplus Code Latin</text>
<g>
	<rect x="0.5" y="762.7" class="st14" width="300" height="100"/>
	<line class="st14" x1="50.5" y1="862.7" x2="50.5" y2="762.7"/>
	<line class="st14" x1="100.5" y1="862.7" x2="100.5" y2="762.7"/>
	<line class="st14" x1="150.5" y1="862.7" x2="150.5" y2="762.7"/>
	<line class="st14" x1="200.5" y1="862.7" x2="200.5" y2="762.7"/>
	<line class="st14" x1="250.5" y1="862.7" x2="250.5" y2="762.7"/>
	<line class="st14" x1="0.5" y1="812.7" x2="300.5" y2="812.7"/>
</g>
<text transform="matrix(1 0 0 1 0.5001 848.7396)" class="st0 st1 st15">あ永ア</text>
<g>
	<rect x="0.5" y="1326.7" class="st14" width="300" height="100"/>
	<line class="st14" x1="50.5" y1="1426.7" x2="50.5" y2="1326.7"/>
	<line class="st14" x1="100.5" y1="1426.7" x2="100.5" y2="1326.7"/>
	<line class="st14" x1="150.5" y1="1426.7" x2="150.5" y2="1326.7"/>
	<line class="st14" x1="200.5" y1="1426.7" x2="200.5" y2="1326.7"/>
	<line class="st14" x1="250.5" y1="1426.7" x2="250.5" y2="1326.7"/>
	<line class="st14" x1="0.5" y1="1376.7" x2="300.5" y2="1376.7"/>
</g>
<text transform="matrix(1 0 0 1 0.5001 1412.7396)" class="st0 st9 st15">あ永ア</text>
<g>
	<rect x="0.5" y="1962.7" class="st14" width="300" height="100"/>
	<line class="st14" x1="50.5" y1="2062.7" x2="50.5" y2="1962.7"/>
	<line class="st14" x1="100.5" y1="2062.7" x2="100.5" y2="1962.7"/>
	<line class="st14" x1="150.5" y1="2062.7" x2="150.5" y2="1962.7"/>
	<line class="st14" x1="200.5" y1="2062.7" x2="200.5" y2="1962.7"/>
	<line class="st14" x1="250.5" y1="2062.7" x2="250.5" y2="1962.7"/>
	<line class="st14" x1="0.5" y1="2012.7" x2="300.5" y2="2012.7"/>
</g>
<text transform="matrix(1 0 0 1 0.5001 2048.7395)" class="st0 st11 st15">あAaBb</text>
<g>
	<rect x="0.5" y="2598.7" class="st14" width="300" height="100"/>
	<line class="st14" x1="50.5" y1="2698.7" x2="50.5" y2="2598.7"/>
	<line class="st14" x1="100.5" y1="2698.7" x2="100.5" y2="2598.7"/>
	<line class="st14" x1="150.5" y1="2698.7" x2="150.5" y2="2598.7"/>
	<line class="st14" x1="200.5" y1="2698.7" x2="200.5" y2="2598.7"/>
	<line class="st14" x1="250.5" y1="2698.7" x2="250.5" y2="2598.7"/>
	<line class="st14" x1="0.5" y1="2648.7" x2="300.5" y2="2648.7"/>
</g>
<text transform="matrix(1 0 0 1 0.5001 2684.7395)"><tspan x="0" y="0" class="st0 st16 st15">abc</tspan><tspan x="150" y="0" class="st0 st13 st15">abc</tspan></text>
<text transform="matrix(1 0 0 1 0.5001 2258.7395)"><tspan x="0" y="0" class="st0 st17 st5">Mplus Code Latin is a Sans Serif font with five weights from Thin to Bold, </tspan><tspan x="0" y="36" class="st0 st17 st5">supporting GF Latin Plus. Because this font is for programming usage, </tspan><tspan x="0" y="72" class="st0 st17 st5">it has high readability even in small sizes, and letterforms are designed </tspan><tspan x="0" y="108" class="st0 st17 st5">to avoid misreadings as much as possible. There are two styles—Mplus Code Latin 50 </tspan><tspan x="0" y="144" class="st0 st17 st5">and Mplus Code Latin 60, each having 50% and 60% character width.</tspan><tspan x="0" y="194" class="st0 st17 st5">Mplus Code Latin</tspan><tspan x="153.6" y="194" class="st0 st4 st5"> は </tspan><tspan x="178.6" y="194" class="st0 st17 st5">Thin</tspan><tspan x="217" y="194" class="st0 st4 st5"> から </tspan><tspan x="257.9" y="194" class="st0 st17 st5">Bold</tspan><tspan x="296.3" y="194" class="st0 st4 st5"> までの </tspan><tspan x="353.3" y="194" class="st0 st17 st5">5</tspan><tspan x="362.9" y="194" class="st0 st4 st5"> つのウェイトを持ち、</tspan><tspan x="527.4" y="194" class="st0 st17 st5">GF Latin Plus</tspan><tspan x="652.2" y="194" class="st0 st4 st5"> に対応した</tspan><tspan x="0" y="230" class="st0 st4 st5">サンセリフ書体です。プログラミング用の等幅フォントとして小さな表示でも読みやすく、</tspan><tspan x="0" y="266" class="st0 st4 st5">読み間違いのない字形を意識してデザインしました。文字幅 </tspan><tspan x="436.5" y="266" class="st0 st17 st5">50%</tspan><tspan x="465.3" y="266" class="st0 st4 st5"> の </tspan><tspan x="490.2" y="266" class="st0 st17 st5">Mplus Code Latin 50</tspan><tspan x="672.6" y="266" class="st0 st4 st5"> と、</tspan><tspan x="0" y="302" class="st0 st4 st5">もう少しゆったりとした文字幅 </tspan><tspan x="228.5" y="302" class="st0 st17 st5">60%</tspan><tspan x="257.3" y="302" class="st0 st4 st5"> の </tspan><tspan x="282.2" y="302" class="st0 st17 st5">Mplus Code Latin 60</tspan><tspan x="464.6" y="302" class="st0 st4 st5"> の </tspan><tspan x="489.6" y="302" class="st0 st17 st5">2</tspan><tspan x="499.2" y="302" class="st0 st4 st5"> 種類があります。</tspan></text>
</svg>
