<?xml version="1.0" encoding="utf-8"?>
<!-- Generator: Adobe Illustrator 24.0.1, SVG Export Plug-In . SVG Version: 6.00 Build 0)  -->
<svg version="1.1" id="Layer_1" xmlns="http://www.w3.org/2000/svg" xmlns:xlink="http://www.w3.org/1999/xlink" x="0px" y="0px"
	 viewBox="0 0 247.6 47.2" style="enable-background:new 0 0 247.6 47.2;" xml:space="preserve">
<style type="text/css">
	.st0{fill:#999999;}
	.st1{fill:#666666;}
</style>
<g>
	<polygon class="st0" points="48.2,29 56.8,29 56.8,18.8 67,18.8 67,10.2 56.8,10.2 56.8,0 48.2,0 48.2,10.2 38,10.2 38,18.8 
		48.2,18.8 	"/>
	<path class="st1" d="M231.9,47.2c10,0,15.7-4,15.7-11c0-5.5-3.4-8.7-11.9-11.2c-6.1-1.8-7.6-2.7-7.6-4.6c0-1.7,1.5-2.5,4.8-2.5
		c3.6,0,7.8,1,11.2,2.6l2.1-8.5c-3.5-1.5-8.4-2.4-13.2-2.4c-9.9,0-15.4,3.9-15.4,10.8c0,5.8,3.5,9.1,11.7,11.4
		c6.4,1.8,7.8,2.6,7.8,4.4c0,1.8-1.7,2.8-4.5,2.8c-3.6,0-9.2-1.5-12.6-3.5l-2.1,8.5C221.1,46,226.2,47.2,231.9,47.2z"/>
	<polygon class="st1" points="194.6,46.8 204.9,46.8 204.9,18.8 215.3,18.8 215.3,10.2 184.3,10.2 184.3,18.8 194.6,18.8 	"/>
	<polygon class="st1" points="148.8,46.8 158.8,46.8 158.8,27.2 158.9,27.2 169.8,46.8 179.8,46.8 179.8,10.2 169.8,10.2 
		169.8,29.8 169.6,29.8 158.8,10.2 148.8,10.2 	"/>
	<path class="st1" d="M124.8,38.8c-5.8,0-8.8-3.5-8.8-10.2s3-10.2,8.8-10.2s8.8,3.5,8.8,10.2S130.6,38.8,124.8,38.8z M124.8,47.2
		c12,0,19-7,19-18.8s-7.1-18.8-19-18.8s-19,7-19,18.8S112.9,47.2,124.8,47.2z"/>
	<polygon class="st1" points="75.5,46.8 85.5,46.8 85.5,33.2 101.5,33.2 101.5,25.2 85.5,25.2 85.5,18.5 102.5,18.5 102.5,10.2 
		75.5,10.2 	"/>
	<polygon class="st1" points="0,46.8 10,46.8 10,25.8 10.1,25.8 14.5,39 23.5,39 27.9,25.8 28,25.8 28,46.8 38,46.8 38,10.2 
		25.6,10.2 19,29.8 19,29.8 12.4,10.2 0,10.2 	"/>
</g>
</svg>
