<?xml version="1.0" encoding="utf-8"?>
<!-- Generator: Adobe Illustrator 24.0.1, SVG Export Plug-In . SVG Version: 6.00 Build 0)  -->
<svg version="1.1" id="Layer_1" xmlns="http://www.w3.org/2000/svg" xmlns:xlink="http://www.w3.org/1999/xlink" x="0px" y="0px"
	 viewBox="0 0 240.8 47.2" style="enable-background:new 0 0 240.8 47.2;" xml:space="preserve">
<style type="text/css">
	.st0{fill:#666666;}
	.st1{fill:#999999;}
</style>
<g>
	<path class="st0" d="M226.1,47.2c9.1,0,14.8-4.3,14.8-11.2c0-5.5-3.4-8.6-13-12.1c-3.2-1.1-4.2-2-4.2-3.4c0-1.6,1.6-2.5,4.5-2.5
		c2.8,0,5.9,0.7,8.8,2l3-7.9c-3.1-1.4-7.8-2.4-12.3-2.4c-9.4,0-14.5,3.8-14.5,10.8c0,5.9,3.6,9.2,13.2,12.5c3.1,1,4,1.8,4,3.2
		c0,1.8-1.5,2.8-4.2,2.8c-3.2,0-7-1-10.2-2.8l-3,7.9C215.9,46.2,220.6,47.2,226.1,47.2z"/>
	<polygon class="st0" points="190.5,46.8 200.8,46.8 200.8,18.8 210.6,18.8 210.6,10.2 180.7,10.2 180.7,18.8 190.5,18.8 	"/>
	<polygon class="st0" points="145.6,46.8 155.6,46.8 155.6,26.8 155.8,26.8 166.1,46.8 176.1,46.8 176.1,10.2 166.1,10.2 
		166.1,30.2 166.1,30.2 155.6,10.2 145.6,10.2 	"/>
	<path class="st0" d="M122.1,38.8c-5.7,0-8.5-3.5-8.5-10.2s2.8-10.2,8.5-10.2c5.6,0,8.5,3.5,8.5,10.2S127.7,38.8,122.1,38.8z
		 M122.1,47.2c11.8,0,18.8-7,18.8-18.8S134,9.6,122.1,9.6s-18.8,7-18.8,18.8S110.2,47.2,122.1,47.2z"/>
	<polygon class="st0" points="75.5,46.8 85.5,46.8 85.5,33.2 99,33.2 99,25.2 85.5,25.2 85.5,18.5 100,18.5 100,10.2 75.5,10.2 	"/>
	<polygon class="st1" points="48.2,29 56.8,29 56.8,18.8 67,18.8 67,10.2 56.8,10.2 56.8,0 48.2,0 48.2,10.2 38,10.2 38,18.8 
		48.2,18.8 	"/>
	<polygon class="st0" points="0,46.8 10,46.8 10,25.8 10.1,25.8 14.5,39 23.5,39 27.9,25.8 28,25.8 28,46.8 38,46.8 38,10.2 
		25.6,10.2 19,29.8 19,29.8 12.4,10.2 0,10.2 	"/>
</g>
</svg>
