<?xml version="1.0" encoding="utf-8"?>
<!-- Generator: Adobe Illustrator 23.0.6, SVG Export Plug-In . SVG Version: 6.00 Build 0)  -->
<svg version="1.1" id="Layer_1" xmlns="http://www.w3.org/2000/svg" xmlns:xlink="http://www.w3.org/1999/xlink" x="0px" y="0px"
	 viewBox="0 0 250.8 47.5" style="enable-background:new 0 0 250.8 47.5;" xml:space="preserve">
<style type="text/css">
	.st0{fill:#666666;}
</style>
<g>
	<path d="M0,10.5h12.4L18.95,29h0.1l6.55-18.5H38V47H28V27h-0.1l-4.4,12.25h-9L10.1,27H10v20H0V10.5z"/>
	<path class="st0" d="M48.5,18.5H38v-8h10.5V0h8v10.5H67v8H56.5V29h-8V18.5z"/>
	<path d="M84.9,10.5h24v8.25h-14v6.75h13v8h-13V47h-10V10.5z"/>
	<path d="M112.45,28.75c0.05-11.8,7-18.75,18.75-18.75c11.85,0,18.8,6.95,18.75,18.75c0.05,11.8-6.9,18.75-18.75,18.75
		C119.45,47.5,112.5,40.55,112.45,28.75z M139.7,28.75c0.05-6.8-2.8-10.25-8.5-10.25c-5.6,0-8.45,3.45-8.5,10.25
		c0.05,6.8,2.9,10.25,8.5,10.25C136.85,39,139.75,35.55,139.7,28.75z"/>
	<path d="M154.8,10.5h10l10.4,19h0.1v-19h10V47h-10l-10.4-19h-0.1v19h-10V10.5z"/>
	<path d="M200.05,19h-9.85v-8.5h30V19h-9.9v28h-10.25V19z"/>
	<path d="M222.8,43.8l2.35-8.25c3.25,2.25,7.5,3.7,10.9,3.7c2.75,0,4.25-0.95,4.25-2.75c0-1.45-0.95-2.2-4-3.25
		c-9.7-3.3-13.25-6.65-13.25-12.5c0-6.95,5.1-10.75,14.5-10.75c4.6,0,9.35,0.95,12.5,2.5l-1.8,8.25c-4-1.85-6.7-2.5-10.2-2.5
		c-2.95,0-4.5,0.85-4.5,2.5c0,1.4,1.1,2.25,4.25,3.35c9.65,3.5,13,6.65,13,12.15c0,6.95-5.6,11.25-14.75,11.25
		C230.6,47.5,225.95,46.2,222.8,43.8z"/>
</g>
</svg>
