<?xml version="1.0" encoding="utf-8"?>
<!-- Generator: Adobe Illustrator 26.0.3, SVG Export Plug-In . SVG Version: 6.00 Build 0)  -->
<svg version="1.1" id="Layer_1" xmlns="http://www.w3.org/2000/svg" xmlns:xlink="http://www.w3.org/1999/xlink" x="0px" y="0px"
	 viewBox="0 0 248 47.1" style="enable-background:new 0 0 248 47.1;" xml:space="preserve">
<style type="text/css">
	.st0{fill:#666666;}
	.st1{fill:#999999;}
</style>
<g>
	<polygon class="st0" points="38,10.2 25.6,10.1 19,29.7 19,29.7 12.4,10.1 0,10.1 0,46.7 10,46.7 10,25.7 10.1,25.7 14.5,38.9 
		23.5,38.9 27.9,25.7 28,25.7 28,46.7 38,46.7 	"/>
	<polygon class="st0" points="194.3,46.7 204.6,46.7 204.6,18.7 214.9,18.7 214.9,10.1 183.9,10.1 183.9,18.7 194.3,18.7 	"/>
	<polygon class="st0" points="148.8,46.7 158.8,46.7 158.8,27.1 158.9,27.1 169.8,46.7 179.8,46.7 179.8,10.1 169.8,10.1 
		169.8,29.7 169.6,29.7 158.8,10.1 148.8,10.1 	"/>
	<path class="st0" d="M125.2,38.7c-5.8,0-8.8-3.5-8.8-10.2s2.9-10.2,8.8-10.2c5.9,0,8.8,3.5,8.8,10.2S131.1,38.7,125.2,38.7z
		 M125.2,47.1c11.9,0,19-7,19-18.8s-7.1-18.8-19-18.8s-19,7-19,18.8S113.3,47.1,125.2,47.1z"/>
	<polygon class="st0" points="75.5,46.7 85.5,46.7 85.5,33.1 101.5,33.1 101.5,25.1 85.5,25.1 85.5,18.4 102.5,18.4 102.5,10.1 
		75.5,10.1 	"/>
	<polygon class="st1" points="38,10.2 38,18.8 48.2,18.8 48.2,29 56.8,29 56.8,18.8 67,18.8 67,10.2 56.8,10.2 56.8,0 48.2,0 
		48.2,10.2 	"/>
	<path class="st0" d="M232.4,47.1c10,0,15.6-4,15.6-11c0-5.5-3.4-8.7-11.9-11.2c-6.2-1.8-7.6-2.7-7.6-4.6c0-1.7,1.6-2.4,4.9-2.4
		c3.8,0,7.9,0.9,11.5,2.6L247,12c-3.6-1.5-8.6-2.4-13.4-2.4c-10,0-15.6,3.9-15.6,10.8c0,5.6,3.7,9.2,11.7,11.4
		c6.3,1.7,7.8,2.6,7.8,4.4c0,1.8-1.6,2.8-4.5,2.8c-3.7,0-9.1-1.5-12.6-3.5l-2.1,8.5C221.6,45.9,226.9,47.1,232.4,47.1z"/>
</g>
</svg>
