<?xml version="1.0" encoding="utf-8"?>
<!-- Generator: Adobe Illustrator 15.0.2, SVG Export Plug-In . SVG Version: 6.00 Build 0)  -->
<!DOCTYPE svg PUBLIC "-//W3C//DTD SVG 1.1//EN" "http://www.w3.org/Graphics/SVG/1.1/DTD/svg11.dtd">
<svg version="1.1" id="レイヤー1" xmlns="http://www.w3.org/2000/svg" xmlns:xlink="http://www.w3.org/1999/xlink" x="0px"
	 y="0px" width="841.8896484px" height="595.2753906px" viewBox="0 0 841.8896484 595.2753906"
	 enable-background="new 0 0 841.8896484 595.2753906" xml:space="preserve">
<g>
	<rect x="195.5" y="147.5" fill="none" stroke="#999999" stroke-width="0.1" width="50" height="100"/>
	<rect x="295.5" y="147.5" fill="none" stroke="#999999" stroke-width="0.1" width="50" height="100"/>
	<rect x="395.5" y="147.5" fill="none" stroke="#999999" stroke-width="0.1" width="50" height="100"/>
	<rect x="495.5" y="147.5" fill="none" stroke="#999999" stroke-width="0.1" width="50" height="100"/>
	<rect x="595.5" y="147.5" fill="none" stroke="#999999" stroke-width="0.1" width="50" height="100"/>
	<rect x="195.5" y="247.5" fill="none" stroke="#999999" stroke-width="0.1" width="50" height="100"/>
	<rect x="295.5" y="247.5" fill="none" stroke="#999999" stroke-width="0.1" width="50" height="100"/>
	<rect x="395.5" y="247.5" fill="none" stroke="#999999" stroke-width="0.1" width="50" height="100"/>
	<rect x="495.5" y="247.5" fill="none" stroke="#999999" stroke-width="0.1" width="50" height="100"/>
	<rect x="595.5" y="247.5" fill="none" stroke="#999999" stroke-width="0.1" width="50" height="100"/>
	<rect x="195.5" y="-52.5" fill="none" stroke="#999999" stroke-width="0.1" width="50" height="100"/>
	<rect x="295.5" y="-52.5" fill="none" stroke="#999999" stroke-width="0.1" width="50" height="100"/>
	<rect x="395.5" y="-52.5" fill="none" stroke="#999999" stroke-width="0.1" width="50" height="100"/>
	<rect x="495.5" y="-52.5" fill="none" stroke="#999999" stroke-width="0.1" width="50" height="100"/>
	<rect x="595.5" y="-52.5" fill="none" stroke="#999999" stroke-width="0.1" width="50" height="100"/>
	<rect x="195.5" y="47.5" fill="none" stroke="#999999" stroke-width="0.1" width="50" height="100"/>
	<rect x="295.5" y="47.5" fill="none" stroke="#999999" stroke-width="0.1" width="50" height="100"/>
	<rect x="395.5" y="47.5" fill="none" stroke="#999999" stroke-width="0.1" width="50" height="100"/>
	<rect x="495.5" y="47.5" fill="none" stroke="#999999" stroke-width="0.1" width="50" height="100"/>
	<rect x="595.5" y="47.5" fill="none" stroke="#999999" stroke-width="0.1" width="50" height="100"/>
	<rect x="195.5" y="347.5" fill="none" stroke="#999999" stroke-width="0.1" width="50" height="100"/>
	<rect x="295.5" y="347.5" fill="none" stroke="#999999" stroke-width="0.1" width="50" height="100"/>
	<rect x="395.5" y="347.5" fill="none" stroke="#999999" stroke-width="0.1" width="50" height="100"/>
	<rect x="495.5" y="347.5" fill="none" stroke="#999999" stroke-width="0.1" width="50" height="100"/>
	<rect x="595.5" y="347.5" fill="none" stroke="#999999" stroke-width="0.1" width="50" height="100"/>
	<rect x="195.5" y="447.5" fill="none" stroke="#999999" stroke-width="0.1" width="50" height="100"/>
	<rect x="295.5" y="447.5" fill="none" stroke="#999999" stroke-width="0.1" width="50" height="100"/>
	<rect x="395.5" y="447.5" fill="none" stroke="#999999" stroke-width="0.1" width="50" height="100"/>
	<rect x="495.5" y="447.5" fill="none" stroke="#999999" stroke-width="0.1" width="50" height="100"/>
	<rect x="595.5" y="447.5" fill="none" stroke="#999999" stroke-width="0.1" width="50" height="100"/>
	<rect x="195.5" y="547.5" fill="none" stroke="#999999" stroke-width="0.1" width="50" height="100"/>
	<rect x="295.5" y="547.5" fill="none" stroke="#999999" stroke-width="0.1" width="50" height="100"/>
	<rect x="395.5" y="547.5" fill="none" stroke="#999999" stroke-width="0.1" width="50" height="100"/>
	<rect x="495.5" y="547.5" fill="none" stroke="#999999" stroke-width="0.1" width="50" height="100"/>
	<rect x="595.5" y="547.5" fill="none" stroke="#999999" stroke-width="0.1" width="50" height="100"/>
</g>
<g>
	<polygon points="204.9003906,575.0996094 204.9003906,589.2998047 221.9003906,589.2998047 221.9003906,597 207.3007812,597 
		207.3007812,611.2001953 221.9003906,611.2001953 221.9003906,619.7998047 204.9003906,619.7998047 204.9003906,634.3994141 
		221.9003906,634.3994141 221.9003906,638.3994141 235.7001953,638.3994141 235.7001953,575.0996094 	"/>
	<polygon points="205.1000977,475.7324219 205.1000977,487.8994141 223.5332031,487.8994141 223.5332031,497.8496094 
		207.3671875,497.8496094 207.3671875,510.0166016 223.5332031,510.0166016 223.5332031,521.4326172 205.1000977,521.4326172 
		205.1000977,533.9326172 223.5332031,533.9326172 223.5332031,537.9326172 235.5332031,537.9326172 235.5332031,475.7324219 	"/>
	<polygon points="205.2998047,376.3671875 205.2998047,386.5 225.1669922,386.5 225.1669922,398.7001953 207.4335938,398.7001953 
		207.4335938,408.8339844 225.1669922,408.8339844 225.1669922,423.0664062 205.2998047,423.0664062 205.2998047,433.4667969 
		225.1669922,433.4667969 225.1669922,437.4667969 235.3671875,437.4667969 235.3671875,376.3671875 	"/>
	<polygon points="205.5,277 205.5,285.0996094 226.8007812,285.0996094 226.8007812,299.5498047 207.5,299.5498047 
		207.5,307.6503906 226.8007812,307.6503906 226.8007812,324.6992188 205.5,324.6992188 205.5,333 226.8007812,333 226.8007812,337 
		235.2001953,337 235.2001953,277 	"/>
	<polygon points="205.6992188,177.6328125 205.6992188,183.6992188 228.7670898,183.6992188 228.7670898,200.3994141 
		207.5664062,200.3994141 207.5664062,206.4667969 228.7670898,206.4667969 228.7670898,226.3325195 205.6992188,226.3325195 
		205.6992188,232.5327148 228.7670898,232.5327148 228.7670898,236.5332031 235.0332031,236.5332031 235.0332031,177.6328125 	"/>
	<polygon points="205.8994141,78.2666016 205.8994141,82.2998047 230.7338867,82.2998047 230.7338867,101.25 207.6333008,101.25 
		207.6333008,105.2832031 230.7338867,105.2832031 230.7338867,127.9663086 205.8994141,127.9663086 205.8994141,132.0664062 
		230.7338867,132.0664062 230.7338867,136.0664062 234.8666992,136.0664062 234.8666992,78.2666016 	"/>
	<polygon points="206.0996094,-21.1005859 206.0996094,-19.1005859 232.7001953,-19.1005859 232.7001953,2.0996094 
		207.7001953,2.0996094 207.7001953,4.0996094 232.7001953,4.0996094 232.7001953,29.5996094 206.0996094,29.5996094 
		206.0996094,31.5996094 232.7001953,31.5996094 232.7001953,35.5996094 234.7001953,35.5996094 234.7001953,-21.1005859 	"/>
</g>
</svg>
