<?xml version="1.0" encoding="utf-8"?>
<!-- Generator: Adobe Illustrator 15.0.2, SVG Export Plug-In . SVG Version: 6.00 Build 0)  -->
<!DOCTYPE svg PUBLIC "-//W3C//DTD SVG 1.1//EN" "http://www.w3.org/Graphics/SVG/1.1/DTD/svg11.dtd">
<svg version="1.1" id="レイヤー1" xmlns="http://www.w3.org/2000/svg" xmlns:xlink="http://www.w3.org/1999/xlink" x="0px"
	 y="0px" width="841.8896484px" height="595.2753906px" viewBox="0 0 841.8896484 595.2753906"
	 enable-background="new 0 0 841.8896484 595.2753906" xml:space="preserve">
<g>
	<rect x="195.5" y="147.5" fill="none" stroke="#999999" stroke-width="0.1" width="50" height="100"/>
	<rect x="295.5" y="147.5" fill="none" stroke="#999999" stroke-width="0.1" width="50" height="100"/>
	<rect x="395.5" y="147.5" fill="none" stroke="#999999" stroke-width="0.1" width="50" height="100"/>
	<rect x="495.5" y="147.5" fill="none" stroke="#999999" stroke-width="0.1" width="50" height="100"/>
	<rect x="595.5" y="147.5" fill="none" stroke="#999999" stroke-width="0.1" width="50" height="100"/>
	<rect x="195.5" y="247.5" fill="none" stroke="#999999" stroke-width="0.1" width="50" height="100"/>
	<rect x="295.5" y="247.5" fill="none" stroke="#999999" stroke-width="0.1" width="50" height="100"/>
	<rect x="395.5" y="247.5" fill="none" stroke="#999999" stroke-width="0.1" width="50" height="100"/>
	<rect x="495.5" y="247.5" fill="none" stroke="#999999" stroke-width="0.1" width="50" height="100"/>
	<rect x="595.5" y="247.5" fill="none" stroke="#999999" stroke-width="0.1" width="50" height="100"/>
	<rect x="195.5" y="-52.5" fill="none" stroke="#999999" stroke-width="0.1" width="50" height="100"/>
	<rect x="295.5" y="-52.5" fill="none" stroke="#999999" stroke-width="0.1" width="50" height="100"/>
	<rect x="395.5" y="-52.5" fill="none" stroke="#999999" stroke-width="0.1" width="50" height="100"/>
	<rect x="495.5" y="-52.5" fill="none" stroke="#999999" stroke-width="0.1" width="50" height="100"/>
	<rect x="595.5" y="-52.5" fill="none" stroke="#999999" stroke-width="0.1" width="50" height="100"/>
	<rect x="195.5" y="47.5" fill="none" stroke="#999999" stroke-width="0.1" width="50" height="100"/>
	<rect x="295.5" y="47.5" fill="none" stroke="#999999" stroke-width="0.1" width="50" height="100"/>
	<rect x="395.5" y="47.5" fill="none" stroke="#999999" stroke-width="0.1" width="50" height="100"/>
	<rect x="495.5" y="47.5" fill="none" stroke="#999999" stroke-width="0.1" width="50" height="100"/>
	<rect x="595.5" y="47.5" fill="none" stroke="#999999" stroke-width="0.1" width="50" height="100"/>
	<rect x="195.5" y="347.5" fill="none" stroke="#999999" stroke-width="0.1" width="50" height="100"/>
	<rect x="295.5" y="347.5" fill="none" stroke="#999999" stroke-width="0.1" width="50" height="100"/>
	<rect x="395.5" y="347.5" fill="none" stroke="#999999" stroke-width="0.1" width="50" height="100"/>
	<rect x="495.5" y="347.5" fill="none" stroke="#999999" stroke-width="0.1" width="50" height="100"/>
	<rect x="595.5" y="347.5" fill="none" stroke="#999999" stroke-width="0.1" width="50" height="100"/>
	<rect x="195.5" y="447.5" fill="none" stroke="#999999" stroke-width="0.1" width="50" height="100"/>
	<rect x="295.5" y="447.5" fill="none" stroke="#999999" stroke-width="0.1" width="50" height="100"/>
	<rect x="395.5" y="447.5" fill="none" stroke="#999999" stroke-width="0.1" width="50" height="100"/>
	<rect x="495.5" y="447.5" fill="none" stroke="#999999" stroke-width="0.1" width="50" height="100"/>
	<rect x="595.5" y="447.5" fill="none" stroke="#999999" stroke-width="0.1" width="50" height="100"/>
	<rect x="195.5" y="547.5" fill="none" stroke="#999999" stroke-width="0.1" width="50" height="100"/>
	<rect x="295.5" y="547.5" fill="none" stroke="#999999" stroke-width="0.1" width="50" height="100"/>
	<rect x="395.5" y="547.5" fill="none" stroke="#999999" stroke-width="0.1" width="50" height="100"/>
	<rect x="495.5" y="547.5" fill="none" stroke="#999999" stroke-width="0.1" width="50" height="100"/>
	<rect x="595.5" y="547.5" fill="none" stroke="#999999" stroke-width="0.1" width="50" height="100"/>
</g>
<g>
	<polygon points="202.5,-35.5 202.5,-33.5 236,-33.5 236,-6.5 204.5,-6.5 204.5,-4.5 236,-4.5 236,28 202.5,28 202.5,30 236,30 
		236,35 238,35 238,-35.5 	"/>
	<polygon points="202.2495117,63.6665039 202.2495117,68.0830078 233.6665039,68.0830078 233.6665039,92.5 204.4165039,92.5 
		204.4165039,96.9160156 233.6665039,96.9160156 233.6665039,126.1665039 202.2495117,126.1665039 202.2495117,130.6660156 
		233.6665039,130.6660156 233.6665039,135.6665039 238.25,135.6665039 238.25,63.6665039 	"/>
	<polygon points="202,162.8334961 202,169.6669922 231.3334961,169.6669922 231.3334961,191.5 204.3334961,191.5 
		204.3334961,198.3330078 231.3334961,198.3330078 231.3334961,224.3330078 202,224.3330078 202,231.3330078 
		231.3334961,231.3330078 231.3334961,236.3334961 238.5,236.3334961 238.5,162.8334961 	"/>
	<polygon points="201.75,262 201.75,271.25 229,271.25 229,290.5 204.25,290.5 204.25,299.75 229,299.75 229,322.5 201.75,322.5 
		201.75,332 229,332 229,337 238.75,337 238.75,262 	"/>
	<polygon points="201.4995117,361.1660156 201.4995117,372.8330078 227.1665039,372.8330078 227.1665039,389.5 204.1665039,389.5 
		204.1665039,401.1660156 227.1665039,401.1660156 227.1665039,420.6660156 201.4995117,420.6660156 201.4995117,432.6660156 
		227.1665039,432.6660156 227.1665039,437.6660156 239,437.6660156 239,361.1660156 	"/>
	<polygon points="201.25,460.3330078 201.25,474.4160156 225.3330078,474.4160156 225.3330078,488.5 204.0830078,488.5 
		204.0830078,502.5839844 225.3330078,502.5839844 225.3330078,518.8330078 201.25,518.8330078 201.25,533.3339844 
		225.3330078,533.3339844 225.3330078,538.3330078 239.25,538.3330078 239.25,460.3330078 	"/>
	<polygon points="201,559.5 201,576 223.5,576 223.5,587.5 204,587.5 204,604 223.5,604 223.5,617 201,617 201,634 223.5,634 
		223.5,639 239.5,639 239.5,559.5 	"/>
</g>
</svg>
