<?xml version="1.0" encoding="utf-8"?>
<!-- Generator: Adobe Illustrator 15.0.2, SVG Export Plug-In . SVG Version: 6.00 Build 0)  -->
<!DOCTYPE svg PUBLIC "-//W3C//DTD SVG 1.1//EN" "http://www.w3.org/Graphics/SVG/1.1/DTD/svg11.dtd">
<svg version="1.1" id="レイヤー1" xmlns="http://www.w3.org/2000/svg" xmlns:xlink="http://www.w3.org/1999/xlink" x="0px"
	 y="0px" width="841.8896484px" height="595.2753906px" viewBox="0 0 841.8896484 595.2753906"
	 enable-background="new 0 0 841.8896484 595.2753906" xml:space="preserve">
<g>
	<rect x="195.5" y="147.5" fill="none" stroke="#999999" stroke-width="0.1" width="50" height="100"/>
	<rect x="295.5" y="147.5" fill="none" stroke="#999999" stroke-width="0.1" width="50" height="100"/>
	<rect x="395.5" y="147.5" fill="none" stroke="#999999" stroke-width="0.1" width="50" height="100"/>
	<rect x="495.5" y="147.5" fill="none" stroke="#999999" stroke-width="0.1" width="50" height="100"/>
	<rect x="595.5" y="147.5" fill="none" stroke="#999999" stroke-width="0.1" width="50" height="100"/>
	<rect x="195.5" y="247.5" fill="none" stroke="#999999" stroke-width="0.1" width="50" height="100"/>
	<rect x="295.5" y="247.5" fill="none" stroke="#999999" stroke-width="0.1" width="50" height="100"/>
	<rect x="395.5" y="247.5" fill="none" stroke="#999999" stroke-width="0.1" width="50" height="100"/>
	<rect x="495.5" y="247.5" fill="none" stroke="#999999" stroke-width="0.1" width="50" height="100"/>
	<rect x="595.5" y="247.5" fill="none" stroke="#999999" stroke-width="0.1" width="50" height="100"/>
	<rect x="195.5" y="-52.5" fill="none" stroke="#999999" stroke-width="0.1" width="50" height="100"/>
	<rect x="295.5" y="-52.5" fill="none" stroke="#999999" stroke-width="0.1" width="50" height="100"/>
	<rect x="395.5" y="-52.5" fill="none" stroke="#999999" stroke-width="0.1" width="50" height="100"/>
	<rect x="495.5" y="-52.5" fill="none" stroke="#999999" stroke-width="0.1" width="50" height="100"/>
	<rect x="595.5" y="-52.5" fill="none" stroke="#999999" stroke-width="0.1" width="50" height="100"/>
	<rect x="195.5" y="47.5" fill="none" stroke="#999999" stroke-width="0.1" width="50" height="100"/>
	<rect x="295.5" y="47.5" fill="none" stroke="#999999" stroke-width="0.1" width="50" height="100"/>
	<rect x="395.5" y="47.5" fill="none" stroke="#999999" stroke-width="0.1" width="50" height="100"/>
	<rect x="495.5" y="47.5" fill="none" stroke="#999999" stroke-width="0.1" width="50" height="100"/>
	<rect x="595.5" y="47.5" fill="none" stroke="#999999" stroke-width="0.1" width="50" height="100"/>
	<rect x="195.5" y="347.5" fill="none" stroke="#999999" stroke-width="0.1" width="50" height="100"/>
	<rect x="295.5" y="347.5" fill="none" stroke="#999999" stroke-width="0.1" width="50" height="100"/>
	<rect x="395.5" y="347.5" fill="none" stroke="#999999" stroke-width="0.1" width="50" height="100"/>
	<rect x="495.5" y="347.5" fill="none" stroke="#999999" stroke-width="0.1" width="50" height="100"/>
	<rect x="595.5" y="347.5" fill="none" stroke="#999999" stroke-width="0.1" width="50" height="100"/>
	<rect x="195.5" y="447.5" fill="none" stroke="#999999" stroke-width="0.1" width="50" height="100"/>
	<rect x="295.5" y="447.5" fill="none" stroke="#999999" stroke-width="0.1" width="50" height="100"/>
	<rect x="395.5" y="447.5" fill="none" stroke="#999999" stroke-width="0.1" width="50" height="100"/>
	<rect x="495.5" y="447.5" fill="none" stroke="#999999" stroke-width="0.1" width="50" height="100"/>
	<rect x="595.5" y="447.5" fill="none" stroke="#999999" stroke-width="0.1" width="50" height="100"/>
	<rect x="195.5" y="547.5" fill="none" stroke="#999999" stroke-width="0.1" width="50" height="100"/>
	<rect x="295.5" y="547.5" fill="none" stroke="#999999" stroke-width="0.1" width="50" height="100"/>
	<rect x="395.5" y="547.5" fill="none" stroke="#999999" stroke-width="0.1" width="50" height="100"/>
	<rect x="495.5" y="547.5" fill="none" stroke="#999999" stroke-width="0.1" width="50" height="100"/>
	<rect x="595.5" y="547.5" fill="none" stroke="#999999" stroke-width="0.1" width="50" height="100"/>
</g>
<g>
	<polygon points="239,36 237,36 237,31 204,31 204,29 237,29 237,-34.5 204,-34.5 204,36 202,36 202,-36.5 239,-36.5 	"/>
	<polygon points="206.1660156,127 234.8330078,127 234.8330078,67.3330078 206.1660156,67.3330078 206.1660156,136.4995117 
		201.6665039,136.4995117 201.6665039,62.8330078 239.3330078,62.8330078 239.3330078,136.4995117 234.8330078,136.4995117 
		234.8330078,131.5 206.1660156,131.5 	"/>
	<polygon points="208.3330078,225 232.6669922,225 232.6669922,169.1669922 208.3330078,169.1669922 208.3330078,237 
		201.3330078,237 201.3330078,162.1669922 239.6665039,162.1669922 239.6665039,237 232.6669922,237 232.6669922,232 
		208.3330078,232 	"/>
	<polygon points="210.5,323 230.5,323 230.5,271 210.5,271 210.5,337.5 201,337.5 201,261.5 240,261.5 240,337.5 230.5,337.5 
		230.5,332.5 210.5,332.5 	"/>
	<polygon points="212.1665039,421 228.8330078,421 228.8330078,372.8330078 212.1665039,372.8330078 212.1665039,438 
		200.6660156,438 200.6660156,360.8330078 240.3330078,360.8330078 240.3330078,438 228.8330078,438 228.8330078,433 
		212.1665039,433 	"/>
	<polygon points="213.8334961,519 227.1669922,519 227.1669922,474.6669922 213.8334961,474.6669922 213.8334961,538.5 
		200.3330078,538.5 200.3330078,460.1660156 240.6669922,460.1660156 240.6669922,538.5 227.1669922,538.5 227.1669922,533.5 
		213.8334961,533.5 	"/>
	<polygon points="215.5,617 225.5,617 225.5,576.5 215.5,576.5 215.5,639 200,639 200,559.5 241,559.5 241,639 225.5,639 225.5,634 
		215.5,634 	"/>
</g>
</svg>
