<?xml version="1.0" encoding="utf-8"?>
<!-- Generator: Adobe Illustrator 15.0.2, SVG Export Plug-In . SVG Version: 6.00 Build 0)  -->
<!DOCTYPE svg PUBLIC "-//W3C//DTD SVG 1.1//EN" "http://www.w3.org/Graphics/SVG/1.1/DTD/svg11.dtd">
<svg version="1.1" id="レイヤー1" xmlns="http://www.w3.org/2000/svg" xmlns:xlink="http://www.w3.org/1999/xlink" x="0px"
	 y="0px" width="841.8896484px" height="595.2753906px" viewBox="0 0 841.8896484 595.2753906"
	 enable-background="new 0 0 841.8896484 595.2753906" xml:space="preserve">
<g>
	<rect x="71.5" y="-226.5" fill="none" stroke="#000000" stroke-width="0.25" width="100" height="150"/>
	<rect x="71.5" y="-76.5" fill="none" stroke="#000000" stroke-width="0.25" width="100" height="150"/>
	<rect x="71.5" y="73.5" fill="none" stroke="#000000" stroke-width="0.25" width="100" height="150"/>
	<rect x="71.5" y="223.5" fill="none" stroke="#000000" stroke-width="0.25" width="100" height="150"/>
	<rect x="71.5" y="373.5" fill="none" stroke="#000000" stroke-width="0.25" width="100" height="150"/>
	<rect x="71.5" y="523.5" fill="none" stroke="#000000" stroke-width="0.25" width="100" height="150"/>
	<rect x="71.5" y="673.5" fill="none" stroke="#000000" stroke-width="0.25" width="100" height="150"/>
	<rect x="371.5" y="-226.5" fill="none" stroke="#000000" stroke-width="0.25" width="100" height="150"/>
	<rect x="371.5" y="-76.5" fill="none" stroke="#000000" stroke-width="0.25" width="100" height="150"/>
	<rect x="371.5" y="73.5" fill="none" stroke="#000000" stroke-width="0.25" width="100" height="150"/>
	<rect x="371.5" y="223.5" fill="none" stroke="#000000" stroke-width="0.25" width="100" height="150"/>
	<rect x="371.5" y="373.5" fill="none" stroke="#000000" stroke-width="0.25" width="100" height="150"/>
	<rect x="371.5" y="523.5" fill="none" stroke="#000000" stroke-width="0.25" width="100" height="150"/>
	<rect x="371.5" y="673.5" fill="none" stroke="#000000" stroke-width="0.25" width="100" height="150"/>
	<rect x="171.5" y="-226.5" fill="none" stroke="#000000" stroke-width="0.25" width="100" height="150"/>
	<rect x="171.5" y="-76.5" fill="none" stroke="#000000" stroke-width="0.25" width="100" height="150"/>
	<rect x="171.5" y="73.5" fill="none" stroke="#000000" stroke-width="0.25" width="100" height="150"/>
	<rect x="171.5" y="223.5" fill="none" stroke="#000000" stroke-width="0.25" width="100" height="150"/>
	<rect x="171.5" y="373.5" fill="none" stroke="#000000" stroke-width="0.25" width="100" height="150"/>
	<rect x="171.5" y="523.5" fill="none" stroke="#000000" stroke-width="0.25" width="100" height="150"/>
	<rect x="171.5" y="673.5" fill="none" stroke="#000000" stroke-width="0.25" width="100" height="150"/>
	<rect x="271.5" y="-226.5" fill="none" stroke="#000000" stroke-width="0.25" width="100" height="150"/>
	<rect x="271.5" y="-76.5" fill="none" stroke="#000000" stroke-width="0.25" width="100" height="150"/>
	<rect x="271.5" y="73.5" fill="none" stroke="#000000" stroke-width="0.25" width="100" height="150"/>
	<rect x="271.5" y="223.5" fill="none" stroke="#000000" stroke-width="0.25" width="100" height="150"/>
	<rect x="271.5" y="373.5" fill="none" stroke="#000000" stroke-width="0.25" width="100" height="150"/>
	<rect x="271.5" y="523.5" fill="none" stroke="#000000" stroke-width="0.25" width="100" height="150"/>
	<rect x="271.5" y="673.5" fill="none" stroke="#000000" stroke-width="0.25" width="100" height="150"/>
	<rect x="471.5" y="-226.5" fill="none" stroke="#000000" stroke-width="0.25" width="100" height="150"/>
	<rect x="471.5" y="-76.5" fill="none" stroke="#000000" stroke-width="0.25" width="100" height="150"/>
	<rect x="471.5" y="73.5" fill="none" stroke="#000000" stroke-width="0.25" width="100" height="150"/>
	<rect x="471.5" y="223.5" fill="none" stroke="#000000" stroke-width="0.25" width="100" height="150"/>
	<rect x="471.5" y="373.5" fill="none" stroke="#000000" stroke-width="0.25" width="100" height="150"/>
	<rect x="471.5" y="523.5" fill="none" stroke="#000000" stroke-width="0.25" width="100" height="150"/>
	<rect x="471.5" y="673.5" fill="none" stroke="#000000" stroke-width="0.25" width="100" height="150"/>
	<rect x="771.5" y="-226.5" fill="none" stroke="#000000" stroke-width="0.25" width="100" height="150"/>
	<rect x="771.5" y="-76.5" fill="none" stroke="#000000" stroke-width="0.25" width="100" height="150"/>
	<rect x="771.5" y="73.5" fill="none" stroke="#000000" stroke-width="0.25" width="100" height="150"/>
	<rect x="771.5" y="223.5" fill="none" stroke="#000000" stroke-width="0.25" width="100" height="150"/>
	<rect x="771.5" y="373.5" fill="none" stroke="#000000" stroke-width="0.25" width="100" height="150"/>
	<rect x="771.5" y="523.5" fill="none" stroke="#000000" stroke-width="0.25" width="100" height="150"/>
	<rect x="771.5" y="673.5" fill="none" stroke="#000000" stroke-width="0.25" width="100" height="150"/>
	<rect x="571.5" y="-226.5" fill="none" stroke="#000000" stroke-width="0.25" width="100" height="150"/>
	<rect x="571.5" y="-76.5" fill="none" stroke="#000000" stroke-width="0.25" width="100" height="150"/>
	<rect x="571.5" y="73.5" fill="none" stroke="#000000" stroke-width="0.25" width="100" height="150"/>
	<rect x="571.5" y="223.5" fill="none" stroke="#000000" stroke-width="0.25" width="100" height="150"/>
	<rect x="571.5" y="373.5" fill="none" stroke="#000000" stroke-width="0.25" width="100" height="150"/>
	<rect x="571.5" y="523.5" fill="none" stroke="#000000" stroke-width="0.25" width="100" height="150"/>
	<rect x="571.5" y="673.5" fill="none" stroke="#000000" stroke-width="0.25" width="100" height="150"/>
	<rect x="671.5" y="-226.5" fill="none" stroke="#000000" stroke-width="0.25" width="100" height="150"/>
	<rect x="671.5" y="-76.5" fill="none" stroke="#000000" stroke-width="0.25" width="100" height="150"/>
	<rect x="671.5" y="73.5" fill="none" stroke="#000000" stroke-width="0.25" width="100" height="150"/>
	<rect x="671.5" y="223.5" fill="none" stroke="#000000" stroke-width="0.25" width="100" height="150"/>
	<rect x="671.5" y="373.5" fill="none" stroke="#000000" stroke-width="0.25" width="100" height="150"/>
	<rect x="671.5" y="523.5" fill="none" stroke="#000000" stroke-width="0.25" width="100" height="150"/>
	<rect x="671.5" y="673.5" fill="none" stroke="#000000" stroke-width="0.25" width="100" height="150"/>
</g>
<g>
	<rect x="592.5" y="742.5" width="58" height="11"/>
	<rect x="593.3330078" y="593.5" width="56.3330078" height="9.6660156"/>
	<rect x="594.1669922" y="444.5" width="54.6660156" height="8.3339844"/>
	<rect x="595" y="295.5" width="53" height="7"/>
	<rect x="595.8330078" y="146.1660156" width="51.3330078" height="5.3339844"/>
	<rect x="596.6669922" y="-3.1669922" width="49.6660156" height="3.6669922"/>
	<rect x="597.5" y="-152.5" width="48" height="2"/>
</g>
<g>
	<rect x="592.5" y="759.5" width="58" height="11"/>
	<rect x="593.3330078" y="609.8330078" width="56.3330078" height="9.6669922"/>
	<rect x="594.1669922" y="460.1660156" width="54.6660156" height="8.3339844"/>
	<rect x="595" y="310.5" width="53" height="7"/>
	<rect x="595.8330078" y="160.9995117" width="51.3330078" height="5.3334961"/>
	<rect x="596.6669922" y="11.5" width="49.6660156" height="3.6669922"/>
	<rect x="597.5" y="-138" width="48" height="2"/>
</g>
<g>
	<polygon points="621.5996094,739 607.7001953,708.5 585,708.5 611.25,754.5 611.25,781.5 631.75,781.5 631.75,754.5 658,708.5 
		635.7001953,708.5 621.7998047,739 	"/>
	<polygon points="605.4335938,558.5 586,558.5 612.75,603.5 612.75,631.5 630.25,631.5 630.25,603.5 657,558.5 637.9667969,558.5 
		621.7998047,590.3330078 621.5996094,590.3330078 	"/>
	<polygon points="603.1669922,408.5 587,408.5 614.25,452.5 614.25,481.5 628.75,481.5 628.75,452.5 656,408.5 640.2333984,408.5 
		621.8007812,441.6669922 621.5996094,441.6669922 	"/>
	<polygon points="600.9003906,258.5 588,258.5 615.75,301.5 615.75,331.5 627.25,331.5 627.25,301.5 655,258.5 642.5,258.5 
		621.8007812,293 621.6005859,293 	"/>
	<polygon points="598.2636719,108.5 588.8330078,108.5 617.3330078,150.6035156 617.3330078,181.4995117 625.6660156,181.4995117 
		625.6660156,150.6035156 654.1660156,108.5 645.0029297,108.5 621.7333984,144.246582 621.5332031,144.246582 	"/>
	<polygon points="595.6269531,-41.5 589.6669922,-41.5 618.9169922,-0.2919922 618.9169922,31.5 624.0830078,31.5 
		624.0830078,-0.2919922 653.3330078,-41.5 647.5058594,-41.5 621.6669922,-4.5063477 621.4667969,-4.5063477 	"/>
	<polygon points="621.3994141,-153.2597656 592.9902344,-191.5 590.5,-191.5 620.5,-151.1884766 620.5,-118.5 622.5,-118.5 
		622.5,-151.1884766 652.5,-191.5 650.0097656,-191.5 621.5996094,-153.2597656 	"/>
</g>
<g>
	<g>
		<polygon points="721.6005859,728.5 729,781.5 752,781.5 767.5,708.5 747.6992188,708.5 740.3007812,761.5 740.0996094,761.5 
			733.6992188,708.5 709.7001953,708.5 703.3007812,761.5 703.1005859,761.5 695.7001953,708.5 675.5,708.5 691,781.5 714,781.5 
			721.4003906,728.5 		"/>
		<rect x="672" y="728.5" width="99" height="13"/>
	</g>
	<g>
		<polygon points="721.5996094,575.8330078 730.8330078,631.5 750.6660156,631.5 766.8330078,558.5 750.0195312,558.5 
			740.8007812,614.1660156 740.5996094,614.1660156 732.0322266,558.5 711.3671875,558.5 702.8007812,614.1660156 
			702.6005859,614.1660156 693.3789062,558.5 676.1660156,558.5 692.3330078,631.5 712.1660156,631.5 721.3994141,575.8330078 		"/>
		<rect x="672.6660156" y="579.8330078" width="97.6669922" height="11.3330078"/>
	</g>
	<g>
		<polygon points="721.5996094,423.1669922 732.6669922,481.5 749.3339844,481.5 766.1669922,408.5 752.3417969,408.5 
			741.3007812,466.8330078 741.0996094,466.8330078 730.3662109,408.5 713.0332031,408.5 702.3007812,466.8330078 
			702.1005859,466.8330078 691.0585938,408.5 676.8339844,408.5 693.6669922,481.5 710.3330078,481.5 721.3994141,423.1669922 		"/>
		<rect x="673.3330078" y="431.1669922" width="96.3339844" height="9.6669922"/>
	</g>
	<g>
		<polygon points="688.7373047,258.5 677.5,258.5 695,331.5 708.5,331.5 721.3994141,270.5 721.5996094,270.5 734.5,331.5 
			748,331.5 765.5,258.5 754.6621094,258.5 741.8007812,319.5 741.5996094,319.5 728.6992188,258.5 714.7001953,258.5 
			701.8007812,319.5 701.6005859,319.5 		"/>
		<rect x="674" y="282.5" width="95" height="8"/>
	</g>
	<g>
		<polygon points="721.5996094,117.0732422 736.6328125,181.4995117 746.6992188,181.4995117 764.6660156,108.5 756.7509766,108.5 
			742.0605469,172.9321289 741.859375,172.9321289 726.8320312,108.5 716.4335938,108.5 701.4072266,172.9321289 
			701.2070312,172.9321289 686.5146484,108.5 678.3330078,108.5 696.2998047,181.4995117 706.3671875,181.4995117 
			721.3994141,117.0732422 		"/>
		<rect x="674.6660156" y="132.1665039" width="93.6669922" height="6"/>
	</g>
	<g>
		<polygon points="721.6005859,-36.3535156 738.765625,31.5 745.3994141,31.5 763.8339844,-41.5 758.8408203,-41.5 
			742.3203125,26.3652344 742.1191406,26.3652344 724.9658203,-41.5 718.1669922,-41.5 701.0146484,26.3652344 
			700.8144531,26.3652344 684.2929688,-41.5 679.1669922,-41.5 697.5996094,31.5 704.234375,31.5 721.4003906,-36.3535156 		"/>
		<rect x="675.3339844" y="-18.1665039" width="92.3330078" height="3.9995117"/>
	</g>
	<g>
		<polygon points="721.6005859,-189.7802734 740.8984375,-118.5 744.0996094,-118.5 763,-191.5 760.9296875,-191.5 
			742.5800781,-120.2021484 742.3789062,-120.2021484 723.0996094,-191.5 719.9003906,-191.5 700.6210938,-120.2021484 
			700.4208984,-120.2021484 682.0703125,-191.5 680,-191.5 698.9003906,-118.5 702.1005859,-118.5 721.4003906,-189.7802734 		"/>
		<rect x="676" y="-168.5" width="91" height="2"/>
	</g>
</g>
<g>
	<g>
		<polygon points="530,721 530,738 513,738 513,721 513,699.5 530,699.5 		"/>
		<polygon points="530,774.5 530,791.5 513,791.5 513,774.5 513,753 530,753 		"/>
	</g>
	<g>
		<polygon points="528.8330078,573.3330078 528.8330078,588 514.1660156,588 514.1660156,573.3330078 514.1660156,549.8330078 
			528.8330078,549.8330078 		"/>
		<polygon points="528.8330078,626.5 528.8330078,641.1660156 514.1660156,641.1660156 514.1660156,626.5 514.1660156,603 
			528.8330078,603 		"/>
	</g>
	<g>
		<polygon points="527.6660156,425.6669922 527.6660156,438 515.3330078,438 515.3330078,425.6669922 515.3330078,400.1660156 
			527.6660156,400.1660156 		"/>
		<polygon points="527.6660156,478.5 527.6660156,490.8330078 515.3330078,490.8330078 515.3330078,478.5 515.3330078,453 
			527.6660156,453 		"/>
	</g>
	<g>
		<polygon points="516.5,250.5 526.5,250.5 526.5,278 526.5,288 516.5,288 516.5,278 		"/>
		<polygon points="516.5,303 526.5,303 526.5,330.5 526.5,340.5 516.5,340.5 516.5,330.5 		"/>
	</g>
	<g>
		<polygon points="525.1660156,100.8330078 525.1660156,130.6665039 525.1660156,137.9995117 517.8330078,137.9995117 
			517.8330078,130.6665039 517.8330078,100.8330078 		"/>
		<polygon points="525.1660156,152.9995117 525.1660156,182.8330078 525.1660156,190.1660156 517.8330078,190.1660156 
			517.8330078,182.8330078 517.8330078,152.9995117 		"/>
	</g>
	<g>
		<polygon points="523.8330078,-48.8330078 523.8330078,-16.6665039 523.8330078,-12 519.1660156,-12 519.1660156,-16.6665039 
			519.1660156,-48.8330078 		"/>
		<polygon points="523.8330078,3 523.8330078,35.1665039 523.8330078,39.8330078 519.1660156,39.8330078 519.1660156,35.1665039 
			519.1660156,3 		"/>
	</g>
	<g>
		<polygon points="522.5,-198.5 522.5,-164 522.5,-162 520.5,-162 520.5,-164 520.5,-198.5 		"/>
		<polygon points="522.5,-147 522.5,-112.5 522.5,-110.5 520.5,-110.5 520.5,-112.5 520.5,-147 		"/>
	</g>
</g>
<g>
	<rect x="381.5" y="695.5" width="80" height="13"/>
	<rect x="382.1665039" y="547" width="78.6665039" height="11.3339844"/>
	<rect x="382.8334961" y="398.5009766" width="77.3334961" height="9.6669922"/>
	<rect x="383.5" y="250.0009766" width="76" height="8"/>
	<rect x="384.1665039" y="101.5009766" width="74.6665039" height="6"/>
	<rect x="384.8330078" y="-46.9990234" width="73.3330078" height="4"/>
	<rect x="385.5" y="-195.4990234" width="72" height="2"/>
</g>
<g>
	<g>
		<path d="M121.75-117.5c-15.8505859,0-26.5-10.8515625-26.5-27c0-16.6542969,10.1542969-27,26.5-27
			c7.1689453,0,12.6616211,1.0449219,18.9584961,3.6113281l-0.7548828,1.8525391
			C133.9179688-168.4970703,128.644043-169.5,121.75-169.5c-15.3413086,0-24.5,9.3457031-24.5,25c0,14.953125,9.8457031,25,24.5,25
			c6.8925781,0,12.1665039-1.0039062,18.2036133-3.4638672l0.7548828,1.8525391
			C134.4150391-118.546875,128.9223633-117.5,121.75-117.5z"/>
		<rect x="120.75" y="-187.5" width="2" height="87"/>
	</g>
	<g>
		<path fill="#17100E" d="M122,32.5c-16.0371094,0-26.9589844-10.6601562-26.9589844-27c0-16.7792969,10.2412109-27,26.9589844-27
			c6.9707031,0,13.2524414,1.1455078,19.4716797,3.5737305l-0.8779297,3.9682617
			c-6.0019531-2.4008789-11.6845703-3.4760742-18.4272461-3.4760742c-13.9287109,0-22.2919922,8.4291992-22.2919922,22.934082
			c0,13.9550781,9.1118164,23,22.2919922,23c6.7416992,0,12.4414062-1.0839844,18.4272461-3.4760742l1.3364258,3.9018555
			C135.597168,31.3491211,129.1245117,32.5,122,32.5z"/>
		<rect x="120.5410156" y="-37.5004883" fill="#17100E" width="4" height="87"/>
	</g>
	<g>
		<path fill="#0C0807" d="M122.25,182.5c-16.2236328,0-27.4169922-10.46875-27.4169922-27c0-16.9042969,10.328125-27,27.4169922-27
			c6.7724609,0,13.84375,1.2470703,19.9863281,3.5371094l-1.0019531,6.0839844
			c-5.9677734-2.3417969-12.0585938-3.4882812-18.6513672-3.4882812c-12.515625,0-20.0834961,7.5126953-20.0834961,20.8671875
			c0,12.9570312,8.378418,21,20.0834961,21c6.5917969,0,12.7167969-1.1630859,18.6513672-3.4882812l1.9179688,5.9511719
			C136.7792969,181.2460938,129.3271484,182.5,122.25,182.5z"/>
		<rect x="120.3330078" y="112.5" fill="#0C0807" width="6" height="87"/>
	</g>
	<g>
		<path d="M123,324.5c6.4414062,0,12.9916992-1.2421875,18.8745117-3.5l2.5,8c-6.4130859,2.1425781-14.8442383,3.5-21.8745117,3.5
			c-16.409668,0-27.8754883-10.2773438-27.8754883-27c0-17.0292969,10.4155273-27,27.8754883-27
			c6.574707,0,14.4350586,1.3476562,20.5,3.5l-1.1254883,8.1992188c-5.9335938-2.28125-12.4331055-3.5-18.8745117-3.5
			c-11.1035156,0-17.8754883,6.5957031-17.8754883,18.8007812C105.1245117,317.4589844,112.7685547,324.5,123,324.5z"/>
		<rect x="120.1245117" y="262.5" width="8" height="87"/>
	</g>
	<g>
		<path fill="#0C0807" d="M122.8330078,482.5c-17.3720703,0-29.0839844-10.3105469-29.0839844-27
			c0-16.8769531,10.8041992-27,29.0839844-27c7.0527344,0,15.1992188,1.4082031,21.5,3.6660156l-2.0839844,9.9667969
			c-6.0195312-2.4179688-12.1572266-3.6005859-18.7495117-3.6005859c-10.3017578,0-16.4169922,5.9902344-16.4169922,16.9677734
			c0,10.7714844,6.8837891,17.1660156,16.4169922,17.1660156c6.5991211,0,12.8051758-1.2080078,18.7495117-3.5996094
			l3.0004883,9.7666016C138.6743164,481.0966797,130.1938477,482.5,122.8330078,482.5z"/>
		<rect x="119.9160156" y="412.5" fill="#0C0807" width="10" height="87"/>
	</g>
	<g>
		<path fill="#17100E" d="M123.1669922,632.5C104.831543,632.5,92.875,622.1572266,92.875,605.5
			c0-16.7226562,11.1918945-27,30.2919922-27c7.5302734,0,15.9628906,1.46875,22.4995117,3.8330078L142.625,594.0664062
			c-6.1064453-2.5546875-11.8818359-3.7001953-18.625-3.7001953c-9.5,0-14.9589844,5.3847656-14.9589844,15.1337891
			c0,9.5839844,6.1235352,15.3339844,14.9589844,15.3339844c6.7563477,0,12.6181641-1.1757812,18.625-3.7011719l3.5,11.5332031
			C139.3876953,631.0517578,130.8583984,632.5,123.1669922,632.5z"/>
		<rect x="119.7080078" y="562.5" fill="#17100E" width="12" height="87"/>
	</g>
	<g>
		<path d="M123.5,782.5c-19.2978516,0-31.5-10.375-31.5-27c0-16.5703125,11.5800781-27,31.5-27
			c8.0083008,0,16.7270508,1.5292969,23.5,4l-4,13.5c-6.1923828-2.6914062-11.605957-3.8007812-18.5-3.8007812
			c-8.6982422,0-13.5,4.7792969-13.5,13.3007812c0,8.3964844,5.3623047,13.5,13.5,13.5
			c6.9135742,0,12.4321289-1.140625,18.5-3.8007812L147,778.5C140.1005859,781.0058594,131.5224609,782.5,123.5,782.5z"/>
		<rect x="119.5" y="712.5" width="14" height="87"/>
	</g>
</g>
<g>
	<path d="M228-190.5c-12.1035156,0-18.5,5.8789062-18.5,17v17.5h32v2h-32v15.5
		c0,8.0058594-3.2539062,14.5761719-8.1347656,17.7988281V-120.5H247.5v2h-52v-2c5.8173828-0.4101562,12-6.8574219,12-18V-154h-10
		v-2h10v-17.5c0-12.2519531,7.2802734-19,20.5-19c5.609375,0,11.1162109,0.8964844,15.9257812,2.5957031l-0.6660156,1.8857422
		C238.6640625-189.6416016,233.3876953-190.5,228-190.5z"/>
	<path fill="#17100E" d="M228.2495117-38.1005859c-11.1459961,0-16.7495117,5.300293-16.7495117,15.5v15.4335938h30.2495117v4H211.5
		v13c0,7.8632812-3.1689453,14.2363281-7.7792969,17.1323242v0.2011719h44.1123047v4.3330078h-52.6665039v-4.3330078
		C200.809082,26.7695312,206.5,20.5004883,206.5,9.8330078v-13h-9.4169922v-4H206.5V-23
		c0-12.4350586,7.5126953-19.5,21.3330078-19.5c5.8510742,0,11.4755859,0.8730469,16.6879883,2.5791016l-1.0024414,4.2919922
		C238.8710938-37.2460938,233.6015625-38.1005859,228.2495117-38.1005859z"/>
	<path fill="#0C0807" d="M228.5,114.2998047c-10.1889648,0-15,4.7211914-15,13.9995117v13.3676758H242v5.9995117h-28.5v10.5004883
		c0,7.7207031-3.0834961,13.8959961-7.4233398,16.465332v0.2006836h42.090332V181.5h-53.3334961v-6.6669922
		C200.3007812,174.4492188,205.5,168.3588867,205.5,158.1669922v-10.5004883h-8.8330078v-5.9995117H205.5V127.5
		c0-12.6176758,7.7456055-20,22.1669922-20c6.0922852,0,11.8349609,0.8496094,17.4501953,2.5634766l-1.3393555,6.6982422
		C239.0791016,115.1503906,233.8164062,114.2998047,228.5,114.2998047z"/>
	<path d="M228.75,266.6992188c5.28125,0,10.5361328,0.8476562,15.2871094,2.453125l1.6757812-9.1054688
		C239.6943359,258.3261719,233.8339844,257.5,227.5,257.5c-15.0214844,0-23,7.6992188-23,20.5v12.5h-8.25v8h8.25v8
		c0,9.7167969-4.7075195,15.6289062-10,16v9h54v-9h-40.0673828v-0.2011719C212.5014648,320.0566406,215.5,314.078125,215.5,306.5v-8
		h26.75v-8H215.5v-11.3007812C215.5,270.8417969,219.5180664,266.6992188,228.75,266.6992188z"/>
	<path d="M229.3330078,418.7988281c5.2807617,0,10.4550781,0.8251953,15.3579102,2.46875l1.9506836-11.2363281
		c-6.4111328-1.7294922-12.3974609-2.53125-18.9750977-2.53125C211.8212891,407.5,203.5,415.3476562,203.5,428.5v11h-8v9.6660156h8
		v5.6669922c0,9.5380859-4.3291016,14.9599609-9.6669922,15.3330078V481.5h55.3334961v-11.3339844h-38.7119141v-0.2011719
		c3.9658203-2.0068359,6.878418-7.6054688,6.878418-15.1318359v-5.6669922h25.5V439.5h-25.5v-9.7011719
		C217.3330078,422.21875,220.6875,418.7988281,229.3330078,418.7988281z"/>
	<path d="M229.9169922,570.8994141c5.2797852,0,10.3740234,0.8017578,15.4287109,2.4853516l2.2255859-13.3691406
		C240.7666016,558.2783203,234.6542969,557.5,227.8330078,557.5C211.1650391,557.5,202.5,565.4970703,202.5,579v9.5h-7.75
		v11.3330078h7.75v3.3330078c0,9.3603516-3.9501953,14.2910156-9.3330078,14.6669922V631.5h56.6660156v-13.6669922h-37.3554688
		v-0.2011719c3.8623047-1.7714844,6.6894531-6.9902344,6.6894531-14.4658203v-3.3330078h24.25V588.5h-24.25v-8.1005859
		C219.1669922,573.5957031,221.8574219,570.8994141,229.9169922,570.8994141z"/>
	<path d="M230.5,723c5.2792969,0,10.2929688,0.7792969,15.5,2.5l2.5-15.5c-7.1972656-1.7460938-13.4355469-2.5-20.5-2.5
		c-17.4912109,0-26.5,8.1464844-26.5,22v8H194v13h7.5v1c0,9.1816406-3.5722656,13.6210938-9,14v16h58v-16h-36v-0.2011719
		c3.7583008-1.5371094,6.5-6.375,6.5-13.7988281v-1h23v-13h-23V731C221,724.9726562,223.0273438,723,230.5,723z"/>
</g>
<g>
	<polygon points="281.5,747 281.5,732 359.5,732 359.5,770 342.5,770 342.5,747 	"/>
	<polygon fill="#17100E" points="282,596.3330078 282,583.5 359,583.5 359,618.8330078 344.5,618.8330078 344.5,596.3330078 	"/>
	<polygon fill="#0C0807" points="282.5,445.6669922 282.5,435 358.5,435 358.5,467.6660156 346.5,467.6660156 346.5,445.6669922 	
		"/>
	<polygon points="283,295 283,286.5 358,286.5 358,316.5 348.5,316.5 348.5,295 	"/>
	<polygon fill="#0C0807" points="283.5,144.1665039 283.5,137.8330078 357.5,137.8330078 357.5,166.1660156 350.5,166.1660156 
		350.5,144.1665039 	"/>
	<polygon fill="#17100E" points="284,-6.6669922 284,-10.8330078 357,-10.8330078 357,15.8330078 352.5,15.8330078 
		352.5,-6.6669922 	"/>
	<polygon points="284.5,-157.5 284.5,-159.5 356.5,-159.5 356.5,-134.5 354.5,-134.5 354.5,-157.5 	"/>
</g>
</svg>
