<?xml version="1.0" encoding="utf-8"?>
<!-- Generator: Adobe Illustrator 11 Build 225, SVG Export Plug-In . SVG Version: 6.0.0 Build 78)  -->
<!DOCTYPE svg PUBLIC "-//W3C//DTD SVG 1.0//EN"    "http://www.w3.org/TR/2001/REC-SVG-20010904/DTD/svg10.dtd" [
	<!ENTITY ns_flows "http://ns.adobe.com/Flows/1.0/">
	<!ENTITY ns_svg "http://www.w3.org/2000/svg">
	<!ENTITY ns_xlink "http://www.w3.org/1999/xlink">
]>
<svg  xmlns="&ns_svg;" xmlns:xlink="&ns_xlink;" xmlns:a="http://ns.adobe.com/AdobeSVGViewerExtensions/3.0/"
	 width="800.25" height="1050.25" viewBox="0 0 800.25 1050.25" overflow="visible" enable-background="new 0 0 800.25 1050.25"
	 xml:space="preserve">
	<metadata>
		<x:xmpmeta  x:xmptk="XMP toolkit 3.0-29, framework 1.6" xmlns:x="adobe:ns:meta/">
			<rdf:RDF  xmlns:iX="http://ns.adobe.com/iX/1.0/" xmlns:rdf="http://www.w3.org/1999/02/22-rdf-syntax-ns#">
				<rdf:Description  rdf:about="" xmlns:pdf="http://ns.adobe.com/pdf/1.3/"></rdf:Description>
				<rdf:Description  rdf:about="" xmlns:tiff="http://ns.adobe.com/tiff/1.0/"></rdf:Description>
				<rdf:Description  rdf:about="" xmlns:xapGImg="http://ns.adobe.com/xap/1.0/g/img/" xmlns:xap="http://ns.adobe.com/xap/1.0/">
					<xap:CreateDate>2005-10-18T08:31:30Z</xap:CreateDate>
					<xap:ModifyDate>2005-10-18T08:31:30Z</xap:ModifyDate>
					<xap:CreatorTool>Illustrator</xap:CreatorTool>
					<xap:Thumbnails>
						<rdf:Alt>
							<rdf:li  rdf:parseType="Resource">
								<xapGImg:format>JPEG</xapGImg:format>
								<xapGImg:width>172</xapGImg:width>
								<xapGImg:height>256</xapGImg:height>
								<xapGImg:image>/9j/4AAQSkZJRgABAgEASABIAAD/7QAsUGhvdG9zaG9wIDMuMAA4QklNA+0AAAAAABAASAAAAAEA
AQBIAAAAAQAB/+4ADkFkb2JlAGTAAAAAAf/bAIQABgQEBAUEBgUFBgkGBQYJCwgGBggLDAoKCwoK
DBAMDAwMDAwQDA4PEA8ODBMTFBQTExwbGxscHx8fHx8fHx8fHwEHBwcNDA0YEBAYGhURFRofHx8f
Hx8fHx8fHx8fHx8fHx8fHx8fHx8fHx8fHx8fHx8fHx8fHx8fHx8fHx8fHx8f/8AAEQgBAACsAwER
AAIRAQMRAf/EAaIAAAAHAQEBAQEAAAAAAAAAAAQFAwIGAQAHCAkKCwEAAgIDAQEBAQEAAAAAAAAA
AQACAwQFBgcICQoLEAACAQMDAgQCBgcDBAIGAnMBAgMRBAAFIRIxQVEGE2EicYEUMpGhBxWxQiPB
UtHhMxZi8CRygvElQzRTkqKyY3PCNUQnk6OzNhdUZHTD0uIIJoMJChgZhJRFRqS0VtNVKBry4/PE
1OT0ZXWFlaW1xdXl9WZ2hpamtsbW5vY3R1dnd4eXp7fH1+f3OEhYaHiImKi4yNjo+Ck5SVlpeYmZ
qbnJ2en5KjpKWmp6ipqqusra6voRAAICAQIDBQUEBQYECAMDbQEAAhEDBCESMUEFURNhIgZxgZEy
obHwFMHR4SNCFVJicvEzJDRDghaSUyWiY7LCB3PSNeJEgxdUkwgJChgZJjZFGidkdFU38qOzwygp
0+PzhJSktMTU5PRldYWVpbXF1eX1RlZmdoaWprbG1ub2R1dnd4eXp7fH1+f3OEhYaHiImKi4yNjo
+DlJWWl5iZmpucnZ6fkqOkpaanqKmqq6ytrq+v/aAAwDAQACEQMRAD8A9U4q7FXYq7FXYq7FXYq7
FXYqhtT1Kx0vTbvU7+UQWNjDJc3c5BISKFC8jkKCfhVSdhiqJxV2KuxV2KuxV2KuxV2KuxV2KuxV
2KsW/Kx3f8uvLruxZmsYSWJqSePjirKcVdirzfyzp2tRXXlUz21yiwXmvtdGRJAESW4mMBkqNg6k
FK9R0xV6RirsVedfmP5ovob/AEXTItC1SZf0zaFbiBbb0rj0Fa6KRFp1ev7mvxKv2T2xVS0PzfqF
z+Y+tyny3q6RtZ6VYlGW0pAUlu5mkkpcmgZbpfs1NF6Yq9KxV4n5/i0vWNG/MyPX72WTW9L0+/fS
NGeeSGKGzSwLw3MNurIk3qPyLSsGofg2pTFXp2ieStJ0PUGu9KmvLeB42jk01rqaazLFgwlEMzSC
NxxpWMrWp5V2oqn2KvPrfyx5b81ec/Nb+ZbGDWJNLubax020vY1mit7V7C3ufUhjkDKryTzSgyqO
R4ha/DiqWadrmpxeU18r6HdSSalf6pqOkaBfuxleHT7S5dJrss1eS2UdYkLV5OIwftYq9J0jS7LS
dLtNLskKWdlCkECkliEjUKOTHdjtuTuTirEvzIt7CbUfLia/H63lGW5kg1SJ/wDeY3MyBbH62vRo
DJySjVT1GTl2xVBeWtN8s2v5jPD5KtIbLSbGxuIPMSaeixaebxpYTaxCOICE3MapMXKjkqkBvtCi
r0XFWN6Tb3qefPMU8kUi2ctnpi28rKwjZ0N16gRj8JK8l5U8RXFWSYq7FXYqxr8tLS6s/IGgWt3D
Jb3MNlEk0EqlJEYLurKwBB+eKslxV2KuxV2KuxV5r5x8weY285+V7WPyvdyrZajeXVs63NiouFis
Lm15JymBUcbrlR6H6dsVXeR9c8wXXnHzTLN5buoIp9St7ae4e4s3W3EGn254twmZm+KQmkYYb+NQ
FXpGKsG/OfRtE1T8sfNM1/ZW95NYaRqM1nLNGkjwTR2sjB42YEowKjcYqutbW68q+bdH0mz1C4vN
D1tbmJdOvZXupLSW2i9YSw3Epeb0So9NkdmAJTjx3BVZvirHvMnk3ynqkzarq0TwzwQlJ763urix
c26VcpNLbSQGSJak8XJXrtirzvStPubufRLrTuegWnmeU2Oki2VYpbLy9Y28lzFDCGBEU17IgkkI
HII1PtICFWY6XBf+XvPNroiald6hpGr6fdXkUN9K1zLbXFjLbxsUmespjlW7FQ7EKyjjTliqjqum
nzr5k1fQNTmkj8r6OsEN3pcLGJr+e4jE5NxIhEn1dI2VRGpAduXOqjjiqVfpf/lVWlS6NexmTy3F
DO3le/RSWWRVaRNMuAo+KVj8Nu/WX7J+MVdVn3lu31G38vaXb6nK0+pQ2kEd9MxqzzrEolYkdSzg
nFUxxV2KuxV2KoXStP8A0dpttY/WZ7z6tGI/rV2/qzycf2pHoOTHuaYqisVdirsVdirsVS+60S1u
dasNXkeQXOnR3EUEYI9Mi69PmWBBPIeiONCOpxV2k6JaaXJqEkDyO+pXb3twZCD+8dEjovELRQkS
gfrxVMMVYL57/K601zR/MK6Ncz6TrGtWVzBKYbiSKzuJpoDEpuoKSxEGoDusfqce9aYqnmh+S9L0
q/bVGnutS1d4zAdR1Cdp5ViJDNHEvwxRKzKCwjReRpXoMVT7FUs8yeX7PzBpMmk3skqWVw0Zuo4S
q+tEjh2gclW/dyheEgFCVJFcVWeYvLVlrlnBBLLNZ3FnMtzp9/aMqT206KyCSIusifYdkKurKykg
gg4qhdA8oDTdTm1i/wBTuta1maEWwvbwQp6VuG5mKGK3jhjRWajMeJZiBU7CirWteTo77VBrGn6l
eaJq/pLBNd2JhYTxRlmjjnhuI54ZAhduLcQ4qaMMVS+4/LHTtVP/ADtepXvmZFVhFa3xhitY2deP
Nbe0itkLqCeDycmU7qQcVZLo2nNpml2untd3F/8AVYxELu8ZXuJAuwMjosYZqbcqVPU1O+KozFXY
q7FXYq7FXYq7FXYq7FXYq7FXYq7FXYq7FXYq7FXYq7FXYq7FXYq7FXYq7FXYqkPkXzhY+cPK9p5h
sYZbe1u3nRIZ+PqA21xJbtXiWG7REjfpiqfYq7FWIaT+ZelanJpKRWs6HV9U1DR4OfD4ZdNS4eR2
ox+BhaNxpvuK4qy/FXYqkvmnzVZ+XYdNkuopJv0nqVppUCxcaiW9lEaseRHwr9pqb0xV0Pmqzm85
XflVIZDd2dhBqM1xQeiFuJZIkjrWvP8AclunTFU6xV5t+ZP5y6d5bttd03RrS81jzJpWnzXc6Wds
09tYt6LSQyX0paJEj25MA3Lj26YqmHkX807HzHJZ6Ze6bqWj63cWouUg1C0aCKdVVTJJbyqZYnSr
VHx1p2xVnOKsK1/8yLm08xXHl7y95evfMup6fDHcasLSS3gitUmBMSPLcSRqZXUcljXfjviqZaL5
+8uap5Qk81iV7TS7ZJ31AXS+nLatalluIp034vEyEECvtUUxVMPLOtNrmgWGsGzmsBfwrOlpc8RM
iPunMKWAJWhpXbFUr87+frHyr+jrb6ldarrOszNBpOkWKq087xrzkasjIiRxru7s2wxVAaB+ZU91
5kt/LXmLy/e+WtZvYZLjTY7l7e4guUgoZVintZJU5orBmVqbYqzbFUqs/MVrdeZdU0BInW50q2s7
qaU04Mt806oFoa1X6q1ajuMVTXFXYq7FXmv/ADjj/wCSd0X/AIz6l/3U7nFXpWKuxVhGi/ljBpcm
jOuoNL+h9X1LWVBjC+o2ppcoYj8R4iP659rvx6CuKs3xV2KvH/ze8r3955o8nxJ5k1WFNU8wQtHZ
xmyEFqLW0nm9W35WzSeoGjFPUZ13O3Siqh5O8n6lL+bnnB2826zI2jx6PbtKzWBe4VopLow3FLQL
wHqCgjCNRjU7iir2fFXhX5laB548paV+Y99pNhBrnlfzZZXdzfkTLb3unytYtBLKQ44TwhV5cVIc
dKeKrOPyt/Mjyx5g02z0O3eaz17T7G3N1pF/C9tciMRqvqorikkZ7MhI3HjirPcVeaTS+ZPJ3n7z
Nqi+Xr3XtG8zfVLq3m0sQvNBc2lqlq8E8cskJ4usSsrgkCtDirz71VhS70Xzg66Vo/6Ul82efIEb
6wkbX1wG0zRf3QYyySlUllVF+ILt9rFXtHlf8w/LPmS9uNPsJLiDU7WNZ5tOv7aeyufRc0WZYrlI
2aMnbktRX5jFWGfnlf2+mXnljW9KuBL560q6kfQNDRHml1CG4QR3lt6cQZ0Vo1B9UjihUVxVD/l5
qF75+19fzI1uWLT7Py8t5YaZ5ajLPcWUrEJdy6gzLGwnZI6CPjRVodzuVXqWia1put6RZ6xpc31j
Tr+JLi0n4unOOQVVuLhXFR2IriqDsfLiWnmvV/MInLvqtrY2jW/GgjFi1wwYNXfn9a6U2piqc4q7
FXYqwz8nbLRrH8vNNttG+uDTklvTD+ko1iuqtezNJzRdgPULcPFaHFWZ4q7FXYq7FXYq8e87fl89
5+anlDhq2uehdSave3Ekd7KEtStuqqsDdIAxuOAUdV26A4q3+WXkF083+b9Wm1TWh9V1xILcT3kt
LqO1s7ejXAP9+tWKgn9kU7Yq9gxV5J+b3n++sPK3nPQtW8t6lDbXGl30Ol63axG8splls2VTO8NW
tmDsQfUWlBy5UxVL/Kj3/nLzj5C1jT9CvLDSfKWnzi91rUbdrT6011ZC3jt7VXpJKgYmQuV47be6
r2vFUl85+Y/8OeWr7V0tZb64gQLaWMCs8k9xIQkMSqtT8UjAE9hv2xV5hrfkrUfLHlfyxrWoQNrO
oWPmGLzF50e2iMrySzRSxyXEcagu62byp6aqPsJWm2KprYa/pvnf82NB1fyys1xpPl/T79dU1gwS
QQyPfeiILRGlVGkZTE0jACi7b1JGKofVNVg8k/nFrPmXzPa3B0PW9Os7XSddigluYrI2xf6xay+i
sjxCZ2WSvHiaexoqw38xtU/xNf3Wp/k1DqF55j1K0msvMc1vaywadPZmB1DTyXIgQ3cdR6DIS37J
22xV7V+W91os/kbRU0ZZotPtLSG0iguo2huIvq6CIxzRtusi8fi8eoJG+KskxV2KuxV2KuxV2Kux
V2KuxV2KuxV2KuxVD6jp9lqOn3On30K3FleRPb3UD/ZkilUo6N7MpIxVUt7eG2t4reBBHBCixxRj
oqKKKB8gMVVMVdirsVdirsVdirsVdirsVdirsVdirsVdirsVdirsVdirsVdiqncXFvbW8tzcypBb
wI0k00jBEREHJmZmoAoAqScVdb3Fvc28VzbSpPbzoskM0bB0dHHJWVlqCpBqCMVVMVdirsVdirsV
dirsVdirsVdirsVeS/8AOM/mLXde8h6hea1fz6jdR6xdwJPcOZHESLHxQFv2RU0GKvWsVdirwGy8
3+aH0by9K2q3JkuPzIl0udzK1XsRJdAWzb7xfAvw9NsVe/Yq7FXhH57fnh5Z0i80zy5p3mCWx1ux
12w/xBHCl3GYtPoZLgtIkfGROLJVY2LGuw2xVBaT/wA5F+R7z86LmX/E0x8qTaVBY6ZAYbwQyajJ
chmYQ+jVW4njzdR86Yq+hMVfOH5leaPPfnTUvzM0HTdaTy/5b8laVM17YpBHLc6lztZXdWdzyjjP
plSU7EbEnZVln5I+XPzP03RPKV7N5og1byde6RbSy6TdWqxXNoJLRWgjtp46l1QlVPqH7I6VNcVe
x4q8bvrXzF5//NrzX5ebzNqfl7Q/KFvp6W9voswtZri41CA3Bmml4uzKlOPDp0/yuSqA8v8A5ueY
dJ/LDXP0lMNb82aTr135U0OQKofUryNlW2fiKA7SVbxCnvir1byNomraJ5V07TtZ1KbVtXjj5ahq
E7mRpJ3JeTiT0RWPFB/KBirz/wDPfzL5hs9Z8k+WtO1p/Lem+Zr2e31TXIVHqxCJYzFCkjCkbTNI
QG67eFcVSRG8xfl/+cflLyppnmvVfNOn+YI7k6tpeszre3FrHEnKO5WYKjIpPLt0Ujwoq94xVgGm
6vqkn5463pL3UraZBoNlcQ2ZY+ksz3MqtIF6BmVQCcVZ/irsVdirxj/nFGCeH8utSWaNo2Ot3pCu
CpoVi33xV7PirsVU/qtsAAIkor+oo4jZ/wCYf5XviqpirsVfOf5x/m15bn8/eTtONrqXHy5r0txq
I+pyfvGs1aMG32rN8VT8O1N8Vd+XP5teW7v88PON/wDVtTCeYJNG07SlNnIPTKQmKQ3Ip+6HqsCC
x+zvir6MxV5B+fH5ReTda8t+YvOBjmsPMenaTeTG/sZTC06wWzMIblaMsiMq8G25Fdq0xViX5V+b
vzB8mXv5d+XPMF7DrflXzppcLaHKIxFdWDx2scv1c8f7yNBKiVbcjeooVKr6MxVgfm38odM13zGf
MthrOqeW9cmtxZ3t5pE6wm4gX7Kyq6SAsv7LChH0CirwuN00Z7TW/JlqlxpOnasnlT8vpL9jLHd6
xqLML/WLhl4mT+7McbD4fADjTFXrGleYPzJ8qfmN5f8AK3m/V7XzHpvmqG6+pahFaJYSW11ZRes8
bIjOro6bKTuT4U3VSj83J7/8yPNz/k7pMVtbwW1vFqnmDW7qP1Xtk5KYls46r+9PMVavRiPHFWK+
WtQtvyS1PzLYecbcSa7f211eaB55l9SY6ksUfNbSV5GkMcqsi/ADRjT/ACSyr3D8rdY1/Wvy90HW
Nf4fpbUbRLq49NPTWkxLx0Xt+7ZcVZOIohIZQiiQjiXoORA7VxVdirsVdirHvI/l7zBoOkzWeua/
J5ju5LmSeO+mhEDJE4XjDxDy1CUO9e+KshxV2KuxV2KuxVifmDyIdZ8/eVPNjX3op5WW/Edh6XL1
21CAQFjLzHDgFrTia+2Ku8meQv8ADeu+atXa9F5L5mvxfFBD6XoKqcEi5c5PUp/Nt8sVZZiryH8z
PyV1XUrfzNqnlHzDqWnajrdpcfX9CWVJbG/la2MQj4TlVhaUKsZfl8I6UxVr8p/yNfQ30DzJ5r1O
81bzLpemw2tjY3Lp9W0wGARvBAsZdWMYrHz5UPXrvir1/FUk866Fqmv+V9R0XTNT/Q11qERg/SIi
9do43NJOCc4viZKqG5fDWuKsf8y/lFoWq/l9YeTdPnk0iLR2t59Fv4AGktrm1NY56HiHYkty3Fan
cHfFUD5c/LDzQfOdh5u87eZF17UdGt5bfRbe2tFs4ITcrwnmYBn5ySJ8PYfhRV3nX8pNS1LzhF52
8o+YZPLPmgW31O8m9BLu3uoAQVSWF2UbUG+/QbVFcVSbW/yM80edikH5jecpNU0m3YyW2k6ZZxWE
YmKFFleQmZ3K8jQH+JGKs/8AIHlzXvLflu30bWdb/T8ln+6tb9rf6tL6CgBEl/ezCRlG3Pao6iu5
VZHirsVdirsVdirsVdirsVdirsVdirsVdirsVdirsVdirsVdirsVdirsVdirsVdirsVY75N/MPyf
5zivJfLWofX49Pl+r3bejPDwkIrx/fJHXp1FRirIsVdirD3/ADc/L1NNn1JtWpZW2qnQJpfq9z8O
pChMHH0uR6j4wOH+VirMMVdiqR+bvO3ljyhYW9/5ivfqVpd3KWVvJ6Usxe4lVmRAsKSNuI23pTFW
/wDGnlr/ABd/hD65/wA7ELX6+bH05f8Aeblw5+rw9L7X7PKvtiqd4qw38x/zW8oeQ9KubjVb+3Gq
LbS3Gn6Q0vCe5dFYxxqFWRkWR14cytBiqD/Lf86vI3nmysls9StrfXbiFZLjQ2mrPFIV5PGnNYjL
w7si4qz7FWE+evzl/LzyPfQ6f5h1P0b+eMzJaQxS3EgiFf3jrEr8F+E/a8MVT7y75v8ALXmPQI/M
GjahFdaPKrOLsEoqhPt+oHCtGVp8QYCmKu8p+bvL/m3Rk1ry/cteaZK7xxXJimhDtGeLcRMkbMA2
3ICmKqHnPz55S8l6WNT8y6jHp9qzcIuQZ5JH68Y40DO58aDbvirHPJv5+flX5v1dNH0XWQ+pygmC
2nhmtzLQVIjMqqrNQfZrXFXoWKpOnm7y8/myTykt3XzBFZ/pJ7L05drUyCL1PU4+l9tgOPLl7Yqn
GKuxV2KvnX/nDb/jlecv+2qv/EGxV9FYq7FXhE35D+b38p6jo4vNP+s3fnVvNEbmSb0xZEKPTY+j
X1vh+zTj/lYq93xV2KvmX/nJaz/Mq680eV9KfU9OOiatr1qvlyz4OJorlQsSyXLBfiRXnP2a7HFU
t8t6X+dV5/zkJ5h9PV9I/wAT6Tpttb6nfNA/1VrWcQTKkKcOQk4kfER44q+rMVfHX5z6Vc+V/wAy
/O+u+bvLs2taT5i0y4tfLmshBNDaXM1sIrdjy+BGiYcd6Mv2kr3Venf84/W35Ma9ofla+0yLT288
6BZILoxJ9XvBKYTBM8qUjM4o5HMhgDShrir3fFXz1rfmGy/Lj/nIPzJ5n816fctovmHTrWLRtVgg
e4VHhiijkt/h+yZHiO3+rXY1xV5/5cutdPlK58hWkbeXG8/6vd6xcLcARDTPLYCCSaQNxEYlETIl
aBlX/KU4q+mfIPmL8t59Nt/L3k3V7C9g0m3SKOzs7iOV0hjAQOyqeRqerdyfHFXl/wDzlTotxajy
p5/Vba8tPKd6HvNJu3VFuEmliYBA+zEmHiygE0NaGhxVjUGqy/nZ+Z/lrzboel/oXyh5ImS51LXL
z045ZZImjuTA3FiOKekAN6KrMxpUDFX0zYajp+o2kd5p9zFeWctfSubd1ljbixVuLoSpowIPvirD
LfyHq8f53XPntprc6RNoA0hYAz/WfXF0k/Irw4cOKdeda9sVZ3irsVdirxP/AJxi0nynp2neZ18u
+YH1+OXUA9272Ulj6MnE/uwJHk5/6wpir2zFXYq7FXYq7FXyv+cHlP8AMm4/OXyjpjecPVk1TUL6
+8u1tYwNLRGEiDr++4ooX4v5ffFVP8pPJ35lah+b3nS7h85cLzRb+yttevjZof0kiM4aIA0EXFbf
iePiDir6sxV4T+cP566Fpll528j69pt9pl1cabd2uh37xM9te/WLMopVgAV/fOVrQrtUkdMVeP8A
5XQaZ5j/ADK/LiTyNpU9teaDZ25846nGhhgdo1pKWptVkqhY7yFqb9Sq+1sVSvzT5k0vyx5d1DX9
Vk9Ow02Fp5jtU8fsoterOxCqO5OKvlrzz5W8y3n5N63+ZWtwyfprzdf2d3qNvGSWttBV/wDR7dR2
WvpOfbjy3BxVPmu/y11D87Py1P5UxWwkt47l9bfS4vSRbIxKIxc0UDnx9QNz+LcA7lcVU/zfv9Jt
P+cjtGm/MqN5PIUdoDpAmR5LL1uHxNJGgYPSc/GKHbhy+HFWG/mpr/lHRfMN7e/k1rf1mTzTaXNp
5i8uWMEslv6ckL8riKihFKhmai7oakfCSMVfQX/ONl75al/KDQbLQ79b36hEU1BRUPDdzO1xNG6n
cUeU8T0I3GKvT8VdirsVdiqC0zRNF0pZV0uwtrBZ25zLbQxwh2/mbgFqfc4qjcVdirsVdirsVQs+
k6VPfwahPZQS39qCLW7eJGmiDAhhHIRyWtd6HFXWmlaXZT3M9nZwW094/qXcsMaRvM+/xSMoBdtz
ucVRWKpf5g0LTdf0S+0bUo/VsdQgltp1GzcJkMbFTvxajGh7Yqt8t+XdL8uaFZaJpcZjsbCJIIFY
8m4oAoLN+01BucVTLFUNqOmabqVq1pqNpDe2jkF7e4jWWMlTUEo4ZTQ4qrvDE8TQuitEylGjIBUq
RQqQdqUxVL9H8seWtFaVtG0mz0xp95zZ28UBc9fj9NV5fTiqI1HStL1O2NrqVnBfWxIJguY0lSo6
Hi4YYqhdF8q+V9C5foTR7HS+Y4v9StobeorWh9JV774qq6Z5e0DSXmk0vTbWwe4p9Ye1gjhMnGpH
MxqvKnI9cVR+KuxV2KuxV2KuxV2KuxV2KuxV2KuxV2KuxV2KuxV2KuxV2KuxV2KuxV2KuxV2KuxV
4l/zjf8Amx5v8/X3m6HzDJBImjy2iWXoRCKgma5D8qE8v7lcVe24q7FXzNq35+fmFa+SPPOsRTWw
vdA8xLpWnkwKVFsZHWjrX4moo3xV9JWEzz2NtNJ9uWJHamwqygnFVfFXiH/OQv56P5Os7PT/ACpq
1j/iT68kOpWsvGZ4IDEzVkjr8HxMhqcVQR/5yL05vztGip5h01PIMdl6kl+SnBrn0q8BcFqfaYfd
TFXvmKvnj82Pz585yecNU/L38vtGivb2ytpf0rf3BPwKsXOZogJIlQRK1Obtu2wXpVVjv/OM/n/8
2Y7bR9Jm0JtX8o6nezR/4gZ5XmgcAtJ6snKUBV4fCrotenLfFX1Tirwvzt+YX5r67+bt7+XP5dzW
OlyaLZJe6jqN+nqczIkbhRVJQF/0iNQAla1NaYqv8hf85CzS/lZ5h8x+cYIodY8rTvY3UcB4pdTk
AQKg+LizueDUqBTlsNgqz38oNQ886r5HstY86NENW1Ot1FawxeiILaQAwxstSSxX4zXcVp1GKsN/
5yD/ADj8yeSrjQvLvlW2hk1/zC5WK7uhWKJeaxIFBKqXZ36seKgbg12VYXqn5tfnl+WPm/QrD8xZ
tM1rSNbahaxULIiBlSQoVSA84zIpoyEN0B7hV9NYq8vufzB8xx/85CWvkZXi/QMujm/dPTHq+sC4
r6nWnwjbFXqGKuxV2KvmD/nC3/jqfmF/xnsP+J3uKvp/FXYqxWb8rPy9msNQ0+XQrZ7LVbkX2oQE
NxmuQSfVff7VWOKsojjSONY4xxRAFVR0AAoBiq7FXxp/zkZq35N6j+ZGjfo9ka/j1aWDz5c+neKU
S2lhgZWDJR6KkorBX7PeoxVLfJsf5Aal+emsW93FE3ke9hitfLVrwvwr3shto1oAPWWrerUy0Xf5
Yq+3cVfM/wDzkX+T1xo82s/mx5W1qXTL5I1/S1kKgSCbhbOY3U7c1Yc0cENuajpirGfyI/NHzX+X
N55b8j+Z9HRPL/mgwXmj36keqqamV9KXkrNG8ZZl5KeLJvXwxV9fYq8f8/fkl5mvvPz+fPInmb/D
mv3lsLPU/UhE0cyKqoGFeQHwRoKFTuoYEHFXz1qWm6T5Zvr7TZZZPMflnyTeLqPmac0jj1TXpyIY
bSv7zjFFxYNy5GgmP7SjFXtXlr8+vzDtPNXlfSvP3la30nTfOIRdEvLSRiweUqIxIheXvLGGU8Sv
IH2xVJf+csNV8u+Yb3R/IOm6XNq/n95Fl057dgn1VJ6ckdmBD+qqVK7BQA5YU3VeaaLqC6B+YWqX
n51ve33mzy3YGfyzaX0nOyuZrWNngjaRQ9RIygxsPhZq8qtsVX1Z+UHn698++R7XzPd6cNLN3LMk
NushlVkhkMfMMVTqysOnbFU+byp5cbzInmZrCI69HB9VTUaH1RDueFa0p8RxVNsVdirsVefflVpP
5q6fca23nu406eGZ4TpA0+OOMqqmX1fV4RQ12aOla98Veg4q7FXYq7FXYq8U/MP8hovMX5qeWfMF
jpOlRaBaStc+Y4jFEkl5K8pkYyxiJhPyp8XqHepxVZ+Wv5BQaF+Y3mzzBrej6TLpV5dCbyxbRxxy
/VEWd3VkjaJVgYLwpw6dMVe3Yq+bP+cgvye8/GLzT5p8ueYbq603WBA+reVxHI5l9P0oU9JY+auV
EakVQMAPtHFVP8p/+cdvNN9qXlXzn581s3Uek2dlLo2iBZA8EcKLJbQTeosfp+iackVTVq1Piq+l
8VSTzsnmqTyrqUPlQwr5gmhMVhLcsUijdyFMpIV941JZRTcgV2xV5ev/ADjpbf8AKjJfIS3SRa7d
smoXeqHkyPqIYOSx+0Y6D0gaVp8VK4qkuh/lB+cPmHzb5PvvzCu9Ng0nyKyPpy6eWaa5kiaNkZ6i
g5G3j5H4dhstSTiqYfm5+R3nTU/zCs/zH/L/AFW3svMVsiLNb3dQpaNDEHjbjKp5RHgyOtKd96Yq
xfzL+R356/mheWZ8/ajo+l2mnq6wSWkIlnJYD+QKSrEbgygDqFxV6l+Rnlr8yPKflpfLHm1NPmst
OHHSb2xkYuYyxJiljMcfStQ/U999yq9LxV2KuxV2KuxV2KuxV2KuxV2KuxV2KuxV2KuxV2KuxV2K
uxV2KuxV2KuxV2KuxV2KpPo3nLyhrd1LZ6Lrmn6ndwKXnt7O6huJEUEKWdI2ZlHI03xVOMVdiqRH
z75GWG+mPmLTBDpciw6nKb23420kjFESdudImZ0ZQGpUgjFU4tLu1vLWG8s5o7m0uY1mt7iFg8ck
bgMjo6kqyspqCOuKquKpdrfmTy7oNvHc65qlnpVvK/pxTX08VsjPQnirSsgJoCaYqpnzZ5WGrw6K
dZsRrNwokt9N+sw/WZEKlwyQ8vUYFAWqB03xVNcVQeraxpmkWMl9qVzFa20SlmkmdIwaAmgLlRXb
xxVin5W/m95X/MnTru+0KO5thZTehLb3qwpMfhVuapFLN8HxUqT1xVm+KpP5h84+U/LcccnmDWLP
SlmqIfrc8cJenXgHILU70xVH6dqem6nZRX2m3cN9ZTjlDdW0iyxOK0qroWVvoOKobRvMvlzXBOdE
1Wz1QWzBLk2VxFcCNzWiv6TNxO3Q4qiNT1bS9Ks3vtUvILCyi/vLq6kSGJf9Z3KqPvxVJ9C/MXyF
r939S0XzFp2o3m5Ftb3MUkpA3JCBuRA8QMVZFiqXv5h0CPWY9DfU7Rdalj9WLS2njF00YBPNYC3q
FaKd6dsVTDFXYq7FXx//AM4d/wDk0/NP/MBL/wBRkeKvsDFXYq+Sbn8nPzLfy1+bVouhym48w6tY
3OjR+pDW4ihvrmWR1+Og4pIp+KnXFX0r+XWm32l/l95Y0y/iMF9Y6TY213ASCUlhtkSRCVJHwspG
xxVkOKvjb/nLrzH59vfMVv5d1TS4rby5DdNJ5evUR1lu2EMay8mMjI3BpqbIuKsZtvNf5wT/AJ7R
63B5cgk896ZB6Q0MRzGGONbP0N4zPz/uZeX971P0Yq+67V5ntonmXhMyKZUHQMR8Q798VfD358ag
dV/Py+07z1fXdl5csnEVr6C8zDbG3DxNCh5D97JQuwBO52NOOKph/wA4uflZpnmbUrbzSuuGz1Xy
7qkcsmlIVLT20apIp+FlkVWkqpJBVgCMVfauKvkP80/8ID/nKC9P5oer/hH6hEdP5+sY+H1NePH0
P3nD6z6v2f2+u2KsQ/Ln8xde8ufldr3lzQTPLqXmvVI9P8tQA/GnqJwupU8HKvDGN/tGo+ycVfWf
5O+RNI8ieSbPy5aSxT38Y9fV5o2DGS7kA9VjTfitOC1H2QO+KvFf+c19M8xyx+XNRVJpfLFsZUvB
EfgjuZGXi0goQC6VVGNabjvuq8h842PkPV/OPlu0/JKy1Aai8cTyqzSl1vOSshUysxVoqEyOD6Y6
g0BOKvv23EwgjE5DTBVErL0LU+Ijp3xV49qnknzTN/zk7pHm6OwdvLtvpL202ock4LKY5wE48ufW
Rf2cVeyYq7FXYq+af+cZvJelaH+YPmC8s/NOl65LPaSI9nYNMZYgblG5P6kca0BHHY9cVfS2KuxV
2KuxV2Kvib/nIA/m5f8A5taTpGsNDJI2pS/4IgU24/cXN4I7Yycehb04wTLvtviqG/Ln/ldWofnr
rF7p7QTebrSRovMshNrwWBJ44LhU5fu6jgF+DfbFX3Fir5P/AOcpPzO8i6suv+TLjSCPNOiy2q6Z
rJjR+SN6cs8Yk2kjoJGHHdWpWvTFXjXkwQw/mR5L/wACz3j6nI1h9d5DiVvWb/S44+NOUHD7XLty
rVd8VforirH/ADnoHkbUNLlvvN2m2N7YaZHJcPPfwxyiGNF5yMGcEqKLvTrir5B1mz1TzD5V83/m
7ZWn6H0iwMWj+TbK2jWFLa0e4WKaSJY+KpRJWUlducj03XFUq0+Dy35V1P8AK3WvIetyXXmfVWT/
ABFaxzCQxzPNCvoPEgDKJDJIhRvtBQe9Sqzj/nKLzfq99+amneSdb1CfR/Iw+pyXbwgkSxzPWa5Z
QP3npbqq7gFa0rirzzz2dH/LjXr1Py082RatoXmLT5rO7hjkEs0UUq8XjmdFVK1PKNlow3BFPtKv
pL/nERrE/lOPS1Fb6/mvp7jUYeZeS3duMUcbhviHKOFWHY12xV7ZirsVdirsVYr5U/K3yD5S1K51
Py7pEen314hiuZ0eVy6M4cikjuPtKDsMVZVirsVdirsVdirHta/L7ydrfmHTvMeqaZHda1pPA6de
M0gaIxuZEoqsENHNdxirtC/L3yboOu6lr+kaZHa6xrDO+pXitIzStLIZXJDsyjk55fCBirIcVYJ+
bP5Q+XvzF0J7G7WGz1Osf1fWhbxzXMSI4dkRiUbi4FCOWKon8uvyp8oeRtKtLfTLC2OqQwLBdayI
ES5uCAAzM/xMORFSvKmKsyxVLvMXl3RvMej3Gjazb/W9MugouLYu6BwrBwCY2RqclHfFVOy8q+XL
Hy4nlq20+FNBSE2w04ryhMLV5IytXlyqeVevfFWM+WPyL/KjyxrS63onl6K21OMsYrhpbif0y1am
NJpJEQ79VAxVOfOH5d+SfOVvHB5m0iDUlhqIZJAyyxg9Qk0ZSRQe4DYqx7Q/+ce/ya0S6+tWPle2
aahWt0894oBFDRLqSZR160xVNvKn5T/l95S1KXUvLekLpl5MhjmeGWfi6E14tG0jIRXcfDt2xVlu
KuxV2KuxV2KuxV2KuxV2KuxV2KuxV2KuxV2KuxV2KuxV2KuxV2KuxV2KuxV2KuxV4F+UP/OSWt+e
vzEbyrd6NbWduI7mT6zFJIz1g6Cjbb4q99xV2KvnaT/nKDXkt/zAl/QlqT5OkjS2HqSfvw+orZfv
PD4X5bd8Vev/AJW+cbnzn5B0jzNc26Wk+pRu728RLIpSV49i2/7FcVZViryL8+fz1b8trbTRplva
6pf3k0kdzaySkNCsaKwLBCWBPMUriqRRf85KXb/mnpHk36np/wCj72G0e+1T6yeMTz2i3MoBNE+A
txFTX6cVe9AhgCDUHcEdCMVeL/m9/wA5PeWvy/1l9AtdOk1vW4AjXcKyi3gh9RQyq0pWUl+LBuIT
6cVeV/kx/wA5ReY5fOkmnebmu9XttduYbXSYYFgrayzTFFWnGIup9RVJ5V26HFX15irw382v+cid
Y8ted18jeT/L51/zAkaSXKn1Hozxev6UcMI5uRDRy3LYYqmf5Yf85F6B5t8j655k1e3/AEPL5aRZ
NWhD+ohSRWMTRMQpJlaNlVOvLbeoxVNvyP8AzJ80fmHoN35g1XSIdJ0tpjDpQjd5JJglfVdiwUcV
NFBHUhulMVQX55fn3pv5YxWdpHYnVNc1BGlgtS/pRRxKePqSvRm3bZVA3odxiry+w/5zE806Zqlt
H5z8nmx067pLHJD60Ewt2PwyxpcDjMPkVBxV9P2F7a39jb31pIJbW7iSe3lHRo5FDIwr4qcVeZ+Y
Pzh1LS/zx0T8uY9PhkstVt1nkv2dxKhZJmoFHw/7pH34q9TxV2KuxV8Qf84sf+T5f/jBf4q+38Vd
iryR/wDnGXyG0XmqI3+qcfN7q+pH1besZS7W9Hof6P8AD+8Wnxcvh998VZ/5J8oab5O8rWHlrTJZ
prHTkZIJLlkaUh5GkPMosandz0UYqnmKvhH/AJyhsvKJ/Mu5v9E1pdQ1C/nlj1u1pRbKe29O3EZN
PFGr8sVYxpfk38vrz805fLkvmUw+Ug8iQeYCq1k4xVSi9Pjl+HFX6I2sAt7aKAHkIkVAx6kKKVxV
8Z/85Lfl75o8l/mEfzKsZYpNM1DUIZbSZwkjwXyx+oI5IZAVdT6DMpoRTY+6rGPyN/Mfy35b8+TX
XnHRkvV1i6t7iLUCi+pYXHqNIlzGjDlxPrVPFgePTl0xV974q+dfzX/Jv80Y/wA3E/Mz8upbefUZ
kUSwTtGjQyLa/UyQJv3bo8I8ag9sVfPWreXtW8qTXvkbVL9Y3uJLfUPOL2pEwgitgzQwepVVkkHr
livLi0jRrXkMVe9+Qf8AnK3yJZHR/LX+G7rQfLahbLT9QeRZUREPBXkUIvf+8ZWYg+OKpb/zmrZ+
TZE0e8k1H0vN8KGOHTUXn6tkzkl5CP7rg/LgT9rcUNKqq8L1Hzhq/n3UbFPPmum3stAsTFB+5rO6
QgVhiVQqtcTUHxSso23PQFV9sfkf+YXlvzn5NVvLmn3WnaVobR6TBDd8C3G3gj4gFGcGiMoxVF6r
+UXlvU/zL038w57m8XWtLiEFvbxvELVlVZFq6GJpCf3x6SDtirN8VdirsVeBflDpX5m2/wCYjTa/
+X+h+X9J9O5A1fT7G0t7nkfsL6sUjvR/2tt8Ve+4q7FXYq7FXYq+UPzh/wCccdV1L827K78t6Nc3
GgaxOl55jv8A6xFRJ7u9ka64CQqyhIiGFAeuKoT8vf8AnF+8m/NPWE8yaNd2Xku1e6k0Sczx85PT
ulForGN3aphJY1HbFX11ir40/wCcs/JHnvTdbvvNN5qKz+UtavrZLexjlkAiuYrRo4vUt2+DkIop
KOpPU9K4qhfy/wD+cd/zO893/l/XPNsiW3lhLSy+qzyyxSyyaZFEpt4YIYS/ENHQfvOJFSSCdiq+
1cVSfzjqWuab5Y1G80HT21XWo4T+j7BSq+pO3wpyLsg4KTybfoDTfFXz35Z/5xx8zXn5SebH134P
zD81OLhjcOrFBb3K3KxO6ErW4kQs5rTdf5cVefwfk5+eHm208qeSNX8vDSNH8tPdxrqsnBQsV5OJ
Z3dldllKlaJ6Y3792xVnH/OSX5E+f9c88jzp5Vtl1WKSGAXFmGjE0UtuOIKxykLIjKqmgqa12pir
B/NX5X/n9+aHmKK/1fylbaXfpCIp78KlmkqoPgM3KRy7CnEFVrTboBRV7B/zjRYfmZ5P05/KHmfy
jJY6Y0slxbaxE8DUlfd1uVWVmYHiAjqNtgRTcKvfMVdirsVdirsVdirsVdirsVdirsVdirsVU57e
3nQJPEkqA1CuoYV6VocVXoiIioihUUAKoFAANgABireKuxV2KuxV2KuxV2KuxV2KuxV2Kv8A/9k=
									</xapGImg:image>
							</rdf:li>
						</rdf:Alt>
					</xap:Thumbnails>
				</rdf:Description>
				<rdf:Description  rdf:about="" xmlns:dc="http://purl.org/dc/elements/1.1/">
					<dc:format>image/svg+xml</dc:format>
				</rdf:Description>
			</rdf:RDF>
		</x:xmpmeta>
<?xpacket begin='﻿' id='W5M0MpCehiHzreSzNTczkc9d'?><x:xmpmeta xmlns:x='adobe:ns:meta/' x:xmptk='XMP toolkit 3.0-29, framework 1.6'>
<rdf:RDF xmlns:rdf='http://www.w3.org/1999/02/22-rdf-syntax-ns#' xmlns:iX='http://ns.adobe.com/iX/1.0/'>

 <rdf:Description rdf:about='uuid:26de5aa0-6218-11de-9013-001124740a56'
  xmlns:pdf='http://ns.adobe.com/pdf/1.3/'>
 </rdf:Description>

 <rdf:Description rdf:about='uuid:26de5aa0-6218-11de-9013-001124740a56'
  xmlns:tiff='http://ns.adobe.com/tiff/1.0/'>
 </rdf:Description>

 <rdf:Description rdf:about='uuid:26de5aa0-6218-11de-9013-001124740a56'
  xmlns:xap='http://ns.adobe.com/xap/1.0/'
  xmlns:xapGImg='http://ns.adobe.com/xap/1.0/g/img/'>
  <xap:CreateDate>2005-10-18T08:31:30Z</xap:CreateDate>
  <xap:ModifyDate>2009-06-26T06:15:40Z</xap:ModifyDate>
  <xap:CreatorTool>Illustrator</xap:CreatorTool>
  <xap:MetadataDate>2009-06-26T15:10:48+09:00</xap:MetadataDate>
  <xap:Thumbnails>
   <rdf:Alt>
    <rdf:li rdf:parseType='Resource'>
     <xapGImg:format>JPEG</xapGImg:format>
     <xapGImg:width>196</xapGImg:width>
     <xapGImg:height>256</xapGImg:height>
     <xapGImg:image>/9j/4AAQSkZJRgABAgEASABIAAD/7QAsUGhvdG9zaG9wIDMuMAA4QklNA+0AAAAAABAASAAAAAEA&#xA;AQBIAAAAAQAB/+4ADkFkb2JlAGTAAAAAAf/bAIQABgQEBAUEBgUFBgkGBQYJCwgGBggLDAoKCwoK&#xA;DBAMDAwMDAwQDA4PEA8ODBMTFBQTExwbGxscHx8fHx8fHx8fHwEHBwcNDA0YEBAYGhURFRofHx8f&#xA;Hx8fHx8fHx8fHx8fHx8fHx8fHx8fHx8fHx8fHx8fHx8fHx8fHx8fHx8fHx8f/8AAEQgBAADEAwER&#xA;AAIRAQMRAf/EAaIAAAAHAQEBAQEAAAAAAAAAAAQFAwIGAQAHCAkKCwEAAgIDAQEBAQEAAAAAAAAA&#xA;AQACAwQFBgcICQoLEAACAQMDAgQCBgcDBAIGAnMBAgMRBAAFIRIxQVEGE2EicYEUMpGhBxWxQiPB&#xA;UtHhMxZi8CRygvElQzRTkqKyY3PCNUQnk6OzNhdUZHTD0uIIJoMJChgZhJRFRqS0VtNVKBry4/PE&#xA;1OT0ZXWFlaW1xdXl9WZ2hpamtsbW5vY3R1dnd4eXp7fH1+f3OEhYaHiImKi4yNjo+Ck5SVlpeYmZ&#xA;qbnJ2en5KjpKWmp6ipqqusra6voRAAICAQIDBQUEBQYECAMDbQEAAhEDBCESMUEFURNhIgZxgZEy&#xA;obHwFMHR4SNCFVJicvEzJDRDghaSUyWiY7LCB3PSNeJEgxdUkwgJChgZJjZFGidkdFU38qOzwygp&#xA;0+PzhJSktMTU5PRldYWVpbXF1eX1RlZmdoaWprbG1ub2R1dnd4eXp7fH1+f3OEhYaHiImKi4yNjo&#xA;+DlJWWl5iZmpucnZ6fkqOkpaanqKmqq6ytrq+v/aAAwDAQACEQMRAD8A9KaVpWlnS7MmzgJMEdT6&#xA;afyD2xVFfonSv+WKD/kUn9MVd+idK/5YoP8AkUn9MVS3y1pWlny5pRNnASbO3JJjT/fS+2KqOpoB&#xA;rFhpemaVbsZT9Y1G8mt6wQ2qGhVSOPKeVvhRa/COTtXiFZVOP0TpX/LFB/yKT+mKpb5Z0rSz5c0o&#xA;mzgJNnbkkxp/vpfbFUy/ROlf8sUH/IpP6Yq79E6V/wAsUH/IpP6Yqlvl/StLNhKTZwH/AEy+G8ad&#xA;ryUeGKpTqVxqcl9cNoeg21xp+lErfJcQenPeSbFobFmMaD01NfUeqM3wCnxOqrINPt9Ev7GC9gsY&#xA;1iuEEiLLb+lIAwrR45FV0YdwwqMVQvl/StLNhKTZwE/XL4bxp2vJR4YqmX6J0r/lig/5FJ/TFXfo&#xA;nSv+WKD/AJFJ/TFUt8v6VpZsJSbOA/6ZfDeNO15KPDFUy/ROlf8ALFB/yKT+mKu/ROlf8sUH/IpP&#xA;6YqlulaVpZv9ZBs4CBeIB+7Tb/Q7c+GKpl+idK/5YoP+RSf0xV36J0r/AJYoP+RSf0xVLdK0rSzf&#xA;6yDZwEC8QD92m3+h258MVTL9E6V/yxQf8ik/pirv0TpX/LFB/wAik/piqWfo7T/8S+j9Wi9L6nz9&#xA;PgvHl6tOVKUrTFUz0n/jlWX/ABgi/wCIDFXnl7DoS6leeX4b64utDE5e68nWlo80vMAMyerG1IbG&#xA;VzUpIoVm5IH4VjxV6VbvzgjcRtEGVT6TABlqPskAkVGKpZoHrf4T030KGb6hD6Qbpy9FeNfpxVjX&#xA;k7yv5K1ry7aXt3YQalq7Io1W7vVWa/jvQB68csrVkidJKjgpAX9kAUxVm1naQ2dpDawlzFAgjjMs&#xA;jzPxUUHKSRndj7sScVQXlj/lGtJ/5g7f/k0uKsa1nVI9a1S2aCx1DU9D0i4drpLWGIQTXtu4WMl5&#xA;poXmS3kVvhijceoAS3wUxVmdrcLcW0VwquizIsipKjRyKGFaOjAMrCu4IqMVQPl7/eCX/mMvv+oy&#xA;XFWLeVPL3lTXLS6l1uxt9T8xRXM0er/X0S4ngm9RuKIJORhi4UMISgKUYVrXFWZabp1rptlHZWgc&#xA;W8XL01kkkmYBmLU5ys70FfhFaAbDYAYqhvL3+8Ev/MZff9RkuKsP123s9Z13UFubXUNdbTysVk+n&#xA;RRW6aXIUV2limuJoxLdg0JePkUFECir81WY+XJr2bRLR76R5rvhxmlltzZyMykryaAluBNN6Hieq&#xA;7EYq15e/3gl/5jL7/qMlxVjOi6L5a1vVtaj8w2kGpa9bXswktr9UuBDaM5+ptbxS8lSJ7fgSyDeT&#xA;nX4gaKss0nR9P0m1NrYI0VtzLrE0kkioW6rGJGbgvgi0UdhiqjpP+9+tf8xif9QdviqHv/NMUGoy&#xA;abZafeare26q91HZrEEhDiqh5biSCLmV+LgHLUoaUIqqmGmaiL+19cW89qQxRobqMxSAr12NQR4M&#xA;pIPjiqH0n/e/Wv8AmMT/AKg7fFUzxV2KpT/01X/Rj/zOxVF6T/xyrL/jBF/xAYqkfk2xtYNR803M&#xA;UarPd6u7XEtPiYpbQItT4BRsP64qyfFUs8sf8o1pP/MHb/8AJpcVUNY8oaLqdwb0xvZarQBNWsmN&#xA;vdrx+yDKn94q/wC+5AyHupGKt+UdTvNS0CC4vWSS7SSe2uJohxjle1ne3aZBU0WUxc1FehxVW8sf&#xA;8o1pP/MHb/8AJpcVSqPRvNWirMmh3FpfaeZJZ4dMv1eGRWmkaV0S8i9QBAzniGt2IHVjiqc6Hq0W&#xA;r6TbajFG8KzqS0ElOcbqSrxtxLLVHUqaGnhiqn5e/wB4Jf8AmMvv+oyXFVms+VtD1iRZ7y343sa8&#xA;YNRt2a3u4ge0dxEUlUeKhqHuMVUPKF9fXGn3NvfT/W7nTbyeya9oq+usTfA7BQF58GCycQBzDUAG&#xA;wVRXl7/eCX/mMvv+oyXFUufRPMem3d5caDeW0lrdzNdSaXfxvQTOBz9G5iblGrsOR5xSbk0oNsVT&#xA;Hy9rDatp31mS3NpcxSy213bFg/pzW8jRSBXAHNCy1RqCqkEgHYKu8vf7wS/8xl9/1GS4q3rPlzRN&#xA;ZWP9I2iTSw1+r3ILR3EJbYtDPGUlib/KRgcVQHlOe9SbV9Iurpr4aRdJBb3chBmaGW3iuFSdgAGk&#xA;T1StaVK8SdyTiqO0n/e/Wv8AmMT/AKg7fFUDd6Hrltqd3qOg30MRv2SW9sL2FpYXljjWESRyRvFJ&#xA;EzRxorV5r8IooNSVUX5d1q51KK7ivbUWepadcfVL6COT1ohJ6Uc6tFKVjLo0U6MCUU9iNsVX6T/v&#xA;frX/ADGJ/wBQdviqZ4q7FUp/6ar/AKMf+Z2KovSf+OVZf8YIv+IDFW7HTbaye6eAEG8na5mqa/vG&#xA;VUNPAUQYqisVSvy2iv5Y0tGFVaygBHsYlxVL/wDBZVPq0Ou6tDpxHE2K3Kt8PTiLmSN71f8AYzgj&#xA;tiqeWFhZ6fZQWNlCtvaW0axW8CCioiCiqB7DFUJ5Y/5RrSf+YO3/AOTS4qgp/KUskkwi13Vbe1nZ&#xA;mltI542X4iSQk0sclzGN9vTlWnamKpvp2n2em2FvYWUQgtLWNYoIlqQqIKAVNSfmd8VQvl7/AHgl&#xA;/wCYy+/6jJcVQLeT2RnWx1vVLG1kYs9pHNHMm5qQj3UVxNEvgsbqB2piqa6TpVhpOnxWFhH6VtDy&#xA;KqWZ2LOxd3d3LO7u7FnZiSzEkmuKqHl7/eCX/mMvv+oyXFUNeeWJprqWe21zU7FJzymt4ZYpIyT1&#xA;4/WYrhoh7RstO2KphpGk2Ok2EdhYoUt4yzfG7SOzyMZJHeRyzu7uxZmY1JNcVUPL3+8Ev/MZff8A&#xA;UZLirFfMk/l6wudRhg84XPl/U5A7vZrNHOWllXmrQWt3HcsalgeNsBU/5WKsh8laeLPy1YtJavaX&#xA;15FHd6nHM7yzfW5o1ab1ZHJZmVvh36AACgAGKonSf979a/5jE/6g7fFWP+Zr/wAvW2p3Cy+brny/&#xA;qDIvO3WaEh/hovowXkVwpO4/uFqT74qmPkCxe18qWEtxDJFqV9FHeao05kM0l3LGvqvJ6vxg7ABW&#xA;+woC0AWgVR+k/wC9+tf8xif9QdviqZ4q7FUp/wCmq/6Mf+Z2KqGlT+Y/0XZ0sbMj0I6E3ko/YH/L&#xA;tiqK+seZf+WCz/6TJf8AslxV31jzL/ywWf8A0mS/9kuKpb5an8x/4c0rjY2ZX6nb8SbuUEj0l6j6&#xA;scVRtxqWt2yq1xbafCrsI0aS+kQF22VRW2FSewxVV+seZf8Algs/+kyX/slxVLfLU/mP/DmlcbGz&#xA;K/U7fiTdyg09Je31Y4qmX1jzL/ywWf8A0mS/9kuKu+seZf8Algs/+kyX/slxVLdAn8x/UZeNjZkf&#xA;XL3rdyjf65LX/j2PfFUZNqusQTQwzwadFNcErbxvfurSEdQgNtVqV7YqrfWPMv8AywWf/SZL/wBk&#xA;uKpboE/mP6jLxsbMj65e9buUb/XJa/8AHse+Kpl9Y8y/8sFn/wBJkv8A2S4q76x5l/5YLP8A6TJf&#xA;+yXFUt0CfzH9Rl42NmR9cvet3KN/rktf+PY98VTL6x5l/wCWCz/6TJf+yXFXfWPMv/LBZ/8ASZL/&#xA;ANkuKpbpU/mP69rFLGzJ+uJyrdyih+p2/T/RvDFUy+seZf8Algs/+kyX/slxV31jzL/ywWf/AEmS&#xA;/wDZLiqW6VP5j+vaxSxsyfricq3coofqdv0/0bwxVMvrHmX/AJYLP/pMl/7JcVd9Y8y/8sFn/wBJ&#xA;kv8A2S4ql3ra5/iHl9UtfrP1Snp/WZOHD1ftc/Qryr24/Tiqc6VX9E2dOvoR0/4AYqweT85dJitp&#xA;7SXT7hfOEF6NNXykCjXsk7jnG8ZB4m3aH976/wBgKDXcUxV6DGZDGpkULIQC6g8gDTcA0FfuxVLP&#xA;LsscXlbTJZWCRx2MDO7GgCiFSST7Yq8wu/Mb+a/Mel+brfyvruu+VNGVpdGWOKyhgkumJA1GOG4u&#xA;ori4pHQQ1jHGpYCtMVes6VqEepabbX8cM1ul1GsqwXMbQzJyFeMkbfEjDoQcVQ/lj/lGtJ/5g7f/&#xA;AJNLiqX+Z/OUGi6lo+kQWr6jrOtzmK0sYWClYYxynupWbZIoVpyPUkgAEnFWR4qlnl7/AHgl/wCY&#xA;y+/6jJcVeM6nb6d5v1PzBqq6Drnm1HlNnpmv2ItLKHTo7WQU/RP1m6ikkkjuIyzzKPjdafZFMVeu&#xA;+SL+9v8Ayrp9xfm5a99Mx3LXtr9RuGkhdomaS35SBGYpX4WKn7S/CRiqJ8vf7wS/8xl9/wBRkuKs&#xA;c80/mha6Lq1zptjpV3rkul24vdfNiFb6lbsV4luRHqSshZ1iU8iqk+GKss0vVNP1XTrbUtNuEurC&#xA;8jWa2uIjyR0cVDA4qhvL3+8Ev/MZff8AUZLirG7n8zXm1XUNO8u+W9T8xnSZWt9RvLT6rDaxzoAZ&#xA;IUlu57f1ZEr8SoDTFWQ+W/MA1ywa7OnXulyRyNDLZ6jCIZ1ZQD0VpEZfi2ZGKnxxVfpP+9+tf8xi&#xA;f9QdviqZ4q7FUs0n/e/Wv+YxP+oO3xVM8VdiqU/9NV/0Y/8AM7FUXpP/AByrL/jBF/xAYq8j0S5/&#xA;MDzV5981W9lNZaZDoGqSWcXmeWyguL5bZoYnTT7UcUUKrGR5HlLH41AHgq9f06C6t9Ptre7uWvbq&#xA;GJI57x0SNppFUBpWSMKilyOVFFB2xVLdHsob7yZZWU1RDdadFDLxNG4yQBWod96HFWCaJ5k8w/lr&#xA;oNroXm7SLi78vaLClpaebNLUTwfU4FCRPeWqn6xA0cYAkZVddq1xV6dY31nf2cF7ZTJc2dzGstvc&#xA;RMGR43HJWVhsQQcVQflj/lGtJ/5g7f8A5NLirzHyjLrfnPUdV1V/Nx0LzHb3V1p40Ozs9NNxZ21t&#xA;cusUdwbuCe5lEiKJdmVfi2GKvWNOgvILC3hvbn65dxxqs92IxF6rgbv6akha+AxVC+Xv94Jf+Yy+&#xA;/wCoyXFXnuiXXmb8r7CTRL/RbnXPKFpJPNp2uaWEmuYLeaVpjFeWZKSExF2/eQ8qrSqg4q9H0PXN&#xA;J13SbXV9Iuo73TbxPUtrmI1V1rTvuCCKEHcHY74qpeXv94Jf+Yy+/wCoyXFXm2h3Gp695y812EPm&#xA;ceUrqx1J4IND0+109bm4QRIUv7hryCeSf1+R4lQBQdScVejeVtEk0TQ7fTZZormWEyF7iG2is1cv&#xA;Iz19CECNWo3xFRud++Kr/L3+8Ev/ADGX3/UZLirBLZPNn5eaprTQ6LP5k8p6tf3OrrNpxjOoWU12&#xA;3qTxPbO0frx+pVkaNi4BoVO2Ks48seaND8z6PFq+iXQurKUsvKhR0kQ0eORGAdHU7FWFcVX6T/vf&#xA;rX/MYn/UHb4qwK813XdZ/MzWvLL+am8q22lxWh0uyt4bM3OoC4i9R7lZL6K4Dxxy1iKxL1Xc74qz&#xA;3y9p+safYG31bVm1m5DsUvZIIreT0yBxV1gCxkjf4go+WKu0n/e/Wv8AmMT/AKg7fFUzxV2KpT/0&#xA;1X/Rj/zOxVF6T/xyrL/jBF/xAYqxL8stO1Czv/PLXdtLbLd+Zbm4tGlRkEsLWdoolj5Ac0LIw5Da&#xA;oOKs4xVKvLrMnlbTHVS7LYwFUGxYiFdhXxxVis/5waOtk6SeX9fOrkFRoZ0i8aZ2I+z6qxtalT/N&#xA;6vGm+Kph+Unl7U/Lv5caFo+qRrDqFtATcW6EMImlkaX0ajY+mH4bbbbbYqnnlj/lGtJ/5g7f/k0u&#xA;KvOPOeq/lbrguE8x+UdVm1yKqW6pot6dQLJshtb63iZBUj4WWcDxxVm/5c2/mO28i6HB5lZ212Oz&#xA;iW/MriSQSU6SONmcCgZu5xVMPL3+8Ev/ADGX3/UZLirGZvzb0e0M0GoaLrtrqMLMiWK6VeXDTEMV&#xA;Bgmt45bdw9PhPqD3pirf5P6LqumeVLiTU7M6ZPqup6hqkeltx5WsN7cvNFA3GqhlRhUDp0xVkvl7&#xA;/eCX/mMvv+oyXFWD+dtX/LLVJ7nTvOPla+u7m2Z4baSXRLy7aVVOz2l3awzBQ3YiRW8aYqnX5SWu&#xA;vW3kWyi1pLqGf1blrS3v39S8ismuHNnFcPUkyJblA1TUdDviqfeXv94Jf+Yy+/6jJcVY1rX5ueXv&#xA;L8uoJ5hsNV0xLAyEXTaddXFrNFGTSWK4tkmi4laH42Xj3piqh+UllqRTzL5gu7CTSrfzLq76jp+n&#xA;zgJMtv6EMKyzRqSEkmMRcr133xVlmk/7361/zGJ/1B2+KsP/ADA8xflv6l3p/nnQLi4srFOaX9zp&#xA;Fxf2jI0Ykd4biCK4EfAGjFuBBB7b4qu/JOC8j8rXr+ld2+g3GozTeVra/dnuI9JeOP0VPqFpFQye&#xA;o0aueQQjFWXaT/vfrX/MYn/UHb4qmeKuxVKf+mq/6Mf+Z2KovSf+OVZf8YIv+IDFUXirsVSzyx/y&#xA;jWk/8wdv/wAmlxVM8VdiqWeWP+Ua0n/mDt/+TS4qmeKuxVLPL3+8Ev8AzGX3/UZLiqZ4q7FUs8vf&#xA;7wS/8xl9/wBRkuKpnirsVSzy9/vBL/zGX3/UZLirHvN/l78xdXOo6fput6Za6FqcRt2S40+We6t4&#xA;5IhHMEcXKRSljyYc4xStN8VZLoOkxaNoenaRDLJPFp1rDaRzTHlI6wRiMM57swWpPjiqnpP+9+tf&#xA;8xif9QdviqS+ZdJ/Mi8urqLRdY0q20m8j9P073T5bie3qnF2RluY45amp4ugA9+6qb+VPL8Hlzyz&#xA;pWgW80lxBpVrDaRzy/bdYUCAmmw6dO2Kr9J/3v1r/mMT/qDt8VTPFXYqlP8A01X/AEY/8zsVUNK8&#xA;v2B0uzJlvN4IztfXg/YHhLiqK/w9Yf79vP8ApOvP+quKu/w9Yf79vP8ApOvP+quKpb5a0Cxby5pT&#xA;GW8qbO3Jpe3gG8S9hLTFWM+avNNtpnnTR/Jmh6fea5r2pKbm9j/St5bxWNkp4m5nkBm6tsq8d/pW&#xA;qrOP8PWH+/bz/pOvP+quKpb5a0Cxby5pTGW8qbO3Jpe3gG8S9hLiqZf4esP9+3n/AEnXn/VXFXf4&#xA;esP9+3n/AEnXn/VXFUt0DQLFrGUmW8/3svRte3g6Xko7S4q8681/mra6ZrWsWugaBqnmTS/LCI/m&#xA;nVLbVbqNbUs4DxxRln9eSJOTuoZeNDUihxV6TokPlvXNJtNX0m+urvTr6NZra4S+vaMjfOUEEdCD&#xA;uDscVU9A0CxaxlJlvP8Aey9G17eDpeSjtLiqZf4esP8Aft5/0nXn/VXFXf4esP8Aft5/0nXn/VXF&#xA;Ut0DQLFrGUmW8/3svRte3g6Xko7S4qmX+HrD/ft5/wBJ15/1VxV3+HrD/ft5/wBJ15/1VxVLdK0C&#xA;xN9rI9W8+G8QCl7eD/jztzv+93xVMv8AD1h/v28/6Trz/qrirv8AD1h/v28/6Trz/qriqW6VoFib&#xA;7WB6t58N4gFL28H/AB5253pLv1xVMv8AD1h/v28/6Trz/qrirv8AD1h/v28/6Trz/qriqXfoWz/x&#xA;F9X9S69P6p6lfrdzzr6tP7z1OfH/ACa0xVN9MQPo9ohqA1vGCVJU0KAbMtCPmMVeEX8Pm+zXVvLg&#xA;/Mazt/JFpqym+8x3WpuNcsoqGSTTfWf/AHYXWiN6nLjXqPhCr3XQr3S73R7O50q6F9prxL9VuxK0&#xA;/qIo4hvVYs0hNN2JJPfFUqj1OTSfy6XVI4/WksNHF0kJrR2htfUC7ePGmKvK/wAvfJvnjzv5VsPP&#xA;Fz+Y2pWmr6xGZhFpyW62UIDFVhaHh8Zj40ap6/eVXtOhWuqWmjWdtq16NR1KGFEu79Y1hE8iijSe&#xA;mvwpy68R0xVT8sf8o1pP/MHb/wDJpcVeT/mb540W58/aVol556tPLvlzSWNxrUNlfyw6jc3Snilp&#xA;I1uAYYQPt1kBNegopCr2Owv7HULKC+sLiO6srlFlt7mFg8ciMKqyMtQQR4YqhPL3+8Ev/MZff9Rk&#xA;uKvEPyy0Xzj+Z/luXzjc+eL/AEN727uUg0XR1ght7VY3KLHOhQmV6AN8W/EjxxV7R5P0fV9H8u2m&#xA;m6vqK6tqFv6gl1FYEtfVUys0ZMMfwKwjKq1OpFe+Kq/l7/eCX/mMvv8AqMlxV4l+Zerzzeb9ah8w&#xA;/mPD5MWztvS8r6Xpl/KsnrkiQXWpxxBah6KBEwI4Ntvuyr1v8uNc1LXPJemanqVxY3d7NGVnvNLm&#xA;FxaTPGxjaSNwFpVlPJafC1V7YqmXl7/eCX/mMvv+oyXFXjnla386fmfrXmrUJ/OuoeX7PRNZuNJ0&#xA;/RtIMUJjjtTQSXDMrNIZOXfuD8gq9X8l6J5i0bSHsdd1x/MNwkzNb6hLCkEvoELxjkWP4WZTy+Lv&#xA;iqM0n/e/Wv8AmMT/AKg7fFUt80fmV5C8q3Mdr5h12z066lXmltNIPVKGoDemtWCmhoSKYqmXl7zL&#xA;5f8AMemrqeg6hBqVgzFPrFs4kUOtCUan2WFRUHfFXaT/AL361/zGJ/1B2+KpnirsVSn/AKar/ox/&#xA;5nYqi9J/45Vl/wAYIv8AiAxV4N+U/kDy3r35q/mVrWuWkep/o/XJYdPs7pRLbxPIzNLN6L1QyEKg&#xA;DUqKYq+gLe3t7aFILeJIYIxSOKNQqKPAKKAYql/loBvLOlAioNlbgg9CPSXFXmPmD8mL/wAtJqGv&#xA;/ldr1z5avF9S8k0FmE2kXEijky/V5KiIvSnIVC9gMVZt+VXnV/O35faN5nlhW3n1CJvrESV4CaGV&#xA;4JeFaniXjJFe2Kpz5Y/5RrSf+YO3/wCTS4q8S0jSfOn5S22tRXvk+Dzh5XlvLjUZtdspIv0gsEp5&#xA;N9Ytpl5TMgr9k098VezeTda0DXPK2mat5eVU0a7gWSyjRBEEToU9MbKUYFSB3GKq/l7/AHgl/wCY&#xA;y+/6jJcVef8AmL8j1TVL3zD5A1278n+YLxjNcR27eppt1PueVxaOClST1GwqTxJxVN/yW8+an518&#xA;kJqOrQxw6xZXM+namIf7pp7ZgC6bnZlZT88VZT5e/wB4Jf8AmMvv+oyXFXkA8teffy+82+atasfK&#xA;tv520PzFfPqbzwyxxanbCSpaD05lb1kjrSNE3++gVel/lt5p8reaPKFnrHliAWmlzGQCz9JYGhmE&#xA;hMyPGnwhvUJJp1rXeuKpp5e/3gl/5jL7/qMlxVhXm38lNN1PXLjzN5a1e98o+abgD6xqGnP+5uGX&#xA;obq2NEl+8V6muKt/kr538x+YtP1vSfNHoyeYvK+pS6Vf3dsOMNx6f2ZwoAClqGoAHyHQKs00n/e/&#xA;Wv8AmMT/AKg7fFXlWu+UfPflb8zPMHnfRPL1p5z07zDFai4spZ47a/tDaRemVgeZWjaNgOXEbtQD&#xA;tUqs3/K7zl5Y816FdX2h6e2kSW95LbavpcsKW88F7GFEiyomxanH4voO4ICqfaT/AL361/zGJ/1B&#xA;2+KpnirsVSn/AKar/ox/5nYqi9J/45Vl/wAYIv8AiAxVIPJvkCz8r6t5l1K3u5Lh/Mt+2ozxyKqi&#xA;J2r8CU6jfvirKsVSbRbVbvyfYWrO8az6fFE0kZ4uoeALVT2IrscVefXf5M+e7vTJNDn/ADP1aTQJ&#xA;QYpbd7W1N20BHFo2vqCZqrsSevhir0byv5b0ryz5fsNA0mMxadp0Qht1Y8mIG5Zj3ZmJZj4nFW/L&#xA;H/KNaT/zB2//ACaXFWC6t+Vv5gX0F7p0f5k6hFot6XV7V7GzluFhlJ5xLd0WUfC1A3UYqzbyl5X0&#xA;ryr5b0/y9pSsthpsQhh9Q8nO5LMx2+JmJY+5xVU8vf7wS/8AMZff9RkuKvPpvyi8/RwT6fpv5nat&#xA;baPKWCW81tbXNzHGxPwJeNxmFAaLSlMVZp5E8kaJ5J8sWnl3RhIbS15M00zB5ZZJGLPJIwCgszHs&#xA;KdhtiqN8vf7wS/8AMZff9RkuKsR1n8v/AMwri/v5NI/MS90zT753kFi9jZ3Rg9Q1KwTyKsiqOiiv&#xA;w4qn35f+RdJ8j+V7Xy9pbyzQwF5JbmduUs00rcpJHIoKsT27YqmHl7/eCX/mMvv+oyXFXiX5oT6j&#xA;5TtvNl5oX5tmwvYDLfP5WvTZXE6TXH+krb27SgzxK6yfulVfDfqcVei/kr5T0fy/5B0+bTzcyTa9&#xA;HHrOo3V+3O6lub2JJHMzUG4qFp/GpKrKNJ/3v1r/AJjE/wCoO3xV5X+a2r3+jXfmLUdH/NOHQb+2&#xA;tRct5YvEsZwsqW6iJYRMrTxibiD8KtVmrTtirIfyD0DT9N/Lqx1SBrma+8y/7mtXur0gzy3d2qtI&#xA;xoAOO3w+I36k4qzPSf8Ae/Wv+YxP+oO3xVM8VdiqU/8ATVf9GP8AzOxVQ0rVb8aXZgaNeECCPcPZ&#xA;7/APG4xVFfpa/wD+rLef8HZ/9lGKu/S1/wD9WW8/4Oz/AOyjFUt8tarfDy5pQGj3jAWduAwezof3&#xA;S7itwDiqZfpa/wD+rLef8HZ/9lGKu/S1/wD9WW8/4Oz/AOyjFUt8tarfDy5pQGj3jAWduAwezof3&#xA;S773AOKpl+lr/wD6st5/wdn/ANlGKu/S1/8A9WW8/wCDs/8AsoxVLdA1W+FjLTR7xv8ATL01D2fe&#xA;8lNN7gdMVTL9LX//AFZbz/g7P/soxV36Wv8A/qy3n/B2f/ZRiqW6Bqt8LGUDR7xv9MvTUPZ97yU0&#xA;3uB0xVMv0tf/APVlvP8Ag7P/ALKMVd+lr/8A6st5/wAHZ/8AZRiqW6Bqt8LGWmj3jf6Zemoez73k&#xA;ppvcDpiqjqGheXtS1BdS1HyRHe6ilCl7cW+mSzAgACkjzM4oAO+Kpx+lr/8A6st5/wAHZ/8AZRiq&#xA;W6Vqt8L7WCNHvDW8QkB7Pb/Q7cUNbjFVHU9E0DVrxL3VPJKX95HT07m6g0yaVabCjyTMwp88VTca&#xA;rfKABol4ANgA9nQD/pIxVLtK1W+F9rBGj3hreISA9nt/oduKGtxiqZfpa/8A+rLef8HZ/wDZRirv&#xA;0tf/APVlvP8Ag7P/ALKMVS79I3n+IfV/Rd16n1Tj9X5W3Onq1519bhx7far7YqmthKYdDt5RG0pj&#xA;tUcRRgF24xg8VBIFT23xVgQ/5yJ/K/8Awxc+Ynvpo7e0vF06aykhZbwXLCoT6ufi6BjX/JPcYq9E&#xA;sLsXljb3YikgFxGsohnXhKgccgrpvxYV3HbFUH5aZV8s6UzEKq2VuWY7AARLucVfO3nb8yPy98yf&#xA;mzaTa958t7fyXoQC22k6aNSdru5JUs1zLFbC3MZbaqSsOIptyY4q+k9L1LT9T0621HTp0ubC7jWa&#xA;1uIzVHjcVVlPgRiqG8sf8o1pP/MHb/8AJpcVSTzv+aXlTybfaXp2rPPLqWsuY9PsLOFrieQgha8F&#xA;3ALMAPE9OhxVlqklQSCpIqVNKj2NKjFUt8vf7wS/8xl9/wBRkuKvlX8wNc0PVfNfmu581fmVb6Zr&#xA;kKrb+VbHRn1Sezs2hkLAXMsFsqFjx4vx5ULMeyjFX0n+V2t6lrfkTSdS1K+sdTu5YismpaY8j21w&#xA;YmMZkX1Y4GViUPNeGzVGKpv5e/3gl/5jL7/qMlxViHnf89vy98m6zJo+rXFxLfwQLc3cdnA9wLeJ&#xA;2CqZimyVLL18R4jFWcaXqen6rp1tqWnTpdWF5Gs1tcRmqPG4qrA/LFUN5e/3gl/5jL7/AKjJcVYn&#xA;5n/Pr8pPLGry6RrXmKKDUbfaeCKG5ufTb+V2t4pVVh3UmoxVk/lXzf5b82aSur+Xb+PUdOZzH68Y&#xA;ZaOoBZWVwrKRyGxGKquk/wC9+tf8xif9QdviqZ4q7FUs0n/e/Wv+YxP+oO3xVM8VdiqU/wDTVf8A&#xA;Rj/zOxVF6T/xyrL/AIwRf8QGKvl+TXrXV/zk802ei/lpZa55y0vUuenX6SyW8KC3d1e7vecno8+Q&#xA;j4gKvJiTWtKqvpbytN5kn0Czl8y29vaa4yt9dt7Ri8CtzIUIzEk/BQ9cVSXU9Hv9a/Ka40fT5PRv&#xA;tR0JrW1kJ4gSzWnBKmhoKtucVeG/k1+YH5aeVPLsX5cfmLokega7bSSpePqVmrW90ZZWKPLIVf8A&#xA;Zbjyf4OI2am2KvpbSrLTLHTLW00uKODToI1S0igoIliA+AJTbjTpTFUP5Y/5RrSf+YO3/wCTS4q+&#xA;efLfmnz7+YvnDUfzA8i+VfL5bSZW0y2vtanu2vzGqVpGiSrHDzSTr6Y+0wqfixV9E6BPrM+iWM2t&#xA;20dnq8kKNf2sLepHHMR8ao1TVQem+KoXTIJZ9DvYIZDDLLcaikcw6ozXUwDD5HfFXzX+Tvm3yb+V&#xA;1vf+QvzP0QaTq0l28n6VuLUXFvdRMFVOUgV2ZAR8LAFKHsa4q+m/Ldn5dtNEtYvLkVtFojhp7JLE&#xA;ILYrO5mLRen8HFmct8O2+Ku8vf7wS/8AMZff9RkuKvnawv8AXPM3nvz9p/5b+UdAMKTSaf5lvdfm&#xA;u5bi+5SSI9FWUNGjujbAfy13AAVe3flT5futB8j2OnXmkwaFdxtO0+l2k8lxbxkzPxMTyvK3GRAr&#xA;8eWxY964qnfl7/eCX/mMvv8AqMlxV8zeRfMGg/lD50806L+ZujvG2t30lxY+ZnthdRT27sahmVSx&#xA;Q8uZCKdyQwBGKvpDydF5O/QqXnlGOzTRtRdrtH09UWCSRwFd6RgKG+CjbVqN98VROk/7361/zGJ/&#xA;1B2+KvKNc/Nz8yNY/MzV/I35d6XpTTaDGsmoXmtyTASEhaiKOFo3opkArv47VGKvSPIt354utFZv&#xA;OlhaWGspM6COwkMkDwgKUkUszMKkkUJ7Yqj9J/3v1r/mMT/qDt8VTPFXYqlP/TVf9GP/ADOxVF6T&#xA;/wAcqy/4wRf8QGKvE/yEijP5wfnHKVHqLqluqt3CtLeEj6eIxV7viqQWOojTPIdvqRiecWOlpcmC&#xA;Pd3EVuH4L7txoMVeG/mn+fn5G+cfy71HT2SXUdbubaSPTNOlspBc2946EROJWUxIUkpy4SGo236Y&#xA;q9Q/IHStd0n8n/LVhrsckWpRQSF4Zq+okUk8jwIwbdeMLIOJ+z07Yqy7yx/yjWk/8wdv/wAmlxV8&#xA;sfmRe/8AOPi/pvzB5Q8xah5W892zTlbLT1u4RNfIx/dunDgodxQtHIqitd+mKvov8otT8y6p+Wvl&#xA;/UPMyuut3FqGuzKnpO3xMI3ZKCheMKx274qnnl7/AHgl/wCYy+/6jJcVeJ+Z/wDnJD8ifMfk29tP&#xA;MEM8tzJC6P5fu7J2uFm4kUWTi0KMrdH9QEdeuKp//wA4q6P5g0r8orOHWYpYGnup7ixgn5B1tZCv&#xA;D4W3UM4ZwPevfFXpvl7/AHgl/wCYy+/6jJcVfOX5rSf846XPmHXr/wDT195T8+6fJMlzPpyXUby3&#xA;MewbiiNE/qMOqOpPVj3xV6t/zjvrnm7W/wAq9Lv/ADS00uou0qxXNwpWWa3V6RSPWhao6N+0N9+p&#xA;VZv5e/3gl/5jL7/qMlxV5Xr3/ORn5KzQavofmtZUnspprS70a9sZLj1zE5SqcVkiKvSql2XriqX/&#xA;APOIul6paeTdbvJLaey0PUtTe40K2uCeXocAOag9j8K8h1K4q9k0n/e/Wv8AmMT/AKg7fFXhf5x/&#xA;9C6X3nTUY/MurXXlnztpqRGXVLFLmOVwYEkiYNHHLFIVR1Xs/auwoqyT/nFzzD5t1vyBdS+YLq51&#xA;CC3v5ING1G8VlmntFRCrFmJZxyJ+Ik+FTTFXqGk/7361/wAxif8AUHb4qmeKuxVKf+mq/wCjH/md&#xA;iqL0n/jlWX/GCL/iAxVXjt4I3d441R5DWRlUAsfFiOvXFVTFUs8sf8o1pP8AzB2//JpcVRI0rSxe&#xA;G9FnALw7G59NPVpWv26cvxxVFYqlnlj/AJRrSf8AmDt/+TS4qiZdL0yW6W7ltIZLpPsXDRoZB22c&#xA;jkOmKorFUs8vf7wS/wDMZff9RkuKomTStLlulvJbOCS7T7Nw0aGQfJyOWKorFUs8vf7wS/8AMZff&#xA;9RkuKom50vTLqVJbq0hnlj/u5JY0dl+RYEjFUViqWeXv94Jf+Yy+/wCoyXFXkv50+S/ze85Sap5e&#xA;03SvL0/lu+9BbHVbsyrf2wVY3kJYcgD6ytxKKfhxV6x5V0q80jyxpOlXt2b68sLOC2uL0ihlkhjV&#xA;Gk33+Iiu++KrtJ/3v1r/AJjE/wCoO3xV5f8AnN5Y/N/zQup+X9I0rQL7y1qUUcVte3xkW9tWKr6j&#xA;/wAtQ9WQqpI9+mKvRfIegX/l7yXouhahdi+vNMs4bWa6UEKxiQL8Nd6KBxBO5AxVF6T/AL361/zG&#xA;J/1B2+KpnirsVSn/AKar/ox/5nYqoaVpV+dLsyNZvADBHsEs9vgHjb4qiv0Tf/8AV6vP+As/+yfF&#xA;Xfom/wD+r1ef8BZ/9k+Kpb5a0q+PlzSiNYvFBs7chQlnQful2FbcnFWIedvzW0byp5t03yi97rms&#xA;eYNTVWhsdLg02ZkDtxT1fVSELyoW9lFTQUxV6ANK1AgE6zegnsUsqj7rfFUu8taVfHy5pRGs3ig2&#xA;duQoSzoP3S7b25OKpl+ib/8A6vV5/wABZ/8AZPirv0Tf/wDV6vP+As/+yfFUt0DSr42MtNZvF/0y&#xA;9FAln2vJd97fvirzfzn/AM5B+TvK3mDUdEmv/MGqT6QqnVLnTbbTZre3ZnEfCSR1ioyu6q21OR41&#xA;5bYq9O0Zk1rSrTVtL8xXV1p97Es1rcItnxdHFQf956j3B3HQ4qo6BpV8bGUjWLxf9MvRQJZ9ryUV&#xA;3tz1xVMv0Tf/APV6vP8AgLP/ALJ8Vd+ib/8A6vV5/wABZ/8AZPiqW6BpV8bGWms3i/6ZeigSz7Xk&#xA;u+9v3xVMv0Tf/wDV6vP+As/+yfFXfom//wCr1ef8BZ/9k+KpbpWlXxvtYA1i8FLxASEs9/8AQ7c1&#xA;NbfFUy/RN/8A9Xq8/wCAs/8AsnxV36Jv/wDq9Xn/AAFn/wBk+KpbpWlXxvtYA1i8FLxASEs9/wDQ&#xA;7c1NbfFUy/RN/wD9Xq8/4Cz/AOyfFXfom/8A+r1ef8BZ/wDZPiqXfo68/wAQ+l+lLr1PqnL6xxtu&#xA;dPVpwp6PDj3+zX3xVM7WGafy/DDBcPaTS2ipHdRhGeJmjADqsiuhKncBlI8RirwA61/zleI7vyvb&#xA;rBe6iuqIsPnJBpwjSx3RuVsBxC1AepjLgcl60xV9B6LFcRaTaRXN+dUuY4lS41ArGhmkUUeThCFj&#xA;WrA7KNsVSG68zWnlf8sR5hu0aWDS9KjuWhU0ZykClUBPQs1Frir508l3358ecL+7/M/yn5d0GG4v&#xA;ZJII55VH1iVI6IyK80hNPgEZPJem1Bir6Y8iaj5n1Hynp155psU03zBIjDUbKOvCORJGT4atJsyq&#xA;GHxHr1xVF+WP+Ua0n/mDt/8Ak0uKvMPzG1z82bv8ydK8u+WdRh8r+WkQNqeuXH1GV52ajMsMNz6j&#xA;niKKtEFWJr8IBxV6/CKRIPUMtFH700q232jxCrv7DFUmstRttN8vahqN0SLaym1K4nIFSI4rqZ2o&#xA;PkuKvlbyPN+Z3nqy8y335feU9A07y1qExtNQt7lQ73JA9T05ZZnZpHVZQzN8IqajfFX0P+SOm67p&#xA;nkOGw1zQbfy5qFvcTpJptnX6vTlUSR1knH7ytTxela4qyvy9/vBL/wAxl9/1GS4q8S8769/zkJfe&#xA;Ztek0S+g8naHYWx/QFpfLpzy6nNG4GxnErIZV5la0A+EEVLHFXrH5ba15o1fyfY3XmnTW0vXlX0r&#xA;2HlGySOgH7+IxM68JBvTsajtUqpr5e/3gl/5jL7/AKjJcVfPOkfnN+en5la/rP8AyrWy0610HSXC&#xA;JJegGR1kLCNnZ2ILuIy3FVoo2JPUqvYvyp1X8zb/AEi9j/MPTLfTdYtLkxW7WtDFPBwVllBWSZa8&#xA;iw2I+QxVkmk/7361/wAxif8AUHb4qir7U9NsEV767htEc0Vp5FjBI7AsRiqtDNDNGssMiyxN9l0I&#xA;ZT22IxVL9J/3v1r/AJjE/wCoO3xVM8VdiqU/9NV/0Y/8zsVRek/8cqy/4wRf8QGKvjb8svy7n8/f&#xA;m1590S41e60zy+t7dT6vb2T8JLvjeSLFExIZeALsxqD8u4VfXPkvyfo3k7yzZeW9GEg02w9T0BM/&#xA;qP8AvZWmfk1BX45Diqja6Lp+ueQbfRtSj9Ww1HTI7a5jBoTHLAFah7HfY4q+c9U8ifnb+RVne6x5&#xA;O1mLWfJVvIbi60+4UMUQkAvLA1KdgzwOCepAGKvoH8rPPsPnzyNpvmeO3No94rrPbE8gk0LmOQK3&#xA;deS1U+GKpv5dEh8raYI2CyGxgCMRUBvRWhIxV8S6fonlryvr2rQfnj5Z1q71C7uS0euQSv6ZJrzc&#xA;NyiWYM3xcw7f6viq+yPyyTyqnkPRU8p3LXfl1bfjptw5JdowxBDVVDyVqqQQCCKHFUw0e2gutHur&#xA;a4QSQT3WoRyxt0ZHu5lZT8wcVfOWsfk/+bn5Qy6p5g/LDWhd+W15Xd3o1xRpBFGCx5RuDHLwQH40&#xA;KyEdBir2T8kPzRP5keR012W1Wzvre4ey1CGMkxevGiSFouVW4Mkqmh6dKmlcVZb5e/3gl/5jL7/q&#xA;MlxV8aeZNCsfLv5m+Zb/APOby5q+s6df3Lvp2r2cjrCIzK3FlYNGrL6ZUKnqDhTjx8FX1H+Si+Qk&#xA;/L6yXyJcS3Hl4STND65JmjkeQvJFIGCsCrN37UNSN8VZR5e/3gl/5jL7/qMlxV8/eZPyF/MvyP5i&#xA;1HzV+T+sCKC8JmudAlKhmoS/pIJA0MygseHPiyg0BJ3xV6B/zj7+cV3+ZXlu8l1O0S01rSZUgvvR&#xA;DCGQSAmORFYsyk8WDLU9PegVeg6T/vfrX/MYn/UHb4q+SPzZ8vyaT+c2teYPzN8v6pr/AJOuw36M&#xA;u7CR0jij+ExDmCqj01DKYy6b/Fv3Ve9/84+f8qv/AMG3bfl3LcHSZ7557u0uyxnt7l4YkMZDb8eE&#xA;akHkw6/F4Ks80n/e/Wv+YxP+oO3xVM8VdiqU/wDTVf8ARj/zOxVF6T/xyrL/AIwRf8QGKvK/yi/J&#xA;nXfJXn7zZ5kv761ubXzBJK9tDB6nqIJLlph6nNVX7LU2OKvX8VY2ulT6v+XA0m3u2sJ9Q0f6rDfR&#xA;1LwPPa+msq0KGqFuQow+eKvEdZ/Jb/nJbW9Lk8tat5+sLvy1NRJy4f6zJGpB+Mi2Ej9PstPv44q9&#xA;s/LfyLYeRfJmneWLKZriOyVjJcuKNJLK5kkfjU8QWY0HYYqmflj/AJRrSf8AmDt/+TS4q8L8x/lN&#xA;/wA5L67olx5Y1HzrpGoeX7tVjuZZ4ClyyKwYV4Wx3qo39Svvir2D8tPJEPkbyNpXlaG5a8XTUcNd&#xA;MvD1JJpXmkYLVuI5yGgqdsVTDR4TNo91CGKGS61BA46jldzCo+WKvCL/APJz/nJp9Ln8txfmFZ3f&#xA;lyeNreR7oSC7eBgUZWf6vNLuuxHr4q9W/J78sLP8t/Jsfl+C6a9nkme7v7srwWS4kVUPBKtxUJGq&#xA;jftXvirJfL3+8Ev/ADGX3/UZLirx7zZ+Xf8AzklqX6Y0qx85aTN5a1VrmL0byDjPHaXJYGEMttKT&#xA;xjfjXnX3HZVnf5Nflmv5c+SYfLxvPr9y00l1d3IXghlloCqKSTxVUA3O/XbpirJvL3+8Ev8AzGX3&#xA;/UZLir5j/Mw/nL5D0zX5dK/M6yvNGtpqTaU0sR1WFLmQBIo0lSaROCy1osy/CKgYq9U/5xp/LjSv&#xA;KH5fwahZ3p1C48yxwajPccDGoRo6xRKhJPwBzUncn7sVekaT/vfrX/MYn/UHb4q8H/OTWvzg8rze&#xA;ZtU0bz3o7aNAVmby/cC3bULeOcKojjSSKQtUPyUM4qOg8VWUf84s+RrHy5+WkGp21+b9/MZS/lIT&#xA;01hogT0ACWJaNgwZu56eJVeoaT/vfrX/ADGJ/wBQdviqZ4q7FUp/6ar/AKMf+Z2KqGleYLAaXZgx&#xA;Xm0EY2sbw/sDwixVFf4hsP8AfV5/0g3n/VLFXf4hsP8AfV5/0g3n/VLFUt8ta/Yr5c0pTFeVFnbg&#xA;0srwjaJe4ipiqZf4hsP99Xn/AEg3n/VLFXf4hsP99Xn/AEg3n/VLFUt8ta/Yr5c0pTFeVFnbg0sr&#xA;wjaJe4ixVMv8Q2H++rz/AKQbz/qlirv8Q2H++rz/AKQbz/qliqW6Br9itjKDFef72Xp2srw9byU9&#xA;osVTL/ENh/vq8/6Qbz/qlirv8Q2H++rz/pBvP+qWKpboGv2K2MoMV5/vZenayvD1vJT2ixVMv8Q2&#xA;H++rz/pBvP8Aqlirv8Q2H++rz/pBvP8AqliqW6Br9itjKDFef72Xp2srw9byU9osVYn5i/Kj8l/M&#xA;evTa9rXlu6u9VuGV57gw6sgdkAUco4+MZ2UD7OKs4s9V0aytIbO0tLq3tbdFiggj0+7VEjQcVVVE&#xA;NAABQDFUHpWv2IvtZPpXnxXiEUsrw/8AHnbjf91tirF/Nf5X/k75s1t9c8weXru91SQIslx6OrRc&#xA;hGoVAyRemhooA6YqzHTr/QdMsLfT9Psrm1sbWNYra2i0+7VERRRVVRDsBiqG0rX7EX2sH0rz4rxC&#xA;KWV4f+PO3G9ItumKpl/iGw/31ef9IN5/1SxV3+IbD/fV5/0g3n/VLFUu/TVn/iL6x6d16f1T06fV&#xA;LnnX1a/3fp8+P+VSmKo9dTstK8sJqV9IYrKzs1nuZQrvwjSMMzcUDMQoFTQYqx6P86vytk8uS+ZE&#xA;8w250WG5WykuuMopcMvNY/TKepUrv9npXwOKsn0PW9M13SbXV9LmNxp14nqWs5R4+aEkBgsio1DT&#xA;Y03G42xVT8sf8o1pP/MHb/8AJpcVeEedvNPnjWfzkXSk85WHkzyXY8YpZBqumi6uOBrIRb+s06yS&#xA;MeC81AVRU7/CVX0JZzW01rFLazLcW7KPSnRxIHXpUOCeXzriqC8sf8o1pP8AzB2//JpcVSnzh+aH&#xA;kLybcW1t5l1iLTri8VpLeJ1kdmRTxLUjV6CpoK9cVZJa3MVzbRXMXL0p0WSPmrRtxcchyRwrKaHo&#xA;wqMVQGgEjT5iBUi8vth1P+mTeOKvmXzh5g/O+917zLd3fmyx8kyW4Q+X/K82raUks37wL6bETsEc&#xA;RAszOQC5AG3RV9AflVrnmbWvI+n3nmW2jt9ZVfRuZILi2uoZzGABcRyWsk0dJO612au1KYqnfl7/&#xA;AHgl/wCYy+/6jJcVY/5p/OT8svKurNpGv69BY6kiLI9sUlkZVcVXl6aOASN6Hem/fFWVabqNjqen&#xA;22o2E6XNjdxpPbXEZqjxyDkrKfAg4qhfL3+8Ev8AzGX3/UZLiqH1nzv5L0O4FtrWv6bplyRUQ3l3&#xA;BbuQd68ZHU4qmGm6tpWqWwutMvYL62JoJ7aVJo6jtyQsMVQ+k/7361/zGJ/1B2+KpnirsVSzSf8A&#xA;e/Wv+YxP+oO3xVM8VdiqU/8ATVf9GP8AzOxVFaWqtpForAMrW8YZTuCCg2OKvhePUf8AnH6fVdYu&#xA;9T03XtOt4LsXFvoFpe28trcyiVh6Kx/Vo2jjVSwqZeQU0U1xV9lfll5ui82eTbLWoNKl0W3kLxQa&#xA;dMAGSOFzGmwVQAVWoAHTFUi/MGTXo/yG1F9B5jVF0WMxGKvqBPST1inHfkIuVKb1xV8rfkl5Z/Ib&#xA;zFplzY+e9WuNM8xy3BW0kaYW1uYCq8SsrI8XPnyr6h8KYq+y/wAuPJen+SvJun+WtOupLyxsTO1v&#xA;cy8ebJcXElwORQBTT1aVA364qjtAnht/Kem3E7iOGGwhklkbYKqwqWJ+QGKvk2//ADI8keZvzVuP&#xA;PFh5O8w+cJ7BkW2ieSJrOIICsLC1itZHQAqXQPIfiqSK4q+q/I3mkea/Kmn+YPqUunG+V2NlP/ex&#xA;FJGjKtsO6eGKoPUG1hfIXmBtEBOsqmsHTAoq31oTXHo0Hj6lMVfFf5L6R+TOt3mp2v5m6ldWGpzS&#xA;J9QuHlaKEluXqmSXi/GTlQ1kouKvsr8pvy+0HyL5WbSdBv5NR0q6uXvra5laORisyIABJEFRx8FQ&#xA;wGKsh8vf7wS/8xl9/wBRkuKvjrUta/K6fzh5vt9L8ueYvP17qqTW9/qss8LSITMC1xaRwWjenxkR&#xA;fTdxsABxA2Kr6F/5xvtbG2/LeOKwi1a0tEup0j03WnikntmUjmiGOC2ojMS1GXqTirPdE9X9FXPo&#xA;8TN9av8A0w1ePL63NStO1cVfCX5b2n5eap541mH84729tL2V2HruXQfXfUInFyyqzo1emwUb17Yq&#xA;+wPyb/LTyh5I0q+fynqkmq6NrMsd1BM8kU6gKnH4JoQqup7bffirMNJ/3v1r/mMT/qDt8VeQ+cP+&#xA;cpNL0jzleeVNA8tX3mW/053hvGtW40liNJVjRUmdhG1VYkDcfTirO/yr/Mefz3pF5e3OhXXl+4sr&#xA;n6tLZXleZPBXDCqRmlH/AJcVZHpP+9+tf8xif9QdviqZ4q7FUp/6ar/ox/5nYqi9J/45Vl/xgi/4&#xA;gMVfH3/OJOjaZf8A5va5dXluk82nWs89kzjl6crXKJ6ig/tBWIB7VxV9mYqxeXzFa+Wvy2TX7uJ5&#xA;rbS9KjupooqeoyRQKzBeRArTpU4q+U/zr13/AJxp8x+WbnWfKayWfnSZ43jtre3nt0YtIvq/WEZR&#xA;bfY5GsZ5FvHFXu3/ADipLrUn5M6WdULlFmuE05pCSxtFkon2v2Q/ML/k0ptir0PSEtX8l2SXa87V&#xA;tNiFwn80ZgHMbeK4q+Ktb/wx5Jt7vzH+U/5mzKk8sf8AuB9O5trpl5/Cr8gI5hEGJrIgFK9Sd1X1&#xA;n+RvnHXPOH5YaNr+uKP0nciZJ5VQRrL6MzxLKEAAHIJvTatabYqyGyvksPL2oX7qXS0m1KdkGxYR&#xA;3UzkD50xV8t/mx5x/wCcYvOvlfUdcs45tP8AO8sTSWscVtNBNJcncfWOAa0cM322LFqdDir0L/nD&#xA;GXWn/LS/W8LnTo9SkGlmQk0UxoZRHX9j1PD9rlir2vy9/vBL/wAxl9/1GS4q+M/Odh5E8uanrfmf&#xA;8s/zGl0jUY5JBN5eMd1bzl/U+OCOZQBKnMHiGUqNqt3xV9E/841efvM3nb8t/wBJ+Y29a/tb2ayW&#xA;84CMzxxpG6yEKFWoMhQlR+z41xV6H5e/3gl/5jL7/qMlxV80fmL5/wD+cX/Pmk6hf61BPpvm2OKS&#xA;OJ4raZLtp0BVayQBreUchsZW6eGKoz/nCCXWm0nzTHKXOipPam05E8BclZPXEfavD0+f+xxV9F6T&#xA;/vfrX/MYn/UHb4q+TfzU0X8u7Lz35j8y+T/zCfyx5ttZ7l9R0p47qJmu+RMywXMQXaZ/2aMDXsNs&#xA;Veq/84qfmT5v86+VtVXzLMb2XSriOG21FlCvIkiFijlQqs0fEfF1+LfFXruk/wC9+tf8xif9Qdvi&#xA;qZ4q7FUp/wCmq/6Mf+Z2KovSf+OVZf8AGCL/AIgMVSzQPIfkvy9ezX2h6LZ6beXKlJ7i2hSN3UsG&#xA;IZlG45CuKp9iqUaBbwXHlTTbe4jWaCWxgSWKRQyMrQqCrKaggjtirHf+VG/lB9b+tf4R0z1eXLj6&#xA;C+nX/jF/d09uNMVZrBBBbwpBBGsUMShI4kAVVVRQKqjYAYql/lpVbyzpSsAytZW4ZTuCDEuxxVjM&#xA;n5GflBJdfWW8o6aJC3LisCrHX/jGtI6e3GmKs1tra3tbeK2tokgt4VEcMMahERFFFVVWgAA6AYqg&#xA;NAVW06ZWAZWvL8Mp3BBvJtjirG7r8kPyjurtrubynppnZubcYFRCa1qUTinz2xVmFjYWOn2cVlYW&#xA;0VpZwLwgtoEWKJFH7KIgCqPkMVQnl7/eCX/mMvv+oyXFWOah+Sn5Taheve3flXTnuZWLyOsIjDMT&#xA;UsypxUkk7mm+Kst03TdO0yxhsNNtYrKxt14QWsCLHEi9aKigAYqhfL3+8Ev/ADGX3/UZLir5m/PT&#xA;yL5l1rW9X0bQfyrgaS4nifTvNliBCzL8DymVVKxFnYspZyPH3xV9Dflr5fuvL3kPQ9Ivba2tb+1s&#xA;4UvorNEji9fgPUNEAUsW+0w6mpxVM9J/3v1r/mMT/qDt8VfOf/OQXkzX9X1zVtM0P8sIL6S/9CSz&#xA;822Y9Of1WCyTNLworMWVkrIR9OKvbvyh8taj5a/LfQdH1O1t7PU7a2UX0NqqKnq+Len8LScaeo37&#xA;TVNcVT7Sf979a/5jE/6g7fFUzxV2KpT/ANNV/wBGP/M7FVDSoPMf6Ls6X1mB6EdAbOU/sD/l5xVF&#xA;fV/Mv/LfZ/8ASHL/ANlWKu+r+Zf+W+z/AOkOX/sqxVLfLUHmP/Dmlcb6zC/U7fiDaSkgekvU/WRi&#xA;rGvN35xeV/KOtLofmDzRY2uquiSC0j0u/uX4yEhK/V5ZQGamyk16Gm4xVmkK+YpoY5kvrUJIodQ9&#xA;jOjAMKjkj3Ksp8QRUYqgPLUHmP8Aw5pXG+swv1O3oDaSk09Je/1kYqmX1fzL/wAt9n/0hy/9lWKu&#xA;+r+Zf+W+z/6Q5f8AsqxVLdAg8x/UZeN9ZgfXL3raSnf65LX/AI+R3xVhvmH8/PIfl7WbrRdW84WE&#xA;GpWT+ndQppWoThHoCVLwySJUVoQG2Ox3xVnGkX+pazpdrqumavYXWn3sSz2twlnNxeNxUHe5BHyO&#xA;474qo6BB5j+oy8b6zA+uXvW0lO/1yWv/AB8jviqZfV/Mv/LfZ/8ASHL/ANlWKu+r+Zf+W+z/AOkO&#xA;X/sqxVLdAg8x/UZeN9ZgfXL3raSnf65LX/j5HfFUy+r+Zf8Alvs/+kOX/sqxV31fzL/y32f/AEhy&#xA;/wDZViqW6VB5j+vaxS+swfricq2kpqfqdv0/0nwxVMvq/mX/AJb7P/pDl/7KsVd9X8y/8t9n/wBI&#xA;cv8A2VYqlulQeY/r2sUvrMH64nKtpKan6nb9P9J8MVTL6v5l/wCW+z/6Q5f+yrFXfV/Mv/LfZ/8A&#xA;SHL/ANlWKpd6Ouf4h4/W7X6z9Ur6n1aThw9X7PD168q9+X0YqiblNbfygV0KWGHWPqSmwe5QvD6w&#xA;jBQSKpU8WOxoduuKvmxv+ck/zug0m60u48qN/i6PUFhjdbG4NuIAGSSMoHJMglUUIahBPhir6W8p&#xA;DzN/hywbzO8Da88QfUBaoUhSRvi9NAWcngDxrXelcVS2bzRpPlX8tofMOrOyafp2nQSzcBV2/doq&#xA;ogJFWdmCrv1OKvj5fzg0Gb8xbvz/AKf5Em1O9jnNy899eTXIjZhxjfikXpxFFWkY340FOlcVfXH5&#xA;SfmPH+YfkyDzIlgdNMkssD2pkE1GiNCQ/GOoP+qMVZB5Y/5RrSf+YO3/AOTS4q8Z8/8A5t/mvL+a&#xA;kXkr8vNIimt4wkN3qV/bSmD16F5XEoaNRHElAe5YECu1VXuVjHdx2cEd5MtxdrGouJ0T0keQD4mV&#xA;OT8QT0HI08cVSaLUrLTPK+qajfzm1srOTU57m5XrHHHczs7jY7qBUbYq+In86/l89xrlt5d8hXWq&#xA;WmpoBe3l/ezT3vpJMs5lUxRkQM0iKWPJvn1xV9L/APOK/mHQ9W/L65g0bT7nS7PT714fqdzdm9Cu&#xA;6JIxicpEyoxavCmxr44q9S0AhdPmJNALy+JJ6AfXJsVfPXmL8+fzp1PzD5hPkXy/G3lzQ4WnSW9s&#xA;7gzTQxOsbyJVo+RYsXVAK8B4jFXr35N/mJd+ePJ0OoanZPp2uWzehqlo8UkS+qBUSRCTf05F3HWh&#xA;qO2Ksm0OWOLS7iWVgkcd3fs7saAKLyYkk+2KvnXXv+czbmbWJrHyd5WbUreJm9O5nkf1JUWtXEES&#xA;EovcVbp1AxV6X+Rf53v+Z8WspNox0e70VrdZl9b1lf6z6tKVSJlK+gag1xV6DpP+9+tf8xif9Qdv&#xA;iqZ4q7FUs0n/AHv1r/mMT/qDt8VTPFXYqlP/AE1X/Rj/AMzsVRek/wDHKsv+MEX/ABAYq+Evyu87&#xA;fn55n16Xy55a8yX91f6jAVlnv7uaZLaBGVnmVpmlEXZeary3ou5xV9kflT5W81eWPKEWl+aNafXt&#xA;XWaSSTUJJZpyVcgqnOclyFxVB+avJI87/k63lf1xbSajp1qIZyCVWaERzxFqb8fUjXlTtir5S0Hz&#xA;F+d/5BXNzZ3OkBNIuZw0y3UJlsp5AOPKG6iK0YoOnP5rir6z/KDz9onnvyZF5g0qyXTjNNJHf2S8&#xA;f3d0tDJVlCh+QZWDUqQRXFU1trjULb8vornTYfrGowaSsllb0r6kyW1Y0oKV5OAMVfCOl+f/ADNr&#xA;+uXT+bvzB1jQmerLcxi5uIhJyoYzDBNCYlFSRwQ+FBir7c/J2C6g/LfRkudfHmiUrM410SSTfWEe&#xA;4keOrykyVRGEZDbqVp2xVFXvl6DzJ5H1vy/PIYYtVOqWjTKKlPWuZ0Dgd+JNaYq+PrGD88P+cftY&#xA;1C4h04NpdyY0urtoDc6dcLEzCFjMnF4j+8agLI2+4xV9Rfkb+aWkfmN5butXttPTTNVhnEWsW0dC&#xA;Gl4DhKHAUsrqKDluKU7VxVmvl7/eCX/mMvv+oyXFXwXffmN551vztfJ5z84at5b/AHkySraieSO1&#xA;lQkCAWsU0HBARxJWp7kHrir6+/5x/hnj/L5GfzV/jCGW6le11ZnmZxDxRVhdbgtJGyFT8B6VxVl+&#xA;m2cN9oV7ZT19G6uNRhl4mh4yXUytQ/I4q+M7jyf+dH5C+abzWtGtDd6YI3ibVY4PrNpNacw9LgLV&#xA;oDVFJqVNejEdVX0V+QP5z2H5l2epSz6bDpvmWxEA1P0N0njbmIpEY/HRSGHBieNeu+KvSdJ/3v1r&#xA;/mMT/qDt8VfEX5mfmL57vfzb1jTfMfmbVPLul2l/PbRx2XqlLe3jZlhZLaOW3EnNQpL8qsDy32GK&#xA;vpD/AJxqik/wvqE6+dG86WU1wn1a4la4EtsVT44XiuWZ4tzyp0PXFXpuk/7361/zGJ/1B2+Kpnir&#xA;sVSn/pqv+jH/AJnYqi9J/wCOVZf8YIv+IDFXzj/zjN+SP5ieRPPl/q/mWwjtbGfS5bSORLiGYmV7&#xA;i3kA4xsx+zE2+KvpnFWFa7o2u61+Up0zQLr6lrVzpcC6fdeo8PpzLGjK3qRgsv2eoxV84eZvy9/5&#xA;y/8AM+kL5Z15Tf6KJEJL3OlqGMZqrvIjLcOAd/ir8sVfQH5Efllc/l15Bj0S9njn1K4uJL7UHhqY&#xA;hNKqJwQsASFSJRWnXFWRW8Wpy/l9FFpMgi1STSVWwlNAFuDbUiY1BGz07Yq+UPO35Qf85J+b3Rdb&#xA;8r6bPeLJzl1m2/RNtczmlKzSxSRu436ccVfSn5H+QNR8h/l1p/l/U50n1BHlnufSJaJHmct6aEgV&#xA;CilT41xVOXsLzUfJ2s6fZSiC8vDq1vbTEsoSWWedEYsoLDixBqN8VfMmu+Rf+cxtR0S48qX8j6no&#xA;c4EUztdaaxlQMG3nlZLsiq71NTir2X/nHP8AKDU/y38r3sWsSxSaxq0yTXMcDFo4kjTjHHyIHJhy&#xA;YsRtv9OKvR/L3+8Ev/MZff8AUZLir5J87/lZ/wA5OeabdrPXfLum6tcKy/7nIxpMN46psq+uHgl4&#xA;7d1xV7r/AM45/lfrf5eeRptO1yVG1K/vHvZreFuccIaNI1Tl0ZqR1Yjbt2rir0Hy9/vBL/zGX3/U&#xA;ZLir448/Tf8AOTPkPype6Vrmu/WfK0ldMmukns7pnE6MPSDyj68tYwewoMVeu/8AOJ/5T3nlXQbn&#xA;zTf3UE83mO3t3sY7di6x2tDIC7UHxuXFV/Zp41oq9q0n/e/Wv+YxP+oO3xV8i/n5ZfnRDb67c+aL&#xA;DS7/AMuxXZhstYaPTnvbaCaYtbxRuvC6WqEfsk0398Veo/8AOIX5fah5d8mXvmC7uopk80fV5rSC&#xA;FuYjhtxIAXNABIzSsGXtxHfYKvadJ/3v1r/mMT/qDt8VTPFXYqlP/TVf9GP/ADOxVvStV0saXZg3&#xA;kAIgjqPUT+Qe+Kor9LaV/wAtsH/I1P64q79LaV/y2wf8jU/riqW+WtV0seXNKBvIARZ24IMif76X&#xA;3xVMv0tpX/LbB/yNT+uKu/S2lf8ALbB/yNT+uKpb5Z1XSx5c0oG8gBFnbggyJ/vpffFUy/S2lf8A&#xA;LbB/yNT+uKu/S2lf8tsH/I1P64qlvl/VdLFhKDeQD/TL47yJ3vJT44qmX6W0r/ltg/5Gp/XFXfpb&#xA;Sv8Altg/5Gp/XFUt8v6rpYsJQbyAH65fHeRO95KfHFUy/S2lf8tsH/I1P64q79LaV/y2wf8AI1P6&#xA;4qlvl/VdLFhKDeQD/TL47yJ3vJT44q8s87/843/lf5w833fmfUddvIbm/dZLu2gubUREpGsYCcom&#xA;ZRRN6k/Rir1bQIPK+gaLZaLpU9vb6dp8KW9rF6qtREFBViSST1JPU4qs0rVdLF/rJN5AAbxCP3ib&#xA;/wCh248cVeZ/mJ/zj3+WnnvzZN5l1TXbu3u7lY0uIba4tREVhjEa8OcTspou9ScVek+VtP8AKXlf&#xA;y/Y6Bo08EGm6fH6VvGZlY7kszMxO7MzFifE4qv0rVdLF/rJN5AAbxCP3ib/6HbjxxVMv0tpX/LbB&#xA;/wAjU/rirv0tpX/LbB/yNT+uKpZ+kdP/AMS+t9Zi9L6nw9TmvHl6teNa0rTFX//Z</xapGImg:image>
    </rdf:li>
   </rdf:Alt>
  </xap:Thumbnails>
 </rdf:Description>

 <rdf:Description rdf:about='uuid:26de5aa0-6218-11de-9013-001124740a56'
  xmlns:xapMM='http://ns.adobe.com/xap/1.0/mm/'>
  <xapMM:DocumentID>uuid:831aaf18-81ce-11da-9137-001124808cba</xapMM:DocumentID>
 </rdf:Description>

 <rdf:Description rdf:about='uuid:26de5aa0-6218-11de-9013-001124740a56'
  xmlns:dc='http://purl.org/dc/elements/1.1/'>
  <dc:format>image/svg+xml</dc:format>
 </rdf:Description>

</rdf:RDF>
</x:xmpmeta>
                                                                                                                                                                                                                                                                                                                                                                                                                                                                                                                                                                                                                                                                                                                                                                                                                                                                                                                                                                                                                                                                                                                                                                                                                                                                                                                                                                                                                                                                                                                                                                                                                                                                                                                                                                                                                                                                                                                                                                                                                                                                                                                                <?xpacket end='w'?>
			</metadata>
		<g id="レイヤー1">
			<g>
				<rect x="0.125" y="0.125" fill="none" stroke="#000000" stroke-width="0.25" width="100" height="150"/> 
				<rect x="100.125" y="0.125" fill="none" stroke="#000000" stroke-width="0.25" width="100" height="150"/> 
				<rect x="200.125" y="0.125" fill="none" stroke="#000000" stroke-width="0.25" width="100" height="150"/> 
				<rect x="300.125" y="0.125" fill="none" stroke="#000000" stroke-width="0.25" width="100" height="150"/> 
				<rect x="400.125" y="0.125" fill="none" stroke="#000000" stroke-width="0.25" width="100" height="150"/> 
				<rect x="500.125" y="0.125" fill="none" stroke="#000000" stroke-width="0.25" width="100" height="150"/> 
				<rect x="600.125" y="0.125" fill="none" stroke="#000000" stroke-width="0.25" width="100" height="150"/> 
				<rect x="0.125" y="150.125" fill="none" stroke="#000000" stroke-width="0.25" width="100" height="150"/> 
				<rect x="100.125" y="150.125" fill="none" stroke="#000000" stroke-width="0.25" width="100" height="150"/> 
				<rect x="200.125" y="150.125" fill="none" stroke="#000000" stroke-width="0.25" width="100" height="150"/> 
				<rect x="300.125" y="150.125" fill="none" stroke="#000000" stroke-width="0.25" width="100" height="150"/> 
				<rect x="400.125" y="150.125" fill="none" stroke="#000000" stroke-width="0.25" width="100" height="150"/> 
				<rect x="500.125" y="150.125" fill="none" stroke="#000000" stroke-width="0.25" width="100" height="150"/> 
				<rect x="600.125" y="150.125" fill="none" stroke="#000000" stroke-width="0.25" width="100" height="150"/> 
				<rect x="0.125" y="300.125" fill="none" stroke="#000000" stroke-width="0.25" width="100" height="150"/> 
				<rect x="100.125" y="300.125" fill="none" stroke="#000000" stroke-width="0.25" width="100" height="150"/> 
				<rect x="200.125" y="300.125" fill="none" stroke="#000000" stroke-width="0.25" width="100" height="150"/> 
				<rect x="300.125" y="300.125" fill="none" stroke="#000000" stroke-width="0.25" width="100" height="150"/> 
				<rect x="400.125" y="300.125" fill="none" stroke="#000000" stroke-width="0.25" width="100" height="150"/> 
				<rect x="500.125" y="300.125" fill="none" stroke="#000000" stroke-width="0.25" width="100" height="150"/> 
				<rect x="600.125" y="300.125" fill="none" stroke="#000000" stroke-width="0.25" width="100" height="150"/> 
				<rect x="0.125" y="450.125" fill="none" stroke="#000000" stroke-width="0.25" width="100" height="150"/> 
				<rect x="100.125" y="450.125" fill="none" stroke="#000000" stroke-width="0.25" width="100" height="150"/> 
				<rect x="200.125" y="450.125" fill="none" stroke="#000000" stroke-width="0.25" width="100" height="150"/> 
				<rect x="300.125" y="450.125" fill="none" stroke="#000000" stroke-width="0.25" width="100" height="150"/> 
				<rect x="400.125" y="450.125" fill="none" stroke="#000000" stroke-width="0.25" width="100" height="150"/> 
				<rect x="500.125" y="450.125" fill="none" stroke="#000000" stroke-width="0.25" width="100" height="150"/> 
				<rect x="600.125" y="450.125" fill="none" stroke="#000000" stroke-width="0.25" width="100" height="150"/> 
				<rect x="0.125" y="600.125" fill="none" stroke="#000000" stroke-width="0.25" width="100" height="150"/> 
				<rect x="100.125" y="600.125" fill="none" stroke="#000000" stroke-width="0.25" width="100" height="150"/> 
				<rect x="200.125" y="600.125" fill="none" stroke="#000000" stroke-width="0.25" width="100" height="150"/> 
				<rect x="300.125" y="600.125" fill="none" stroke="#000000" stroke-width="0.25" width="100" height="150"/> 
				<rect x="400.125" y="600.125" fill="none" stroke="#000000" stroke-width="0.25" width="100" height="150"/> 
				<rect x="500.125" y="600.125" fill="none" stroke="#000000" stroke-width="0.25" width="100" height="150"/> 
				<rect x="600.125" y="600.125" fill="none" stroke="#000000" stroke-width="0.25" width="100" height="150"/> 
				<rect x="0.125" y="750.125" fill="none" stroke="#000000" stroke-width="0.25" width="100" height="150"/> 
				<rect x="100.125" y="750.125" fill="none" stroke="#000000" stroke-width="0.25" width="100" height="150"/> 
				<rect x="200.125" y="750.125" fill="none" stroke="#000000" stroke-width="0.25" width="100" height="150"/> 
				<rect x="300.125" y="750.125" fill="none" stroke="#000000" stroke-width="0.25" width="100" height="150"/> 
				<rect x="400.125" y="750.125" fill="none" stroke="#000000" stroke-width="0.25" width="100" height="150"/> 
				<rect x="500.125" y="750.125" fill="none" stroke="#000000" stroke-width="0.25" width="100" height="150"/> 
				<rect x="600.125" y="750.125" fill="none" stroke="#000000" stroke-width="0.25" width="100" height="150"/> 
				<rect x="0.125" y="900.125" fill="none" stroke="#000000" stroke-width="0.25" width="100" height="150"/> 
				<rect x="100.125" y="900.125" fill="none" stroke="#000000" stroke-width="0.25" width="100" height="150"/> 
				<rect x="200.125" y="900.125" fill="none" stroke="#000000" stroke-width="0.25" width="100" height="150"/> 
				<rect x="300.125" y="900.125" fill="none" stroke="#000000" stroke-width="0.25" width="100" height="150"/> 
				<rect x="400.125" y="900.125" fill="none" stroke="#000000" stroke-width="0.25" width="100" height="150"/> 
				<rect x="500.125" y="900.125" fill="none" stroke="#000000" stroke-width="0.25" width="100" height="150"/> 
				<rect x="600.125" y="900.125" fill="none" stroke="#000000" stroke-width="0.25" width="100" height="150"/> 
				<rect x="700.125" y="0.125" fill="none" stroke="#000000" stroke-width="0.25" width="100" height="150"/> 
				<rect x="700.125" y="150.125" fill="none" stroke="#000000" stroke-width="0.25" width="100" height="150"/> 
				<rect x="700.125" y="300.125" fill="none" stroke="#000000" stroke-width="0.25" width="100" height="150"/> 
				<rect x="700.125" y="450.125" fill="none" stroke="#000000" stroke-width="0.25" width="100" height="150"/> 
				<rect x="700.125" y="600.125" fill="none" stroke="#000000" stroke-width="0.25" width="100" height="150"/> 
				<rect x="700.125" y="750.125" fill="none" stroke="#000000" stroke-width="0.25" width="100" height="150"/> 
				<rect x="700.125" y="900.125" fill="none" stroke="#000000" stroke-width="0.25" width="100" height="150"/> 
			</g>
			<g>
				<polygon points="151.125,929.125 167.125,911.125 145.125,911.125 135.125,929.125 "/>
				<polygon points="146.7915039,761.4580078 136.4580078,779.125 150.4580078,779.125 166.1245117,761.4580078 "/>
				<polygon points="148.4584961,611.7919922 137.7919922,629.125 149.7915039,629.125 165.125,611.7919922 "/>
				<polygon points="150.125,462.125 139.125,479.125 149.125,479.125 164.125,462.125 "/>
				<polygon points="162.5195312,312.4580078 152.3535156,312.4580078 141.0170898,329.1245117 148.5166016,329.1245117 "/>
				<polygon points="160.9155273,162.7915039 154.5820312,162.7915039 142.9101562,179.125 147.9086914,179.125 "/>
				<polygon points="147.3007812,29.125 159.3105469,13.125 156.8105469,13.125 144.8027344,29.125 "/>
			</g>
			<g>
				<polygon points="251.125,949.125 267.125,931.125 245.125,931.125 235.125,949.125 "/>
				<polygon points="246.7910156,781.4580078 236.4580078,799.125 250.4580078,799.125 266.125,781.4580078 "/>
				<polygon points="248.4584961,631.7919922 237.7915039,649.125 249.7915039,649.125 265.125,631.7919922 "/>
				<polygon points="250.125,482.125 239.125,499.125 249.125,499.125 264.125,482.125 "/>
				<polygon points="262.5200195,332.4580078 252.3530273,332.4580078 241.0170898,349.125 248.5166016,349.125 "/>
				<polygon points="260.9155273,182.7915039 254.5820312,182.7915039 242.9101562,199.125 247.9091797,199.125 "/>
				<polygon points="247.3007812,49.125 259.3105469,33.125 256.8105469,33.125 244.8027344,49.125 "/>
			</g>
			<g>
				<polygon points="50.2246094,942.625 56.125,931.125 74.125,931.125 62.125,949.125 38.125,949.125 26.125,931.125 
					44.125,931.125 50.0253906,942.625 "/>
				<polygon points="50.2241211,793.2910156 56.8745117,781.4580078 72.9580078,781.4580078 60.6245117,799.125 39.6245117,799.125 
					27.2910156,781.4580078 43.3745117,781.4580078 50.0249023,793.2910156 "/>
				<polygon points="50.2246094,643.9580078 57.625,631.7919922 71.7915039,631.7919922 59.125,649.125 41.125,649.125 
					28.4584961,631.7919922 42.625,631.7919922 50.0253906,643.9580078 "/>
				<polygon points="50.2246094,494.625 58.375,482.125 70.625,482.125 57.625,499.125 42.625,499.125 29.625,482.125 
					41.875,482.125 50.0253906,494.625 "/>
				<polygon points="69.2915039,332.4580078 55.6245117,349.125 44.6245117,349.125 30.9580078,332.4580078 40.0380859,332.4580078 
					50.0249023,345.6689453 50.2246094,345.6689453 60.2109375,332.4580078 "/>
				<polygon points="67.9584961,182.7915039 53.625,199.125 46.625,199.125 32.2915039,182.7915039 38.2016602,182.7915039 
					50.0253906,196.7128906 50.2250977,196.7128906 62.0483398,182.7915039 "/>
				<polygon points="33.625,33.125 36.3652344,33.125 50.0253906,47.7568359 50.2255859,47.7568359 63.8847656,33.125 
					66.625,33.125 51.625,49.125 48.625,49.125 "/>
			</g>
			<g>
				<polygon points="450.0253906,937.625 444.125,949.125 426.125,949.125 438.125,931.125 462.125,931.125 474.125,949.125 
					456.125,949.125 450.2246094,937.625 "/>
				<polygon points="450.0253906,787.2910156 443.375,799.125 427.2919922,799.125 439.625,781.4580078 460.625,781.4580078 
					472.9580078,799.125 456.875,799.125 450.2246094,787.2910156 "/>
				<polygon points="450.0253906,636.9580078 442.625,649.125 428.4580078,649.125 441.125,631.7919922 459.125,631.7919922 
					471.7919922,649.125 457.625,649.125 450.2246094,636.9580078 "/>
				<polygon points="450.0253906,486.625 441.875,499.125 429.625,499.125 442.625,482.125 457.625,482.125 470.625,499.125 
					458.375,499.125 450.2246094,486.625 "/>
				<polygon points="469.2910156,349.125 460.2119141,349.125 450.2246094,335.9140625 450.0253906,335.9140625 
					440.0380859,349.125 430.9580078,349.125 444.625,332.4580078 455.625,332.4580078 "/>
				<polygon points="467.9580078,199.125 462.0478516,199.125 450.2246094,185.2036133 450.0244141,185.2036133 
					438.2021484,199.125 432.2919922,199.125 446.625,182.7915039 453.625,182.7915039 "/>
				<polygon points="466.625,49.125 463.8847656,49.125 450.2246094,34.4931641 450.0244141,34.4931641 436.3652344,49.125 
					433.625,49.125 448.625,33.125 451.625,33.125 "/>
			</g>
			<g>
				<polygon points="350.0253906,917.625 344.125,929.125 326.125,929.125 338.125,911.125 362.125,911.125 374.125,929.125 
					356.125,929.125 350.2246094,917.625 "/>
				<polygon points="350.0249023,767.2919922 343.3745117,779.125 327.2910156,779.125 339.6245117,761.4580078 
					360.625,761.4580078 372.9580078,779.125 356.875,779.125 350.2241211,767.2919922 "/>
				<polygon points="350.0253906,616.9580078 342.625,629.125 328.4584961,629.125 341.125,611.7919922 359.125,611.7919922 
					371.7919922,629.125 357.625,629.125 350.2246094,616.9580078 "/>
				<polygon points="350.0253906,466.625 341.875,479.125 329.625,479.125 342.625,462.125 357.625,462.125 370.625,479.125 
					358.375,479.125 350.2246094,466.625 "/>
				<polygon points="369.2919922,329.1245117 360.2109375,329.1245117 350.2241211,315.9140625 350.0244141,315.9140625 
					340.0380859,329.1245117 330.9580078,329.1245117 344.6245117,312.4580078 355.625,312.4580078 "/>
				<polygon points="367.9580078,179.125 362.0478516,179.125 350.2246094,165.2036133 350.0249023,165.2036133 
					338.2016602,179.125 332.2915039,179.125 346.625,162.7915039 353.625,162.7915039 "/>
				<polygon points="366.625,29.125 363.8847656,29.125 350.2246094,14.4931641 350.0244141,14.4931641 336.3652344,29.125 
					333.625,29.125 348.625,13.125 351.625,13.125 "/>
			</g>
			<g>
				<path d="M173.625,954.4248047V938.125c-6.2539062-2.6748047-13.4775391-4-22.5-4c-18.2558594,0-27.5,8.3388672-27.5,21
					c0,11.8349609,6.90625,19.8720703,25,25.5c5.078125,1.5791016,6.5,3.3974609,6.5,7c0,3.6767578-3.0488281,6-9,6
					c-6.5546875,0-14.2626953-2.3164062-20.5-6.5v16.5c5.78125,3.5224609,13.5,5.5,21.5,5.5c19.546875,0,28.5-7.3740234,28.5-22
					c0-12.3730469-5.9326172-19.4111328-25-25c-4.7207031-1.3837891-6.7001953-3.8115234-6.7001953-7
					c0-3.5966797,2.2177734-5.7001953,8.2001953-5.7001953C158.390625,949.4248047,166.831543,951.2929688,173.625,954.4248047z"/>
				<path d="M172.1245117,802.4248047V788.125c-6.5107422-2.7578125-13.2133789-4-22-4
					c-16.5644531,0-25.3334961,8.0205078-25.3334961,20.3330078c0,11.2109375,6.6005859,18.9658203,23.8339844,24.5
					c6.4438477,2.1464844,8.4995117,4.6591797,8.4995117,9c0,4.9570312-3.7006836,7.8330078-10.8334961,7.8330078
					c-6.5415039,0-13.3378906-2.0546875-19.6665039-6.3330078v14.5c6.0600586,3.4853516,12.7910156,5.1669922,20.6669922,5.1669922
					c18.4331055,0,27.1665039-7.2939453,27.1665039-21.5c0-11.8232422-5.7373047-18.7460938-24.5-24.5
					c-5.5336914-1.765625-8.0336914-4.8701172-8.0336914-8.6669922c0-4.5175781,2.8022461-7.2001953,9.2001953-7.2001953
					C157.5913086,797.2578125,165.300293,799.0546875,172.1245117,802.4248047z"/>
				<path d="M170.625,650.4248047V638.125c-6.7675781-2.8398438-12.9492188-4-21.5-4
					c-14.8735352,0-23.1665039,7.7021484-23.1665039,19.6669922c0,10.5869141,6.2944336,18.0595703,22.6665039,23.5
					c7.8100586,2.7128906,10.5,5.9208984,10.5,11c0,6.2373047-4.3535156,9.6660156-12.6665039,9.6660156
					c-6.5288086,0-12.4140625-1.7939453-18.8334961-6.1660156v12.5c6.3383789,3.4482422,12.081543,4.8330078,19.8334961,4.8330078
					c17.3188477,0,25.8334961-7.2138672,25.8334961-21c0-11.2724609-5.5429688-18.0800781-24.0004883-24
					c-6.3466797-2.1464844-9.3666992-5.9277344-9.3666992-10.3330078c0-5.4394531,3.387207-8.7001953,10.2001953-8.7001953
					C156.7929688,645.0917969,163.7695312,646.8173828,170.625,650.4248047z"/>
				<path d="M149.125,492.9248047c6.8691406,0,13.1132812,1.6542969,20,5.5V488.125c-7.0244141-2.9228516-12.6855469-4-21-4
					c-13.1826172,0-21,7.3837891-21,19c0,9.9638672,5.9882812,17.1533203,21.5,22.5c9.1757812,3.2802734,12.5,7.1835938,12.5,13
					c0,7.5185547-5.0058594,11.5-14.5,11.5c-6.515625,0-11.4892578-1.5332031-18-6v10.5c6.6171875,3.4111328,11.3725586,4.5,19,4.5
					c16.2050781,0,24.5-7.1337891,24.5-20.5c0-10.7216797-5.3476562-17.4150391-23.5-23.5
					c-7.1601562-2.5283203-10.7001953-6.9853516-10.7001953-12
					C137.9248047,496.7646484,141.8964844,492.9248047,149.125,492.9248047z"/>
				<path d="M147.7915039,402.4580078c-6.831543,0-12.1337891-1.6367188-18.3334961-5.9897461v7.8232422
					c6.293457,3.5292969,11.4458008,4.8334961,19,4.8334961c15.2099609,0,23.1665039-7.0053711,23.1665039-20.0004883
					c0-10.7792969-5.578125-17.4301758-22.3989258-22.984375c-8.6557617-2.9169922-13.0678711-8.0263672-13.0678711-14.1821289
					c0-7.9594727,5.8203125-11.300293,13.300293-11.300293c6.7954102,0,13.0473633,1.6206055,19.6665039,5.2470703v-7.6132812
					c-6.7368164-2.9667969-12.6416016-4.1665039-20.3330078-4.1665039c-12.9804688,0-20.5,6.7573242-20.5,17.8330078
					c0,9.7744141,6.2045898,16.9248047,20.7324219,21.8178711c10.5102539,3.5805664,14.6005859,8.1816406,14.6005859,15.3486328
					C163.6245117,397.8442383,158.1552734,402.4580078,147.7915039,402.4580078z"/>
				<path d="M148.9584961,254.7919922c-7.1474609,0-12.777832-1.7407227-18.6669922-5.9799805v5.1464844
					c5.9697266,3.6474609,11.5195312,5.1665039,19,5.1665039c14.215332,0,21.8334961-6.8764648,21.8334961-19.5
					c0-10.8374023-5.809082-17.4458008-21.2983398-22.46875c-10.1508789-3.3061523-15.4350586-9.0678711-15.4350586-16.3647461
					c0-9.5585938,7.668457-12.3999023,15.3999023-12.3999023c6.722168,0,12.9819336,1.5864258,19.3334961,4.9936523v-4.9267578
					c-6.449707-3.0102539-12.5976562-4.3334961-19.6665039-4.3334961c-12.7773438,0-20,6.1313477-20,16.6665039
					c0,9.5849609,6.4213867,16.6962891,19.965332,21.1357422C161.2685547,225.8085938,166.125,231.1069336,166.125,239.625
					C166.125,249.5454102,160.1914062,254.7919922,148.9584961,254.7919922z"/>
				<path d="M150.125,34.125c-12.574707,0-19.5,5.5048828-19.5,15.5c0,9.3955078,6.6381836,16.4677734,19.1977539,20.453125
					C163.0019531,74.2597656,168.625,80.2558594,168.625,90.125c0,11.1210938-6.3974609,17-18.5,17
					c-7.4628906,0-13.421875-1.84375-19-5.9697266V103.625c5.6455078,3.765625,11.5927734,5.5,19,5.5
					c13.2197266,0,20.5-6.7480469,20.5-19c0-10.8955078-6.0400391-17.4609375-20.1977539-21.953125
					C138.7807617,64.4765625,132.625,58.0625,132.625,49.625c0-11.1582031,9.5166016-13.5,17.5-13.5
					c6.6484375,0,12.9160156,1.5527344,19,4.7402344V38.625C162.9628906,35.5712891,156.5712891,34.125,150.125,34.125z"/>
			</g>
			<g>
				<g>
					<path d="M233.125,68.125c0,7.5654297,4.8691406,11.6152344,16.8056641,13.9804688
						C264.2011719,84.9345703,266.125,90.2744141,266.125,95.125c0,7.5136719-5.9814453,12-16,12
						c-5.9902344,0-10.9873047-1.1767578-17-4.2451172V105.125c5.9423828,2.8564453,10.8476562,4,17,4
						c11.09375,0,18-5.3642578,18-14c0-7.9199219-5.4912109-12.5400391-17.8056641-14.9804688
						C237.7084961,77.6455078,235.125,73.5322266,235.125,68.125c0-6.7851562,5.7475586-11,15-11
						c5.6279297,0,10.671875,0.9248047,16.5,3.1552734V58.125c-5.9121094-2.1523438-10.7421875-3-16.5-3
						C239.7890625,55.125,233.125,60.2275391,233.125,68.125z"/>
				</g>
				<path d="M249.4580078,255.125c-5.7460938,0-10.965332-1.1928711-16.6669922-3.9970703v4.3300781
					c5.6943359,2.5576172,11.0004883,3.6669922,17.0004883,3.6669922c11.9194336,0,18.8330078-5.4291992,18.8330078-14.1669922
					c0-8.4545898-4.9174805-12.9609375-18.3706055-15.8198242c-10.7045898-2.2485352-13.1293945-5.8095703-13.1293945-10.6801758
					c0-5.762207,4.7568359-9.3334961,13.5117188-9.3334961c5.3647461,0,10.6166992,0.9609375,16.3334961,3.1035156v-4.2700195
					c-5.7324219-1.9716797-10.9672852-2.8330078-16.6665039-2.8330078c-11.4038086,0-18.012207,5.4091797-18.012207,13.6665039
					c0,7.5449219,4.7592773,11.9208984,17.3710938,14.6538086c12.0800781,2.5595703,14.1289062,6.953125,14.1289062,11.5126953
					C263.7910156,251.3374023,258.765625,255.125,249.4580078,255.125z"/>
				<path d="M248.7915039,403.125c-5.5019531,0-10.9433594-1.2089844-16.3330078-3.7485352v6.4150391
					c5.4458008,2.2587891,11.1523438,3.3334961,17,3.3334961c12.7456055,0,19.6665039-5.4936523,19.6665039-14.3334961
					c0-8.9902344-4.3447266-13.3823242-18.9350586-16.6601562c-8.7988281-1.996582-11.0649414-5.0058594-11.0649414-9.3398438
					c0-4.7387695,3.7661133-7.6665039,12.0234375-7.6665039c5.1015625,0,10.5610352,0.9970703,16.1665039,3.0517578v-6.3847656
					c-5.5527344-1.7915039-11.1918945-2.6669922-16.8330078-2.6669922c-12.4716797,0-19.0234375,5.7172852-19.0234375,14.3334961
					c0,7.5239258,4.6489258,12.2265625,17.9350586,15.3266602c9.890625,2.2900391,12.0649414,5.737793,12.0649414,10.0063477
					C261.4584961,400.0366211,257.3876953,403.125,248.7915039,403.125z"/>
				<path d="M251.6601562,513.125c4.8383789,0,10.5053711,1.0332031,16,3v-8.5c-5.3730469-1.6103516-11.4169922-2.5-17-2.5
					c-13.5390625,0-20.0351562,6.0244141-20.0351562,15c0,7.5039062,4.5390625,12.5322266,18.5,16
					c7.7001953,2.0205078,10,4.5224609,10,8.5c0,4.1103516-3.1152344,6.5-11,6.5c-5.2578125,0-10.921875-1.2246094-16-3.5v8.5
					c5.1972656,1.9599609,11.3046875,3,17,3c13.5712891,0,20.5-5.5585938,20.5-14.5c0-9.5253906-3.7714844-13.8037109-19.5-17.5
					c-6.8925781-1.7460938-9-4.203125-9-8C241.125,515.4091797,243.9003906,513.125,251.6601562,513.125z"/>
				<path d="M247.7910156,699.2910156c-5.5947266,0-11.9091797-1.265625-17.1665039-3.5V706.125
					c5.578125,1.9453125,12.3442383,3,18.6669922,3c14.0454102,0,21.1665039-5.7363281,21.1665039-15.1669922
					c0-9.8417969-4.3852539-14.5224609-20-17.6669922c-5.6889648-1.3095703-7.5-3.3515625-7.5-6.5
					c0-3.1455078,2.2856445-5,9.0019531-5c5.2124023,0,11.0722656,0.9716797,16.6879883,2.8339844v-10.1669922
					c-5.7504883-1.5302734-11.8647461-2.3330078-17.9995117-2.3330078c-14.421875,0-21.1904297,6.0751953-21.1904297,15.3330078
					c0,8.2080078,4.9726562,13.5244141,19.3334961,16.6669922c6.3793945,1.5517578,8.1665039,3.4677734,8.1665039,6.7666016
					C256.9580078,697.3095703,254.3417969,699.2910156,247.7910156,699.2910156z"/>
				<path d="M247.4584961,847.4580078c-5.9321289,0-12.8974609-1.3076172-18.3334961-3.5V856.125
					c5.9584961,1.9306641,13.3828125,3,20.3334961,3c14.5195312,0,21.8330078-5.9130859,21.8330078-15.8330078
					c0-10.1591797-4.9990234-15.2412109-20.5-17.8339844c-4.4848633-0.8730469-6-2.5-6-5c0-2.5761719,1.7963867-4,7.46875-4
					c5.5869141,0,11.6401367,0.9101562,17.3764648,2.6669922v-11.8330078c-6.128418-1.4501953-12.3120117-2.1669922-19-2.1669922
					c-15.3032227,0-22.3452148,6.1259766-22.3452148,15.6669922c0,8.9121094,5.4072266,14.5166016,20.1669922,17.3330078
					c5.0585938,1.0839844,6.3330078,2.4140625,6.3330078,5.0341797
					C254.7915039,845.8847656,252.6738281,847.4580078,247.4584961,847.4580078z"/>
				<path d="M270.625,970.625v-13.5c-6.5058594-1.3701172-12.7597656-2-20-2c-16.1855469,0-23.5,6.1767578-23.5,16
					c0,9.6171875,5.8408203,15.5087891,21,18c3.7382812,0.6152344,4.5,1.359375,4.5,3.3007812
					c0,2.0332031-1.6191406,3.1992188-5.5,3.1992188c-6.2695312,0-13.8847656-1.3496094-19.5-3.5v14
					c6.3388672,1.9160156,14.421875,3,22,3c14.9941406,0,22.5-6.0908203,22.5-16.5c0-10.4755859-5.6132812-15.9599609-21-18
					c-3.28125-0.4375-4.5-1.6494141-4.5-3.5c0-2.0068359,1.3066406-3,5.9355469-3
					C258.5214844,968.125,264.7675781,968.9726562,270.625,970.625z"/>
			</g>
			<g>
				<path d="M373.625,954.4248047V938.125c-6.2539062-2.6748047-13.4775391-4-22.5-4c-18.2558594,0-27.5,8.3388672-27.5,21
					c0,11.8349609,6.90625,19.8720703,25,25.5c5.078125,1.5791016,6.5,3.3974609,6.5,7c0,3.6767578-3.0488281,6-9,6
					c-6.5546875,0-14.2626953-2.3164062-20.5-6.5v16.5c5.78125,3.5224609,13.5,5.5,21.5,5.5c19.546875,0,28.5-7.3740234,28.5-22
					c0-12.3730469-5.9326172-19.4111328-25-25c-4.7207031-1.3837891-6.7001953-3.8115234-6.7001953-7
					c0-3.5966797,2.2177734-5.7001953,8.2001953-5.7001953C358.390625,949.4248047,366.8320312,951.2929688,373.625,954.4248047z"/>
				<path d="M372.125,802.4248047V788.125c-6.5107422-2.7578125-13.2138672-4-22-4
					c-16.5654297,0-25.3334961,8.0205078-25.3334961,20.3330078c0,11.2109375,6.6000977,18.9658203,23.8330078,24.5
					c6.4448242,2.1464844,8.5004883,4.6591797,8.5004883,9c0,4.9570312-3.7011719,7.8330078-10.8334961,7.8330078
					c-6.5415039,0-13.3383789-2.0546875-19.6665039-6.3330078v14.5c6.0595703,3.4853516,12.7905273,5.1669922,20.6660156,5.1669922
					c18.4335938,0,27.1669922-7.2939453,27.1669922-21.5c0-11.8232422-5.7373047-18.7460938-24.5-24.5
					c-5.5336914-1.765625-8.0336914-4.8701172-8.0336914-8.6669922c0-4.5175781,2.8027344-7.2001953,9.2006836-7.2001953
					C357.5917969,797.2578125,365.3007812,799.0546875,372.125,802.4248047z"/>
				<path d="M370.625,650.4248047V638.125c-6.7675781-2.8398438-12.9492188-4-21.5-4
					c-14.8735352,0-23.1665039,7.7021484-23.1665039,19.6669922c0,10.5869141,6.2939453,18.0595703,22.6665039,23.5
					c7.8095703,2.7128906,10.5,5.9208984,10.5,11c0,6.2373047-4.3535156,9.6660156-12.6665039,9.6660156
					c-6.5288086,0-12.4135742-1.7939453-18.8334961-6.1660156v12.5c6.3383789,3.4482422,12.0820312,4.8330078,19.8334961,4.8330078
					c17.3188477,0,25.8334961-7.2138672,25.8334961-21c0-11.2724609-5.5429688-18.0800781-24.0004883-24
					c-6.3466797-2.1464844-9.3666992-5.9277344-9.3666992-10.3330078c0-5.4394531,3.387207-8.7001953,10.2001953-8.7001953
					C356.7929688,645.0917969,363.7695312,646.8173828,370.625,650.4248047z"/>
				<path d="M349.125,492.9248047c6.8691406,0,13.1132812,1.6542969,20,5.5V488.125c-7.0244141-2.9228516-12.6855469-4-21-4
					c-13.1826172,0-21,7.3837891-21,19c0,9.9638672,5.9882812,17.1533203,21.5,22.5c9.1757812,3.2802734,12.5,7.1835938,12.5,13
					c0,7.5185547-5.0058594,11.5-14.5,11.5c-6.515625,0-11.4892578-1.5332031-18-6v10.5c6.6171875,3.4111328,11.3725586,4.5,19,4.5
					c16.2050781,0,24.5-7.1337891,24.5-20.5c0-10.7216797-5.3476562-17.4150391-23.5-23.5
					c-7.1601562-2.5283203-10.7001953-6.9853516-10.7001953-12
					C337.9248047,496.7646484,341.8964844,492.9248047,349.125,492.9248047z"/>
				<path d="M347.7915039,402.4580078c-6.831543,0-12.1337891-1.6367188-18.3334961-5.9897461v7.8232422
					c6.2929688,3.5292969,11.4458008,4.8334961,19,4.8334961c15.2099609,0,23.1669922-7.0053711,23.1669922-20.0004883
					c0-10.7792969-5.5791016-17.4301758-22.3999023-22.984375c-8.6552734-2.9169922-13.0673828-8.0263672-13.0673828-14.1821289
					c0-7.9594727,5.8203125-11.300293,13.300293-11.300293c6.7958984,0,13.0478516,1.6206055,19.6669922,5.2470703v-7.6132812
					c-6.7373047-2.9667969-12.6416016-4.1665039-20.3334961-4.1665039c-12.9799805,0-20.5,6.7573242-20.5,17.8330078
					c0,9.7744141,6.2050781,16.9248047,20.7324219,21.8178711c10.5102539,3.5805664,14.6010742,8.1816406,14.6010742,15.3486328
					C363.625,397.8442383,358.1552734,402.4580078,347.7915039,402.4580078z"/>
				<path d="M348.9584961,254.7919922c-7.1469727,0-12.777832-1.7407227-18.6665039-5.9799805v5.1464844
					c5.9692383,3.6474609,11.519043,5.1665039,18.9995117,5.1665039c14.215332,0,21.8334961-6.8764648,21.8334961-19.5
					c0-10.8374023-5.8095703-17.4458008-21.2983398-22.46875c-10.1513672-3.3061523-15.4350586-9.0678711-15.4350586-16.3647461
					c0-9.5585938,7.668457-12.3999023,15.3999023-12.3999023c6.722168,0,12.9819336,1.5864258,19.3334961,4.9936523v-4.9267578
					c-6.4492188-3.0102539-12.5976562-4.3334961-19.6665039-4.3334961c-12.7773438,0-20,6.1313477-20,16.6665039
					c0,9.5849609,6.4213867,16.6962891,19.9648438,21.1357422C361.2685547,225.8085938,366.125,231.1069336,366.125,239.625
					C366.125,249.5454102,360.1914062,254.7919922,348.9584961,254.7919922z"/>
				<path d="M350.125,34.125c-12.574707,0-19.5,5.5048828-19.5,15.5c0,9.3955078,6.6381836,16.4677734,19.1977539,20.453125
					C363.0019531,74.2597656,368.625,80.2558594,368.625,90.125c0,11.1210938-6.3974609,17-18.5,17
					c-7.4628906,0-13.421875-1.84375-19-5.9697266V103.625c5.6455078,3.765625,11.5927734,5.5,19,5.5
					c13.2197266,0,20.5-6.7480469,20.5-19c0-10.8955078-6.0400391-17.4609375-20.1977539-21.953125
					C338.7807617,64.4765625,332.625,58.0625,332.625,49.625c0-11.1582031,9.5166016-13.5,17.5-13.5
					c6.6484375,0,12.9160156,1.5527344,19,4.7402344V38.625C362.9628906,35.5712891,356.5712891,34.125,350.125,34.125z"/>
			</g>
			<g>
				<g>
					<path d="M433.125,68.125c0,7.5654297,4.8691406,11.6152344,16.8056641,13.9804688
						C464.2011719,84.9345703,466.125,90.2744141,466.125,95.125c0,7.5136719-5.9814453,12-16,12
						c-5.9902344,0-10.9873047-1.1767578-17-4.2451172V105.125c5.9423828,2.8564453,10.8476562,4,17,4
						c11.09375,0,18-5.3642578,18-14c0-7.9199219-5.4912109-12.5400391-17.8056641-14.9804688
						C437.7089844,77.6455078,435.125,73.5322266,435.125,68.125c0-6.7851562,5.7480469-11,15-11
						c5.6279297,0,10.671875,0.9248047,16.5,3.1552734V58.125c-5.9121094-2.1523438-10.7421875-3-16.5-3
						C439.7890625,55.125,433.125,60.2275391,433.125,68.125z"/>
				</g>
				<path d="M449.4580078,255.125c-5.7460938,0-10.9658203-1.1928711-16.6669922-3.9970703v4.3300781
					c5.6943359,2.5576172,11.0009766,3.6669922,17.0009766,3.6669922c11.9189453,0,18.8330078-5.4291992,18.8330078-14.1669922
					c0-8.4545898-4.9179688-12.9609375-18.3710938-15.8198242C439.5498047,226.8896484,437.125,223.3286133,437.125,218.4580078
					c0-5.762207,4.7568359-9.3334961,13.5117188-9.3334961c5.3642578,0,10.6162109,0.9609375,16.3330078,3.1035156v-4.2700195
					c-5.7324219-1.9716797-10.9667969-2.8330078-16.6660156-2.8330078c-11.4042969,0-18.0126953,5.4091797-18.0126953,13.6665039
					c0,7.5449219,4.7597656,11.9208984,17.3710938,14.6538086c12.0800781,2.5595703,14.1289062,6.953125,14.1289062,11.5126953
					C463.7910156,251.3374023,458.765625,255.125,449.4580078,255.125z"/>
				<path d="M448.7919922,403.125c-5.5019531,0-10.9443359-1.2089844-16.3339844-3.7485352v6.4150391
					c5.4462891,2.2587891,11.1523438,3.3334961,17,3.3334961c12.7460938,0,19.6669922-5.4936523,19.6669922-14.3334961
					c0-8.9902344-4.3447266-13.3823242-18.9355469-16.6601562c-8.7978516-1.996582-11.0644531-5.0058594-11.0644531-9.3398438
					c0-4.7387695,3.7666016-7.6665039,12.0234375-7.6665039c5.1015625,0,10.5615234,0.9970703,16.1669922,3.0517578v-6.3847656
					c-5.5527344-1.7915039-11.1923828-2.6669922-16.8339844-2.6669922c-12.4707031,0-19.0234375,5.7172852-19.0234375,14.3334961
					c0,7.5239258,4.6494141,12.2265625,17.9355469,15.3266602c9.890625,2.2900391,12.0644531,5.737793,12.0644531,10.0063477
					C461.4580078,400.0366211,457.3876953,403.125,448.7919922,403.125z"/>
				<path d="M451.6601562,513.125c4.8378906,0,10.5058594,1.0332031,16,3v-8.5c-5.3730469-1.6103516-11.4169922-2.5-17-2.5
					c-13.5390625,0-20.0351562,6.0244141-20.0351562,15c0,7.5039062,4.5390625,12.5322266,18.5,16
					c7.7001953,2.0205078,10,4.5224609,10,8.5c0,4.1103516-3.1152344,6.5-11,6.5c-5.2578125,0-10.921875-1.2246094-16-3.5v8.5
					c5.1972656,1.9599609,11.3046875,3,17,3c13.5712891,0,20.5-5.5585938,20.5-14.5c0-9.5253906-3.7714844-13.8037109-19.5-17.5
					c-6.8925781-1.7460938-9-4.203125-9-8C441.125,515.4091797,443.9003906,513.125,451.6601562,513.125z"/>
				<path d="M447.7910156,699.2910156c-5.5947266,0-11.9091797-1.265625-17.1660156-3.5V706.125
					c5.578125,1.9453125,12.34375,3,18.6660156,3c14.0458984,0,21.1669922-5.7363281,21.1669922-15.1669922
					c0-9.8417969-4.3857422-14.5224609-20-17.6669922c-5.6884766-1.3095703-7.5-3.3515625-7.5-6.5
					c0-3.1455078,2.2861328-5,9.0019531-5c5.2119141,0,11.0732422,0.9716797,16.6884766,2.8339844v-10.1669922
					c-5.7509766-1.5302734-11.8652344-2.3330078-18-2.3330078c-14.421875,0-21.1904297,6.0751953-21.1904297,15.3330078
					c0,8.2080078,4.9726562,13.5244141,19.3330078,16.6669922c6.3798828,1.5517578,8.1669922,3.4677734,8.1669922,6.7666016
					C456.9580078,697.3095703,454.3417969,699.2910156,447.7910156,699.2910156z"/>
				<path d="M447.4580078,847.4580078c-5.9316406,0-12.8964844-1.3076172-18.3330078-3.5V856.125
					c5.9580078,1.9306641,13.3828125,3,20.3330078,3c14.5205078,0,21.8339844-5.9130859,21.8339844-15.8330078
					c0-10.1591797-5-15.2412109-20.5-17.8339844c-4.4853516-0.8730469-6-2.5-6-5c0-2.5761719,1.7958984-4,7.46875-4
					c5.5859375,0,11.6396484,0.9101562,17.3759766,2.6669922v-11.8330078c-6.1279297-1.4501953-12.3125-2.1669922-19-2.1669922
					c-15.3037109,0-22.3447266,6.1259766-22.3447266,15.6669922c0,8.9121094,5.40625,14.5166016,20.1660156,17.3330078
					c5.0595703,1.0839844,6.3339844,2.4140625,6.3339844,5.0341797
					C454.7919922,845.8847656,452.6738281,847.4580078,447.4580078,847.4580078z"/>
				<path d="M470.625,970.625v-13.5c-6.5058594-1.3701172-12.7597656-2-20-2c-16.1855469,0-23.5,6.1767578-23.5,16
					c0,9.6171875,5.8408203,15.5087891,21,18c3.7382812,0.6152344,4.5,1.359375,4.5,3.3007812
					c0,2.0332031-1.6191406,3.1992188-5.5,3.1992188c-6.2695312,0-13.8847656-1.3496094-19.5-3.5v14
					c6.3388672,1.9160156,14.421875,3,22,3c14.9941406,0,22.5-6.0908203,22.5-16.5c0-10.4755859-5.6132812-15.9599609-21-18
					c-3.28125-0.4375-4.5-1.6494141-4.5-3.5c0-2.0068359,1.3066406-3,5.9355469-3
					C458.5214844,968.125,464.7675781,968.9726562,470.625,970.625z"/>
			</g>
			<g>
				<g>
					<path d="M573.625,954.4248047V938.125c-6.2539062-2.6748047-13.4775391-4-22.5-4c-18.2558594,0-27.5,8.3388672-27.5,21
						c0,11.8349609,6.90625,19.8720703,25,25.5c5.078125,1.5791016,6.5,3.3974609,6.5,7c0,3.6767578-3.0488281,6-9,6
						c-6.5546875,0-14.2626953-2.3164062-20.5-6.5v16.5c5.78125,3.5224609,13.5,5.5,21.5,5.5c19.546875,0,28.5-7.3740234,28.5-22
						c0-12.3730469-5.9326172-19.4111328-25-25c-4.7207031-1.3837891-6.7001953-3.8115234-6.7001953-7
						c0-3.5966797,2.2177734-5.7001953,8.2001953-5.7001953C558.390625,949.4248047,566.8320312,951.2929688,573.625,954.4248047z"
						/>
					<path d="M544.125,1030.125c13.1171875,0,19.5-4.75,19.5-12.5c0-3.484375-1.1328125-6.2421875-4.6054688-10l-12.8085938,0.5
						c1.9042969,1.3242188,2.9140625,3.2675781,2.9140625,5.5c0,3.4296875-1.7714844,5-5.5,5
						c-3.2773438,0-7.1230469-0.8945312-10.5-2.5v12.5C536.5732422,1029.6005859,540.2949219,1030.125,544.125,1030.125z"/>
				</g>
				<g>
					<path d="M572.125,802.4248047V788.125c-6.5107422-2.7578125-13.2138672-4-22-4
						c-16.5654297,0-25.3330078,8.0205078-25.3330078,20.3330078c0,11.2109375,6.5996094,18.9658203,23.8330078,24.5
						c6.4433594,2.1464844,8.5,4.6591797,8.5,9c0,4.9570312-3.7011719,7.8330078-10.8330078,7.8330078
						c-6.5419922,0-13.3388672-2.0546875-19.6669922-6.3330078v14.5c6.0595703,3.4853516,12.7910156,5.1669922,20.6660156,5.1669922
						c18.4335938,0,27.1669922-7.2939453,27.1669922-21.5c0-11.8232422-5.7373047-18.7460938-24.5-24.5
						c-5.5341797-1.765625-8.0332031-4.8701172-8.0332031-8.6669922c0-4.5175781,2.8027344-7.2001953,9.2001953-7.2001953
						C557.5917969,797.2578125,565.3007812,799.0546875,572.125,802.4248047z"/>
					<path d="M544.2080078,880.125c12.7392578,0,19-4.7382812,19-12.3339844c0-3.5205078-1.1904297-6.4492188-4.6113281-10.1660156
						l-11.5449219,0.5c2.0869141,1.5566406,3.1855469,3.6962891,3.1855469,6.1064453
						c0,3.7138672-2.2216797,5.5595703-6.7333984,5.5595703c-3.2441406,0-7.0742188-0.9121094-10.2958984-2.5v11.1669922
						C536.6074219,879.5244141,540.4208984,880.125,544.2080078,880.125z"/>
				</g>
				<g>
					<path d="M570.625,650.4248047V638.125c-6.7675781-2.8398438-12.9492188-4-21.5-4
						c-14.8740234,0-23.1669922,7.7021484-23.1669922,19.6669922c0,10.5869141,6.2949219,18.0595703,22.6669922,23.5
						c7.8095703,2.7128906,10.5,5.9208984,10.5,11c0,6.2373047-4.3535156,9.6660156-12.6669922,9.6660156
						c-6.5283203,0-12.4130859-1.7939453-18.8330078-6.1660156v12.5c6.3388672,3.4482422,12.0820312,4.8330078,19.8330078,4.8330078
						c17.3193359,0,25.8339844-7.2138672,25.8339844-21c0-11.2724609-5.5429688-18.0800781-24-24
						c-6.3476562-2.1464844-9.3671875-5.9277344-9.3671875-10.3330078c0-5.4394531,3.3867188-8.7001953,10.2001953-8.7001953
						C556.7929688,645.0917969,563.7695312,646.8173828,570.625,650.4248047z"/>
					<path d="M544.2919922,730.125c12.3613281,0,18.5-4.7255859,18.5-12.1669922
						c0-3.5585938-1.2480469-6.6572266-4.6171875-10.3330078l-10.28125,0.5
						c2.2685547,1.7890625,3.4570312,4.1240234,3.4570312,6.7138672c0,3.9970703-2.6728516,6.1191406-7.9667969,6.1191406
						c-3.2119141,0-7.0253906-0.9296875-10.0917969-2.5v9.8339844C536.6416016,729.4472656,540.5478516,730.125,544.2919922,730.125
						z"/>
				</g>
				<g>
					<path d="M549.125,492.9248047c6.8691406,0,13.1132812,1.6542969,20,5.5V488.125c-7.0244141-2.9228516-12.6855469-4-21-4
						c-13.1826172,0-21,7.3837891-21,19c0,9.9638672,5.9882812,17.1533203,21.5,22.5c9.1757812,3.2802734,12.5,7.1835938,12.5,13
						c0,7.5185547-5.0058594,11.5-14.5,11.5c-6.515625,0-11.4892578-1.5332031-18-6v10.5c6.6171875,3.4111328,11.3730469,4.5,19,4.5
						c16.2050781,0,24.5-7.1337891,24.5-20.5c0-10.7216797-5.3476562-17.4150391-23.5-23.5
						c-7.1601562-2.5283203-10.7001953-6.9853516-10.7001953-12
						C537.9248047,496.7646484,541.8964844,492.9248047,549.125,492.9248047z"/>
					<path d="M544.375,580.125c11.984375,0,18-4.7128906,18-12c0-3.5957031-1.3046875-6.8652344-4.6230469-10.5l-9.0166016,0.5
						c2.4501953,2.0214844,3.7275391,4.5527344,3.7275391,7.3203125c0,4.28125-3.1230469,6.6796875-9.2001953,6.6796875
						c-3.1787109,0-6.9755859-0.9482422-9.8876953-2.5v8.5C536.6757812,579.3710938,540.6738281,580.125,544.375,580.125z"/>
				</g>
				<g>
					<path d="M548.7910156,334.125c-12.9794922,0-20.5,6.7573242-20.5,17.8330078
						c0,9.7744141,6.2050781,16.9248047,20.7324219,21.8178711c10.5107422,3.5805664,14.6015625,8.1816406,14.6015625,15.3486328
						c0,8.7197266-5.4697266,13.3334961-15.8339844,13.3334961c-6.8310547,0-12.1328125-1.6367188-18.3330078-5.9897461v7.8232422
						c6.2929688,3.5292969,11.4462891,4.8334961,19,4.8334961c15.2099609,0,23.1669922-7.0053711,23.1669922-20.0004883
						c0-10.7792969-5.5791016-17.4301758-22.3994141-22.984375c-8.6552734-2.9169922-13.0673828-8.0263672-13.0673828-14.1821289
						c0-7.9594727,5.8193359-11.300293,13.2998047-11.300293c6.7958984,0,13.0478516,1.6206055,19.6669922,5.2470703v-7.6132812
						C562.3876953,335.324707,556.4833984,334.125,548.7910156,334.125z"/>
					<path d="M557.4941406,407.7915039l-6.9072266,0.3330078c2.7001953,2.4472656,4.0966797,5.3110352,4.0966797,8.3803711
						c0,5.4711914-4.7109375,7.6196289-10.9667969,7.6196289c-3.3300781,0-7.3291016-0.9702148-10.2587891-2.4995117v6.3984375
						c3.2695312,1.300293,7.3330078,2.1015625,11,2.1015625c12.7753906,0,17.5-5.5439453,17.5-11.8334961
						C561.9580078,414.6655273,560.6210938,411.3120117,557.4941406,407.7915039z"/>
				</g>
				<g>
					<path d="M549.4580078,184.125c-12.7763672,0-20,6.1313477-20,16.6665039
						c0,9.5849609,6.421875,16.6962891,19.9648438,21.1357422C561.2685547,225.8085938,566.125,231.1069336,566.125,239.625
						c0,9.9204102-5.9335938,15.1669922-17.1669922,15.1669922c-7.1464844,0-12.7773438-1.7407227-18.6660156-5.9799805v5.1464844
						c5.96875,3.6474609,11.5195312,5.1665039,19,5.1665039c14.2148438,0,21.8330078-6.8764648,21.8330078-19.5
						c0-10.8374023-5.8095703-17.4458008-21.2978516-22.46875c-10.1513672-3.3061523-15.4355469-9.0678711-15.4355469-16.3647461
						c0-9.5585938,7.6679688-12.3999023,15.4003906-12.3999023c6.7216797,0,12.9814453,1.5864258,19.3330078,4.9936523v-4.9267578
						C562.6757812,185.4482422,556.5273438,184.125,549.4580078,184.125z"/>
					<path d="M557.2373047,257.9584961L552.4375,258.125c2.9511719,2.8730469,4.4667969,6.0698242,4.4667969,9.4399414
						c0,6.6616211-6.2978516,8.5600586-12.7333984,8.5600586c-3.4814453,0-7.6835938-0.9926758-10.6289062-2.5v4.2973633
						c3.2382812,1.3549805,7.3671875,2.2026367,11,2.2026367c13.5654297,0,17-6.3745117,17-11.6665039
						C561.5419922,264.8027344,560.1728516,261.3652344,557.2373047,257.9584961z"/>
				</g>
				<g>
					<path d="M550.125,34.125c-12.5742188,0-19.5,5.5048828-19.5,15.5c0,9.3955078,6.6386719,16.4677734,19.1972656,20.453125
						C563.0019531,74.2597656,568.625,80.2558594,568.625,90.125c0,11.1210938-6.3974609,17-18.5,17
						c-7.4628906,0-13.421875-1.84375-19-5.9697266V103.625c5.6455078,3.765625,11.5927734,5.5,19,5.5
						c13.2197266,0,20.5-6.7480469,20.5-19c0-10.8955078-6.0400391-17.4609375-20.1972656-21.953125
						C538.78125,64.4765625,532.625,58.0625,532.625,49.625c0-11.1582031,9.5166016-13.5,17.5-13.5
						c6.6484375,0,12.9160156,1.5527344,19,4.7402344V38.625C562.9628906,35.5712891,556.5712891,34.125,550.125,34.125z"/>
					<path d="M556.9804688,108.125h-2.6914062c3.2011719,3.2988281,4.8359375,6.828125,4.8359375,10.5
						c0,7.8515625-7.8847656,9.5-14.5,9.5c-3.6328125,0-8.0371094-1.0146484-11-2.5v2.1962891
						c3.2070312,1.4091797,7.4023438,2.3037109,11,2.3037109c14.3564453,0,16.5-7.2050781,16.5-11.5
						C561.125,114.9394531,559.7236328,111.4179688,556.9804688,108.125z"/>
				</g>
			</g>
			<g>
				<g>
					<path d="M670.625,970.625v-13.5c-6.5058594-1.3701172-12.7597656-2-20-2c-16.1855469,0-23.5,6.1767578-23.5,16
						c0,9.6171875,5.8408203,15.5087891,21,18c3.7382812,0.6152344,4.5,1.359375,4.5,3.3007812
						c0,2.0332031-1.6191406,3.1992188-5.5,3.1992188c-6.2695312,0-13.8847656-1.3496094-19.5-3.5v14
						c6.3388672,1.9160156,14.421875,3,22,3c14.9941406,0,22.5-6.0908203,22.5-16.5c0-10.4755859-5.6132812-15.9599609-21-18
						c-3.28125-0.4375-4.5-1.6494141-4.5-3.5c0-2.0068359,1.3066406-3,5.9355469-3
						C658.5214844,968.125,664.7675781,968.9726562,670.625,970.625z"/>
					<path d="M644.125,1030.125c13.1171875,0,19.5-4.75,19.5-12.5c0-3.484375-1.1328125-6.2421875-4.6054688-10l-12.8085938,0.5
						c1.9042969,1.3242188,2.9140625,3.2675781,2.9140625,5.5c0,3.4296875-1.7714844,5-5.5,5
						c-3.2773438,0-7.1230469-0.8945312-10.5-2.5v12.5C636.5732422,1029.6005859,640.2949219,1030.125,644.125,1030.125z"/>
				</g>
				<g>
					<path d="M669.6367188,819.125v-11.8339844c-6.1289062-1.4492188-12.3125-2.1660156-19-2.1660156
						c-15.3037109,0-22.3447266,6.1259766-22.3447266,15.6660156c0,8.9130859,5.40625,14.5175781,20.1660156,17.3339844
						c5.0595703,1.0830078,6.3339844,2.4130859,6.3339844,5.0341797c0,2.7255859-2.1181641,4.2988281-7.3339844,4.2988281
						c-5.9326172,0-12.8974609-1.3076172-18.3330078-3.5V856.125c5.9580078,1.9306641,13.3828125,3,20.3330078,3
						c14.5205078,0,21.8339844-5.9130859,21.8339844-15.8330078c0-10.1591797-5-15.2421875-20.5-17.8339844
						c-4.4853516-0.8740234-6-2.5-6-5c0-2.5761719,1.7958984-4,7.46875-4
						C657.8466797,816.4580078,663.9003906,817.3671875,669.6367188,819.125z"/>
					<path d="M644.2080078,880.125c12.7402344,0,19-4.7382812,19-12.3339844c0-3.5205078-1.1894531-6.4492188-4.6113281-10.1660156
						l-11.5449219,0.5c2.0869141,1.5566406,3.1855469,3.6962891,3.1855469,6.1064453
						c0,3.7138672-2.2216797,5.5595703-6.7333984,5.5595703c-3.2441406,0-7.0742188-0.9121094-10.2958984-2.5v11.1669922
						C636.6074219,879.5244141,640.4208984,880.125,644.2080078,880.125z"/>
				</g>
				<g>
					<path d="M668.6484375,667.625v-10.1669922c-5.7509766-1.5302734-11.8642578-2.3330078-18-2.3330078
						c-14.4208984,0-21.1904297,6.0751953-21.1904297,15.3330078c0,8.2089844,4.9736328,13.5244141,19.3339844,16.6669922
						c6.3789062,1.5517578,8.1660156,3.4677734,8.1660156,6.7666016c0,3.4179688-2.6162109,5.4003906-9.1660156,5.4003906
						c-5.5957031,0-11.9101562-1.2666016-17.1669922-3.5V706.125c5.578125,1.9453125,12.34375,3,18.6669922,3
						c14.0449219,0,21.1660156-5.7363281,21.1660156-15.1669922c0-9.8417969-4.3847656-14.5224609-20-17.6660156
						c-5.6884766-1.3105469-7.5-3.3525391-7.5-6.5c0-3.1464844,2.2861328-5,9.0019531-5
						C657.1728516,664.7919922,663.0332031,665.7626953,668.6484375,667.625z"/>
					<path d="M644.2919922,730.125c12.3613281,0,18.5-4.7255859,18.5-12.1669922
						c0-3.5585938-1.2480469-6.6572266-4.6171875-10.3330078l-10.28125,0.5
						c2.2685547,1.7890625,3.4570312,4.1240234,3.4570312,6.7138672c0,3.9970703-2.6728516,6.1191406-7.9667969,6.1191406
						c-3.2119141,0-7.0253906-0.9296875-10.0917969-2.5v9.8339844C636.6416016,729.4472656,640.5478516,730.125,644.2919922,730.125
						z"/>
				</g>
				<g>
					<path d="M651.6601562,513.125c4.8378906,0,10.5058594,1.0332031,16,3v-8.5c-5.3730469-1.6103516-11.4169922-2.5-17-2.5
						c-13.5390625,0-20.0351562,6.0244141-20.0351562,15c0,7.5039062,4.5390625,12.5322266,18.5,16
						c7.7001953,2.0205078,10,4.5224609,10,8.5c0,4.1103516-3.1152344,6.5-11,6.5c-5.2578125,0-10.921875-1.2246094-16-3.5v8.5
						c5.1972656,1.9599609,11.3046875,3,17,3c13.5712891,0,20.5-5.5585938,20.5-14.5c0-9.5253906-3.7714844-13.8037109-19.5-17.5
						c-6.8925781-1.7460938-9-4.203125-9-8C641.125,515.4091797,643.9003906,513.125,651.6601562,513.125z"/>
					<path d="M644.375,580.125c11.984375,0,18-4.7128906,18-12c0-3.5957031-1.3046875-6.8652344-4.6230469-10.5l-9.0166016,0.5
						c2.4501953,2.0214844,3.7275391,4.5527344,3.7275391,7.3203125c0,4.28125-3.1230469,6.6796875-9.2001953,6.6796875
						c-3.1787109,0-6.9755859-0.9482422-9.8876953-2.5v8.5C636.6757812,579.3710938,640.6738281,580.125,644.375,580.125z"/>
				</g>
				<g>
					<path d="M631.4580078,369.4580078c0,7.5244141,4.6494141,12.2265625,17.9355469,15.3266602
						c9.8896484,2.2905273,12.0644531,5.7382812,12.0644531,10.0063477c0,5.2451172-4.0703125,8.3334961-12.6660156,8.3334961
						c-5.5029297,0-10.9443359-1.2084961-16.3339844-3.7485352v6.4155273c5.4453125,2.2587891,11.1523438,3.3334961,17,3.3334961
						c12.7451172,0,19.6669922-5.4941406,19.6669922-14.3339844c0-8.9897461-4.3447266-13.3818359-18.9355469-16.659668
						C641.3916016,376.1342773,639.125,373.125,639.125,368.7910156c0-4.7387695,3.7666016-7.6665039,12.0234375-7.6665039
						c5.1015625,0,10.5605469,0.9970703,16.1669922,3.0517578v-6.3847656C661.7626953,356,656.1230469,355.125,650.4814453,355.125
						C638.0107422,355.125,631.4580078,360.8417969,631.4580078,369.4580078z"/>
					<path d="M657.4951172,407.7915039l-6.9091797,0.3330078c2.7011719,2.4472656,4.0976562,5.3110352,4.0976562,8.3803711
						c0,5.4711914-4.7109375,7.6196289-10.9667969,7.6196289c-3.3300781,0-7.3300781-0.9702148-10.2587891-2.4995117v6.3984375
						c3.2695312,1.300293,7.3330078,2.1015625,11,2.1015625c12.7753906,0,17.5-5.5439453,17.5-11.8334961
						C661.9580078,414.6655273,660.6210938,411.3120117,657.4951172,407.7915039z"/>
				</g>
				<g>
					<path d="M632.2919922,218.7919922c0,7.5444336,4.7587891,11.9204102,17.3701172,14.6533203
						c12.0800781,2.5595703,14.1298828,6.9536133,14.1298828,11.5131836c0,6.3789062-5.0263672,10.1665039-14.3339844,10.1665039
						c-5.7460938,0-10.9648438-1.1928711-16.6660156-3.996582v4.3300781c5.6933594,2.5576172,11,3.6665039,17,3.6665039
						c11.9189453,0,18.8330078-5.4291992,18.8330078-14.1665039c0-8.4550781-4.9179688-12.9614258-18.3701172-15.8203125
						C639.5498047,226.8901367,637.125,223.3286133,637.125,218.4584961c0-5.762207,4.7568359-9.3334961,13.5117188-9.3334961
						c5.3642578,0,10.6162109,0.9609375,16.3330078,3.1035156v-4.2700195
						c-5.7324219-1.9716797-10.9667969-2.8334961-16.6660156-2.8334961
						C638.8994141,205.125,632.2919922,210.534668,632.2919922,218.7919922z"/>
					<path d="M657.2373047,257.9584961L652.4375,258.125c2.9511719,2.8730469,4.4667969,6.0698242,4.4667969,9.4399414
						c0,6.6616211-6.2978516,8.5600586-12.7333984,8.5600586c-3.4814453,0-7.6835938-0.9926758-10.6289062-2.5v4.2973633
						c3.2382812,1.3549805,7.3671875,2.2026367,11,2.2026367c13.5654297,0,17-6.3745117,17-11.6665039
						C661.5419922,264.8027344,660.1728516,261.3652344,657.2373047,257.9584961z"/>
				</g>
				<g>
					<g>
						<path d="M633.125,68.125c0,7.5654297,4.8691406,11.6152344,16.8056641,13.9804688
							C664.2011719,84.9345703,666.125,90.2744141,666.125,95.125c0,7.5136719-5.9814453,12-16,12
							c-5.9902344,0-10.9873047-1.1767578-17-4.2451172V105.125c5.9423828,2.8564453,10.8476562,4,17,4
							c11.09375,0,18-5.3642578,18-14c0-7.9199219-5.4912109-12.5400391-17.8056641-14.9804688
							C637.7089844,77.6455078,635.125,73.5322266,635.125,68.125c0-6.7851562,5.7480469-11,15-11
							c5.6279297,0,10.671875,0.9248047,16.5,3.1552734V58.125c-5.9121094-2.1523438-10.7421875-3-16.5-3
							C639.7890625,55.125,633.125,60.2275391,633.125,68.125z"/>
					</g>
					<path d="M656.9804688,108.125h-2.6914062c3.2011719,3.2988281,4.8359375,6.828125,4.8359375,10.5
						c0,7.8515625-7.8847656,9.5-14.5,9.5c-3.6328125,0-8.0371094-1.0146484-11-2.5v2.1962891
						c3.2070312,1.4091797,7.4023438,2.3037109,11,2.3037109c14.3564453,0,16.5-7.2050781,16.5-11.5
						C661.125,114.9394531,659.7236328,111.4179688,656.9804688,108.125z"/>
				</g>
			</g>
			<path d="M42.125,70.8032227V56.125h-2v52h2v-27c0-13.5419922,9.8691406-23,24-23h2v-2h-2
				c-11.3935547,0-20.0253906,5.6972656-23.7998047,14.6782227H42.125z"/>
			<path d="M44.2910156,206.1245117h-4.8330078v52h5v-24.6665039c0-13.8769531,9.5913086-23,23-23h2v-4.3334961h-2
				c-10.6005859,0-19.0527344,5.1303711-22.9663086,13.1191406h-0.2006836V206.1245117z"/>
			<path d="M38.7915039,356.125v52h8v-24.5834961c0-13.1933594,8.0864258-20.75,22-20.75h2V356.125h-2
				c-9.8071289,0-18.0800781,4.5629883-22.1333008,11.5595703h-0.2001953V356.125H38.7915039z"/>
			<g>
				<path d="M72.125,514.625v-8.5h-2c-9.0141602,0-17.1074219,3.9960938-21.2998047,10H48.625v-10h-10.5v52h11v-25
					c0-12.5097656,6.581543-18.5,21-18.5H72.125z"/>
				<path d="M36.4580078,656.125v52h13.8330078v-23.5c0-11.6865234,7.0952148-18.1669922,20.8334961-18.1669922h2V656.125h-2
					c-8.8598633,0-16.7841797,3.90625-21.1328125,10h-0.2001953v-10H36.4580078z"/>
				<path d="M34.7919922,806.125v52h16.6665039v-22c0-10.8632812,7.6083984-17.8330078,20.6665039-17.8330078h2V806.125h-2
					c-8.7055664,0-16.4614258,3.8173828-20.9663086,10h-0.2001953v-10H34.7919922z"/>
				<path d="M75.125,970.125v-14h-2c-8.5512695,0-16.1386719,3.7285156-20.7998047,10H52.125v-10h-19v52h19.5v-20.5
					c0-10.0400391,8.1220703-17.5,20.5-17.5H75.125z"/>
			</g>
		</g>
	</svg>
