<?xml version="1.0" encoding="utf-8"?>
<!-- Generator: Adobe Illustrator 11 Build 225, SVG Export Plug-In . SVG Version: 6.0.0 Build 78)  -->
<!DOCTYPE svg PUBLIC "-//W3C//DTD SVG 1.0//EN"    "http://www.w3.org/TR/2001/REC-SVG-20010904/DTD/svg10.dtd" [
	<!ENTITY ns_flows "http://ns.adobe.com/Flows/1.0/">
	<!ENTITY ns_svg "http://www.w3.org/2000/svg">
	<!ENTITY ns_xlink "http://www.w3.org/1999/xlink">
]>
<svg  xmlns="&ns_svg;" xmlns:xlink="&ns_xlink;" xmlns:a="http://ns.adobe.com/AdobeSVGViewerExtensions/3.0/"
	 width="800.25" height="1050.25" viewBox="0 0 800.25 1050.25" overflow="visible" enable-background="new 0 0 800.25 1050.25"
	 xml:space="preserve">
	<metadata>
		<x:xmpmeta  x:xmptk="XMP toolkit 3.0-29, framework 1.6" xmlns:x="adobe:ns:meta/">
			<rdf:RDF  xmlns:rdf="http://www.w3.org/1999/02/22-rdf-syntax-ns#" xmlns:iX="http://ns.adobe.com/iX/1.0/">
				<rdf:Description  rdf:about="" xmlns:pdf="http://ns.adobe.com/pdf/1.3/"></rdf:Description>
				<rdf:Description  rdf:about="" xmlns:tiff="http://ns.adobe.com/tiff/1.0/"></rdf:Description>
				<rdf:Description  rdf:about="" xmlns:xap="http://ns.adobe.com/xap/1.0/" xmlns:xapGImg="http://ns.adobe.com/xap/1.0/g/img/">
					<xap:CreateDate>2005-10-18T08:31:30Z</xap:CreateDate>
					<xap:ModifyDate>2005-10-18T08:31:30Z</xap:ModifyDate>
					<xap:CreatorTool>Illustrator</xap:CreatorTool>
					<xap:Thumbnails>
						<rdf:Alt>
							<rdf:li  rdf:parseType="Resource">
								<xapGImg:format>JPEG</xapGImg:format>
								<xapGImg:width>172</xapGImg:width>
								<xapGImg:height>256</xapGImg:height>
								<xapGImg:image>/9j/4AAQSkZJRgABAgEASABIAAD/7QAsUGhvdG9zaG9wIDMuMAA4QklNA+0AAAAAABAASAAAAAEA
AQBIAAAAAQAB/+4ADkFkb2JlAGTAAAAAAf/bAIQABgQEBAUEBgUFBgkGBQYJCwgGBggLDAoKCwoK
DBAMDAwMDAwQDA4PEA8ODBMTFBQTExwbGxscHx8fHx8fHx8fHwEHBwcNDA0YEBAYGhURFRofHx8f
Hx8fHx8fHx8fHx8fHx8fHx8fHx8fHx8fHx8fHx8fHx8fHx8fHx8fHx8fHx8f/8AAEQgBAACsAwER
AAIRAQMRAf/EAaIAAAAHAQEBAQEAAAAAAAAAAAQFAwIGAQAHCAkKCwEAAgIDAQEBAQEAAAAAAAAA
AQACAwQFBgcICQoLEAACAQMDAgQCBgcDBAIGAnMBAgMRBAAFIRIxQVEGE2EicYEUMpGhBxWxQiPB
UtHhMxZi8CRygvElQzRTkqKyY3PCNUQnk6OzNhdUZHTD0uIIJoMJChgZhJRFRqS0VtNVKBry4/PE
1OT0ZXWFlaW1xdXl9WZ2hpamtsbW5vY3R1dnd4eXp7fH1+f3OEhYaHiImKi4yNjo+Ck5SVlpeYmZ
qbnJ2en5KjpKWmp6ipqqusra6voRAAICAQIDBQUEBQYECAMDbQEAAhEDBCESMUEFURNhIgZxgZEy
obHwFMHR4SNCFVJicvEzJDRDghaSUyWiY7LCB3PSNeJEgxdUkwgJChgZJjZFGidkdFU38qOzwygp
0+PzhJSktMTU5PRldYWVpbXF1eX1RlZmdoaWprbG1ub2R1dnd4eXp7fH1+f3OEhYaHiImKi4yNjo
+DlJWWl5iZmpucnZ6fkqOkpaanqKmqq6ytrq+v/aAAwDAQACEQMRAD8A9U4q7FXYq7FXYq7FXYq7
FXYqhtT1Kx0vTbvU7+UQWNjDJc3c5BISKFC8jkKCfhVSdhiqJxV2KuxV2KuxV2KuxV2KuxV2KuxV
2KsW/Kx3f8uvLruxZmsYSWJqSePjirKcVdirzfyzp2tRXXlUz21yiwXmvtdGRJAESW4mMBkqNg6k
FK9R0xV6RirsVedfmP5ovob/AEXTItC1SZf0zaFbiBbb0rj0Fa6KRFp1ev7mvxKv2T2xVS0PzfqF
z+Y+tyny3q6RtZ6VYlGW0pAUlu5mkkpcmgZbpfs1NF6Yq9KxV4n5/i0vWNG/MyPX72WTW9L0+/fS
NGeeSGKGzSwLw3MNurIk3qPyLSsGofg2pTFXp2ieStJ0PUGu9KmvLeB42jk01rqaazLFgwlEMzSC
NxxpWMrWp5V2oqn2KvPrfyx5b81ec/Nb+ZbGDWJNLubax020vY1mit7V7C3ufUhjkDKryTzSgyqO
R4ha/DiqWadrmpxeU18r6HdSSalf6pqOkaBfuxleHT7S5dJrss1eS2UdYkLV5OIwftYq9J0jS7LS
dLtNLskKWdlCkECkliEjUKOTHdjtuTuTirEvzIt7CbUfLia/H63lGW5kg1SJ/wDeY3MyBbH62vRo
DJySjVT1GTl2xVBeWtN8s2v5jPD5KtIbLSbGxuIPMSaeixaebxpYTaxCOICE3MapMXKjkqkBvtCi
r0XFWN6Tb3qefPMU8kUi2ctnpi28rKwjZ0N16gRj8JK8l5U8RXFWSYq7FXYqxr8tLS6s/IGgWt3D
Jb3MNlEk0EqlJEYLurKwBB+eKslxV2KuxV2KuxV5r5x8weY285+V7WPyvdyrZajeXVs63NiouFis
Lm15JymBUcbrlR6H6dsVXeR9c8wXXnHzTLN5buoIp9St7ae4e4s3W3EGn254twmZm+KQmkYYb+NQ
FXpGKsG/OfRtE1T8sfNM1/ZW95NYaRqM1nLNGkjwTR2sjB42YEowKjcYqutbW68q+bdH0mz1C4vN
D1tbmJdOvZXupLSW2i9YSw3Epeb0So9NkdmAJTjx3BVZvirHvMnk3ynqkzarq0TwzwQlJ763urix
c26VcpNLbSQGSJak8XJXrtirzvStPubufRLrTuegWnmeU2Oki2VYpbLy9Y28lzFDCGBEU17IgkkI
HII1PtICFWY6XBf+XvPNroiald6hpGr6fdXkUN9K1zLbXFjLbxsUmespjlW7FQ7EKyjjTliqjqum
nzr5k1fQNTmkj8r6OsEN3pcLGJr+e4jE5NxIhEn1dI2VRGpAduXOqjjiqVfpf/lVWlS6NexmTy3F
DO3le/RSWWRVaRNMuAo+KVj8Nu/WX7J+MVdVn3lu31G38vaXb6nK0+pQ2kEd9MxqzzrEolYkdSzg
nFUxxV2KuxV2KoXStP8A0dpttY/WZ7z6tGI/rV2/qzycf2pHoOTHuaYqisVdirsVdirsVS+60S1u
dasNXkeQXOnR3EUEYI9Mi69PmWBBPIeiONCOpxV2k6JaaXJqEkDyO+pXb3twZCD+8dEjovELRQkS
gfrxVMMVYL57/K601zR/MK6Ncz6TrGtWVzBKYbiSKzuJpoDEpuoKSxEGoDusfqce9aYqnmh+S9L0
q/bVGnutS1d4zAdR1Cdp5ViJDNHEvwxRKzKCwjReRpXoMVT7FUs8yeX7PzBpMmk3skqWVw0Zuo4S
q+tEjh2gclW/dyheEgFCVJFcVWeYvLVlrlnBBLLNZ3FnMtzp9/aMqT206KyCSIusifYdkKurKykg
gg4qhdA8oDTdTm1i/wBTuta1maEWwvbwQp6VuG5mKGK3jhjRWajMeJZiBU7CirWteTo77VBrGn6l
eaJq/pLBNd2JhYTxRlmjjnhuI54ZAhduLcQ4qaMMVS+4/LHTtVP/ADtepXvmZFVhFa3xhitY2deP
Nbe0itkLqCeDycmU7qQcVZLo2nNpml2untd3F/8AVYxELu8ZXuJAuwMjosYZqbcqVPU1O+KozFXY
q7FXYq7FXYq7FXYq7FXYq7FXYq7FXYq7FXYq7FXYq7FXYq7FXYq7FXYq7FXYqkPkXzhY+cPK9p5h
sYZbe1u3nRIZ+PqA21xJbtXiWG7REjfpiqfYq7FWIaT+ZelanJpKRWs6HV9U1DR4OfD4ZdNS4eR2
ox+BhaNxpvuK4qy/FXYqkvmnzVZ+XYdNkuopJv0nqVppUCxcaiW9lEaseRHwr9pqb0xV0Pmqzm85
XflVIZDd2dhBqM1xQeiFuJZIkjrWvP8AclunTFU6xV5t+ZP5y6d5bttd03RrS81jzJpWnzXc6Wds
09tYt6LSQyX0paJEj25MA3Lj26YqmHkX807HzHJZ6Ze6bqWj63cWouUg1C0aCKdVVTJJbyqZYnSr
VHx1p2xVnOKsK1/8yLm08xXHl7y95evfMup6fDHcasLSS3gitUmBMSPLcSRqZXUcljXfjviqZaL5
+8uap5Qk81iV7TS7ZJ31AXS+nLatalluIp034vEyEECvtUUxVMPLOtNrmgWGsGzmsBfwrOlpc8RM
iPunMKWAJWhpXbFUr87+frHyr+jrb6ldarrOszNBpOkWKq087xrzkasjIiRxru7s2wxVAaB+ZU91
5kt/LXmLy/e+WtZvYZLjTY7l7e4guUgoZVintZJU5orBmVqbYqzbFUqs/MVrdeZdU0BInW50q2s7
qaU04Mt806oFoa1X6q1ajuMVTXFXYq7FXmv/ADjj/wCSd0X/AIz6l/3U7nFXpWKuxVhGi/ljBpcm
jOuoNL+h9X1LWVBjC+o2ppcoYj8R4iP659rvx6CuKs3xV2KvH/ze8r3955o8nxJ5k1WFNU8wQtHZ
xmyEFqLW0nm9W35WzSeoGjFPUZ13O3Siqh5O8n6lL+bnnB2826zI2jx6PbtKzWBe4VopLow3FLQL
wHqCgjCNRjU7iir2fFXhX5laB548paV+Y99pNhBrnlfzZZXdzfkTLb3unytYtBLKQ44TwhV5cVIc
dKeKrOPyt/Mjyx5g02z0O3eaz17T7G3N1pF/C9tciMRqvqorikkZ7MhI3HjirPcVeaTS+ZPJ3n7z
Nqi+Xr3XtG8zfVLq3m0sQvNBc2lqlq8E8cskJ4usSsrgkCtDirz71VhS70Xzg66Vo/6Ul82efIEb
6wkbX1wG0zRf3QYyySlUllVF+ILt9rFXtHlf8w/LPmS9uNPsJLiDU7WNZ5tOv7aeyufRc0WZYrlI
2aMnbktRX5jFWGfnlf2+mXnljW9KuBL560q6kfQNDRHml1CG4QR3lt6cQZ0Vo1B9UjihUVxVD/l5
qF75+19fzI1uWLT7Py8t5YaZ5ajLPcWUrEJdy6gzLGwnZI6CPjRVodzuVXqWia1put6RZ6xpc31j
Tr+JLi0n4unOOQVVuLhXFR2IriqDsfLiWnmvV/MInLvqtrY2jW/GgjFi1wwYNXfn9a6U2piqc4q7
FXYqwz8nbLRrH8vNNttG+uDTklvTD+ko1iuqtezNJzRdgPULcPFaHFWZ4q7FXYq7FXYq8e87fl89
5+anlDhq2uehdSave3Ekd7KEtStuqqsDdIAxuOAUdV26A4q3+WXkF083+b9Wm1TWh9V1xILcT3kt
LqO1s7ejXAP9+tWKgn9kU7Yq9gxV5J+b3n++sPK3nPQtW8t6lDbXGl30Ol63axG8splls2VTO8NW
tmDsQfUWlBy5UxVL/Kj3/nLzj5C1jT9CvLDSfKWnzi91rUbdrT6011ZC3jt7VXpJKgYmQuV47be6
r2vFUl85+Y/8OeWr7V0tZb64gQLaWMCs8k9xIQkMSqtT8UjAE9hv2xV5hrfkrUfLHlfyxrWoQNrO
oWPmGLzF50e2iMrySzRSxyXEcagu62byp6aqPsJWm2KprYa/pvnf82NB1fyys1xpPl/T79dU1gwS
QQyPfeiILRGlVGkZTE0jACi7b1JGKofVNVg8k/nFrPmXzPa3B0PW9Os7XSddigluYrI2xf6xay+i
sjxCZ2WSvHiaexoqw38xtU/xNf3Wp/k1DqF55j1K0msvMc1vaywadPZmB1DTyXIgQ3cdR6DIS37J
22xV7V+W91os/kbRU0ZZotPtLSG0iguo2huIvq6CIxzRtusi8fi8eoJG+KskxV2KuxV2KuxV2Kux
V2KuxV2KuxV2KuxVD6jp9lqOn3On30K3FleRPb3UD/ZkilUo6N7MpIxVUt7eG2t4reBBHBCixxRj
oqKKKB8gMVVMVdirsVdirsVdirsVdirsVdirsVdirsVdirsVdirsVdirsVdiqncXFvbW8tzcypBb
wI0k00jBEREHJmZmoAoAqScVdb3Fvc28VzbSpPbzoskM0bB0dHHJWVlqCpBqCMVVMVdirsVdirsV
dirsVdirsVdirsVeS/8AOM/mLXde8h6hea1fz6jdR6xdwJPcOZHESLHxQFv2RU0GKvWsVdirwGy8
3+aH0by9K2q3JkuPzIl0udzK1XsRJdAWzb7xfAvw9NsVe/Yq7FXhH57fnh5Z0i80zy5p3mCWx1ux
12w/xBHCl3GYtPoZLgtIkfGROLJVY2LGuw2xVBaT/wA5F+R7z86LmX/E0x8qTaVBY6ZAYbwQyajJ
chmYQ+jVW4njzdR86Yq+hMVfOH5leaPPfnTUvzM0HTdaTy/5b8laVM17YpBHLc6lztZXdWdzyjjP
plSU7EbEnZVln5I+XPzP03RPKV7N5og1byde6RbSy6TdWqxXNoJLRWgjtp46l1QlVPqH7I6VNcVe
x4q8bvrXzF5//NrzX5ebzNqfl7Q/KFvp6W9voswtZri41CA3Bmml4uzKlOPDp0/yuSqA8v8A5ueY
dJ/LDXP0lMNb82aTr135U0OQKofUryNlW2fiKA7SVbxCnvir1byNomraJ5V07TtZ1KbVtXjj5ahq
E7mRpJ3JeTiT0RWPFB/KBirz/wDPfzL5hs9Z8k+WtO1p/Lem+Zr2e31TXIVHqxCJYzFCkjCkbTNI
QG67eFcVSRG8xfl/+cflLyppnmvVfNOn+YI7k6tpeszre3FrHEnKO5WYKjIpPLt0Ujwoq94xVgGm
6vqkn5463pL3UraZBoNlcQ2ZY+ksz3MqtIF6BmVQCcVZ/irsVdirxj/nFGCeH8utSWaNo2Ot3pCu
CpoVi33xV7PirsVU/qtsAAIkor+oo4jZ/wCYf5XviqpirsVfOf5x/m15bn8/eTtONrqXHy5r0txq
I+pyfvGs1aMG32rN8VT8O1N8Vd+XP5teW7v88PON/wDVtTCeYJNG07SlNnIPTKQmKQ3Ip+6HqsCC
x+zvir6MxV5B+fH5ReTda8t+YvOBjmsPMenaTeTG/sZTC06wWzMIblaMsiMq8G25Fdq0xViX5V+b
vzB8mXv5d+XPMF7DrflXzppcLaHKIxFdWDx2scv1c8f7yNBKiVbcjeooVKr6MxVgfm38odM13zGf
MthrOqeW9cmtxZ3t5pE6wm4gX7Kyq6SAsv7LChH0CirwuN00Z7TW/JlqlxpOnasnlT8vpL9jLHd6
xqLML/WLhl4mT+7McbD4fADjTFXrGleYPzJ8qfmN5f8AK3m/V7XzHpvmqG6+pahFaJYSW11ZRes8
bIjOro6bKTuT4U3VSj83J7/8yPNz/k7pMVtbwW1vFqnmDW7qP1Xtk5KYls46r+9PMVavRiPHFWK+
WtQtvyS1PzLYecbcSa7f211eaB55l9SY6ksUfNbSV5GkMcqsi/ADRjT/ACSyr3D8rdY1/Wvy90HW
Nf4fpbUbRLq49NPTWkxLx0Xt+7ZcVZOIohIZQiiQjiXoORA7VxVdirsVdirHvI/l7zBoOkzWeua/
J5ju5LmSeO+mhEDJE4XjDxDy1CUO9e+KshxV2KuxV2KuxVifmDyIdZ8/eVPNjX3op5WW/Edh6XL1
21CAQFjLzHDgFrTia+2Ku8meQv8ADeu+atXa9F5L5mvxfFBD6XoKqcEi5c5PUp/Nt8sVZZiryH8z
PyV1XUrfzNqnlHzDqWnajrdpcfX9CWVJbG/la2MQj4TlVhaUKsZfl8I6UxVr8p/yNfQ30DzJ5r1O
81bzLpemw2tjY3Lp9W0wGARvBAsZdWMYrHz5UPXrvir1/FUk866Fqmv+V9R0XTNT/Q11qERg/SIi
9do43NJOCc4viZKqG5fDWuKsf8y/lFoWq/l9YeTdPnk0iLR2t59Fv4AGktrm1NY56HiHYkty3Fan
cHfFUD5c/LDzQfOdh5u87eZF17UdGt5bfRbe2tFs4ITcrwnmYBn5ySJ8PYfhRV3nX8pNS1LzhF52
8o+YZPLPmgW31O8m9BLu3uoAQVSWF2UbUG+/QbVFcVSbW/yM80edikH5jecpNU0m3YyW2k6ZZxWE
YmKFFleQmZ3K8jQH+JGKs/8AIHlzXvLflu30bWdb/T8ln+6tb9rf6tL6CgBEl/ezCRlG3Pao6iu5
VZHirsVdirsVdirsVdirsVdirsVdirsVdirsVdirsVdirsVdirsVdirsVdirsVdirsVY75N/MPyf
5zivJfLWofX49Pl+r3bejPDwkIrx/fJHXp1FRirIsVdirD3/ADc/L1NNn1JtWpZW2qnQJpfq9z8O
pChMHH0uR6j4wOH+VirMMVdiqR+bvO3ljyhYW9/5ivfqVpd3KWVvJ6Usxe4lVmRAsKSNuI23pTFW
/wDGnlr/ABd/hD65/wA7ELX6+bH05f8Aeblw5+rw9L7X7PKvtiqd4qw38x/zW8oeQ9KubjVb+3Gq
LbS3Gn6Q0vCe5dFYxxqFWRkWR14cytBiqD/Lf86vI3nmysls9StrfXbiFZLjQ2mrPFIV5PGnNYjL
w7si4qz7FWE+evzl/LzyPfQ6f5h1P0b+eMzJaQxS3EgiFf3jrEr8F+E/a8MVT7y75v8ALXmPQI/M
GjahFdaPKrOLsEoqhPt+oHCtGVp8QYCmKu8p+bvL/m3Rk1ry/cteaZK7xxXJimhDtGeLcRMkbMA2
3ICmKqHnPz55S8l6WNT8y6jHp9qzcIuQZ5JH68Y40DO58aDbvirHPJv5+flX5v1dNH0XWQ+pygmC
2nhmtzLQVIjMqqrNQfZrXFXoWKpOnm7y8/myTykt3XzBFZ/pJ7L05drUyCL1PU4+l9tgOPLl7Yqn
GKuxV2KvnX/nDb/jlecv+2qv/EGxV9FYq7FXhE35D+b38p6jo4vNP+s3fnVvNEbmSb0xZEKPTY+j
X1vh+zTj/lYq93xV2KvmX/nJaz/Mq680eV9KfU9OOiatr1qvlyz4OJorlQsSyXLBfiRXnP2a7HFU
t8t6X+dV5/zkJ5h9PV9I/wAT6Tpttb6nfNA/1VrWcQTKkKcOQk4kfER44q+rMVfHX5z6Vc+V/wAy
/O+u+bvLs2taT5i0y4tfLmshBNDaXM1sIrdjy+BGiYcd6Mv2kr3Venf84/W35Ma9ofla+0yLT288
6BZILoxJ9XvBKYTBM8qUjM4o5HMhgDShrir3fFXz1rfmGy/Lj/nIPzJ5n816fctovmHTrWLRtVgg
e4VHhiijkt/h+yZHiO3+rXY1xV5/5cutdPlK58hWkbeXG8/6vd6xcLcARDTPLYCCSaQNxEYlETIl
aBlX/KU4q+mfIPmL8t59Nt/L3k3V7C9g0m3SKOzs7iOV0hjAQOyqeRqerdyfHFXl/wDzlTotxajy
p5/Vba8tPKd6HvNJu3VFuEmliYBA+zEmHiygE0NaGhxVjUGqy/nZ+Z/lrzboel/oXyh5ImS51LXL
z045ZZImjuTA3FiOKekAN6KrMxpUDFX0zYajp+o2kd5p9zFeWctfSubd1ljbixVuLoSpowIPvirD
LfyHq8f53XPntprc6RNoA0hYAz/WfXF0k/Irw4cOKdeda9sVZ3irsVdirxP/AJxi0nynp2neZ18u
+YH1+OXUA9272Ulj6MnE/uwJHk5/6wpir2zFXYq7FXYq7FXyv+cHlP8AMm4/OXyjpjecPVk1TUL6
+8u1tYwNLRGEiDr++4ooX4v5ffFVP8pPJ35lah+b3nS7h85cLzRb+yttevjZof0kiM4aIA0EXFbf
iePiDir6sxV4T+cP566Fpll528j69pt9pl1cabd2uh37xM9te/WLMopVgAV/fOVrQrtUkdMVeP8A
5XQaZ5j/ADK/LiTyNpU9teaDZ25846nGhhgdo1pKWptVkqhY7yFqb9Sq+1sVSvzT5k0vyx5d1DX9
Vk9Ow02Fp5jtU8fsoterOxCqO5OKvlrzz5W8y3n5N63+ZWtwyfprzdf2d3qNvGSWttBV/wDR7dR2
WvpOfbjy3BxVPmu/y11D87Py1P5UxWwkt47l9bfS4vSRbIxKIxc0UDnx9QNz+LcA7lcVU/zfv9Jt
P+cjtGm/MqN5PIUdoDpAmR5LL1uHxNJGgYPSc/GKHbhy+HFWG/mpr/lHRfMN7e/k1rf1mTzTaXNp
5i8uWMEslv6ckL8riKihFKhmai7oakfCSMVfQX/ONl75al/KDQbLQ79b36hEU1BRUPDdzO1xNG6n
cUeU8T0I3GKvT8VdirsVdiqC0zRNF0pZV0uwtrBZ25zLbQxwh2/mbgFqfc4qjcVdirsVdirsVQs+
k6VPfwahPZQS39qCLW7eJGmiDAhhHIRyWtd6HFXWmlaXZT3M9nZwW094/qXcsMaRvM+/xSMoBdtz
ucVRWKpf5g0LTdf0S+0bUo/VsdQgltp1GzcJkMbFTvxajGh7Yqt8t+XdL8uaFZaJpcZjsbCJIIFY
8m4oAoLN+01BucVTLFUNqOmabqVq1pqNpDe2jkF7e4jWWMlTUEo4ZTQ4qrvDE8TQuitEylGjIBUq
RQqQdqUxVL9H8seWtFaVtG0mz0xp95zZ28UBc9fj9NV5fTiqI1HStL1O2NrqVnBfWxIJguY0lSo6
Hi4YYqhdF8q+V9C5foTR7HS+Y4v9StobeorWh9JV774qq6Z5e0DSXmk0vTbWwe4p9Ye1gjhMnGpH
MxqvKnI9cVR+KuxV2KuxV2KuxV2KuxV2KuxV2KuxV2KuxV2KuxV2KuxV2KuxV2KuxV2KuxV2KuxV
4l/zjf8Amx5v8/X3m6HzDJBImjy2iWXoRCKgma5D8qE8v7lcVe24q7FXzNq35+fmFa+SPPOsRTWw
vdA8xLpWnkwKVFsZHWjrX4moo3xV9JWEzz2NtNJ9uWJHamwqygnFVfFXiH/OQv56P5Os7PT/ACpq
1j/iT68kOpWsvGZ4IDEzVkjr8HxMhqcVQR/5yL05vztGip5h01PIMdl6kl+SnBrn0q8BcFqfaYfd
TFXvmKvnj82Pz585yecNU/L38vtGivb2ytpf0rf3BPwKsXOZogJIlQRK1Obtu2wXpVVjv/OM/n/8
2Y7bR9Jm0JtX8o6nezR/4gZ5XmgcAtJ6snKUBV4fCrotenLfFX1Tirwvzt+YX5r67+bt7+XP5dzW
OlyaLZJe6jqN+nqczIkbhRVJQF/0iNQAla1NaYqv8hf85CzS/lZ5h8x+cYIodY8rTvY3UcB4pdTk
AQKg+LizueDUqBTlsNgqz38oNQ886r5HstY86NENW1Ot1FawxeiILaQAwxstSSxX4zXcVp1GKsN/
5yD/ADj8yeSrjQvLvlW2hk1/zC5WK7uhWKJeaxIFBKqXZ36seKgbg12VYXqn5tfnl+WPm/QrD8xZ
tM1rSNbahaxULIiBlSQoVSA84zIpoyEN0B7hV9NYq8vufzB8xx/85CWvkZXi/QMujm/dPTHq+sC4
r6nWnwjbFXqGKuxV2KvmD/nC3/jqfmF/xnsP+J3uKvp/FXYqxWb8rPy9msNQ0+XQrZ7LVbkX2oQE
NxmuQSfVff7VWOKsojjSONY4xxRAFVR0AAoBiq7FXxp/zkZq35N6j+ZGjfo9ka/j1aWDz5c+neKU
S2lhgZWDJR6KkorBX7PeoxVLfJsf5Aal+emsW93FE3ke9hitfLVrwvwr3shto1oAPWWrerUy0Xf5
Yq+3cVfM/wDzkX+T1xo82s/mx5W1qXTL5I1/S1kKgSCbhbOY3U7c1Yc0cENuajpirGfyI/NHzX+X
N55b8j+Z9HRPL/mgwXmj36keqqamV9KXkrNG8ZZl5KeLJvXwxV9fYq8f8/fkl5mvvPz+fPInmb/D
mv3lsLPU/UhE0cyKqoGFeQHwRoKFTuoYEHFXz1qWm6T5Zvr7TZZZPMflnyTeLqPmac0jj1TXpyIY
bSv7zjFFxYNy5GgmP7SjFXtXlr8+vzDtPNXlfSvP3la30nTfOIRdEvLSRiweUqIxIheXvLGGU8Sv
IH2xVJf+csNV8u+Yb3R/IOm6XNq/n95Fl057dgn1VJ6ckdmBD+qqVK7BQA5YU3VeaaLqC6B+YWqX
n51ve33mzy3YGfyzaX0nOyuZrWNngjaRQ9RIygxsPhZq8qtsVX1Z+UHn698++R7XzPd6cNLN3LMk
NushlVkhkMfMMVTqysOnbFU+byp5cbzInmZrCI69HB9VTUaH1RDueFa0p8RxVNsVdirsVefflVpP
5q6fca23nu406eGZ4TpA0+OOMqqmX1fV4RQ12aOla98Veg4q7FXYq7FXYq8U/MP8hovMX5qeWfMF
jpOlRaBaStc+Y4jFEkl5K8pkYyxiJhPyp8XqHepxVZ+Wv5BQaF+Y3mzzBrej6TLpV5dCbyxbRxxy
/VEWd3VkjaJVgYLwpw6dMVe3Yq+bP+cgvye8/GLzT5p8ueYbq603WBA+reVxHI5l9P0oU9JY+auV
EakVQMAPtHFVP8p/+cdvNN9qXlXzn581s3Uek2dlLo2iBZA8EcKLJbQTeosfp+iackVTVq1Piq+l
8VSTzsnmqTyrqUPlQwr5gmhMVhLcsUijdyFMpIV941JZRTcgV2xV5ev/ADjpbf8AKjJfIS3SRa7d
smoXeqHkyPqIYOSx+0Y6D0gaVp8VK4qkuh/lB+cPmHzb5PvvzCu9Ng0nyKyPpy6eWaa5kiaNkZ6i
g5G3j5H4dhstSTiqYfm5+R3nTU/zCs/zH/L/AFW3svMVsiLNb3dQpaNDEHjbjKp5RHgyOtKd96Yq
xfzL+R356/mheWZ8/ajo+l2mnq6wSWkIlnJYD+QKSrEbgygDqFxV6l+Rnlr8yPKflpfLHm1NPmst
OHHSb2xkYuYyxJiljMcfStQ/U999yq9LxV2KuxV2KuxV2KuxV2KuxV2KuxV2KuxV2KuxV2KuxV2K
uxV2KuxV2KuxV2KuxV2KpPo3nLyhrd1LZ6Lrmn6ndwKXnt7O6huJEUEKWdI2ZlHI03xVOMVdiqRH
z75GWG+mPmLTBDpciw6nKb23420kjFESdudImZ0ZQGpUgjFU4tLu1vLWG8s5o7m0uY1mt7iFg8ck
bgMjo6kqyspqCOuKquKpdrfmTy7oNvHc65qlnpVvK/pxTX08VsjPQnirSsgJoCaYqpnzZ5WGrw6K
dZsRrNwokt9N+sw/WZEKlwyQ8vUYFAWqB03xVNcVQeraxpmkWMl9qVzFa20SlmkmdIwaAmgLlRXb
xxVin5W/m95X/MnTru+0KO5thZTehLb3qwpMfhVuapFLN8HxUqT1xVm+KpP5h84+U/LcccnmDWLP
SlmqIfrc8cJenXgHILU70xVH6dqem6nZRX2m3cN9ZTjlDdW0iyxOK0qroWVvoOKobRvMvlzXBOdE
1Wz1QWzBLk2VxFcCNzWiv6TNxO3Q4qiNT1bS9Ks3vtUvILCyi/vLq6kSGJf9Z3KqPvxVJ9C/MXyF
r939S0XzFp2o3m5Ftb3MUkpA3JCBuRA8QMVZFiqXv5h0CPWY9DfU7Rdalj9WLS2njF00YBPNYC3q
FaKd6dsVTDFXYq7FXx//AM4d/wDk0/NP/MBL/wBRkeKvsDFXYq+Sbn8nPzLfy1+bVouhym48w6tY
3OjR+pDW4ihvrmWR1+Og4pIp+KnXFX0r+XWm32l/l95Y0y/iMF9Y6TY213ASCUlhtkSRCVJHwspG
xxVkOKvjb/nLrzH59vfMVv5d1TS4rby5DdNJ5evUR1lu2EMay8mMjI3BpqbIuKsZtvNf5wT/AJ7R
63B5cgk896ZB6Q0MRzGGONbP0N4zPz/uZeX971P0Yq+67V5ntonmXhMyKZUHQMR8Q798VfD358ag
dV/Py+07z1fXdl5csnEVr6C8zDbG3DxNCh5D97JQuwBO52NOOKph/wA4uflZpnmbUrbzSuuGz1Xy
7qkcsmlIVLT20apIp+FlkVWkqpJBVgCMVfauKvkP80/8ID/nKC9P5oer/hH6hEdP5+sY+H1NePH0
P3nD6z6v2f2+u2KsQ/Ln8xde8ufldr3lzQTPLqXmvVI9P8tQA/GnqJwupU8HKvDGN/tGo+ycVfWf
5O+RNI8ieSbPy5aSxT38Y9fV5o2DGS7kA9VjTfitOC1H2QO+KvFf+c19M8xyx+XNRVJpfLFsZUvB
EfgjuZGXi0goQC6VVGNabjvuq8h842PkPV/OPlu0/JKy1Aai8cTyqzSl1vOSshUysxVoqEyOD6Y6
g0BOKvv23EwgjE5DTBVErL0LU+Ijp3xV49qnknzTN/zk7pHm6OwdvLtvpL202ock4LKY5wE48ufW
Rf2cVeyYq7FXYq+af+cZvJelaH+YPmC8s/NOl65LPaSI9nYNMZYgblG5P6kca0BHHY9cVfS2KuxV
2KuxV2Kvib/nIA/m5f8A5taTpGsNDJI2pS/4IgU24/cXN4I7Yycehb04wTLvtviqG/Ln/ldWofnr
rF7p7QTebrSRovMshNrwWBJ44LhU5fu6jgF+DfbFX3Fir5P/AOcpPzO8i6suv+TLjSCPNOiy2q6Z
rJjR+SN6cs8Yk2kjoJGHHdWpWvTFXjXkwQw/mR5L/wACz3j6nI1h9d5DiVvWb/S44+NOUHD7XLty
rVd8VforirH/ADnoHkbUNLlvvN2m2N7YaZHJcPPfwxyiGNF5yMGcEqKLvTrir5B1mz1TzD5V83/m
7ZWn6H0iwMWj+TbK2jWFLa0e4WKaSJY+KpRJWUlducj03XFUq0+Dy35V1P8AK3WvIetyXXmfVWT/
ABFaxzCQxzPNCvoPEgDKJDJIhRvtBQe9Sqzj/nKLzfq99+amneSdb1CfR/Iw+pyXbwgkSxzPWa5Z
QP3npbqq7gFa0rirzzz2dH/LjXr1Py082RatoXmLT5rO7hjkEs0UUq8XjmdFVK1PKNlow3BFPtKv
pL/nERrE/lOPS1Fb6/mvp7jUYeZeS3duMUcbhviHKOFWHY12xV7ZirsVdirsVYr5U/K3yD5S1K51
Py7pEen314hiuZ0eVy6M4cikjuPtKDsMVZVirsVdirsVdirHta/L7ydrfmHTvMeqaZHda1pPA6de
M0gaIxuZEoqsENHNdxirtC/L3yboOu6lr+kaZHa6xrDO+pXitIzStLIZXJDsyjk55fCBirIcVYJ+
bP5Q+XvzF0J7G7WGz1Osf1fWhbxzXMSI4dkRiUbi4FCOWKon8uvyp8oeRtKtLfTLC2OqQwLBdayI
ES5uCAAzM/xMORFSvKmKsyxVLvMXl3RvMej3Gjazb/W9MugouLYu6BwrBwCY2RqclHfFVOy8q+XL
Hy4nlq20+FNBSE2w04ryhMLV5IytXlyqeVevfFWM+WPyL/KjyxrS63onl6K21OMsYrhpbif0y1am
NJpJEQ79VAxVOfOH5d+SfOVvHB5m0iDUlhqIZJAyyxg9Qk0ZSRQe4DYqx7Q/+ce/ya0S6+tWPle2
aahWt0894oBFDRLqSZR160xVNvKn5T/l95S1KXUvLekLpl5MhjmeGWfi6E14tG0jIRXcfDt2xVlu
KuxV2KuxV2KuxV2KuxV2KuxV2KuxV2KuxV2KuxV2KuxV2KuxV2KuxV2KuxV2KuxV4F+UP/OSWt+e
vzEbyrd6NbWduI7mT6zFJIz1g6Cjbb4q99xV2KvnaT/nKDXkt/zAl/QlqT5OkjS2HqSfvw+orZfv
PD4X5bd8Vev/AJW+cbnzn5B0jzNc26Wk+pRu728RLIpSV49i2/7FcVZViryL8+fz1b8trbTRplva
6pf3k0kdzaySkNCsaKwLBCWBPMUriqRRf85KXb/mnpHk36np/wCj72G0e+1T6yeMTz2i3MoBNE+A
txFTX6cVe9AhgCDUHcEdCMVeL/m9/wA5PeWvy/1l9AtdOk1vW4AjXcKyi3gh9RQyq0pWUl+LBuIT
6cVeV/kx/wA5ReY5fOkmnebmu9XttduYbXSYYFgrayzTFFWnGIup9RVJ5V26HFX15irw382v+cid
Y8ted18jeT/L51/zAkaSXKn1Hozxev6UcMI5uRDRy3LYYqmf5Yf85F6B5t8j655k1e3/AEPL5aRZ
NWhD+ohSRWMTRMQpJlaNlVOvLbeoxVNvyP8AzJ80fmHoN35g1XSIdJ0tpjDpQjd5JJglfVdiwUcV
NFBHUhulMVQX55fn3pv5YxWdpHYnVNc1BGlgtS/pRRxKePqSvRm3bZVA3odxiry+w/5zE806Zqlt
H5z8nmx067pLHJD60Ewt2PwyxpcDjMPkVBxV9P2F7a39jb31pIJbW7iSe3lHRo5FDIwr4qcVeZ+Y
Pzh1LS/zx0T8uY9PhkstVt1nkv2dxKhZJmoFHw/7pH34q9TxV2KuxV8Qf84sf+T5f/jBf4q+38Vd
iryR/wDnGXyG0XmqI3+qcfN7q+pH1besZS7W9Hof6P8AD+8Wnxcvh998VZ/5J8oab5O8rWHlrTJZ
prHTkZIJLlkaUh5GkPMosandz0UYqnmKvhH/AJyhsvKJ/Mu5v9E1pdQ1C/nlj1u1pRbKe29O3EZN
PFGr8sVYxpfk38vrz805fLkvmUw+Ug8iQeYCq1k4xVSi9Pjl+HFX6I2sAt7aKAHkIkVAx6kKKVxV
8Z/85Lfl75o8l/mEfzKsZYpNM1DUIZbSZwkjwXyx+oI5IZAVdT6DMpoRTY+6rGPyN/Mfy35b8+TX
XnHRkvV1i6t7iLUCi+pYXHqNIlzGjDlxPrVPFgePTl0xV974q+dfzX/Jv80Y/wA3E/Mz8upbefUZ
kUSwTtGjQyLa/UyQJv3bo8I8ag9sVfPWreXtW8qTXvkbVL9Y3uJLfUPOL2pEwgitgzQwepVVkkHr
livLi0jRrXkMVe9+Qf8AnK3yJZHR/LX+G7rQfLahbLT9QeRZUREPBXkUIvf+8ZWYg+OKpb/zmrZ+
TZE0e8k1H0vN8KGOHTUXn6tkzkl5CP7rg/LgT9rcUNKqq8L1Hzhq/n3UbFPPmum3stAsTFB+5rO6
QgVhiVQqtcTUHxSso23PQFV9sfkf+YXlvzn5NVvLmn3WnaVobR6TBDd8C3G3gj4gFGcGiMoxVF6r
+UXlvU/zL038w57m8XWtLiEFvbxvELVlVZFq6GJpCf3x6SDtirN8VdirsVeBflDpX5m2/wCYjTa/
+X+h+X9J9O5A1fT7G0t7nkfsL6sUjvR/2tt8Ve+4q7FXYq7FXYq+UPzh/wCccdV1L827K78t6Nc3
GgaxOl55jv8A6xFRJ7u9ka64CQqyhIiGFAeuKoT8vf8AnF+8m/NPWE8yaNd2Xku1e6k0Sczx85PT
ulForGN3aphJY1HbFX11ir40/wCcs/JHnvTdbvvNN5qKz+UtavrZLexjlkAiuYrRo4vUt2+DkIop
KOpPU9K4qhfy/wD+cd/zO893/l/XPNsiW3lhLSy+qzyyxSyyaZFEpt4YIYS/ENHQfvOJFSSCdiq+
1cVSfzjqWuab5Y1G80HT21XWo4T+j7BSq+pO3wpyLsg4KTybfoDTfFXz35Z/5xx8zXn5SebH134P
zD81OLhjcOrFBb3K3KxO6ErW4kQs5rTdf5cVefwfk5+eHm208qeSNX8vDSNH8tPdxrqsnBQsV5OJ
Z3dldllKlaJ6Y3792xVnH/OSX5E+f9c88jzp5Vtl1WKSGAXFmGjE0UtuOIKxykLIjKqmgqa12pir
B/NX5X/n9+aHmKK/1fylbaXfpCIp78KlmkqoPgM3KRy7CnEFVrTboBRV7B/zjRYfmZ5P05/KHmfy
jJY6Y0slxbaxE8DUlfd1uVWVmYHiAjqNtgRTcKvfMVdirsVdirsVdirsVdirsVdirsVdirsVU57e
3nQJPEkqA1CuoYV6VocVXoiIioihUUAKoFAANgABireKuxV2KuxV2KuxV2KuxV2KuxV2Kv8A/9k=
									</xapGImg:image>
							</rdf:li>
						</rdf:Alt>
					</xap:Thumbnails>
				</rdf:Description>
				<rdf:Description  rdf:about="" xmlns:dc="http://purl.org/dc/elements/1.1/">
					<dc:format>image/svg+xml</dc:format>
				</rdf:Description>
			</rdf:RDF>
		</x:xmpmeta>
<?xpacket begin='﻿' id='W5M0MpCehiHzreSzNTczkc9d'?><x:xmpmeta xmlns:x='adobe:ns:meta/' x:xmptk='XMP toolkit 3.0-29, framework 1.6'>
<rdf:RDF xmlns:rdf='http://www.w3.org/1999/02/22-rdf-syntax-ns#' xmlns:iX='http://ns.adobe.com/iX/1.0/'>

 <rdf:Description rdf:about='uuid:1c6094d8-48f6-11df-96e1-001124740a56'
  xmlns:pdf='http://ns.adobe.com/pdf/1.3/'>
  <pdf:Producer>Adobe PDF library 6.66</pdf:Producer>
 </rdf:Description>

 <rdf:Description rdf:about='uuid:1c6094d8-48f6-11df-96e1-001124740a56'
  xmlns:tiff='http://ns.adobe.com/tiff/1.0/'>
 </rdf:Description>

 <rdf:Description rdf:about='uuid:1c6094d8-48f6-11df-96e1-001124740a56'
  xmlns:xap='http://ns.adobe.com/xap/1.0/'
  xmlns:xapGImg='http://ns.adobe.com/xap/1.0/g/img/'>
  <xap:CreateDate>2006-01-25T10:39:25+09:00</xap:CreateDate>
  <xap:ModifyDate>2010-04-16T01:20:25Z</xap:ModifyDate>
  <xap:CreatorTool>Illustrator</xap:CreatorTool>
  <xap:MetadataDate>2009-06-04T11:00:36+09:00</xap:MetadataDate>
  <xap:Thumbnails>
   <rdf:Alt>
    <rdf:li rdf:parseType='Resource'>
     <xapGImg:format>JPEG</xapGImg:format>
     <xapGImg:width>196</xapGImg:width>
     <xapGImg:height>256</xapGImg:height>
     <xapGImg:image>/9j/4AAQSkZJRgABAgEASABIAAD/7QAsUGhvdG9zaG9wIDMuMAA4QklNA+0AAAAAABAASAAAAAEA&#xA;AQBIAAAAAQAB/+4ADkFkb2JlAGTAAAAAAf/bAIQABgQEBAUEBgUFBgkGBQYJCwgGBggLDAoKCwoK&#xA;DBAMDAwMDAwQDA4PEA8ODBMTFBQTExwbGxscHx8fHx8fHx8fHwEHBwcNDA0YEBAYGhURFRofHx8f&#xA;Hx8fHx8fHx8fHx8fHx8fHx8fHx8fHx8fHx8fHx8fHx8fHx8fHx8fHx8fHx8f/8AAEQgBAADEAwER&#xA;AAIRAQMRAf/EAaIAAAAHAQEBAQEAAAAAAAAAAAQFAwIGAQAHCAkKCwEAAgIDAQEBAQEAAAAAAAAA&#xA;AQACAwQFBgcICQoLEAACAQMDAgQCBgcDBAIGAnMBAgMRBAAFIRIxQVEGE2EicYEUMpGhBxWxQiPB&#xA;UtHhMxZi8CRygvElQzRTkqKyY3PCNUQnk6OzNhdUZHTD0uIIJoMJChgZhJRFRqS0VtNVKBry4/PE&#xA;1OT0ZXWFlaW1xdXl9WZ2hpamtsbW5vY3R1dnd4eXp7fH1+f3OEhYaHiImKi4yNjo+Ck5SVlpeYmZ&#xA;qbnJ2en5KjpKWmp6ipqqusra6voRAAICAQIDBQUEBQYECAMDbQEAAhEDBCESMUEFURNhIgZxgZEy&#xA;obHwFMHR4SNCFVJicvEzJDRDghaSUyWiY7LCB3PSNeJEgxdUkwgJChgZJjZFGidkdFU38qOzwygp&#xA;0+PzhJSktMTU5PRldYWVpbXF1eX1RlZmdoaWprbG1ub2R1dnd4eXp7fH1+f3OEhYaHiImKi4yNjo&#xA;+DlJWWl5iZmpucnZ6fkqOkpaanqKmqq6ytrq+v/aAAwDAQACEQMRAD8A9KaVpWlnS7MmzgJMEdT6&#xA;afyD2xVVjs9AknkgjgtXnhp60SrGXTkAw5KBUVBB3xVV/ROlf8sUH/IpP6YqlvlrStLPlzSibOAk&#xA;2duSTGn++l9sVRs1noEDRrPBaxNMwSJXWNS7Hoq1G59hiqr+idK/5YoP+RSf0xVLfLOlaWfLmlE2&#xA;cBJs7ckmNP8AfS+2Ko6Cx0KdS8FvayqrFGZEjYBlNGUkDqD1xVU/ROlf8sUH/IpP6Yqlvl/StLNh&#xA;KTZwH/TL4bxp2vJR4YqjlsdCad4Ft7UzxgNJEEjLqrdCVpUA0xVU/ROlf8sUH/IpP6Yqlvl/StLN&#xA;hKTZwE/XL4bxp2vJR4YqjorHQpmkWK3tZGibhKFSNirfytQbHFVT9E6V/wAsUH/IpP6Yqlvl/StL&#xA;NhKTZwH/AEy+G8adryUeGKo42OhC4Fsbe1+sFDIIeEfMoCAW40rQEgVxVU/ROlf8sUH/ACKT+mKp&#xA;bpWlaWb/AFkGzgIF4gH7tNv9Dtz4YqmX6J0r/lig/wCRSf0xV36J0r/lig/5FJ/TFUt0rStLN/rI&#xA;NnAQLxAP3abf6HbnwxVMv0TpX/LFB/yKT+mKu/ROlf8ALFB/yKT+mKpZ+jtP/wAS+j9Wi9L6nz9P&#xA;gvHl6tOVKUrTFUw06WKHRbaaVxHFHbI8jsaKqrGCSSewGKsOub221PzDpfmW00PUJrOwWSSO/hs4&#xA;YpZjNC0S8jNNFdtCI5GPpiDduLV+HFWd28yzwRzoGVJVV1WRWjcBhUBkcKynxBFRiqX+WiF8s6US&#xA;aAWVuST0A9JcVYompWd95mXzZp2j3uqWL2aWq3YtIKcYZZJIp7R55oLjg/rvyKROHHBgQBVlWc2l&#xA;1HdWsVzGsiJKoZUmjeKQA9mjkCup9iMVQXlj/lGtJ/5g7f8A5NLirCZYtH1T9N3Fno9/qFnqzwlN&#xA;S023htFjNp8UNxEbiaJ55lmdnWeNCGAUCoUEqs70Se4n0izkuXaW5MSieWSB7RmkAo7GByWjqw+z&#xA;U/M4qpeXv94Jf+Yy+/6jJcVYdGmh3VrrlhZaNeazpeoXk0k9/ZQxQMspl5yMt1cTwvcNDccmikhH&#xA;wUVV+xXFWY+Wp7ubQrN7uWWe6CFJpri2azld42KFngb7JPH9n4W+0vwkYq7y9/vBL/zGX3/UZLir&#xA;Er66aXW9av8Ay5Z3VxqEkH6NOo2VnCEglgkcTM8l1cWqXbo/wgLUIVK7/EMVZT5Ug0+30G2trC3u&#xA;LW3h5L6V4jpOX5FpHl57u8jkuz1PIkmpriqp5e/3gl/5jL7/AKjJcVYvJeJb6x5jl8t2U+oaldEJ&#xA;PfQWkTi3u44REytPc3FolwiCOP8Acxt8LcgTU0VVP/JtvY22hx21nBdQek7i5N/G0dzLcM3OaaRi&#xA;AsjSuxcuhKknbpQKonSf979a/wCYxP8AqDt8VTPFXYqlmk/7361/zGJ/1B2+KpnirsVSn/pqv+jH&#xA;/mdiqH1G40228jXNzqkRn0yHS3kvoAKl4EtyZUAqPtICOuKpb5W0j8xbSCBdS1ize1BjP1Ga1e5u&#xA;ooR9qE30c1qkr8dhIbb3PLFWYYqkelXFtbeSrO4uhW1h02OScAVJjWAFtvkMVSPyZpPny20+1L6r&#xA;aR6QViNlptzbNeXUFqACsTXsU1ojuEotTC1KbtJ9oqs4xVK/LbqnljS3Y0VbKAk+wiXFWJeRtN86&#xA;jRrS407UrOx8uzwxyaPpF5atfT29ow5QR/WYZ7MbRFRwKPx6eo9K4q9BxVLPL3+8Ev8AzGX3/UZL&#xA;irEfJ9j5zmshf6PqlpZeWr0G40fTb61e/mjgmPqRn1op7IorK1RE3qFK8ee1Aq9BxVLPL3+8Ev8A&#xA;zGX3/UZLirEvLFj5vme7vtC1G107y3cXNy9jpt9bNfvVp3MsyPFNZGFJJeTLEzScQeq/YVVn0YkE&#xA;aiRg0gA5soKqWpuQpLUHtU4ql3l7/eCX/mMvv+oyXFWKaHZebbjU9SvfL+pW2neX3vrxFsL63a/L&#xA;XMVxJFdSx+lLZtAj3CO3AySV+18FeIVZ3CJhDGJ2V5goEropRWanxFVLOVBPQcj88VS/Sf8Ae/Wv&#xA;+YxP+oO3xVM8VdiqWaT/AL361/zGJ/1B2+KpnirsVSn/AKar/ox/5nYqr2FvBcaHb29xGssE1qkc&#xA;sTgMrI0YDKwOxBB3xVKovJbW8S2tlr2q2unIAqWKywyKqjoqzzwy3QA9pcVT+1t0traK3RndIUWN&#xA;XldpJCFFAXdyzO227ManFUB5aVW8s6UrAMrWVuGU7ggxLscVS6PyULWEWum63qenaco4x2MMkEka&#xA;J2SN7iGeaNANlVJAFGwoMVT+0tktraK3R5JFiUIHldpZDQUqzuSzH3JxVBeWP+Ua0n/mDt/+TS4q&#xA;lsPkmOyT6vpGsajpWnj7Gn27wSQIv8kX1mG4kiTwWN1CjZQABiqe6fZJZWcVqkksyxAj1biR5pWq&#xA;aktI5LHr/TbFUJ5e/wB4Jf8AmMvv+oyXFUB/g1IGkGlavqGk20rM72ds8EkIZyWb01uobj0gSSeM&#xA;RUeAxVOdOsVsbKO1Waa4Edf31zI00rFmLEs7bnc7DoBsKDFUL5e/3gl/5jL7/qMlxVAN5NihmmfS&#xA;dVv9HjuZHmntrRoHhMsrF5HWO6iuVjLsSzenxqanqScVTfS9OXT7QW6zz3J5FmnupWmkZmNTu2wH&#xA;gqgAdhiqH8vf7wS/8xl9/wBRkuKoObylGt1cXOl6nfaO925luY7RoXheRvtOIbqK5jjZzuxjVeR3&#xA;O5NVUy0rTBp1qYPrNxdszF3nu5DLIWNPkqjb7KgD2xVR0n/e/Wv+YxP+oO3xVM8VdiqWaT/vfrX/&#xA;ADGJ/wBQdviqZ4q7FUp/6ar/AKMf+Z2KqGlT+Y/0XZ0sbMj0I6E3ko/YH/LtiqK+seZf+WCz/wCk&#xA;yX/slxV31jzL/wAsFn/0mS/9kuKpb5an8x/4c0rjY2ZX6nb8SbuUEj0l6j6scVTL6x5l/wCWCz/6&#xA;TJf+yXFXfWPMv/LBZ/8ASZL/ANkuKpb5an8x/wCHNK42NmV+p2/Em7lBp6S9vqxxVMvrHmX/AJYL&#xA;P/pMl/7JcVd9Y8y/8sFn/wBJkv8A2S4qlugT+Y/qMvGxsyPrl71u5Rv9clr/AMex74qmX1jzL/yw&#xA;Wf8A0mS/9kuKu+seZf8Algs/+kyX/slxVLdAn8x/UZeNjZkfXL3rdyjf65LX/j2PfFUy+seZf+WC&#xA;z/6TJf8AslxV31jzL/ywWf8A0mS/9kuKpboE/mP6jLxsbMj65e9buUb/AFyWv/Hse+Kpl9Y8y/8A&#xA;LBZ/9Jkv/ZLirvrHmX/lgs/+kyX/ALJcVS3Sp/Mf17WKWNmT9cTlW7lFD9Tt+n+jeGKpl9Y8y/8A&#xA;LBZ/9Jkv/ZLirvrHmX/lgs/+kyX/ALJcVS3Sp/Mf17WKWNmT9cTlW7lFD9Tt+n+jeGKpl9Y8y/8A&#xA;LBZ/9Jkv/ZLirvrHmX/lgs/+kyX/ALJcVS71tc/xDy+qWv1n6pT0/rMnDh6v2ufoV5V7cfpxVOdJ&#xA;/wCOVZf8YIv+IDFWN6l541PTPPemeW73RgdP1t5ItL1WC6SSQvDbmeX17QojxovFl5qzjpWlaYqy&#xA;/FUs8sf8o1pP/MHb/wDJpcVSK988aqfPo8o6Voou2t4La81O/ubtLVY7W5kdPUt4uEslwU9Jq0Cr&#xA;yopYVxVmGKpZ5Y/5RrSf+YO3/wCTS4qxGP8ANDWI7TzK975Zl+t+VZYBqEFhcx3iyQzJ6rPA/CEt&#xA;JDFSR4mUNQilajFWcabqVhqen22o6fOtzY3kST21xGaq8cihlYfMHFUL5e/3gl/5jL7/AKjJcVYx&#xA;Z/mNrN5YeZdRtvLUs1r5fuZrSK2juUa+uZLWQrOBbcQI/wB3SSMM5MikUAqKqss0PW9M1zR7PWNL&#xA;nFxp99Es1tMu3JGFdwdwR0IO4O2KqXl7/eCX/mMvv+oyXFWPQfmKbfzD5i0rX7BNLtNAtRqL6qly&#xA;txA1m7usbTDhE8ErrEW9Mhu9GO1VU98q65c67oNrq8+nzaX9cUyw2dyR6wiJ/dtIq/YZ1o3HqK77&#xA;4qqeXv8AeCX/AJjL7/qMlxVJNO8+SXXmLzHZXNgmn6L5aBW+1W6uURy/pxzhhbcarAYnZhKzj7NA&#xA;OtFUz8n+ZG8y6FDrQsJtPtbtmexjuaCWS2r+6nZP2PVX4lU70piqI0n/AHv1r/mMT/qDt8VTPFXY&#xA;qlmk/wC9+tf8xif9QdviqZ4q7FUp/wCmq/6Mf+Z2KuNzeWvlX6zY2/1u9gsfUtbSvH1ZUh5JHXtz&#xA;YAYq8v8AKM9z5nt7TWp/zHS182TxJDNp9raaTE1nJKQz2LQXVvLe/DJReLyAkivfFXr2nxXkNhbQ&#xA;3twLu8jiRLm6VBEJZVUB5BGCwTk1TxqaYql+hSTR+UdPkgj9aZNPhaKKvHmwhBVanpU7Yq8u8p6h&#xA;c+arW11jVfzBTSvNYUh9FgtNKgk02SSgltHivree92Pwmsg5bEbUxV7BpsF7BYW8N9ci9vI0Cz3Y&#xA;jEPquBu/pqSFr4A4qhfLH/KNaT/zB2//ACaXFXk/kvVdQ121ubnUfPSeUvMM1xNJqHlayt9Lt2s7&#xA;jnwpOl7BNcTsVArISA2xXoMVeseW9Jm0jRLbTppo7mW3DBp4beO0RuTs1fQi+BT8W/Hqd9q4q7y9&#xA;/vBL/wAxl9/1GS4q8r8taxea1eatc6r53j8n6693Ml15ctLfTLeaH0HMVu9w9/BPPc84UVhICEIN&#xA;F2GKvUvLGkS6RosFjNcx3kyNK73cVvFaLIZZWkDGKGkYajfEV+0fi2riq7y9/vBL/wAxl9/1GS4q&#xA;8ntrr/Ems+ZLTzH5rt/Kt79fkiPltLXTElkgtH42dzcPqMFy90HWNZFZKJTYYq9X8u2eq2mmLFqe&#xA;rfpqfkWS/MMUDNG1CoZYaRkj+ZQK+GKt+Xv94Jf+Yy+/6jJcVeWPffp/zb5lsfMPmi38pyxXLWMG&#xA;iLa6cs95Yw/Fb3Ms2pQXJuI5OTMFjXgteJ3rir1DyxZ6la6WqX+sfp1nb1LfUDDDCzQsoKAi3CxN&#xA;48lVQa9MVX6T/vfrX/MYn/UHb4qmeKuxVLNJ/wB79a/5jE/6g7fFUzxV2KpT/wBNV/0Y/wDM7FVD&#xA;UIdYn8jXMGiyiHWZdMdNNmagCXLW5ELGvhJQ4q818oaj+WmiaZYrqnk/ULXzZbLE141xoV7f30t7&#xA;GBymF9FBcLMzSAlJBL92KvYLC6+uWNvd+jLb/WIkl9CdeEsfNQ3CRN+LrWjDscVSrTEvn8kWiWDr&#xA;HftpkYtJH3VZjbgRlvYNTFXlvk25/LzRNFs7fzR5Rv4/OUKIdVnvNFvNVu7m9QfHOt/FBcpMJJAS&#xA;jCSg8F6Yq9j0nUBqOnW98Lae0FwvMW13GYZ0B7SRmpU+xxVCeXhIfKumCIhZTYwBGIqA3orQkfPF&#xA;Xknkx/JOi6VFB578q3knnZSf0vqN1o11q0l5cqxrNDeQQXSPGx+wAw4jagxV7Jo+prqmmwX6W1xa&#xA;JOCy295E0E6gMQOcT/ElaVod6Yqo+Xv94Jf+Yy+/6jJcVeQ+Vv8AB2jWtxF+Y3li6uPOBnnOoatd&#xA;aRdawt5WVmR7a6hgulWEIVCxVXh0498VewaBq8WraXFew2d1YROWWO2voGtZwqMVBML0dAaVUMAa&#xA;dsVW+Xv94Jf+Yy+/6jJcVeS6GnlXSLzVB+ZHlu6vvM8t9dO2tz6Tc6vBc2zzu9stpNBDdLFGkBRf&#xA;S+HiR0xV6z5c1e11XS0urSyurC2BMUMF5bPZycE2BEEoR1T+Xko+WKt+Xv8AeCX/AJjL7/qMlxV5&#xA;TZp5Z0rzF5gk/Mby5dX+rXGo3Mmm6zNplxrNtJpzyE2kVs8EN0LcRxUV4iF+LfeuKvT/ACnrWn6t&#xA;pQk07T7rTbC2YW1rBd2kliTHGilWiglVHWKjcVqo6dMVV9J/3v1r/mMT/qDt8VTPFXYqlmk/7361&#xA;/wAxif8AUHb4qmeKuxVKf+mq/wCjH/mdiqL0n/jlWX/GCL/iAxVF4q7FUs8sf8o1pP8AzB2//Jpc&#xA;VTPFXYqlnlj/AJRrSf8AmDt/+TS4qmeKuxVLPL3+8Ev/ADGX3/UZLiqZ4q7FUs8vf7wS/wDMZff9&#xA;RkuKpnirsVSzy9/vBL/zGX3/AFGS4qmeKuxVLNJ/3v1r/mMT/qDt8VTPFXYqlmk/7361/wAxif8A&#xA;UHb4qmeKuxVKf+mq/wCjH/mdiqhpXl+wOl2ZMt5vBGdr68H7A8JcVRX+HrD/AH7ef9J15/1VxV3+&#xA;HrD/AH7ef9J15/1VxVLfLWgWLeXNKYy3lTZ25NL28A3iXsJaYqmX+HrD/ft5/wBJ15/1VxV3+HrD&#xA;/ft5/wBJ15/1VxVLfLWgWLeXNKYy3lTZ25NL28A3iXsJcVTL/D1h/v28/wCk68/6q4q7/D1h/v28&#xA;/wCk68/6q4qlugaBYtYyky3n+9l6Nr28HS8lHaXFUy/w9Yf79vP+k68/6q4q7/D1h/v28/6Trz/q&#xA;riqW6BoFi1jKTLef72Xo2vbwdLyUdpcVTL/D1h/v28/6Trz/AKq4q7/D1h/v28/6Trz/AKq4qlug&#xA;aBYtYyky3n+9l6Nr28HS8lHaXFUy/wAPWH+/bz/pOvP+quKu/wAPWH+/bz/pOvP+quKpbpWgWJvt&#xA;ZHq3nw3iAUvbwf8AHnbnf97viqZf4esP9+3n/Sdef9VcVd/h6w/37ef9J15/1VxVLdK0CxN9rA9W&#xA;8+G8QCl7eD/jztzvSXfriqZf4esP9+3n/Sdef9VcVd/h6w/37ef9J15/1VxVLv0LZ/4i+r+pden9&#xA;U9Sv1u5519Wn956nPj/k1piqc6UQNJsydgII6n/YDFXhHmTzL5Btfzi0vXNJ8/QabbrK7+Z4f0nJ&#xA;Lb3HFBFHbrahXgG6/GxcBetOW+KvfLO8tL20gvLOZLm0uY1mt7iJg8ckcihkdGWoZWU1BGKoLyx/&#xA;yjWk/wDMHb/8mlxV4r5k8xeRD+dI1XXvPsEmhWMVu9lpNvqckcdpqFs4LCaCEGKVXK1NXBBqrKRi&#xA;r3TTtRsNSsYb/T7mK8srlRJb3MDrJG6HoyupIIxVC+WP+Ua0n/mDt/8Ak0uKvAw3k7y9bec/LF7+&#xA;Zsmim7uo/wDDccOrXFzPpwtkI5SSqVYetIx9SAtsoG/LcKvbPy71XVNW8laTf6rc2V7qEsIFxe6b&#xA;KJ7SdkJT1Y3Cp9vjVlp8LVXtiqYeXv8AeCX/AJjL7/qMlxV4ZCfJvl1/OOleb/zGktfMup3M0Vpq&#xA;sGrTvc21sH9S2rDFwFvJExo8daMNuhpir1j8qNU1bUvImmT6rqFlq95GpgfVtOn+sQXQhJQTcqLS&#xA;RqfvF7NX5Yqnfl7/AHgl/wCYy+/6jJcVeI6xr1l+X3mzzpJY+cbK3udQgRdF0LU9SluYob2ZzJcX&#xA;c0fCX6vwL/BEAeQ60FKKvUPymhsIvJFkLPzLJ5tZizXmty3T3fq3Bp6iqXZ/TRDssYpQddySVU+8&#xA;vf7wS/8AMZff9RkuKvGdV1bTvIvnfzlrGsebrS48xXat/hay1DU5PStorhFb0LiyRGEKxOAUbfmn&#xA;gakqs+/JhbQ+SYZovNTecLyaRpNT1Y3TXKC6YKzwxqzH0UjDDjHRdt6b4qyjSf8Ae/Wv+YxP+oO3&#xA;xVM8VdiqWaT/AL361/zGJ/1B2+KpnirsVSn/AKar/ox/5nYqg9aTTX/L2/TVLl7PTG0iUX15HUPD&#xA;AbY+rItATyRKsNsVeQfknJ+YMPlXStMt/Iun3fk96La6zcSw2FxdWTt8N1LZ0uyXZG50JHLx3rir&#xA;3y2tre1t4ra2iSC2gRYoIIlCIiIOKoirQKqgUAGKpLY/VP8AAdv9cnNtafotPrFyDxMcf1cc3B7c&#xA;V3xV4n+Rkvnuz8sW2naJ5MsdW8ltNILLzBeSRaZdXls0xrNLbf6WzN/KTSqgYq+hLOys7G2jtbKC&#xA;O1tYhSKCFFjjUE1oqqABucVQHl4oPKummRuEYsYC7140HorU17UxV4F+S8vnbTdAns/J3k6z8yeS&#xA;2urg6b5h1CWLS7q9iMpJaVGFy8nFhxVygqFGwpQKvoyzsrOytktbKCO2to68IIUWNF5EsaKoAFWJ&#xA;JxVB+Xv94Jf+Yy+/6jJcVfP35R3HnDT21uLyL5WtPNXlGfUrh4PMl/JFptxckv8AvULH6y86IfhW&#xA;T0wPbsFX0VpthZWNosNpaQ2MZJke3t1VEEkh5OaIFBJYmppviqG8vf7wS/8AMZff9RkuKvA/y8k8&#xA;2ad5m82jyH5YtfNnlu51e5km17UpI9PnNy5/0i3WZ/WeeKM1Cv6Y3J8cVfQOjWcNrp8QSwh02WZR&#xA;NdWlvx4JO6gyDkioHo23LiK4qpeXv94Jf+Yy+/6jJcVeC+U5vNNh+ZHnmXyD5dtvNulXWrTNqer6&#xA;g0di9vfMaz2UVyzStPFHz2AjHGvuCVXvmg2UVtp0cn6Nt9JvLwLc6jaWvBkF08aiSsiJH6pXiF9Q&#xA;qOQAxVbpP+9+tf8AMYn/AFB2+KpnirsVSzSf979a/wCYxP8AqDt8VTPFXYqlP/TVf9GP/M7FXHS7&#xA;LV/Kv6Kv4/VsdQsfqt1FUryimh9N1qKEVVj0xVgOl/lH590Owj0fQPzJv7PQrYCOytJ9PsbuaGEb&#xA;CNbiReVANl227Yq9H0awm0/SrSxnvJtQmt4ljkvrihmmZRQyPxAHJvYYqg9Fs7W+8nWNldxia1ut&#xA;OihuIm6PHJAFdTTxU0xVgWlfk75z8u2P6I8q/mJfaZoERb6nYXFjZ3zwKzFiiTzKH4iuwptir0Xy&#xA;9pd1pWjW1hdajPqtzApEuoXXH1pWZixLcAqinKgAGwxVT8uRpJ5X0uNxyR7GBWU9CDCoIxV59pP5&#xA;NebPLVs+l+TPP97o2gBme00y4srTUPq5kcuyxSzjkFqT8J8Seu+KvQvLWk3ukaJbafe6ncazdQ8z&#xA;NqV2EE0peRn+IRhVAXlxUAbKBirfl7/eCX/mMvv+oyXFXnunfkv5i8tm6tfI3ni88vaFcTPcR6RJ&#xA;Z2moRQPIeTCB7gckSvRfvqd8VZ55U0TUtG0hbPUtYuddvS7STahdrGjsX/ZVIgqIi9lGKq3l7/eC&#xA;X/mMvv8AqMlxVgMH5OeYNDv9Qk8kedrzy9pmpXEl5PpUlpa6hCk827tCbgcowTvT78VZt5S0PVtG&#xA;0trbVdbuNfvZJWmkv7pIoj8QA4JHCFREHHYDxxVEeXv94Jf+Yy+/6jJcVYI/5O6zpWt6rqXkjzhd&#xA;+WbfW7h73UdM+q21/bG6lHxywrcD90WO5p8vsgAKsv8AJ3l7W9Fsp49Z8wXPmK+uZfVe7uY4oFQc&#xA;QvCKGFVRF2rTxOKozSf979a/5jE/6g7fFUzxV2KpZpP+9+tf8xif9QdviqZ4q7FUp/6ar/ox/wCZ&#xA;2KqGlarfjS7MDRrwgQR7h7Pf4B43GKor9LX/AP1Zbz/g7P8A7KMVd+lr/wD6st5/wdn/ANlGKpb5&#xA;a1W+HlzSgNHvGAs7cBg9nQ/ul3FbgHFUy/S1/wD9WW8/4Oz/AOyjFXfpa/8A+rLef8HZ/wDZRiqW&#xA;+WtVvh5c0oDR7xgLO3AYPZ0P7pd97gHFUy/S1/8A9WW8/wCDs/8AsoxV36Wv/wDqy3n/AAdn/wBl&#xA;GKpboGq3wsZaaPeN/pl6ah7PveSmm9wOmKpl+lr/AP6st5/wdn/2UYq79LX/AP1Zbz/g7P8A7KMV&#xA;S3QNVvhYygaPeN/pl6ah7PveSmm9wOmKpl+lr/8A6st5/wAHZ/8AZRirv0tf/wDVlvP+Ds/+yjFU&#xA;t0DVb4WMtNHvG/0y9NQ9n3vJTTe4HTFUy/S1/wD9WW8/4Oz/AOyjFXfpa/8A+rLef8HZ/wDZRiqW&#xA;6Vqt8L7WCNHvDW8QkB7Pb/Q7cUNbjFUy/S1//wBWW8/4Oz/7KMVd+lr/AP6st5/wdn/2UYqlular&#xA;fC+1gjR7w1vEJAez2/0O3FDW4xVMv0tf/wDVlvP+Ds/+yjFXfpa//wCrLef8HZ/9lGKpd+kbz/EP&#xA;q/ou69T6px+r8rbnT1a86+tw49vtV9sVTnSf+OVZf8YIv+IDFWDX/wCeflDTfzBj8jana6jY6lcX&#xA;EVpZXs1sPqdxNOF4CGVXZiOUirUoADir0TFUs8sf8o1pP/MHb/8AJpcVYZrf57eT9L89L5IjtNS1&#xA;PXRLDDcpYWwljg9fiQ8rs8dEUSKWZQaVxV6NiqTaLci18n2F0Y3lEGnxSmKIcpGCQBuKLtVjTYYq&#xA;wPTf+cj/ACHfaFq2sfU9Wto9CeFNXtJ7Mi4tluOQjkkRHccCUIJDbd8Vej6JrOm63pFnq+mTrc6f&#xA;fxJPbTL0ZHFR8j2IPQ7YqpeXv94Jf+Yy+/6jJcVYFpP/ADkP5I1ey1zUdPstWn0nQEEt5qS2Z9Fk&#xA;58CYhz9Q8ftMCgIXfxxVnflbzPo3mjy/Za/o0/1jTb+P1IJKUOxKsrA9GRgVYeIxVd5e/wB4Jf8A&#xA;mMvv+oyXFWG+Vfz38keYL3WbF0vtFu9Bt5L3UYdWt/q5S2hYLJLVWkWgJGxNd9hirIvIfnzRfO+h&#xA;jXNFjuV015GihmuoTD6pTZmjDH4lDfDy6VBHbFUw8vf7wS/8xl9/1GS4qxTQ/wA6/J2t+bNX8uWM&#xA;d7XQluG1PVpYBFYRG0YLMjTOwYMpr1SlATXFU38g/mHoHnrS5tW0FLltNilMCXVxC0Cyuv2vSDfE&#xA;wXuadduoNFU00n/e/Wv+YxP+oO3xVM8VdiqWaT/vfrX/ADGJ/wBQdviqZ4q7FUp/6ar/AKMf+Z2K&#xA;qV3rEWieS5tZlieeLTNNa8kgi3kdbeAyFUr+0wWgxV4Pourfm5+Zdxpf5jaT5W8sSQ2DSpoo1C6v&#xA;JbmHg7BqLFKsCyE/tNGG2B6ccVfQegXGr3OiWM+s2iWOrSQo19ZxuJUimI+NFcEhgD0OKoPS76PT&#xA;/JNpfyI8kdppsc7xxDk7LHAHKoO7GmwxV4N5P8w/mp581iX8zPJvlXy1ZvIHsRPe3N2b6WGIgFJv&#xA;q8kcTH4QFMkddh2AxV9BeWrnXbnQrKfX7OOw1l4631pC4ljSQEghHBaoPUb4qt8uyCPytpkhBISx&#xA;gYhRUmkKnYYq+fvIPmn8yfOVr5h1f8vvKnlq00LVr2YatHrM9zc3d3I6gP6/CT4QUanBlC7/AAim&#xA;5Ve0flToFxoPkex0+60aDy/dq87XGlWk73NvGxmejRO7yHjIoEnGuxbxriqd+Xv94Jf+Yy+/6jJc&#xA;VeA+QfOf5jeZm8xSfld5X0DS/LzalP8AX7bWprp5prmQAyyNBHIqxc1I5KE49gTxOKvXfyj8t3Pl&#xA;/wAnpZ3eh23l69kuJpbrTbGd7i2DFuIkiLvJwV0VTxrt4YqyHy9/vBL/AMxl9/1GS4q+dG1HzP8A&#xA;mX5j8723k/yloX1I3cdlr0+u3V59auzZsVh5JbzRPEgMdQlOO1KkjZV7r+W6eaYfLEVn5k0iy0W7&#xA;sXNtbWemv6lqbaNFEbx1LMo6ji2+2Kpt5e/3gl/5jL7/AKjJcVfPk+seZPOvm/z/AOW/IflTRobI&#xA;XQt/ND61c3kb3ssDtH6ggtZYTGGMZrQfEPtmppir2f8AK2281WXlZdN8x6NYaHPp0ptbG10py9q9&#xA;qkaFJE5MzrVmdSGNdq98VTzSf979a/5jE/6g7fFUzxV2KpZpP+9+tf8AMYn/AFB2+KpnirsVSn/p&#xA;qv8Aox/5nYqgtbutatPy+vLnQ7cXesw6W8mnWxHISTrBWNeP7VW/Z79MVfKn5Wt/zj5YWFvr/nHX&#xA;r7T/ADrDdfWtT08RT28UdxDOzIscFpb8CmwqtTTfZemKvrvy35h07zFoVlrmmF2sL+MTWzSIY2KE&#xA;0BKtuOmKoG1n1G38gQz6ZCLjUodJWSygO4knW2BjQ7j7T0HXFXyV+XMX5DyWlzq35ja1f6V53N3N&#xA;JqtgkM1nFG6ykqI4bSCm4ALL1DVHEd1X2B5W8zaT5o0C017SHeTTb5We2kkRo2ZVdkrxahFSu1cV&#xA;WaK9zH5OsZLWMS3SadE0ETGgeQQAqpPap2xV8g+SoPyXvpdZ1P8ANjVr7RPPEl5OdR02KGWyiRah&#xA;hwjtYD8RNagmvt3Kr688necND836DDruhyvNplw8iQTSRtEW9JyhYI4DUJXaoxVEeXv94Jf+Yy+/&#xA;6jJcVfHnlVfyo1XX/MWp/nJqN7oHnZ72T19Oghks4Viopqv1WFiz1qDyNW2PxGrYq+s/y/8ANfln&#xA;zP5Zt9Q8tTyXOjwk2lvPKjxs/wBXohNJAr9upGKph5e/3gl/5jL7/qMlxV8jWKflnq3n3zVf/nPf&#xA;3fl3zQt66W1jbRPawG1GyNzt4WeRuwZm+JaH4uyr6g/LPzh5Q8z+WUl8p3Et3o2luNMiuZo5Iy5t&#xA;4YzUesqO3wuvxEda4qnPl7/eCX/mMvv+oyXFXybfD8utW/N3zdcfnJe3eganb3TRaJDbwtbRSWas&#xA;6RyNNbxPJIxjC0dj8Q7noFX0j+VHmryPrvlhLbyZdzXujaIU05LidJVZjHGrDeZUdvhYVJGKsh0n&#xA;/e/Wv+YxP+oO3xVM8VdiqWaT/vfrX/MYn/UHb4qmeKuxVKf+mq/6Mf8AmdiqL0n/AI5Vl/xgi/4g&#xA;MVdNpOlT3K3U9lBLcp9md4kZxtTZiK9MVReKpZ5Y/wCUa0n/AJg7f/k0uKoi50rS7qdJ7mzgnnj/&#xA;ALuWSNHda7bMwJGKovFUs8sf8o1pP/MHb/8AJpcVRN1pWl3ciS3VnBcSx7xvLGjspHgWBIxVEgBQ&#xA;ABQDYAdAMVS3y9/vBL/zGX3/AFGS4qibvTNNvHR7u0huXiIMbSxo5UjoVLA0xVEqqqoVQFVRRVGw&#xA;AHYYqlvl7/eCX/mMvv8AqMlxVFXmmabe8frlpDc8DVPWjWShHccgaYqroiRoEjUIiiiqooAPAAYq&#xA;l3l7/eCX/mMvv+oyXFUVeadp98qpe2sN0iGqrNGsgB8QGBxVXjjjjQJGoRF2VVAAA9gMVS7Sf979&#xA;a/5jE/6g7fFUzxV2KpZpP+9+tf8AMYn/AFB2+KpnirsVSn/pqv8Aox/5nYqoaVpV+dLsyNZvADBH&#xA;sEs9vgHjb4qiv0Tf/wDV6vP+As/+yfFXfom//wCr1ef8BZ/9k+Kpb5a0q+PlzSiNYvFBs7chQlnQ&#xA;ful2FbcnFUy/RN//ANXq8/4Cz/7J8Vd+ib//AKvV5/wFn/2T4qlvlrSr4+XNKI1m8UGztyFCWdB+&#xA;6Xbe3JxVMv0Tf/8AV6vP+As/+yfFXfom/wD+r1ef8BZ/9k+KpboGlXxsZaazeL/pl6KBLPteS772&#xA;/fFUy/RN/wD9Xq8/4Cz/AOyfFXfom/8A+r1ef8BZ/wDZPiqW6BpV8bGUjWLxf9MvRQJZ9ryUV3tz&#xA;1xVMv0Tf/wDV6vP+As/+yfFXfom//wCr1ef8BZ/9k+KpboGlXxsZaazeL/pl6KBLPteS772/fFUy&#xA;/RN//wBXq8/4Cz/7J8Vd+ib/AP6vV5/wFn/2T4qlulaVfG+1gDWLwUvEBISz3/0O3NTW3xVMv0Tf&#xA;/wDV6vP+As/+yfFXfom//wCr1ef8BZ/9k+KpbpWlXxvtYA1i8FLxASEs9/8AQ7c1NbfFUy/RN/8A&#xA;9Xq8/wCAs/8AsnxV36Jv/wDq9Xn/AAFn/wBk+Kpd+jrz/EPpfpS69T6py+scbbnT1acKejw49/s1&#xA;98VTnSf+OVZf8YIv+IDFXifmxPzn0j84tOXQ/M6XflvVLtJr/Trr6rHDZ2gZecQ9V2mdmTmR6ag9&#xA;PHZV7viqWeWP+Ua0n/mDt/8Ak0uKvHNdH5zXn51NY3PmaPQfJUEkVzp/pfVStxGnps9tIpeO45OO&#xA;YLNUeGxGKvdQQRUbg9DiqR6da3V35GtbW0uTZ3dxpkcVveKORhke3CpIFqK8GPKlcVeN6FZ/n/aa&#xA;P5m0vVvOcWn6pbXCL5SvL+OwD3ojLiTmsizFYphx41+MN7VBVepflVq3nXUvJlm/nXTn0/zHBWG8&#xA;Lejxn47rcJ6DMgDqRUbUatBSmKp1oQkOmTiMhZDd3/BiKgH65NQkbYq8W8o6b+ev1HzDcebvO66F&#xA;5imEltoVncR2JtvVR1eOdKiRGil4tHT0+YG/zVeh/k3qv5h3/lBU8/2TW/mC2ldGuv8AR+F1Cx5x&#xA;zJ9WJjGx4mgHSvfFWUeXv94Jf+Yy+/6jJcVeG6dffn55In81RavqY8yWUFqkPlmW9+qWr3N9OVpK&#xA;nOUMIoBz5q7fFQceuKvUPylsvzDh8qQ3Pn3WBqmuXtJmhjitY4rVCPhiVrZI1kbu7biuy7CpVZF5&#xA;e/3gl/5jL7/qMlxV4tbXv546F5g81+YfMupfWLWxM8Plny8fqkFrf+sxW2kST1YuCwijSCT4qdyc&#xA;VZ7+Tdp+Zg8sjUPzB1kajq18RJFZRxWkcVpEOic7aNOch/a+IgbAdyVWWaT/AL361/zGJ/1B2+Kp&#xA;nirsVSzSf979a/5jE/6g7fFUzxV2KpT/ANNV/wBGP/M7FUFrcN1P+Xl9Daaguk3MmkyrBqkjcEtn&#xA;NuQs7P8AsiM/EW7UxV8Y/lhpf5datFNY+ZPKWueZdWlvWhk8w6VLNLb0kYKHb+748a8qtUnr7Yq+&#xA;3vLWgWXl7y/p+hWLyPZ6bAltbvMwaQpGvFeTAKCaDwxVA2qXD/l/EltdrYXDaSqw3z04wObaiytX&#xA;aiH4sVfFf5dad5DvZtTtfNfljWfOWqG9ZTr2jTTzwENQVanpH7VX5sTWvQYq+3PJ/lTTPKfluy8v&#xA;aW0rWGnqyW5nYPJxd2koWAWtC9Bt0xVvQ1kbyjp6xy+hI2nwhJqA8GMIo1Dtt1xV8Q+T7TyTLrPm&#xA;C184aBq/5gapFdNTXdCnnuI3UfCWP92zcmBIdmNew7lV9reQvKek+U/KWn6BpHrjTrRZHt1umDzK&#xA;LiV5yjMAv2WlIG3TFUb5e/3gl/5jL7/qMlxV8P6BZ+VH85+ZbbztpGqfmLqCXB46xoU0syEhmDMw&#xA;T0yee2/Og6AYq+yvy08m6H5R8p22l6GlzDp0pN5Hb3jc5YjcAO0ZNB9k9j9+Kpt5e/3gl/5jL7/q&#xA;MlxV8VPa+V/+VqebLPzrpupfmJcC5Y215ok80jRAO5ZXReFaAqtA3FOJArir61/KTyj5f8seSrSD&#xA;Qbe8stP1ILqa2GoNynt2uokYwtsCpSlCDUg13xVkHl7/AHgl/wCYy+/6jJcVfGXmG18vt+d/mq38&#xA;52N/+YAaaU2v6EnleS2USErE8aBT+6WkZQOFQg9cVfUn5N+SvLHlnyms3l2zvdNstbZNRbTNRblN&#xA;bvJEq+mQRyWgUVDE798VZTpP+9+tf8xif9QdviqZ4q7FUs0n/e/Wv+YxP+oO3xVM8VdiqU/9NV/0&#xA;Y/8AM7FULqnl618yeRbjQLp2it9V042kksdOaCaHhyWu1VrXfFXivln8nv8AnI/yXp3+H/KfnHRk&#xA;0COR3ga5gPrKZGJZgjW1x160MhFcVe6eVLDW9P8ALthZ65fjVNXhiAvtQCiMSykklgooAN6YqhLX&#xA;SLXWvy/h0a7Lra6lpK2dw0Z4uI57b03KnseLbHFXivlr8lv+cg/IttNonkrzjpK+X3naZPrsBEyl&#xA;6BmCG3uRUhRt6lK4q9u8kaZ5m0zyvZWXmfVF1nXY/Va91FEESyNJM7qFQBQAiMqDYdMVX6PZw33k&#xA;2xsp6+jdadFDLxNDxkgCtQ/I4q8M8tfkf+fXkBbvS/IXm7Sl0G5uDclL+AiXmVVORX6vc78EUGj0&#xA;26Yq9s8h6X5s0zy1b2vmzVk1rXQ8j3V/HGIkbm5ZVVFVAAikLso+WKozQo1k0yeN91e7v1YAkGhv&#xA;JgdxvirwjQvyH/Ov8v7q/tfy3826dHod/KJjDqkJ9VSNlrSC5UsF2LKVDeAxV7J+Xej+d9K0BoPO&#xA;esx65rcs7ytdwxrDGsbKoWJVVYxReJNeI64qmvl7/eCX/mMvv+oyXFXhGn/kN+cfkbXNXuPyz806&#xA;dBpesSiWa31OI+oOLM0akiC6BKeow5DjXuMVev8A5b6P590vRLiPzxrUOuazPdPOtxbxiKKKExxo&#xA;kKKEi2VkZq8R9rFU48vf7wS/8xl9/wBRkuKvD2/If81/KPm3W9a/LDzRY2trr0pmu7TVYyzLV2kC&#xA;8hDc8+DSNxaimh3r1Kr1H8tNE/MjTLK9bz5r0Gt6jcyq1v8AVIhFDBEq04LRIeVSepWvzxVP9J/3&#xA;v1r/AJjE/wCoO3xVM8VdiqWaT/vfrX/MYn/UHb4qmeKuxVKf+mq/6Mf+Z2KqGleYLAaXZgxXm0EY&#xA;2sbw/sDwixVFf4hsP99Xn/SDef8AVLFXf4hsP99Xn/SDef8AVLFUt8ta/Yr5c0pTFeVFnbg0srwj&#xA;aJe4ipiqZf4hsP8AfV5/0g3n/VLFXf4hsP8AfV5/0g3n/VLFUt8ta/Yr5c0pTFeVFnbg0srwjaJe&#xA;4ixVMv8AENh/vq8/6Qbz/qlirv8AENh/vq8/6Qbz/qliqW6Br9itjKDFef72Xp2srw9byU9osVTL&#xA;/ENh/vq8/wCkG8/6pYq7/ENh/vq8/wCkG8/6pYqluga/YrYygxXn+9l6drK8PW8lPaLFUy/xDYf7&#xA;6vP+kG8/6pYq7/ENh/vq8/6Qbz/qliqW6Br9itjKDFef72Xp2srw9byU9osVTL/ENh/vq8/6Qbz/&#xA;AKpYq7/ENh/vq8/6Qbz/AKpYqlula/Yi+1k+lefFeIRSyvD/AMeduN/3W2Kpl/iGw/31ef8ASDef&#xA;9UsVd/iGw/31ef8ASDef9UsVS3StfsRfawfSvPivEIpZXh/487cb0i26YqmX+IbD/fV5/wBIN5/1&#xA;SxV3+IbD/fV5/wBIN5/1SxVLv01Z/wCIvrHp3Xp/VPTp9UuedfVr/d+nz4/5VKYqnOk/8cqy/wCM&#xA;EX/EBirEf+V3/lWvmafyxL5ght9btpzaTW1xHNAonVuJQTSxpETy22fFWc4qlnlj/lGtJ/5g7f8A&#xA;5NLirGtc/O38rND14aBqXmCGPVzKtubSKOe4ZZXIARzBHIqNU7hiKd8VZxiqQ6dqlhpHka21XUJf&#xA;QsNP0xLq8m4s/CGG3EkjcUDMeKqTRQTirGoP+cgfyen0t9Ui8yQtYxSLFLJ6NyGRpASnOMxc0DcT&#xA;QstDirM9B17R9f0i21jRrpL3TLxS9tcx14uASp6gEEMCCDuDiqjok0UOl3E0zrHFHd37ySOQqqq3&#xA;cxLMTsABirEI/wDnIb8nJZbyOHzGkv6Pj9e8ljt7t4o4vUSHmZVhMZHqSotQ3U4qy/yx5q8veadI&#xA;j1jQL1NQ02VnRLiMMByjbiylXCsCCO4xV2iSxw6XcSyHjHHd37u25oFu5iTtiqQeWPzn/LDzRHeS&#xA;aJ5gguBp8D3d4jrLbvHbxf3kpSdIn4J+0QNsVTDyd+Y/kvzmLk+WdSGpJZ8RcyJFMiIXrxBeREWp&#xA;p0BriqZeXv8AeCX/AJjL7/qMlxVjum/nR+V+p+Ym8u6f5ggutWRZXaOJZWiCwIXlJuAnoUVVJPx4&#xA;qjfJ/wCZ3kXzlPcweWdVXU5LNVe59OOZVQMaLVpERd6Ggriqa6T/AL361/zGJ/1B2+KpnirsVSzS&#xA;f979a/5jE/6g7fFUzxV2KpT/ANNV/wBGP/M7FVk2s6fonlE6xqMnpWGn2IubqQAkiOKLk1ANyaDY&#xA;Yq+UNb/MLyB5z85WvnHTfy01e/g0e4aaWSxS3iguZuQkMt+ILWZ5HB4mjT0+81VfV3k3zNB5o8r6&#xA;dr8FvJaR6hEJRbT09SM1KlWp3BGKrdM1Ky0vyRaanfyiCxsdMjubqY1ISKG3DuxpU7KpOKvlRPzC&#xA;/L7VfzI1Pz7oH5cax5h5bXaOkE9l6vw0uTB9VumhlJVW5CYb/M1VfVPkbzXB5t8qaf5hhtZbKO/R&#xA;m+qXFPVjaORo2Vqf5SHFV2mJpz+SLRNTSOXTm0yNb2KdQ8TQG3AkWRGBDKUryBG4xV8o+XPPf5Z2&#xA;s3m+x8o/l7rHmrSvMD01N2ESrHGWdkSCC0tittEGYtH+0KDpxFFXun/ONukaFYfl2s2hHVYdPvLq&#xA;Z/0brLwyS200bmKVUMUUNFYpWjfhU4qz7SYrWbRbuG7VHtZLnUEuEkoUMbXcwcNXahHXFXyt5M/M&#xA;L8rvL36e0LyH+X+qecrC7M0d7fzxxPObScANAGhtmnFq3o8lWVq1FTvir2H/AJxm0Ly5p/ku9vdA&#xA;j1axtNQvH9fSNXkikNtcQjg5i9OKFgHUqDz3+EfSq9M0FEfTZ0dQyNeX4ZSKgg3k1QRir488wat+&#xA;Vd35p812Hkvyz5g1L9Jj6vfvov1S1iitoZFLx2kENnP6cEjxryZxyanu1VX0N/zjpe+XJ/y9+qaF&#xA;oV15fi0u7eyvLS/4m6kuViileaVwsfNmEqipRelAAAMVZ95e/wB4Jf8AmMvv+oyXFXyNrOrflNY6&#xA;/wCbvK/knyxreu3OqTSJe3mnC1E1qiuyXEOnP9UuZkt5Ofpvy2K7DY7qvcf+ca7ny0fI9xp2h6Be&#xA;eX/0bdmC/g1Ih7qWdo1czSOEiqSrAfYWlKAUxV6RpP8AvfrX/MYn/UHb4qmeKuxVLNJ/3v1r/mMT&#xA;/qDt8VTPFXYqlP8A01X/AEY/8zsVSbznqUOmflVqt/Ppy6tBb6Q7zaa/2J0EHxI/+QR9r2xV8gfk&#xA;vf6fbW9xqE/5nN5Gto74TSeXII7uWOaMFWqP3oFGH7v9tqD4sVfbXljzLo3mfQrXXdFnNzpd6Ga2&#xA;nKPGWVHZCeEgVh8SnqMVSm5vY7D8rpb6Sz/SEdrobTvYUr66x2nIw03/ALynH6cVfF/5UXVo8er3&#xA;Y/Mo/lvFJOXXSLRLyZZFoCGUesoIWvBauz7b+JVfcnlXzTofmrQbbXtCuPrelXhkFtcFHj5+jK0L&#xA;nhIEcfHGeoxVDWVz9V8hQXJtjeiDSkk+pqATNwtw3pAGo+OnHFXxH+WF9Y3ep67fxef/APlV8E8g&#xA;lj0yzS7ljkQliFUCVAwjrQcmLb7CmKvtzyR5v8v+a9Bj1TQb46jYK7W31wxyRepJDRXPGQK3XFUT&#xA;ojmPS7iQKXKXd+wRd2al3MaD3OKvhn8vdRsdQ81+YNRg86L+VNvcOJEsbNbuRJFJb92AJEB9M9mf&#xA;q3wKBsFX2p+XHmvQfMvla3uNF1ZtcgseNhcaq0UsJnuII0EsnGUBviLVrv8AM4qmvl7/AHgl/wCY&#xA;y+/6jJcVfDvlnVbLVvzM8xalF5pH5SxzSSEQ263L8iZG5QuEkjSqkVYFgtfsr4KvsT8rfOPl3zJ5&#xA;Xgj0bW28wnR44dP1DV3ilhNxcxQJzlKyjlWSvI7nc9TiqfeXv94Jf+Yy+/6jJcVfEo1Oz1P87vM1&#xA;5F5kX8rV+sXUbXMAumaV0mIdZFSRV5yEc3BZUr0FcVfWf5Q+bdA1zywljpfmN/NVxowS21HWZIZo&#xA;WmmYFwxE1Sfh8GPzxVk+k/7361/zGJ/1B2+KpnirsVSzSf8Ae/Wv+YxP+oO3xVM8VdiqU/8ATVf9&#xA;GP8AzOxVF6UAdJswdwYI6j/YDFWJXf5IflHd3bXU3lPTTMx5MUgWNSa1qUTin4Yqy7TNL03SrCHT&#xA;9MtYbKwt14wWtuixRIta0VEAUbmuKobyx/yjWk/8wdv/AMmlxVjmofkp+U2o3r3t35U057mQ8pHW&#xA;FYwzVqSypxUk9zTfFWVaRo+laNp0Om6TZw2Gn2wIgtLZFiiQMSzcUUAbsST4nfFVDyx/yjWk/wDM&#xA;Hb/8mlxVj+r/AJM/lVq99Jfah5X0+a7mYvNMIRGzuxqzP6fHkxPUnfFWSaLoOiaFp6adothb6bYR&#xA;kslraxrFGGbdm4oAKnucVU/L3+8Ev/MZff8AUZLiqRa3+T/5X65fyahqnlmwuL2Ulprj0QjyMerO&#xA;U482923xVP8AQfLug+X9PGnaHp9vptirFxb2saxJzbqxCgVY06nFVvl7/eCX/mMvv+oyXFUl1/8A&#xA;KX8tPMF++oax5bsLu+k3lumhCyOfF2TiXPu2Kpx5d8q+W/LVibDQNMttLtGb1HhtY1iDvQDm/EVZ&#xA;qACrb4qu8vf7wS/8xl9/1GS4qlHmL8q/y58x3pvtb8u2N7et9u6eJRK1BQc3XizU/wAo4qmflvyj&#xA;5X8sWb2fl7S7bS7aRg8sdtGsfNgKBnIFWNO7YqqaT/vfrX/MYn/UHb4qmeKuxVLNJ/3v1r/mMT/q&#xA;Dt8VTPFXYqlP/TVf9GP/ADOxVQ0qDzH+i7Ol9ZgehHQGzlP7A/5ecVRX1fzL/wAt9n/0hy/9lWKu&#xA;+r+Zf+W+z/6Q5f8AsqxVLfLUHmP/AA5pXG+swv1O34g2kpIHpL1P1kYqmX1fzL/y32f/AEhy/wDZ&#xA;Virvq/mX/lvs/wDpDl/7KsVS3y1B5j/w5pXG+swv1O3oDaSk09Je/wBZGKpl9X8y/wDLfZ/9Icv/&#xA;AGVYq76v5l/5b7P/AKQ5f+yrFUt0CDzH9Rl431mB9cvetpKd/rktf+Pkd8VTL6v5l/5b7P8A6Q5f&#xA;+yrFXfV/Mv8Ay32f/SHL/wBlWKpboEHmP6jLxvrMD65e9bSU7/XJa/8AHyO+Kpl9X8y/8t9n/wBI&#xA;cv8A2VYq76v5l/5b7P8A6Q5f+yrFUt0CDzH9Rl431mB9cvetpKd/rktf+Pkd8VTL6v5l/wCW+z/6&#xA;Q5f+yrFXfV/Mv/LfZ/8ASHL/ANlWKpbpUHmP69rFL6zB+uJyraSmp+p2/T/SfDFUy+r+Zf8Alvs/&#xA;+kOX/sqxV31fzL/y32f/AEhy/wDZViqW6VB5j+vaxS+swfricq2kpqfqdv0/0nwxVMvq/mX/AJb7&#xA;P/pDl/7KsVd9X8y/8t9n/wBIcv8A2VYql3o65/iHj9btfrP1SvqfVpOHD1fs8PXryr35fRiqc6T/&#xA;AMcqy/4wRf8AEBirwPzh+Zn/ADkL5a/M6PR4NFs9U0TVb0po8XplmNqZeCNLNC/7k0P2pB2rTY4q&#xA;+h8VSzyx/wAo1pP/ADB2/wDyaXFXg+ufmZ/zkXf/AJpaj5S8v6JZ2dpYTM0MssZ4zWisvGQXE7rG&#xA;7PG4bigBHhscVfReKsXlbzCv5ao3lxUfXhpUZ0xJePA3HoD0w3IhacvE4q8W8q/mT/zkvrujeZBF&#xA;pOnrqnltgAZLaQfXWDOskMHGQJIwCclZNj035AhV6L+RH5ma5558sXD+Y9PbTvMGnzGO8j9CSCOS&#xA;OSrRSRrJU9AVYV6ivcYqy23n1G38sancaZbrealDJqcllaO3BZZ1uZzHGz/sh3oK9sVeJfl/5/8A&#xA;+cl/ONhrurx2OnWEVpBKunWdxbNHzvYnhf0PTeUTgPC78Xb4eXXFWZfkB+afmzztYarbebtNOna3&#xA;p0ylONvLbxyQSCgoJS3xo6MG37jFWfWBvR5fvzYAG+E+pfVQ1OJl+tTcK12pypirwDSfz3/O/RX8&#xA;zWfm7y/Ddz6RbMlrNaQSHlqEjKsEXKFnilTdmfjSgU/FXbFXpn5Ha/8Amz5l0aTXvPMFrp9pciml&#xA;6fFbvDcMtQfXk5yPxU9EXjU/a6UqqzrQi402cooZxd3/ABUmgJ+uTUBNDTFXz1ov54fnob7XtY13&#xA;QIbfQ9BE1vPpcED+u146yJaRryd5ZFMygSOg48QTtir0L8ifNH5vea9Om13zrb2mnaXIDHptnHby&#xA;Q3MrK1Gmf1HbhGKUUUq3XYAclXouk/7361/zGJ/1B2+KpnirsVSzSf8Ae/Wv+YxP+oO3xVM8Vdiq&#xA;U/8ATVf9GP8AzOxVAa9L5ii/Ly8l8tqja+mmFtMEnHj64h+D7fwVr05bV67Yq+INB82eYtcv7xvM&#xA;/wCZesaBrCyqltERe3CySFqEVglQQ8W7Bflir7n8jaTrukeUtM0zXr79J6xaQiO8v+byGZwT8ZeQ&#xA;BzUU64qoxPrCfl2j6IiSa0ukA6YklODXQtv3IetBxMlK4q+HbDzn5l1jV9TPnT8x9X8vahbtxjCr&#xA;dXMbyBiHQLbSxrCFO44pTwxV9uflho/mLR/Iulad5i1Q61q0KymbVGeSRpkkmeSEs0oEhIhZFPLw&#xA;79cVRulG+HkqzOnqjX402M2iybIZvQHphvblSuKvhpfOPnHVPMuqQeffzB1by3fWzFSI1ubiMyhi&#xA;GiWK0liSJR1HAccVfaH5SaR5i0nyHp1p5g1htevzzmXVHeWR5YJnMkPJp/3lRGwBB6Yqnmh+r+i7&#xA;j0uPq/W7/wBPlXjy+uTUrTelcVfDF75z89al501Oy/MHz3qnle6tWkVxbieeBJlNPRSC0ljRF/yl&#xA;rir68/I3SfMOnfl/aHWtefzJ9fYX+mapK0zSNY3MUbwK4uP3ikVJ4kmlcVZb5e/3gl/5jL7/AKjJ&#xA;cVfD/mXzj+YN5+Y2qaX+YHnbUfKxtXmANmJ5reNg37uOOC1kiHBl/bFTtvU4q+q/yC0nzBp/kFJN&#xA;X8xSeZ4tRnN9pGpzNO0n1GaCIRIy3FXQh1c8akCuKs18vf7wS/8AMZff9RkuKviv8wfOX5gzfmtq&#xA;mj+dvOGo+V7KCeUQNYerLbxQ8j6HC3tpYuQaOnxVLfzd8VfSH/OOul69a+T5r6+80S+a9K1OQTaL&#xA;fXBuPVSFOUTo0dzyZPjTYBjir0TSf979a/5jE/6g7fFUzxV2KpZpP+9+tf8AMYn/AFB2+KpnirsV&#xA;Sn/pqv8Aox/5nYqlfmny5deZvy1vvL9pdfU7nU9MNtFc70VpIgPi478T0anbFXyx5Z/Jf/nIbyZL&#xA;d22l+UtH1QSyArf3Q0u6I47AwvdOkqKetCo+WKvq/wDL6PzhH5O0xfOUiy+ZuDnUnj9PjzMjFQPR&#xA;Cx7IVHwjFVGbRrjW/wAsm0a3uWsrjUtG+qQ3a1rE81rwV9t/hLV2xV8qeX/yN/P/AMmXl7FpflTR&#xA;9bWchRe3Y026WiV3h+uPHIgau44iu2Kvqf8AK6Dz3D5NtE89PG/mPnKbn0fSCKhkPpIogCx/DHQb&#xA;YqjbGxl1DyHb2EU7Wst3paQR3SfbiaW3CCRaEbqTUb4q+S9D/IX8+/JOrXo0nyzpHmCOUBFvLoaf&#xA;cxUUmjRLevFLGTX4vhFfoxV9Q/lNB+YMPk6FPPvpDX/VkrFAIBHHBUCKNRbgR/Co7ffiqdaTC0+j&#xA;XcKSNC8tzqCLMn2kLXcwDL7jqMVfIum/84/fnr5L8wXc+j+X9K8ypIGjjvLv6jcRlS1eax3zxvG5&#xA;HWg8RU4q+lfyXtPzKtfKUsX5gpBDqoumFjaWot1igsVhiSKFVtR6YCur0FT88VZV5e/3gl/5jL7/&#xA;AKjJcVfIi/8AOPf54+UPN15f6Lo+m+a45TII72++pTo6yOG9Ror542SY9yte4qRir6L/ACUtPzPt&#xA;vLl1H+YMNvaXguANMsLRbZIre0WNQsara/AKPy7k++Ksw8vf7wS/8xl9/wBRkuKvkzWP+cfPzp8v&#xA;fmBqGu6FpWn+a4bmeeWG4vzZzKRO/MNLBevHSUV6rXfocVe8fkbYfmzZ6bqKfmBbWtgnKIaNptkt&#xA;pHFBGOZlAW0qg5MwO7HFWd6T/vfrX/MYn/UHb4qmeKuxVLNJ/wB79a/5jE/6g7fFUzxV2KpT/wBN&#xA;V/0Y/wDM7FW9K1XSxpdmDeQAiCOo9RP5B74qiv0tpX/LbB/yNT+uKu/S2lf8tsH/ACNT+uKpb5a1&#xA;XSx5c0oG8gBFnbggyJ/vpffFUy/S2lf8tsH/ACNT+uKu/S2lf8tsH/I1P64qlvlnVdLHlzSgbyAE&#xA;WduCDIn++l98VTL9LaV/y2wf8jU/rirv0tpX/LbB/wAjU/riqW+X9V0sWEoN5AP9MvjvIne8lPji&#xA;qZfpbSv+W2D/AJGp/XFXfpbSv+W2D/kan9cVS3y/quliwlBvIAfrl8d5E73kp8cVTL9LaV/y2wf8&#xA;jU/rirv0tpX/AC2wf8jU/riqW+X9V0sWEoN5AP8ATL47yJ3vJT44qmX6W0r/AJbYP+Rqf1xV36W0&#xA;r/ltg/5Gp/XFUt0rVdLF/rJN5AAbxCP3ib/6HbjxxVMv0tpX/LbB/wAjU/rirv0tpX/LbB/yNT+u&#xA;KpbpWq6WL/WSbyAA3iEfvE3/ANDtx44qmX6W0r/ltg/5Gp/XFXfpbSv+W2D/AJGp/XFUs/SOn/4l&#xA;9b6zF6X1Ph6nNePL1a8a1pWmKv8A/9k=</xapGImg:image>
    </rdf:li>
   </rdf:Alt>
  </xap:Thumbnails>
 </rdf:Description>

 <rdf:Description rdf:about='uuid:1c6094d8-48f6-11df-96e1-001124740a56'
  xmlns:xapMM='http://ns.adobe.com/xap/1.0/mm/'>
  <xapMM:DocumentID>uuid:831aaf18-81ce-11da-9137-001124808cba</xapMM:DocumentID>
 </rdf:Description>

 <rdf:Description rdf:about='uuid:1c6094d8-48f6-11df-96e1-001124740a56'
  xmlns:dc='http://purl.org/dc/elements/1.1/'>
  <dc:format>image/svg+xml</dc:format>
 </rdf:Description>

</rdf:RDF>
</x:xmpmeta>
                                                                                                                                                                                                                                                                                                                                                                                                                                                                                                                                                                                                                                                                                                                                                                                                                                                                                                                                                                                                                                                                                                                                                                                                                                                                                                                                                                                                                                                                                                                                                                                                                                                                                                                                                                                                                                                                                                                                                                                                                                                                                                                                <?xpacket end='w'?>
			</metadata>
		<g id="レイヤー1">
			<g>
				<rect x="0.125" y="0.125" fill="none" stroke="#000000" stroke-width="0.25" width="100" height="150"/> 
				<rect x="100.125" y="0.125" fill="none" stroke="#000000" stroke-width="0.25" width="100" height="150"/> 
				<rect x="200.125" y="0.125" fill="none" stroke="#000000" stroke-width="0.25" width="100" height="150"/> 
				<rect x="300.125" y="0.125" fill="none" stroke="#000000" stroke-width="0.25" width="100" height="150"/> 
				<rect x="400.125" y="0.125" fill="none" stroke="#000000" stroke-width="0.25" width="100" height="150"/> 
				<rect x="500.125" y="0.125" fill="none" stroke="#000000" stroke-width="0.25" width="100" height="150"/> 
				<rect x="600.125" y="0.125" fill="none" stroke="#000000" stroke-width="0.25" width="100" height="150"/> 
				<rect x="0.125" y="150.125" fill="none" stroke="#000000" stroke-width="0.25" width="100" height="150"/> 
				<rect x="100.125" y="150.125" fill="none" stroke="#000000" stroke-width="0.25" width="100" height="150"/> 
				<rect x="200.125" y="150.125" fill="none" stroke="#000000" stroke-width="0.25" width="100" height="150"/> 
				<rect x="300.125" y="150.125" fill="none" stroke="#000000" stroke-width="0.25" width="100" height="150"/> 
				<rect x="400.125" y="150.125" fill="none" stroke="#000000" stroke-width="0.25" width="100" height="150"/> 
				<rect x="500.125" y="150.125" fill="none" stroke="#000000" stroke-width="0.25" width="100" height="150"/> 
				<rect x="600.125" y="150.125" fill="none" stroke="#000000" stroke-width="0.25" width="100" height="150"/> 
				<rect x="0.125" y="300.125" fill="none" stroke="#000000" stroke-width="0.25" width="100" height="150"/> 
				<rect x="100.125" y="300.125" fill="none" stroke="#000000" stroke-width="0.25" width="100" height="150"/> 
				<rect x="200.125" y="300.125" fill="none" stroke="#000000" stroke-width="0.25" width="100" height="150"/> 
				<rect x="300.125" y="300.125" fill="none" stroke="#000000" stroke-width="0.25" width="100" height="150"/> 
				<rect x="400.125" y="300.125" fill="none" stroke="#000000" stroke-width="0.25" width="100" height="150"/> 
				<rect x="500.125" y="300.125" fill="none" stroke="#000000" stroke-width="0.25" width="100" height="150"/> 
				<rect x="600.125" y="300.125" fill="none" stroke="#000000" stroke-width="0.25" width="100" height="150"/> 
				<rect x="0.125" y="450.125" fill="none" stroke="#000000" stroke-width="0.25" width="100" height="150"/> 
				<rect x="100.125" y="450.125" fill="none" stroke="#000000" stroke-width="0.25" width="100" height="150"/> 
				<rect x="200.125" y="450.125" fill="none" stroke="#000000" stroke-width="0.25" width="100" height="150"/> 
				<rect x="300.125" y="450.125" fill="none" stroke="#000000" stroke-width="0.25" width="100" height="150"/> 
				<rect x="400.125" y="450.125" fill="none" stroke="#000000" stroke-width="0.25" width="100" height="150"/> 
				<rect x="500.125" y="450.125" fill="none" stroke="#000000" stroke-width="0.25" width="100" height="150"/> 
				<rect x="600.125" y="450.125" fill="none" stroke="#000000" stroke-width="0.25" width="100" height="150"/> 
				<rect x="0.125" y="600.125" fill="none" stroke="#000000" stroke-width="0.25" width="100" height="150"/> 
				<rect x="100.125" y="600.125" fill="none" stroke="#000000" stroke-width="0.25" width="100" height="150"/> 
				<rect x="200.125" y="600.125" fill="none" stroke="#000000" stroke-width="0.25" width="100" height="150"/> 
				<rect x="300.125" y="600.125" fill="none" stroke="#000000" stroke-width="0.25" width="100" height="150"/> 
				<rect x="400.125" y="600.125" fill="none" stroke="#000000" stroke-width="0.25" width="100" height="150"/> 
				<rect x="500.125" y="600.125" fill="none" stroke="#000000" stroke-width="0.25" width="100" height="150"/> 
				<rect x="600.125" y="600.125" fill="none" stroke="#000000" stroke-width="0.25" width="100" height="150"/> 
				<rect x="0.125" y="750.125" fill="none" stroke="#000000" stroke-width="0.25" width="100" height="150"/> 
				<rect x="100.125" y="750.125" fill="none" stroke="#000000" stroke-width="0.25" width="100" height="150"/> 
				<rect x="200.125" y="750.125" fill="none" stroke="#000000" stroke-width="0.25" width="100" height="150"/> 
				<rect x="300.125" y="750.125" fill="none" stroke="#000000" stroke-width="0.25" width="100" height="150"/> 
				<rect x="400.125" y="750.125" fill="none" stroke="#000000" stroke-width="0.25" width="100" height="150"/> 
				<rect x="500.125" y="750.125" fill="none" stroke="#000000" stroke-width="0.25" width="100" height="150"/> 
				<rect x="600.125" y="750.125" fill="none" stroke="#000000" stroke-width="0.25" width="100" height="150"/> 
				<rect x="0.125" y="900.125" fill="none" stroke="#000000" stroke-width="0.25" width="100" height="150"/> 
				<rect x="100.125" y="900.125" fill="none" stroke="#000000" stroke-width="0.25" width="100" height="150"/> 
				<rect x="200.125" y="900.125" fill="none" stroke="#000000" stroke-width="0.25" width="100" height="150"/> 
				<rect x="300.125" y="900.125" fill="none" stroke="#000000" stroke-width="0.25" width="100" height="150"/> 
				<rect x="400.125" y="900.125" fill="none" stroke="#000000" stroke-width="0.25" width="100" height="150"/> 
				<rect x="500.125" y="900.125" fill="none" stroke="#000000" stroke-width="0.25" width="100" height="150"/> 
				<rect x="600.125" y="900.125" fill="none" stroke="#000000" stroke-width="0.25" width="100" height="150"/> 
				<rect x="700.125" y="0.125" fill="none" stroke="#000000" stroke-width="0.25" width="100" height="150"/> 
				<rect x="700.125" y="150.125" fill="none" stroke="#000000" stroke-width="0.25" width="100" height="150"/> 
				<rect x="700.125" y="300.125" fill="none" stroke="#000000" stroke-width="0.25" width="100" height="150"/> 
				<rect x="700.125" y="450.125" fill="none" stroke="#000000" stroke-width="0.25" width="100" height="150"/> 
				<rect x="700.125" y="600.125" fill="none" stroke="#000000" stroke-width="0.25" width="100" height="150"/> 
				<rect x="700.125" y="750.125" fill="none" stroke="#000000" stroke-width="0.25" width="100" height="150"/> 
				<rect x="700.125" y="900.125" fill="none" stroke="#000000" stroke-width="0.25" width="100" height="150"/> 
			</g>
			<g>
				<g>
					<polygon points="465.125,33.125 467.625,33.125 455.625,49.125 453.125,49.125 "/>
					<path d="M433.125,31.625v2c7.1435547,0,10,2.1240234,10,5c0,3.3662109-2.1552734,7.0410156-6.5,10.5h3
						c3.6308594-3.28125,5.5-6.9375,5.5-10.5C445.125,34.5546875,441.5224609,31.625,433.125,31.625z"/>
				</g>
				<g>
					<polygon points="469.625,182.7910156 456.7910156,199.125 452.0419922,199.125 463.7080078,182.7910156 "/>
					<path d="M431.625,185.4580078c6.9960938,0,9.5830078,1.8676758,9.5830078,4.4169922
						c0,2.8603516-1.8759766,6.1318359-5.6660156,9.25H440.125c3.5830078-3.1914062,5.5-6.9648438,5.5-10.5
						c0-4.2402344-4.0546875-7.3339844-14-7.3339844V185.4580078z"/>
				</g>
				<g>
					<polygon points="471.625,332.4584961 457.9580078,349.125 450.9580078,349.125 462.2919922,332.4584961 "/>
					<path d="M430.125,337.2915039c6.8496094,0,9.1669922,1.6118164,9.1669922,3.8334961
						c0,2.3544922-1.5966797,5.2231445-4.8339844,8H440.625c3.5361328-3.1015625,5.5-6.9921875,5.5-10.5
						c0-4.409668-4.5068359-7.6665039-16-7.6665039V337.2915039z"/>
				</g>
				<g>
					<polygon points="473.625,482.125 459.125,499.125 449.875,499.125 460.875,482.125 "/>
					<path d="M428.625,489.125c6.703125,0,8.75,1.3554688,8.75,3.25c0,1.8486328-1.3173828,4.3144531-4,6.75h7.75
						c3.4882812-3.0117188,5.5-7.0195312,5.5-10.5c0-4.5791016-4.9589844-8-18-8V489.125z"/>
				</g>
				<g>
					<polygon points="449.2910156,649.125 459.9580078,631.7910156 475.4580078,631.7910156 460.4580078,649.125 "/>
					<path d="M436.4580078,642.9580078c0,1.6835938-1.1103516,3.8564453-3.5,6.1669922h8.8339844
						c3.4052734-2.8916016,5.4990234-6.9990234,5.4990234-10.5c0-4.7509766-5.4130859-8.3339844-20-8.3339844v9.6669922
						C434.5205078,639.9580078,436.4580078,641.2021484,436.4580078,642.9580078z"/>
				</g>
				<g>
					<polygon points="448.7080078,799.125 459.0419922,781.4580078 477.2919922,781.4580078 461.7919922,799.125 "/>
					<path d="M435.5419922,793.5419922c0,1.5185547-0.9033203,3.3974609-3,5.5830078h9.9160156
						c3.3242188-2.7705078,5.5-6.9794922,5.5-10.5c0-4.9238281-5.8671875-8.6669922-22-8.6669922v10.8339844
						C433.7138672,790.7919922,435.5419922,791.9248047,435.5419922,793.5419922z"/>
				</g>
				<g>
					<polygon points="448.125,949.125 458.125,931.125 479.125,931.125 463.125,949.125 "/>
					<path d="M434.625,944.125c0,1.3535156-0.6953125,2.9394531-2.5,5h11c3.2421875-2.6503906,5.5-6.9589844,5.5-10.5
						c0-5.0957031-6.3212891-9-24-9v12C432.90625,941.625,434.625,942.6464844,434.625,944.125z"/>
				</g>
			</g>
			<g>
				<g>
					<polygon points="255.625,33.125 253.125,33.125 265.125,49.125 267.625,49.125 "/>
					<path d="M233.125,31.625v2c7.1435547,0,10,2.1240234,10,5c0,3.3662109-2.1552734,7.0410156-6.5,10.5h3
						c3.6308594-3.28125,5.5-6.9375,5.5-10.5C245.125,34.5546875,241.5224609,31.625,233.125,31.625z"/>
				</g>
				<g>
					<polygon points="252.0415039,182.7910156 264.8745117,199.125 269.6245117,199.125 257.9580078,182.7910156 "/>
					<path d="M231.6245117,185.4580078c6.9970703,0,9.5834961,1.8676758,9.5834961,4.4169922
						c0,2.8603516-1.8759766,6.1318359-5.6665039,9.25h4.5830078c3.5834961-3.1914062,5.5-6.9648438,5.5-10.5
						c0-4.2402344-4.0541992-7.3339844-14-7.3339844V185.4580078z"/>
				</g>
				<g>
					<polygon points="250.9584961,332.4584961 264.625,349.125 271.625,349.125 260.2915039,332.4584961 "/>
					<path d="M230.125,337.2915039c6.8500977,0,9.1669922,1.6118164,9.1669922,3.8334961
						c0,2.3544922-1.597168,5.2231445-4.8334961,8H240.625c3.5356445-3.1015625,5.5-6.9921875,5.5-10.5
						c0-4.409668-4.5068359-7.6665039-16-7.6665039V337.2915039z"/>
				</g>
				<g>
					<polygon points="249.875,482.125 264.375,499.125 273.625,499.125 262.625,482.125 "/>
					<path d="M228.625,489.125c6.703125,0,8.75,1.3554688,8.75,3.25c0,1.8486328-1.3173828,4.3144531-4,6.75h7.75
						c3.4882812-3.0117188,5.5-7.0195312,5.5-10.5c0-4.5791016-4.9589844-8-18-8V489.125z"/>
				</g>
				<g>
					<polygon points="275.4580078,649.125 264.7915039,631.7910156 249.2915039,631.7910156 264.2915039,649.125 "/>
					<path d="M236.4580078,642.9580078c0,1.6835938-1.1103516,3.8564453-3.5,6.1669922h8.8334961
						c3.40625-2.8916016,5.4995117-6.9990234,5.4995117-10.5c0-4.7509766-5.4125977-8.3339844-20-8.3339844v9.6669922
						C234.5205078,639.9580078,236.4580078,641.2021484,236.4580078,642.9580078z"/>
				</g>
				<g>
					<polygon points="277.2915039,799.125 266.9584961,781.4580078 248.7084961,781.4580078 264.2084961,799.125 "/>
					<path d="M235.5415039,793.5419922c0,1.5185547-0.9023438,3.3974609-2.9995117,5.5830078h9.9165039
						c3.3242188-2.7705078,5.5-6.9794922,5.5-10.5c0-4.9238281-5.8671875-8.6669922-22-8.6669922v10.8339844
						C233.7133789,790.7919922,235.5415039,791.9248047,235.5415039,793.5419922z"/>
				</g>
				<g>
					<polygon points="279.125,949.125 269.125,931.125 248.125,931.125 264.125,949.125 "/>
					<path d="M234.625,944.125c0,1.3535156-0.6953125,2.9394531-2.5,5h11c3.2421875-2.6503906,5.5-6.9589844,5.5-10.5
						c0-5.0957031-6.3212891-9-24-9v12C232.90625,941.625,234.625,942.6464844,234.625,944.125z"/>
				</g>
			</g>
			<g>
				<g>
					<polygon points="565.125,33.125 567.625,33.125 555.625,49.125 553.125,49.125 "/>
					<path d="M545.125,31.625v2c-7.1435547,0-10,2.1240234-10,5c0,3.3662109,2.1552734,7.0410156,6.5,10.5h-3
						c-3.6308594-3.28125-5.5-6.9375-5.5-10.5C533.125,34.5546875,536.7265625,31.625,545.125,31.625z"/>
				</g>
				<g>
					<polygon points="569.625,182.7910156 556.7910156,199.125 552.0410156,199.125 563.7080078,182.7910156 "/>
					<path d="M545.625,185.4580078c-6.9970703,0-9.5839844,1.8676758-9.5839844,4.4169922
						c0,2.8603516,1.8759766,6.1318359,5.6669922,9.25H537.125c-3.5839844-3.1914062-5.5-6.9648438-5.5-10.5
						c0-4.2402344,4.0537109-7.3339844,14-7.3339844V185.4580078z"/>
				</g>
				<g>
					<polygon points="571.625,332.4584961 557.9580078,349.125 550.9580078,349.125 562.2919922,332.4584961 "/>
					<path d="M546.125,337.2915039c-6.8496094,0-9.1669922,1.6118164-9.1669922,3.8334961
						c0,2.3544922,1.5966797,5.2231445,4.8339844,8H535.625c-3.5361328-3.1015625-5.5-6.9921875-5.5-10.5
						c0-4.409668,4.5068359-7.6665039,16-7.6665039V337.2915039z"/>
				</g>
				<g>
					<polygon points="573.625,482.125 559.125,499.125 549.875,499.125 560.875,482.125 "/>
					<path d="M546.625,489.125c-6.703125,0-8.75,1.3554688-8.75,3.25c0,1.8486328,1.3164062,4.3144531,4,6.75h-7.75
						c-3.4882812-3.0117188-5.5-7.0195312-5.5-10.5c0-4.5791016,4.9589844-8,18-8V489.125z"/>
				</g>
				<g>
					<polygon points="549.2919922,649.125 559.9580078,631.7910156 575.4580078,631.7910156 560.4580078,649.125 "/>
					<path d="M538.125,642.9580078c0,1.6835938,1.109375,3.8564453,3.5,6.1669922h-8.8330078
						c-3.4072266-2.8916016-5.5009766-6.9990234-5.5009766-10.5c0-4.7509766,5.4130859-8.3339844,20-8.3339844v9.6669922
						C540.0625,639.9580078,538.125,641.2021484,538.125,642.9580078z"/>
				</g>
				<g>
					<polygon points="548.7080078,799.125 559.0419922,781.4580078 577.2919922,781.4580078 561.7919922,799.125 "/>
					<path d="M538.375,793.5419922c0,1.5185547,0.9023438,3.3974609,3,5.5830078h-9.9169922
						c-3.3242188-2.7705078-5.5-6.9794922-5.5-10.5c0-4.9238281,5.8671875-8.6669922,22-8.6669922v10.8339844
						C540.203125,790.7919922,538.375,791.9248047,538.375,793.5419922z"/>
				</g>
				<g>
					<polygon points="548.125,949.125 558.125,931.125 579.125,931.125 563.125,949.125 "/>
					<path d="M538.625,944.125c0,1.3535156,0.6953125,2.9394531,2.5,5h-11c-3.2421875-2.6503906-5.5-6.9589844-5.5-10.5
						c0-5.0957031,6.3212891-9,24-9v12C540.34375,941.625,538.625,942.6464844,538.625,944.125z"/>
				</g>
			</g>
			<g>
				<g>
					<polygon points="355.625,33.125 353.125,33.125 365.125,49.125 367.625,49.125 "/>
					<path d="M345.125,31.625v2c-7.1435547,0-10,2.1240234-10,5c0,3.3662109,2.1552734,7.0410156,6.5,10.5h-3
						c-3.6308594-3.28125-5.5-6.9375-5.5-10.5C333.125,34.5546875,336.7265625,31.625,345.125,31.625z"/>
				</g>
				<g>
					<polygon points="352.375,182.7910156 364.875,199.125 369.625,199.125 358.2919922,182.7910156 "/>
					<path d="M345.625,185.4580078c-6.9970703,0-9.5839844,1.8676758-9.5839844,4.4169922
						c0,2.8603516,1.8759766,6.1318359,5.6669922,9.25h-4.5834961c-3.5830078-3.1914062-5.4995117-6.9648438-5.4995117-10.5
						c0-4.2402344,4.0537109-7.3339844,14-7.3339844V185.4580078z"/>
				</g>
				<g>
					<polygon points="351.625,332.4584961 364.625,349.125 371.625,349.125 360.9580078,332.4584961 "/>
					<path d="M346.125,337.2915039c-6.8500977,0-9.1665039,1.6118164-9.1665039,3.8334961
						c0,2.3544922,1.5957031,5.2231445,4.8330078,8H335.625c-3.5356445-3.1015625-5.5-6.9921875-5.5-10.5
						c0-4.409668,4.5063477-7.6665039,16-7.6665039V337.2915039z"/>
				</g>
				<g>
					<polygon points="350.875,482.125 364.375,499.125 373.625,499.125 363.625,482.125 "/>
					<path d="M346.625,489.125c-6.703125,0-8.75,1.3554688-8.75,3.25c0,1.8486328,1.3164062,4.3144531,4,6.75h-7.75
						c-3.4882812-3.0117188-5.5-7.0195312-5.5-10.5c0-4.5791016,4.9589844-8,18-8V489.125z"/>
				</g>
				<g>
					<polygon points="375.4580078,649.125 366.125,631.7910156 350.6245117,631.7910156 364.2910156,649.125 "/>
					<path d="M338.1245117,642.9580078c0,1.6835938,1.109375,3.8564453,3.5,6.1669922h-8.8330078
						c-3.4067383-2.8916016-5.5-6.9990234-5.5-10.5c0-4.7509766,5.4125977-8.3339844,20-8.3339844v9.6669922
						C340.0625,639.9580078,338.1245117,641.2021484,338.1245117,642.9580078z"/>
				</g>
				<g>
					<polygon points="377.2919922,799.125 368.625,781.4580078 350.375,781.4580078 364.2080078,799.125 "/>
					<path d="M338.375,793.5419922c0,1.5185547,0.9023438,3.3974609,3,5.5830078h-9.9165039
						c-3.3242188-2.7705078-5.5-6.9794922-5.5-10.5c0-4.9238281,5.8671875-8.6669922,22-8.6669922v10.8339844
						C340.203125,790.7919922,338.375,791.9248047,338.375,793.5419922z"/>
				</g>
				<g>
					<polygon points="379.125,949.125 371.125,931.125 350.125,931.125 364.125,949.125 "/>
					<path d="M338.625,944.125c0,1.3535156,0.6953125,2.9394531,2.5,5h-11c-3.2421875-2.6503906-5.5-6.9589844-5.5-10.5
						c0-5.0957031,6.3212891-9,24-9v12C340.34375,941.625,338.625,942.6464844,338.625,944.125z"/>
				</g>
			</g>
			<g>
				<path d="M158.625,33.625v-2c-10.7607422,0-15,3.0869141-15,7.5c0,3.0400391,2.5078125,7.0224609,7,10h3
					c-5.4921875-3.4990234-8-7.1943359-8-10C145.625,35.9609375,149.4257812,33.625,158.625,33.625z"/>
				<path d="M142.1245117,188.9580078c0-4.434082,4.7001953-7.6669922,17-7.6669922v4.1669922
					c-8.7841797,0-12.1665039,2.046875-12.1665039,4.75c0,2.4174805,2.1884766,5.6889648,7,8.9169922h-5
					C144.5517578,196.0947266,142.1245117,192.0883789,142.1245117,188.9580078z"/>
				<path d="M140.625,338.7915039c0-4.4550781,5.1606445-7.8330078,19-7.8330078v6.3330078
					c-8.3696289,0-11.3330078,1.7578125-11.3330078,4c0,2.0292969,1.8681641,4.8774414,5.9995117,7.8334961h-7
					C142.9711914,346.043457,140.625,342.012207,140.625,338.7915039z"/>
				<path d="M160.125,489.125c-7.9550781,0-10.5,1.46875-10.5,3.25c0,1.640625,1.5488281,4.0654297,5,6.75h-9
					c-4.234375-3.1337891-6.5-7.1894531-6.5-10.5c0-4.4765625,5.6210938-8,21-8V489.125z"/>
				<path d="M137.7915039,638.625c0-4.6826172,6.1176758-8.3339844,23-8.3339844v9.6669922
					c-8.4672852,0-10.8334961,1.3339844-10.8334961,3c0,1.4990234,1.3134766,3.6474609,4.3334961,6.1669922h-10
					C140.1616211,646.0859375,137.7915039,641.9150391,137.7915039,638.625z"/>
				<path d="M136.4584961,788.625c0-4.8896484,6.6147461-8.6669922,25-8.6669922v10.8339844
					c-8.9799805,0-11.1669922,1.1982422-11.1669922,2.75c0,1.3564453,1.0786133,3.2285156,3.6669922,5.5830078h-11
					C138.9335938,796.1806641,136.4584961,791.8935547,136.4584961,788.625z"/>
				<path d="M150.625,944.125c0,1.2148438,0.8427734,2.8105469,3,5h-12c-3.9199219-2.8496094-6.5-7.2519531-6.5-10.5
					c0-5.0957031,7.1113281-9,27-9v12C152.6328125,941.625,150.625,942.6884766,150.625,944.125z"/>
			</g>
			<g>
				<path d="M41.625,33.625v-2c10.7607422,0,15,3.0869141,15,7.5c0,3.0400391-2.5078125,7.0224609-7,10h-3
					c5.4921875-3.4990234,8-7.1943359,8-10C54.625,35.9609375,50.8232422,33.625,41.625,33.625z"/>
				<path d="M58.1245117,188.9580078c0,3.1303711-2.4267578,7.1367188-6.8330078,10.1669922h-5
					c4.8110352-3.2280273,6.9995117-6.4995117,6.9995117-8.9169922c0-2.703125-3.3823242-4.75-12.1665039-4.75v-4.1669922
					C53.4248047,181.2910156,58.1245117,184.5239258,58.1245117,188.9580078z"/>
				<path d="M59.625,338.7915039c0,3.2207031-2.3461914,7.2519531-6.6665039,10.3334961h-7
					c4.1308594-2.9560547,6-5.8041992,6-7.8334961c0-2.2421875-2.9638672-4-11.3334961-4v-6.3330078
					C54.4643555,330.9584961,59.625,334.3364258,59.625,338.7915039z"/>
				<path d="M40.125,489.125c7.9550781,0,10.5,1.46875,10.5,3.25c0,1.640625-1.5498047,4.0654297-5,6.75h9
					c4.234375-3.1337891,6.5-7.1894531,6.5-10.5c0-4.4765625-5.6210938-8-21-8V489.125z"/>
				<path d="M62.4580078,638.625c0-4.6826172-6.1181641-8.3339844-23-8.3339844v9.6669922
					c8.4672852,0,10.8334961,1.3339844,10.8334961,3c0,1.4990234-1.3144531,3.6474609-4.3334961,6.1669922h10
					C60.0878906,646.0859375,62.4580078,641.9150391,62.4580078,638.625z"/>
				<path d="M63.7915039,788.625c0-4.8896484-6.6142578-8.6669922-25-8.6669922v10.8339844
					c8.9799805,0,11.1669922,1.1982422,11.1669922,2.75c0,1.3564453-1.0786133,3.2285156-3.6669922,5.5830078h11
					C61.3164062,796.1806641,63.7915039,791.8935547,63.7915039,788.625z"/>
				<path d="M49.625,944.125c0,1.2148438-0.8427734,2.8105469-3,5h12c3.9199219-2.8496094,6.5-7.2519531,6.5-10.5
					c0-5.0957031-7.1113281-9-27-9v12C47.6171875,941.625,49.625,942.6884766,49.625,944.125z"/>
			</g>
			<g>
				<path d="M54.125,995.625c-6.2207031,0-8.5-1.4599609-8.5-4c0-2.7998047,3.2167969-4.5,17-4.5h1.5v-11h-1.5
					c-13.2314453,0-16.5-1.6220703-16.5-4.5c0-2.1494141,1.6875-3.5,9-3.5c4.0976562,0,9.7128906,1.0888672,16.5,3.5v-13.5
					c-6.3408203-1.9951172-12.7080078-3-18.5-3c-16.4160156,0-25.5,6.6201172-25.5,13.5
					c0,5.8798828,3.890625,10.1279297,12.5,12.3974609v0.2011719c-7.65625,0.734375-13,6.4648438-13,12.9013672
					c0,8.7255859,8.890625,15,26,15c6.2597656,0,12.9003906-1.0078125,19.5-3v-13.5
					C65.1289062,994.9013672,60.4355469,995.625,54.125,995.625z"/>
				<path d="M53.7915039,847.4580078c-7.4291992,0-10.4169922-2.0244141-10.4169922-5.4169922
					c0-3.5966797,3.7036133-5.7333984,18.25-5.7333984h1.9169922V826.375h-1.9169922
					c-13.7553711,0-17.6665039-2.0263672-17.6665039-5.4169922c0-2.7753906,2.4379883-4.5839844,10.6665039-4.5839844
					c4.3256836,0,10.0219727,1.1064453,16.5,3.4726562v-11.75C64.96875,806.1259766,58.6879883,805.125,52.9580078,805.125
					c-16.0371094,0-24.8334961,6.3818359-24.8334961,13.3330078c0,5.7128906,4.0395508,10.2802734,12.4570312,12.4121094v0.2011719
					c-7.7788086,0.9238281-13.0400391,6.6142578-13.0400391,13.0537109c0,8.7539062,8.6298828,15,25.4165039,15
					c6.137207,0,12.65625-1.0136719,19.0830078-2.9873047v-11.75
					C64.8881836,846.6523438,59.9838867,847.4580078,53.7915039,847.4580078z"/>
				<path d="M53.4584961,699.2919922c-8.6376953,0-12.3334961-2.5888672-12.3334961-6.8339844
					c0-4.3945312,4.1899414-6.9677734,19.5-6.9677734h2.3334961v-8.8662109H60.625
					c-14.2802734,0-18.8334961-2.4287109-18.8334961-6.3320312c0-3.4013672,3.1889648-5.6679688,12.3334961-5.6679688
					c4.5527344,0,10.331543,1.1240234,16.5,3.4433594v-10C64.6533203,656.1220703,58.4599609,655.125,52.7915039,655.125
					c-15.6582031,0-24.1665039,6.1445312-24.1665039,13.1669922c0,5.5449219,4.1879883,10.4316406,12.4140625,12.4267578v0.2001953
					c-7.9023438,1.1132812-13.0805664,6.7646484-13.0805664,13.2060547c0,8.7832031,8.3696289,15,24.8330078,15
					c6.0151367,0,12.4125977-1.0185547,18.6669922-2.9746094v-9.9990234
					C64.6479492,698.4042969,59.5327148,699.2919922,53.4584961,699.2919922z"/>
				<path d="M53.125,551.125c-9.8457031,0-14.25-3.1533203-14.25-8.2509766c0-5.1914062,4.6767578-8.2011719,20.75-8.2011719h2.75
					v-7.7988281h-2.75c-14.8046875,0-20-2.8330078-20-7.2490234c0-4.0263672,3.9394531-6.7509766,14-6.7509766
					c4.7802734,0,10.640625,1.140625,16.5,3.4150391v-8.25c-5.7871094-1.9208984-11.8935547-2.9140625-17.5-2.9140625
					c-15.2792969,0-23.5,5.9072266-23.5,13c0,5.3779297,4.3369141,10.5839844,12.3710938,12.4423828v0.1992188
					C33.4707031,532.0693359,28.375,537.6806641,28.375,544.125c0,8.8115234,8.109375,15,24.25,15
					c5.8925781,0,12.1679688-1.0244141,18.25-2.9619141v-8.2490234C64.4072266,550.1552734,59.0810547,551.125,53.125,551.125z"/>
				<path d="M52.7910156,403.1245117c-10.9702148,0-16.3330078-3.6411133-16.3330078-9.8334961
					c0-6.4052734,5.9423828-9.9677734,22-9.9677734h3.3334961v-5.8662109h-3.3334961
					c-14.7016602,0-21.1669922-3.2939453-21.1669922-8.4990234c0-4.8759766,5.0561523-8.0004883,15.8334961-8.0004883
					c5.0083008,0,10.9501953,1.2133789,16.5,3.4428711v-6.2597656C64.078125,356.1782227,58.0244141,355.125,52.4580078,355.125
					c-14.6738281,0-22.8334961,5.4946289-22.8334961,12.8330078c0,5.1904297,4.2055664,10.3173828,12.9951172,12.2573242v0.1992188
					c-9.6811523,1.7397461-13.8286133,7.8554688-13.8286133,13.7104492c0,9.0512695,8.1401367,15,23.6669922,15
					c5.7807617,0,11.9624023-1.0688477,17.8334961-3.0561523v-6.2514648
					C64.1660156,402.0488281,58.6289062,403.1245117,52.7910156,403.1245117z"/>
				<path d="M52.4584961,255.125c-12.0957031,0-18.4169922-4.1298828-18.4169922-11.4169922
					c0-7.6181641,7.2075195-11.7338867,23.25-11.7338867h3.9169922v-3.9326172h-3.9169922
					c-14.5986328,0-22.3330078-3.7548828-22.3330078-9.75c0-5.7250977,6.1723633-9.25,17.6665039-9.25
					c5.2363281,0,11.2592773,1.2861328,16.5,3.4716797v-4.2695312C63.8183594,206.2387695,57.8178711,205.125,52.2919922,205.125
					c-14.0688477,0-22.1669922,5.0830078-22.1669922,12.6665039c0,5.0024414,4.0742188,10.050293,13.6191406,12.0727539v0.1992188
					c-11.3369141,2.1767578-14.5356445,8.796875-14.5356445,14.0615234c0,9.2919922,8.1704102,15,23.0834961,15
					c5.668457,0,11.7563477-1.1123047,17.4165039-3.1499023v-4.2539062
					C63.9262695,253.9428711,58.1782227,255.125,52.4584961,255.125z"/>
				<path d="M52.125,107.125c-13.2207031,0-20.5-4.6181641-20.5-13c0-8.8320312,8.4726562-13.5,24.5-13.5h4.5v-2h-4.5
					c-14.4960938,0-23.5-4.2158203-23.5-11c0-6.5751953,7.2890625-10.5,19.5-10.5c5.4638672,0,11.5683594,1.359375,16.5,3.5
					v-2.2792969C63.5585938,56.2988281,57.6113281,55.125,52.125,55.125c-13.4628906,0-21.5,4.6708984-21.5,12.5
					c0,4.8144531,3.9423828,9.7832031,14.2431641,11.8876953v0.1992188C31.875,82.3251953,29.625,89.4501953,29.625,94.125
					c0,9.5322266,8.2011719,15,22.5,15c5.5566406,0,11.5507812-1.15625,17-3.2441406V103.625
					C63.6855469,105.8369141,57.7265625,107.125,52.125,107.125z"/>
			</g>
			<g>
				<path d="M154.125,995.625c-6.2207031,0-8.5-1.4599609-8.5-4c0-2.7998047,3.2167969-4.5,17-4.5h1.5v-11h-1.5
					c-13.2314453,0-16.5-1.6220703-16.5-4.5c0-2.1494141,1.6875-3.5,9-3.5c4.0976562,0,9.7128906,1.0888672,16.5,3.5v-13.5
					c-6.3408203-1.9951172-12.7080078-3-18.5-3c-16.4160156,0-25.5,6.6201172-25.5,13.5
					c0,5.8798828,3.890625,10.1279297,12.5,12.3974609v0.2011719c-7.65625,0.734375-13,6.4648438-13,12.9013672
					c0,8.7255859,8.890625,15,26,15c6.2597656,0,12.9003906-1.0078125,19.5-3v-13.5
					C165.1289062,994.9013672,160.4355469,995.625,154.125,995.625z"/>
				<path d="M153.7915039,847.4580078c-7.4291992,0-10.4169922-2.0244141-10.4169922-5.4169922
					c0-3.5966797,3.7036133-5.7333984,18.25-5.7333984h1.9169922V826.375h-1.9169922
					c-13.7553711,0-17.6665039-2.0263672-17.6665039-5.4169922c0-2.7753906,2.4379883-4.5839844,10.6665039-4.5839844
					c4.3256836,0,10.0219727,1.1064453,16.5,3.4726562v-11.75C164.96875,806.1259766,158.6879883,805.125,152.9580078,805.125
					c-16.0371094,0-24.8334961,6.3818359-24.8334961,13.3330078c0,5.7128906,4.0395508,10.2802734,12.4570312,12.4121094v0.2011719
					c-7.7788086,0.9238281-13.0400391,6.6142578-13.0400391,13.0537109c0,8.7539062,8.6298828,15,25.4165039,15
					c6.137207,0,12.65625-1.0136719,19.0830078-2.9873047v-11.75
					C164.8881836,846.6523438,159.9838867,847.4580078,153.7915039,847.4580078z"/>
				<path d="M153.4584961,699.2919922c-8.6376953,0-12.3334961-2.5888672-12.3334961-6.8339844
					c0-4.3945312,4.1899414-6.9677734,19.5-6.9677734h2.3334961v-8.8662109H160.625
					c-14.2802734,0-18.8334961-2.4287109-18.8334961-6.3320312c0-3.4013672,3.1889648-5.6679688,12.3334961-5.6679688
					c4.5527344,0,10.331543,1.1240234,16.5,3.4433594v-10c-5.9716797-1.9453125-12.1650391-2.9423828-17.8334961-2.9423828
					c-15.6582031,0-24.1665039,6.1445312-24.1665039,13.1669922c0,5.5449219,4.1879883,10.4316406,12.4140625,12.4267578v0.2001953
					c-7.9023438,1.1132812-13.0805664,6.7646484-13.0805664,13.2060547c0,8.7832031,8.3696289,15,24.8330078,15
					c6.0151367,0,12.4125977-1.0185547,18.6669922-2.9746094v-9.9990234
					C164.6479492,698.4042969,159.5327148,699.2919922,153.4584961,699.2919922z"/>
				<path d="M153.125,551.125c-9.8457031,0-14.25-3.1533203-14.25-8.2509766c0-5.1914062,4.6767578-8.2011719,20.75-8.2011719h2.75
					v-7.7988281h-2.75c-14.8046875,0-20-2.8330078-20-7.2490234c0-4.0263672,3.9394531-6.7509766,14-6.7509766
					c4.7802734,0,10.640625,1.140625,16.5,3.4150391v-8.25c-5.7871094-1.9208984-11.8935547-2.9140625-17.5-2.9140625
					c-15.2792969,0-23.5,5.9072266-23.5,13c0,5.3779297,4.3369141,10.5839844,12.3710938,12.4423828v0.1992188
					C133.4707031,532.0693359,128.375,537.6806641,128.375,544.125c0,8.8115234,8.109375,15,24.25,15
					c5.8925781,0,12.1679688-1.0244141,18.25-2.9619141v-8.2490234C164.4072266,550.1552734,159.0810547,551.125,153.125,551.125z"
					/>
				<path d="M152.7910156,403.1245117c-10.9702148,0-16.3330078-3.6411133-16.3330078-9.8334961
					c0-6.4052734,5.9423828-9.9677734,22-9.9677734h3.3334961v-5.8662109h-3.3334961
					c-14.7016602,0-21.1669922-3.2939453-21.1669922-8.4990234c0-4.8759766,5.0561523-8.0004883,15.8334961-8.0004883
					c5.0083008,0,10.9501953,1.2133789,16.5,3.4428711v-6.2597656c-5.5463867-1.9624023-11.6000977-3.015625-17.1665039-3.015625
					c-14.6738281,0-22.8334961,5.4946289-22.8334961,12.8330078c0,5.1904297,4.2055664,10.3173828,12.9951172,12.2573242v0.1992188
					c-9.6811523,1.7397461-13.8286133,7.8554688-13.8286133,13.7104492c0,9.0512695,8.1401367,15,23.6669922,15
					c5.7807617,0,11.9624023-1.0688477,17.8334961-3.0561523v-6.2514648
					C164.1660156,402.0488281,158.6289062,403.1245117,152.7910156,403.1245117z"/>
				<path d="M152.4584961,255.125c-12.0957031,0-18.4169922-4.1298828-18.4169922-11.4169922
					c0-7.6181641,7.2075195-11.7338867,23.25-11.7338867h3.9169922v-3.9326172h-3.9169922
					c-14.5986328,0-22.3330078-3.7548828-22.3330078-9.75c0-5.7250977,6.1723633-9.25,17.6665039-9.25
					c5.2363281,0,11.2592773,1.2861328,16.5,3.4716797v-4.2695312c-5.3066406-2.0048828-11.3071289-3.1186523-16.8330078-3.1186523
					c-14.0688477,0-22.1669922,5.0830078-22.1669922,12.6665039c0,5.0024414,4.0742188,10.050293,13.6191406,12.0727539v0.1992188
					c-11.3369141,2.1767578-14.5356445,8.796875-14.5356445,14.0615234c0,9.2919922,8.1704102,15,23.0834961,15
					c5.668457,0,11.7563477-1.1123047,17.4165039-3.1499023v-4.2539062
					C163.9262695,253.9428711,158.1782227,255.125,152.4584961,255.125z"/>
				<path d="M152.125,107.125c-13.2207031,0-20.5-4.6181641-20.5-13c0-8.8320312,8.4726562-13.5,24.5-13.5h4.5v-2h-4.5
					c-14.4960938,0-23.5-4.2158203-23.5-11c0-6.5751953,7.2890625-10.5,19.5-10.5c5.4638672,0,11.5683594,1.359375,16.5,3.5
					v-2.2792969c-5.0664062-2.046875-11.0136719-3.2207031-16.5-3.2207031c-13.4628906,0-21.5,4.6708984-21.5,12.5
					c0,4.8144531,3.9423828,9.7832031,14.2431641,11.8876953v0.1992188C131.875,82.3251953,129.625,89.4501953,129.625,94.125
					c0,9.5322266,8.2011719,15,22.5,15c5.5566406,0,11.5507812-1.15625,17-3.2441406V103.625
					C163.6855469,105.8369141,157.7265625,107.125,152.125,107.125z"/>
			</g>
			<g>
				<path d="M254.125,995.625c-6.2207031,0-8.5-1.4599609-8.5-4c0-2.7998047,3.2167969-4.5,17-4.5h1.5v-11h-1.5
					c-13.2314453,0-16.5-1.6220703-16.5-4.5c0-2.1494141,1.6875-3.5,9-3.5c4.0976562,0,9.7128906,1.0888672,16.5,3.5v-13.5
					c-6.3408203-1.9951172-12.7080078-3-18.5-3c-16.4160156,0-25.5,6.6201172-25.5,13.5
					c0,5.8798828,3.890625,10.1279297,12.5,12.3974609v0.2011719c-7.65625,0.734375-13,6.4648438-13,12.9013672
					c0,8.7255859,8.890625,15,26,15c6.2597656,0,12.9003906-1.0078125,19.5-3v-13.5
					C265.1289062,994.9013672,260.4355469,995.625,254.125,995.625z"/>
				<path d="M253.7915039,847.4580078c-7.4291992,0-10.4169922-2.0244141-10.4169922-5.4169922
					c0-3.5966797,3.7036133-5.7333984,18.25-5.7333984h1.9169922V826.375h-1.9169922
					c-13.7553711,0-17.6665039-2.0263672-17.6665039-5.4169922c0-2.7753906,2.4379883-4.5839844,10.6665039-4.5839844
					c4.3256836,0,10.0219727,1.1064453,16.5,3.4726562v-11.75C264.96875,806.1259766,258.6879883,805.125,252.9580078,805.125
					c-16.0371094,0-24.8334961,6.3818359-24.8334961,13.3330078c0,5.7128906,4.0395508,10.2802734,12.4570312,12.4121094v0.2011719
					c-7.7788086,0.9238281-13.0400391,6.6142578-13.0400391,13.0537109c0,8.7539062,8.6298828,15,25.4165039,15
					c6.137207,0,12.65625-1.0136719,19.0830078-2.9873047v-11.75
					C264.8881836,846.6523438,259.9838867,847.4580078,253.7915039,847.4580078z"/>
				<path d="M253.4584961,699.2919922c-8.6376953,0-12.3334961-2.5888672-12.3334961-6.8339844
					c0-4.3945312,4.1899414-6.9677734,19.5-6.9677734h2.3334961v-8.8662109H260.625
					c-14.2802734,0-18.8334961-2.4287109-18.8334961-6.3320312c0-3.4013672,3.1889648-5.6679688,12.3334961-5.6679688
					c4.5527344,0,10.331543,1.1240234,16.5,3.4433594v-10c-5.9716797-1.9453125-12.1650391-2.9423828-17.8334961-2.9423828
					c-15.6582031,0-24.1665039,6.1445312-24.1665039,13.1669922c0,5.5449219,4.1879883,10.4316406,12.4140625,12.4267578v0.2001953
					c-7.9023438,1.1132812-13.0805664,6.7646484-13.0805664,13.2060547c0,8.7832031,8.3696289,15,24.8330078,15
					c6.0151367,0,12.4125977-1.0185547,18.6669922-2.9746094v-9.9990234
					C264.6479492,698.4042969,259.5327148,699.2919922,253.4584961,699.2919922z"/>
				<path d="M253.125,551.125c-9.8457031,0-14.25-3.1533203-14.25-8.2509766c0-5.1914062,4.6767578-8.2011719,20.75-8.2011719h2.75
					v-7.7988281h-2.75c-14.8046875,0-20-2.8330078-20-7.2490234c0-4.0263672,3.9394531-6.7509766,14-6.7509766
					c4.7802734,0,10.640625,1.140625,16.5,3.4150391v-8.25c-5.7871094-1.9208984-11.8935547-2.9140625-17.5-2.9140625
					c-15.2792969,0-23.5,5.9072266-23.5,13c0,5.3779297,4.3369141,10.5839844,12.3710938,12.4423828v0.1992188
					C233.4707031,532.0693359,228.375,537.6806641,228.375,544.125c0,8.8115234,8.109375,15,24.25,15
					c5.8925781,0,12.1679688-1.0244141,18.25-2.9619141v-8.2490234C264.4072266,550.1552734,259.0810547,551.125,253.125,551.125z"
					/>
				<path d="M252.7910156,403.1245117c-10.9702148,0-16.3330078-3.6411133-16.3330078-9.8334961
					c0-6.4052734,5.9423828-9.9677734,22-9.9677734h3.3334961v-5.8662109h-3.3334961
					c-14.7016602,0-21.1669922-3.2939453-21.1669922-8.4990234c0-4.8759766,5.0561523-8.0004883,15.8334961-8.0004883
					c5.0083008,0,10.9501953,1.2133789,16.5,3.4428711v-6.2597656c-5.5463867-1.9624023-11.6000977-3.015625-17.1665039-3.015625
					c-14.6738281,0-22.8334961,5.4946289-22.8334961,12.8330078c0,5.1904297,4.2055664,10.3173828,12.9951172,12.2573242v0.1992188
					c-9.6811523,1.7397461-13.8286133,7.8554688-13.8286133,13.7104492c0,9.0512695,8.1401367,15,23.6669922,15
					c5.7807617,0,11.9624023-1.0688477,17.8334961-3.0561523v-6.2514648
					C264.1660156,402.0488281,258.6289062,403.1245117,252.7910156,403.1245117z"/>
				<path d="M252.4584961,255.125c-12.0957031,0-18.4169922-4.1298828-18.4169922-11.4169922
					c0-7.6181641,7.2075195-11.7338867,23.25-11.7338867h3.9169922v-3.9326172h-3.9169922
					c-14.5986328,0-22.3330078-3.7548828-22.3330078-9.75c0-5.7250977,6.1723633-9.25,17.6665039-9.25
					c5.2363281,0,11.2592773,1.2861328,16.5,3.4716797v-4.2695312c-5.3066406-2.0048828-11.3071289-3.1186523-16.8330078-3.1186523
					c-14.0688477,0-22.1669922,5.0830078-22.1669922,12.6665039c0,5.0024414,4.0742188,10.050293,13.6191406,12.0727539v0.1992188
					c-11.3369141,2.1767578-14.5356445,8.796875-14.5356445,14.0615234c0,9.2919922,8.1704102,15,23.0834961,15
					c5.668457,0,11.7563477-1.1123047,17.4165039-3.1499023v-4.2539062
					C263.9262695,253.9428711,258.1782227,255.125,252.4584961,255.125z"/>
				<path d="M252.125,107.125c-13.2207031,0-20.5-4.6181641-20.5-13c0-8.8320312,8.4726562-13.5,24.5-13.5h4.5v-2h-4.5
					c-14.4960938,0-23.5-4.2158203-23.5-11c0-6.5751953,7.2890625-10.5,19.5-10.5c5.4638672,0,11.5683594,1.359375,16.5,3.5
					v-2.2792969c-5.0664062-2.046875-11.0136719-3.2207031-16.5-3.2207031c-13.4628906,0-21.5,4.6708984-21.5,12.5
					c0,4.8144531,3.9423828,9.7832031,14.2431641,11.8876953v0.1992188C231.875,82.3251953,229.625,89.4501953,229.625,94.125
					c0,9.5322266,8.2011719,15,22.5,15c5.5566406,0,11.5507812-1.15625,17-3.2441406V103.625
					C263.6855469,105.8369141,257.7265625,107.125,252.125,107.125z"/>
			</g>
			<g>
				<path d="M354.125,995.625c-6.2207031,0-8.5-1.4599609-8.5-4c0-2.7998047,3.2167969-4.5,17-4.5h1.5v-11h-1.5
					c-13.2314453,0-16.5-1.6220703-16.5-4.5c0-2.1494141,1.6875-3.5,9-3.5c4.0976562,0,9.7128906,1.0888672,16.5,3.5v-13.5
					c-6.3408203-1.9951172-12.7080078-3-18.5-3c-16.4160156,0-25.5,6.6201172-25.5,13.5
					c0,5.8798828,3.890625,10.1279297,12.5,12.3974609v0.2011719c-7.65625,0.734375-13,6.4648438-13,12.9013672
					c0,8.7255859,8.890625,15,26,15c6.2597656,0,12.9003906-1.0078125,19.5-3v-13.5
					C365.1289062,994.9013672,360.4355469,995.625,354.125,995.625z"/>
				<path d="M353.7910156,847.4580078c-7.4287109,0-10.4165039-2.0244141-10.4165039-5.4169922
					c0-3.5966797,3.7036133-5.7333984,18.2504883-5.7333984h1.9160156V826.375H361.625
					c-13.7558594,0-17.6669922-2.0263672-17.6669922-5.4169922c0-2.7753906,2.4379883-4.5839844,10.6669922-4.5839844
					c4.3251953,0,10.0214844,1.1064453,16.5,3.4726562v-11.75c-6.15625-1.9707031-12.4375-2.9716797-18.1669922-2.9716797
					c-16.0371094,0-24.8334961,6.3818359-24.8334961,13.3330078c0,5.7128906,4.0395508,10.2802734,12.4570312,12.4121094v0.2011719
					c-7.7788086,0.9238281-13.0400391,6.6142578-13.0400391,13.0537109c0,8.7539062,8.6298828,15,25.4165039,15
					c6.1376953,0,12.65625-1.0136719,19.0830078-2.9873047v-11.75
					C364.8886719,846.6523438,359.984375,847.4580078,353.7910156,847.4580078z"/>
				<path d="M353.4589844,699.2919922c-8.6381836,0-12.3339844-2.5888672-12.3339844-6.8339844
					c0-4.3945312,4.1899414-6.9677734,19.5-6.9677734h2.3339844v-8.8662109H360.625
					c-14.2802734,0-18.8334961-2.4287109-18.8334961-6.3320312c0-3.4013672,3.1889648-5.6679688,12.3334961-5.6679688
					c4.5527344,0,10.3320312,1.1240234,16.5,3.4433594v-10c-5.9716797-1.9453125-12.1650391-2.9423828-17.8339844-2.9423828
					c-15.6577148,0-24.1660156,6.1445312-24.1660156,13.1669922c0,5.5449219,4.1879883,10.4316406,12.4140625,12.4267578v0.2001953
					c-7.9023438,1.1132812-13.0805664,6.7646484-13.0805664,13.2060547c0,8.7832031,8.3696289,15,24.8325195,15
					c6.015625,0,12.4130859-1.0185547,18.6679688-2.9746094v-9.9990234
					C364.6484375,698.4042969,359.5332031,699.2919922,353.4589844,699.2919922z"/>
				<path d="M353.125,551.125c-9.8457031,0-14.25-3.1533203-14.25-8.2509766c0-5.1914062,4.6767578-8.2011719,20.75-8.2011719h2.75
					v-7.7988281h-2.75c-14.8046875,0-20-2.8330078-20-7.2490234c0-4.0263672,3.9394531-6.7509766,14-6.7509766
					c4.7802734,0,10.640625,1.140625,16.5,3.4150391v-8.25c-5.7871094-1.9208984-11.8935547-2.9140625-17.5-2.9140625
					c-15.2792969,0-23.5,5.9072266-23.5,13c0,5.3779297,4.3369141,10.5839844,12.3710938,12.4423828v0.1992188
					C333.4707031,532.0693359,328.375,537.6806641,328.375,544.125c0,8.8115234,8.109375,15,24.25,15
					c5.8925781,0,12.1679688-1.0244141,18.25-2.9619141v-8.2490234C364.4072266,550.1552734,359.0810547,551.125,353.125,551.125z"
					/>
				<path d="M352.7910156,403.1245117c-10.9702148,0-16.3330078-3.6411133-16.3330078-9.8334961
					c0-6.4052734,5.9423828-9.9677734,22-9.9677734h3.3330078v-5.8662109h-3.3330078
					c-14.7016602,0-21.1669922-3.2939453-21.1669922-8.4990234c0-4.8759766,5.0561523-8.0004883,15.8339844-8.0004883
					c5.0078125,0,10.9492188,1.2133789,16.5,3.4428711v-6.2597656c-5.546875-1.9624023-11.6005859-3.015625-17.1669922-3.015625
					c-14.6738281,0-22.8334961,5.4946289-22.8334961,12.8330078c0,5.1904297,4.2055664,10.3173828,12.9951172,12.2573242v0.1992188
					c-9.6811523,1.7397461-13.8286133,7.8554688-13.8286133,13.7104492c0,9.0512695,8.1401367,15,23.6669922,15
					c5.7802734,0,11.9619141-1.0688477,17.8330078-3.0561523v-6.2514648
					C364.1660156,402.0488281,358.6289062,403.1245117,352.7910156,403.1245117z"/>
				<path d="M352.4589844,255.125c-12.0961914,0-18.4174805-4.1298828-18.4174805-11.4169922
					c0-7.6181641,7.2075195-11.7338867,23.2495117-11.7338867h3.9179688v-3.9326172h-3.9179688
					c-14.5981445,0-22.3325195-3.7548828-22.3325195-9.75c0-5.7250977,6.1723633-9.25,17.6665039-9.25
					c5.2363281,0,11.2597656,1.2861328,16.5,3.4716797v-4.2695312c-5.3066406-2.0048828-11.3066406-3.1186523-16.8330078-3.1186523
					c-14.0688477,0-22.1669922,5.0830078-22.1669922,12.6665039c0,5.0024414,4.0742188,10.050293,13.6191406,12.0727539v0.1992188
					c-11.3369141,2.1767578-14.5356445,8.796875-14.5356445,14.0615234c0,9.2919922,8.1704102,15,23.0834961,15
					c5.6689453,0,11.7568359-1.1123047,17.4169922-3.1499023v-4.2539062
					C363.9257812,253.9428711,358.1777344,255.125,352.4589844,255.125z"/>
				<path d="M352.125,107.125c-13.2207031,0-20.5-4.6181641-20.5-13c0-8.8320312,8.4726562-13.5,24.5-13.5h4.5v-2h-4.5
					c-14.4960938,0-23.5-4.2158203-23.5-11c0-6.5751953,7.2890625-10.5,19.5-10.5c5.4638672,0,11.5683594,1.359375,16.5,3.5
					v-2.2792969c-5.0664062-2.046875-11.0136719-3.2207031-16.5-3.2207031c-13.4628906,0-21.5,4.6708984-21.5,12.5
					c0,4.8144531,3.9423828,9.7832031,14.2431641,11.8876953v0.1992188C331.875,82.3251953,329.625,89.4501953,329.625,94.125
					c0,9.5322266,8.2011719,15,22.5,15c5.5566406,0,11.5507812-1.15625,17-3.2441406V103.625
					C363.6855469,105.8369141,357.7265625,107.125,352.125,107.125z"/>
			</g>
			<g>
				<path d="M454.125,995.625c-6.2207031,0-8.5-1.4599609-8.5-4c0-2.7998047,3.2167969-4.5,17-4.5h1.5v-11h-1.5
					c-13.2314453,0-16.5-1.6220703-16.5-4.5c0-2.1494141,1.6875-3.5,9-3.5c4.0976562,0,9.7128906,1.0888672,16.5,3.5v-13.5
					c-6.3408203-1.9951172-12.7080078-3-18.5-3c-16.4160156,0-25.5,6.6201172-25.5,13.5
					c0,5.8798828,3.890625,10.1279297,12.5,12.3974609v0.2011719c-7.65625,0.734375-13,6.4648438-13,12.9013672
					c0,8.7255859,8.890625,15,26,15c6.2597656,0,12.9003906-1.0078125,19.5-3v-13.5
					C465.1289062,994.9013672,460.4355469,995.625,454.125,995.625z"/>
				<path d="M453.7910156,847.4580078c-7.4287109,0-10.4160156-2.0244141-10.4160156-5.4169922
					c0-3.5966797,3.703125-5.7333984,18.25-5.7333984h1.9160156V826.375H461.625
					c-13.7558594,0-17.6669922-2.0263672-17.6669922-5.4169922c0-2.7753906,2.4384766-4.5839844,10.6669922-4.5839844
					c4.3251953,0,10.0214844,1.1064453,16.5,3.4726562v-11.75c-6.15625-1.9707031-12.4375-2.9716797-18.1669922-2.9716797
					c-16.0371094,0-24.8330078,6.3818359-24.8330078,13.3330078c0,5.7128906,4.0390625,10.2802734,12.4570312,12.4121094v0.2011719
					c-7.7792969,0.9238281-13.0410156,6.6142578-13.0410156,13.0537109c0,8.7539062,8.6308594,15,25.4169922,15
					c6.1376953,0,12.65625-1.0136719,19.0830078-2.9873047v-11.75
					C464.8886719,846.6523438,459.984375,847.4580078,453.7910156,847.4580078z"/>
				<path d="M453.4589844,699.2919922c-8.6386719,0-12.3339844-2.5888672-12.3339844-6.8339844
					c0-4.3945312,4.1894531-6.9677734,19.5-6.9677734h2.3339844v-8.8662109H460.625
					c-14.2802734,0-18.8339844-2.4287109-18.8339844-6.3320312c0-3.4013672,3.1894531-5.6679688,12.3339844-5.6679688
					c4.5527344,0,10.3320312,1.1240234,16.5,3.4433594v-10c-5.9716797-1.9453125-12.1650391-2.9423828-17.8339844-2.9423828
					c-15.6582031,0-24.1660156,6.1445312-24.1660156,13.1669922c0,5.5449219,4.1875,10.4316406,12.4140625,12.4267578v0.2001953
					c-7.9023438,1.1132812-13.0800781,6.7646484-13.0800781,13.2060547c0,8.7832031,8.3691406,15,24.8320312,15
					c6.015625,0,12.4130859-1.0185547,18.6679688-2.9746094v-9.9990234
					C464.6484375,698.4042969,459.5332031,699.2919922,453.4589844,699.2919922z"/>
				<path d="M453.125,551.125c-9.8457031,0-14.25-3.1533203-14.25-8.2509766c0-5.1914062,4.6767578-8.2011719,20.75-8.2011719h2.75
					v-7.7988281h-2.75c-14.8046875,0-20-2.8330078-20-7.2490234c0-4.0263672,3.9394531-6.7509766,14-6.7509766
					c4.7802734,0,10.640625,1.140625,16.5,3.4150391v-8.25c-5.7871094-1.9208984-11.8935547-2.9140625-17.5-2.9140625
					c-15.2792969,0-23.5,5.9072266-23.5,13c0,5.3779297,4.3369141,10.5839844,12.3710938,12.4423828v0.1992188
					C433.4707031,532.0693359,428.375,537.6806641,428.375,544.125c0,8.8115234,8.109375,15,24.25,15
					c5.8925781,0,12.1679688-1.0244141,18.25-2.9619141v-8.2490234C464.4072266,550.1552734,459.0810547,551.125,453.125,551.125z"
					/>
				<path d="M452.7910156,403.1245117c-10.9707031,0-16.3330078-3.6411133-16.3330078-9.8334961
					c0-6.4052734,5.9423828-9.9677734,22-9.9677734h3.3330078v-5.8662109h-3.3330078
					c-14.7021484,0-21.1669922-3.2939453-21.1669922-8.4990234c0-4.8759766,5.0566406-8.0004883,15.8339844-8.0004883
					c5.0078125,0,10.9492188,1.2133789,16.5,3.4428711v-6.2597656c-5.546875-1.9624023-11.6005859-3.015625-17.1669922-3.015625
					c-14.6738281,0-22.8330078,5.4946289-22.8330078,12.8330078c0,5.1904297,4.2050781,10.3173828,12.9941406,12.2573242v0.1992188
					c-9.6806641,1.7397461-13.828125,7.8554688-13.828125,13.7104492c0,9.0512695,8.140625,15,23.6669922,15
					c5.7802734,0,11.9619141-1.0688477,17.8330078-3.0561523v-6.2514648
					C464.1660156,402.0488281,458.6289062,403.1245117,452.7910156,403.1245117z"/>
				<path d="M452.4589844,255.125c-12.0957031,0-18.4179688-4.1298828-18.4179688-11.4169922
					c0-7.6181641,7.2080078-11.7338867,23.25-11.7338867h3.9179688v-3.9326172h-3.9179688
					c-14.5976562,0-22.3320312-3.7548828-22.3320312-9.75c0-5.7250977,6.171875-9.25,17.6660156-9.25
					c5.2363281,0,11.2597656,1.2861328,16.5,3.4716797v-4.2695312c-5.3066406-2.0048828-11.3066406-3.1186523-16.8330078-3.1186523
					c-14.0693359,0-22.1669922,5.0830078-22.1669922,12.6665039c0,5.0024414,4.0742188,10.050293,13.6191406,12.0727539v0.1992188
					c-11.3369141,2.1767578-14.5351562,8.796875-14.5351562,14.0615234c0,9.2919922,8.1699219,15,23.0830078,15
					c5.6689453,0,11.7568359-1.1123047,17.4169922-3.1499023v-4.2539062
					C463.9257812,253.9428711,458.1777344,255.125,452.4589844,255.125z"/>
				<path d="M452.125,107.125c-13.2207031,0-20.5-4.6181641-20.5-13c0-8.8320312,8.4726562-13.5,24.5-13.5h4.5v-2h-4.5
					c-14.4960938,0-23.5-4.2158203-23.5-11c0-6.5751953,7.2890625-10.5,19.5-10.5c5.4638672,0,11.5683594,1.359375,16.5,3.5
					v-2.2792969c-5.0664062-2.046875-11.0136719-3.2207031-16.5-3.2207031c-13.4628906,0-21.5,4.6708984-21.5,12.5
					c0,4.8144531,3.9423828,9.7832031,14.2431641,11.8876953v0.1992188C431.875,82.3251953,429.625,89.4501953,429.625,94.125
					c0,9.5322266,8.2011719,15,22.5,15c5.5566406,0,11.5507812-1.15625,17-3.2441406V103.625
					C463.6855469,105.8369141,457.7265625,107.125,452.125,107.125z"/>
			</g>
			<g>
				<path d="M554.125,995.625c-6.2207031,0-8.5-1.4599609-8.5-4c0-2.7998047,3.2167969-4.5,17-4.5h1.5v-11h-1.5
					c-13.2314453,0-16.5-1.6220703-16.5-4.5c0-2.1494141,1.6875-3.5,9-3.5c4.0976562,0,9.7128906,1.0888672,16.5,3.5v-13.5
					c-6.3408203-1.9951172-12.7080078-3-18.5-3c-16.4160156,0-25.5,6.6201172-25.5,13.5
					c0,5.8798828,3.890625,10.1279297,12.5,12.3974609v0.2011719c-7.65625,0.734375-13,6.4648438-13,12.9013672
					c0,8.7255859,8.890625,15,26,15c6.2597656,0,12.9003906-1.0078125,19.5-3v-13.5
					C565.1289062,994.9013672,560.4355469,995.625,554.125,995.625z"/>
				<path d="M553.7910156,847.4580078c-7.4287109,0-10.4160156-2.0244141-10.4160156-5.4169922
					c0-3.5966797,3.703125-5.7333984,18.25-5.7333984h1.9160156V826.375H561.625
					c-13.7558594,0-17.6669922-2.0263672-17.6669922-5.4169922c0-2.7753906,2.4384766-4.5839844,10.6669922-4.5839844
					c4.3251953,0,10.0214844,1.1064453,16.5,3.4726562v-11.75c-6.15625-1.9707031-12.4375-2.9716797-18.1669922-2.9716797
					c-16.0371094,0-24.8330078,6.3818359-24.8330078,13.3330078c0,5.7128906,4.0390625,10.2802734,12.4570312,12.4121094v0.2011719
					c-7.7792969,0.9238281-13.0410156,6.6142578-13.0410156,13.0537109c0,8.7539062,8.6308594,15,25.4169922,15
					c6.1376953,0,12.65625-1.0136719,19.0830078-2.9873047v-11.75
					C564.8886719,846.6523438,559.984375,847.4580078,553.7910156,847.4580078z"/>
				<path d="M553.4589844,699.2919922c-8.6386719,0-12.3339844-2.5888672-12.3339844-6.8339844
					c0-4.3945312,4.1894531-6.9677734,19.5-6.9677734h2.3339844v-8.8662109H560.625
					c-14.2802734,0-18.8339844-2.4287109-18.8339844-6.3320312c0-3.4013672,3.1894531-5.6679688,12.3339844-5.6679688
					c4.5527344,0,10.3320312,1.1240234,16.5,3.4433594v-10c-5.9716797-1.9453125-12.1650391-2.9423828-17.8339844-2.9423828
					c-15.6582031,0-24.1660156,6.1445312-24.1660156,13.1669922c0,5.5449219,4.1875,10.4316406,12.4140625,12.4267578v0.2001953
					c-7.9023438,1.1132812-13.0800781,6.7646484-13.0800781,13.2060547c0,8.7832031,8.3691406,15,24.8320312,15
					c6.015625,0,12.4130859-1.0185547,18.6679688-2.9746094v-9.9990234
					C564.6484375,698.4042969,559.5332031,699.2919922,553.4589844,699.2919922z"/>
				<path d="M553.125,551.125c-9.8457031,0-14.25-3.1533203-14.25-8.2509766c0-5.1914062,4.6767578-8.2011719,20.75-8.2011719h2.75
					v-7.7988281h-2.75c-14.8046875,0-20-2.8330078-20-7.2490234c0-4.0263672,3.9394531-6.7509766,14-6.7509766
					c4.7802734,0,10.640625,1.140625,16.5,3.4150391v-8.25c-5.7871094-1.9208984-11.8935547-2.9140625-17.5-2.9140625
					c-15.2792969,0-23.5,5.9072266-23.5,13c0,5.3779297,4.3369141,10.5839844,12.3710938,12.4423828v0.1992188
					C533.4707031,532.0693359,528.375,537.6806641,528.375,544.125c0,8.8115234,8.109375,15,24.25,15
					c5.8925781,0,12.1679688-1.0244141,18.25-2.9619141v-8.2490234C564.4072266,550.1552734,559.0810547,551.125,553.125,551.125z"
					/>
				<path d="M552.7910156,403.1245117c-10.9707031,0-16.3330078-3.6411133-16.3330078-9.8334961
					c0-6.4052734,5.9423828-9.9677734,22-9.9677734h3.3330078v-5.8662109h-3.3330078
					c-14.7021484,0-21.1669922-3.2939453-21.1669922-8.4990234c0-4.8759766,5.0566406-8.0004883,15.8339844-8.0004883
					c5.0078125,0,10.9492188,1.2133789,16.5,3.4428711v-6.2597656c-5.546875-1.9624023-11.6005859-3.015625-17.1669922-3.015625
					c-14.6738281,0-22.8330078,5.4946289-22.8330078,12.8330078c0,5.1904297,4.2050781,10.3173828,12.9941406,12.2573242v0.1992188
					c-9.6806641,1.7397461-13.828125,7.8554688-13.828125,13.7104492c0,9.0512695,8.140625,15,23.6669922,15
					c5.7802734,0,11.9619141-1.0688477,17.8330078-3.0561523v-6.2514648
					C564.1660156,402.0488281,558.6289062,403.1245117,552.7910156,403.1245117z"/>
				<path d="M552.4589844,255.125c-12.0957031,0-18.4179688-4.1298828-18.4179688-11.4169922
					c0-7.6181641,7.2080078-11.7338867,23.25-11.7338867h3.9179688v-3.9326172h-3.9179688
					c-14.5976562,0-22.3320312-3.7548828-22.3320312-9.75c0-5.7250977,6.171875-9.25,17.6660156-9.25
					c5.2363281,0,11.2597656,1.2861328,16.5,3.4716797v-4.2695312c-5.3066406-2.0048828-11.3066406-3.1186523-16.8330078-3.1186523
					c-14.0693359,0-22.1669922,5.0830078-22.1669922,12.6665039c0,5.0024414,4.0742188,10.050293,13.6191406,12.0727539v0.1992188
					c-11.3369141,2.1767578-14.5351562,8.796875-14.5351562,14.0615234c0,9.2919922,8.1699219,15,23.0830078,15
					c5.6689453,0,11.7568359-1.1123047,17.4169922-3.1499023v-4.2539062
					C563.9257812,253.9428711,558.1777344,255.125,552.4589844,255.125z"/>
				<path d="M552.125,107.125c-13.2207031,0-20.5-4.6181641-20.5-13c0-8.8320312,8.4726562-13.5,24.5-13.5h4.5v-2h-4.5
					c-14.4960938,0-23.5-4.2158203-23.5-11c0-6.5751953,7.2890625-10.5,19.5-10.5c5.4638672,0,11.5683594,1.359375,16.5,3.5
					v-2.2792969c-5.0664062-2.046875-11.0136719-3.2207031-16.5-3.2207031c-13.4628906,0-21.5,4.6708984-21.5,12.5
					c0,4.8144531,3.9423828,9.7832031,14.2431641,11.8876953v0.1992188C531.875,82.3251953,529.625,89.4501953,529.625,94.125
					c0,9.5322266,8.2011719,15,22.5,15c5.5566406,0,11.5507812-1.15625,17-3.2441406V103.625
					C563.6855469,105.8369141,557.7265625,107.125,552.125,107.125z"/>
			</g>
		</g>
	</svg>
