<?xml version="1.0" encoding="utf-8"?>
<!-- Generator: Adobe Illustrator 11 Build 225, SVG Export Plug-In . SVG Version: 6.0.0 Build 78)  -->
<!DOCTYPE svg PUBLIC "-//W3C//DTD SVG 1.0//EN"    "http://www.w3.org/TR/2001/REC-SVG-20010904/DTD/svg10.dtd" [
	<!ENTITY ns_flows "http://ns.adobe.com/Flows/1.0/">
	<!ENTITY ns_svg "http://www.w3.org/2000/svg">
	<!ENTITY ns_xlink "http://www.w3.org/1999/xlink">
]>
<svg  xmlns="&ns_svg;" xmlns:xlink="&ns_xlink;" xmlns:a="http://ns.adobe.com/AdobeSVGViewerExtensions/3.0/"
	 width="800.25" height="1050.25" viewBox="0 0 800.25 1050.25" overflow="visible" enable-background="new 0 0 800.25 1050.25"
	 xml:space="preserve">
	<metadata>
		<x:xmpmeta  x:xmptk="XMP toolkit 3.0-29, framework 1.6" xmlns:x="adobe:ns:meta/">
			<rdf:RDF  xmlns:rdf="http://www.w3.org/1999/02/22-rdf-syntax-ns#" xmlns:iX="http://ns.adobe.com/iX/1.0/">
				<rdf:Description  rdf:about="" xmlns:pdf="http://ns.adobe.com/pdf/1.3/"></rdf:Description>
				<rdf:Description  rdf:about="" xmlns:tiff="http://ns.adobe.com/tiff/1.0/"></rdf:Description>
				<rdf:Description  rdf:about="" xmlns:xap="http://ns.adobe.com/xap/1.0/" xmlns:xapGImg="http://ns.adobe.com/xap/1.0/g/img/">
					<xap:CreateDate>2005-10-18T08:31:30Z</xap:CreateDate>
					<xap:ModifyDate>2005-10-18T08:31:30Z</xap:ModifyDate>
					<xap:CreatorTool>Illustrator</xap:CreatorTool>
					<xap:Thumbnails>
						<rdf:Alt>
							<rdf:li  rdf:parseType="Resource">
								<xapGImg:format>JPEG</xapGImg:format>
								<xapGImg:width>172</xapGImg:width>
								<xapGImg:height>256</xapGImg:height>
								<xapGImg:image>/9j/4AAQSkZJRgABAgEASABIAAD/7QAsUGhvdG9zaG9wIDMuMAA4QklNA+0AAAAAABAASAAAAAEA
AQBIAAAAAQAB/+4ADkFkb2JlAGTAAAAAAf/bAIQABgQEBAUEBgUFBgkGBQYJCwgGBggLDAoKCwoK
DBAMDAwMDAwQDA4PEA8ODBMTFBQTExwbGxscHx8fHx8fHx8fHwEHBwcNDA0YEBAYGhURFRofHx8f
Hx8fHx8fHx8fHx8fHx8fHx8fHx8fHx8fHx8fHx8fHx8fHx8fHx8fHx8fHx8f/8AAEQgBAACsAwER
AAIRAQMRAf/EAaIAAAAHAQEBAQEAAAAAAAAAAAQFAwIGAQAHCAkKCwEAAgIDAQEBAQEAAAAAAAAA
AQACAwQFBgcICQoLEAACAQMDAgQCBgcDBAIGAnMBAgMRBAAFIRIxQVEGE2EicYEUMpGhBxWxQiPB
UtHhMxZi8CRygvElQzRTkqKyY3PCNUQnk6OzNhdUZHTD0uIIJoMJChgZhJRFRqS0VtNVKBry4/PE
1OT0ZXWFlaW1xdXl9WZ2hpamtsbW5vY3R1dnd4eXp7fH1+f3OEhYaHiImKi4yNjo+Ck5SVlpeYmZ
qbnJ2en5KjpKWmp6ipqqusra6voRAAICAQIDBQUEBQYECAMDbQEAAhEDBCESMUEFURNhIgZxgZEy
obHwFMHR4SNCFVJicvEzJDRDghaSUyWiY7LCB3PSNeJEgxdUkwgJChgZJjZFGidkdFU38qOzwygp
0+PzhJSktMTU5PRldYWVpbXF1eX1RlZmdoaWprbG1ub2R1dnd4eXp7fH1+f3OEhYaHiImKi4yNjo
+DlJWWl5iZmpucnZ6fkqOkpaanqKmqq6ytrq+v/aAAwDAQACEQMRAD8A9U4q7FXYq7FXYq7FXYq7
FXYqhtT1Kx0vTbvU7+UQWNjDJc3c5BISKFC8jkKCfhVSdhiqJxV2KuxV2KuxV2KuxV2KuxV2KuxV
2KsW/Kx3f8uvLruxZmsYSWJqSePjirKcVdirzfyzp2tRXXlUz21yiwXmvtdGRJAESW4mMBkqNg6k
FK9R0xV6RirsVedfmP5ovob/AEXTItC1SZf0zaFbiBbb0rj0Fa6KRFp1ev7mvxKv2T2xVS0PzfqF
z+Y+tyny3q6RtZ6VYlGW0pAUlu5mkkpcmgZbpfs1NF6Yq9KxV4n5/i0vWNG/MyPX72WTW9L0+/fS
NGeeSGKGzSwLw3MNurIk3qPyLSsGofg2pTFXp2ieStJ0PUGu9KmvLeB42jk01rqaazLFgwlEMzSC
NxxpWMrWp5V2oqn2KvPrfyx5b81ec/Nb+ZbGDWJNLubax020vY1mit7V7C3ufUhjkDKryTzSgyqO
R4ha/DiqWadrmpxeU18r6HdSSalf6pqOkaBfuxleHT7S5dJrss1eS2UdYkLV5OIwftYq9J0jS7LS
dLtNLskKWdlCkECkliEjUKOTHdjtuTuTirEvzIt7CbUfLia/H63lGW5kg1SJ/wDeY3MyBbH62vRo
DJySjVT1GTl2xVBeWtN8s2v5jPD5KtIbLSbGxuIPMSaeixaebxpYTaxCOICE3MapMXKjkqkBvtCi
r0XFWN6Tb3qefPMU8kUi2ctnpi28rKwjZ0N16gRj8JK8l5U8RXFWSYq7FXYqxr8tLS6s/IGgWt3D
Jb3MNlEk0EqlJEYLurKwBB+eKslxV2KuxV2KuxV5r5x8weY285+V7WPyvdyrZajeXVs63NiouFis
Lm15JymBUcbrlR6H6dsVXeR9c8wXXnHzTLN5buoIp9St7ae4e4s3W3EGn254twmZm+KQmkYYb+NQ
FXpGKsG/OfRtE1T8sfNM1/ZW95NYaRqM1nLNGkjwTR2sjB42YEowKjcYqutbW68q+bdH0mz1C4vN
D1tbmJdOvZXupLSW2i9YSw3Epeb0So9NkdmAJTjx3BVZvirHvMnk3ynqkzarq0TwzwQlJ763urix
c26VcpNLbSQGSJak8XJXrtirzvStPubufRLrTuegWnmeU2Oki2VYpbLy9Y28lzFDCGBEU17IgkkI
HII1PtICFWY6XBf+XvPNroiald6hpGr6fdXkUN9K1zLbXFjLbxsUmespjlW7FQ7EKyjjTliqjqum
nzr5k1fQNTmkj8r6OsEN3pcLGJr+e4jE5NxIhEn1dI2VRGpAduXOqjjiqVfpf/lVWlS6NexmTy3F
DO3le/RSWWRVaRNMuAo+KVj8Nu/WX7J+MVdVn3lu31G38vaXb6nK0+pQ2kEd9MxqzzrEolYkdSzg
nFUxxV2KuxV2KoXStP8A0dpttY/WZ7z6tGI/rV2/qzycf2pHoOTHuaYqisVdirsVdirsVS+60S1u
dasNXkeQXOnR3EUEYI9Mi69PmWBBPIeiONCOpxV2k6JaaXJqEkDyO+pXb3twZCD+8dEjovELRQkS
gfrxVMMVYL57/K601zR/MK6Ncz6TrGtWVzBKYbiSKzuJpoDEpuoKSxEGoDusfqce9aYqnmh+S9L0
q/bVGnutS1d4zAdR1Cdp5ViJDNHEvwxRKzKCwjReRpXoMVT7FUs8yeX7PzBpMmk3skqWVw0Zuo4S
q+tEjh2gclW/dyheEgFCVJFcVWeYvLVlrlnBBLLNZ3FnMtzp9/aMqT206KyCSIusifYdkKurKykg
gg4qhdA8oDTdTm1i/wBTuta1maEWwvbwQp6VuG5mKGK3jhjRWajMeJZiBU7CirWteTo77VBrGn6l
eaJq/pLBNd2JhYTxRlmjjnhuI54ZAhduLcQ4qaMMVS+4/LHTtVP/ADtepXvmZFVhFa3xhitY2deP
Nbe0itkLqCeDycmU7qQcVZLo2nNpml2untd3F/8AVYxELu8ZXuJAuwMjosYZqbcqVPU1O+KozFXY
q7FXYq7FXYq7FXYq7FXYq7FXYq7FXYq7FXYq7FXYq7FXYq7FXYq7FXYq7FXYqkPkXzhY+cPK9p5h
sYZbe1u3nRIZ+PqA21xJbtXiWG7REjfpiqfYq7FWIaT+ZelanJpKRWs6HV9U1DR4OfD4ZdNS4eR2
ox+BhaNxpvuK4qy/FXYqkvmnzVZ+XYdNkuopJv0nqVppUCxcaiW9lEaseRHwr9pqb0xV0Pmqzm85
XflVIZDd2dhBqM1xQeiFuJZIkjrWvP8AclunTFU6xV5t+ZP5y6d5bttd03RrS81jzJpWnzXc6Wds
09tYt6LSQyX0paJEj25MA3Lj26YqmHkX807HzHJZ6Ze6bqWj63cWouUg1C0aCKdVVTJJbyqZYnSr
VHx1p2xVnOKsK1/8yLm08xXHl7y95evfMup6fDHcasLSS3gitUmBMSPLcSRqZXUcljXfjviqZaL5
+8uap5Qk81iV7TS7ZJ31AXS+nLatalluIp034vEyEECvtUUxVMPLOtNrmgWGsGzmsBfwrOlpc8RM
iPunMKWAJWhpXbFUr87+frHyr+jrb6ldarrOszNBpOkWKq087xrzkasjIiRxru7s2wxVAaB+ZU91
5kt/LXmLy/e+WtZvYZLjTY7l7e4guUgoZVintZJU5orBmVqbYqzbFUqs/MVrdeZdU0BInW50q2s7
qaU04Mt806oFoa1X6q1ajuMVTXFXYq7FXmv/ADjj/wCSd0X/AIz6l/3U7nFXpWKuxVhGi/ljBpcm
jOuoNL+h9X1LWVBjC+o2ppcoYj8R4iP659rvx6CuKs3xV2KvH/ze8r3955o8nxJ5k1WFNU8wQtHZ
xmyEFqLW0nm9W35WzSeoGjFPUZ13O3Siqh5O8n6lL+bnnB2826zI2jx6PbtKzWBe4VopLow3FLQL
wHqCgjCNRjU7iir2fFXhX5laB548paV+Y99pNhBrnlfzZZXdzfkTLb3unytYtBLKQ44TwhV5cVIc
dKeKrOPyt/Mjyx5g02z0O3eaz17T7G3N1pF/C9tciMRqvqorikkZ7MhI3HjirPcVeaTS+ZPJ3n7z
Nqi+Xr3XtG8zfVLq3m0sQvNBc2lqlq8E8cskJ4usSsrgkCtDirz71VhS70Xzg66Vo/6Ul82efIEb
6wkbX1wG0zRf3QYyySlUllVF+ILt9rFXtHlf8w/LPmS9uNPsJLiDU7WNZ5tOv7aeyufRc0WZYrlI
2aMnbktRX5jFWGfnlf2+mXnljW9KuBL560q6kfQNDRHml1CG4QR3lt6cQZ0Vo1B9UjihUVxVD/l5
qF75+19fzI1uWLT7Py8t5YaZ5ajLPcWUrEJdy6gzLGwnZI6CPjRVodzuVXqWia1put6RZ6xpc31j
Tr+JLi0n4unOOQVVuLhXFR2IriqDsfLiWnmvV/MInLvqtrY2jW/GgjFi1wwYNXfn9a6U2piqc4q7
FXYqwz8nbLRrH8vNNttG+uDTklvTD+ko1iuqtezNJzRdgPULcPFaHFWZ4q7FXYq7FXYq8e87fl89
5+anlDhq2uehdSave3Ekd7KEtStuqqsDdIAxuOAUdV26A4q3+WXkF083+b9Wm1TWh9V1xILcT3kt
LqO1s7ejXAP9+tWKgn9kU7Yq9gxV5J+b3n++sPK3nPQtW8t6lDbXGl30Ol63axG8splls2VTO8NW
tmDsQfUWlBy5UxVL/Kj3/nLzj5C1jT9CvLDSfKWnzi91rUbdrT6011ZC3jt7VXpJKgYmQuV47be6
r2vFUl85+Y/8OeWr7V0tZb64gQLaWMCs8k9xIQkMSqtT8UjAE9hv2xV5hrfkrUfLHlfyxrWoQNrO
oWPmGLzF50e2iMrySzRSxyXEcagu62byp6aqPsJWm2KprYa/pvnf82NB1fyys1xpPl/T79dU1gwS
QQyPfeiILRGlVGkZTE0jACi7b1JGKofVNVg8k/nFrPmXzPa3B0PW9Os7XSddigluYrI2xf6xay+i
sjxCZ2WSvHiaexoqw38xtU/xNf3Wp/k1DqF55j1K0msvMc1vaywadPZmB1DTyXIgQ3cdR6DIS37J
22xV7V+W91os/kbRU0ZZotPtLSG0iguo2huIvq6CIxzRtusi8fi8eoJG+KskxV2KuxV2KuxV2Kux
V2KuxV2KuxV2KuxVD6jp9lqOn3On30K3FleRPb3UD/ZkilUo6N7MpIxVUt7eG2t4reBBHBCixxRj
oqKKKB8gMVVMVdirsVdirsVdirsVdirsVdirsVdirsVdirsVdirsVdirsVdiqncXFvbW8tzcypBb
wI0k00jBEREHJmZmoAoAqScVdb3Fvc28VzbSpPbzoskM0bB0dHHJWVlqCpBqCMVVMVdirsVdirsV
dirsVdirsVdirsVeS/8AOM/mLXde8h6hea1fz6jdR6xdwJPcOZHESLHxQFv2RU0GKvWsVdirwGy8
3+aH0by9K2q3JkuPzIl0udzK1XsRJdAWzb7xfAvw9NsVe/Yq7FXhH57fnh5Z0i80zy5p3mCWx1ux
12w/xBHCl3GYtPoZLgtIkfGROLJVY2LGuw2xVBaT/wA5F+R7z86LmX/E0x8qTaVBY6ZAYbwQyajJ
chmYQ+jVW4njzdR86Yq+hMVfOH5leaPPfnTUvzM0HTdaTy/5b8laVM17YpBHLc6lztZXdWdzyjjP
plSU7EbEnZVln5I+XPzP03RPKV7N5og1byde6RbSy6TdWqxXNoJLRWgjtp46l1QlVPqH7I6VNcVe
x4q8bvrXzF5//NrzX5ebzNqfl7Q/KFvp6W9voswtZri41CA3Bmml4uzKlOPDp0/yuSqA8v8A5ueY
dJ/LDXP0lMNb82aTr135U0OQKofUryNlW2fiKA7SVbxCnvir1byNomraJ5V07TtZ1KbVtXjj5ahq
E7mRpJ3JeTiT0RWPFB/KBirz/wDPfzL5hs9Z8k+WtO1p/Lem+Zr2e31TXIVHqxCJYzFCkjCkbTNI
QG67eFcVSRG8xfl/+cflLyppnmvVfNOn+YI7k6tpeszre3FrHEnKO5WYKjIpPLt0Ujwoq94xVgGm
6vqkn5463pL3UraZBoNlcQ2ZY+ksz3MqtIF6BmVQCcVZ/irsVdirxj/nFGCeH8utSWaNo2Ot3pCu
CpoVi33xV7PirsVU/qtsAAIkor+oo4jZ/wCYf5XviqpirsVfOf5x/m15bn8/eTtONrqXHy5r0txq
I+pyfvGs1aMG32rN8VT8O1N8Vd+XP5teW7v88PON/wDVtTCeYJNG07SlNnIPTKQmKQ3Ip+6HqsCC
x+zvir6MxV5B+fH5ReTda8t+YvOBjmsPMenaTeTG/sZTC06wWzMIblaMsiMq8G25Fdq0xViX5V+b
vzB8mXv5d+XPMF7DrflXzppcLaHKIxFdWDx2scv1c8f7yNBKiVbcjeooVKr6MxVgfm38odM13zGf
MthrOqeW9cmtxZ3t5pE6wm4gX7Kyq6SAsv7LChH0CirwuN00Z7TW/JlqlxpOnasnlT8vpL9jLHd6
xqLML/WLhl4mT+7McbD4fADjTFXrGleYPzJ8qfmN5f8AK3m/V7XzHpvmqG6+pahFaJYSW11ZRes8
bIjOro6bKTuT4U3VSj83J7/8yPNz/k7pMVtbwW1vFqnmDW7qP1Xtk5KYls46r+9PMVavRiPHFWK+
WtQtvyS1PzLYecbcSa7f211eaB55l9SY6ksUfNbSV5GkMcqsi/ADRjT/ACSyr3D8rdY1/Wvy90HW
Nf4fpbUbRLq49NPTWkxLx0Xt+7ZcVZOIohIZQiiQjiXoORA7VxVdirsVdirHvI/l7zBoOkzWeua/
J5ju5LmSeO+mhEDJE4XjDxDy1CUO9e+KshxV2KuxV2KuxVifmDyIdZ8/eVPNjX3op5WW/Edh6XL1
21CAQFjLzHDgFrTia+2Ku8meQv8ADeu+atXa9F5L5mvxfFBD6XoKqcEi5c5PUp/Nt8sVZZiryH8z
PyV1XUrfzNqnlHzDqWnajrdpcfX9CWVJbG/la2MQj4TlVhaUKsZfl8I6UxVr8p/yNfQ30DzJ5r1O
81bzLpemw2tjY3Lp9W0wGARvBAsZdWMYrHz5UPXrvir1/FUk866Fqmv+V9R0XTNT/Q11qERg/SIi
9do43NJOCc4viZKqG5fDWuKsf8y/lFoWq/l9YeTdPnk0iLR2t59Fv4AGktrm1NY56HiHYkty3Fan
cHfFUD5c/LDzQfOdh5u87eZF17UdGt5bfRbe2tFs4ITcrwnmYBn5ySJ8PYfhRV3nX8pNS1LzhF52
8o+YZPLPmgW31O8m9BLu3uoAQVSWF2UbUG+/QbVFcVSbW/yM80edikH5jecpNU0m3YyW2k6ZZxWE
YmKFFleQmZ3K8jQH+JGKs/8AIHlzXvLflu30bWdb/T8ln+6tb9rf6tL6CgBEl/ezCRlG3Pao6iu5
VZHirsVdirsVdirsVdirsVdirsVdirsVdirsVdirsVdirsVdirsVdirsVdirsVdirsVY75N/MPyf
5zivJfLWofX49Pl+r3bejPDwkIrx/fJHXp1FRirIsVdirD3/ADc/L1NNn1JtWpZW2qnQJpfq9z8O
pChMHH0uR6j4wOH+VirMMVdiqR+bvO3ljyhYW9/5ivfqVpd3KWVvJ6Usxe4lVmRAsKSNuI23pTFW
/wDGnlr/ABd/hD65/wA7ELX6+bH05f8Aeblw5+rw9L7X7PKvtiqd4qw38x/zW8oeQ9KubjVb+3Gq
LbS3Gn6Q0vCe5dFYxxqFWRkWR14cytBiqD/Lf86vI3nmysls9StrfXbiFZLjQ2mrPFIV5PGnNYjL
w7si4qz7FWE+evzl/LzyPfQ6f5h1P0b+eMzJaQxS3EgiFf3jrEr8F+E/a8MVT7y75v8ALXmPQI/M
GjahFdaPKrOLsEoqhPt+oHCtGVp8QYCmKu8p+bvL/m3Rk1ry/cteaZK7xxXJimhDtGeLcRMkbMA2
3ICmKqHnPz55S8l6WNT8y6jHp9qzcIuQZ5JH68Y40DO58aDbvirHPJv5+flX5v1dNH0XWQ+pygmC
2nhmtzLQVIjMqqrNQfZrXFXoWKpOnm7y8/myTykt3XzBFZ/pJ7L05drUyCL1PU4+l9tgOPLl7Yqn
GKuxV2KvnX/nDb/jlecv+2qv/EGxV9FYq7FXhE35D+b38p6jo4vNP+s3fnVvNEbmSb0xZEKPTY+j
X1vh+zTj/lYq93xV2KvmX/nJaz/Mq680eV9KfU9OOiatr1qvlyz4OJorlQsSyXLBfiRXnP2a7HFU
t8t6X+dV5/zkJ5h9PV9I/wAT6Tpttb6nfNA/1VrWcQTKkKcOQk4kfER44q+rMVfHX5z6Vc+V/wAy
/O+u+bvLs2taT5i0y4tfLmshBNDaXM1sIrdjy+BGiYcd6Mv2kr3Venf84/W35Ma9ofla+0yLT288
6BZILoxJ9XvBKYTBM8qUjM4o5HMhgDShrir3fFXz1rfmGy/Lj/nIPzJ5n816fctovmHTrWLRtVgg
e4VHhiijkt/h+yZHiO3+rXY1xV5/5cutdPlK58hWkbeXG8/6vd6xcLcARDTPLYCCSaQNxEYlETIl
aBlX/KU4q+mfIPmL8t59Nt/L3k3V7C9g0m3SKOzs7iOV0hjAQOyqeRqerdyfHFXl/wDzlTotxajy
p5/Vba8tPKd6HvNJu3VFuEmliYBA+zEmHiygE0NaGhxVjUGqy/nZ+Z/lrzboel/oXyh5ImS51LXL
z045ZZImjuTA3FiOKekAN6KrMxpUDFX0zYajp+o2kd5p9zFeWctfSubd1ljbixVuLoSpowIPvirD
LfyHq8f53XPntprc6RNoA0hYAz/WfXF0k/Irw4cOKdeda9sVZ3irsVdirxP/AJxi0nynp2neZ18u
+YH1+OXUA9272Ulj6MnE/uwJHk5/6wpir2zFXYq7FXYq7FXyv+cHlP8AMm4/OXyjpjecPVk1TUL6
+8u1tYwNLRGEiDr++4ooX4v5ffFVP8pPJ35lah+b3nS7h85cLzRb+yttevjZof0kiM4aIA0EXFbf
iePiDir6sxV4T+cP566Fpll528j69pt9pl1cabd2uh37xM9te/WLMopVgAV/fOVrQrtUkdMVeP8A
5XQaZ5j/ADK/LiTyNpU9teaDZ25846nGhhgdo1pKWptVkqhY7yFqb9Sq+1sVSvzT5k0vyx5d1DX9
Vk9Ow02Fp5jtU8fsoterOxCqO5OKvlrzz5W8y3n5N63+ZWtwyfprzdf2d3qNvGSWttBV/wDR7dR2
WvpOfbjy3BxVPmu/y11D87Py1P5UxWwkt47l9bfS4vSRbIxKIxc0UDnx9QNz+LcA7lcVU/zfv9Jt
P+cjtGm/MqN5PIUdoDpAmR5LL1uHxNJGgYPSc/GKHbhy+HFWG/mpr/lHRfMN7e/k1rf1mTzTaXNp
5i8uWMEslv6ckL8riKihFKhmai7oakfCSMVfQX/ONl75al/KDQbLQ79b36hEU1BRUPDdzO1xNG6n
cUeU8T0I3GKvT8VdirsVdiqC0zRNF0pZV0uwtrBZ25zLbQxwh2/mbgFqfc4qjcVdirsVdirsVQs+
k6VPfwahPZQS39qCLW7eJGmiDAhhHIRyWtd6HFXWmlaXZT3M9nZwW094/qXcsMaRvM+/xSMoBdtz
ucVRWKpf5g0LTdf0S+0bUo/VsdQgltp1GzcJkMbFTvxajGh7Yqt8t+XdL8uaFZaJpcZjsbCJIIFY
8m4oAoLN+01BucVTLFUNqOmabqVq1pqNpDe2jkF7e4jWWMlTUEo4ZTQ4qrvDE8TQuitEylGjIBUq
RQqQdqUxVL9H8seWtFaVtG0mz0xp95zZ28UBc9fj9NV5fTiqI1HStL1O2NrqVnBfWxIJguY0lSo6
Hi4YYqhdF8q+V9C5foTR7HS+Y4v9StobeorWh9JV774qq6Z5e0DSXmk0vTbWwe4p9Ye1gjhMnGpH
MxqvKnI9cVR+KuxV2KuxV2KuxV2KuxV2KuxV2KuxV2KuxV2KuxV2KuxV2KuxV2KuxV2KuxV2KuxV
4l/zjf8Amx5v8/X3m6HzDJBImjy2iWXoRCKgma5D8qE8v7lcVe24q7FXzNq35+fmFa+SPPOsRTWw
vdA8xLpWnkwKVFsZHWjrX4moo3xV9JWEzz2NtNJ9uWJHamwqygnFVfFXiH/OQv56P5Os7PT/ACpq
1j/iT68kOpWsvGZ4IDEzVkjr8HxMhqcVQR/5yL05vztGip5h01PIMdl6kl+SnBrn0q8BcFqfaYfd
TFXvmKvnj82Pz585yecNU/L38vtGivb2ytpf0rf3BPwKsXOZogJIlQRK1Obtu2wXpVVjv/OM/n/8
2Y7bR9Jm0JtX8o6nezR/4gZ5XmgcAtJ6snKUBV4fCrotenLfFX1Tirwvzt+YX5r67+bt7+XP5dzW
OlyaLZJe6jqN+nqczIkbhRVJQF/0iNQAla1NaYqv8hf85CzS/lZ5h8x+cYIodY8rTvY3UcB4pdTk
AQKg+LizueDUqBTlsNgqz38oNQ886r5HstY86NENW1Ot1FawxeiILaQAwxstSSxX4zXcVp1GKsN/
5yD/ADj8yeSrjQvLvlW2hk1/zC5WK7uhWKJeaxIFBKqXZ36seKgbg12VYXqn5tfnl+WPm/QrD8xZ
tM1rSNbahaxULIiBlSQoVSA84zIpoyEN0B7hV9NYq8vufzB8xx/85CWvkZXi/QMujm/dPTHq+sC4
r6nWnwjbFXqGKuxV2KvmD/nC3/jqfmF/xnsP+J3uKvp/FXYqxWb8rPy9msNQ0+XQrZ7LVbkX2oQE
NxmuQSfVff7VWOKsojjSONY4xxRAFVR0AAoBiq7FXxp/zkZq35N6j+ZGjfo9ka/j1aWDz5c+neKU
S2lhgZWDJR6KkorBX7PeoxVLfJsf5Aal+emsW93FE3ke9hitfLVrwvwr3shto1oAPWWrerUy0Xf5
Yq+3cVfM/wDzkX+T1xo82s/mx5W1qXTL5I1/S1kKgSCbhbOY3U7c1Yc0cENuajpirGfyI/NHzX+X
N55b8j+Z9HRPL/mgwXmj36keqqamV9KXkrNG8ZZl5KeLJvXwxV9fYq8f8/fkl5mvvPz+fPInmb/D
mv3lsLPU/UhE0cyKqoGFeQHwRoKFTuoYEHFXz1qWm6T5Zvr7TZZZPMflnyTeLqPmac0jj1TXpyIY
bSv7zjFFxYNy5GgmP7SjFXtXlr8+vzDtPNXlfSvP3la30nTfOIRdEvLSRiweUqIxIheXvLGGU8Sv
IH2xVJf+csNV8u+Yb3R/IOm6XNq/n95Fl057dgn1VJ6ckdmBD+qqVK7BQA5YU3VeaaLqC6B+YWqX
n51ve33mzy3YGfyzaX0nOyuZrWNngjaRQ9RIygxsPhZq8qtsVX1Z+UHn698++R7XzPd6cNLN3LMk
NushlVkhkMfMMVTqysOnbFU+byp5cbzInmZrCI69HB9VTUaH1RDueFa0p8RxVNsVdirsVefflVpP
5q6fca23nu406eGZ4TpA0+OOMqqmX1fV4RQ12aOla98Veg4q7FXYq7FXYq8U/MP8hovMX5qeWfMF
jpOlRaBaStc+Y4jFEkl5K8pkYyxiJhPyp8XqHepxVZ+Wv5BQaF+Y3mzzBrej6TLpV5dCbyxbRxxy
/VEWd3VkjaJVgYLwpw6dMVe3Yq+bP+cgvye8/GLzT5p8ueYbq603WBA+reVxHI5l9P0oU9JY+auV
EakVQMAPtHFVP8p/+cdvNN9qXlXzn581s3Uek2dlLo2iBZA8EcKLJbQTeosfp+iackVTVq1Piq+l
8VSTzsnmqTyrqUPlQwr5gmhMVhLcsUijdyFMpIV941JZRTcgV2xV5ev/ADjpbf8AKjJfIS3SRa7d
smoXeqHkyPqIYOSx+0Y6D0gaVp8VK4qkuh/lB+cPmHzb5PvvzCu9Ng0nyKyPpy6eWaa5kiaNkZ6i
g5G3j5H4dhstSTiqYfm5+R3nTU/zCs/zH/L/AFW3svMVsiLNb3dQpaNDEHjbjKp5RHgyOtKd96Yq
xfzL+R356/mheWZ8/ajo+l2mnq6wSWkIlnJYD+QKSrEbgygDqFxV6l+Rnlr8yPKflpfLHm1NPmst
OHHSb2xkYuYyxJiljMcfStQ/U999yq9LxV2KuxV2KuxV2KuxV2KuxV2KuxV2KuxV2KuxV2KuxV2K
uxV2KuxV2KuxV2KuxV2KpPo3nLyhrd1LZ6Lrmn6ndwKXnt7O6huJEUEKWdI2ZlHI03xVOMVdiqRH
z75GWG+mPmLTBDpciw6nKb23420kjFESdudImZ0ZQGpUgjFU4tLu1vLWG8s5o7m0uY1mt7iFg8ck
bgMjo6kqyspqCOuKquKpdrfmTy7oNvHc65qlnpVvK/pxTX08VsjPQnirSsgJoCaYqpnzZ5WGrw6K
dZsRrNwokt9N+sw/WZEKlwyQ8vUYFAWqB03xVNcVQeraxpmkWMl9qVzFa20SlmkmdIwaAmgLlRXb
xxVin5W/m95X/MnTru+0KO5thZTehLb3qwpMfhVuapFLN8HxUqT1xVm+KpP5h84+U/LcccnmDWLP
SlmqIfrc8cJenXgHILU70xVH6dqem6nZRX2m3cN9ZTjlDdW0iyxOK0qroWVvoOKobRvMvlzXBOdE
1Wz1QWzBLk2VxFcCNzWiv6TNxO3Q4qiNT1bS9Ks3vtUvILCyi/vLq6kSGJf9Z3KqPvxVJ9C/MXyF
r939S0XzFp2o3m5Ftb3MUkpA3JCBuRA8QMVZFiqXv5h0CPWY9DfU7Rdalj9WLS2njF00YBPNYC3q
FaKd6dsVTDFXYq7FXx//AM4d/wDk0/NP/MBL/wBRkeKvsDFXYq+Sbn8nPzLfy1+bVouhym48w6tY
3OjR+pDW4ihvrmWR1+Og4pIp+KnXFX0r+XWm32l/l95Y0y/iMF9Y6TY213ASCUlhtkSRCVJHwspG
xxVkOKvjb/nLrzH59vfMVv5d1TS4rby5DdNJ5evUR1lu2EMay8mMjI3BpqbIuKsZtvNf5wT/AJ7R
63B5cgk896ZB6Q0MRzGGONbP0N4zPz/uZeX971P0Yq+67V5ntonmXhMyKZUHQMR8Q798VfD358ag
dV/Py+07z1fXdl5csnEVr6C8zDbG3DxNCh5D97JQuwBO52NOOKph/wA4uflZpnmbUrbzSuuGz1Xy
7qkcsmlIVLT20apIp+FlkVWkqpJBVgCMVfauKvkP80/8ID/nKC9P5oer/hH6hEdP5+sY+H1NePH0
P3nD6z6v2f2+u2KsQ/Ln8xde8ufldr3lzQTPLqXmvVI9P8tQA/GnqJwupU8HKvDGN/tGo+ycVfWf
5O+RNI8ieSbPy5aSxT38Y9fV5o2DGS7kA9VjTfitOC1H2QO+KvFf+c19M8xyx+XNRVJpfLFsZUvB
EfgjuZGXi0goQC6VVGNabjvuq8h842PkPV/OPlu0/JKy1Aai8cTyqzSl1vOSshUysxVoqEyOD6Y6
g0BOKvv23EwgjE5DTBVErL0LU+Ijp3xV49qnknzTN/zk7pHm6OwdvLtvpL202ock4LKY5wE48ufW
Rf2cVeyYq7FXYq+af+cZvJelaH+YPmC8s/NOl65LPaSI9nYNMZYgblG5P6kca0BHHY9cVfS2KuxV
2KuxV2Kvib/nIA/m5f8A5taTpGsNDJI2pS/4IgU24/cXN4I7Yycehb04wTLvtviqG/Ln/ldWofnr
rF7p7QTebrSRovMshNrwWBJ44LhU5fu6jgF+DfbFX3Fir5P/AOcpPzO8i6suv+TLjSCPNOiy2q6Z
rJjR+SN6cs8Yk2kjoJGHHdWpWvTFXjXkwQw/mR5L/wACz3j6nI1h9d5DiVvWb/S44+NOUHD7XLty
rVd8VforirH/ADnoHkbUNLlvvN2m2N7YaZHJcPPfwxyiGNF5yMGcEqKLvTrir5B1mz1TzD5V83/m
7ZWn6H0iwMWj+TbK2jWFLa0e4WKaSJY+KpRJWUlducj03XFUq0+Dy35V1P8AK3WvIetyXXmfVWT/
ABFaxzCQxzPNCvoPEgDKJDJIhRvtBQe9Sqzj/nKLzfq99+amneSdb1CfR/Iw+pyXbwgkSxzPWa5Z
QP3npbqq7gFa0rirzzz2dH/LjXr1Py082RatoXmLT5rO7hjkEs0UUq8XjmdFVK1PKNlow3BFPtKv
pL/nERrE/lOPS1Fb6/mvp7jUYeZeS3duMUcbhviHKOFWHY12xV7ZirsVdirsVYr5U/K3yD5S1K51
Py7pEen314hiuZ0eVy6M4cikjuPtKDsMVZVirsVdirsVdirHta/L7ydrfmHTvMeqaZHda1pPA6de
M0gaIxuZEoqsENHNdxirtC/L3yboOu6lr+kaZHa6xrDO+pXitIzStLIZXJDsyjk55fCBirIcVYJ+
bP5Q+XvzF0J7G7WGz1Osf1fWhbxzXMSI4dkRiUbi4FCOWKon8uvyp8oeRtKtLfTLC2OqQwLBdayI
ES5uCAAzM/xMORFSvKmKsyxVLvMXl3RvMej3Gjazb/W9MugouLYu6BwrBwCY2RqclHfFVOy8q+XL
Hy4nlq20+FNBSE2w04ryhMLV5IytXlyqeVevfFWM+WPyL/KjyxrS63onl6K21OMsYrhpbif0y1am
NJpJEQ79VAxVOfOH5d+SfOVvHB5m0iDUlhqIZJAyyxg9Qk0ZSRQe4DYqx7Q/+ce/ya0S6+tWPle2
aahWt0894oBFDRLqSZR160xVNvKn5T/l95S1KXUvLekLpl5MhjmeGWfi6E14tG0jIRXcfDt2xVlu
KuxV2KuxV2KuxV2KuxV2KuxV2KuxV2KuxV2KuxV2KuxV2KuxV2KuxV2KuxV2KuxV4F+UP/OSWt+e
vzEbyrd6NbWduI7mT6zFJIz1g6Cjbb4q99xV2KvnaT/nKDXkt/zAl/QlqT5OkjS2HqSfvw+orZfv
PD4X5bd8Vev/AJW+cbnzn5B0jzNc26Wk+pRu728RLIpSV49i2/7FcVZViryL8+fz1b8trbTRplva
6pf3k0kdzaySkNCsaKwLBCWBPMUriqRRf85KXb/mnpHk36np/wCj72G0e+1T6yeMTz2i3MoBNE+A
txFTX6cVe9AhgCDUHcEdCMVeL/m9/wA5PeWvy/1l9AtdOk1vW4AjXcKyi3gh9RQyq0pWUl+LBuIT
6cVeV/kx/wA5ReY5fOkmnebmu9XttduYbXSYYFgrayzTFFWnGIup9RVJ5V26HFX15irw382v+cid
Y8ted18jeT/L51/zAkaSXKn1Hozxev6UcMI5uRDRy3LYYqmf5Yf85F6B5t8j655k1e3/AEPL5aRZ
NWhD+ohSRWMTRMQpJlaNlVOvLbeoxVNvyP8AzJ80fmHoN35g1XSIdJ0tpjDpQjd5JJglfVdiwUcV
NFBHUhulMVQX55fn3pv5YxWdpHYnVNc1BGlgtS/pRRxKePqSvRm3bZVA3odxiry+w/5zE806Zqlt
H5z8nmx067pLHJD60Ewt2PwyxpcDjMPkVBxV9P2F7a39jb31pIJbW7iSe3lHRo5FDIwr4qcVeZ+Y
Pzh1LS/zx0T8uY9PhkstVt1nkv2dxKhZJmoFHw/7pH34q9TxV2KuxV8Qf84sf+T5f/jBf4q+38Vd
iryR/wDnGXyG0XmqI3+qcfN7q+pH1besZS7W9Hof6P8AD+8Wnxcvh998VZ/5J8oab5O8rWHlrTJZ
prHTkZIJLlkaUh5GkPMosandz0UYqnmKvhH/AJyhsvKJ/Mu5v9E1pdQ1C/nlj1u1pRbKe29O3EZN
PFGr8sVYxpfk38vrz805fLkvmUw+Ug8iQeYCq1k4xVSi9Pjl+HFX6I2sAt7aKAHkIkVAx6kKKVxV
8Z/85Lfl75o8l/mEfzKsZYpNM1DUIZbSZwkjwXyx+oI5IZAVdT6DMpoRTY+6rGPyN/Mfy35b8+TX
XnHRkvV1i6t7iLUCi+pYXHqNIlzGjDlxPrVPFgePTl0xV974q+dfzX/Jv80Y/wA3E/Mz8upbefUZ
kUSwTtGjQyLa/UyQJv3bo8I8ag9sVfPWreXtW8qTXvkbVL9Y3uJLfUPOL2pEwgitgzQwepVVkkHr
livLi0jRrXkMVe9+Qf8AnK3yJZHR/LX+G7rQfLahbLT9QeRZUREPBXkUIvf+8ZWYg+OKpb/zmrZ+
TZE0e8k1H0vN8KGOHTUXn6tkzkl5CP7rg/LgT9rcUNKqq8L1Hzhq/n3UbFPPmum3stAsTFB+5rO6
QgVhiVQqtcTUHxSso23PQFV9sfkf+YXlvzn5NVvLmn3WnaVobR6TBDd8C3G3gj4gFGcGiMoxVF6r
+UXlvU/zL038w57m8XWtLiEFvbxvELVlVZFq6GJpCf3x6SDtirN8VdirsVeBflDpX5m2/wCYjTa/
+X+h+X9J9O5A1fT7G0t7nkfsL6sUjvR/2tt8Ve+4q7FXYq7FXYq+UPzh/wCccdV1L827K78t6Nc3
GgaxOl55jv8A6xFRJ7u9ka64CQqyhIiGFAeuKoT8vf8AnF+8m/NPWE8yaNd2Xku1e6k0Sczx85PT
ulForGN3aphJY1HbFX11ir40/wCcs/JHnvTdbvvNN5qKz+UtavrZLexjlkAiuYrRo4vUt2+DkIop
KOpPU9K4qhfy/wD+cd/zO893/l/XPNsiW3lhLSy+qzyyxSyyaZFEpt4YIYS/ENHQfvOJFSSCdiq+
1cVSfzjqWuab5Y1G80HT21XWo4T+j7BSq+pO3wpyLsg4KTybfoDTfFXz35Z/5xx8zXn5SebH134P
zD81OLhjcOrFBb3K3KxO6ErW4kQs5rTdf5cVefwfk5+eHm208qeSNX8vDSNH8tPdxrqsnBQsV5OJ
Z3dldllKlaJ6Y3792xVnH/OSX5E+f9c88jzp5Vtl1WKSGAXFmGjE0UtuOIKxykLIjKqmgqa12pir
B/NX5X/n9+aHmKK/1fylbaXfpCIp78KlmkqoPgM3KRy7CnEFVrTboBRV7B/zjRYfmZ5P05/KHmfy
jJY6Y0slxbaxE8DUlfd1uVWVmYHiAjqNtgRTcKvfMVdirsVdirsVdirsVdirsVdirsVdirsVU57e
3nQJPEkqA1CuoYV6VocVXoiIioihUUAKoFAANgABireKuxV2KuxV2KuxV2KuxV2KuxV2Kv8A/9k=
									</xapGImg:image>
							</rdf:li>
						</rdf:Alt>
					</xap:Thumbnails>
				</rdf:Description>
				<rdf:Description  rdf:about="" xmlns:dc="http://purl.org/dc/elements/1.1/">
					<dc:format>image/svg+xml</dc:format>
				</rdf:Description>
			</rdf:RDF>
		</x:xmpmeta>
<?xpacket begin='﻿' id='W5M0MpCehiHzreSzNTczkc9d'?><x:xmpmeta xmlns:x='adobe:ns:meta/' x:xmptk='XMP toolkit 3.0-29, framework 1.6'>
<rdf:RDF xmlns:rdf='http://www.w3.org/1999/02/22-rdf-syntax-ns#' xmlns:iX='http://ns.adobe.com/iX/1.0/'>

 <rdf:Description rdf:about='uuid:9fa7ed3a-491b-11df-96e1-001124740a56'
  xmlns:pdf='http://ns.adobe.com/pdf/1.3/'>
  <pdf:Producer>Adobe PDF library 6.66</pdf:Producer>
 </rdf:Description>

 <rdf:Description rdf:about='uuid:9fa7ed3a-491b-11df-96e1-001124740a56'
  xmlns:tiff='http://ns.adobe.com/tiff/1.0/'>
 </rdf:Description>

 <rdf:Description rdf:about='uuid:9fa7ed3a-491b-11df-96e1-001124740a56'
  xmlns:xap='http://ns.adobe.com/xap/1.0/'
  xmlns:xapGImg='http://ns.adobe.com/xap/1.0/g/img/'>
  <xap:CreateDate>2006-01-25T10:39:25+09:00</xap:CreateDate>
  <xap:ModifyDate>2010-04-16T05:49:29Z</xap:ModifyDate>
  <xap:CreatorTool>Illustrator</xap:CreatorTool>
  <xap:MetadataDate>2009-04-10T15:02:45+09:00</xap:MetadataDate>
  <xap:Thumbnails>
   <rdf:Alt>
    <rdf:li rdf:parseType='Resource'>
     <xapGImg:format>JPEG</xapGImg:format>
     <xapGImg:width>196</xapGImg:width>
     <xapGImg:height>256</xapGImg:height>
     <xapGImg:image>/9j/4AAQSkZJRgABAgEASABIAAD/7QAsUGhvdG9zaG9wIDMuMAA4QklNA+0AAAAAABAASAAAAAEA&#xA;AQBIAAAAAQAB/+4ADkFkb2JlAGTAAAAAAf/bAIQABgQEBAUEBgUFBgkGBQYJCwgGBggLDAoKCwoK&#xA;DBAMDAwMDAwQDA4PEA8ODBMTFBQTExwbGxscHx8fHx8fHx8fHwEHBwcNDA0YEBAYGhURFRofHx8f&#xA;Hx8fHx8fHx8fHx8fHx8fHx8fHx8fHx8fHx8fHx8fHx8fHx8fHx8fHx8fHx8f/8AAEQgBAADEAwER&#xA;AAIRAQMRAf/EAaIAAAAHAQEBAQEAAAAAAAAAAAQFAwIGAQAHCAkKCwEAAgIDAQEBAQEAAAAAAAAA&#xA;AQACAwQFBgcICQoLEAACAQMDAgQCBgcDBAIGAnMBAgMRBAAFIRIxQVEGE2EicYEUMpGhBxWxQiPB&#xA;UtHhMxZi8CRygvElQzRTkqKyY3PCNUQnk6OzNhdUZHTD0uIIJoMJChgZhJRFRqS0VtNVKBry4/PE&#xA;1OT0ZXWFlaW1xdXl9WZ2hpamtsbW5vY3R1dnd4eXp7fH1+f3OEhYaHiImKi4yNjo+Ck5SVlpeYmZ&#xA;qbnJ2en5KjpKWmp6ipqqusra6voRAAICAQIDBQUEBQYECAMDbQEAAhEDBCESMUEFURNhIgZxgZEy&#xA;obHwFMHR4SNCFVJicvEzJDRDghaSUyWiY7LCB3PSNeJEgxdUkwgJChgZJjZFGidkdFU38qOzwygp&#xA;0+PzhJSktMTU5PRldYWVpbXF1eX1RlZmdoaWprbG1ub2R1dnd4eXp7fH1+f3OEhYaHiImKi4yNjo&#xA;+DlJWWl5iZmpucnZ6fkqOkpaanqKmqq6ytrq+v/aAAwDAQACEQMRAD8A9KaVpWlnS7MmzgJMEdT6&#xA;afyD2xVFfonSv+WKD/kUn9MVd+idK/5YoP8AkUn9MVS3y1pWlny5pRNnASbO3JJjT/fS+2Kpl+id&#xA;K/5YoP8AkUn9MVd+idK/5YoP+RSf0xVLfLOlaWfLmlE2cBJs7ckmNP8AfS+2Kpl+idK/5YoP+RSf&#xA;0xV36J0r/lig/wCRSf0xVLfL+laWbCUmzgP+mXw3jTteSjwxVMv0TpX/ACxQf8ik/pirv0TpX/LF&#xA;B/yKT+mKpb5f0rSzYSk2cBP1y+G8adryUeGKpl+idK/5YoP+RSf0xV36J0r/AJYoP+RSf0xVLfL+&#xA;laWbCUmzgP8Apl8N407Xko8MVTL9E6V/yxQf8ik/pirv0TpX/LFB/wAik/piqW6VpWlm/wBZBs4C&#xA;BeIB+7Tb/Q7c+GKpl+idK/5YoP8AkUn9MVd+idK/5YoP+RSf0xVLdK0rSzf6yDZwEC8QD92m3+h2&#xA;58MVTL9E6V/yxQf8ik/pirv0TpX/ACxQf8ik/piqWfo7T/8AEvo/VovS+p8/T4Lx5erTlSlK0xVW&#xA;TVrTTdI0o3HJnu/q1rbRRryd5ZVFAoHZVDOx7KpJ2GKrLjSbf/FNtqdpeLa6gYGi1C1oGN3aKT6f&#xA;JeSkNDK9Uk3oGZafFsqj9P1W0vpb2GEsJtPnNtdRuOLK/BZF+YaORWUjsfGoxVLNN1W00zylo09y&#xA;WpJBZW8UaDk7yzqkaKqjrVm38BUnYHFU7a4t1uEtmlQXEiPJHCWAdkjKh2VepCmRQT2qPHFUNZat&#xA;aXl3fWcXJbnT5FiuI3HE/HGsiOv8yMrbMO4I6g4qllhq1ppPkvTb665GNLS0RI415ySSyqkcUUaj&#xA;7TySOqqPE4qq3+kwXXmXT7u+vFaO0R5NN0ogLW5oVkuWJashjjfigCjhyYmpK8VUfbaraXGo3unI&#xA;WW7sRE00bClY51JjkU91Yo61/mVh2xVLbTVLPSvL17qF4xW3t7q+Zgql3Ym9lCoijdndiFVRuSaD&#xA;FUDL5ZvLa9F/b+Y7q11e9uJfSiu5GuLKVWLypbCxeQIPShXrbtG54lix+LFU00K5W3dtBubuS81W&#xA;xginubiVeHrLcM/7yMVb4eaMvGvw0A8CVVOx1Kz0zy/fajev6dpaXGozTvQsQiXcxNFFST4AbnFU&#xA;um8v3JvF1aHX7zT9X1CYm0trmVpLXiYuYtDp7yekeEcTMxi4SbM3KlcVTTRbj6pP+gr28kvNWWJr&#xA;6SeRDGsqTzuW9EVeiRMQgTkSi8Kk1BKqt5e/3gl/5jL7/qMlxVM8VdiqWaT/AL361/zGJ/1B2+Kp&#xA;nirsVSzSf979a/5jE/6g7fFUzxV2KpT/ANNV/wBGP/M7FUom4HWPJom/uhFcGCvT6z9UASn+V6Jm&#xA;+iuKr5tRth+aNpp3L/SW0S4n4+CC7hUfea/ccVRGncP8f67w6fo3S/Up09T1r6taftcOH0U9sVSx&#xA;ePo/l/6m0IkUr4Gb9FXHAH248/ppiqL1PUrOH8zPL9k8gFxcaTqvpp7iewYD6Vjcj/VPhiqIhp/y&#xA;sK89LqdJtfrn0XNx9W/XPiqWTcP0T5DE3+8purX16/ZqNOnMFf8Ao5EXH/KpiqL1/Uba28/eU7SR&#xA;qT30epJAvj6cUUjfcFxVET8P+Vh2XpfbOkXX12nWn1m3+q8v+S/H6cVSzU+P6J00S7Wn+I/9IPav&#xA;6SlMFf8Ao59KnviqL826lZ2/mbyXZzSBJ7rVLhoQe4j0y7U/8NKo+ZA74qiL6n+P9G4f3h0zUvVH&#xA;b0xPY06ftc6ca9uWKpZrnD/CP7z+6Ov24lr9ngfMCc+X+TxryrtTriqL866jbWOr+Tmnbj62t+hG&#xA;PFptOvI1/wCGcfq74qiNZ4f4y8uen/vT6d/zA+19V9OP1P8AY+t6FfemKo/y9/vBL/zGX3/UZLiq&#xA;Z4q7FUs0n/e/Wv8AmMT/AKg7fFUzxV2KpZpP+9+tf8xif9QdviqZ4q7FUp/6ar/ox/5nYqpS6HY6&#xA;x5fsLe69RGiSCe2uYXMc0MyJ8MsTjdWAJHgQSrAqSCqx0aBoZ8wXtle39xHrtutpqFvr8k8S3rGc&#xA;XFuiqBGsAjX05F9IR8DyJK1NSqyzRdEtNJhmWF5J57mQz3l5O3OaeUqE5yMAo2VFUBQFVQAAAMVS&#xA;+y0ax1jyZpdleq3pm1tJI5I2aOWOWJEeOWN1IZXRgCCMVSKTQdD/AMQXun6pqNydVhgsdRtdfuLi&#xA;KO7DiS7iVYVVIoESFeQZVj4sJWDg8t1WV6JoFrpIuHSWa7vLxxJeX1yweaVlUKteIRFVVHwoiqo3&#xA;oNziqDsNIsdX8l6dYXyF7eSztW+FmR1eNEeOSN0IZHR1DKymoIqMVSC88vaCmuSWOtX1xPey2kd3&#xA;Z65dXCR3MP1SagW3MaQxx+mXUsQtZOVH5DFWVaNoFvpj3FwZ5r3ULzj9b1C6KtNII6+mn7tY40RO&#xA;bcURFUEk0qSSqhrPS7HVfL95p99F61pc3V+kqVKmn1yUgqykMrKd1ZTUHcb4qhH/AC+0q4WVtSvL&#xA;7Urpo0itry4mAmtkjkSZPq7QrCEYSxI5ehdiq8i1BiqY6N5ct9Mubi9e6uNQ1K6VI57+8ZGkMcVS&#xA;karEkUSIpdjREFSampxVT0/T7LUtBvbC+iWezurnUIriFq0ZHu5gRtv92KpBqPljy9FqdrYa7e3W&#xA;oC8tZ4rG6v7gB7X0JIJVWB41iIl5KsgmcmSsY+LFWQ6J5etLOdtRa9uNUvZ4liS/u3jdhAPiWOMR&#xA;JFGqk0JKrVtixNBiqt5e/wB4Jf8AmMvv+oyXFUzxV2KpZpP+9+tf8xif9QdviqZ4q7FUs0n/AHv1&#xA;r/mMT/qDt8VTPFXYqlP/AE1X/Rj/AMzsVUNKn8x/ouzpY2ZHoR0JvJR+wP8Al2xVu5s9Sup4p7rR&#xA;dMnngNYJZbh3dCDWqM1oSu4rtiqJ+seZf+WCz/6TJf8AslxVLfLU/mP/AA5pXGxsyv1O34k3coJH&#xA;pL1H1Y4qiLyz1K9aNr3RdMumhNYmmuGkKE915Whp07YqivrHmX/lgs/+kyX/ALJcVS3y1P5j/wAO&#xA;aVxsbMr9Tt+JN3KDT0l7fVjiqJvbPUr8IL7RdMuhGaxie4eQKT3HK0NMVRP1jzL/AMsFn/0mS/8A&#xA;ZLiqW6BP5j+oy8bGzI+uXvW7lG/1yWv/AB7HviqZfWPMv/LBZ/8ASZL/ANkuKu+seZf+WCz/AOky&#xA;X/slxVLdAn8x/UZeNjZkfXL3rdyjf65LX/j2PfFUVe2+rX0QhvtH026hDBhHNcvIoYAgGjWpFd8V&#xA;Vkk8wxoscenWKIgCoi3coAA2AAFriqX6BP5j+oy8bGzI+uXvW7lG/wBclr/x7HviqZfWPMv/ACwW&#xA;f/SZL/2S4q76x5l/5YLP/pMl/wCyXFUt0qfzH9e1iljZk/XE5Vu5RQ/U7fp/o3hiqZfWPMv/ACwW&#xA;f/SZL/2S4q76x5l/5YLP/pMl/wCyXFUt0qfzH9e1iljZk/XE5Vu5RQ/U7fp/o3hiqZfWPMv/ACwW&#xA;f/SZL/2S4q76x5l/5YLP/pMl/wCyXFUu9bXP8Q8vqlr9Z+qU9P6zJw4er9rn6FeVe3H6cVTnSf8A&#xA;jlWX/GCL/iAxVJ5vOVva+dYfK1/avavf25uNHv2YGC6aL+/gXoVmjHxce67jocVZHiqWeWP+Ua0n&#xA;/mDt/wDk0uKpnirsVSzyx/yjWk/8wdv/AMmlxVAax5yt7HzPpPlm1tpL/VtS5TzRREKtrZR7PdTs&#xA;ei8qIi9XbYdDirIsVSzy9/vBL/zGX3/UZLirHF/ODyYusXOn3klxp1vBdS2C6zeQNDpst3bsUlgS&#xA;7b92HV1ZaOVqQeNcVZH5c8w6b5i0W21nTGZ7C8DNbyOpUsquU5AH9luNVPcb4q7y9/vBL/zGX3/U&#xA;ZLirHpvzc8n22t3Wm3zXNlb2tybGTWriBk0362qqzQG73RHHMD95xBOwJOKsh8t+YtL8xaRFq+ly&#xA;GWwneaOGUigf0JngZl8VZoyVbuKHFXeXv94Jf+Yy+/6jJcVTPFXYqlmk/wC9+tf8xif9QdviqZ4q&#xA;7FUs0n/e/Wv+YxP+oO3xVM8VdiqU/wDTVf8ARj/zOxVjXmTXNZgk8leXtFuPqd5rlwhurvgkhjsL&#xA;G3+sXIQSB05yUSIEqacq9RiqYX2uRT/mRYeVbmwguIBpc2twXUqh5Iri3uYbdPTDAhTxuCeQ3xVR&#xA;8pa7rDecvNflnVrn622nSW1/pdwyRxt9Rv0bjCVjVQfQmgkTl1K8a74qluva5rNp5c8laLodz9T1&#xA;XzFPZ2a3YRJWhtobY3V3KiSK6FvRgKjkpALVxVkuo+Y57Xzponl9YVaHVbPULqSck8kaxe1VVUdK&#xA;N9aNfliqXaDresx/mF5h8tanObq2Fva6vokpRFMdtcF4JrdjGqBvSmg5KWq3F9yaYqlnmbXdZ03y&#xA;J5XsdEn+q6xr8+m6TZ3hRJfQ9aP1ZpuEgZGMdvDIyhhStMVTbV9bj0jz15c0uGyhebzIl3He6iVC&#xA;z8dPgEsQLKByFXOx6dsVUtN13WLf80NV8tX9z9asLzTotY0WqRo0Cxy/VrqAlFUuodo3VmqRyIr0&#xA;xVAebvMGraP5KdNFkWHXNW1l9J0ud1EixT3upSResUaob0kLSUIptvtiqb61qEWl6j5a8vtaxXlt&#xA;5hu7i1vpJkQcjHZT3jSsiKsbNJJB8Xw03OKoeDVtU038zR5emk56FqulG80aERxotrNp8kcNzAhj&#xA;VSyOlxE45k8SCBQUGKoTzZ5i1LQPy91K90oKdYnv57HSuYDKLu+1NraFiDsQjyhiD4Yqi/MmrP5a&#xA;tfK+mSQxamde1SDSdSuJo0jMpltppZblo4lWPm7W9SONN8VWS6tqOi/mXpmhNKp8u67p0/6Ns1ji&#xA;QWt5pxRpFQoqsUmgmrRiaFNqA4qyHy9/vBL/AMxl9/1GS4qmeKuxVLNJ/wB79a/5jE/6g7fFUzxV&#xA;2KpZpP8AvfrX/MYn/UHb4qmeKuxVKf8Apqv+jH/mdirD/OMeqadJ5M83WVlcalbaH6kOq2Nmnq3B&#xA;s762EbTRRirOYZEjYqu5WuKsen8y6xL+ZkH5gwaPqLeSrOxOgSyGxuReN9Yk+tSXsdmYxcm3jkhi&#xA;iY+ny3JAoDirKPIKX2s+cPMfnWayuLDTdQhs9N0WK8je3uJbeyMrvcvBIA8ayS3BEYYA8VqRviqC&#xA;8z2OpQ6H5E816dZS6jL5YkhuLuxt1LzyWV1YvaXJhjH25I1mDhe9CBviqS6t5l1e/wDzA0nz3p2k&#xA;6jL5P0GCXTb12srmK6lGoAtNPBaSIlw8Vs9vAHIj3q3GvE4qyTyc915i/MDV/Of1G5stHi0+DRtH&#xA;a9he2muQk0lxcXAhmVJUjLOiJzUV4k4qo+bLLWG8keUNa0m0l1C68t3Nhqsmn24DTz262r21wkSt&#xA;s0no3LMq9yKYqx/zF5m1nW/O/l3zhomi6lN5Z8oicap61jcQXU51NBBJ9VtpkSeX6oqh5OK77heW&#xA;Ksk8rzXPmf8AMq683wWV1Z6Dp2lHR9PmvoJbSS7luLhLm4lSCdUlWKMQxoGZRU8qVpiq3zro+qX/&#xA;AJOhvtJtjfaloGvNrNvYKaNcC01GUyxISQObQs/D/KpirHvNfmXWvMXmPy35k8t6NqcukeT5Hv8A&#xA;V1uLK4tbiY3ai0e2tYJ1ieaWG3lmkfiCNgoJLYqyDRrybzj+Zdn5itbG7t/Lvl3Trm2tby+tprN7&#xA;m91CSEy+jFcLHL6cUVsAWKirNQdK4qr+cdH1fU/IF0dFi9fV9N1ZtVsLaoX1pdP1Y3Qiq21ZBEVW&#xA;vcjFWK+dPNGveb7ry7e+WdA1RrfyreR69rNvfWU1pKzQj0GsbdZ1T1bn0p5molVqoHIkjFWQWN/L&#xA;51/MfRdYsLC9tdA8sWt4z31/bT2RuLy/RIlhiiuFikYRRq5d+NK0AOKs38vf7wS/8xl9/wBRkuKp&#xA;nirsVSzSf979a/5jE/6g7fFUzxV2KpZpP+9+tf8AMYn/AFB2+KpnirsVSn/pqv8Aox/5nYqi9J/4&#xA;5Vl/xgi/4gMVYhPovnbS/wAwdT1vRray1HS9dtrGC4W8vJbV7SSxMwZ0RLe4EgkScbVXcb7YqzrF&#xA;Us8sf8o1pP8AzB2//JpcVY3rmlee7Pz1J5h8vWthqVne6ZBp01rfXk1mYZba4nmWYGO3uw6stzxI&#xA;oDtirN8VSzyx/wAo1pP/ADB2/wDyaXFWNeY9E852/ny280eXbaz1GJ9MbSrqxvbuWyWNjcCdJ1aO&#xA;3uuXdWHEHwxVmyc+C+oAHoOYU1APehIGKpd5e/3gl/5jL7/qMlxVM8VdiqWeXv8AeCX/AJjL7/qM&#xA;lxVj/nbQ/NUvmby55k8vQ217LoyX0Fzpt3cyWaSx3yRAOJUhufijaAbFOhOKsssmvGs4GvkjivTG&#xA;huo4HaSJZSo5rG7LGzKGrRiqkjsMVQfl7/eCX/mMvv8AqMlxVM8VdiqWaT/vfrX/ADGJ/wBQdviq&#xA;Z4q7FUs0n/e/Wv8AmMT/AKg7fFUzxV2KpT/01X/Rj/zOxVQ0ry/YHS7MmW83gjO19eD9geEuKor/&#xA;AA9Yf79vP+k68/6q4q7/AA9Yf79vP+k68/6q4qlvlrQLFvLmlMZbyps7cml7eAbxL2EtMVTL/D1h&#xA;/v28/wCk68/6q4q7/D1h/v28/wCk68/6q4qlvlrQLFvLmlMZbyps7cml7eAbxL2EuKpl/h6w/wB+&#xA;3n/Sdef9VcVd/h6w/wB+3n/Sdef9VcVS3QNAsWsZSZbz/ey9G17eDpeSjtLiqZf4esP9+3n/AEnX&#xA;n/VXFXf4esP9+3n/AEnXn/VXFUt0DQLFrGUmW8/3svRte3g6Xko7S4qmX+HrD/ft5/0nXn/VXFXf&#xA;4esP9+3n/Sdef9VcVS3QNAsWsZSZbz/ey9G17eDpeSjtLiqZf4esP9+3n/Sdef8AVXFXf4esP9+3&#xA;n/Sdef8AVXFUt0rQLE32sj1bz4bxAKXt4P8Ajztzv+93xVMv8PWH+/bz/pOvP+quKu/w9Yf79vP+&#xA;k68/6q4qlulaBYm+1gerefDeIBS9vB/x5253pLv1xVMv8PWH+/bz/pOvP+quKu/w9Yf79vP+k68/&#xA;6q4ql36Fs/8AEX1f1Lr0/qnqV+t3POvq0/vPU58f8mtMVRT69ouiaBp91q97DY28qwQRSTuEDyyK&#xA;Aka1+0zU2A3xVj+peV/Oln+Y9j5l0LVZLnQr1fqvmDQL65mMEabcLqxQ80jkXj8SgAN9JOKsr0nX&#xA;tF1hbo6Xew3osp3tLz0XDmK4ipzikA+y613BxVLLPXtF0LyXpmo6zew6fYpaWqNc3DiNAzxqqrVu&#xA;5J2xVkIIIBHQ7jFUDpuvaLqk97b6dew3c+mzG2v4onDNDMvWOQDdW+eKpdYa1pOi+SdP1PV7yGw0&#xA;+3srYzXdw6xxpyRFXkzEDdmAHviqRa55b84+Y/PWk3v6Wk0zyPpcQuRb6fdTQXOo3T0KrcemI+MC&#xA;D9nkeXfrsqy6w17RdQvb6wsb2G5vdMdY9Rto3DSQO4JQSKN15AEivXFUDZarpuk6Beajqd1FZWFt&#xA;dXz3F1OwSNF+uyirM1ANzirA7HRvzxMl35m03zPp+orfXU01h5evI66c2mua2hiuYVWeOX0t+hUn&#xA;r4lVln5d399HpCeX/MGuW2s+c9KQPr/oMvKNrlmliBQLGQojYKpKioFcVTLTtQsdO0K8v7+4jtbK&#xA;1udQluLmZgkcaLdzFmZmoAAMVYDZaV+c15faj5s0fzRY3Nld3kkmiaFcJ6umz6SVX6s/rxIk0MzD&#xA;kxK8gduuKso/LrUNVh0/9AeadatNS87Woe61S2tnFYYriVngULxjYokbKvIr18cVT7y9/vBL/wAx&#xA;l9/1GS4qmeKuxVLNJ/3v1r/mMT/qDt8VTPFXYqlmk/7361/zGJ/1B2+KpnirsVSn/pqv+jH/AJnY&#xA;q8x/MBUvPzG/JrSLph+jpZr+/kjb7JubCxjktT1pUO5p88VReo6lGv8Azk9pFj6xBbytMfRqeJZr&#xA;tiNuleMbYq7yMiWH5/fmHp9nQWd7aaZqFzEo+GO6MbI3yaQHm3jiqV/mL6d5dfk3ot2P9xl3qVvd&#xA;XFa8Gls7VXgjag35s52OKpn5n1NIf+ckvJlkZiDc6NqA9ENQE/E6krXfaFqfLFXeXglj/wA5K+ab&#xA;S0HGDVNAs9Qv1WnE3MM3oISK/aMbeGKpb+bKrd+W/wArNGuGA03VNe0eK/jOwljWIsIW3oVdqbeN&#xA;MVTP8xdSjh/Pf8qLYzFARrhljBIB9WyVIqgdauppiro0Sw/5yflS0oF1nyqtxqcSjrLbXnpRTPTv&#xA;6Y4CuKpZ+eJWfyJomkXFRput+cYdP1Q78RavqFxI3KgO3KJcVTH82dSjsfzU/KeIy+mk2oX8ZiVu&#xA;IYPbpEtRUVAaQYq3qoSx/wCcmtDltRxk1jy7dQaiFp8SW83qRO4qN6jiD17dMVQP57yv/wAqgubL&#xA;1TDbalros72QHiRBJqrl/iqKfZ39sVRn513dtput/ldZRP8AVo28zWkccSVVfSRTGFoP2QXUUxVd&#xA;5wRLH/nIr8vru0IFzq+n6vYakFG5traEXMPP29Y7Yq9H8vf7wS/8xl9/1GS4qmeKuxVLNJ/3v1r/&#xA;AJjE/wCoO3xVM8VdiqWaT/vfrX/MYn/UHb4qmeKuxVKf+mq/6Mf+Z2Ksd84fl3ZedPLeiob2fStX&#xA;0lob3R9XtaGW3nVAK8W2dG/aXvirznTPy9tdV/MDXrF/M2pH80NCayv/APGRgtkUQzQsiW0Nmp9L&#xA;0fTYiRSAGY1O22KvTfy9/Li38onVL641CbWvMOuTLcaxrVyqpJMYwViRY0+GOONT8Kj9VAFUJr35&#xA;fab538gaHYXVxNYXtlHZ32lapakLPa3UMQ4SoT167j9RoQq86i8gW2q/mVqOiap5k1S6/MnTbS01&#xA;fT/OBgtYY7eCJmiSCC2T4GRjcN6qkUY/iq9M/L78tE8q3+r61qGqz6/5m110bUtYuUSIlIRxiiii&#xA;j+CNFHYfqAAVWa35D0rzx+W+maLqEstsy29ndWN9bNxmtrqGNTFNGT3FSPkT064q84uPy7tNR/Ml&#xA;/LfmLzPqep+f49Ig1nQ/NQhtrZLCG1u2iSKGCM0d3kJaTkPiXvXFXo/kT8sj5d1rUvMmsaxP5j80&#xA;6qiQXGrXEccHC2joVghhi+CNagFqdTiqrrfkjRvOvkm/8v6tzW3uL28eOeE8ZoZo76Vo5Y23oysP&#xA;p6dDirFZvyAl1YteeavNuoa3rtrDFDoOrelDbPpxgmSdZYkjBV5TJGvKR/iZdvfFWQ+Sfyum0PzL&#xA;e+a9f1648zeZ7y3SxTULiKK3SC0RufpQwQ/AnJ/iYjqfcmqqP1Pyho/nDyTqnlzWEZtP1C5vUkMZ&#xA;CyIy30jpIhIIDI6hhUEeO2KvKta/LXT5fOOg+UfPHmbVfMmranYXUXlXUOEFqNNNnwnacMh5yXB9&#xA;NaO1SQDy9lXoXk/8q7nSvNL+bPMnmC480+YlthY2N3cQxW0dtb1qyxQw/Bzc/afr95xVlvl7/eCX&#xA;/mMvv+oyXFUzxV2KpZpP+9+tf8xif9QdviqZ4q7FUs0n/e/Wv+YxP+oO3xVM8VdiqU/9NV/0Y/8A&#xA;M7FVDStVvxpdmBo14QII9w9nv8A8bjFWOeZfy98meZtV/SuueS57zUDEsD3BmgjLxKSQjiO7QON/&#xA;2gcVZb+lr/8A6st5/wAHZ/8AZRiqW+WtVvh5c0oDR7xgLO3AYPZ0P7pdxW4BxVJ/NXkPyh5r1CPU&#xA;fMHk24vb6KL6ulyZbeN/RqW9NjFdpyWpOzV64qyiPUryONY00S8VEAVVD2dAAKAf70Yql/lrVb4e&#xA;XNKA0e8YCztwGD2dD+6Xfe4BxVKvNfknyr5svLe98weULm9u7WMwwXHrQRSLGxqU5RXcZK17HFWQ&#xA;2d1NZWcFna6Ddw2ttGkMESvZ8UjjUKqj/SOgApiqD0DVb4WMtNHvG/0y9NQ9n3vJTTe4HTFUy/S1&#xA;/wD9WW8/4Oz/AOyjFXfpa/8A+rLef8HZ/wDZRiqW6Bqt8LGUDR7xv9MvTUPZ97yU03uB0xVA+bfK&#xA;vl7zcLQeYvKdzftYs7WcjS28bxmQAPxeK6RqNxFRXFU00dU0bS7bS9M8vXdtYWiCO3gV7QhVG9Kt&#xA;ckn6TiqjoGq3wsZaaPeN/pl6ah7PveSmm9wOmKpl+lr/AP6st5/wdn/2UYq79LX/AP1Zbz/g7P8A&#xA;7KMVS3StVvhfawRo94a3iEgPZ7f6HbihrcYqmX6Wv/8Aqy3n/B2f/ZRirv0tf/8AVlvP+Ds/+yjF&#xA;Ut0rVb4X2sEaPeGt4hID2e3+h24oa3GKpl+lr/8A6st5/wAHZ/8AZRirv0tf/wDVlvP+Ds/+yjFU&#xA;u/SN5/iH1f0Xdep9U4/V+Vtzp6tedfW4ce32q+2KpzpP/HKsv+MEX/EBirG7f80/Kknn6TyJM09p&#xA;5iVDLDDcRFI50A5VhkqVeqVYfI9wRirL8VSzyx/yjWk/8wdv/wAmlxVM8VdiqWeWP+Ua0n/mDt/+&#xA;TS4qkXm781PKnlbXtK8v3zT3Ot6yf9B06ziM8zDlxDMARxVmrQnwPgcVZeOnh7Yqlvl7/eCX/mMv&#xA;v+oyXFWN2f51/lXd+Ybry9F5ktV1ayd4p4JucKc4iVdUmlVIpCCOiOcVZF5Z80aD5n0eHWdBu1vt&#xA;MnLrDcorqGMbFGoHCtsykdMVXeXv94Jf+Yy+/wCoyXFWPR/nN+WD+arjyqfMNtFrtrIYJrWYSQqJ&#xA;lNDGs0irCz124q5NduuKp95Z81eX/M+mfpTQbxb+w9R4fXQMq+pGaOvxhTscVX+Xv94Jf+Yy+/6j&#xA;JcVTPFXYqlmk/wC9+tf8xif9QdviqZ4q7FUs0n/e/Wv+YxP+oO3xVM8VdiqU/wDTVf8ARj/zOxVg&#xA;n5j/AJl6x5TtvJWi6BaW95r3mi5is7ZLvn6KRKiLJI3psjfC0qd+lcVVPMOp+Qda/ODRfKWs6LJd&#xA;eZtNtP0tpmrgmNIaNWgZJFkryirQgjFVb8tPzM1jzB5v83+UtftLe11byzcqsL2vMRz2svL05OLs&#xA;5DUCsd/2hiqXfmD+ZuqeSfJfk6DQ7OHUPMPmCWy07TrS5LiM84lDOeBDGjMi/wCyxVk2o/mVp+mf&#xA;mJoPkG7t5pdX1y1kuo7yJVW2X0Y5XfkGcuK/V2oN+o3xVKfI35maxqv5l+bfImu2tvbXuhcLnTZr&#xA;bmBcWUhBDuHZ6MFlirTapPhiqD/MT8y77yF+WXl+90u0jv8AWtTNhp+m2k3Lg0ksQZi3Eq32UIG/&#xA;UjFV19qnkzQPzc8uwanovr+fvM9mY21qEs0EQhi/eKizSMYlPpkDgtaHc7nFUX5Z/MzWLr83/Mf5&#xA;e61aW8JsLdNQ0W7t+Y9a1YrUSh2b419ZR8NN1b2xVD/mT+ZMv5e/lxda5a26XmpS6rcWenWsvLhJ&#xA;NLezMQeBDGkaO1B4YqxzXdD/ACs8u2nlLyT5p8ow3N954vJZpxbF3jt9Rk9Bbl1nnma5jUtKoHpv&#xA;0HQYqnXk/wA2/wCG/wA0pvyjGlWum6FbacL3yvJbeqGkirykST1Hfk3L1CW7lST1xVMvP/5g/wCA&#xA;fyy1bzJHClxdwXt1FZW8leEk02oSIobiQaKCWO/QYqxPVNJ/LnQtA8uad5w8pxXOp/mLqsTalDCZ&#xA;ZUh1S/KepIJLmZ5owpcBvSYdDQYqm3lzzJB5J/Nay/KS00i10/yzeae995dmtjKZTIOTzJOZHfka&#xA;xSnl1+z44q9J8vf7wS/8xl9/1GS4qmeKuxVLNJ/3v1r/AJjE/wCoO3xVM8VdiqWaT/vfrX/MYn/U&#xA;Hb4qmeKuxVKf+mq/6Mf+Z2KvE/z0afy/5g/LDz/PbyT6DoM3pavJEpZoVuFi4yEAHait9IA6kYqx&#xA;S+/NHSZfz6tvzRto7iT8u7KJNAu9fEEvpGSWCWTkEK+rxWRgDRa7e4qqzH8kbo+cPzl8+fmRp0Mq&#xA;eWr2K303TrmZCn1hoUhRnQMK0AtgxruOQB3riqF/PKK/0zS/ys89JbS3Wk+VLmCbVo4gWKxTLbsJ&#xA;CB0p6BUMdgzDxxVi/mf81NJ1X87tC/M7SIbi78g+Vo4dK1TWhbzCNJNQjuVeTgVWXjGs4r8PUD+Z&#xA;aqsw/KbVY/O/5/8Amzz9osbnyrBpkekWt+0bxC5m5QOSA4BNPRbbqBwrSuKrPz/sNRi/L7yF5qtr&#xA;V7y18r3lhf6jDEKuIBGhL+AUMgUn/K8K4qxHz5+aela/+a/ln8wPLUNzqHlDyasCa/qyQSKsIv5H&#xA;RxwdQx4Rt2HX78VZX5B1i2/MT/nIy/8AO3l5JJfK+i6SNOGpvG8aT3DmoVA4VukjGhFaLU9RiqJ/&#xA;5yK0fV7v8srPV9Nt3vP8O+YptTu7ZATWCO5uVZyBv8BcV8FqcVYR+Z/5sab5z86+UPNflO1utU0D&#xA;yEY9W8w3CwSL6C3VxAJIiGC1dEh6iq9TuFOKss8t+ZLD8yv+clLHzN5WD3Plvyxo7211qpikiSWa&#xA;f1QsY9VUbrcfCpA+yx6Yqmf/ADkV5c1XXPyUv/0bC1xNpurz38sKKWcwx3lwkhVR14CTkfYHFXn/&#xA;AObP5sWPn7UfJuveSrS61GLyYy+YfMISJx9UCzwUiYuoDspjapWopuKgNRVk1p5p0v8ANP8A5yI8&#xA;r6v5R9W70HyrYzS6nqbxSRIJLhJAkYEiqa8mVd6V+KlQtcVe9eXv94Jf+Yy+/wCoyXFUzxV2KpZp&#xA;P+9+tf8AMYn/AFB2+KpnirsVSzSf979a/wCYxP8AqDt8VTPFXYqlP/TVf9GP/M7FUTpsccmj2kci&#xA;h43t4wyMAQQUGxBxV4/rF5+avln80daFr5ZuvMvkK/sootG0m0e2itYJRHEJeSvsnKRJK1H7Vd8V&#xA;ez2cccdpCkcC2yBBS3QAKm32QF229sVQPlpVbyzpSsAytZW4ZTuCDEuxxV5V5iuPzT8rfmnd3Gl+&#xA;XrnzH5Bv9OWGz0aye3igguyYw7Mr047xtUkUo/scVev6Yipp1sq2q2I9NSbNAoERIqYxxovwk02x&#xA;VC+WgG8s6UCKg2VuCD0I9JcVeX+cpvzO8s/mhZXvl7QrnW/Ik2ntFPountBDEL12fk7o1KdVJJ2P&#xA;0Yq9U8vg/oSxkbTl0iWaCOWbTF4f6PJIgZ4iYwEYoxKkjY4qs8vf7wS/8xl9/wBRkuKoy3sbK2je&#xA;K2t44Y3JZ0jRUVmb7RIAFSe+Kt21pa2sXo2sMcEVSfTiUItT1NFAGKoLy9/vBL/zGX3/AFGS4q81&#xA;/M0fmP5f87eW9Z8naVcaj5ZT1/8AEGj6aYYmmlYUR5FanL7Va/5O/bFXonlKWafQre6uNFHl+6uO&#xA;clxpVYmaJuZHxNCAjFgA23jiqt5e/wB4Jf8AmMvv+oyXFUzxV2KpZpP+9+tf8xif9QdviqZ4q7FU&#xA;s0n/AHv1r/mMT/qDt8VTPFXYqlP/AE1X/Rj/AMzsVUNK0q/Ol2ZGs3gBgj2CWe3wDxt8VRX6Jv8A&#xA;/q9Xn/AWf/ZPirv0Tf8A/V6vP+As/wDsnxVLfLWlXx8uaURrF4oNnbkKEs6D90uwrbk4qmX6Jv8A&#xA;/q9Xn/AWf/ZPirv0Tf8A/V6vP+As/wDsnxVLfLWlXx8uaURrN4oNnbkKEs6D90u29uTiqZfom/8A&#xA;+r1ef8BZ/wDZPirv0Tf/APV6vP8AgLP/ALJ8VS3QNKvjYy01m8X/AEy9FAln2vJd97fviqZfom//&#xA;AOr1ef8AAWf/AGT4q79E3/8A1erz/gLP/snxVLdA0q+NjKRrF4v+mXooEs+15KK72564qmX6Jv8A&#xA;/q9Xn/AWf/ZPirv0Tf8A/V6vP+As/wDsnxVLdA0q+NjLTWbxf9MvRQJZ9ryXfe374qmX6Jv/APq9&#xA;Xn/AWf8A2T4q79E3/wD1erz/AICz/wCyfFUt0rSr432sAaxeCl4gJCWe/wDoduamtviqZfom/wD+&#xA;r1ef8BZ/9k+Ku/RN/wD9Xq8/4Cz/AOyfFUt0rSr432sAaxeCl4gJCWe/+h25qa2+Kpl+ib//AKvV&#xA;5/wFn/2T4q79E3//AFerz/gLP/snxVLv0def4h9L9KXXqfVOX1jjbc6erThT0eHHv9mvviqa2Fxb&#xA;waRZPPKkSGGIBnYKK8BtU4q801WT88ND/NOxubSdvM/5c6ix+s2oisYZrASGn94qwySLFUMpqeS1&#xA;U/FRiq9Vgube4UtBKkqg0LIwYA+G2Kpd5engg8r6S80ixJ9TtxychRUxL3OKpojo6K6MGRgCrA1B&#xA;B6EHFVkN1bT8vQlSXhs3Bg1D70xVLvL00MPlfSpJpFjjFnb1dyFG8S9zirzvzbP+duufmTYaX5Um&#xA;Pl7yPbxh9R18x2VybkmjsIUnWZhQURPhG/JjUUxV6pb3NvKCkU6ztHQSFWViD/lcelaYqgNDlii0&#xA;yaSV1jjW8vuTsQAP9Ml6k4q8RsvOf/OUStqXmGPy9aanoj3c8FpoLcIbyKAUMU8TqaSL8YU1LklW&#xA;+EdcVeo/lRqfnK/8nWs3nUwx+ZpGla7s4QimFPUKxq6IWAbiAT86HfFU90KSOPTZ3kYIi3l8WZiA&#xA;APrkvUnFXjP+Lv8AnJtdb1rXbDQrLU/K9tfy29loTlIrmW0RiEnt5lpzqBuSzb1ongq9C/J/VvPe&#xA;peUlm89rDB5jeaUtZRBEeKBSFQSIjNRiQT8iMVZN5e/3gl/5jL7/AKjJcVTPFXYqlmk/7361/wAx&#xA;if8AUHb4qmeKuxVLNJ/3v1r/AJjE/wCoO3xVM8VdiqU/9NV/0Y/8zsVfPf8AzkOr695x/KnyVcGm&#xA;lahPDJeJUjmJZIoT9Kx8wv8ArYqyi/8ANmsQf85U6N5WttSmh0E6SxfSFcpbGVYJ5FpFspIVVO3h&#xA;7YqkH5DIvlv/AJyA/MbyZZfDpLq+oQQLThH6c6cEUDYcUveP+x36Yql//OSVzJqWm/lX5NMjR2es&#xA;ywPdlfELBbxkfIXEmKsm83eYtb0n/nJjyN5T0rUJrPy2+lRiXR4ZCtseH1xV5RA8dliT7hiqVflZ&#xA;D/hn/nKfz35Zsfg0q/tvrzW67Isr+hdIQP8AI+tyKB74qhv+coL29m/Lz8v/AC3BJ6UOtTweu/Te&#xA;GCNEB/yeU/L6Biqf+fddv/LH50/lj5Q0TUJtO0AwJBPpkUjJA8SsYYVddlb7HEYqlHlVF8r/APOX&#xA;+vaRYfBp/mOza4mt1pxEzwpdM5A7+qklPZ/pxVb/AM5Xa7cWX5UWmlQsVXVdduxcU6NFb3NxJxP/&#xA;AD04N9GKov8AM6+1fyP54/J3yh5d1Kew0c3NtZXtpbyGNLiJbq2iPrIp+LmGatetTiqHih/w1/zm&#xA;Wltp37q181afJNfQrspb6tJKzEeLTWYf6TiqO/5yh1q7078kpba3bimra9LZXBGx9MXN1c0+lrdc&#xA;VQH5kahqH5f6X+TflzQNSl0u0muIodQS3kaNLhFa1M7S0oCGeZmNf5jirvNCL5W/5zA8v3dh8Efm&#xA;ixVdSiSg5tIs0G4HblbRP7kYq9+8vf7wS/8AMZff9RkuKpnirsVSzSf979a/5jE/6g7fFUzxV2Kp&#xA;ZpP+9+tf8xif9QdviqZ4q7FUp/6ar/ox/wCZ2KvNvzc/Jq98/aN5b1TQtRXSfNOgLHLp13Jy9NgQ&#xA;jhWZAzIUeNWRgppvtvsq8q0v8u/MGvefNSuofzAt7j889HmW7lVba4SwhtbdFt2iMjW0cbcvWQHi&#xA;hFNuJqxxV6z+Sf5Mav5M1PWvNHmrVI9Y8368x+t3MHL0o0Z/UcKWWMsZHoT8CgcQAMVU/wAzPyef&#xA;8xvIflk6ffjTfMGiQw3GlXj8vTBkij5o5T4lqY0YMASCvTFXlq/lr5i1/wA/3seq/mBby/nfoxtb&#xA;uyigtZxZQW1vGrqHkNvFC3MTxsQqHvUNyair1D8m/wAlfMHlfzPrHnXzlq0Os+bdYUxSSW4b0Y0d&#xA;ldyGZIqlvTUABFCqKDriqI/Mr8oo/wAyvy00Kxhuxp+r6dDb3Om3jAsgYwqrxvx+Li4puNwQD7FV&#xA;5Dcflvr+v+em0zzV+YUMv5x6dFbP5citre5NvBHaKboGWf6tDGSynlsKg7nkTTFXqX5T/kp5p0Xz&#xA;vqXn/wA+6xBrPmu9jMEP1QN6ESsFUvVkh39NAiqEAUV69lU1/Mf8q7X8yfy/n0Rrn6nfW+pXl3p1&#xA;2RyVJkup0pIo3KMrkGnTY9qYq88uP+ca/wAzfMqfpLzp5whm8xaTbQ23leazVjFCYJRIsk7GOBmY&#xA;0pXiWqeRJ4gYqyf8svyQ85WH5hz/AJh/mHrlvrPmMRNDZLZqRFGGT0udTHAFpESgVY6bk1xVkvn3&#xA;8tbP8xfy7vfL08/1Sf8ASF3c2F3x5iK4ivJwrFaiqlWZT7HFXhWsflXq175h0zyZ+ZX5gQnzVDpy&#xA;Q+RbKygupQlZSIpZ5xbwoK/VmQ8mL9Dy+EVVelfl/wDkd56X8x4vP35la9ba1q2nw+hpcVmG4CiF&#xA;Fd+UcCrxV2IVU3Y8ia9VXr/l7/eCX/mMvv8AqMlxVM8VdiqWaT/vfrX/ADGJ/wBQdviqZ4q7FUs0&#xA;n/e/Wv8AmMT/AKg7fFUzxV2KpT/01X/Rj/zOxVQ0rzBYDS7MGK82gjG1jeH9geEWKvM/Nf5KeQfM&#xA;Hm+781Rah5k0TUtQQJqH6KiubdZgFVTXlauw5cF5CtDStK74q9Qs9X020s4LVEv3S3jSJXeyvGch&#xA;FCgsfR3O2+KoPy1r9ivlzSlMV5UWduDSyvCNol7iKmKvP/O35NeQ/NXm+Tzab/zFo2s3EaRXc2lw&#xA;3MHqKkfpA1a1kYMUVVNDSg6d8Vek6ZqWl6dptpp8S6hLFZwx26STWd48jLEgQM7eiKsQNziqG8ta&#xA;/Yr5c0pTFeVFnbg0srwjaJe4ixVgvn38o/IvnDzVD5qe88waLrccQgku9JhuoGkRQVFS1tIQ3E8a&#xA;qRtsQcVZ55fuNJ0TRLHSLc6lcQWEKW8c9zaXkkzrGOIaR/RXkx7mmKrdA1+xWxlBivP97L07WV4e&#xA;t5Ke0WKpl/iGw/31ef8ASDef9UsVd/iGw/31ef8ASDef9UsVS3QNfsVsZQYrz/ey9O1leHreSntF&#xA;irDvzK/LHyP5+1bTtavZ9b0vWdMT0rbUNNt7qGX0+ZcKS9vJ9ksxUrQivfpirK/KEOj+V/LtpoVt&#xA;Nq9/DaepS7v7a8nuZDLK0rGSQQJyPJzTbpiqtoGv2K2MoMV5/vZenayvD1vJT2ixVMv8Q2H++rz/&#xA;AKQbz/qlirv8Q2H++rz/AKQbz/qliqW6Vr9iL7WT6V58V4hFLK8P/Hnbjf8AdbYqmX+IbD/fV5/0&#xA;g3n/AFSxV3+IbD/fV5/0g3n/AFSxVLdK1+xF9rB9K8+K8QilleH/AI87cb0i26YqmX+IbD/fV5/0&#xA;g3n/AFSxV3+IbD/fV5/0g3n/AFSxVLv01Z/4i+senden9U9On1S5519Wv936fPj/AJVKYqnOk/8A&#xA;HKsv+MEX/EBirHNH/Nn8vNY8yP5Z0/WI5NfjaRH0545oZQ8NTItJUT4loajrirLsVSzyx/yjWk/8&#xA;wdv/AMmlxVM8VdiqWeWP+Ua0n/mDt/8Ak0uKpR5w/NLyB5Oure08y6zFp11doZbeF1kd2QHjypGr&#xA;0FdhXrirJreeO4t4riKvpTIsiclZG4sKiqsAynfoRXFUB5e/3gl/5jL7/qMlxVLbL8yvIF7qt5pN&#xA;r5gsZdSsPU+t2gnT1E9GvqbE/FwoeXGtO+KpnoPmPQfMFh+kNDv4NSsS7Ri5tnEkfNftLyXaorir&#xA;Xl7/AHgl/wCYy+/6jJcVQNt+YXka68wT+XYNdsn1y2YxzaeJ0EwdftIFJ+Jl/aUbjviqN8veaPLv&#xA;mSye+0DUrfVLOOQwSXFrIsqLKqqxQstdwrqae+Kt+Xv94Jf+Yy+/6jJcVTPFXYqlmk/7361/zGJ/&#xA;1B2+KpnirsVSzSf979a/5jE/6g7fFUzxV2KpT/01X/Rj/wAzsVeffmj+d+m/llpHl2OXTZNWvdWi&#xA;pDaxSCIqkSICxJWTq0gAFN9/DFUh826B+VXmH84tDS5ub/QvzTSGO8jg00hElkigNwq3E7280T8E&#xA;hZOVByXY1FAFWS/lH+eVj+YWr61oz6TLouq6LQy2ssyzFxzaOShVUp6bqAdu4xVD/mD+c+mflf5H&#xA;8sXd1YvqVzqcMUUFokohPCK3VpJORV/slkFKftYqn8f5v+VYNf0Tyvq5k07zVrdtb3MWlenJKIzc&#xA;KSI2nVAlVKMD06Yqk35Zfnna+dPOOueUbrR5NG1rRBJ6sTzrOshgm9CcAhI6cHK/Ovtirfn383dN&#xA;/LL8u/L2qXdm+ozXsdtbW9nHIImNLfm8hYq+y8QOnUjFWINY/lNdfml5W82ecJdRXzv5mt7S70fy&#xA;/dEXFnbGWiW6gxQR0MbCtHegapO++Ksu8ifnna+ZvzG1nyHe6PJpGraT69HedZkmNvKI3CUSMiqs&#xA;HXxXFUT58/NLTfy28jPr15atfPLqt1a21mjiNpHe7nY/EQ1AqIx6e2KvCrX8sPyIj8t+XYPNVxq2&#xA;meZ/ObJf6VPzM1wiXLqkUbNFCLfi5KueUfIcuuKvSPyY87eW/LHm6f8AJO30m5sbjSmumh1G5uEn&#xA;a8kB9YuVSOLj6kLc18FFOu+Ks086fmRp35eeQLzzHe27XnDUrm3t7NHEbSyy303whyGAogZunbFX&#xA;g8XkH8i5vK2l655yfVdK1j8wLqe80eT1DcXENJgKBoofR4Seuj/vEJoeuKs+/KTzZ5X8g+e5fySt&#xA;tKubWZZ5549YubhJTdzPCs6OyLHEE526AADpQLud8Ve0+Xv94Jf+Yy+/6jJcVTPFXYqlmk/7361/&#xA;zGJ/1B2+KpnirsVSzSf979a/5jE/6g7fFUzxV2KpT/01X/Rj/wAzsVfL3/OTzSaZ58/LnX76N30W&#xA;3trYyEDkpNtcLLMoU7VMbr88VSzUvza8pTf85QWHn2Gd5PKNlwsX1QQyqgM1jLDzKlefwvIxpxqQ&#xA;poMVTn/nHG6XX/8AnIjzr5m0aNhoNxHfyeuVKgrd3kckIII2aTgX4nwOKob/AJyot7m3g/LXWLmF&#xA;rjRoLRY5UAoPUAgkdC3YyRrt/qnFUr87/mp5Q1T/AJyK8v8Aniwnln8raV9Rt73UhDIERn9VzVSo&#xA;b4Q52pU8WpXFU7/JTULfzN/zlH5l8x6EHl0R47yY3PEorRyMkaMQQv8AeP8AEAd+/Y4q3/zl3Y3z&#xA;+R/y7vkRjYW8MsNw4rxEs1vbtED2qVhkpiqRfmd+bnlHW/zq8mebdGMk/lvy9Hp/6RuFhkT0Sbl5&#xA;ZE4lf91xsKADdgQMVTf8v9Xs/OH/ADmBdeZPLPKbQlWaWa4CsitEmnfVDIQwBAe4IIrTriqa/wDO&#xA;XNhqMvkHRL2FWawtda1NLsgVCvNPL6TMew+Bh8zirBPzV/M3yn5g81/l9q+giabTPK9nYzasEif/&#xA;AEbhcx8oTyAqU4qvL7JJABxVkeh6/pvnX/nMG013ys7XmlxrzlvVR41McOnGGSQhgrBeZEfxDfbx&#xA;xVlH/OWFjfT/AJSWVxAjPa2fmG5ku+NaIHmu40dh4cn418W98VeWfmr+ZnlzX9J/LGPQhJdL5P0+&#xA;KTV4kidPQcG1iMRJAXZranIfD8Q33xVkuoeZ9J8//wDOVnlnVfJztd2cBtDPdCN4wy26tLO5DqrA&#xA;LGeG46j5Yq+rvL3+8Ev/ADGX3/UZLiqZ4q7FUs0n/e/Wv+YxP+oO3xVM8VdiqWaT/vfrX/MYn/UH&#xA;b4qmeKuxVKf+mq/6Mf8AmdiqHuvLPl/zH5ZtNN17TrfUrFoYm9C5jWRQwQAMtfssK7MN8VfM2p+c&#xA;7TyR531/yN5q8kxz/l0s00unabYabGXlkJU21x6rsnP93VS4bkOnamKvpXyJoflfSvLlm/l3R4tF&#xA;sr+KO7a0jiWKQNKgb99TcuoPE1JxVq18v6Jr/kjTtM1qxh1HT5rO2MltcIJEJWJSDQ9CD0I3GKvn&#xA;DzB5ot/y7/MPWPJmveS4JvyzuWM0VlY6dG8lxyiDQS+rIUEhjc8SedV3p0pir6K/LnQ/KWn+VrG8&#xA;8s6JHoVpq9vBfPaLEscwM8YkVZyKkugfjuTToMVRFhouka15K0/TdXs4b+wnsrcTWtwiyRtSJSKq&#xA;wIqDuD2xV85+cPMNv+Wf5n3/AJWufJsDflVqKRyXNpZ6dHNNeKbQUpNIyh/SvKmhf4abYq95/KrS&#xA;PJcHlW01fyv5fTy/Bq8a3EluYljuKVIVZiOTGnYctsVTax0vTdV0G80/U7WK9sLm6vkuLWdFkjdf&#xA;rspoyMCDviqE0j8rvy70jT73TtO8u2MFlqShL+D0VdZkG4WTnyLKDuAemKonyt5B8meVFmHlzRrX&#xA;TDcU9d4IwHcDoGc1YgdhWmKqum2FjqGiXdlf28d3Z3F1fpPbToskbqbyWqsjAqR88VfPH5magPym&#xA;/MOztNF8oWqeQdZt4V1z6tp6XElzGZXFzbCSQ8fsAH02YDvir138mdP/AC7ufLq+ZvKXldfLq6i0&#xA;kZWaBIropHIV+IgyEI3HkFDUxVmPl7/eCX/mMvv+oyXFUzxV2KpZpP8AvfrX/MYn/UHb4qmeKuxV&#xA;LNJ/3v1r/mMT/qDt8VTPFXYqlP8A01X/AEY/8zsVUNKg8x/ouzpfWYHoR0Bs5T+wP+XnFUV9X8y/&#xA;8t9n/wBIcv8A2VYq76v5l/5b7P8A6Q5f+yrFUt8tQeY/8OaVxvrML9Tt+INpKSB6S9T9ZGKpl9X8&#xA;y/8ALfZ/9Icv/ZVirvq/mX/lvs/+kOX/ALKsVS3y1B5j/wAOaVxvrML9Tt6A2kpNPSXv9ZGKpl9X&#xA;8y/8t9n/ANIcv/ZVirvq/mX/AJb7P/pDl/7KsVS3QIPMf1GXjfWYH1y962kp3+uS1/4+R3xVMvq/&#xA;mX/lvs/+kOX/ALKsVd9X8y/8t9n/ANIcv/ZViqW6BB5j+oy8b6zA+uXvW0lO/wBclr/x8jviqZfV&#xA;/Mv/AC32f/SHL/2VYq76v5l/5b7P/pDl/wCyrFUt0CDzH9Rl431mB9cvetpKd/rktf8Aj5HfFUy+&#xA;r+Zf+W+z/wCkOX/sqxV31fzL/wAt9n/0hy/9lWKpbpUHmP69rFL6zB+uJyraSmp+p2/T/SfDFUy+&#xA;r+Zf+W+z/wCkOX/sqxV31fzL/wAt9n/0hy/9lWKpbpUHmP69rFL6zB+uJyraSmp+p2/T/SfDFUy+&#xA;r+Zf+W+z/wCkOX/sqxV31fzL/wAt9n/0hy/9lWKpd6Ouf4h4/W7X6z9Ur6n1aThw9X7PD168q9+X&#xA;0YqnOk/8cqy/4wRf8QGKvCtU/Nr84vJ35qWmg+a9Nt77yjdTALq+n2c9fq0pKpKWV5ArRNQypTpW&#xA;nVTir6AxVLPLH/KNaT/zB2//ACaXFUzxV2KpZ5Y/5RrSf+YO3/5NLirxnz/+bf5ry/mpF5K/LzSI&#xA;preMJDd6lf20pg9eheVxKGjURxJQHuWBArtVV7lYx3cdnBHeTLcXaxqLidE9JHkA+JlTk/EE9ByN&#xA;PHFUFoLommzu7BUW8vyzE0AAvJqknFXzHpv/ADlr+Zs0Oqa8fKMN75UilkghuYEnU2snHlELiYNK&#xA;jUUgsOK17EYq9w/I7zv5r87eQ4fMPmWygsbu5uJVtY7aOWKN7dKKsgWZ5W3blvypirLfL3+8Ev8A&#xA;zGX3/UZLir5pi/5yw/MVtX1vULbypFqXlDTbhrcyW6ziaAEsIXnmBkT4uFTWMDsCMVev/kH+YHnH&#xA;z55Ll8w+ZrG2sGku3i09bSOaJJbdET97SaSYmshZag/s4qzfy9/vBL/zGX3/AFGS4qmeKuxVLNJ/&#xA;3v1r/mMT/qDt8VTPFXYqlmk/7361/wAxif8AUHb4qmeKuxVKf+mq/wCjH/mdir5m/wCcoPP/AJx0&#xA;7XfJ/lny3q17pTyadHcy/UJ5rdpnupPQjVzCVLBfQNB74qyu5/Mnzlp359aZ+VIvvW8utbQWs1zI&#xA;GN89dPLtKbrkZPUZxy5VrXvirGP+cZ/PXnJfzb8weTvMWu32swJDcxQm+uJbnjcWM4TlH6rPwDIX&#xA;5U67eGKrP+cnPzF8zaDo/kfRfL+q3ekySacLy8lsp5LeRwUjjiUtEytxHF9j/DFU+1P80PP3lX84&#xA;PKf5Zi+F3pcsWmW2o3F0DPdyvOoW4kNwzF+TNU1rtiqR/kZ5y86ad/zkDrfkjWtc1HWdPVtQsrdL&#xA;+6muQjWcheKZfVZ6Exxkbfzb4qjP+cnfP/mTy75M8i6XoGp3WlzX1ubm6uLKaS3lKwQRIic4irFW&#xA;MzEivYYqitT/ADP/ADB8l+efyx8iJf8A1y11ix0dtbuL8NcXUs99evFcn1pWLjYUWv2cVSb8svOf&#xA;nDQ/+cm7/wAm6nr+o6po01xf2Vvb313PdIiKrXFuwErvRwI1TkPE4qnv/OT3n3XvLXkjR7DQ9QuN&#xA;LvdU1jU5HurOZ4JvRtbiQMgeNlbizTqT8sVSbWvza/MfyJF+W2gW2pG+/TmmWd9qt1qPK8uHlvrh&#xA;mcetKzNRFbgu+wGKrdC84ec/LX/OV1x5WvNc1HUNCuryWBNPu7uaeGOK9g+s24RJGdV9IugBpXiK&#xA;d8VZT/zkt531zyz+WVpDod9Pp1/qeuXkbXdrI8Mqww3FxI4WSMqy8n4VoelRirEdX/Nj8yfIHkX8&#xA;to7bVHv7vzLbS32p3eqc7yZhNLG8QV5mZlVYpQB274qvv/OfnDyn/wA5XxaHJr+o3fl+/wBRhiTT&#xA;Li7nmtgmqRLxRYndlURSzfBQbUHbFX055e/3gl/5jL7/AKjJcVTPFXYqlmk/7361/wAxif8AUHb4&#xA;qmeKuxVLNJ/3v1r/AJjE/wCoO3xVM8VdiqU/9NV/0Y/8zsVeE/8AOQn5G+avOq+XvNHlJUuNXsLG&#xA;KznsnlSFmjRjLC8TyFY6q0j8uTDtTFXmll5E/NzWfNEnnW28y6Pd/mpaXa08vwX+nSXnp20XoSMy&#xA;RSNbrxChGjPataHYqvTP+cdPyM87+W/N2pedvPASDVLmOaOC0Ekc0rS3MgeaeRoS0QrSihWPU1pQ&#xA;VVb/AD2/JDX/AD/5U8raz5ZWObWdMsIreaykdIjPA8auvCRyqBkauzEAhuopuq8wH5e/m75i8yy+&#xA;ZLzzHpL/AJpaRcW4sPLwv9PkvnFip5kxwyNEjR8FJV/tfEWp+0q9H/IP8jvzD0z8w738wPP3G21J&#xA;/rDx2wlhllmuLuvqzObcvEqcWaig9T0AG6qZ/nn+TGt/mH5E8rXvl7hJrWj2igWkriMTwzwxllV2&#xA;+AOrRinIgUJqemKvIf8AlXP5reYNciv9W8y6RB+Ynl36pa6B5fbUNPbUH+on1EASCRkVo6c/j3Y1&#xA;5U64q9D/ACW/I38zF/NOX8xPzESO1vInnuEh9WCWSe5nRo+VLZniSNFckb9aClMVZR+eX5P6p+Y3&#xA;km2bRGj/AE5o2o6lLawSkIs0U13IJYg52ViY0YE7bUPiFXlDf849/wDOQPmi0i1DzFLFZal5Zsbe&#xA;z8t2ss1szypbOCiCS3Z0XipY85DyLUB23CrKPyq/I/8ANm+/NtfzC/MgJaXFrJ9ZYerbyS3Mwi9K&#xA;IKtqzxxxxila06AU3qFWdfnR+U+ofmN+XotNJkRNZ0zVL66s0lbhHKDdTpJEW3ClgQVJ7imwNcVe&#xA;A3H5VfmZrrWfl7zf5h0jRtZ8u2kVl5Y0O71GwF5M8kitDAiW8juC6tRGfcngBtuFWd+QfyM/OHXv&#xA;zbs/PP5lJHbHT54Lt3Mts8k8loqi3WOO0Z40VWjUsTT6ScVfS/l7/eCX/mMvv+oyXFUzxV2KpZpP&#xA;+9+tf8xif9QdviqZ4q7FUs0n/e/Wv+YxP+oO3xVM8VdiqU/9NV/0Y/8AM7FW9K1XSxpdmDeQAiCO&#xA;o9RP5B74q+ffMP8Azjffr5+1DzV5N8+RaG2pzz3EgUlJ4PrTFpUjkhkXmpLGg+GgoPfFXvflyW20&#xA;zy9pem32sx6je2NpBbXWoSSgvcSxRKjzPyd25SMpY1YnfrirXlrVdLHlzSgbyAEWduCDIn++l98V&#xA;eGec/wDnHa9vPzEvfOnlDzzFod3fzPcOKsssLzKVm9OaKQEh6nag60xV7h5U9LSPLWmaXqOuR6pf&#xA;2VtHDdajLKDJPIigNIxd3arHfdjiq/yzquljy5pQN5ACLO3BBkT/AH0vvirxL8xP+ce5dZ/MSfzx&#xA;5T85waHqF06zOpNHilEYjd4ZonB+MDcEdzvvTFXsXkW3bQPKmn6Rq/mJdb1K0RludUnlrJMzSM4L&#xA;GR5G2DBd27Yqi/L+q6WLCUG8gH+mXx3kTveSnxxVMv0tpX/LbB/yNT+uKu/S2lf8tsH/ACNT+uKp&#xA;b5f1XSxYSg3kAP1y+O8id7yU+OKvHvzh/IaDzl51t/OXl/zXb6NrESwcg9DSW2P7qeOWN1ZGUBex&#xA;6Vrir0n8tNMvfLPldNM8w+al8xan60s0mpTyksRIaiMepJI3Fe2/0YqnHl/VdLFhKDeQD/TL47yJ&#xA;3vJT44qmX6W0r/ltg/5Gp/XFXfpbSv8Altg/5Gp/XFUt0rVdLF/rJN5AAbxCP3ib/wCh248cVTL9&#xA;LaV/y2wf8jU/rirv0tpX/LbB/wAjU/riqW6Vquli/wBZJvIADeIR+8Tf/Q7ceOKpl+ltK/5bYP8A&#xA;kan9cVd+ltK/5bYP+Rqf1xVLP0jp/wDiX1vrMXpfU+Hqc148vVrxrWlaYq//2Q==</xapGImg:image>
    </rdf:li>
   </rdf:Alt>
  </xap:Thumbnails>
 </rdf:Description>

 <rdf:Description rdf:about='uuid:9fa7ed3a-491b-11df-96e1-001124740a56'
  xmlns:xapMM='http://ns.adobe.com/xap/1.0/mm/'>
  <xapMM:DocumentID>uuid:831aaf18-81ce-11da-9137-001124808cba</xapMM:DocumentID>
 </rdf:Description>

 <rdf:Description rdf:about='uuid:9fa7ed3a-491b-11df-96e1-001124740a56'
  xmlns:dc='http://purl.org/dc/elements/1.1/'>
  <dc:format>image/svg+xml</dc:format>
 </rdf:Description>

</rdf:RDF>
</x:xmpmeta>
                                                                                                                                                                                                                                                                                                                                                                                                                                                                                                                                                                                                                                                                                                                                                                                                                                                                                                                                                                                                                                                                                                                                                                                                                                                                                                                                                                                                                                                                                                                                                                                                                                                                                                                                                                                                                                                                                                                                                                                                                                                                                                                                <?xpacket end='w'?>
			</metadata>
		<g id="レイヤー1">
			<g>
				<rect x="0.125" y="0.125" fill="none" stroke="#000000" stroke-width="0.25" width="100" height="150"/> 
				<rect x="100.125" y="0.125" fill="none" stroke="#000000" stroke-width="0.25" width="100" height="150"/> 
				<rect x="200.125" y="0.125" fill="none" stroke="#000000" stroke-width="0.25" width="100" height="150"/> 
				<rect x="300.125" y="0.125" fill="none" stroke="#000000" stroke-width="0.25" width="100" height="150"/> 
				<rect x="400.125" y="0.125" fill="none" stroke="#000000" stroke-width="0.25" width="100" height="150"/> 
				<rect x="500.125" y="0.125" fill="none" stroke="#000000" stroke-width="0.25" width="100" height="150"/> 
				<rect x="600.125" y="0.125" fill="none" stroke="#000000" stroke-width="0.25" width="100" height="150"/> 
				<rect x="0.125" y="150.125" fill="none" stroke="#000000" stroke-width="0.25" width="100" height="150"/> 
				<rect x="100.125" y="150.125" fill="none" stroke="#000000" stroke-width="0.25" width="100" height="150"/> 
				<rect x="200.125" y="150.125" fill="none" stroke="#000000" stroke-width="0.25" width="100" height="150"/> 
				<rect x="300.125" y="150.125" fill="none" stroke="#000000" stroke-width="0.25" width="100" height="150"/> 
				<rect x="400.125" y="150.125" fill="none" stroke="#000000" stroke-width="0.25" width="100" height="150"/> 
				<rect x="500.125" y="150.125" fill="none" stroke="#000000" stroke-width="0.25" width="100" height="150"/> 
				<rect x="600.125" y="150.125" fill="none" stroke="#000000" stroke-width="0.25" width="100" height="150"/> 
				<rect x="0.125" y="300.125" fill="none" stroke="#000000" stroke-width="0.25" width="100" height="150"/> 
				<rect x="100.125" y="300.125" fill="none" stroke="#000000" stroke-width="0.25" width="100" height="150"/> 
				<rect x="200.125" y="300.125" fill="none" stroke="#000000" stroke-width="0.25" width="100" height="150"/> 
				<rect x="300.125" y="300.125" fill="none" stroke="#000000" stroke-width="0.25" width="100" height="150"/> 
				<rect x="400.125" y="300.125" fill="none" stroke="#000000" stroke-width="0.25" width="100" height="150"/> 
				<rect x="500.125" y="300.125" fill="none" stroke="#000000" stroke-width="0.25" width="100" height="150"/> 
				<rect x="600.125" y="300.125" fill="none" stroke="#000000" stroke-width="0.25" width="100" height="150"/> 
				<rect x="0.125" y="450.125" fill="none" stroke="#000000" stroke-width="0.25" width="100" height="150"/> 
				<rect x="100.125" y="450.125" fill="none" stroke="#000000" stroke-width="0.25" width="100" height="150"/> 
				<rect x="200.125" y="450.125" fill="none" stroke="#000000" stroke-width="0.25" width="100" height="150"/> 
				<rect x="300.125" y="450.125" fill="none" stroke="#000000" stroke-width="0.25" width="100" height="150"/> 
				<rect x="400.125" y="450.125" fill="none" stroke="#000000" stroke-width="0.25" width="100" height="150"/> 
				<rect x="500.125" y="450.125" fill="none" stroke="#000000" stroke-width="0.25" width="100" height="150"/> 
				<rect x="600.125" y="450.125" fill="none" stroke="#000000" stroke-width="0.25" width="100" height="150"/> 
				<rect x="0.125" y="600.125" fill="none" stroke="#000000" stroke-width="0.25" width="100" height="150"/> 
				<rect x="100.125" y="600.125" fill="none" stroke="#000000" stroke-width="0.25" width="100" height="150"/> 
				<rect x="200.125" y="600.125" fill="none" stroke="#000000" stroke-width="0.25" width="100" height="150"/> 
				<rect x="300.125" y="600.125" fill="none" stroke="#000000" stroke-width="0.25" width="100" height="150"/> 
				<rect x="400.125" y="600.125" fill="none" stroke="#000000" stroke-width="0.25" width="100" height="150"/> 
				<rect x="500.125" y="600.125" fill="none" stroke="#000000" stroke-width="0.25" width="100" height="150"/> 
				<rect x="600.125" y="600.125" fill="none" stroke="#000000" stroke-width="0.25" width="100" height="150"/> 
				<rect x="0.125" y="750.125" fill="none" stroke="#000000" stroke-width="0.25" width="100" height="150"/> 
				<rect x="100.125" y="750.125" fill="none" stroke="#000000" stroke-width="0.25" width="100" height="150"/> 
				<rect x="200.125" y="750.125" fill="none" stroke="#000000" stroke-width="0.25" width="100" height="150"/> 
				<rect x="300.125" y="750.125" fill="none" stroke="#000000" stroke-width="0.25" width="100" height="150"/> 
				<rect x="400.125" y="750.125" fill="none" stroke="#000000" stroke-width="0.25" width="100" height="150"/> 
				<rect x="500.125" y="750.125" fill="none" stroke="#000000" stroke-width="0.25" width="100" height="150"/> 
				<rect x="600.125" y="750.125" fill="none" stroke="#000000" stroke-width="0.25" width="100" height="150"/> 
				<rect x="0.125" y="900.125" fill="none" stroke="#000000" stroke-width="0.25" width="100" height="150"/> 
				<rect x="100.125" y="900.125" fill="none" stroke="#000000" stroke-width="0.25" width="100" height="150"/> 
				<rect x="200.125" y="900.125" fill="none" stroke="#000000" stroke-width="0.25" width="100" height="150"/> 
				<rect x="300.125" y="900.125" fill="none" stroke="#000000" stroke-width="0.25" width="100" height="150"/> 
				<rect x="400.125" y="900.125" fill="none" stroke="#000000" stroke-width="0.25" width="100" height="150"/> 
				<rect x="500.125" y="900.125" fill="none" stroke="#000000" stroke-width="0.25" width="100" height="150"/> 
				<rect x="600.125" y="900.125" fill="none" stroke="#000000" stroke-width="0.25" width="100" height="150"/> 
				<rect x="700.125" y="0.125" fill="none" stroke="#000000" stroke-width="0.25" width="100" height="150"/> 
				<rect x="700.125" y="150.125" fill="none" stroke="#000000" stroke-width="0.25" width="100" height="150"/> 
				<rect x="700.125" y="300.125" fill="none" stroke="#000000" stroke-width="0.25" width="100" height="150"/> 
				<rect x="700.125" y="450.125" fill="none" stroke="#000000" stroke-width="0.25" width="100" height="150"/> 
				<rect x="700.125" y="600.125" fill="none" stroke="#000000" stroke-width="0.25" width="100" height="150"/> 
				<rect x="700.125" y="750.125" fill="none" stroke="#000000" stroke-width="0.25" width="100" height="150"/> 
				<rect x="700.125" y="900.125" fill="none" stroke="#000000" stroke-width="0.25" width="100" height="150"/> 
			</g>
			<g>
				<polygon points="55.9492188,49.125 43.9394531,33.125 46.4394531,33.125 58.4472656,49.125 "/>
				<polygon points="54.8408203,199.125 41.8344727,182.7910156 48.1674805,182.7910156 59.8393555,199.125 "/>
				<polygon points="53.7329102,349.125 39.7299805,332.4584961 49.8964844,332.4584961 61.2324219,349.125 "/>
				<polygon points="51.625,482.125 62.625,499.125 52.625,499.125 37.625,482.125 "/>
				<polygon points="51.4580078,649.125 36.125,631.7910156 52.7910156,631.7910156 63.4580078,649.125 "/>
				<polygon points="50.2919922,799.125 34.625,781.4580078 53.9584961,781.4580078 64.2915039,799.125 "/>
				<polygon points="49.125,949.125 33.125,931.125 55.125,931.125 65.125,949.125 "/>
			</g>
			<g>
				<polygon points="251.125,949.125 267.125,931.125 245.125,931.125 235.125,949.125 "/>
				<polygon points="246.2910156,781.4580078 235.9580078,799.125 249.9580078,799.125 265.625,781.4580078 "/>
				<polygon points="247.4584961,631.7919922 236.7915039,649.125 248.7915039,649.125 264.125,631.7919922 "/>
				<polygon points="248.625,482.125 237.625,499.125 247.625,499.125 262.625,482.125 "/>
				<polygon points="246.5166016,349.125 260.5200195,332.4580078 250.3530273,332.4580078 239.0170898,349.125 "/>
				<polygon points="245.4091797,199.125 258.4155273,182.7915039 252.0820312,182.7915039 240.4101562,199.125 "/>
				<polygon points="244.3007812,49.125 256.3105469,33.125 253.8105469,33.125 241.8027344,49.125 "/>
			</g>
			<g>
				<path d="M352.125,935.625c2.2802734,1.4160156,4.0195312,2,5,2c1.3574219,0,2-0.8857422,2-5.5h13c0,13.9189453-4.15625,19-11,19
					c-3.78125,0-7.7939453-1.265625-13-4.5c-2.2802734-1.4179688-4.0205078-2-5-2c-1.4023438,0-2,0.9394531-2,6.5h-13
					c0-14.6982422,4.015625-20,11-20C342.90625,931.125,346.9179688,932.3886719,352.125,935.625z"/>
				<path d="M351.875,786.625c2.8554688,1.7949219,4.5869141,2.4160156,5.6669922,2.4160156
					c1.5087891,0,2.2490234-1.0664062,2.2490234-5.9160156h11.5009766c0,12.7783203-3.953125,17.5-10.3339844,17.5
					c-3.5673828,0-7.3271484-1.2060547-12.5830078-4.5c-2.855957-1.796875-4.5883789-2.4169922-5.6669922-2.4169922
					c-1.5576172,0-2.25,1.1386719-2.25,6.9169922h-11.5c0-13.5517578,3.7919922-18.5,10.3334961-18.5
					C342.8779297,782.125,346.6425781,783.3457031,351.875,786.625z"/>
				<path d="M351.625,637.625c3.4306641,2.1738281,5.1552734,2.8330078,6.3330078,2.8330078
					c1.6621094,0,2.5-1.2470703,2.5-6.3330078h10c0,11.6386719-3.7480469,16-9.6660156,16
					c-3.3544922,0-6.8603516-1.1455078-12.1669922-4.5c-3.4306641-2.1748047-5.1552734-2.8330078-6.3334961-2.8330078
					c-1.7128906,0-2.5,1.3378906-2.5,7.3330078h-10c0-12.4042969,3.5688477-17,9.6669922-17
					C342.8510742,633.125,346.3681641,634.3027344,351.625,637.625z"/>
				<path d="M351.375,488.625c4.0058594,2.5527344,5.7226562,3.25,7,3.25c1.8144531,0,2.75-1.4277344,2.75-6.75h8.5
					c0,10.4980469-3.5439453,14.5-9,14.5c-3.140625,0-6.3935547-1.0849609-11.75-4.5c-4.0058594-2.5527344-5.7226562-3.25-7-3.25
					c-1.8681641,0-2.75,1.5371094-2.75,7.75h-8.5c0-11.2578125,3.3447266-15.5,9-15.5
					C342.8232422,484.125,346.0927734,485.2597656,351.375,488.625z"/>
				<path d="M339.7910156,335.125c2.9702148,0,6.222168,1.1669922,11.3339844,4.5449219
					c4.1679688,2.7685547,6.2802734,3.621582,7.8330078,3.621582c2.1230469,0,3.3330078-1.6782227,3.3330078-7.1669922H368.625
					c0,9.7539062-3.5410156,13-8.1669922,13c-3.0068359,0-6.3046875-1.2246094-11.3867188-4.5786133
					c-4.0117188-2.6582031-6.1748047-3.5878906-7.7802734-3.5878906c-1.6162109,0-3.3330078,1.0249023-3.3330078,8.1665039
					h-6.3334961C331.6245117,339.0229492,334.6855469,335.125,339.7910156,335.125z"/>
				<path d="M339.9584961,186.125c2.7412109,0,5.9755859,1.199707,10.9165039,4.5898438
					c4.3300781,2.9848633,6.8388672,3.9936523,8.6669922,3.9936523c2.4296875,0,3.9160156-1.9291992,3.9160156-7.5834961H367.625
					c0,9.0097656-3.5380859,11.5-7.3330078,11.5c-2.8730469,0-6.2158203-1.3647461-11.0244141-4.6577148
					c-4.0170898-2.7636719-6.6254883-3.9257812-8.559082-3.9257812c-1.3647461,0-3.9165039,0.5126953-3.9165039,8.5834961H332.625
					C332.625,189.6791992,335.4018555,186.125,339.9584961,186.125z"/>
				<path d="M333.625,48.125c0-7.7900391,2.4931641-11,6.5-11c2.5126953,0,5.7294922,1.2324219,10.5,4.6347656
					c4.4921875,3.2011719,7.3964844,4.3652344,9.5,4.3652344c2.7382812,0,4.5-2.1796875,4.5-8h2c0,8.265625-3.5351562,10-6.5,10
					c-2.7392578,0-6.1269531-1.5048828-10.6611328-4.7363281C345.4414062,40.5195312,342.3867188,39.125,340.125,39.125
					c-1.1132812,0-4.5,0-4.5,9H333.625z"/>
			</g>
			<g>
				<path d="M452.125,935.625c2.2802734,1.4160156,4.0195312,2,5,2c1.3574219,0,2-0.8857422,2-5.5h13c0,13.9189453-4.15625,19-11,19
					c-3.78125,0-7.7939453-1.265625-13-4.5c-2.2802734-1.4179688-4.0205078-2-5-2c-1.4023438,0-2,0.9394531-2,6.5h-13
					c0-14.6982422,4.015625-20,11-20C442.90625,931.125,446.9179688,932.3886719,452.125,935.625z"/>
				<path d="M451.875,786.625c2.8554688,1.7949219,4.5869141,2.4160156,5.6660156,2.4160156
					c1.5097656,0,2.2509766-1.0664062,2.2509766-5.9160156h11.4990234c0,12.7783203-3.9521484,17.5-10.3330078,17.5
					c-3.5673828,0-7.3271484-1.2060547-12.5830078-4.5c-2.8554688-1.796875-4.5878906-2.4169922-5.6669922-2.4169922
					c-1.5576172,0-2.25,1.1386719-2.25,6.9169922h-11.5c0-13.5517578,3.7919922-18.5,10.3330078-18.5
					C442.8789062,782.125,446.6425781,783.3457031,451.875,786.625z"/>
				<path d="M451.625,637.625c3.4306641,2.1738281,5.1552734,2.8330078,6.3330078,2.8330078
					c1.6621094,0,2.5-1.2470703,2.5-6.3330078h10c0,11.6386719-3.7480469,16-9.6660156,16
					c-3.3544922,0-6.8603516-1.1455078-12.1669922-4.5c-3.4306641-2.1748047-5.1552734-2.8330078-6.3330078-2.8330078
					c-1.7128906,0-2.5,1.3378906-2.5,7.3330078h-10c0-12.4042969,3.5683594-17,9.6660156-17
					C442.8505859,633.125,446.3681641,634.3027344,451.625,637.625z"/>
				<path d="M451.375,488.625c4.0058594,2.5527344,5.7226562,3.25,7,3.25c1.8144531,0,2.75-1.4277344,2.75-6.75h8.5
					c0,10.4980469-3.5439453,14.5-9,14.5c-3.140625,0-6.3935547-1.0849609-11.75-4.5c-4.0058594-2.5527344-5.7226562-3.25-7-3.25
					c-1.8681641,0-2.75,1.5371094-2.75,7.75h-8.5c0-11.2578125,3.3447266-15.5,9-15.5
					C442.8232422,484.125,446.0927734,485.2597656,451.375,488.625z"/>
				<path d="M439.7919922,335.125c2.96875,0,6.2207031,1.1669922,11.3330078,4.5449219
					c4.1679688,2.7685547,6.2802734,3.621582,7.8330078,3.621582c2.1220703,0,3.3330078-1.6782227,3.3330078-7.1669922H468.625
					c0,9.7539062-3.5410156,13-8.1669922,13c-3.0068359,0-6.3046875-1.2246094-11.3867188-4.5786133
					c-4.0117188-2.6582031-6.1738281-3.5878906-7.7792969-3.5878906c-1.6171875,0-3.3339844,1.0249023-3.3339844,8.1665039H431.625
					C431.625,339.0229492,434.6855469,335.125,439.7919922,335.125z"/>
				<path d="M439.9580078,186.125c2.7412109,0,5.9755859,1.199707,10.9169922,4.5898438
					c4.3300781,2.9848633,6.8388672,3.9936523,8.6669922,3.9936523c2.4296875,0,3.9160156-1.9291992,3.9160156-7.5834961H467.625
					c0,9.0097656-3.5380859,11.5-7.3330078,11.5c-2.8730469,0-6.2158203-1.3647461-11.0244141-4.6577148
					c-4.0166016-2.7636719-6.6259766-3.9257812-8.5595703-3.9257812c-1.3642578,0-3.9160156,0.5126953-3.9160156,8.5834961H432.625
					C432.625,189.6791992,435.4023438,186.125,439.9580078,186.125z"/>
				<path d="M433.625,48.125c0-7.7900391,2.4931641-11,6.5-11c2.5126953,0,5.7294922,1.2324219,10.5,4.6347656
					c4.4921875,3.2011719,7.3964844,4.3652344,9.5,4.3652344c2.7382812,0,4.5-2.1796875,4.5-8h2c0,8.265625-3.5351562,10-6.5,10
					c-2.7392578,0-6.1269531-1.5048828-10.6611328-4.7363281C445.4414062,40.5195312,442.3867188,39.125,440.125,39.125
					c-1.1132812,0-4.5,0-4.5,9H433.625z"/>
			</g>
			<g>
				<path d="M66.125,1009.125c-7.3261719,0-13.8574219-4.8544922-15.9003906-12h-0.1992188
					c-2.0429688,7.1455078-8.5742188,12-15.9003906,12c-12.4140625,0-21.5-8.8808594-21.5-24.5
					c0-9.2744141,2.6191406-20.6630859,6.5-28.5h18c-3.9414062,7.9814453-6.5,18.9248047-6.5,27c0,8.3847656,2.5898438,11.5,6,11.5
					c3.0449219,0,5.5-3.1230469,5.5-9.5v-23h16v23c0,6.3769531,2.4550781,9.5,5.5,9.5c3.4101562,0,6-3.1152344,6-11.5
					c0-8.0751953-2.5585938-19.0185547-6.5-27h18c3.8808594,7.8369141,6.5,19.2255859,6.5,28.5
					C87.625,1000.2441406,78.5390625,1009.125,66.125,1009.125z"/>
				<path d="M65.9580078,859.125c-7.4360352,0-13.6977539-4.796875-15.7338867-12.6669922h-0.1992188
					C47.9892578,854.328125,41.7275391,859.125,34.2915039,859.125c-11.7480469,0-20.6669922-8.9375-20.6669922-24.75
					c0-9.5751953,2.6494141-20.5136719,6.75-28.25h15.5c-4.2421875,7.8095703-6.9165039,18.4326172-6.9165039,27
					c0,9.5380859,3.3461914,13.5830078,7.4165039,13.5830078c3.7495117,0,6.7504883-4.3183594,6.7504883-14.3330078v-20.25
					h13.9995117v20.25c0,10.0146484,3.0009766,14.3330078,6.75,14.3330078c4.0703125,0,7.4165039-4.0449219,7.4165039-13.5830078
					c0-8.5673828-2.6738281-19.1904297-6.9160156-27h15.5c4.1000977,7.7363281,6.7495117,18.6748047,6.7495117,28.25
					C86.6245117,850.1875,77.7060547,859.125,65.9580078,859.125z"/>
				<path d="M65.7919922,709.125c-7.5463867,0-13.5385742-4.7402344-15.5673828-13.3330078h-0.1992188
					C47.996582,704.3847656,42.0048828,709.125,34.4584961,709.125c-11.0820312,0-19.8334961-8.9931641-19.8334961-25
					c0-9.875,2.6796875-20.3632812,7-28h13c-4.543457,7.6386719-7.3334961,17.9394531-7.3334961,27
					c0,10.6923828,4.1030273,15.6669922,8.8334961,15.6669922c4.4541016,0,8-5.5136719,8-19.1669922v-17.5h12v17.5
					c0,13.6533203,3.5463867,19.1669922,8,19.1669922c4.7304688,0,8.8334961-4.9746094,8.8334961-15.6669922
					c0-9.0605469-2.7900391-19.3613281-7.3334961-27h13c4.3203125,7.6367188,7,18.125,7,28
					C85.625,700.1318359,76.8735352,709.125,65.7919922,709.125z"/>
				<path d="M65.625,559.125c-7.65625,0-13.3789062-4.6826172-15.4003906-14h-0.1992188
					c-2.0214844,9.3173828-7.7441406,14-15.4003906,14c-10.4160156,0-19-9.0488281-19-25.25
					c0-10.1748047,2.7099609-20.2128906,7.25-27.75h10.5c-4.8447266,7.4667969-7.75,17.4472656-7.75,27
					c0,11.8457031,4.859375,17.75,10.25,17.75c5.1582031,0,9.25-6.7080078,9.25-24v-14.75h10v14.75
					c0,17.2919922,4.0917969,24,9.25,24c5.390625,0,10.25-5.9042969,10.25-17.75c0-9.5527344-2.9052734-19.5332031-7.75-27h10.5
					c4.5400391,7.5371094,7.25,17.5751953,7.25,27.75C84.625,550.0761719,76.0410156,559.125,65.625,559.125z"/>
				<path d="M68.2915039,356.1245117h7.8359375c4.7939453,7.4448242,7.4970703,17.1611328,7.4970703,27.5
					c0,16.3955078-8.4160156,25.5004883-18.1665039,25.5004883c-7.7661133,0-13.2197266-4.9589844-15.2338867-15.0004883h-0.1992188
					C48.0107422,404.1660156,42.5576172,409.125,34.7915039,409.125c-9.7509766,0-18.1669922-9.1049805-18.1669922-25.5004883
					c0-10.3388672,2.703125-20.0551758,7.4975586-27.5h7.8359375c-5.1010742,7.331543-8,16.9541016-8,27
					c0,13.1494141,5.6708984,19.8334961,11.6665039,19.8334961c6.1542969,0,10.8334961-6.9897461,10.8334961-25.5v-15.3334961
					h7.3334961v15.3334961c0,18.5102539,4.6791992,25.5,10.8330078,25.5c5.9956055,0,11.6669922-6.684082,11.6669922-19.8334961
					C76.2915039,373.0786133,73.3920898,363.4560547,68.2915039,356.1245117z"/>
				<path d="M69.7084961,206.125h5.171875c5.0483398,7.3525391,7.7446289,16.7470703,7.7446289,27.25
					c0,16.5893555-8.2480469,25.75-17.3334961,25.75c-7.8759766,0-13.0595703-5.2348633-15.0668945-16h-0.1992188
					c-2.0073242,10.7651367-7.190918,16-15.0668945,16c-9.0854492,0-17.3334961-9.1606445-17.3334961-25.75
					c0-10.5029297,2.6962891-19.8974609,7.7446289-27.25h5.171875c-5.3569336,7.1962891-8.2495117,16.4609375-8.2495117,27
					c0,14.453125,6.4829102,21.9169922,13.0830078,21.9169922c7.1503906,0,12.4169922-7.2719727,12.4169922-27V212.125h4.6665039
					v15.9169922c0,19.7280273,5.2661133,27,12.4165039,27c6.6000977,0,13.0834961-7.4638672,13.0834961-21.9169922
					C77.9584961,222.5859375,75.0654297,213.3212891,69.7084961,206.125z"/>
				<path d="M65.125,109.125c-7.9863281,0-12.9003906-5.5107422-14.9003906-17h-0.1992188c-2,11.4892578-6.9140625,17-14.9003906,17
					c-8.4199219,0-16.5-9.2167969-16.5-26c0-10.6669922,2.6894531-19.7402344,7.9921875-27H29.125
					c-5.6132812,7.0605469-8.5,15.9677734-8.5,27c0,15.7568359,7.2949219,24,14.5,24c8.1464844,0,14-7.5537109,14-28.5v-16.5h2v16.5
					c0,20.9462891,5.8535156,28.5,14,28.5c7.2050781,0,14.5-8.2431641,14.5-24c0-11.0322266-2.8867188-19.9394531-8.5-27h2.5078125
					c5.3027344,7.2597656,7.9921875,16.3330078,7.9921875,27C81.625,99.9082031,73.5449219,109.125,65.125,109.125z"/>
			</g>
			<g>
				<path d="M166.125,1009.125c-7.3261719,0-13.8574219-4.8544922-15.9003906-12h-0.1992188
					c-2.0429688,7.1455078-8.5742188,12-15.9003906,12c-12.4140625,0-21.5-8.8808594-21.5-24.5
					c0-9.2744141,2.6191406-20.6630859,6.5-28.5h18c-3.9414062,7.9814453-6.5,18.9248047-6.5,27c0,8.3847656,2.5898438,11.5,6,11.5
					c3.0449219,0,5.5-3.1230469,5.5-9.5v-23h16v23c0,6.3769531,2.4550781,9.5,5.5,9.5c3.4101562,0,6-3.1152344,6-11.5
					c0-8.0751953-2.5585938-19.0185547-6.5-27h18c3.8808594,7.8369141,6.5,19.2255859,6.5,28.5
					C187.625,1000.2441406,178.5390625,1009.125,166.125,1009.125z"/>
				<path d="M165.9580078,859.125c-7.4360352,0-13.6977539-4.796875-15.7338867-12.6669922h-0.1992188
					C147.9892578,854.328125,141.7275391,859.125,134.2915039,859.125c-11.7480469,0-20.6669922-8.9375-20.6669922-24.75
					c0-9.5751953,2.6494141-20.5136719,6.75-28.25h15.5c-4.2421875,7.8095703-6.9165039,18.4326172-6.9165039,27
					c0,9.5380859,3.3461914,13.5830078,7.4165039,13.5830078c3.7495117,0,6.7504883-4.3183594,6.7504883-14.3330078v-20.25
					h13.9995117v20.25c0,10.0146484,3.0009766,14.3330078,6.75,14.3330078c4.0703125,0,7.4165039-4.0449219,7.4165039-13.5830078
					c0-8.5673828-2.6738281-19.1904297-6.9160156-27h15.5c4.1000977,7.7363281,6.7495117,18.6748047,6.7495117,28.25
					C186.6245117,850.1875,177.7060547,859.125,165.9580078,859.125z"/>
				<path d="M165.7919922,709.125c-7.5463867,0-13.5385742-4.7402344-15.5673828-13.3330078h-0.1992188
					C147.996582,704.3847656,142.0048828,709.125,134.4584961,709.125c-11.0820312,0-19.8334961-8.9931641-19.8334961-25
					c0-9.875,2.6796875-20.3632812,7-28h13c-4.543457,7.6386719-7.3334961,17.9394531-7.3334961,27
					c0,10.6923828,4.1030273,15.6669922,8.8334961,15.6669922c4.4541016,0,8-5.5136719,8-19.1669922v-17.5h12v17.5
					c0,13.6533203,3.5463867,19.1669922,8,19.1669922c4.7304688,0,8.8334961-4.9746094,8.8334961-15.6669922
					c0-9.0605469-2.7900391-19.3613281-7.3334961-27h13c4.3203125,7.6367188,7,18.125,7,28
					C185.625,700.1318359,176.8735352,709.125,165.7919922,709.125z"/>
				<path d="M165.625,559.125c-7.65625,0-13.3789062-4.6826172-15.4003906-14h-0.1992188
					c-2.0214844,9.3173828-7.7441406,14-15.4003906,14c-10.4160156,0-19-9.0488281-19-25.25
					c0-10.1748047,2.7099609-20.2128906,7.25-27.75h10.5c-4.8447266,7.4667969-7.75,17.4472656-7.75,27
					c0,11.8457031,4.859375,17.75,10.25,17.75c5.1582031,0,9.25-6.7080078,9.25-24v-14.75h10v14.75
					c0,17.2919922,4.0917969,24,9.25,24c5.390625,0,10.25-5.9042969,10.25-17.75c0-9.5527344-2.9052734-19.5332031-7.75-27h10.5
					c4.5400391,7.5371094,7.25,17.5751953,7.25,27.75C184.625,550.0761719,176.0410156,559.125,165.625,559.125z"/>
				<path d="M168.2915039,356.1245117h7.8359375c4.7939453,7.4448242,7.4970703,17.1611328,7.4970703,27.5
					c0,16.3955078-8.4160156,25.5004883-18.1665039,25.5004883c-7.7661133,0-13.2197266-4.9589844-15.2338867-15.0004883h-0.1992188
					C148.0107422,404.1660156,142.5576172,409.125,134.7915039,409.125c-9.7509766,0-18.1669922-9.1049805-18.1669922-25.5004883
					c0-10.3388672,2.703125-20.0551758,7.4975586-27.5h7.8359375c-5.1010742,7.331543-8,16.9541016-8,27
					c0,13.1494141,5.6708984,19.8334961,11.6665039,19.8334961c6.1542969,0,10.8334961-6.9897461,10.8334961-25.5v-15.3334961
					h7.3334961v15.3334961c0,18.5102539,4.6791992,25.5,10.8330078,25.5c5.9956055,0,11.6669922-6.684082,11.6669922-19.8334961
					C176.2915039,373.0786133,173.3920898,363.4560547,168.2915039,356.1245117z"/>
				<path d="M169.7084961,206.125h5.171875c5.0483398,7.3525391,7.7446289,16.7470703,7.7446289,27.25
					c0,16.5893555-8.2480469,25.75-17.3334961,25.75c-7.8759766,0-13.0595703-5.2348633-15.0668945-16h-0.1992188
					c-2.0073242,10.7651367-7.190918,16-15.0668945,16c-9.0854492,0-17.3334961-9.1606445-17.3334961-25.75
					c0-10.5029297,2.6962891-19.8974609,7.7446289-27.25h5.171875c-5.3569336,7.1962891-8.2495117,16.4609375-8.2495117,27
					c0,14.453125,6.4829102,21.9169922,13.0830078,21.9169922c7.1503906,0,12.4169922-7.2719727,12.4169922-27V212.125h4.6665039
					v15.9169922c0,19.7280273,5.2661133,27,12.4165039,27c6.6000977,0,13.0834961-7.4638672,13.0834961-21.9169922
					C177.9584961,222.5859375,175.0654297,213.3212891,169.7084961,206.125z"/>
				<path d="M165.125,109.125c-7.9863281,0-12.9003906-5.5107422-14.9003906-17h-0.1992188
					c-2,11.4892578-6.9140625,17-14.9003906,17c-8.4199219,0-16.5-9.2167969-16.5-26
					c0-10.6669922,2.6894531-19.7402344,7.9921875-27H129.125c-5.6132812,7.0605469-8.5,15.9677734-8.5,27
					c0,15.7568359,7.2949219,24,14.5,24c8.1464844,0,14-7.5537109,14-28.5v-16.5h2v16.5c0,20.9462891,5.8535156,28.5,14,28.5
					c7.2050781,0,14.5-8.2431641,14.5-24c0-11.0322266-2.8867188-19.9394531-8.5-27h2.5078125
					c5.3027344,7.2597656,7.9921875,16.3330078,7.9921875,27C181.625,99.9082031,173.5449219,109.125,165.125,109.125z"/>
			</g>
			<g>
				<path d="M266.125,1009.125c-7.3261719,0-13.8574219-4.8544922-15.9003906-12h-0.1992188
					c-2.0429688,7.1455078-8.5742188,12-15.9003906,12c-12.4140625,0-21.5-8.8808594-21.5-24.5
					c0-9.2744141,2.6191406-20.6630859,6.5-28.5h18c-3.9414062,7.9814453-6.5,18.9248047-6.5,27c0,8.3847656,2.5898438,11.5,6,11.5
					c3.0449219,0,5.5-3.1230469,5.5-9.5v-23h16v23c0,6.3769531,2.4550781,9.5,5.5,9.5c3.4101562,0,6-3.1152344,6-11.5
					c0-8.0751953-2.5585938-19.0185547-6.5-27h18c3.8808594,7.8369141,6.5,19.2255859,6.5,28.5
					C287.625,1000.2441406,278.5390625,1009.125,266.125,1009.125z"/>
				<path d="M265.9580078,859.125c-7.4360352,0-13.6977539-4.796875-15.7338867-12.6669922h-0.1992188
					C247.9892578,854.328125,241.7275391,859.125,234.2915039,859.125c-11.7480469,0-20.6669922-8.9375-20.6669922-24.75
					c0-9.5751953,2.6494141-20.5136719,6.75-28.25h15.5c-4.2421875,7.8095703-6.9165039,18.4326172-6.9165039,27
					c0,9.5380859,3.3461914,13.5830078,7.4165039,13.5830078c3.7495117,0,6.7504883-4.3183594,6.7504883-14.3330078v-20.25
					h13.9995117v20.25c0,10.0146484,3.0009766,14.3330078,6.75,14.3330078c4.0703125,0,7.4165039-4.0449219,7.4165039-13.5830078
					c0-8.5673828-2.6738281-19.1904297-6.9160156-27h15.5c4.1000977,7.7363281,6.7495117,18.6748047,6.7495117,28.25
					C286.6245117,850.1875,277.7060547,859.125,265.9580078,859.125z"/>
				<path d="M265.7919922,709.125c-7.5463867,0-13.5385742-4.7402344-15.5673828-13.3330078h-0.1992188
					C247.996582,704.3847656,242.0048828,709.125,234.4584961,709.125c-11.0820312,0-19.8334961-8.9931641-19.8334961-25
					c0-9.875,2.6796875-20.3632812,7-28h13c-4.543457,7.6386719-7.3334961,17.9394531-7.3334961,27
					c0,10.6923828,4.1030273,15.6669922,8.8334961,15.6669922c4.4541016,0,8-5.5136719,8-19.1669922v-17.5h12v17.5
					c0,13.6533203,3.5463867,19.1669922,8,19.1669922c4.7304688,0,8.8334961-4.9746094,8.8334961-15.6669922
					c0-9.0605469-2.7900391-19.3613281-7.3334961-27h13c4.3203125,7.6367188,7,18.125,7,28
					C285.625,700.1318359,276.8735352,709.125,265.7919922,709.125z"/>
				<path d="M265.625,559.125c-7.65625,0-13.3789062-4.6826172-15.4003906-14h-0.1992188
					c-2.0214844,9.3173828-7.7441406,14-15.4003906,14c-10.4160156,0-19-9.0488281-19-25.25
					c0-10.1748047,2.7099609-20.2128906,7.25-27.75h10.5c-4.8447266,7.4667969-7.75,17.4472656-7.75,27
					c0,11.8457031,4.859375,17.75,10.25,17.75c5.1582031,0,9.25-6.7080078,9.25-24v-14.75h10v14.75
					c0,17.2919922,4.0917969,24,9.25,24c5.390625,0,10.25-5.9042969,10.25-17.75c0-9.5527344-2.9052734-19.5332031-7.75-27h10.5
					c4.5400391,7.5371094,7.25,17.5751953,7.25,27.75C284.625,550.0761719,276.0410156,559.125,265.625,559.125z"/>
				<path d="M268.2915039,356.1245117h7.8359375c4.7939453,7.4448242,7.4970703,17.1611328,7.4970703,27.5
					c0,16.3955078-8.4160156,25.5004883-18.1665039,25.5004883c-7.7661133,0-13.2197266-4.9589844-15.2338867-15.0004883h-0.1992188
					C248.0107422,404.1660156,242.5576172,409.125,234.7915039,409.125c-9.7509766,0-18.1669922-9.1049805-18.1669922-25.5004883
					c0-10.3388672,2.703125-20.0551758,7.4975586-27.5h7.8359375c-5.1010742,7.331543-8,16.9541016-8,27
					c0,13.1494141,5.6708984,19.8334961,11.6665039,19.8334961c6.1542969,0,10.8334961-6.9897461,10.8334961-25.5v-15.3334961
					h7.3334961v15.3334961c0,18.5102539,4.6791992,25.5,10.8330078,25.5c5.9956055,0,11.6669922-6.684082,11.6669922-19.8334961
					C276.2915039,373.0786133,273.3920898,363.4560547,268.2915039,356.1245117z"/>
				<path d="M269.7084961,206.125h5.171875c5.0483398,7.3525391,7.7446289,16.7470703,7.7446289,27.25
					c0,16.5893555-8.2480469,25.75-17.3334961,25.75c-7.8759766,0-13.0595703-5.2348633-15.0668945-16h-0.1992188
					c-2.0073242,10.7651367-7.190918,16-15.0668945,16c-9.0854492,0-17.3334961-9.1606445-17.3334961-25.75
					c0-10.5029297,2.6962891-19.8974609,7.7446289-27.25h5.171875c-5.3569336,7.1962891-8.2495117,16.4609375-8.2495117,27
					c0,14.453125,6.4829102,21.9169922,13.0830078,21.9169922c7.1503906,0,12.4169922-7.2719727,12.4169922-27V212.125h4.6665039
					v15.9169922c0,19.7280273,5.2661133,27,12.4165039,27c6.6000977,0,13.0834961-7.4638672,13.0834961-21.9169922
					C277.9584961,222.5859375,275.0654297,213.3212891,269.7084961,206.125z"/>
				<path d="M265.125,109.125c-7.9863281,0-12.9003906-5.5107422-14.9003906-17h-0.1992188
					c-2,11.4892578-6.9140625,17-14.9003906,17c-8.4199219,0-16.5-9.2167969-16.5-26
					c0-10.6669922,2.6894531-19.7402344,7.9921875-27H229.125c-5.6132812,7.0605469-8.5,15.9677734-8.5,27
					c0,15.7568359,7.2949219,24,14.5,24c8.1464844,0,14-7.5537109,14-28.5v-16.5h2v16.5c0,20.9462891,5.8535156,28.5,14,28.5
					c7.2050781,0,14.5-8.2431641,14.5-24c0-11.0322266-2.8867188-19.9394531-8.5-27h2.5078125
					c5.3027344,7.2597656,7.9921875,16.3330078,7.9921875,27C281.625,99.9082031,273.5449219,109.125,265.125,109.125z"/>
			</g>
			<g>
				<path d="M366.125,1009.125c-7.3261719,0-13.8574219-4.8544922-15.9003906-12h-0.1992188
					c-2.0429688,7.1455078-8.5742188,12-15.9003906,12c-12.4140625,0-21.5-8.8808594-21.5-24.5
					c0-9.2744141,2.6191406-20.6630859,6.5-28.5h18c-3.9414062,7.9814453-6.5,18.9248047-6.5,27c0,8.3847656,2.5898438,11.5,6,11.5
					c3.0449219,0,5.5-3.1230469,5.5-9.5v-23h16v23c0,6.3769531,2.4550781,9.5,5.5,9.5c3.4101562,0,6-3.1152344,6-11.5
					c0-8.0751953-2.5585938-19.0185547-6.5-27h18c3.8808594,7.8369141,6.5,19.2255859,6.5,28.5
					C387.625,1000.2441406,378.5390625,1009.125,366.125,1009.125z"/>
				<path d="M365.9580078,859.125c-7.4365234,0-13.6982422-4.796875-15.7338867-12.6669922h-0.1992188
					C347.9892578,854.328125,341.7275391,859.125,334.2915039,859.125c-11.7480469,0-20.6669922-8.9375-20.6669922-24.75
					c0-9.5751953,2.6494141-20.5136719,6.75-28.25h15.5c-4.2421875,7.8095703-6.9165039,18.4326172-6.9165039,27
					c0,9.5380859,3.3461914,13.5830078,7.4165039,13.5830078c3.7495117,0,6.7504883-4.3183594,6.7504883-14.3330078v-20.25h14v20.25
					c0,10.0146484,3,14.3330078,6.75,14.3330078c4.0703125,0,7.4160156-4.0449219,7.4160156-13.5830078
					c0-8.5673828-2.6738281-19.1904297-6.9160156-27h15.5c4.0996094,7.7363281,6.75,18.6748047,6.75,28.25
					C386.625,850.1875,377.7060547,859.125,365.9580078,859.125z"/>
				<path d="M365.7919922,709.125c-7.5458984,0-13.5380859-4.7402344-15.5673828-13.3330078h-0.1992188
					C347.996582,704.3847656,342.0048828,709.125,334.4584961,709.125c-11.0820312,0-19.8334961-8.9931641-19.8334961-25
					c0-9.875,2.6796875-20.3632812,7-28h13c-4.543457,7.6386719-7.3334961,17.9394531-7.3334961,27
					c0,10.6923828,4.1030273,15.6669922,8.8334961,15.6669922c4.4541016,0,8-5.5136719,8-19.1669922v-17.5h12v17.5
					c0,13.6533203,3.546875,19.1669922,8,19.1669922c4.7304688,0,8.8339844-4.9746094,8.8339844-15.6669922
					c0-9.0605469-2.7910156-19.3613281-7.3339844-27h13c4.3203125,7.6367188,7,18.125,7,28
					C385.625,700.1318359,376.8730469,709.125,365.7919922,709.125z"/>
				<path d="M365.625,559.125c-7.65625,0-13.3789062-4.6826172-15.4003906-14h-0.1992188
					c-2.0214844,9.3173828-7.7441406,14-15.4003906,14c-10.4160156,0-19-9.0488281-19-25.25
					c0-10.1748047,2.7099609-20.2128906,7.25-27.75h10.5c-4.8447266,7.4667969-7.75,17.4472656-7.75,27
					c0,11.8457031,4.859375,17.75,10.25,17.75c5.1582031,0,9.25-6.7080078,9.25-24v-14.75h10v14.75
					c0,17.2919922,4.0917969,24,9.25,24c5.390625,0,10.25-5.9042969,10.25-17.75c0-9.5527344-2.9052734-19.5332031-7.75-27h10.5
					c4.5400391,7.5371094,7.25,17.5751953,7.25,27.75C384.625,550.0761719,376.0410156,559.125,365.625,559.125z"/>
				<path d="M368.2910156,356.1245117h7.8359375c4.7949219,7.4448242,7.4980469,17.1611328,7.4980469,27.5
					c0,16.3955078-8.4160156,25.5004883-18.1669922,25.5004883c-7.7666016,0-13.2197266-4.9589844-15.2338867-15.0004883h-0.1992188
					C348.0107422,404.1660156,342.5576172,409.125,334.7915039,409.125c-9.7509766,0-18.1669922-9.1049805-18.1669922-25.5004883
					c0-10.3388672,2.703125-20.0551758,7.4975586-27.5h7.8359375c-5.1010742,7.331543-8,16.9541016-8,27
					c0,13.1494141,5.6708984,19.8334961,11.6665039,19.8334961c6.1542969,0,10.8334961-6.9897461,10.8334961-25.5v-15.3334961
					h7.3330078v15.3334961c0,18.5102539,4.6796875,25.5,10.8339844,25.5c5.9951172,0,11.6660156-6.684082,11.6660156-19.8334961
					C376.2910156,373.0786133,373.3925781,363.4560547,368.2910156,356.1245117z"/>
				<path d="M369.7089844,206.125h5.171875c5.0478516,7.3525391,7.7441406,16.7470703,7.7441406,27.25
					c0,16.5893555-8.2480469,25.75-17.3339844,25.75c-7.875,0-13.0585938-5.2348633-15.0664062-16h-0.1992188
					c-2.0073242,10.7651367-7.190918,16-15.0668945,16c-9.0854492,0-17.3334961-9.1606445-17.3334961-25.75
					c0-10.5029297,2.6962891-19.8974609,7.7446289-27.25h5.171875c-5.3569336,7.1962891-8.2495117,16.4609375-8.2495117,27
					c0,14.453125,6.4829102,21.9169922,13.0830078,21.9169922c7.1503906,0,12.4169922-7.2719727,12.4169922-27V212.125h4.6669922
					v15.9169922c0,19.7280273,5.265625,27,12.4160156,27c6.5996094,0,13.0839844-7.4638672,13.0839844-21.9169922
					C377.9589844,222.5859375,375.0654297,213.3212891,369.7089844,206.125z"/>
				<path d="M365.125,109.125c-7.9863281,0-12.9003906-5.5107422-14.9003906-17h-0.1992188
					c-2,11.4892578-6.9140625,17-14.9003906,17c-8.4199219,0-16.5-9.2167969-16.5-26
					c0-10.6669922,2.6894531-19.7402344,7.9921875-27H329.125c-5.6132812,7.0605469-8.5,15.9677734-8.5,27
					c0,15.7568359,7.2949219,24,14.5,24c8.1464844,0,14-7.5537109,14-28.5v-16.5h2v16.5c0,20.9462891,5.8535156,28.5,14,28.5
					c7.2050781,0,14.5-8.2431641,14.5-24c0-11.0322266-2.8867188-19.9394531-8.5-27h2.5078125
					c5.3027344,7.2597656,7.9921875,16.3330078,7.9921875,27C381.625,99.9082031,373.5449219,109.125,365.125,109.125z"/>
			</g>
			<g>
				<path d="M466.125,1009.125c-7.3261719,0-13.8574219-4.8544922-15.9003906-12h-0.1992188
					c-2.0429688,7.1455078-8.5742188,12-15.9003906,12c-12.4140625,0-21.5-8.8808594-21.5-24.5
					c0-9.2744141,2.6191406-20.6630859,6.5-28.5h18c-3.9414062,7.9814453-6.5,18.9248047-6.5,27c0,8.3847656,2.5898438,11.5,6,11.5
					c3.0449219,0,5.5-3.1230469,5.5-9.5v-23h16v23c0,6.3769531,2.4550781,9.5,5.5,9.5c3.4101562,0,6-3.1152344,6-11.5
					c0-8.0751953-2.5585938-19.0185547-6.5-27h18c3.8808594,7.8369141,6.5,19.2255859,6.5,28.5
					C487.625,1000.2441406,478.5390625,1009.125,466.125,1009.125z"/>
				<path d="M465.9580078,859.125c-7.4365234,0-13.6982422-4.796875-15.7333984-12.6669922h-0.1992188
					c-2.0361328,7.8701172-8.2978516,12.6669922-15.734375,12.6669922c-11.7480469,0-20.6660156-8.9375-20.6660156-24.75
					c0-9.5751953,2.6484375-20.5136719,6.75-28.25h15.5c-4.2421875,7.8095703-6.9169922,18.4326172-6.9169922,27
					c0,9.5380859,3.3466797,13.5830078,7.4169922,13.5830078c3.7490234,0,6.75-4.3183594,6.75-14.3330078v-20.25h14v20.25
					c0,10.0146484,3,14.3330078,6.75,14.3330078c4.0703125,0,7.4160156-4.0449219,7.4160156-13.5830078
					c0-8.5673828-2.6738281-19.1904297-6.9160156-27h15.5c4.0996094,7.7363281,6.75,18.6748047,6.75,28.25
					C486.625,850.1875,477.7060547,859.125,465.9580078,859.125z"/>
				<path d="M465.7919922,709.125c-7.5458984,0-13.5380859-4.7402344-15.5673828-13.3330078h-0.1992188
					c-2.0292969,8.5927734-8.0205078,13.3330078-15.5664062,13.3330078c-11.0820312,0-19.8339844-8.9931641-19.8339844-25
					c0-9.875,2.6796875-20.3632812,7-28h13c-4.5429688,7.6386719-7.3339844,17.9394531-7.3339844,27
					c0,10.6923828,4.1035156,15.6669922,8.8339844,15.6669922c4.4541016,0,8-5.5136719,8-19.1669922v-17.5h12v17.5
					c0,13.6533203,3.546875,19.1669922,8,19.1669922c4.7304688,0,8.8339844-4.9746094,8.8339844-15.6669922
					c0-9.0605469-2.7910156-19.3613281-7.3339844-27h13c4.3203125,7.6367188,7,18.125,7,28
					C485.625,700.1318359,476.8730469,709.125,465.7919922,709.125z"/>
				<path d="M465.625,559.125c-7.65625,0-13.3789062-4.6826172-15.4003906-14h-0.1992188
					c-2.0214844,9.3173828-7.7441406,14-15.4003906,14c-10.4160156,0-19-9.0488281-19-25.25
					c0-10.1748047,2.7099609-20.2128906,7.25-27.75h10.5c-4.8447266,7.4667969-7.75,17.4472656-7.75,27
					c0,11.8457031,4.859375,17.75,10.25,17.75c5.1582031,0,9.25-6.7080078,9.25-24v-14.75h10v14.75
					c0,17.2919922,4.0917969,24,9.25,24c5.390625,0,10.25-5.9042969,10.25-17.75c0-9.5527344-2.9052734-19.5332031-7.75-27h10.5
					c4.5400391,7.5371094,7.25,17.5751953,7.25,27.75C484.625,550.0761719,476.0410156,559.125,465.625,559.125z"/>
				<path d="M468.2910156,356.1245117h7.8359375c4.7949219,7.4448242,7.4980469,17.1611328,7.4980469,27.5
					c0,16.3955078-8.4160156,25.5004883-18.1669922,25.5004883c-7.7666016,0-13.2197266-4.9589844-15.2333984-15.0004883h-0.1992188
					c-2.0146484,10.0415039-7.4677734,15.0004883-15.234375,15.0004883c-9.75,0-18.1660156-9.1049805-18.1660156-25.5004883
					c0-10.3388672,2.703125-20.0551758,7.4970703-27.5h7.8359375c-5.1005859,7.331543-8,16.9541016-8,27
					c0,13.1494141,5.6708984,19.8334961,11.6669922,19.8334961c6.1542969,0,10.8330078-6.9897461,10.8330078-25.5v-15.3334961
					h7.3330078v15.3334961c0,18.5102539,4.6796875,25.5,10.8339844,25.5c5.9951172,0,11.6660156-6.684082,11.6660156-19.8334961
					C476.2910156,373.0786133,473.3925781,363.4560547,468.2910156,356.1245117z"/>
				<path d="M469.7089844,206.125h5.171875c5.0478516,7.3525391,7.7441406,16.7470703,7.7441406,27.25
					c0,16.5893555-8.2480469,25.75-17.3339844,25.75c-7.875,0-13.0585938-5.2348633-15.0664062-16h-0.1992188
					c-2.0078125,10.7651367-7.1914062,16-15.0664062,16c-9.0859375,0-17.3339844-9.1606445-17.3339844-25.75
					c0-10.5029297,2.6962891-19.8974609,7.7441406-27.25h5.171875c-5.3564453,7.1962891-8.2490234,16.4609375-8.2490234,27
					c0,14.453125,6.4833984,21.9169922,13.0830078,21.9169922c7.1503906,0,12.4169922-7.2719727,12.4169922-27V212.125h4.6669922
					v15.9169922c0,19.7280273,5.265625,27,12.4160156,27c6.5996094,0,13.0839844-7.4638672,13.0839844-21.9169922
					C477.9589844,222.5859375,475.0654297,213.3212891,469.7089844,206.125z"/>
				<path d="M465.125,109.125c-7.9863281,0-12.9003906-5.5107422-14.9003906-17h-0.1992188
					c-2,11.4892578-6.9140625,17-14.9003906,17c-8.4199219,0-16.5-9.2167969-16.5-26
					c0-10.6669922,2.6894531-19.7402344,7.9921875-27H429.125c-5.6132812,7.0605469-8.5,15.9677734-8.5,27
					c0,15.7568359,7.2949219,24,14.5,24c8.1464844,0,14-7.5537109,14-28.5v-16.5h2v16.5c0,20.9462891,5.8535156,28.5,14,28.5
					c7.2050781,0,14.5-8.2431641,14.5-24c0-11.0322266-2.8867188-19.9394531-8.5-27h2.5078125
					c5.3027344,7.2597656,7.9921875,16.3330078,7.9921875,27C481.625,99.9082031,473.5449219,109.125,465.125,109.125z"/>
			</g>
			<g>
				<path d="M54.625,1017.125c0,5.5908203,0.6191406,6,6,6c2.5253906,0,6.0537109-0.6162109,8.5-1.5v12
					c-4.703125,1.0302734-8.8066406,1.5-13.5,1.5c-14.4453125,0-19-4.328125-19-18v-3h18V1017.125z"/>
				<path d="M53.6245117,867.625c0,6.3964844,0.6230469,6.8330078,6.1665039,6.8330078
					c2.5195312,0,5.9301758-0.6171875,8.3339844-1.5v10.3330078c-4.3242188,1.0205078-8.2163086,1.5-12.5834961,1.5
					c-13.3232422,0-17.4169922-3.8730469-17.4169922-17.1660156v-3.5h15.5V867.625z"/>
				<path d="M52.625,718.125c0,7.2021484,0.6264648,7.6669922,6.3334961,7.6669922c2.5126953,0,5.8056641-0.6191406,8.1665039-1.5
					v8.6660156c-3.9438477,1.0107422-7.6254883,1.5-11.6665039,1.5c-12.2006836,0-15.8334961-3.4179688-15.8334961-16.3330078v-4h13
					V718.125z"/>
				<path d="M51.625,568.625c0,8.0078125,0.6298828,8.5,6.5,8.5c2.5068359,0,5.6816406-0.6201172,8-1.5v7
					c-3.5644531,1-7.0351562,1.5-10.75,1.5c-11.078125,0-14.25-2.9638672-14.25-15.5v-4.5h10.5V568.625z"/>
				<path d="M64.7915039,432.4794922c-3.1274414,0.8730469-6.2060547,1.3120117-9.5004883,1.3120117
					c-10.4311523,0-12.8330078-2.7416992-12.8330078-14.6669922v-5h7.6665039v5c0,8.8139648,0.6342773,9.3334961,7,9.3334961
					c2.5009766,0,5.3676758-0.5209961,7.6669922-1.3330078V432.4794922z"/>
				<path d="M63.4584961,282.3344727c-2.6904297,0.7460938-5.3764648,1.1240234-8.25,1.1240234
					c-9.7851562,0-11.4169922-2.5185547-11.4169922-13.8334961v-5.5H48.625v5.5c0,9.6201172,0.6381836,10.1669922,7.5,10.1669922
					c2.4946289,0,5.0532227-0.4223633,7.3334961-1.1669922V282.3344727z"/>
				<path d="M55.125,131.125c-7.3574219,0-8-0.5742188-8-11v-6h-2v6c0,10.7041016,0.8613281,13,10,13
					c2.453125,0,4.7470703-0.3164062,7-0.9355469V130.125C59.8642578,130.8017578,57.6132812,131.125,55.125,131.125z"/>
			</g>
			<g>
				<path d="M154.625,1017.125c0,5.5908203,0.6191406,6,6,6c2.5253906,0,6.0537109-0.6162109,8.5-1.5v12
					c-4.703125,1.0302734-8.8066406,1.5-13.5,1.5c-14.4453125,0-19-4.328125-19-18v-3h18V1017.125z"/>
				<path d="M153.6245117,867.625c0,6.3964844,0.6230469,6.8330078,6.1665039,6.8330078
					c2.5195312,0,5.9301758-0.6171875,8.3339844-1.5v10.3330078c-4.3242188,1.0205078-8.2163086,1.5-12.5834961,1.5
					c-13.3232422,0-17.4169922-3.8730469-17.4169922-17.1660156v-3.5h15.5V867.625z"/>
				<path d="M152.625,718.125c0,7.2021484,0.6264648,7.6669922,6.3334961,7.6669922c2.5126953,0,5.8056641-0.6191406,8.1665039-1.5
					v8.6660156c-3.9438477,1.0107422-7.6254883,1.5-11.6665039,1.5c-12.2006836,0-15.8334961-3.4179688-15.8334961-16.3330078v-4h13
					V718.125z"/>
				<path d="M151.625,568.625c0,8.0078125,0.6298828,8.5,6.5,8.5c2.5068359,0,5.6816406-0.6201172,8-1.5v7
					c-3.5644531,1-7.0351562,1.5-10.75,1.5c-11.078125,0-14.25-2.9638672-14.25-15.5v-4.5h10.5V568.625z"/>
				<path d="M164.7915039,432.4794922c-3.1274414,0.8730469-6.2060547,1.3120117-9.5004883,1.3120117
					c-10.4311523,0-12.8330078-2.7416992-12.8330078-14.6669922v-5h7.6665039v5c0,8.8139648,0.6342773,9.3334961,7,9.3334961
					c2.5009766,0,5.3676758-0.5209961,7.6669922-1.3330078V432.4794922z"/>
				<path d="M163.4584961,282.3344727c-2.6904297,0.7460938-5.3764648,1.1240234-8.25,1.1240234
					c-9.7851562,0-11.4169922-2.5185547-11.4169922-13.8334961v-5.5H148.625v5.5c0,9.6201172,0.6381836,10.1669922,7.5,10.1669922
					c2.4946289,0,5.0532227-0.4223633,7.3334961-1.1669922V282.3344727z"/>
				<path d="M155.125,131.125c-7.3574219,0-8-0.5742188-8-11v-6h-2v6c0,10.7041016,0.8613281,13,10,13
					c2.453125,0,4.7470703-0.3164062,7-0.9355469V130.125C159.8642578,130.8017578,157.6132812,131.125,155.125,131.125z"/>
			</g>
			<g>
				<path d="M254.625,1017.125c0,5.5908203,0.6191406,6,6,6c2.5253906,0,6.0537109-0.6162109,8.5-1.5v12
					c-4.703125,1.0302734-8.8066406,1.5-13.5,1.5c-14.4453125,0-19-4.328125-19-18v-3h18V1017.125z"/>
				<path d="M253.6245117,867.625c0,6.3964844,0.6230469,6.8330078,6.1665039,6.8330078
					c2.5195312,0,5.9301758-0.6171875,8.3339844-1.5v10.3330078c-4.3242188,1.0205078-8.2163086,1.5-12.5834961,1.5
					c-13.3232422,0-17.4169922-3.8730469-17.4169922-17.1660156v-3.5h15.5V867.625z"/>
				<path d="M252.625,718.125c0,7.2021484,0.6264648,7.6669922,6.3334961,7.6669922c2.5126953,0,5.8056641-0.6191406,8.1665039-1.5
					v8.6660156c-3.9438477,1.0107422-7.6254883,1.5-11.6665039,1.5c-12.2006836,0-15.8334961-3.4179688-15.8334961-16.3330078v-4h13
					V718.125z"/>
				<path d="M251.625,568.625c0,8.0078125,0.6298828,8.5,6.5,8.5c2.5068359,0,5.6816406-0.6201172,8-1.5v7
					c-3.5644531,1-7.0351562,1.5-10.75,1.5c-11.078125,0-14.25-2.9638672-14.25-15.5v-4.5h10.5V568.625z"/>
				<path d="M264.7915039,432.4794922c-3.1274414,0.8730469-6.2060547,1.3120117-9.5004883,1.3120117
					c-10.4311523,0-12.8330078-2.7416992-12.8330078-14.6669922v-5h7.6665039v5c0,8.8139648,0.6342773,9.3334961,7,9.3334961
					c2.5009766,0,5.3676758-0.5209961,7.6669922-1.3330078V432.4794922z"/>
				<path d="M263.4584961,282.3344727c-2.6904297,0.7460938-5.3764648,1.1240234-8.25,1.1240234
					c-9.7851562,0-11.4169922-2.5185547-11.4169922-13.8334961v-5.5H248.625v5.5c0,9.6201172,0.6381836,10.1669922,7.5,10.1669922
					c2.4946289,0,5.0532227-0.4223633,7.3334961-1.1669922V282.3344727z"/>
				<path d="M255.125,131.125c-7.3574219,0-8-0.5742188-8-11v-6h-2v6c0,10.7041016,0.8613281,13,10,13
					c2.453125,0,4.7470703-0.3164062,7-0.9355469V130.125C259.8642578,130.8017578,257.6132812,131.125,255.125,131.125z"/>
			</g>
			<g>
				<path d="M454.625,1017.125c0,5.5908203,0.6191406,6,6,6c2.5253906,0,6.0537109-0.6162109,8.5-1.5v12
					c-4.703125,1.0302734-8.8066406,1.5-13.5,1.5c-14.4453125,0-19-4.328125-19-18v-3h18V1017.125z"/>
				<path d="M453.625,867.625c0,6.3964844,0.6230469,6.8330078,6.1660156,6.8330078c2.5195312,0,5.9296875-0.6171875,8.3339844-1.5
					v10.3330078c-4.3242188,1.0205078-8.2167969,1.5-12.5839844,1.5c-13.3222656,0-17.4160156-3.8730469-17.4160156-17.1660156v-3.5
					h15.5V867.625z"/>
				<path d="M452.625,718.125c0,7.2021484,0.6269531,7.6669922,6.3339844,7.6669922c2.5117188,0,5.8046875-0.6191406,8.1660156-1.5
					v8.6660156c-3.9433594,1.0107422-7.625,1.5-11.6660156,1.5c-12.2011719,0-15.8339844-3.4179688-15.8339844-16.3330078v-4h13
					V718.125z"/>
				<path d="M451.625,568.625c0,8.0078125,0.6298828,8.5,6.5,8.5c2.5068359,0,5.6816406-0.6201172,8-1.5v7
					c-3.5644531,1-7.0351562,1.5-10.75,1.5c-11.078125,0-14.25-2.9638672-14.25-15.5v-4.5h10.5V568.625z"/>
				<path d="M464.7910156,432.4794922c-3.1269531,0.8730469-6.2050781,1.3120117-9.5,1.3120117
					c-10.4316406,0-12.8330078-2.7416992-12.8330078-14.6669922v-5H450.125v5c0,8.8139648,0.6337891,9.3334961,7,9.3334961
					c2.5,0,5.3671875-0.5209961,7.6660156-1.3330078V432.4794922z"/>
				<path d="M463.4589844,282.3344727c-2.6914062,0.7460938-5.3769531,1.1240234-8.25,1.1240234
					c-9.7851562,0-11.4179688-2.5185547-11.4179688-13.8334961v-5.5H448.625v5.5c0,9.6201172,0.6386719,10.1669922,7.5,10.1669922
					c2.4941406,0,5.0527344-0.4223633,7.3339844-1.1669922V282.3344727z"/>
				<path d="M455.125,131.125c-7.3574219,0-8-0.5742188-8-11v-6h-2v6c0,10.7041016,0.8613281,13,10,13
					c2.453125,0,4.7470703-0.3164062,7-0.9355469V130.125C459.8642578,130.8017578,457.6132812,131.125,455.125,131.125z"/>
			</g>
		</g>
	</svg>
