<?xml version="1.0" encoding="utf-8"?>
<!-- Generator: Adobe Illustrator 15.0.2, SVG Export Plug-In . SVG Version: 6.00 Build 0)  -->
<!DOCTYPE svg PUBLIC "-//W3C//DTD SVG 1.1//EN" "http://www.w3.org/Graphics/SVG/1.1/DTD/svg11.dtd">
<svg version="1.1" id="レイヤー1" xmlns="http://www.w3.org/2000/svg" xmlns:xlink="http://www.w3.org/1999/xlink" x="0px"
	 y="0px" width="841.8896484px" height="595.2753906px" viewBox="0 0 841.8896484 595.2753906"
	 enable-background="new 0 0 841.8896484 595.2753906" xml:space="preserve">
<g>
	<rect x="71.5" y="-226.5" fill="none" stroke="#000000" stroke-width="0.25" width="100" height="150"/>
	<rect x="171.5" y="-226.5" fill="none" stroke="#000000" stroke-width="0.25" width="100" height="150"/>
	<rect x="271.5" y="-226.5" fill="none" stroke="#000000" stroke-width="0.25" width="100" height="150"/>
	<rect x="371.5" y="-226.5" fill="none" stroke="#000000" stroke-width="0.25" width="125" height="150"/>
	<rect x="496.5" y="-226.5" fill="none" stroke="#000000" stroke-width="0.25" width="125" height="150"/>
	<rect x="621.5" y="-226.5" fill="none" stroke="#000000" stroke-width="0.25" width="100" height="150"/>
	<rect x="721.5" y="-226.5" fill="none" stroke="#000000" stroke-width="0.25" width="100" height="150"/>
	<rect x="71.5" y="-76.5" fill="none" stroke="#000000" stroke-width="0.25" width="100" height="150"/>
	<rect x="171.5" y="-76.5" fill="none" stroke="#000000" stroke-width="0.25" width="100" height="150"/>
	<rect x="271.5" y="-76.5" fill="none" stroke="#000000" stroke-width="0.25" width="100" height="150"/>
	<rect x="371.5" y="-76.5" fill="none" stroke="#000000" stroke-width="0.25" width="125" height="150"/>
	<rect x="496.5" y="-76.5" fill="none" stroke="#000000" stroke-width="0.25" width="125" height="150"/>
	<rect x="621.5" y="-76.5" fill="none" stroke="#000000" stroke-width="0.25" width="100" height="150"/>
	<rect x="721.5" y="-76.5" fill="none" stroke="#000000" stroke-width="0.25" width="100" height="150"/>
	<rect x="71.5" y="73.5" fill="none" stroke="#000000" stroke-width="0.25" width="100" height="150"/>
	<rect x="171.5" y="73.5" fill="none" stroke="#000000" stroke-width="0.25" width="100" height="150"/>
	<rect x="271.5" y="73.5" fill="none" stroke="#000000" stroke-width="0.25" width="100" height="150"/>
	<rect x="371.5" y="73.5" fill="none" stroke="#000000" stroke-width="0.25" width="125" height="150"/>
	<rect x="496.5" y="73.5" fill="none" stroke="#000000" stroke-width="0.25" width="125" height="150"/>
	<rect x="621.5" y="73.5" fill="none" stroke="#000000" stroke-width="0.25" width="100" height="150"/>
	<rect x="721.5" y="73.5" fill="none" stroke="#000000" stroke-width="0.25" width="100" height="150"/>
	<rect x="71.5" y="223.5" fill="none" stroke="#000000" stroke-width="0.25" width="100" height="150"/>
	<rect x="171.5" y="223.5" fill="none" stroke="#000000" stroke-width="0.25" width="100" height="150"/>
	<rect x="271.5" y="223.5" fill="none" stroke="#000000" stroke-width="0.25" width="100" height="150"/>
	<rect x="371.5" y="223.5" fill="none" stroke="#000000" stroke-width="0.25" width="125" height="150"/>
	<rect x="496.5" y="223.5" fill="none" stroke="#000000" stroke-width="0.25" width="125" height="150"/>
	<rect x="621.5" y="223.5" fill="none" stroke="#000000" stroke-width="0.25" width="100" height="150"/>
	<rect x="721.5" y="223.5" fill="none" stroke="#000000" stroke-width="0.25" width="100" height="150"/>
	<rect x="71.5" y="373.5" fill="none" stroke="#000000" stroke-width="0.25" width="100" height="150"/>
	<rect x="171.5" y="373.5" fill="none" stroke="#000000" stroke-width="0.25" width="100" height="150"/>
	<rect x="271.5" y="373.5" fill="none" stroke="#000000" stroke-width="0.25" width="100" height="150"/>
	<rect x="371.5" y="373.5" fill="none" stroke="#000000" stroke-width="0.25" width="125" height="150"/>
	<rect x="496.5" y="373.5" fill="none" stroke="#000000" stroke-width="0.25" width="125" height="150"/>
	<rect x="621.5" y="373.5" fill="none" stroke="#000000" stroke-width="0.25" width="100" height="150"/>
	<rect x="721.5" y="373.5" fill="none" stroke="#000000" stroke-width="0.25" width="100" height="150"/>
	<rect x="71.5" y="523.5" fill="none" stroke="#000000" stroke-width="0.25" width="100" height="150"/>
	<rect x="171.5" y="523.5" fill="none" stroke="#000000" stroke-width="0.25" width="100" height="150"/>
	<rect x="271.5" y="523.5" fill="none" stroke="#000000" stroke-width="0.25" width="100" height="150"/>
	<rect x="371.5" y="523.5" fill="none" stroke="#000000" stroke-width="0.25" width="125" height="150"/>
	<rect x="496.5" y="523.5" fill="none" stroke="#000000" stroke-width="0.25" width="125" height="150"/>
	<rect x="621.5" y="523.5" fill="none" stroke="#000000" stroke-width="0.25" width="100" height="150"/>
	<rect x="721.5" y="523.5" fill="none" stroke="#000000" stroke-width="0.25" width="100" height="150"/>
	<rect x="71.5" y="673.5" fill="none" stroke="#000000" stroke-width="0.25" width="100" height="150"/>
	<rect x="171.5" y="673.5" fill="none" stroke="#000000" stroke-width="0.25" width="100" height="150"/>
	<rect x="271.5" y="673.5" fill="none" stroke="#000000" stroke-width="0.25" width="100" height="150"/>
	<rect x="371.5" y="673.5" fill="none" stroke="#000000" stroke-width="0.25" width="125" height="150"/>
	<rect x="496.5" y="673.5" fill="none" stroke="#000000" stroke-width="0.25" width="125" height="150"/>
	<rect x="621.5" y="673.5" fill="none" stroke="#000000" stroke-width="0.25" width="100" height="150"/>
	<rect x="721.5" y="673.5" fill="none" stroke="#000000" stroke-width="0.25" width="100" height="150"/>
	<rect x="821.5" y="-226.5" fill="none" stroke="#000000" stroke-width="0.25" width="100" height="150"/>
	<rect x="821.5" y="-76.5" fill="none" stroke="#000000" stroke-width="0.25" width="100" height="150"/>
	<rect x="821.5" y="73.5" fill="none" stroke="#000000" stroke-width="0.25" width="100" height="150"/>
	<rect x="821.5" y="223.5" fill="none" stroke="#000000" stroke-width="0.25" width="100" height="150"/>
	<rect x="821.5" y="373.5" fill="none" stroke="#000000" stroke-width="0.25" width="100" height="150"/>
	<rect x="821.5" y="523.5" fill="none" stroke="#000000" stroke-width="0.25" width="100" height="150"/>
	<rect x="821.5" y="673.5" fill="none" stroke="#000000" stroke-width="0.25" width="100" height="150"/>
</g>
<g>
	<path d="M132.5-168.5h20v2h-20v48h-2v-48H103v48h-2v-48H90v-2h11v-9c0-10.7939453,3.9257812-15,14-15
		c2.7636719,0,5.6005859,0.5263672,8,1.5v2.1552734C120.6210938-189.9033203,117.78125-190.5,115-190.5
		c-8.9716797,0-12,3.2802734-12,13v9h27.5v-9c0-10.7939453,3.9257812-15,14-15c2.7636719,0,5.6005859,0.5263672,8,1.5v2.1552734
		c-2.3789062-1.0585938-5.21875-1.6552734-8-1.6552734c-8.9716797,0-12,3.2802734-12,13V-168.5z"/>
	<path d="M104.6665039-14.5004883V31.5h-5v-46.0004883H88.9995117V-18.5h10.6669922v-7.3334961
		c0-11.8691406,4.5703125-16.6665039,15.1665039-16.6665039c2.9677734,0,5.8017578,0.4956055,8.5,1.5v4.1030273
		c-2.4208984-1.0478516-5.097168-1.6035156-7.8330078-1.6035156c-7.9907227,0-10.8334961,3.0654297-10.8334961,12.5004883v7.5
		h24.9995117v-7.3334961c0-11.8691406,4.5703125-16.6665039,15.1669922-16.6665039c2.9672852,0,5.8022461,0.4956055,8.5,1.5
		v4.1030273c-2.4204102-1.0478516-5.0976562-1.6035156-7.8334961-1.6035156
		c-7.9897461,0-10.8330078,3.0654297-10.8330078,12.5004883v7.5h18.6665039v3.9995117h-18.6665039V31.5h-5.0004883v-46.0004883
		H104.6665039z"/>
	<path d="M106.3334961,137.5v44h-8v-44H88v-6h10.3334961v-5.6660156c0-12.9443359,5.2148438-18.3339844,16.3334961-18.3339844
		c3.1713867,0,6.003418,0.4658203,8.9995117,1.5v6.0517578C121.2045898,114.0146484,118.690918,113.5,116,113.5
		c-7.0087891,0-9.6665039,2.8505859-9.6665039,12v6h22.5v-5.6660156c0-12.9443359,5.2148438-18.3339844,16.3330078-18.3339844
		c3.171875,0,6.0039062,0.4658203,9.0004883,1.5v6.0517578C151.7045898,114.0146484,149.190918,113.5,146.5,113.5
		c-7.0087891,0-9.6665039,2.8505859-9.6665039,12v6h17.3334961v6h-17.3334961v44h-8v-44H106.3334961z"/>
	<path d="M108,289.5v42H97v-42H87v-8h10v-4c0-14.0185547,5.859375-20,17.5-20c3.3754883,0,6.2050781,0.4355469,9.5,1.5v8
		c-2.5039062-1.0263672-4.8544922-1.5-7.5-1.5c-6.0273438,0-8.5,2.6357422-8.5,11.5v4.5h20v-4c0-14.0185547,5.859375-20,17.5-20
		c3.3754883,0,6.2050781,0.4355469,9.5,1.5v8c-2.5039062-1.0263672-4.8544922-1.5-7.5-1.5c-6.0273438,0-8.5,2.6357422-8.5,11.5v4.5
		h16v8h-16v42h-11v-42H108z"/>
	<path d="M128.1665039,431.5v-3.3339844c0-14.3994141,6.1821289-20.6660156,18.6665039-20.6660156
		c3.8149414,0,6.90625,0.4267578,10.6665039,1.5v9.8330078c-2.4799805-0.9794922-5.1811523-1.5-7.6665039-1.5
		c-5.7841797,0-7.8330078,2.1972656-7.8330078,10.5V431.5h15.4995117v9.6660156H142V481.5h-13.8334961v-40.3339844h-19.5004883
		V481.5H94.8330078v-40.3339844h-9.8334961V431.5h9.8334961v-3.3339844c0-14.3984375,5.9741211-20.6660156,18.7915039-20.6660156
		c3.8149414,0,6.78125,0.4267578,10.5419922,1.5v9.8330078c-2.4804688-0.9794922-5.1811523-1.5-7.6665039-1.5
		c-5.7851562,0-7.8339844,2.1972656-7.8339844,10.5V431.5H128.1665039z"/>
	<path d="M128.3334961,581.5v-2.6669922c0-14.7802734,6.5048828-21.3330078,19.8330078-21.3330078
		c4.2543945,0,7.6074219,0.4189453,11.8334961,1.5v11.6669922c-2.456543-0.9326172-5.5078125-1.5-7.8334961-1.5
		c-5.5415039,0-7.1665039,1.7587891-7.1665039,9.5V581.5h15v11.3330078h-15V631.5h-16.6665039v-38.6669922h-19V631.5H92.6669922
		v-38.6669922H83V581.5h9.6669922v-2.6669922C92.6669922,564.0546875,98.7553711,557.5,112.75,557.5
		c4.2543945,0,7.3574219,0.4189453,11.5834961,1.5v11.6669922c-2.456543-0.9326172-5.5078125-1.5-7.8334961-1.5
		c-5.5415039,0-7.1665039,1.7587891-7.1665039,9.5V581.5H128.3334961z"/>
	<path d="M128.5,731.5v-2c0-15.1611328,6.828125-22,21-22c4.6933594,0,8.3085938,0.4111328,13,1.5v13.5
		c-2.4326172-0.8857422-5.8344727-1.5-8-1.5c-5.2988281,0-6.5,1.3203125-6.5,8.5v2h14.5v13H148v37h-19.5v-37H110v37H90.5v-37H81v-13
		h9.5v-2c0-15.1591797,6.203125-22,21.375-22c4.6933594,0,7.9335938,0.4111328,12.625,1.5v13.5
		c-2.4326172-0.8857422-5.8344727-1.5-8-1.5c-5.2988281,0-6.5,1.3203125-6.5,8.5v2H128.5z"/>
</g>
<g>
	<path d="M339-190.5v72h-2v-70.3710938C331.8652344-189.8935547,326.1875-190.5,321.5-190.5c-8.5234375,0-12,3.765625-12,13v9H328v2
		h-18.5v48h-2v-48h-11v-2h11v-9c0-10.375,4.3173828-15,14-15C326.5830078-192.5,333.1425781-191.7978516,339-190.5z"/>
	<path d="M310.8330078-26v7.5H328.5v3.9995117h-17.6669922V31.5h-5v-46.0004883h-10.6665039V-18.5h10.6665039v-7.3334961
		c0-11.5898438,4.831543-16.6665039,16.5-16.6665039c5.7758789,0,12.3320312,0.7880859,18.5,2.3330078V31.5h-5v-68.4980469
		c-4.1884766-0.9326172-8.9643555-1.5024414-12.8334961-1.5024414C313.9750977-38.5004883,310.8330078-35.1113281,310.8330078-26z"
		/>
	<path d="M312.1665039,125.5v6H329v6h-16.8334961v44h-8v-44h-10.3330078v-6h10.3330078v-5.6660156
		c0-12.8046875,5.3457031-18.3339844,19-18.3339844c6.46875,0,13.0219727,0.875,19.5,2.6660156V181.5h-7.9995117v-66.6230469
		C331.4248047,114.0332031,327.550293,113.5,324.5,113.5C314.9741211,113.5,312.1665039,116.5126953,312.1665039,125.5z"/>
	<path d="M313.5,277v4.5h16v8h-16v42h-11v-42h-10v-8h10v-4c0-14.0185547,5.859375-20,21.5-20
		c7.1611328,0,13.7114258,0.9609375,20.5,3v71h-11v-64.75c-2.2954102-0.7529297-5.2685547-1.25-7.5-1.25
		C315.9726562,265.5,313.5,268.1357422,313.5,277z"/>
	<path d="M313.8330078,427.8330078V431.5h15.5v9.6660156h-15.5V481.5H300v-40.3339844h-9.8339844V431.5H300v-3.3339844
		C300,413.7675781,306.1821289,407.5,323.9995117,407.5c8.7338867,0,16.3540039,1.1308594,23.3334961,3.3330078V481.5h-14v-63
		c-2.9213867-0.7724609-5.5605469-1.1669922-8-1.1669922C315.8818359,417.3330078,313.8330078,419.5292969,313.8330078,427.8330078z
		"/>
	<path d="M314.1665039,578.6669922V581.5h15.0004883v11.3330078h-15.0004883V631.5H297.5v-38.6669922h-9.6665039V581.5H297.5
		v-2.6669922C297.5,564.0546875,304.0053711,557.5,324,557.5c10.3066406,0,18.9960938,1.3007812,26.1669922,3.6669922V631.5
		h-17.0004883v-61.25c-3.5473633-0.7919922-5.8530273-1.0830078-8.5-1.0830078
		C315.7915039,569.1669922,314.1665039,570.9238281,314.1665039,578.6669922z"/>
	<path d="M353,711.5v70h-20V722c-4.1738281-0.8115234-6.1455078-1-9-1c-8.2988281,0-9.5,1.3173828-9.5,8.5v2H329v13h-14.5v37H295
		v-37h-9.5v-13h9.5v-2c0-15.1591797,6.828125-22,29-22C335.8789062,707.5,345.6386719,708.9707031,353,711.5z"/>
</g>
<g>
	<path d="M544.5-192.5c2.7636719,0,5.6005859,0.5263672,8,1.5v2.1552734c-2.3789062-1.0585938-5.21875-1.6552734-8-1.6552734
		c-8.9716797,0-12,3.2802734-12,13v9H559v-9c0-10.375,4.3173828-15,14-15c5.3125,0,10.8417969,0.6728516,16.5,2v72h-2v-70.3935547
		C582.53125-189.9560547,577.6591797-190.5,573-190.5c-8.5234375,0-12,3.765625-12,13v9h17.5v2H561v48h-2v-48h-26.5v48h-2v-48h-11
		v-2h11v-9C530.5-188.2939453,534.4257812-192.5,544.5-192.5z"/>
	<path d="M543.6660156-42.5c2.9677734,0,5.8027344,0.4956055,8.5,1.5v4.1030273
		c-2.4199219-1.0478516-5.0966797-1.6035156-7.8330078-1.6035156C536.3427734-38.5004883,533.5-35.4350586,533.5-26v7.5h24.3330078
		v-7.3334961c0-11.5898438,4.8310547-16.6665039,16.5-16.6665039c5.9287109,0,11.7978516,0.7685547,17.8330078,2.3330078V31.5
		h-4.9990234v-68.5126953c-4.078125-0.9594727-8.3173828-1.487793-12.1669922-1.487793
		c-9.0253906,0-12.1669922,3.3891602-12.1669922,12.5004883v7.5h17v3.9995117h-17V31.5h-5v-46.0004883H533.5V31.5h-5v-46.0004883
		h-10.6669922V-18.5H528.5v-7.3334961C528.5-37.7026367,533.0703125-42.5,543.6660156-42.5z"/>
	<path d="M542.8330078,107.5c3.171875,0,6.0039062,0.4658203,9,1.5v6.0517578
		C549.3710938,114.0146484,546.8574219,113.5,544.1669922,113.5c-7.0087891,0-9.6669922,2.8505859-9.6669922,12v6h22.1669922
		v-5.6660156c0-12.8046875,5.3447266-18.3339844,19-18.3339844c6.5449219,0,12.7539062,0.8652344,19.1660156,2.6660156V181.5h-8
		v-66.6308594C583.6474609,114.0126953,580.0410156,113.5,577,113.5c-9.5263672,0-12.3330078,3.0126953-12.3330078,12v6h16.5v6
		h-16.5v44h-8v-44H534.5v44h-8v-44h-10.3330078v-6H526.5v-5.6660156C526.5,112.8896484,531.7148438,107.5,542.8330078,107.5z"/>
	<path d="M535.5,289.5v42h-11v-42h-10v-8h10v-4c0-14.0185547,5.859375-20,17.5-20c3.375,0,6.2050781,0.4355469,9.5,1.5v8
		c-2.5039062-1.0263672-4.8544922-1.5-7.5-1.5c-6.0273438,0-8.5,2.6357422-8.5,11.5v4.5h20v-4c0-14.0185547,5.859375-20,21.5-20
		c7.1611328,0,13.7109375,0.9609375,20.5,3v71h-11v-64.75c-2.2949219-0.7529297-5.2685547-1.25-7.5-1.25
		c-10.0273438,0-12.5,2.6357422-12.5,11.5v4.5h16v8h-16v42h-11v-42H535.5z"/>
	<path d="M554.1660156,431.5v-3.3339844c0-14.3984375,6.1826172-20.6660156,23.0009766-20.6660156
		c8.7333984,0,16.3535156,1.1308594,23.3330078,3.3330078V481.5h-13.6669922v-63
		c-2.9208984-0.7724609-5.5605469-1.1669922-8-1.1669922c-8.9511719,0-11,2.1962891-11,10.5V431.5h15v9.6660156h-15V481.5
		h-13.6669922v-40.3339844h-19V481.5H521.5v-40.3339844h-9.3339844V431.5H521.5v-3.3339844
		C521.5,413.7675781,527.4736328,407.5,539.7910156,407.5c3.8144531,0,6.78125,0.4267578,10.5419922,1.5v9.8330078
		c-2.4804688-0.9794922-5.1806641-1.5-7.6660156-1.5c-5.4521484,0-7.5009766,2.1972656-7.5009766,10.5V431.5H554.1660156z"/>
	<path d="M552.8330078,581.5v-2.6669922c0-14.7783203,6.5058594-21.3330078,24.5-21.3330078
		c10.3066406,0,18.9960938,1.3007812,26.1669922,3.6669922V631.5h-16.3330078v-61.25
		c-3.5478516-0.7919922-5.8535156-1.0830078-8.5-1.0830078c-7.875,0-9.5,1.7568359-9.5,9.5V581.5h14v11.3330078h-14V631.5
		h-16.3339844v-38.6669922h-18V631.5H518.5v-38.6669922h-8.6669922V581.5H518.5v-2.6669922
		C518.5,564.0546875,524.5888672,557.5,537.5830078,557.5c4.2539062,0,7.3574219,0.4189453,11.5839844,1.5v11.6669922
		c-2.4570312-0.9326172-5.5078125-1.5-7.8339844-1.5c-4.875,0-6.5,1.7587891-6.5,9.5V581.5H552.8330078z"/>
	<path d="M551.5,731.5v-2c0-15.1591797,6.828125-22,26-22c11.8789062,0,21.6386719,1.4707031,29,4v70h-19V722
		c-4.1738281-0.8115234-6.1455078-1-9-1c-6.7988281,0-8,1.3173828-8,8.5v2h13v13h-13v37h-19v-37h-17v37h-19v-37h-8v-13h8v-2
		c0-15.1591797,6.203125-22,19.875-22c4.6933594,0,7.9335938,0.4111328,12.625,1.5v13.5c-2.4326172-0.8857422-5.8339844-1.5-8-1.5
		c-4.2988281,0-5.5,1.3203125-5.5,8.5v2H551.5z"/>
</g>
<g>
	<g>
		<path d="M214.5,731.5v-2c0-7.1826172,1.2011719-8.5,6.5-8.5c2.1660156,0,5.5664062,0.6142578,8,1.5V709
			c-4.6914062-1.0888672-8.3066406-1.5-13-1.5c-14.171875,0-21,6.8408203-21,22v2h-9.5v13h9.5v37h19.5v-37H233v37h20v-50H214.5z"/>
		<rect x="233" y="706.5" width="20" height="14"/>
	</g>
	<g>
		<path d="M214.1660156,581.5v-2.8339844c0-7.7431641,1.625-9.5,7.1669922-9.5c2.3256836,0,5.3764648,0.5673828,7.8334961,1.5V559
			c-4.2260742-1.0810547-7.5795898-1.5-11.8334961-1.5c-13.328125,0-19.8334961,6.5546875-19.8334961,21.3330078V581.5h-9.6665039
			v11.3330078h9.6665039V631.5h16.6665039v-38.6669922h19.0004883V631.5h17v-50H214.1660156z"/>
		<rect x="233.1665039" y="556.5" width="17" height="13"/>
	</g>
	<g>
		<path d="M213.8330078,431.5v-3.6660156c0-8.3046875,2.0488281-10.5009766,7.8334961-10.5009766
			c2.4858398,0,5.1865234,0.5205078,7.6665039,1.5V409c-3.7597656-1.0722656-6.8515625-1.5-10.6660156-1.5
			C206.1821289,407.5,200,413.7675781,200,428.1660156V431.5h-9.8330078v9.6660156H200V481.5h13.8330078v-40.3339844h19.5004883
			V481.5h13.9995117v-50H213.8330078z"/>
		<rect x="233.3334961" y="406.5" width="13.9995117" height="12"/>
	</g>
	<g>
		<path d="M213.5,281.5V277c0-8.8642578,2.4726562-11.5,8.5-11.5c2.6455078,0,4.9960938,0.4736328,7.5,1.5v-8
			c-3.2949219-1.0644531-6.125-1.5-9.5-1.5c-11.640625,0-17.5,5.9814453-17.5,20v4h-10v8h10v42h11v-42h20v42h11v-50H213.5z"/>
		<rect x="233.5" y="256.5" width="11" height="11"/>
	</g>
	<g>
		<path d="M212.1665039,131.5v-6c0-9.1494141,2.6577148-12,9.6665039-12c2.6904297,0,5.2045898,0.5146484,7.6665039,1.5507812V109
			c-2.9960938-1.0351562-5.8286133-1.5-8.9995117-1.5c-11.1191406,0-16.3339844,5.3886719-16.3339844,18.3330078V131.5h-10.3330078
			v6h10.3330078v44h8.0004883v-44h22.5v44h7.9995117v-50H212.1665039z"/>
		<rect x="234.6665039" y="106.5" width="7.9995117" height="11"/>
	</g>
	<g>
		<path d="M210.8334961-18.5V-26c0-9.4345703,2.8427734-12.5,10.8334961-12.5c2.7353516,0,5.4121094,0.5556641,7.8330078,1.6035156
			V-41c-2.6982422-1.0039062-5.5322266-1.5-8.5-1.5c-10.5966797,0-15.1669922,4.7978516-15.1669922,16.6669922V-18.5h-10.6665039v4
			h10.6665039v46h5.0004883v-46h24.9995117v46h5v-50H210.8334961z"/>
		<rect x="235.8330078" y="-43.5" width="5" height="11"/>
	</g>
	<g>
		<path d="M209.5-168.5v-9c0-9.7197266,3.0283203-13,12-13c2.78125,0,5.6210938,0.5966797,8,1.6552734V-191
			c-2.3994141-0.9736328-5.2363281-1.5-8-1.5c-10.0742188,0-14,4.2060547-14,15v9h-11v2h11v48h2v-48H237v48h2v-50H209.5z"/>
		<rect x="237" y="-193.5" width="2" height="11"/>
	</g>
</g>
<g>
	<g>
		<path d="M436-168.5v-9c0-9.7197266,3.0283203-13,12-13c2.78125,0,5.6210938,0.5966797,8,1.6552734V-191
			c-2.3994141-0.9736328-5.2363281-1.5-8-1.5c-10.0742188,0-14,4.2060547-14,15v9h-26.5v-9c0-9.7197266,3.0283203-13,12-13
			c2.78125,0,5.6210938,0.5966797,8,1.6552734V-191c-2.3994141-0.9736328-5.2363281-1.5-8-1.5c-10.0742188,0-14,4.2060547-14,15v9
			h-11v2h11v48h2v-48H434v48h2v-48h26.5v48h2v-50H436z"/>
		<rect x="462.5" y="-193.5" width="2" height="11"/>
	</g>
	<g>
		<path d="M437.8330078-18.5V-26c0-9.4345703,2.8427734-12.5004883,10.8330078-12.5004883
			c2.7363281,0,5.4130859,0.5561523,7.8339844,1.6035156V-41c-2.6982422-1.0043945-5.5332031-1.5-8.5-1.5
			c-10.5966797,0-15.1669922,4.7973633-15.1669922,16.6665039V-18.5H408.5V-26
			c0-9.4345703,2.8427734-12.5004883,10.8330078-12.5004883c2.7363281,0,5.4130859,0.5561523,7.8330078,1.6035156V-41
			c-2.6972656-1.0043945-5.5322266-1.5-8.4995117-1.5C408.0703125-42.5,403.5-37.7026367,403.5-25.8334961V-18.5h-10.6665039
			v3.9995117H403.5V31.5h5v-46.0004883h24.3330078V31.5h5v-46.0004883h24.3330078V31.5h5v-50H437.8330078z"/>
		<rect x="462.1660156" y="-43.5004883" width="5" height="11.0004883"/>
	</g>
	<g>
		<path d="M439.6669922,131.5v-6c0-9.1494141,2.6572266-12,9.6660156-12c2.6904297,0,5.2050781,0.5146484,7.6669922,1.5517578V109
			c-2.9960938-1.0341797-5.828125-1.5-9-1.5c-11.1191406,0-16.3339844,5.3896484-16.3339844,18.3330078V131.5H409.5v-6
			c0-9.1494141,2.6582031-12,9.6669922-12c2.6904297,0,5.2041016,0.5146484,7.6660156,1.5517578V109
			c-2.9960938-1.0341797-5.8286133-1.5-9-1.5C406.7148438,107.5,401.5,112.8896484,401.5,125.8330078V131.5h-10.3320312v6H401.5v44
			h8v-44h22.1660156v44h8.0009766v-44h22.1669922v44h7.9990234v-50H439.6669922z"/>
		<rect x="461.8339844" y="106.5" width="7.9990234" height="11"/>
	</g>
	<g>
		<path d="M441.5,281.5V277c0-8.8642578,2.4726562-11.5,8.5-11.5c2.6455078,0,4.9960938,0.4736328,7.5,1.5v-8
			c-3.2949219-1.0644531-6.125-1.5-9.5-1.5c-11.640625,0-17.5,5.9814453-17.5,20v4h-20V277c0-8.8642578,2.4726562-11.5,8.5-11.5
			c2.6455078,0,4.9960938,0.4736328,7.5,1.5v-8c-3.2949219-1.0644531-6.125-1.5-9.5-1.5c-11.640625,0-17.5,5.9814453-17.5,20v4
			h-9.9980469v8H399.5v42h11v-42h20v42h11v-42h20v42h11v-50H441.5z"/>
		<rect x="461.5" y="256.5" width="11" height="11"/>
	</g>
	<g>
		<path d="M442.8330078,431.5v-3.6669922c0-8.3027344,2.0488281-10.5,7.5-10.5c2.4853516,0,5.1865234,0.5205078,7.6669922,1.5V409
			c-3.7607422-1.0732422-6.8525391-1.5-10.6669922-1.5c-11.984375,0-18.1669922,6.2666016-18.1669922,20.6660156V431.5h-18.9995117
			v-3.6669922c0-8.3027344,2.0488281-10.5,7.5-10.5c2.4858398,0,5.1860352,0.5205078,7.6665039,1.5V409
			c-3.7607422-1.0732422-6.7275391-1.5-10.5419922-1.5C402.4736328,407.5,396.5,413.7675781,396.5,428.1660156V431.5h-9.3325195
			v9.6660156H396.5V481.5h13.6665039v-40.3339844h18.9995117V481.5h13.6669922v-40.3339844h19V481.5H475.5v-50H442.8330078z"/>
		<rect x="461.8330078" y="406.5" width="13.6669922" height="12"/>
	</g>
	<g>
		<path d="M444.1660156,581.5v-2.8330078c0-7.7412109,1.625-9.5,6.5009766-9.5c2.3251953,0,5.3759766,0.5673828,7.8330078,1.5V559
			c-4.2255859-1.0810547-7.5791016-1.5-11.8330078-1.5c-12.328125,0-18.8339844,6.5527344-18.8339844,21.3330078V581.5h-18
			v-2.8330078c0-7.7412109,1.625-9.5,6.5004883-9.5c2.3256836,0,5.3764648,0.5673828,7.8325195,1.5V559
			c-4.2255859-1.0810547-7.3291016-1.5-11.5830078-1.5C399.5883789,557.5,393.5,564.0546875,393.5,578.8330078V581.5h-8.6660156
			v11.3330078H393.5V631.5h16.3330078v-38.6669922h18V631.5h16.3330078v-38.6669922h18.0009766V631.5H478.5v-50H444.1660156z"/>
		<rect x="462.1669922" y="556.5" width="16.3330078" height="13"/>
	</g>
	<g>
		<path d="M445.5,731.5v-2c0-7.1796875,1.2011719-8.5,5.5-8.5c2.1660156,0,5.5664062,0.6142578,8,1.5V709
			c-4.6914062-1.0888672-8.3066406-1.5-13-1.5c-12.671875,0-19.5,6.8388672-19.5,22v2h-17v-2c0-7.1796875,1.2011719-8.5,5.5-8.5
			c2.1660156,0,5.5664062,0.6142578,8,1.5V709c-4.6914062-1.0888672-7.9316406-1.5-12.625-1.5
			c-13.671875,0-19.875,6.8408203-19.875,22v2h-8v13h8v37h19v-37h17v37h19v-37h17v37h19v-50H445.5z"/>
		<g>
			<rect x="462.5" y="706.5" width="19" height="14"/>
		</g>
	</g>
</g>
</svg>
