<?xml version="1.0" encoding="utf-8"?>
<!-- Generator: Adobe Illustrator 15.0.2, SVG Export Plug-In . SVG Version: 6.00 Build 0)  -->
<!DOCTYPE svg PUBLIC "-//W3C//DTD SVG 1.1//EN" "http://www.w3.org/Graphics/SVG/1.1/DTD/svg11.dtd">
<svg version="1.1" id="レイヤー1" xmlns="http://www.w3.org/2000/svg" xmlns:xlink="http://www.w3.org/1999/xlink" x="0px"
	 y="0px" width="841.8896484px" height="595.2753906px" viewBox="0 0 841.8896484 595.2753906"
	 enable-background="new 0 0 841.8896484 595.2753906" xml:space="preserve">
<g>
	<rect x="71.5" y="-76.5" fill="none" stroke="#000000" stroke-width="0.25" width="50" height="150"/>
	<rect x="171.5" y="-76.5" fill="none" stroke="#000000" stroke-width="0.25" width="50" height="150"/>
	<rect x="271.5" y="-76.5" fill="none" stroke="#000000" stroke-width="0.25" width="50" height="150"/>
	<rect x="371.5" y="-76.5" fill="none" stroke="#000000" stroke-width="0.25" width="50" height="150"/>
	<rect x="471.5" y="-76.5" fill="none" stroke="#000000" stroke-width="0.25" width="50" height="150"/>
	<rect x="571.5" y="-76.5" fill="none" stroke="#000000" stroke-width="0.25" width="50" height="150"/>
	<rect x="671.5" y="-76.5" fill="none" stroke="#000000" stroke-width="0.25" width="50" height="150"/>
	<rect x="71.5" y="73.5" fill="none" stroke="#000000" stroke-width="0.25" width="50" height="150"/>
	<rect x="171.5" y="73.5" fill="none" stroke="#000000" stroke-width="0.25" width="50" height="150"/>
	<rect x="271.5" y="73.5" fill="none" stroke="#000000" stroke-width="0.25" width="50" height="150"/>
	<rect x="371.5" y="73.5" fill="none" stroke="#000000" stroke-width="0.25" width="50" height="150"/>
	<rect x="471.5" y="73.5" fill="none" stroke="#000000" stroke-width="0.25" width="50" height="150"/>
	<rect x="571.5" y="73.5" fill="none" stroke="#000000" stroke-width="0.25" width="50" height="150"/>
	<rect x="671.5" y="73.5" fill="none" stroke="#000000" stroke-width="0.25" width="50" height="150"/>
	<rect x="71.5" y="223.5" fill="none" stroke="#000000" stroke-width="0.25" width="50" height="150"/>
	<rect x="171.5" y="223.5" fill="none" stroke="#000000" stroke-width="0.25" width="50" height="150"/>
	<rect x="271.5" y="223.5" fill="none" stroke="#000000" stroke-width="0.25" width="50" height="150"/>
	<rect x="371.5" y="223.5" fill="none" stroke="#000000" stroke-width="0.25" width="50" height="150"/>
	<rect x="471.5" y="223.5" fill="none" stroke="#000000" stroke-width="0.25" width="50" height="150"/>
	<rect x="571.5" y="223.5" fill="none" stroke="#000000" stroke-width="0.25" width="50" height="150"/>
	<rect x="671.5" y="223.5" fill="none" stroke="#000000" stroke-width="0.25" width="50" height="150"/>
	<rect x="71.5" y="373.5" fill="none" stroke="#000000" stroke-width="0.25" width="50" height="150"/>
	<rect x="171.5" y="373.5" fill="none" stroke="#000000" stroke-width="0.25" width="50" height="150"/>
	<rect x="271.5" y="373.5" fill="none" stroke="#000000" stroke-width="0.25" width="50" height="150"/>
	<rect x="371.5" y="373.5" fill="none" stroke="#000000" stroke-width="0.25" width="50" height="150"/>
	<rect x="471.5" y="373.5" fill="none" stroke="#000000" stroke-width="0.25" width="50" height="150"/>
	<rect x="571.5" y="373.5" fill="none" stroke="#000000" stroke-width="0.25" width="50" height="150"/>
	<rect x="671.5" y="373.5" fill="none" stroke="#000000" stroke-width="0.25" width="50" height="150"/>
	<rect x="71.5" y="523.5" fill="none" stroke="#000000" stroke-width="0.25" width="50" height="150"/>
	<rect x="171.5" y="523.5" fill="none" stroke="#000000" stroke-width="0.25" width="50" height="150"/>
	<rect x="271.5" y="523.5" fill="none" stroke="#000000" stroke-width="0.25" width="50" height="150"/>
	<rect x="371.5" y="523.5" fill="none" stroke="#000000" stroke-width="0.25" width="50" height="150"/>
	<rect x="471.5" y="523.5" fill="none" stroke="#000000" stroke-width="0.25" width="50" height="150"/>
	<rect x="571.5" y="523.5" fill="none" stroke="#000000" stroke-width="0.25" width="50" height="150"/>
	<rect x="671.5" y="523.5" fill="none" stroke="#000000" stroke-width="0.25" width="50" height="150"/>
	<rect x="771.5" y="-76.5" fill="none" stroke="#000000" stroke-width="0.25" width="50" height="150"/>
	<rect x="771.5" y="73.5" fill="none" stroke="#000000" stroke-width="0.25" width="50" height="150"/>
	<rect x="771.5" y="223.5" fill="none" stroke="#000000" stroke-width="0.25" width="50" height="150"/>
	<rect x="771.5" y="373.5" fill="none" stroke="#000000" stroke-width="0.25" width="50" height="150"/>
	<rect x="771.5" y="523.5" fill="none" stroke="#000000" stroke-width="0.25" width="50" height="150"/>
	<rect x="871.5" y="-76.5" fill="none" stroke="#000000" stroke-width="0.25" width="50" height="150"/>
	<rect x="871.5" y="73.5" fill="none" stroke="#000000" stroke-width="0.25" width="50" height="150"/>
	<rect x="871.5" y="223.5" fill="none" stroke="#000000" stroke-width="0.25" width="50" height="150"/>
	<rect x="871.5" y="373.5" fill="none" stroke="#000000" stroke-width="0.25" width="50" height="150"/>
	<rect x="871.5" y="523.5" fill="none" stroke="#000000" stroke-width="0.25" width="50" height="150"/>
	<rect x="971.5" y="-76.5" fill="none" stroke="#000000" stroke-width="0.25" width="50" height="150"/>
	<rect x="971.5" y="73.5" fill="none" stroke="#000000" stroke-width="0.25" width="50" height="150"/>
	<rect x="971.5" y="223.5" fill="none" stroke="#000000" stroke-width="0.25" width="50" height="150"/>
	<rect x="971.5" y="373.5" fill="none" stroke="#000000" stroke-width="0.25" width="50" height="150"/>
	<rect x="971.5" y="523.5" fill="none" stroke="#000000" stroke-width="0.25" width="50" height="150"/>
</g>
<g>
	<polygon points="282.5,631.5009766 282.5,572.5009766 294.5,572.5009766 294.5,620.5009766 316.5,620.5009766 316.5,631.5009766 	
		"/>
	<polygon points="283.625,481.5 283.625,422.5 293.375,422.5 293.375,472.5 316.125,472.5 316.125,481.5 	"/>
	<polygon points="284.75,331.5 284.75,272.5 292.25,272.5 292.25,324.5 315.75,324.5 315.75,331.5 	"/>
	<polygon points="285.875,181.5 285.875,122.5 290.625,122.5 290.625,177 315.375,177 315.375,181.5 	"/>
	<polygon points="287,31.5 287,-27.5 289,-27.5 289,29.5 315,29.5 315,31.5 	"/>
</g>
<g>
	<polygon points="394.5,631.5009766 382.5,631.5009766 382.5,572.5009766 394.5,572.5009766 394.5,596.5009766 416.5,596.5009766 
		416.5,607.5009766 394.5,607.5009766 	"/>
	<polygon points="393.375,481.5 383.625,481.5 383.625,422.5 393.375,422.5 393.375,447.5 416.125,447.5 416.125,456.5 
		393.375,456.5 	"/>
	<polygon points="392.25,331.5 384.75,331.5 384.75,272.5 392.25,272.5 392.25,298.5 415.75,298.5 415.75,305.5 392.25,305.5 	"/>
	<polygon points="390.625,154.25 390.625,181.5 385.875,181.5 385.875,122.5 390.625,122.5 390.625,149.75 415.375,149.75 
		415.375,154.25 	"/>
	<polygon points="389,31.5 387,31.5 387,-27.5 389,-27.5 389,1 415,1 415,3 389,3 	"/>
</g>
<g>
	<g>
		<rect x="578.5" y="539.5" width="36" height="8.5"/>
		<rect x="578.5" y="554" width="36" height="8.5"/>
	</g>
	<g>
		<rect x="579" y="390.125" width="35" height="6.875"/>
		<rect x="579" y="404.25" width="35" height="6.875"/>
	</g>
	<g>
		<rect x="579.5" y="240.75" width="34" height="5.25"/>
		<rect x="579.5" y="254.5" width="34" height="5.25"/>
	</g>
	<g>
		<rect x="580" y="91.125" width="33" height="3.625"/>
		<rect x="580" y="105" width="33" height="3.625"/>
	</g>
	<g>
		<rect x="580.5" y="-58.5" width="32" height="2"/>
		<rect x="580.5" y="-44.5" width="32" height="2"/>
	</g>
</g>
<g>
	<polygon points="496.5996094,644 502.5,631.5 517.5,631.5 505.5,649.5 487.5,649.5 475.5,631.5 490.5,631.5 496.4003906,644 	"/>
	<polygon points="496.5996094,494.25 503.625,481.5 516.5,481.5 504,499 489,499 476.5,481.5 489.375,481.5 496.4003906,494.25 	"/>
	<polygon points="496.5996094,344.5 504.75,331.5 515.5,331.5 502.5,348.5 490.5,348.5 477.5,331.5 488.25,331.5 496.4003906,344.5 
			"/>
	<polygon points="507.5048828,181.5 514.25,181.5 500.25,198 492.75,198 478.75,181.5 485.4941406,181.5 496.3994141,195.315918 
		496.5996094,195.315918 	"/>
	<polygon points="498,47.5 495,47.5 480,31.5 482.7392578,31.5 496.3984375,46.1318359 496.5996094,46.1318359 510.2597656,31.5 
		513,31.5 	"/>
</g>
<g>
	<g>
		<polygon points="694.5,553.5 691.5,585.5 681.5,585.5 678.5,553.5 		"/>
		<polygon points="714.5,553.5 711.5,585.5 701.5,585.5 698.5,553.5 		"/>
	</g>
	<g>
		<polygon points="694.25,403.5 691.75,433.5 683.75,433.5 681.25,403.5 		"/>
		<polygon points="711.75,403.5 709.25,433.5 701.25,433.5 698.75,403.5 		"/>
	</g>
	<g>
		<polygon points="684,253.5 694,253.5 692,281.5 686,281.5 		"/>
		<polygon points="699,253.5 709,253.5 707,281.5 701,281.5 		"/>
	</g>
	<g>
		<polygon points="686.5,103.5 692.5,103.5 691.5,129.5 687.5,129.5 		"/>
		<polygon points="700.5,103.5 706.5,103.5 705.5,129.5 701.5,129.5 		"/>
	</g>
	<g>
		<rect x="689" y="-46.5" width="2" height="24"/>
		<rect x="702" y="-46.5" width="2" height="24"/>
	</g>
</g>
<g>
	<polygon points="175.5,631.5009766 175.5,620.5009766 199.5,620.5009766 199.5,558.5009766 213.5,558.5009766 213.5,631.5009766 	
		"/>
	<polygon points="175.875,481.5 175.875,472.5 201.2749023,472.5 201.2749023,408.5 212.375,408.5 212.375,481.5 	"/>
	<polygon points="176.25,331.5 176.25,324.5 203.0498047,324.5 203.0498047,258.5 211.25,258.5 211.25,331.5 	"/>
	<polygon points="210.125,181.5 176.625,181.5 176.625,177 205.0249023,177 205.0249023,108.5 210.125,108.5 	"/>
	<polygon points="177,31.5 177,29.5 207,29.5 207,-41.5 209,-41.5 209,31.5 	"/>
</g>
<g>
	<polygon points="99.5,616.0009766 75.5,616.0009766 75.5,605.0009766 99.5,605.0009766 99.5,558.5009766 113.5,558.5009766 
		113.5,631.5009766 99.5,631.5009766 	"/>
	<polygon points="101.2749023,465.5 75.875,465.5 75.875,456.5 101.2749023,456.5 101.2749023,408.5 112.375,408.5 112.375,481.5 
		101.2749023,481.5 	"/>
	<polygon points="103.0498047,315 76.25,315 76.25,308 103.0498047,308 103.0498047,258.5 111.25,258.5 111.25,331.5 
		103.0498047,331.5 	"/>
	<polygon points="105.0249023,165.5 76.625,165.5 76.625,161 105.0249023,161 105.0249023,108.5 110.125,108.5 110.125,181.5 
		105.0249023,181.5 	"/>
	<polygon points="107,16 77,16 77,14 107,14 107,-41.5 109,-41.5 109,31.5 107,31.5 	"/>
</g>
<g>
	<polygon points="796.5996094,50.7294922 808.2949219,25.5 810.5,25.5 797.5,53.5 795.5,53.5 782.5,25.5 784.7050781,25.5 
		796.4003906,50.7294922 	"/>
	<polygon points="805.7724609,175.5 812.25,175.5 799.5,204 793.5,204 780.75,175.5 787.2275391,175.5 796.4003906,199.5473633 
		796.5996094,199.5473633 	"/>
	<polygon points="801.5,354.5 791.5,354.5 779,325.5 789.75,325.5 796.4003906,348.3652344 796.5996094,348.3652344 803.25,325.5 
		814,325.5 	"/>
	<polygon points="802.875,475.5 815.75,475.5 803.5,505 789.5,505 777.25,475.5 790.125,475.5 796.4003906,499.1826172 
		796.5996094,499.1826172 	"/>
	<polygon points="796.5996094,650 802.5,625.5 817.5,625.5 805.5,655.5 787.5,655.5 775.5,625.5 790.5,625.5 796.4003906,650 	"/>
</g>
<g>
	<polygon points="900.5,558.5 872.5,631.5 887,631.5 900.5,588.5 900.5,631.5 913.5,631.5 913.5,558.5 	"/>
	<polygon points="902.125,408.5 873.125,481.5 884.75,481.5 901.875,433.625 901.875,481.5 912.375,481.5 912.375,408.5 	"/>
	<polygon points="903.75,258.5 873.75,331.5 882.5,331.5 903.25,278.75 903.25,331.5 911.25,331.5 911.25,258.5 	"/>
	<polygon points="879.8417969,181.5 905.125,121.1152344 905.125,181.5 910.125,181.5 910.125,108.5 905.375,108.5 874.375,181.5 	
		"/>
	<polygon points="907,-41.5 875,31.5 877.1835938,31.5 907,-36.519043 907,31.5 909,31.5 909,-41.5 	"/>
</g>
<g>
	<polygon points="1000.5,631.5 972.5,558.5 987,558.5 1000.5,601.5 1000.5,558.5 1013.5,558.5 1013.5,631.5 	"/>
	<polygon points="1002.125,481.5 973.125,408.5 984.75,408.5 1001.875,456.375 1001.875,408.5 1012.375,408.5 1012.375,481.5 	"/>
	<polygon points="1003.75,331.5 973.75,258.5 982.5,258.5 1003.25,311.25 1003.25,258.5 1011.25,258.5 1011.25,331.5 	"/>
	<polygon points="1010.125,108.5 1010.125,181.5 1005.375,181.5 974.375,108.5 979.8417969,108.5 1005.125,168.8847656 
		1005.125,108.5 	"/>
	<polygon points="1007,31.5 975,-41.5 977.1835938,-41.5 1007,26.5195312 1007,-41.5 1009,-41.5 1009,31.5 	"/>
</g>
</svg>
