<?xml version="1.0" encoding="utf-8"?>
<!-- Generator: Adobe Illustrator 15.0.2, SVG Export Plug-In . SVG Version: 6.00 Build 0)  -->
<!DOCTYPE svg PUBLIC "-//W3C//DTD SVG 1.1//EN" "http://www.w3.org/Graphics/SVG/1.1/DTD/svg11.dtd">
<svg version="1.1" id="レイヤー1" xmlns="http://www.w3.org/2000/svg" xmlns:xlink="http://www.w3.org/1999/xlink" x="0px"
	 y="0px" width="841.89px" height="595.275px" viewBox="0 0 841.89 595.275" enable-background="new 0 0 841.89 595.275"
	 xml:space="preserve">
<g>
	<rect x="71.5" y="-76.5" fill="none" stroke="#000000" stroke-width="0.25" width="100" height="150"/>
	<rect x="71.5" y="73.5" fill="none" stroke="#000000" stroke-width="0.25" width="100" height="150"/>
	<rect x="71.5" y="223.5" fill="none" stroke="#000000" stroke-width="0.25" width="100" height="150"/>
	<rect x="71.5" y="373.5" fill="none" stroke="#000000" stroke-width="0.25" width="100" height="150"/>
	<rect x="71.5" y="523.5" fill="none" stroke="#000000" stroke-width="0.25" width="100" height="150"/>
	<rect x="171.5" y="-76.5" fill="none" stroke="#000000" stroke-width="0.25" width="100" height="150"/>
	<rect x="171.5" y="73.5" fill="none" stroke="#000000" stroke-width="0.25" width="100" height="150"/>
	<rect x="171.5" y="223.5" fill="none" stroke="#000000" stroke-width="0.25" width="100" height="150"/>
	<rect x="171.5" y="373.5" fill="none" stroke="#000000" stroke-width="0.25" width="100" height="150"/>
	<rect x="171.5" y="523.5" fill="none" stroke="#000000" stroke-width="0.25" width="100" height="150"/>
	<rect x="271.5" y="-76.5" fill="none" stroke="#000000" stroke-width="0.25" width="100" height="150"/>
	<rect x="271.5" y="73.5" fill="none" stroke="#000000" stroke-width="0.25" width="100" height="150"/>
	<rect x="271.5" y="223.5" fill="none" stroke="#000000" stroke-width="0.25" width="100" height="150"/>
	<rect x="271.5" y="373.5" fill="none" stroke="#000000" stroke-width="0.25" width="100" height="150"/>
	<rect x="271.5" y="523.5" fill="none" stroke="#000000" stroke-width="0.25" width="100" height="150"/>
	<rect x="371.5" y="-76.5" fill="none" stroke="#000000" stroke-width="0.25" width="100" height="150"/>
	<rect x="371.5" y="73.5" fill="none" stroke="#000000" stroke-width="0.25" width="100" height="150"/>
	<rect x="371.5" y="223.5" fill="none" stroke="#000000" stroke-width="0.25" width="100" height="150"/>
	<rect x="371.5" y="373.5" fill="none" stroke="#000000" stroke-width="0.25" width="100" height="150"/>
	<rect x="371.5" y="523.5" fill="none" stroke="#000000" stroke-width="0.25" width="100" height="150"/>
	<rect x="471.5" y="-76.5" fill="none" stroke="#000000" stroke-width="0.25" width="100" height="150"/>
	<rect x="471.5" y="73.5" fill="none" stroke="#000000" stroke-width="0.25" width="100" height="150"/>
	<rect x="471.5" y="223.5" fill="none" stroke="#000000" stroke-width="0.25" width="100" height="150"/>
	<rect x="471.5" y="373.5" fill="none" stroke="#000000" stroke-width="0.25" width="100" height="150"/>
	<rect x="471.5" y="523.5" fill="none" stroke="#000000" stroke-width="0.25" width="100" height="150"/>
	<rect x="571.5" y="-76.5" fill="none" stroke="#000000" stroke-width="0.25" width="100" height="150"/>
	<rect x="571.5" y="73.5" fill="none" stroke="#000000" stroke-width="0.25" width="100" height="150"/>
	<rect x="571.5" y="223.5" fill="none" stroke="#000000" stroke-width="0.25" width="100" height="150"/>
	<rect x="571.5" y="373.5" fill="none" stroke="#000000" stroke-width="0.25" width="100" height="150"/>
	<rect x="571.5" y="523.5" fill="none" stroke="#000000" stroke-width="0.25" width="100" height="150"/>
	<rect x="671.5" y="-76.5" fill="none" stroke="#000000" stroke-width="0.25" width="100" height="150"/>
	<rect x="671.5" y="73.5" fill="none" stroke="#000000" stroke-width="0.25" width="100" height="150"/>
	<rect x="671.5" y="223.5" fill="none" stroke="#000000" stroke-width="0.25" width="100" height="150"/>
	<rect x="671.5" y="373.5" fill="none" stroke="#000000" stroke-width="0.25" width="100" height="150"/>
	<rect x="671.5" y="523.5" fill="none" stroke="#000000" stroke-width="0.25" width="100" height="150"/>
	<rect x="771.5" y="-76.5" fill="none" stroke="#000000" stroke-width="0.25" width="100" height="150"/>
	<rect x="771.5" y="73.5" fill="none" stroke="#000000" stroke-width="0.25" width="100" height="150"/>
	<rect x="771.5" y="223.5" fill="none" stroke="#000000" stroke-width="0.25" width="100" height="150"/>
	<rect x="771.5" y="373.5" fill="none" stroke="#000000" stroke-width="0.25" width="100" height="150"/>
	<rect x="771.5" y="523.5" fill="none" stroke="#000000" stroke-width="0.25" width="100" height="150"/>
</g>
<g>
	<rect x="120.5" y="-41.501" width="2" height="73"/>
	<rect x="118.875" y="108.499" width="5.25" height="73"/>
	<rect x="117.25" y="258.499" width="8.5" height="73"/>
	<rect x="115.75" y="408.5" width="11.5" height="73"/>
	<rect x="114.25" y="558.5" width="14.5" height="73"/>
</g>
<g>
	<g>
		<rect x="201.5" y="558.5" width="14.5" height="73"/>
		<rect x="227" y="558.5" width="14.5" height="73"/>
	</g>
	<g>
		<rect x="203.125" y="408.5" width="11.5" height="73"/>
		<rect x="228.375" y="408.5" width="11.5" height="73"/>
	</g>
	<g>
		<rect x="204.75" y="258.5" width="8.5" height="73"/>
		<rect x="229.75" y="258.5" width="8.5" height="73"/>
	</g>
	<g>
		<rect x="206.875" y="108.5" width="5.25" height="73"/>
		<rect x="230.875" y="108.5" width="5.25" height="73"/>
	</g>
	<g>
		<rect x="209" y="-41.5" width="2" height="73"/>
		<rect x="232" y="-41.5" width="2" height="73"/>
	</g>
</g>
<g>
	<g>
		<rect x="290.75" y="558.5" width="14.5" height="73"/>
		<rect x="314.25" y="558.5" width="14.5" height="73"/>
		<rect x="337.75" y="558.5" width="14.5" height="73"/>
	</g>
	<g>
		<rect x="292.5" y="408.5" width="11.5" height="73"/>
		<rect x="315.75" y="408.5" width="11.5" height="73"/>
		<rect x="339" y="408.5" width="11.5" height="73"/>
	</g>
	<g>
		<rect x="294.25" y="258.5" width="8.5" height="73"/>
		<rect x="317.25" y="258.5" width="8.5" height="73"/>
		<rect x="340.25" y="258.5" width="8.5" height="73"/>
	</g>
	<g>
		<rect x="296.875" y="108.5" width="5.25" height="73"/>
		<rect x="318.875" y="108.5" width="5.25" height="73"/>
		<rect x="340.875" y="108.5" width="5.25" height="73"/>
	</g>
	<g>
		<rect x="299.5" y="-41.5" width="2" height="73"/>
		<rect x="320.5" y="-41.5" width="2" height="73"/>
		<rect x="341.5" y="-41.5" width="2" height="73"/>
	</g>
</g>
<g>
	<polygon points="521.8,620.5 531,558.5 545,558.5 529.5,631.5 513.5,631.5 498,558.5 512.4,558.5 521.601,620.5 	"/>
	<polygon points="521.8,472.5 533.15,408.5 544.25,408.5 528,481.5 515,481.5 498.75,408.5 510.25,408.5 521.601,472.5 	"/>
	<polygon points="521.8,324.5 535.3,258.5 543.5,258.5 526.5,331.5 516.5,331.5 499.5,258.5 508.101,258.5 521.601,324.5 	"/>
	<polygon points="521.699,177 537.365,108.5 542.5,108.5 524.825,181.5 518.175,181.5 500.5,108.5 505.834,108.5 521.5,177 	"/>
	<polygon points="521.6,29.5 539.432,-41.5 541.5,-41.5 523.15,31.5 519.85,31.5 501.5,-41.5 503.567,-41.5 521.4,29.5 	"/>
</g>
<g>
	<g>
		<rect x="392" y="558.5" width="14.5" height="73"/>
		<polygon points="433.3,620.5 442.5,558.5 456.5,558.5 441,631.5 425,631.5 409.5,558.5 423.9,558.5 433.101,620.5 		"/>
	</g>
	<g>
		<rect x="393.875" y="408.5" width="11.5" height="73"/>
		<polygon points="432.3,472.5 443.65,408.5 454.75,408.5 438.5,481.5 425.5,481.5 409.25,408.5 420.75,408.5 432.101,472.5 		"/>
	</g>
	<g>
		<rect x="395.75" y="258.5" width="8.5" height="73"/>
		<polygon points="431.3,324.5 444.8,258.5 453,258.5 436,331.5 426,331.5 409,258.5 417.601,258.5 431.101,324.5 		"/>
	</g>
	<g>
		<rect x="397.875" y="108.5" width="5.25" height="73"/>
		<polygon points="430.199,177 445.865,108.5 451,108.5 433.325,181.5 426.675,181.5 409,108.5 414.334,108.5 430,177 		"/>
	</g>
	<g>
		<rect x="400" y="-41.5" width="2" height="73"/>
		<polygon points="429.1,29.5 446.932,-41.5 449,-41.5 430.65,31.5 427.35,31.5 409,-41.5 411.067,-41.5 428.9,29.5 		"/>
	</g>
</g>
<g>
	<g>
		<rect x="636.5" y="558.5" width="14.5" height="73"/>
		<polygon points="609.7,620.5 600.5,558.5 586.5,558.5 602,631.5 618,631.5 633.5,558.5 619.1,558.5 609.899,620.5 		"/>
	</g>
	<g>
		<rect x="637.625" y="408.5" width="11.5" height="73"/>
		<polygon points="610.7,472.5 599.35,408.5 588.25,408.5 604.5,481.5 617.5,481.5 633.75,408.5 622.25,408.5 610.899,472.5 		"/>
	</g>
	<g>
		<rect x="638.75" y="258.5" width="8.5" height="73"/>
		<polygon points="611.7,324.5 598.2,258.5 590,258.5 607,331.5 617,331.5 634,258.5 625.399,258.5 611.899,324.5 		"/>
	</g>
	<g>
		<rect x="639.875" y="108.5" width="5.25" height="73"/>
		<polygon points="612.801,177 597.135,108.5 592,108.5 609.675,181.5 616.325,181.5 634,108.5 628.666,108.5 613,177 		"/>
	</g>
	<g>
		<rect x="641" y="-41.5" width="2" height="73"/>
		<polygon points="613.9,29.5 596.068,-41.5 594,-41.5 612.35,31.5 615.65,31.5 634,-41.5 631.933,-41.5 614.1,29.5 		"/>
	</g>
</g>
<g>
	<g>
		<polygon points="704.6,29.5 722.432,-41.5 724.5,-41.5 706.15,31.5 702.85,31.5 684.5,-41.5 686.567,-41.5 704.4,29.5 		"/>
		<rect x="730.5" y="-41.5" width="2" height="73"/>
		<rect x="749.5" y="-41.5" width="2" height="73"/>
	</g>
	<g>
		<polygon points="704.199,177 719.74,108.5 724.875,108.5 707.325,181.5 700.675,181.5 683.125,108.5 688.459,108.5 704,177 		"/>
		<rect x="729.375" y="108.5" width="5.125" height="73"/>
		<rect x="748.375" y="108.5" width="5.125" height="73"/>
	</g>
	<g>
		<polygon points="703.8,324.5 717.05,258.5 725.25,258.5 708.5,331.5 698.5,331.5 681.75,258.5 690.351,258.5 703.601,324.5 		"/>
		<rect x="728.25" y="258.5" width="8.25" height="73"/>
		<rect x="747.25" y="258.5" width="8.25" height="73"/>
	</g>
	<g>
		<polygon points="703.05,472.5 714.025,408.5 725.125,408.5 709.25,481.5 696.25,481.5 680.375,408.5 691.875,408.5 702.851,472.5 
					"/>
		<rect x="727.375" y="408.5" width="11.125" height="73"/>
		<rect x="746.375" y="408.5" width="11.125" height="73"/>
	</g>
	<g>
		<polygon points="702.3,620.5 711,558.5 725,558.5 710,631.5 694,631.5 679,558.5 693.4,558.5 702.101,620.5 		"/>
		<rect x="726.5" y="558.5" width="14" height="73"/>
		<rect x="745.5" y="558.5" width="14" height="73"/>
	</g>
</g>
<g>
	<g>
		<polygon points="798.1,29.5 815.932,-41.5 818,-41.5 799.65,31.5 796.35,31.5 778,-41.5 780.067,-41.5 797.9,29.5 		"/>
		<rect x="823" y="-41.5" width="2" height="73"/>
		<rect x="840" y="-41.5" width="2" height="73"/>
		<rect x="857" y="-41.5" width="2" height="73"/>
	</g>
	<g>
		<polygon points="797.574,177 812.865,108.5 818,108.5 800.7,181.5 794.05,181.5 776.75,108.5 782.084,108.5 797.375,177 		"/>
		<rect x="821.75" y="108.5" width="5" height="73"/>
		<rect x="838.875" y="108.5" width="5" height="73"/>
		<rect x="856" y="108.5" width="5" height="73"/>
	</g>
	<g>
		<polygon points="797.05,324.5 809.8,258.5 818,258.5 801.75,331.5 791.75,331.5 775.5,258.5 784.101,258.5 796.851,324.5 		"/>
		<rect x="820.5" y="258.5" width="8" height="73"/>
		<rect x="837.75" y="258.5" width="8" height="73"/>
		<rect x="855" y="258.5" width="8" height="73"/>
	</g>
	<g>
		<polygon points="796.175,472.5 806.4,408.5 817.5,408.5 802.375,481.5 789.375,481.5 774.25,408.5 785.75,408.5 795.976,472.5 		
			"/>
		<rect x="819.5" y="408.5" width="10.75" height="73"/>
		<rect x="836.875" y="408.5" width="10.75" height="73"/>
		<rect x="854.25" y="408.5" width="10.75" height="73"/>
	</g>
	<g>
		<polygon points="795.3,620.5 803,558.5 817,558.5 803,631.5 787,631.5 773,558.5 787.4,558.5 795.101,620.5 		"/>
		<rect x="818.5" y="558.5" width="13.5" height="73"/>
		<rect x="836" y="558.5" width="13.5" height="73"/>
		<rect x="853.5" y="558.5" width="13.5" height="73"/>
	</g>
</g>
</svg>
