<?xml version="1.0" encoding="utf-8"?>
<!-- Generator: Adobe Illustrator 15.0.2, SVG Export Plug-In . SVG Version: 6.00 Build 0)  -->
<!DOCTYPE svg PUBLIC "-//W3C//DTD SVG 1.1//EN" "http://www.w3.org/Graphics/SVG/1.1/DTD/svg11.dtd">
<svg version="1.1" id="レイヤー1" xmlns="http://www.w3.org/2000/svg" xmlns:xlink="http://www.w3.org/1999/xlink" x="0px"
	 y="0px" width="841.89px" height="595.275px" viewBox="0 0 841.89 595.275" enable-background="new 0 0 841.89 595.275"
	 xml:space="preserve">
<g>
	<rect x="71.5" y="-76.5" fill="none" stroke="#000000" stroke-width="0.25" width="100" height="150"/>
	<rect x="71.5" y="73.5" fill="none" stroke="#000000" stroke-width="0.25" width="100" height="150"/>
	<rect x="71.5" y="223.5" fill="none" stroke="#000000" stroke-width="0.25" width="100" height="150"/>
	<rect x="71.5" y="373.5" fill="none" stroke="#000000" stroke-width="0.25" width="100" height="150"/>
	<rect x="71.5" y="523.5" fill="none" stroke="#000000" stroke-width="0.25" width="100" height="150"/>
	<rect x="171.5" y="-76.5" fill="none" stroke="#000000" stroke-width="0.25" width="100" height="150"/>
	<rect x="171.5" y="73.5" fill="none" stroke="#000000" stroke-width="0.25" width="100" height="150"/>
	<rect x="171.5" y="223.5" fill="none" stroke="#000000" stroke-width="0.25" width="100" height="150"/>
	<rect x="171.5" y="373.5" fill="none" stroke="#000000" stroke-width="0.25" width="100" height="150"/>
	<rect x="171.5" y="523.5" fill="none" stroke="#000000" stroke-width="0.25" width="100" height="150"/>
	<rect x="271.5" y="-76.5" fill="none" stroke="#000000" stroke-width="0.25" width="100" height="150"/>
	<rect x="271.5" y="73.5" fill="none" stroke="#000000" stroke-width="0.25" width="100" height="150"/>
	<rect x="271.5" y="223.5" fill="none" stroke="#000000" stroke-width="0.25" width="100" height="150"/>
	<rect x="271.5" y="373.5" fill="none" stroke="#000000" stroke-width="0.25" width="100" height="150"/>
	<rect x="271.5" y="523.5" fill="none" stroke="#000000" stroke-width="0.25" width="100" height="150"/>
	<rect x="371.5" y="-76.5" fill="none" stroke="#000000" stroke-width="0.25" width="100" height="150"/>
	<rect x="371.5" y="73.5" fill="none" stroke="#000000" stroke-width="0.25" width="100" height="150"/>
	<rect x="371.5" y="223.5" fill="none" stroke="#000000" stroke-width="0.25" width="100" height="150"/>
	<rect x="371.5" y="373.5" fill="none" stroke="#000000" stroke-width="0.25" width="100" height="150"/>
	<rect x="371.5" y="523.5" fill="none" stroke="#000000" stroke-width="0.25" width="100" height="150"/>
	<rect x="471.5" y="-76.5" fill="none" stroke="#000000" stroke-width="0.25" width="100" height="150"/>
	<rect x="471.5" y="73.5" fill="none" stroke="#000000" stroke-width="0.25" width="100" height="150"/>
	<rect x="471.5" y="223.5" fill="none" stroke="#000000" stroke-width="0.25" width="100" height="150"/>
	<rect x="471.5" y="373.5" fill="none" stroke="#000000" stroke-width="0.25" width="100" height="150"/>
	<rect x="471.5" y="523.5" fill="none" stroke="#000000" stroke-width="0.25" width="100" height="150"/>
	<rect x="571.5" y="-76.5" fill="none" stroke="#000000" stroke-width="0.25" width="100" height="150"/>
	<rect x="571.5" y="73.5" fill="none" stroke="#000000" stroke-width="0.25" width="100" height="150"/>
	<rect x="571.5" y="223.5" fill="none" stroke="#000000" stroke-width="0.25" width="100" height="150"/>
	<rect x="571.5" y="373.5" fill="none" stroke="#000000" stroke-width="0.25" width="100" height="150"/>
	<rect x="571.5" y="523.5" fill="none" stroke="#000000" stroke-width="0.25" width="100" height="150"/>
	<rect x="671.5" y="-76.5" fill="none" stroke="#000000" stroke-width="0.25" width="100" height="150"/>
	<rect x="671.5" y="73.5" fill="none" stroke="#000000" stroke-width="0.25" width="100" height="150"/>
	<rect x="671.5" y="223.5" fill="none" stroke="#000000" stroke-width="0.25" width="100" height="150"/>
	<rect x="671.5" y="373.5" fill="none" stroke="#000000" stroke-width="0.25" width="100" height="150"/>
	<rect x="671.5" y="523.5" fill="none" stroke="#000000" stroke-width="0.25" width="100" height="150"/>
	<rect x="771.5" y="-76.5" fill="none" stroke="#000000" stroke-width="0.25" width="100" height="150"/>
	<rect x="771.5" y="73.5" fill="none" stroke="#000000" stroke-width="0.25" width="100" height="150"/>
	<rect x="771.5" y="223.5" fill="none" stroke="#000000" stroke-width="0.25" width="100" height="150"/>
	<rect x="771.5" y="373.5" fill="none" stroke="#000000" stroke-width="0.25" width="100" height="150"/>
	<rect x="771.5" y="523.5" fill="none" stroke="#000000" stroke-width="0.25" width="100" height="150"/>
</g>
<g>
	<polygon points="221.6,584.5 214.2,558.5 199.25,558.5 212.5,594.5 199,631.5 213.8,631.5 221.199,604.5 221.399,604.5 
		228.8,631.5 244,631.5 230.5,594.5 243.75,558.5 229.2,558.5 221.8,584.5 	"/>
	<polygon points="221.6,436 212.325,408.5 200.5,408.5 214.5,444.25 200.25,481.5 211.925,481.5 221.199,452.75 221.399,452.75 
		230.675,481.5 242.75,481.5 228.5,444.25 242.5,408.5 231.075,408.5 221.8,436 	"/>
	<polygon points="221.6,287.5 210.45,258.5 201.75,258.5 216.5,294 201.5,331.5 210.05,331.5 221.199,301 221.399,301 232.55,331.5 
		241.5,331.5 226.5,294 241.25,258.5 232.95,258.5 221.8,287.5 	"/>
	<polygon points="221.5,149.055 234.93,181.5 240.5,181.5 224.548,144.364 240.25,108.5 235.005,108.5 221.7,139.923 221.5,139.923 
		208.195,108.5 202.75,108.5 218.452,144.364 202.5,181.5 207.87,181.5 221.3,149.055 	"/>
	<polygon points="221.6,-2.89 237.31,31.5 239.5,31.5 222.596,-5.271 239.25,-41.5 237.06,-41.5 221.6,-7.654 221.4,-7.654 
		205.94,-41.5 203.75,-41.5 220.404,-5.271 203.5,31.5 205.69,31.5 221.4,-2.89 	"/>
</g>
<g>
	<g>
		<rect x="100.5" y="-41.5" width="2" height="73"/>
		<polygon points="129.35,-2.89 145.06,31.5 147.25,31.5 130.346,-5.271 147,-41.5 144.81,-41.5 129.35,-7.654 129.15,-7.654 
			113.69,-41.5 111.5,-41.5 128.154,-5.271 111.25,31.5 113.44,31.5 129.15,-2.89 		"/>
	</g>
	<g>
		<rect x="98.375" y="108.5" width="5.25" height="73"/>
		<polygon points="130.5,139.923 117.195,108.5 111.75,108.5 127.452,144.364 111.5,181.5 116.87,181.5 130.3,149.055 
			130.5,149.055 143.93,181.5 149.5,181.5 133.548,144.364 149.25,108.5 144.005,108.5 130.7,139.923 		"/>
	</g>
	<g>
		<rect x="96.25" y="258.5" width="8.5" height="73"/>
		<polygon points="131.85,287.5 120.7,258.5 112,258.5 126.75,294 111.75,331.5 120.3,331.5 131.449,301 131.649,301 142.8,331.5 
			151.75,331.5 136.75,294 151.5,258.5 143.2,258.5 132.05,287.5 		"/>
	</g>
	<g>
		<rect x="94.125" y="408.5" width="11.5" height="73"/>
		<polygon points="132.85,436 123.575,408.5 111.75,408.5 125.75,444.25 111.5,481.5 123.175,481.5 132.449,452.75 132.649,452.75 
			141.925,481.5 154,481.5 139.75,444.25 153.75,408.5 142.325,408.5 133.05,436 		"/>
	</g>
	<g>
		<rect x="92" y="558.5" width="14.5" height="73"/>
		<polygon points="133.85,584.5 126.45,558.5 111.5,558.5 124.75,594.5 111.25,631.5 126.05,631.5 133.449,604.5 133.649,604.5 
			141.05,631.5 156.25,631.5 142.75,594.5 156,558.5 141.45,558.5 134.05,584.5 		"/>
	</g>
</g>
<g>
	<g>
		<rect x="340.5" y="-41.5" width="2" height="73"/>
		<polygon points="313.65,-2.89 297.94,31.5 295.75,31.5 312.654,-5.271 296,-41.5 298.19,-41.5 313.65,-7.654 313.85,-7.654 
			329.31,-41.5 331.5,-41.5 314.846,-5.271 331.75,31.5 329.56,31.5 313.85,-2.89 		"/>
	</g>
	<g>
		<rect x="339.375" y="108.5" width="5.25" height="73"/>
		<polygon points="312.5,139.923 325.805,108.5 331.25,108.5 315.548,144.364 331.5,181.5 326.13,181.5 312.7,149.055 
			312.5,149.055 299.07,181.5 293.5,181.5 309.452,144.364 293.75,108.5 298.995,108.5 312.3,139.923 		"/>
	</g>
	<g>
		<rect x="338.25" y="258.5" width="8.5" height="73"/>
		<polygon points="311.15,287.5 322.3,258.5 331,258.5 316.25,294 331.25,331.5 322.7,331.5 311.551,301 311.351,301 300.2,331.5 
			291.25,331.5 306.25,294 291.5,258.5 299.8,258.5 310.95,287.5 		"/>
	</g>
	<g>
		<rect x="337.375" y="408.5" width="11.5" height="73"/>
		<polygon points="310.15,436 319.425,408.5 331.25,408.5 317.25,444.25 331.5,481.5 319.825,481.5 310.551,452.75 310.351,452.75 
			301.075,481.5 289,481.5 303.25,444.25 289.25,408.5 300.675,408.5 309.95,436 		"/>
	</g>
	<g>
		<rect x="336.5" y="558.5" width="14.5" height="73"/>
		<polygon points="309.15,584.5 316.55,558.5 331.5,558.5 318.25,594.5 331.75,631.5 316.95,631.5 309.551,604.5 309.351,604.5 
			301.95,631.5 286.75,631.5 300.25,594.5 287,558.5 301.55,558.5 308.95,584.5 		"/>
	</g>
</g>
<g>
	<g>
		<polygon points="405.65,-2.89 389.94,31.5 387.75,31.5 404.654,-5.271 388,-41.5 390.19,-41.5 405.65,-7.654 405.85,-7.654 
			421.31,-41.5 423.5,-41.5 406.846,-5.271 423.75,31.5 421.56,31.5 405.85,-2.89 		"/>
		<rect x="432.5" y="-41.5" width="2" height="73"/>
		<rect x="451.5" y="-41.5" width="2" height="73"/>
	</g>
	<g>
		<polygon points="404.875,139.923 405.075,139.923 418.255,108.5 423.5,108.5 407.923,144.364 423.75,181.5 418.18,181.5 
			404.875,149.055 404.675,149.055 391.37,181.5 386,181.5 401.827,144.364 386.25,108.5 391.695,108.5 		"/>
		<rect x="431" y="108.5" width="5.125" height="73"/>
		<rect x="450" y="108.5" width="5.125" height="73"/>
	</g>
	<g>
		<polygon points="404.1,287.5 393.2,258.5 384.5,258.5 399,294 384.25,331.5 392.8,331.5 403.699,301 403.899,301 414.8,331.5 
			423.75,331.5 409,294 423.5,258.5 415.2,258.5 404.3,287.5 		"/>
		<rect x="429.5" y="258.5" width="8.25" height="73"/>
		<rect x="448.5" y="258.5" width="8.25" height="73"/>
	</g>
	<g>
		<polygon points="403.475,436 412.375,408.5 424,408.5 410.375,444.25 424.25,481.5 412.375,481.5 403.475,452.75 403.275,452.75 
			394.375,481.5 382.5,481.5 396.375,444.25 382.75,408.5 394.375,408.5 403.275,436 		"/>
		<rect x="428.25" y="408.5" width="11.125" height="73"/>
		<rect x="447.25" y="408.5" width="11.125" height="73"/>
	</g>
	<g>
		<polygon points="402.65,584.5 409.55,558.5 424.5,558.5 411.75,594.5 424.75,631.5 409.95,631.5 403.051,604.5 402.851,604.5 
			395.95,631.5 380.75,631.5 393.75,594.5 381,558.5 395.55,558.5 402.45,584.5 		"/>
		<rect x="427" y="558.5" width="14" height="73"/>
		<rect x="446" y="558.5" width="14" height="73"/>
	</g>
</g>
<g>
	<polygon points="838.5,31.5 840.5,31.5 840.5,-41.5 836.96,-41.5 821.6,9.5 821.4,9.5 806.04,-41.5 802.5,-41.5 802.5,31.5 
		804.5,31.5 804.5,-39 804.7,-39 819.93,11.5 823.07,11.5 838.3,-39 838.5,-39 	"/>
	<polygon points="836.4,181.5 841.5,181.5 841.5,108.5 835.33,108.5 821.699,156.5 821.5,156.5 807.87,108.5 801.5,108.5 
		801.5,181.5 806.4,181.5 806.4,119.25 806.6,119.25 818.615,161.5 824.186,161.5 836.199,119.25 836.4,119.25 	"/>
	<polygon points="834.3,277.5 834.3,331.5 842.5,331.5 842.5,258.5 833.7,258.5 821.8,303.5 821.601,303.5 809.7,258.5 800.5,258.5 
		800.5,331.5 808.3,331.5 808.3,277.5 808.5,277.5 817.3,311.5 825.3,311.5 834.1,277.5 	"/>
	<polygon points="832.3,429.5 832.3,481.5 843.25,481.5 843.25,408.5 830.7,408.5 821.8,451 821.601,451 812.7,408.5 799.75,408.5 
		799.75,481.5 810.3,481.5 810.3,429.5 810.5,429.5 816.8,461.5 825.8,461.5 832.1,429.5 	"/>
	<polygon points="830.3,581.5 830.3,631.5 844,631.5 844,558.5 827.7,558.5 821.8,598.5 821.601,598.5 815.7,558.5 799,558.5 
		799,631.5 812.3,631.5 812.3,581.5 812.5,581.5 816.3,611.5 826.3,611.5 830.1,581.5 	"/>
</g>
<g>
	<polygon points="519.5,558.5 505.5,558.5 505.5,631.5 541.5,631.5 541.5,619.5 519.5,619.5 	"/>
	<polygon points="517.1,408.5 506,408.5 506,481.5 540.5,481.5 540.5,471.9 517.1,471.9 	"/>
	<polygon points="514.7,258.5 506.5,258.5 506.5,331.5 539.5,331.5 539.5,324.3 514.7,324.3 	"/>
	<polygon points="512.35,108.5 507.25,108.5 507.25,181.5 539.25,181.5 539.25,176.9 512.35,176.9 	"/>
	<polygon points="510,-41.5 508,-41.5 508,31.5 539,31.5 539,29.5 510,29.5 	"/>
</g>
<g>
	<path d="M625,30.5c-11.269,0-19-9.914-19-35.5c0-26.141,7.235-35.5,19-35.5c4.386,0,7.078,0.76,11.5,3.5v-2.323
		c-4.064-2.372-7.021-3.177-11.5-3.177c-14.131,0-21,12.267-21,37.5c0,30.994,11.42,37.5,21,37.5c4.507,0,7.873-0.894,12-3.202V27
		C632.622,29.615,629.451,30.5,625,30.5z"/>
	<path d="M638,174.25c-4.326,2.612-7.975,3.65-12.25,3.65c-10.711,0-17.75-8.72-17.75-32.9c0-24.126,6.865-32.9,17.75-32.9
		c4.242,0,7.336,0.837,11.75,3.4v-4.912c-4.074-2.242-7.463-3.088-12-3.088c-14.729,0-22.5,11.318-22.5,37.5
		c0,29.488,9.932,37.5,22.5,37.5c4.551,0,8.38-0.921,12.5-3.101V174.25z"/>
	<path d="M602,295c0,27.981,8.443,37.5,24,37.5c4.595,0,8.887-0.949,13-3v-8c-4.274,2.609-8.4,3.8-12.5,3.8
		c-10.154,0-16.5-7.525-16.5-30.3c0-22.112,6.496-30.3,16.5-30.3c4.1,0,7.594,0.915,12,3.3v-7.5c-4.084-2.111-7.905-3-12.5-3
		C610.673,257.5,602,267.869,602,295z"/>
	<path d="M639.75,469.75v10c-4.321,1.834-9.139,2.75-14,2.75c-15.955,0-25-10.449-25-37.5c0-26.904,8.948-37.5,24.75-37.5
		c4.861,0,9.446,0.885,13.75,2.75v9.5c-4.867-2.156-8.168-2.9-12.25-2.9c-9.765,0-15.5,7.252-15.5,28.15
		c0,20.83,6.097,28.15,15.75,28.15C631.333,473.15,635.021,472.199,639.75,469.75z"/>
	<path d="M599.5,595c0-26.679,9.224-37.5,25.5-37.5c5.128,0,10.477,0.882,15,2.5v11.5c-5.329-1.927-8.436-2.5-12.5-2.5
		c-9.525,0-14.5,6.316-14.5,26c0,18.885,5.848,26,15,26c4.066,0,7.318-0.712,12.5-3v12c-4.529,1.616-9.873,2.5-15,2.5
		C609.147,632.5,599.5,621.119,599.5,595z"/>
</g>
<g>
	<path d="M744.5,595h-13.6c0,20.098-4.494,25.5-12.4,25.5c-1.406,0-2.999-0.202-4-0.5v-50c1-0.297,2.594-0.5,4-0.5
		c8.143,0,12.4,5.807,12.4,25.5H744.5c0-28.581-7.607-37.5-26-37.5c-5.096,0-13.306,0.699-18,1.5v72c4.69,0.812,12.904,1.5,18,1.5
		C736.496,632.5,744.5,624.043,744.5,595z"/>
	<path d="M743.75,445c0,28.699-8.416,37.5-26.15,37.5c-4.734,0-11.508-0.635-15.85-1.5v-72c4.344-0.86,11.115-1.5,15.85-1.5
		C735.715,407.5,743.75,416.791,743.75,445h-10.9c0-21.378-5.111-27.9-15.25-27.9c-1.67,0-3.562,0.265-4.75,0.65v54.5
		c1.188,0.387,3.08,0.65,4.75,0.65c10.1,0,15.25-5.689,15.25-27.9H743.75z"/>
	<path d="M743,295c0,28.356-8.828,37.5-26.3,37.5c-4.373,0-9.707-0.58-13.7-1.5v-72c3.993-0.92,9.327-1.5,13.7-1.5
		C734.537,257.5,743,267.162,743,295h-8.2c0-23.062-5.966-30.3-18.1-30.3c-1.934,0-4.125,0.325-5.5,0.8v59
		c1.374,0.477,3.565,0.8,5.5,0.8c12.292,0,18.1-5.977,18.1-30.3H743z"/>
	<path d="M737.4,144.5h5.1c0,27.671-8.003,38-24.65,38c-4.105,0-9.16-0.537-12.85-1.373v-72.254c3.51-0.796,8.758-1.373,12.85-1.373
		c16.942,0,24.65,10.118,24.65,37H737.4c0-23.784-6.025-32.4-19.551-32.4c-2.428,0-5.553,0.351-7.75,0.849v64.106
		c2.215,0.509,5.217,0.845,7.75,0.845C729.188,177.9,737.4,172.744,737.4,144.5z"/>
	<path d="M740-6c0,32.164-10.615,36.5-21,36.5c-3.133,0-6.944-0.349-10-0.891v-69.212c3.018-0.521,7.078-0.897,10-0.897
		C733.916-40.5,740-30.505,740-6h2c0-25.926-6.953-36.5-23-36.5c-3.811,0-8.975,0.574-12,1.246v72.508
		c3.387,0.753,8.161,1.246,12,1.246c15.822,0,23-11.514,23-38.5H740z"/>
</g>
</svg>
