<?xml version="1.0" encoding="utf-8"?>
<!-- Generator: Adobe Illustrator 15.0.2, SVG Export Plug-In . SVG Version: 6.00 Build 0)  -->
<!DOCTYPE svg PUBLIC "-//W3C//DTD SVG 1.1//EN" "http://www.w3.org/Graphics/SVG/1.1/DTD/svg11.dtd">
<svg version="1.1" id="レイヤー1" xmlns="http://www.w3.org/2000/svg" xmlns:xlink="http://www.w3.org/1999/xlink" x="0px"
	 y="0px" width="841.89px" height="595.275px" viewBox="0 0 841.89 595.275" enable-background="new 0 0 841.89 595.275"
	 xml:space="preserve">
<g>
	<rect x="71.5" y="-76.5" fill="none" stroke="#000000" stroke-width="0.25" width="100" height="150"/>
	<rect x="71.5" y="73.5" fill="none" stroke="#000000" stroke-width="0.25" width="100" height="150"/>
	<rect x="71.5" y="223.5" fill="none" stroke="#000000" stroke-width="0.25" width="100" height="150"/>
	<rect x="71.5" y="373.5" fill="none" stroke="#000000" stroke-width="0.25" width="100" height="150"/>
	<rect x="71.5" y="523.5" fill="none" stroke="#000000" stroke-width="0.25" width="100" height="150"/>
	<rect x="171.5" y="-76.5" fill="none" stroke="#000000" stroke-width="0.25" width="100" height="150"/>
	<rect x="171.5" y="73.5" fill="none" stroke="#000000" stroke-width="0.25" width="100" height="150"/>
	<rect x="171.5" y="223.5" fill="none" stroke="#000000" stroke-width="0.25" width="100" height="150"/>
	<rect x="171.5" y="373.5" fill="none" stroke="#000000" stroke-width="0.25" width="100" height="150"/>
	<rect x="171.5" y="523.5" fill="none" stroke="#000000" stroke-width="0.25" width="100" height="150"/>
	<rect x="271.5" y="-76.5" fill="none" stroke="#000000" stroke-width="0.25" width="100" height="150"/>
	<rect x="271.5" y="73.5" fill="none" stroke="#000000" stroke-width="0.25" width="100" height="150"/>
	<rect x="271.5" y="223.5" fill="none" stroke="#000000" stroke-width="0.25" width="100" height="150"/>
	<rect x="271.5" y="373.5" fill="none" stroke="#000000" stroke-width="0.25" width="100" height="150"/>
	<rect x="271.5" y="523.5" fill="none" stroke="#000000" stroke-width="0.25" width="100" height="150"/>
	<rect x="371.5" y="-76.5" fill="none" stroke="#000000" stroke-width="0.25" width="100" height="150"/>
	<rect x="371.5" y="73.5" fill="none" stroke="#000000" stroke-width="0.25" width="100" height="150"/>
	<rect x="371.5" y="223.5" fill="none" stroke="#000000" stroke-width="0.25" width="100" height="150"/>
	<rect x="371.5" y="373.5" fill="none" stroke="#000000" stroke-width="0.25" width="100" height="150"/>
	<rect x="371.5" y="523.5" fill="none" stroke="#000000" stroke-width="0.25" width="100" height="150"/>
	<rect x="471.5" y="-76.5" fill="none" stroke="#000000" stroke-width="0.25" width="100" height="150"/>
	<rect x="471.5" y="73.5" fill="none" stroke="#000000" stroke-width="0.25" width="100" height="150"/>
	<rect x="471.5" y="223.5" fill="none" stroke="#000000" stroke-width="0.25" width="100" height="150"/>
	<rect x="471.5" y="373.5" fill="none" stroke="#000000" stroke-width="0.25" width="100" height="150"/>
	<rect x="471.5" y="523.5" fill="none" stroke="#000000" stroke-width="0.25" width="100" height="150"/>
	<rect x="571.5" y="-76.5" fill="none" stroke="#000000" stroke-width="0.25" width="100" height="150"/>
	<rect x="571.5" y="73.5" fill="none" stroke="#000000" stroke-width="0.25" width="100" height="150"/>
	<rect x="571.5" y="223.5" fill="none" stroke="#000000" stroke-width="0.25" width="100" height="150"/>
	<rect x="571.5" y="373.5" fill="none" stroke="#000000" stroke-width="0.25" width="100" height="150"/>
	<rect x="571.5" y="523.5" fill="none" stroke="#000000" stroke-width="0.25" width="100" height="150"/>
	<rect x="671.5" y="-76.5" fill="none" stroke="#000000" stroke-width="0.25" width="100" height="150"/>
	<rect x="671.5" y="73.5" fill="none" stroke="#000000" stroke-width="0.25" width="100" height="150"/>
	<rect x="671.5" y="223.5" fill="none" stroke="#000000" stroke-width="0.25" width="100" height="150"/>
	<rect x="671.5" y="373.5" fill="none" stroke="#000000" stroke-width="0.25" width="100" height="150"/>
	<rect x="671.5" y="523.5" fill="none" stroke="#000000" stroke-width="0.25" width="100" height="150"/>
	<rect x="771.5" y="-76.5" fill="none" stroke="#000000" stroke-width="0.25" width="100" height="150"/>
	<rect x="771.5" y="73.5" fill="none" stroke="#000000" stroke-width="0.25" width="100" height="150"/>
	<rect x="771.5" y="223.5" fill="none" stroke="#000000" stroke-width="0.25" width="100" height="150"/>
	<rect x="771.5" y="373.5" fill="none" stroke="#000000" stroke-width="0.25" width="100" height="150"/>
	<rect x="771.5" y="523.5" fill="none" stroke="#000000" stroke-width="0.25" width="100" height="150"/>
</g>
<g>
	<g>
		<rect x="120.5" y="-43.5" width="2" height="11"/>
		<rect x="120.5" y="-20.5" width="2" height="52"/>
	</g>
	<g>
		<rect x="118.875" y="106.5" width="5.25" height="11"/>
		<rect x="118.875" y="129.5" width="5.25" height="52"/>
	</g>
	<g>
		<rect x="117.25" y="256.5" width="8.5" height="11"/>
		<rect x="117.25" y="279.5" width="8.5" height="52"/>
	</g>
	<g>
		<rect x="115.75" y="406.5" width="11.5" height="12.5"/>
		<rect x="115.75" y="429.5" width="11.5" height="52"/>
	</g>
	<g>
		<rect x="114.25" y="556.5" width="14.5" height="14"/>
		<rect x="114.25" y="579.5" width="14.5" height="51.999"/>
	</g>
</g>
<g>
	<g>
		<g>
			<rect x="201.5" y="556.501" width="14.5" height="14"/>
			<rect x="201.5" y="579.501" width="14.5" height="52"/>
		</g>
		<g>
			<rect x="227" y="556.501" width="14.5" height="14"/>
			<rect x="227" y="579.501" width="14.5" height="52"/>
		</g>
	</g>
	<g>
		<g>
			<rect x="203.125" y="406.5" width="11.5" height="12.5"/>
			<rect x="203.125" y="429.5" width="11.5" height="52"/>
		</g>
		<g>
			<rect x="228.375" y="406.5" width="11.5" height="12.5"/>
			<rect x="228.375" y="429.5" width="11.5" height="52"/>
		</g>
	</g>
	<g>
		<g>
			<rect x="204.75" y="256.5" width="8.5" height="11"/>
			<rect x="204.75" y="279.5" width="8.5" height="52"/>
		</g>
		<g>
			<rect x="229.75" y="256.5" width="8.5" height="11"/>
			<rect x="229.75" y="279.5" width="8.5" height="52"/>
		</g>
	</g>
	<g>
		<g>
			<rect x="206.875" y="106.5" width="5.25" height="11"/>
			<rect x="206.875" y="129.5" width="5.25" height="52"/>
		</g>
		<g>
			<rect x="230.875" y="106.5" width="5.25" height="11"/>
			<rect x="230.875" y="129.5" width="5.25" height="52"/>
		</g>
	</g>
	<g>
		<g>
			<rect x="209" y="-43.5" width="2" height="11"/>
			<rect x="209" y="-20.5" width="2" height="52"/>
		</g>
		<g>
			<rect x="232" y="-43.5" width="2" height="11"/>
			<rect x="232" y="-20.5" width="2" height="52"/>
		</g>
	</g>
</g>
<g>
	<g>
		<g>
			<rect x="290.75" y="556.501" width="14.5" height="14"/>
			<rect x="290.75" y="579.501" width="14.5" height="52"/>
		</g>
		<g>
			<rect x="314.25" y="556.501" width="14.5" height="14"/>
			<rect x="314.25" y="579.501" width="14.5" height="52"/>
		</g>
		<g>
			<rect x="337.75" y="556.501" width="14.5" height="14"/>
			<rect x="337.75" y="579.501" width="14.5" height="52"/>
		</g>
	</g>
	<g>
		<g>
			<rect x="292.5" y="406.5" width="11.5" height="12.5"/>
			<rect x="292.5" y="429.5" width="11.5" height="52"/>
		</g>
		<g>
			<rect x="315.75" y="406.5" width="11.5" height="12.5"/>
			<rect x="315.75" y="429.5" width="11.5" height="52"/>
		</g>
		<g>
			<rect x="339" y="406.5" width="11.5" height="12.5"/>
			<rect x="339" y="429.5" width="11.5" height="52"/>
		</g>
	</g>
	<g>
		<g>
			<rect x="294.25" y="256.5" width="8.5" height="11"/>
			<rect x="294.25" y="279.5" width="8.5" height="52"/>
		</g>
		<g>
			<rect x="317.25" y="256.5" width="8.5" height="11"/>
			<rect x="317.25" y="279.5" width="8.5" height="52"/>
		</g>
		<g>
			<rect x="340.25" y="256.5" width="8.5" height="11"/>
			<rect x="340.25" y="279.5" width="8.5" height="52"/>
		</g>
	</g>
	<g>
		<g>
			<rect x="296.875" y="106.5" width="5.25" height="11"/>
			<rect x="296.875" y="129.5" width="5.25" height="52"/>
		</g>
		<g>
			<rect x="318.875" y="106.5" width="5.25" height="11"/>
			<rect x="318.875" y="129.5" width="5.25" height="52"/>
		</g>
		<g>
			<rect x="340.875" y="106.5" width="5.25" height="11"/>
			<rect x="340.875" y="129.5" width="5.25" height="52"/>
		</g>
	</g>
	<g>
		<g>
			<rect x="299.5" y="-43.5" width="2" height="11"/>
			<rect x="299.5" y="-20.5" width="2" height="52"/>
		</g>
		<g>
			<rect x="320.5" y="-43.5" width="2" height="11"/>
			<rect x="320.5" y="-20.5" width="2" height="52"/>
		</g>
		<g>
			<rect x="341.5" y="-43.5" width="2" height="11"/>
			<rect x="341.5" y="-20.5" width="2" height="52"/>
		</g>
	</g>
</g>
<g>
	<polygon points="521.6,622.5 513.7,579.5 499.5,579.5 512.5,631.5 530.5,631.5 543.5,579.5 529.7,579.5 521.8,622.5 	"/>
	<polygon points="521.6,474 511.9,429.5 500.5,429.5 514.25,481.5 528.75,481.5 542.5,429.5 531.5,429.5 521.8,474 	"/>
	<polygon points="521.6,325.5 510.101,279.5 501.5,279.5 516,331.5 527,331.5 541.5,279.5 533.3,279.5 521.8,325.5 	"/>
	<polygon points="521.5,177.55 507.85,129.5 502.5,129.5 518,181.5 525,181.5 540.5,129.5 535.35,129.5 521.699,177.55 	"/>
	<polygon points="521.399,29.6 505.6,-20.5 503.5,-20.5 520,31.5 523,31.5 539.5,-20.5 537.4,-20.5 521.6,29.6 	"/>
</g>
<g>
	<g>
		<g>
			<rect x="401.5" y="-43.5" width="2" height="11"/>
			<rect x="401.5" y="-20.5" width="2" height="52"/>
		</g>
		<polygon points="428.399,29.6 412.6,-20.5 410.5,-20.5 427,31.5 430,31.5 446.5,-20.5 444.4,-20.5 428.6,29.6 		"/>
	</g>
	<g>
		<g>
			<rect x="399.375" y="106.5" width="5.25" height="11.75"/>
			<rect x="399.375" y="129.5" width="5.25" height="52"/>
		</g>
		<polygon points="429.75,177.55 416.1,129.5 410.75,129.5 426.25,181.5 433.25,181.5 448.75,129.5 443.6,129.5 429.949,177.55 		
			"/>
	</g>
	<g>
		<g>
			<rect x="397.25" y="256.5" width="8.5" height="12.5"/>
			<rect x="397.25" y="279.5" width="8.5" height="52"/>
		</g>
		<polygon points="431.1,325.5 419.601,279.5 411,279.5 425.5,331.5 436.5,331.5 451,279.5 442.8,279.5 431.3,325.5 		"/>
	</g>
	<g>
		<g>
			<rect x="395.125" y="406.5" width="11.5" height="13.25"/>
			<rect x="395.125" y="429.5" width="11.5" height="52"/>
		</g>
		<polygon points="432.35,474 422.65,429.5 411.25,429.5 425,481.5 439.5,481.5 453.25,429.5 442.25,429.5 432.55,474 		"/>
	</g>
	<g>
		<g>
			<rect x="393" y="556.501" width="14.5" height="14"/>
			<rect x="393" y="579.501" width="14.5" height="52"/>
		</g>
		<polygon points="433.6,622.501 425.7,579.501 411.5,579.501 424.5,631.501 442.5,631.501 455.5,579.501 441.7,579.501 
			433.8,622.501 		"/>
	</g>
</g>
<g>
	<g>
		<g>
			<rect x="639.5" y="-43.5" width="2" height="11"/>
			<rect x="639.5" y="-20.5" width="2" height="52"/>
		</g>
		<polygon points="614.601,29.6 630.4,-20.5 632.5,-20.5 616,31.5 613,31.5 596.5,-20.5 598.6,-20.5 614.4,29.6 		"/>
	</g>
	<g>
		<g>
			<rect x="638.375" y="106.5" width="5.25" height="11.75"/>
			<rect x="638.375" y="129.5" width="5.25" height="52"/>
		</g>
		<polygon points="613.25,177.55 626.9,129.5 632.25,129.5 616.75,181.5 609.75,181.5 594.25,129.5 599.4,129.5 613.051,177.55 		
			"/>
	</g>
	<g>
		<g>
			<rect x="637.25" y="256.5" width="8.5" height="12.5"/>
			<rect x="637.25" y="279.5" width="8.5" height="52"/>
		</g>
		<polygon points="611.9,325.5 623.399,279.5 632,279.5 617.5,331.5 606.5,331.5 592,279.5 600.2,279.5 611.7,325.5 		"/>
	</g>
	<g>
		<g>
			<rect x="636.375" y="406.5" width="11.5" height="13.25"/>
			<rect x="636.375" y="429.5" width="11.5" height="52"/>
		</g>
		<polygon points="610.65,474 620.35,429.5 631.75,429.5 618,481.5 603.5,481.5 589.75,429.5 600.75,429.5 610.45,474 		"/>
	</g>
	<g>
		<g>
			<rect x="635.5" y="556.501" width="14.5" height="14"/>
			<rect x="635.5" y="579.501" width="14.5" height="52"/>
		</g>
		<polygon points="609.4,622.501 617.3,579.501 631.5,579.501 618.5,631.501 600.5,631.501 587.5,579.501 601.3,579.501 
			609.2,622.501 		"/>
	</g>
</g>
<g>
	<g>
		<polygon points="706.5,31.5 723,-20.5 720.9,-20.5 705.1,29.6 704.899,29.6 689.1,-20.5 687,-20.5 703.5,31.5 		"/>
		<g>
			<rect x="729" y="-43.5" width="2" height="11"/>
			<rect x="729" y="-20.5" width="2" height="52"/>
		</g>
		<g>
			<rect x="748" y="-43.5" width="2" height="11"/>
			<rect x="748" y="-20.5" width="2" height="52"/>
		</g>
	</g>
	<g>
		<polygon points="704.5,177.55 690.975,129.5 685.625,129.5 701,181.5 708,181.5 723.375,129.5 718.225,129.5 704.699,177.55 		"/>
		<g>
			<rect x="728.375" y="106.5" width="5.125" height="11.75"/>
			<rect x="728.375" y="129.5" width="5.125" height="52"/>
		</g>
		<g>
			<rect x="747.375" y="106.5" width="5.125" height="11.75"/>
			<rect x="747.375" y="129.5" width="5.125" height="52"/>
		</g>
	</g>
	<g>
		<polygon points="704.1,325.5 692.851,279.5 684.25,279.5 698.5,331.5 709.5,331.5 723.75,279.5 715.55,279.5 704.3,325.5 		"/>
		<g>
			<rect x="727.75" y="256.5" width="8.25" height="12.5"/>
			<rect x="727.75" y="279.5" width="8.25" height="52"/>
		</g>
		<g>
			<rect x="746.75" y="256.5" width="8.25" height="12.5"/>
			<rect x="746.75" y="279.5" width="8.25" height="52"/>
		</g>
	</g>
	<g>
		<polygon points="703.6,474 694.275,429.5 682.875,429.5 696.25,481.5 710.75,481.5 724.125,429.5 713.125,429.5 703.8,474 		"/>
		<g>
			<rect x="727.375" y="406.5" width="11.125" height="13.25"/>
			<rect x="727.375" y="429.5" width="11.125" height="52"/>
		</g>
		<g>
			<rect x="746.375" y="406.5" width="11.125" height="13.25"/>
			<rect x="746.375" y="429.5" width="11.125" height="52"/>
		</g>
	</g>
	<g>
		<polygon points="703.3,622.501 703.1,622.501 695.7,579.501 681.5,579.501 694,631.501 712,631.501 724.5,579.501 710.7,579.501 
					"/>
		<g>
			<rect x="727" y="556.501" width="14" height="14"/>
			<rect x="727" y="579.501" width="14" height="52"/>
		</g>
		<g>
			<rect x="746" y="556.501" width="14" height="14"/>
			<rect x="746" y="579.501" width="14" height="52"/>
		</g>
	</g>
</g>
<g>
	<g>
		<polygon points="798.899,29.6 783.1,-20.5 781,-20.5 797.5,31.5 800.5,31.5 817,-20.5 814.9,-20.5 799.1,29.6 		"/>
		<g>
			<rect x="822" y="-43.5" width="2" height="11"/>
			<rect x="822" y="-20.5" width="2" height="52"/>
		</g>
		<g>
			<rect x="839" y="-43.5" width="2" height="11"/>
			<rect x="839" y="-20.5" width="2" height="52"/>
		</g>
		<g>
			<rect x="856" y="-43.5" width="2" height="11"/>
			<rect x="856" y="-20.5" width="2" height="52"/>
		</g>
	</g>
	<g>
		<polygon points="797.875,177.55 784.6,129.5 779.25,129.5 794.375,181.5 801.375,181.5 816.5,129.5 811.35,129.5 798.074,177.55 
					"/>
		<g>
			<rect x="820.625" y="106.5" width="5" height="11.75"/>
			<rect x="820.625" y="129.5" width="5" height="52"/>
		</g>
		<g>
			<rect x="837.75" y="106.5" width="5" height="11.75"/>
			<rect x="837.75" y="129.5" width="5" height="52"/>
		</g>
		<g>
			<rect x="854.875" y="106.5" width="5" height="11.75"/>
			<rect x="854.875" y="129.5" width="5" height="52"/>
		</g>
	</g>
	<g>
		<polygon points="796.85,325.5 786.101,279.5 777.5,279.5 791.25,331.5 802.25,331.5 816,279.5 807.8,279.5 797.05,325.5 		"/>
		<g>
			<rect x="819.25" y="256.5" width="8" height="12.5"/>
			<rect x="819.25" y="279.5" width="8" height="52"/>
		</g>
		<g>
			<rect x="836.5" y="256.5" width="8" height="12.5"/>
			<rect x="836.5" y="279.5" width="8" height="52"/>
		</g>
		<g>
			<rect x="853.75" y="256.5" width="8" height="12.5"/>
			<rect x="853.75" y="279.5" width="8" height="52"/>
		</g>
	</g>
	<g>
		<polygon points="795.725,474 787.15,429.5 775.75,429.5 788.375,481.5 802.875,481.5 815.5,429.5 804.5,429.5 795.925,474 		"/>
		<g>
			<rect x="818.125" y="406.5" width="10.75" height="13.25"/>
			<rect x="818.125" y="429.5" width="10.75" height="52"/>
		</g>
		<g>
			<rect x="835.5" y="406.5" width="10.75" height="13.25"/>
			<rect x="835.5" y="429.5" width="10.75" height="52"/>
		</g>
		<g>
			<rect x="852.875" y="406.5" width="10.75" height="13.25"/>
			<rect x="852.875" y="429.5" width="10.75" height="52"/>
		</g>
	</g>
	<g>
		<polygon points="794.8,622.501 794.6,622.501 788.2,579.501 774,579.501 785.5,631.501 803.5,631.501 815,579.501 801.2,579.501 
					"/>
		<g>
			<rect x="817" y="556.501" width="13.5" height="14"/>
			<rect x="817" y="579.501" width="13.5" height="52"/>
		</g>
		<g>
			<rect x="834.5" y="556.501" width="13.5" height="14"/>
			<rect x="834.5" y="579.501" width="13.5" height="52"/>
		</g>
		<g>
			<rect x="852" y="556.501" width="13.5" height="14"/>
			<rect x="852" y="579.501" width="13.5" height="52"/>
		</g>
	</g>
</g>
</svg>
