<?xml version="1.0" encoding="utf-8"?>
<!-- Generator: Adobe Illustrator 15.0.2, SVG Export Plug-In . SVG Version: 6.00 Build 0)  -->
<!DOCTYPE svg PUBLIC "-//W3C//DTD SVG 1.1//EN" "http://www.w3.org/Graphics/SVG/1.1/DTD/svg11.dtd">
<svg version="1.1" id="レイヤー1" xmlns="http://www.w3.org/2000/svg" xmlns:xlink="http://www.w3.org/1999/xlink" x="0px"
	 y="0px" width="841.89px" height="595.275px" viewBox="0 0 841.89 595.275" enable-background="new 0 0 841.89 595.275"
	 xml:space="preserve">
<g>
	<rect x="71.5" y="-76.5" fill="none" stroke="#000000" stroke-width="0.25" width="100" height="150"/>
	<rect x="71.5" y="73.5" fill="none" stroke="#000000" stroke-width="0.25" width="100" height="150"/>
	<rect x="71.5" y="223.5" fill="none" stroke="#000000" stroke-width="0.25" width="100" height="150"/>
	<rect x="71.5" y="373.5" fill="none" stroke="#000000" stroke-width="0.25" width="100" height="150"/>
	<rect x="71.5" y="523.5" fill="none" stroke="#000000" stroke-width="0.25" width="100" height="150"/>
	<rect x="171.5" y="-76.5" fill="none" stroke="#000000" stroke-width="0.25" width="100" height="150"/>
	<rect x="171.5" y="73.5" fill="none" stroke="#000000" stroke-width="0.25" width="100" height="150"/>
	<rect x="171.5" y="223.5" fill="none" stroke="#000000" stroke-width="0.25" width="100" height="150"/>
	<rect x="171.5" y="373.5" fill="none" stroke="#000000" stroke-width="0.25" width="100" height="150"/>
	<rect x="171.5" y="523.5" fill="none" stroke="#000000" stroke-width="0.25" width="100" height="150"/>
	<rect x="271.5" y="-76.5" fill="none" stroke="#000000" stroke-width="0.25" width="100" height="150"/>
	<rect x="271.5" y="73.5" fill="none" stroke="#000000" stroke-width="0.25" width="100" height="150"/>
	<rect x="271.5" y="223.5" fill="none" stroke="#000000" stroke-width="0.25" width="100" height="150"/>
	<rect x="271.5" y="373.5" fill="none" stroke="#000000" stroke-width="0.25" width="100" height="150"/>
	<rect x="271.5" y="523.5" fill="none" stroke="#000000" stroke-width="0.25" width="100" height="150"/>
	<rect x="371.5" y="-76.5" fill="none" stroke="#000000" stroke-width="0.25" width="100" height="150"/>
	<rect x="371.5" y="73.5" fill="none" stroke="#000000" stroke-width="0.25" width="100" height="150"/>
	<rect x="371.5" y="223.5" fill="none" stroke="#000000" stroke-width="0.25" width="100" height="150"/>
	<rect x="371.5" y="373.5" fill="none" stroke="#000000" stroke-width="0.25" width="100" height="150"/>
	<rect x="371.5" y="523.5" fill="none" stroke="#000000" stroke-width="0.25" width="100" height="150"/>
	<rect x="471.5" y="-76.5" fill="none" stroke="#000000" stroke-width="0.25" width="100" height="150"/>
	<rect x="471.5" y="73.5" fill="none" stroke="#000000" stroke-width="0.25" width="100" height="150"/>
	<rect x="471.5" y="223.5" fill="none" stroke="#000000" stroke-width="0.25" width="100" height="150"/>
	<rect x="471.5" y="373.5" fill="none" stroke="#000000" stroke-width="0.25" width="100" height="150"/>
	<rect x="471.5" y="523.5" fill="none" stroke="#000000" stroke-width="0.25" width="100" height="150"/>
	<rect x="571.5" y="-76.5" fill="none" stroke="#000000" stroke-width="0.25" width="100" height="150"/>
	<rect x="571.5" y="73.5" fill="none" stroke="#000000" stroke-width="0.25" width="100" height="150"/>
	<rect x="571.5" y="223.5" fill="none" stroke="#000000" stroke-width="0.25" width="100" height="150"/>
	<rect x="571.5" y="373.5" fill="none" stroke="#000000" stroke-width="0.25" width="100" height="150"/>
	<rect x="571.5" y="523.5" fill="none" stroke="#000000" stroke-width="0.25" width="100" height="150"/>
	<rect x="671.5" y="-76.5" fill="none" stroke="#000000" stroke-width="0.25" width="100" height="150"/>
	<rect x="671.5" y="73.5" fill="none" stroke="#000000" stroke-width="0.25" width="100" height="150"/>
	<rect x="671.5" y="223.5" fill="none" stroke="#000000" stroke-width="0.25" width="100" height="150"/>
	<rect x="671.5" y="373.5" fill="none" stroke="#000000" stroke-width="0.25" width="100" height="150"/>
	<rect x="671.5" y="523.5" fill="none" stroke="#000000" stroke-width="0.25" width="100" height="150"/>
	<rect x="771.5" y="-76.5" fill="none" stroke="#000000" stroke-width="0.25" width="100" height="150"/>
	<rect x="771.5" y="73.5" fill="none" stroke="#000000" stroke-width="0.25" width="100" height="150"/>
	<rect x="771.5" y="223.5" fill="none" stroke="#000000" stroke-width="0.25" width="100" height="150"/>
	<rect x="771.5" y="373.5" fill="none" stroke="#000000" stroke-width="0.25" width="100" height="150"/>
	<rect x="771.5" y="523.5" fill="none" stroke="#000000" stroke-width="0.25" width="100" height="150"/>
</g>
<g>
	<polygon points="221.6,598 214.7,579.5 200,579.5 212.5,605.5 200,631.5 214.8,631.5 221.199,613.5 221.399,613.5 227.8,631.5 
		243,631.5 230.5,605.5 243,579.5 228.7,579.5 221.8,598 	"/>
	<polygon points="221.6,449.5 212.95,429.5 201,429.5 214.5,455.5 201,481.5 212.9,481.5 221.199,461.75 221.399,461.75 
		229.7,481.5 242,481.5 228.5,455.5 242,429.5 230.45,429.5 221.8,449.5 	"/>
	<polygon points="221.6,301 211.2,279.5 202,279.5 216.5,305.5 202,331.5 211,331.5 221.199,310 221.399,310 231.6,331.5 241,331.5 
		226.5,305.5 241,279.5 232.2,279.5 221.8,301 	"/>
	<polygon points="221.5,158.69 234.12,181.5 240,181.5 224.59,155.5 240,129.5 234.42,129.5 221.7,152.31 221.5,152.31 
		208.78,129.5 203,129.5 218.41,155.5 203,181.5 208.68,181.5 221.3,158.69 	"/>
	<polygon points="221.6,7.381 236.64,31.5 239,31.5 222.68,5.5 239,-20.5 236.64,-20.5 221.6,3.619 221.4,3.619 206.36,-20.5 
		204,-20.5 220.32,5.5 204,31.5 206.36,31.5 221.4,7.381 	"/>
</g>
<g>
	<g>
		<g>
			<rect x="101" y="-43.5" width="2" height="11"/>
			<rect x="101" y="-20.5" width="2" height="52"/>
		</g>
		<polygon points="128.6,7.381 143.64,31.5 146,31.5 129.68,5.5 146,-20.5 143.64,-20.5 128.6,3.619 128.4,3.619 113.36,-20.5 
			111,-20.5 127.32,5.5 111,31.5 113.36,31.5 128.4,7.381 		"/>
	</g>
	<g>
		<g>
			<rect x="99.125" y="106.5" width="5.25" height="11.75"/>
			<rect x="99.125" y="129.5" width="5.25" height="52"/>
		</g>
		<polygon points="130,152.31 117.28,129.5 111.5,129.5 126.91,155.5 111.5,181.5 117.18,181.5 129.8,158.69 130,158.69 
			142.62,181.5 148.5,181.5 133.09,155.5 148.5,129.5 142.92,129.5 130.2,152.31 		"/>
	</g>
	<g>
		<g>
			<rect x="97.25" y="256.5" width="8.5" height="12.5"/>
			<rect x="97.25" y="279.5" width="8.5" height="52"/>
		</g>
		<polygon points="131.6,301 121.2,279.5 112,279.5 126.5,305.5 112,331.5 121,331.5 131.199,310 131.399,310 141.6,331.5 
			151,331.5 136.5,305.5 151,279.5 142.2,279.5 131.8,301 		"/>
	</g>
	<g>
		<g>
			<rect x="95.375" y="406.5" width="11.5" height="13.25"/>
			<rect x="95.375" y="429.5" width="11.5" height="52"/>
		</g>
		<polygon points="133.1,449.5 124.45,429.5 112.5,429.5 126,455.5 112.5,481.5 124.4,481.5 132.699,461.75 132.899,461.75 
			141.2,481.5 153.5,481.5 140,455.5 153.5,429.5 141.95,429.5 133.3,449.5 		"/>
	</g>
	<g>
		<g>
			<rect x="93.5" y="556.501" width="14.5" height="14"/>
			<rect x="93.5" y="579.501" width="14.5" height="52"/>
		</g>
		<polygon points="134.6,598.001 127.7,579.501 113,579.501 125.5,605.501 113,631.501 127.8,631.501 134.199,613.501 
			134.399,613.501 140.8,631.501 156,631.501 143.5,605.501 156,579.501 141.7,579.501 134.8,598.001 		"/>
	</g>
</g>
<g>
	<g>
		<g>
			<rect x="340" y="-43.5" width="2" height="11"/>
			<rect x="340" y="-20.5" width="2" height="52"/>
		</g>
		<polygon points="314.4,7.381 299.36,31.5 297,31.5 313.32,5.5 297,-20.5 299.36,-20.5 314.4,3.619 314.6,3.619 329.64,-20.5 
			332,-20.5 315.68,5.5 332,31.5 329.64,31.5 314.6,7.381 		"/>
	</g>
	<g>
		<g>
			<rect x="338.625" y="106.5" width="5.25" height="11.75"/>
			<rect x="338.625" y="129.5" width="5.25" height="52"/>
		</g>
		<polygon points="313,152.31 325.72,129.5 331.5,129.5 316.09,155.5 331.5,181.5 325.82,181.5 313.2,158.69 313,158.69 
			300.38,181.5 294.5,181.5 309.91,155.5 294.5,129.5 300.08,129.5 312.8,152.31 		"/>
	</g>
	<g>
		<g>
			<rect x="337.25" y="256.5" width="8.5" height="12.5"/>
			<rect x="337.25" y="279.5" width="8.5" height="52"/>
		</g>
		<polygon points="311.4,301 321.8,279.5 331,279.5 316.5,305.5 331,331.5 322,331.5 311.801,310 311.601,310 301.4,331.5 
			292,331.5 306.5,305.5 292,279.5 300.8,279.5 311.2,301 		"/>
	</g>
	<g>
		<g>
			<rect x="336.125" y="406.5" width="11.5" height="13.25"/>
			<rect x="336.125" y="429.5" width="11.5" height="52"/>
		</g>
		<polygon points="309.9,449.5 318.55,429.5 330.5,429.5 317,455.5 330.5,481.5 318.6,481.5 310.301,461.75 310.101,461.75 
			301.8,481.5 289.5,481.5 303,455.5 289.5,429.5 301.05,429.5 309.7,449.5 		"/>
	</g>
	<g>
		<g>
			<rect x="335" y="556.501" width="14.5" height="14"/>
			<rect x="335" y="579.501" width="14.5" height="52"/>
		</g>
		<polygon points="308.4,598.001 315.3,579.501 330,579.501 317.5,605.501 330,631.501 315.2,631.501 308.801,613.501 
			308.601,613.501 302.2,631.501 287,631.501 299.5,605.501 287,579.501 301.3,579.501 308.2,598.001 		"/>
	</g>
</g>
<g>
	<g>
		<polygon points="405.9,7.381 390.86,31.5 388.5,31.5 404.82,5.5 388.5,-20.5 390.86,-20.5 405.9,3.619 406.1,3.619 421.14,-20.5 
			423.5,-20.5 407.18,5.5 423.5,31.5 421.14,31.5 406.1,7.381 		"/>
		<g>
			<rect x="449" y="-43.5" width="2" height="11"/>
			<rect x="449" y="-20.5" width="2" height="52"/>
		</g>
		<g>
			<rect x="430" y="-43.5" width="2" height="11"/>
			<rect x="430" y="-20.5" width="2" height="52"/>
		</g>
	</g>
	<g>
		<polygon points="409.875,152.31 410.075,152.31 422.545,129.5 428.125,129.5 412.965,155.5 428.125,181.5 422.244,181.5 
			409.875,158.69 409.675,158.69 397.305,181.5 391.625,181.5 406.785,155.5 391.625,129.5 397.405,129.5 		"/>
		<g>
			<rect x="443.5" y="106.5" width="5.125" height="11.75"/>
			<rect x="443.5" y="129.5" width="5.125" height="52"/>
		</g>
		<g>
			<rect x="443.5" y="106.5" width="5.125" height="11.75"/>
			<rect x="443.5" y="129.5" width="5.125" height="52"/>
		</g>
	</g>
	<g>
		<polygon points="404.35,301 394.45,279.5 385.25,279.5 399.25,305.5 385.25,331.5 394.25,331.5 403.949,310 404.149,310 
			413.85,331.5 423.25,331.5 409.25,305.5 423.25,279.5 414.45,279.5 404.55,301 		"/>
		<g>
			<rect x="428.5" y="256.5" width="8.25" height="12.5"/>
			<rect x="428.5" y="279.5" width="8.25" height="52"/>
		</g>
		<g>
			<rect x="447.5" y="256.5" width="8.25" height="12.5"/>
			<rect x="447.5" y="279.5" width="8.25" height="52"/>
		</g>
	</g>
	<g>
		<polygon points="403.725,449.5 411.875,429.5 423.625,429.5 410.625,455.5 423.625,481.5 411.525,481.5 403.725,461.75 
			403.525,461.75 395.725,481.5 383.625,481.5 396.625,455.5 383.625,429.5 395.375,429.5 403.525,449.5 		"/>
		<g>
			<rect x="428" y="406.5" width="11.125" height="13.25"/>
			<rect x="428" y="429.5" width="11.125" height="52"/>
		</g>
		<g>
			<rect x="447" y="406.5" width="11.125" height="13.25"/>
			<rect x="447" y="429.5" width="11.125" height="52"/>
		</g>
	</g>
	<g>
		<polygon points="402.9,598.001 409.3,579.501 424,579.501 412,605.501 424,631.501 409.2,631.501 403.301,613.501 
			403.101,613.501 397.2,631.501 382,631.501 394,605.501 382,579.501 396.3,579.501 402.7,598.001 		"/>
		<g>
			<rect x="427.5" y="556.501" width="14" height="14"/>
			<rect x="427.5" y="579.501" width="14" height="52"/>
		</g>
		<g>
			<rect x="446.5" y="556.501" width="14" height="14"/>
			<rect x="446.5" y="579.501" width="14" height="52"/>
		</g>
	</g>
</g>
<g>
	<path d="M628,589.5c3.855,0,7.115,0.676,11.5,2.5v-11c-4.093-1.515-9.553-2.5-13.5-2.5c-15.073,0-23.5,8.83-23.5,27
		c0,18.413,8.872,27,24,27c3.947,0,9.888-1.042,14-2.5v-11c-4.318,1.976-8.145,2.8-12,2.8c-7.361,0-12-4.73-12-16.3
		C616.5,594.264,620.714,589.5,628,589.5z"/>
	<path d="M603.5,455.5c0,18.419,8.562,27,22.75,27c3.955,0,9.16-0.969,13.25-2.5v-9.5c-4.087,2.158-8.085,3.199-12,3.199
		c-7.725,0-12.9-5.471-12.9-18.199c0-12.287,4.664-17.9,12.4-17.9c3.914,0,7.58,0.901,11.75,2.9V431c-4.078-1.566-9.046-2.5-13-2.5
		C611.652,428.5,603.5,437.308,603.5,455.5z"/>
	<path d="M604.5,305.5c0,18.425,8.251,27,21.5,27c3.962,0,8.432-0.895,12.5-2.5v-8c-3.855,2.341-8.025,3.6-12,3.6
		c-8.088,0-13.801-6.211-13.801-20.1c0-13.338,5.113-19.8,13.301-19.8c3.974,0,8.046,1.126,12,3.3v-8
		c-4.063-1.619-8.539-2.5-12.5-2.5C612.377,278.5,604.5,287.285,604.5,305.5z"/>
	<path d="M626.05,178.05c-9.562,0-15.7-6.735-15.7-22.55c0-15.345,5.657-22.4,15.051-22.4c3.796,0,7.424,0.912,11.25,2.9v-5.1
		c-3.781-1.599-7.658-2.4-11.5-2.4c-10.85,0-19.9,6.734-19.9,27c0,18.17,7.422,27,20.55,27c3.815,0,7.633-0.799,11.45-2.402V175
		C633.469,177.062,629.847,178.05,626.05,178.05z"/>
	<path d="M625.6,30.5c-11.036,0-17.6-7.26-17.6-25c0-17.353,6.201-25,16.8-25c3.619,0,6.804,0.698,10.5,2.5v-2.199
		c-3.497-1.579-6.776-2.301-10.5-2.301c-8.576,0-18.8,4.684-18.8,27c0,17.916,6.594,27,19.6,27c3.669,0,6.834-0.703,10.4-2.305V28
		C632.293,29.782,629.219,30.5,625.6,30.5z"/>
</g>
<g>
	<path d="M521.5,18.5v-60h-16v2h14v58c0,11.345,2.602,14,11.6,14c1.996,0,4.428-0.192,6.4-0.5v-2.05
		c-1.869,0.337-4.411,0.55-6.4,0.55C523.545,30.5,521.5,29.006,521.5,18.5z"/>
	<path d="M523.05,167.5c0,9.667,1.22,10.6,8.5,10.6c2.065,0,4.976-0.239,6.95-0.575V182c-2.397,0.322-5.008,0.5-7.45,0.5
		c-10.498,0-13.1-2.599-13.1-14.5v-55.1H504.5v-4.4h18.55V167.5z"/>
	<path d="M524.6,316.5c0,8.829,0.395,9.2,7.4,9.2c2.142,0,5.42-0.265,7.5-0.6V332c-2.822,0.337-5.611,0.5-8.5,0.5
		c-11.998,0-14.6-2.542-14.6-15v-52.2h-12.9v-6.8h21.1V316.5z"/>
	<path d="M526.05,464.5c0,8.967,0.297,9.25,6.95,9.25c2.168,0,5.373-0.262,7.5-0.6V482c-3.164,0.35-5.938,0.5-9.25,0.5
		c-13.354,0-16.3-2.745-16.3-16v-49.25H502.5v-8.75h23.55V464.5z"/>
	<path d="M527.5,612.5c0,9.105,0.199,9.3,6.5,9.3c2.194,0,5.326-0.258,7.5-0.6V632c-3.506,0.362-6.264,0.5-10,0.5
		c-14.711,0-18-2.948-18-17v-46.3h-12v-10.7h26V612.5z"/>
</g>
<g>
	<path d="M742,631.5h-13.2l-0.2-7h-0.2c-3.979,6.103-7.276,8-11.899,8c-10.199,0-17.5-8.708-17.5-27h13.7c0,10.792,3.407,15,7.8,15
		c4.658,0,8-4.162,8-14.5v-1c0-10.16-3.252-14.5-8-14.5c-4.918,0-7.8,4.011-7.8,15H699c0-18.857,6.822-27,17.5-27
		c4.555,0,8.08,2.128,11.6,7.5h0.2v-29.5H742V631.5z"/>
	<path d="M741,481.5h-10.301l-0.199-7.25h-0.201c-3.834,6.008-7.782,8.25-12.799,8.25c-10.12,0-17.5-8.451-17.5-27h10.801
		c0,12.172,4.09,17.25,9.699,17.25c5.505,0,9.8-5.237,9.8-16.75v-1c0-11.356-4.19-16.75-9.8-16.75c-6.129,0-9.699,4.699-9.699,17.25
		H700c0-18.977,6.778-27,17.5-27c5.198,0,9.35,2.574,12.5,8h0.199v-30H741V481.5z"/>
	<path d="M732.1,256.5h7.9v75h-7.4L732.4,324h-0.201c-3.691,5.912-8.289,8.5-13.699,8.5c-10.041,0-17.5-8.194-17.5-27h7.9
		c0,13.551,4.774,19.5,11.6,19.5c6.352,0,11.6-6.312,11.6-19v-1c0-12.553-5.129-19-11.6-19c-7.34,0-11.6,5.387-11.6,19.5H701
		c0-19.096,6.734-27,17.5-27c5.842,0,10.619,3.021,13.4,8.5h0.199V256.5z"/>
	<path d="M732.85,138.593h0.2V106.5H738v75h-4.7l-0.1-9.093H733c-3.187,6.66-8.012,10.093-14.25,10.093
		c-8.898,0-17.25-6.439-17.25-27h4.95c0,14.953,4.981,22.25,13.3,22.25c7.872,0,13.3-7.362,13.3-20.75v-3
		c0-13.321-5.368-20.75-13.3-20.75c-8.717,0-13.3,6.782-13.3,22.25h-4.95c0-18.632,6.147-27,17.25-27
		C725.205,128.5,730.119,132.15,732.85,138.593z"/>
	<path d="M733.8-9.813C731.119-17.222,726.067-21.5,719-21.5c-11.439,0-17,8.832-17,27h2c0-16.822,4.906-25,15-25
		c9.393,0,15,8.411,15,22.5v5c0,14.089-5.607,22.5-15,22.5c-9.812,0-15-8.645-15-25h-2c0,22.316,9.244,27,17,27
		c7.067,0,12.119-4.278,14.8-11.686h0.2V31.5h2v-75h-2v33.687H733.8z"/>
</g>
<g>
	<path d="M832.5,631.5v-34c0-2.859-0.812-4-2.1-4c-1.542,0-2.2,0.914-2.2,8v30h-13v-34c0-2.859-0.812-4-2.1-4
		c-1.542,0-2.2,0.914-2.2,8v30h-13.4v-52h12l0.2,6.5h0.2c2.044-4.654,5.745-7.5,8.85-7.5c3.562,0,5.617,1.633,7.649,7.5h0.2
		c2.979-5.335,6.081-7.5,9.9-7.5c6.208,0,9,3.516,9,17v36H832.5z"/>
	<path d="M826.825,481.5h-10.351v-35c-0.1-5.465-1.123-6.85-3.249-6.85c-2.61,0-4.575,3.898-4.575,16.85v25H798v-52h9.5l0.2,6.75
		h0.2c2.152-4.906,5.844-7.75,9.225-7.75c3.792,0,6.075,1.852,8.024,7.75h0.2c2.951-5.602,6.086-7.75,10.15-7.75
		c6.576,0,9.5,3.477,9.5,16v37h-10.35v-35c-0.101-5.473-1.141-6.85-3.525-6.85c-2.493,0-4.3,3.07-4.3,13.85V481.5z"/>
	<path d="M825.45,331.5h-7.7v-36c-0.2-8.071-1.436-9.7-4.399-9.7c-3.68,0-6.95,6.884-6.95,25.7v20h-7.9v-52h7l0.2,7h0.2
		c2.261-5.158,5.942-8,9.6-8c4.022,0,6.533,2.069,8.399,8h0.2c2.922-5.869,6.09-8,10.4-8c6.945,0,10,3.438,10,15v38h-7.7v-36
		c-0.2-8.087-1.469-9.7-4.949-9.7c-3.445,0-6.4,5.229-6.4,19.7V331.5z"/>
	<path d="M823.062,137.312h0.2c2.434-5.953,5.951-8.812,10.737-8.812c7.3,0,10.25,4.023,10.25,16v37h-4.85v-36
		c-0.101-10.348-2.229-12.35-6.725-12.35c-4.912,0-8.451,5.951-8.451,18.35v30h-4.85v-35c-0.1-11.145-2.275-13.35-6.449-13.35
		c-4.932,0-8.726,7.143-8.726,21.85v26.5h-4.95v-52h4.5l0.1,7.269h0.2c2.206-5.232,5.815-8.269,9.95-8.269
		C818.805,128.5,821.517,130.916,823.062,137.312z"/>
	<path d="M822.227-11.877C821-18.738,818.086-21.5,812.5-21.5c-4.611,0-8.15,3.23-10.301,8.537H802V-20.5h-2v52h2v-33
		c0-10.598,4.317-18,10.5-18c5.384,0,8.5,2.781,8.5,17v34h2v-34c0-10.327,4.121-17,10.5-17c5.513,0,8.5,2.391,8.5,15v36h2v-36
		c0-12.393-2.846-17-10.5-17c-5.262,0-9.129,3.586-11.074,9.623H822.227z"/>
</g>
</svg>
