<?xml version="1.0" encoding="utf-8"?>
<!-- Generator: Adobe Illustrator 15.0.2, SVG Export Plug-In . SVG Version: 6.00 Build 0)  -->
<!DOCTYPE svg PUBLIC "-//W3C//DTD SVG 1.1//EN" "http://www.w3.org/Graphics/SVG/1.1/DTD/svg11.dtd">
<svg version="1.1" id="レイヤー1" xmlns="http://www.w3.org/2000/svg" xmlns:xlink="http://www.w3.org/1999/xlink" x="0px"
	 y="0px" width="841.8896484px" height="595.2753906px" viewBox="0 0 841.8896484 595.2753906"
	 enable-background="new 0 0 841.8896484 595.2753906" xml:space="preserve">
<g>
	<rect x="471.5" y="-76.5" fill="none" stroke="#000000" stroke-width="0.25" width="50" height="150"/>
	<rect x="571.5" y="-76.5" fill="none" stroke="#000000" stroke-width="0.25" width="50" height="150"/>
	<rect x="671.5" y="-76.5" fill="none" stroke="#000000" stroke-width="0.25" width="50" height="150"/>
	<rect x="771.5" y="-76.5" fill="none" stroke="#000000" stroke-width="0.25" width="50" height="150"/>
	<rect x="871.5" y="-76.5" fill="none" stroke="#000000" stroke-width="0.25" width="50" height="150"/>
	<rect x="971.5" y="-76.5" fill="none" stroke="#000000" stroke-width="0.25" width="50" height="150"/>
	<rect x="1071.5" y="-76.5" fill="none" stroke="#000000" stroke-width="0.25" width="50" height="150"/>
	<rect x="471.5" y="73.5" fill="none" stroke="#000000" stroke-width="0.25" width="50" height="150"/>
	<rect x="571.5" y="73.5" fill="none" stroke="#000000" stroke-width="0.25" width="50" height="150"/>
	<rect x="671.5" y="73.5" fill="none" stroke="#000000" stroke-width="0.25" width="50" height="150"/>
	<rect x="771.5" y="73.5" fill="none" stroke="#000000" stroke-width="0.25" width="50" height="150"/>
	<rect x="871.5" y="73.5" fill="none" stroke="#000000" stroke-width="0.25" width="50" height="150"/>
	<rect x="971.5" y="73.5" fill="none" stroke="#000000" stroke-width="0.25" width="50" height="150"/>
	<rect x="1071.5" y="73.5" fill="none" stroke="#000000" stroke-width="0.25" width="50" height="150"/>
	<rect x="471.5" y="223.5" fill="none" stroke="#000000" stroke-width="0.25" width="50" height="150"/>
	<rect x="571.5" y="223.5" fill="none" stroke="#000000" stroke-width="0.25" width="50" height="150"/>
	<rect x="671.5" y="223.5" fill="none" stroke="#000000" stroke-width="0.25" width="50" height="150"/>
	<rect x="771.5" y="223.5" fill="none" stroke="#000000" stroke-width="0.25" width="50" height="150"/>
	<rect x="871.5" y="223.5" fill="none" stroke="#000000" stroke-width="0.25" width="50" height="150"/>
	<rect x="971.5" y="223.5" fill="none" stroke="#000000" stroke-width="0.25" width="50" height="150"/>
	<rect x="1071.5" y="223.5" fill="none" stroke="#000000" stroke-width="0.25" width="50" height="150"/>
	<rect x="471.5" y="373.5" fill="none" stroke="#000000" stroke-width="0.25" width="50" height="150"/>
	<rect x="571.5" y="373.5" fill="none" stroke="#000000" stroke-width="0.25" width="50" height="150"/>
	<rect x="671.5" y="373.5" fill="none" stroke="#000000" stroke-width="0.25" width="50" height="150"/>
	<rect x="771.5" y="373.5" fill="none" stroke="#000000" stroke-width="0.25" width="50" height="150"/>
	<rect x="871.5" y="373.5" fill="none" stroke="#000000" stroke-width="0.25" width="50" height="150"/>
	<rect x="971.5" y="373.5" fill="none" stroke="#000000" stroke-width="0.25" width="50" height="150"/>
	<rect x="1071.5" y="373.5" fill="none" stroke="#000000" stroke-width="0.25" width="50" height="150"/>
	<rect x="471.5" y="523.5" fill="none" stroke="#000000" stroke-width="0.25" width="50" height="150"/>
	<rect x="571.5" y="523.5" fill="none" stroke="#000000" stroke-width="0.25" width="50" height="150"/>
	<rect x="671.5" y="523.5" fill="none" stroke="#000000" stroke-width="0.25" width="50" height="150"/>
	<rect x="71.5" y="-76.5" fill="none" stroke="#000000" stroke-width="0.25" width="100" height="150"/>
	<rect x="171.5" y="-76.5" fill="none" stroke="#000000" stroke-width="0.25" width="100" height="150"/>
	<rect x="271.5" y="-76.5" fill="none" stroke="#000000" stroke-width="0.25" width="100" height="150"/>
	<rect x="71.5" y="73.5" fill="none" stroke="#000000" stroke-width="0.25" width="100" height="150"/>
	<rect x="171.5" y="73.5" fill="none" stroke="#000000" stroke-width="0.25" width="100" height="150"/>
	<rect x="271.5" y="73.5" fill="none" stroke="#000000" stroke-width="0.25" width="100" height="150"/>
	<rect x="71.5" y="223.5" fill="none" stroke="#000000" stroke-width="0.25" width="100" height="150"/>
	<rect x="171.5" y="223.5" fill="none" stroke="#000000" stroke-width="0.25" width="100" height="150"/>
	<rect x="271.5" y="223.5" fill="none" stroke="#000000" stroke-width="0.25" width="100" height="150"/>
	<rect x="71.5" y="373.5" fill="none" stroke="#000000" stroke-width="0.25" width="100" height="150"/>
	<rect x="171.5" y="373.5" fill="none" stroke="#000000" stroke-width="0.25" width="100" height="150"/>
	<rect x="271.5" y="373.5" fill="none" stroke="#000000" stroke-width="0.25" width="100" height="150"/>
	<rect x="71.5" y="523.5" fill="none" stroke="#000000" stroke-width="0.25" width="100" height="150"/>
	<rect x="171.5" y="523.5" fill="none" stroke="#000000" stroke-width="0.25" width="100" height="150"/>
	<rect x="271.5" y="523.5" fill="none" stroke="#000000" stroke-width="0.25" width="100" height="150"/>
	<rect x="771.5" y="523.5" fill="none" stroke="#000000" stroke-width="0.25" width="50" height="150"/>
	<rect x="871.5" y="523.5" fill="none" stroke="#000000" stroke-width="0.25" width="50" height="150"/>
	<rect x="971.5" y="523.5" fill="none" stroke="#000000" stroke-width="0.25" width="50" height="150"/>
	<rect x="1071.5" y="523.5" fill="none" stroke="#000000" stroke-width="0.25" width="50" height="150"/>
	<rect x="1171.5" y="-76.5" fill="none" stroke="#000000" stroke-width="0.25" width="50" height="150"/>
	<rect x="1171.5" y="73.5" fill="none" stroke="#000000" stroke-width="0.25" width="50" height="150"/>
	<rect x="1171.5" y="223.5" fill="none" stroke="#000000" stroke-width="0.25" width="50" height="150"/>
	<rect x="1171.5" y="373.5" fill="none" stroke="#000000" stroke-width="0.25" width="50" height="150"/>
	<rect x="1171.5" y="523.5" fill="none" stroke="#000000" stroke-width="0.25" width="50" height="150"/>
</g>
<g>
	<g>
		<polygon points="496.4794922,-25.6542969 495,-27 475,-5 495,17 496.4794922,15.6542969 477.703125,-5 		"/>
		<rect x="477" y="-6" width="41" height="2"/>
	</g>
	<g>
		<polygon points="498.3632812,125.3920898 495.25,122.5 474.5,145 495.25,167.5 498.3632812,164.6079102 480.3007812,145 		"/>
		<rect x="478.125" y="142.875" width="40.375" height="4.25"/>
	</g>
	<g>
		<polygon points="500.2480469,276.4384766 495.5,272 474,295 495.5,318 500.2480469,313.5615234 482.8974609,295 		"/>
		<rect x="479.25" y="291.75" width="39.75" height="6.5"/>
	</g>
	<g>
		<polygon points="501.734375,427.1787109 495.75,421.5 473.5,445 495.75,468.5 501.734375,462.8212891 484.8740234,445 		"/>
		<rect x="480.375" y="440.875" width="39.125" height="8.25"/>
	</g>
	<g>
		<polygon points="503.2197266,577.9189453 496,571 473,595 496,619 503.2197266,612.0810547 486.8505859,595 		"/>
		<rect x="481.5" y="590" width="38.5" height="10"/>
	</g>
</g>
<g>
	<g>
		<polygon points="696.5205078,-25.6542969 698,-27 718,-5 698,17 696.5205078,15.6542969 715.296875,-5 		"/>
		<rect x="675" y="-6" width="41" height="2"/>
	</g>
	<g>
		<polygon points="694.6367188,125.3920898 697.75,122.5 718.5,145 697.75,167.5 694.6367188,164.6079102 712.6992188,145 		"/>
		<rect x="674.5" y="142.875" width="40.375" height="4.25"/>
	</g>
	<g>
		<polygon points="692.7519531,276.4384766 697.5,272 719,295 697.5,318 692.7519531,313.5615234 710.1025391,295 		"/>
		<rect x="674" y="291.75" width="39.75" height="6.5"/>
	</g>
	<g>
		<polygon points="691.265625,427.1787109 697.25,421.5 719.5,445 697.25,468.5 691.265625,462.8212891 708.1259766,445 		"/>
		<rect x="673.5" y="440.875" width="39.125" height="8.25"/>
	</g>
	<g>
		<polygon points="689.7802734,577.9189453 697,571 720,595 697,619 689.7802734,612.0810547 706.1494141,595 		"/>
		<rect x="673" y="590" width="38.5" height="10"/>
	</g>
</g>
<g>
	<g>
		<polygon points="775.8457031,11.0205078 774.5,12.5 796.5,32.5 818.5,12.5 817.1542969,11.0205078 796.5,29.796875 		"/>
		<rect x="795.5" y="-41.5" width="2" height="72"/>
	</g>
	<g>
		<polygon points="776.8925781,158.6362305 774,161.75 796.5,182.5 819,161.75 816.1074219,158.6362305 796.5,176.699707 		"/>
		<rect x="794.375" y="108.5" width="4.25" height="70.375"/>
	</g>
	<g>
		<polygon points="777.9384766,306.2519531 773.5,311 796.5,332.5 819.5,311 815.0615234,306.2519531 796.5,323.6025391 		"/>
		<rect x="793.25" y="258.5" width="6.5" height="68.75"/>
	</g>
	<g>
		<polygon points="778.6787109,454.265625 773,460.25 796.5,482.5 820,460.25 814.3212891,454.265625 796.5,471.1259766 		"/>
		<rect x="792.375" y="408.5" width="8.25" height="67.125"/>
	</g>
	<g>
		<polygon points="779.4189453,602.2802734 772.5,609.5 796.5,632.5 820.5,609.5 813.5810547,602.2802734 796.5,618.6494141 		"/>
		<rect x="791.5" y="558.5" width="10" height="65.5"/>
	</g>
</g>
<g>
	<g>
		<polygon points="617.1542969,-21.0205078 618.5,-22.5 596.5,-42.5 574.5,-22.5 575.8457031,-21.0205078 596.5,-39.796875 		"/>
		<rect x="595.5" y="-40.5" width="2" height="72"/>
	</g>
	<g>
		<polygon points="616.1074219,131.3637695 619,128.25 596.5,107.5 574,128.25 576.8925781,131.3637695 596.5,113.300293 		"/>
		<rect x="594.375" y="111.125" width="4.25" height="70.375"/>
	</g>
	<g>
		<polygon points="615.0615234,283.7480469 619.5,279 596.5,257.5 573.5,279 577.9384766,283.7480469 596.5,266.3974609 		"/>
		<rect x="593.25" y="262.75" width="6.5" height="68.75"/>
	</g>
	<g>
		<polygon points="614.3212891,435.734375 620,429.75 596.5,407.5 573,429.75 578.6787109,435.734375 596.5,418.8740234 		"/>
		<rect x="592.375" y="414.375" width="8.25" height="67.125"/>
	</g>
	<g>
		<polygon points="613.5810547,587.7197266 620.5,580.5 596.5,557.5 572.5,580.5 579.4189453,587.7197266 596.5,571.3505859 		"/>
		<rect x="591.5" y="566" width="10" height="65.5"/>
	</g>
</g>
<g>
	<g>
		<polygon points="1113.7587891,-27.0888672 1114.5175781,-28.9394531 1087.0039062,-40.2080078 1073.1708984,-13.890625 
			1074.9414062,-12.9609375 1087.9277344,-37.6679688 		"/>
		
			<rect x="1063.9997559" y="-5.5008125" transform="matrix(-0.3420252 -0.9396908 0.9396908 -0.3420252 1480.4567871 1027.6199951)" width="72.0004959" height="2.000649"/>
	</g>
	<g>
		<polygon points="1113.5898438,125.5092773 1115.2441406,121.5947266 1087.0039062,109.7915039 1072.9570312,136.9853516 
			1076.7402344,138.921875 1088.9863281,115.2421875 		"/>
		
			<rect x="1065.0908203" y="144.1381836" transform="matrix(-0.342016 -0.9396941 0.9396941 -0.342016 1339.1486816 1230.2122803)" width="70.3748779" height="4.2495117"/>
	</g>
	<g>
		<polygon points="1113.421875,278.1074219 1115.9697266,272.1289062 1087.0029297,259.7910156 1072.7431641,287.8613281 
			1078.5380859,290.8046875 1090.0458984,268.1523438 		"/>
		
			<rect x="1066.1809082" y="293.7767334" transform="matrix(-0.342019 -0.939693 0.939693 -0.342019 1197.8530273 1432.7994385)" width="68.7495956" height="6.4992924"/>
	</g>
	<g>
		<polygon points="1113.40625,430.2275391 1116.6953125,422.6630859 1087.0029297,409.7910156 1072.5302734,438.7373047 
			1079.9130859,442.4179688 1090.8925781,420.4804688 		"/>
		
			<rect x="1067.270874" y="443.6653442" transform="matrix(-0.3420176 -0.9396936 0.9396936 -0.3420176 1056.5524902 1635.3883057)" width="67.1252365" height="8.2493906"/>
	</g>
	<g>
		<polygon points="1113.3896484,582.3476562 1117.421875,573.1972656 1087.0029297,559.7919922 1072.3173828,589.6132812 
			1081.2880859,594.03125 1091.7402344,572.8076172 		"/>
		
			<rect x="1068.3608398" y="593.5539551" transform="matrix(-0.342016 -0.9396941 0.9396941 -0.342016 915.2515869 1837.9765625)" width="65.5008698" height="9.9994888"/>
	</g>
</g>
<g>
	<g>
		<polygon points="1179.2412109,-27.0888672 1178.4824219,-28.9394531 1205.9960938,-40.2080078 1219.8291016,-13.890625 
			1218.0585938,-12.9609375 1205.0722656,-37.6679688 		"/>
		
			<rect x="1156.9997559" y="-5.5008125" transform="matrix(0.3420251 -0.9396908 0.9396908 0.3420251 789.1931152 1118.0899658)" width="72.0004959" height="2.000649"/>
	</g>
	<g>
		<polygon points="1179.4101562,125.5092773 1177.7558594,121.5947266 1205.9960938,109.7915039 1220.0429688,136.9853516 
			1216.2597656,138.921875 1204.0136719,115.2421875 		"/>
		
			<rect x="1157.5341797" y="144.1381836" transform="matrix(0.342016 -0.9396941 0.9396941 0.342016 647.3493652 1217.0322266)" width="70.3748779" height="4.2495117"/>
	</g>
	<g>
		<polygon points="1179.578125,278.1074219 1177.0302734,272.1289062 1205.9970703,259.7910156 1220.2568359,287.8613281 
			1214.4619141,290.8046875 1202.9541016,268.1523438 		"/>
		
			<rect x="1158.0695801" y="293.7767334" transform="matrix(0.342019 -0.939693 0.939693 0.342019 505.4920654 1315.9692383)" width="68.7495956" height="6.4992924"/>
	</g>
	<g>
		<polygon points="1179.59375,430.2275391 1176.3046875,422.6630859 1205.9970703,409.7910156 1220.4697266,438.7373047 
			1213.0869141,442.4179688 1202.1074219,420.4804688 		"/>
		
			<rect x="1158.6038818" y="443.6653442" transform="matrix(0.3420176 -0.9396936 0.9396936 0.3420176 363.6391602 1414.9091797)" width="67.1252365" height="8.2493906"/>
	</g>
	<g>
		<polygon points="1179.6103516,582.3476562 1175.578125,573.1972656 1205.9970703,559.7919922 1220.6826172,589.6132812 
			1211.7119141,594.03125 1201.2597656,572.8076172 		"/>
		
			<rect x="1159.1381836" y="593.5539551" transform="matrix(0.342016 -0.9396941 0.9396941 0.342016 221.7862549 1513.8494873)" width="65.5008698" height="9.9994888"/>
	</g>
</g>
<g>
	<g>
		<polygon points="892.1416016,-26.8574219 890.5,-28 874.5,-5 890.5,18 892.1416016,16.8574219 876.9365234,-5 		"/>
		<polygon points="900.8583984,-26.8574219 902.5,-28 918.5,-5 902.5,18 900.8583984,16.8574219 916.0634766,-5 		"/>
		<rect x="876.5" y="-6" width="40" height="2"/>
	</g>
	<g>
		<polygon points="892.8652344,123.6611328 889.5,121.5 874,145 889.5,168.5 892.8652344,166.3388672 878.7558594,145 		"/>
		<polygon points="900.1347656,123.6611328 903.5,121.5 919,145 903.5,168.5 900.1347656,166.3388672 914.2441406,145 		"/>
		<rect x="877.625" y="142.875" width="37.75" height="4.25"/>
	</g>
	<g>
		<polygon points="893.5878906,274.1796875 888.5,271 873.5,295 888.5,319 893.5878906,315.8203125 880.5761719,295 		"/>
		<polygon points="899.4121094,274.1796875 904.5,271 919.5,295 904.5,319 899.4121094,315.8203125 912.4238281,295 		"/>
		<rect x="878.75" y="291.75" width="35.5" height="6.5"/>
	</g>
	<g>
		<polygon points="893.9707031,424.2890625 887.5,420.5 873,445 887.5,469.5 893.9707031,465.7109375 881.6953125,445 		"/>
		<polygon points="899.0292969,424.2890625 905.5,420.5 920,445 905.5,469.5 899.0292969,465.7109375 911.3046875,445 		"/>
		<rect x="879.875" y="440.875" width="33.25" height="8.25"/>
	</g>
	<g>
		<polygon points="894.3525391,574.3974609 886.5,570 872.5,595 886.5,620 894.3525391,615.6025391 882.8144531,595 		"/>
		<polygon points="898.6474609,574.3974609 906.5,570 920.5,595 906.5,620 898.6474609,615.6025391 910.1855469,595 		"/>
		<rect x="881" y="590" width="31" height="10"/>
	</g>
</g>
<g>
	<g>
		<polygon points="1017.1542969,-21.0205078 1018.5,-22.5 996.5,-42.5 974.5,-22.5 975.8457031,-21.0205078 996.5,-39.796875 		"/>
		<rect x="995.5" y="-40.5" width="2" height="71"/>
		<polygon points="975.8457031,11.0205078 974.5,12.5 996.5,32.5 1018.5,12.5 1017.1542969,11.0205078 996.5,29.796875 		"/>
	</g>
	<g>
		<polygon points="1016.1074219,131.3637695 1019,128.25 996.5,107.5 974,128.25 976.8925781,131.3637695 996.5,113.300293 		"/>
		<rect x="994.375" y="111.125" width="4.25" height="67.75"/>
		<polygon points="976.8925781,158.6362305 974,161.75 996.5,182.5 1019,161.75 1016.1074219,158.6362305 996.5,176.699707 		"/>
	</g>
	<g>
		<polygon points="1015.0615234,283.7480469 1019.5,279 996.5,257.5 973.5,279 977.9384766,283.7480469 996.5,266.3974609 		"/>
		<rect x="993.25" y="262.75" width="6.5" height="64.5"/>
		<polygon points="977.9384766,306.2519531 973.5,311 996.5,332.5 1019.5,311 1015.0615234,306.2519531 996.5,323.6025391 		"/>
	</g>
	<g>
		<polygon points="1014.3212891,435.734375 1020,429.75 996.5,407.5 973,429.75 978.6787109,435.734375 996.5,418.8740234 		"/>
		<rect x="992.375" y="414.375" width="8.25" height="61.25"/>
		<polygon points="978.6787109,454.265625 973,460.25 996.5,482.5 1020,460.25 1014.3212891,454.265625 996.5,471.1259766 		"/>
	</g>
	<g>
		<polygon points="1013.5810547,587.7197266 1020.5,580.5 996.5,557.5 972.5,580.5 979.4189453,587.7197266 996.5,571.3505859 		"/>
		<rect x="991.5" y="566" width="10" height="58"/>
		<polygon points="979.4189453,602.2802734 972.5,609.5 996.5,632.5 1020.5,609.5 1013.5810547,602.2802734 996.5,618.6494141 		"/>
	</g>
</g>
<g>
	<g>
		<polygon points="143.0019531,-14.6748047 144.5,-16 121.5,-42 98.5,-16 99.9980469,-14.6748047 121.5,-38.9814453 		"/>
		<rect x="120.5" y="-40" width="2" height="68"/>
	</g>
	<g>
		<polygon points="142.1142578,137.0776367 145.25,134.3330078 121.5,107.3330078 97.75,134.3330078 100.8852539,137.0776367 
			121.5,113.6601562 		"/>
		<rect x="119.25" y="110.8330078" width="4.5" height="67.8330078"/>
	</g>
	<g>
		<polygon points="141.2265625,288.8300781 146,284.6660156 121.5,256.6660156 97,284.6660156 101.7724609,288.8300781 
			121.5,266.3017578 		"/>
		<rect x="118" y="261.6660156" width="7" height="67.6660156"/>
	</g>
	<g>
		<polygon points="140.7089844,440.2451172 146.7495117,434.9990234 121.4995117,405.9990234 96.25,434.9990234 
			102.2895508,440.2451172 121.4995117,418.2011719 		"/>
		<rect x="116.8330078" y="412.4990234" width="9.3330078" height="67.5"/>
	</g>
	<g>
		<polygon points="140.1914062,591.6601562 147.4990234,585.3320312 121.4990234,555.3320312 95.5,585.3320312 
			102.8066406,591.6601562 121.4990234,570.0996094 		"/>
		<rect x="115.6660156" y="563.3320312" width="11.6660156" height="67.3339844"/>
	</g>
</g>
<g>
	<g>
		<polygon points="199.9980469,4.6748047 198.5,6 221.5,32 244.5,6 243.0019531,4.6748047 221.5,28.9814453 		"/>
		<rect x="220.5" y="-38" width="2" height="68"/>
	</g>
	<g>
		<polygon points="200.8857422,152.9223633 197.75,155.6669922 221.5,182.6669922 245.25,155.6669922 242.1142578,152.9223633 
			221.5,176.3393555 		"/>
		<rect x="219.25" y="111.3330078" width="4.5" height="67.8339844"/>
	</g>
	<g>
		<polygon points="201.7734375,301.1699219 197,305.3339844 221.5,333.3339844 246,305.3339844 241.2265625,301.1699219 
			221.5,323.6972656 		"/>
		<rect x="218" y="260.6660156" width="7" height="67.6679688"/>
	</g>
	<g>
		<polygon points="202.2900391,449.7539062 196.2495117,455 221.4995117,484 246.75,455 240.7089844,449.7539062 
			221.4995117,471.7978516 		"/>
		<rect x="216.8330078" y="409.9990234" width="9.3330078" height="67.5009766"/>
	</g>
	<g>
		<polygon points="202.8066406,598.3378906 195.4990234,604.6660156 221.4990234,634.6660156 247.5,604.6660156 
			240.1914062,598.3378906 221.4990234,619.8984375 		"/>
		<rect x="215.6660156" y="559.3320312" width="11.6660156" height="67.3339844"/>
	</g>
</g>
<g>
	<g>
		<polygon points="299.9980469,7.6748047 298.5,9 321.5,35 344.5,9 343.0019531,7.6748047 321.5,31.9814453 		"/>
		<rect x="320.5" y="-43" width="2" height="76"/>
		<polygon points="299.9980469,-17.6748047 298.5,-19 321.5,-45 344.5,-19 343.0019531,-17.6748047 321.5,-41.9814453 		"/>
	</g>
	<g>
		<polygon points="300.8847656,156.4223633 297.75,159.1669922 321.5,186.1669922 345.25,159.1669922 342.1142578,156.4223633 
			321.5,179.8393555 		"/>
		<rect x="319.25" y="107.3330078" width="4.5" height="75.3339844"/>
		<polygon points="300.8847656,133.5776367 297.75,130.8330078 321.5,103.8330078 345.25,130.8330078 342.1142578,133.5776367 
			321.5,110.1601562 		"/>
	</g>
	<g>
		<polygon points="301.7714844,305.1699219 297,309.3339844 321.5,337.3339844 346,309.3339844 341.2265625,305.1699219 
			321.5,327.6972656 		"/>
		<rect x="318" y="257.6660156" width="7" height="74.6679688"/>
		<polygon points="301.7714844,284.8300781 297,280.6660156 321.5,252.6660156 346,280.6660156 341.2265625,284.8300781 
			321.5,262.3017578 		"/>
	</g>
	<g>
		<polygon points="302.2890625,454.2539062 296.25,459.5 321.5,488.5 346.75,459.5 340.7089844,454.2539062 321.5,476.2978516 		"/>
		<rect x="316.8330078" y="407.9990234" width="9.3330078" height="74.0009766"/>
		<polygon points="302.2890625,435.7451172 296.25,430.4990234 321.5,401.4990234 346.75,430.4990234 340.7089844,435.7451172 
			321.5,413.7011719 		"/>
	</g>
	<g>
		<polygon points="302.8066406,603.3378906 295.5,609.6660156 321.5,639.6660156 347.5,609.6660156 340.1914062,603.3378906 
			321.5,624.8984375 		"/>
		<rect x="315.6660156" y="558.3320312" width="11.6660156" height="73.3339844"/>
		<polygon points="302.8066406,586.6601562 295.5,580.3320312 321.5,550.3320312 347.5,580.3320312 340.1914062,586.6601562 
			321.5,565.0996094 		"/>
	</g>
</g>
</svg>
