<?xml version="1.0" encoding="utf-8"?>
<!-- Generator: Adobe Illustrator 15.0.2, SVG Export Plug-In . SVG Version: 6.00 Build 0)  -->
<!DOCTYPE svg PUBLIC "-//W3C//DTD SVG 1.1//EN" "http://www.w3.org/Graphics/SVG/1.1/DTD/svg11.dtd">
<svg version="1.1" id="レイヤー1" xmlns="http://www.w3.org/2000/svg" xmlns:xlink="http://www.w3.org/1999/xlink" x="0px"
	 y="0px" width="841.8896484px" height="595.2753906px" viewBox="0 0 841.8896484 595.2753906"
	 enable-background="new 0 0 841.8896484 595.2753906" xml:space="preserve">
<g>
	<rect x="71.5" y="-76.5" fill="none" stroke="#000000" stroke-width="0.25" width="100" height="150"/>
	<rect x="171.5" y="-76.5" fill="none" stroke="#000000" stroke-width="0.25" width="50" height="150"/>
	<rect x="271.5" y="-76.5" fill="none" stroke="#000000" stroke-width="0.25" width="50" height="150"/>
	<rect x="371.5" y="-76.5" fill="none" stroke="#000000" stroke-width="0.25" width="50" height="150"/>
	<rect x="471.5" y="-76.5" fill="none" stroke="#000000" stroke-width="0.25" width="50" height="150"/>
	<rect x="571.5" y="-76.5" fill="none" stroke="#000000" stroke-width="0.25" width="50" height="150"/>
	<rect x="671.5" y="-76.5" fill="none" stroke="#000000" stroke-width="0.25" width="50" height="150"/>
	<rect x="71.5" y="73.5" fill="none" stroke="#000000" stroke-width="0.25" width="100" height="150"/>
	<rect x="171.5" y="73.5" fill="none" stroke="#000000" stroke-width="0.25" width="50" height="150"/>
	<rect x="271.5" y="73.5" fill="none" stroke="#000000" stroke-width="0.25" width="50" height="150"/>
	<rect x="371.5" y="73.5" fill="none" stroke="#000000" stroke-width="0.25" width="50" height="150"/>
	<rect x="471.5" y="73.5" fill="none" stroke="#000000" stroke-width="0.25" width="50" height="150"/>
	<rect x="571.5" y="73.5" fill="none" stroke="#000000" stroke-width="0.25" width="50" height="150"/>
	<rect x="671.5" y="73.5" fill="none" stroke="#000000" stroke-width="0.25" width="50" height="150"/>
	<rect x="71.5" y="223.5" fill="none" stroke="#000000" stroke-width="0.25" width="100" height="150"/>
	<rect x="171.5" y="223.5" fill="none" stroke="#000000" stroke-width="0.25" width="50" height="150"/>
	<rect x="271.5" y="223.5" fill="none" stroke="#000000" stroke-width="0.25" width="50" height="150"/>
	<rect x="371.5" y="223.5" fill="none" stroke="#000000" stroke-width="0.25" width="50" height="150"/>
	<rect x="471.5" y="223.5" fill="none" stroke="#000000" stroke-width="0.25" width="50" height="150"/>
	<rect x="571.5" y="223.5" fill="none" stroke="#000000" stroke-width="0.25" width="50" height="150"/>
	<rect x="671.5" y="223.5" fill="none" stroke="#000000" stroke-width="0.25" width="50" height="150"/>
	<rect x="71.5" y="373.5" fill="none" stroke="#000000" stroke-width="0.25" width="100" height="150"/>
	<rect x="171.5" y="373.5" fill="none" stroke="#000000" stroke-width="0.25" width="50" height="150"/>
	<rect x="271.5" y="373.5" fill="none" stroke="#000000" stroke-width="0.25" width="50" height="150"/>
	<rect x="371.5" y="373.5" fill="none" stroke="#000000" stroke-width="0.25" width="50" height="150"/>
	<rect x="471.5" y="373.5" fill="none" stroke="#000000" stroke-width="0.25" width="50" height="150"/>
	<rect x="571.5" y="373.5" fill="none" stroke="#000000" stroke-width="0.25" width="50" height="150"/>
	<rect x="671.5" y="373.5" fill="none" stroke="#000000" stroke-width="0.25" width="50" height="150"/>
	<rect x="71.5" y="523.5" fill="none" stroke="#000000" stroke-width="0.25" width="100" height="150"/>
	<rect x="171.5" y="523.5" fill="none" stroke="#000000" stroke-width="0.25" width="50" height="150"/>
	<rect x="271.5" y="523.5" fill="none" stroke="#000000" stroke-width="0.25" width="50" height="150"/>
	<rect x="371.5" y="523.5" fill="none" stroke="#000000" stroke-width="0.25" width="50" height="150"/>
	<rect x="471.5" y="523.5" fill="none" stroke="#000000" stroke-width="0.25" width="50" height="150"/>
	<rect x="571.5" y="523.5" fill="none" stroke="#000000" stroke-width="0.25" width="50" height="150"/>
	<rect x="671.5" y="523.5" fill="none" stroke="#000000" stroke-width="0.25" width="50" height="150"/>
	<rect x="771.5" y="-76.5" fill="none" stroke="#000000" stroke-width="0.25" width="50" height="150"/>
	<rect x="771.5" y="73.5" fill="none" stroke="#000000" stroke-width="0.25" width="50" height="150"/>
	<rect x="771.5" y="223.5" fill="none" stroke="#000000" stroke-width="0.25" width="50" height="150"/>
	<rect x="771.5" y="373.5" fill="none" stroke="#000000" stroke-width="0.25" width="50" height="150"/>
	<rect x="771.5" y="523.5" fill="none" stroke="#000000" stroke-width="0.25" width="50" height="150"/>
</g>
<g>
	<polygon points="102.8076172,601.171875 95.5,607.5 117.6000977,633 96.5,633 96.5,639 146.5,639 146.5,633 125.4003906,633 
		147.5,607.5 140.1933594,601.171875 127.3339844,616.0048828 127.3339844,569.6621094 140.1933594,584.4951172 147.5,578.1669922 
		121.5,548.1669922 95.5,578.1669922 102.8076172,584.4951172 115.6665039,569.6621094 115.6665039,616.0048828 	"/>
	<polygon points="102.2900391,452.0048828 96.25,457.25 118.3828125,482.6669922 97,482.6669922 97,487.6669922 146,487.6669922 
		146,482.6669922 124.6166992,482.6669922 146.75,457.25 140.7099609,452.0048828 126.1669922,468.6855469 126.1669922,416.8144531 
		140.7099609,433.4960938 146.75,428.25 121.5,399.25 96.25,428.25 102.2900391,433.4960938 116.8330078,416.8144531 
		116.8330078,468.6865234 	"/>
	<polygon points="101.7729492,302.8378906 96.9995117,307 119.1660156,332.3339844 97.4995117,332.3339844 97.4995117,336.3339844 
		145.5,336.3339844 145.5,332.3339844 123.8330078,332.3339844 146,307 141.2265625,302.8378906 125,321.3671875 125,263.9658203 
		141.2265625,282.4960938 146,278.3339844 121.4995117,250.3339844 96.9995117,278.3339844 101.7729492,282.4960938 
		118,263.9658203 118,321.3681641 	"/>
	<polygon points="145,181.6669922 123.3300781,181.6669922 145.25,156.75 142.1142578,154.0068359 123.75,174.8588867 
		123.75,110.3076172 142.1142578,131.1611328 145.25,128.4169922 121.5,101.4169922 97.75,128.4169922 100.8857422,131.1611328 
		119.25,110.3076172 119.25,174.859375 100.8857422,154.0068359 97.75,156.75 119.6694336,181.6669922 98,181.6669922 
		98,184.6669922 145,184.6669922 	"/>
	<polygon points="144.5,31 122.8271484,31 144.5,6.5 143.0019531,5.1757812 122.5,28.3505859 122.5,-43.3505859 
		143.0019531,-20.1743164 144.5,-21.4995117 121.5,-47.4995117 98.5,-21.4995117 99.9980469,-20.1743164 120.5,-43.3505859 
		120.5,28.3505859 99.9980469,5.1757812 98.5,6.5 120.1728516,31 98.5,31 98.5,33 144.5,33 	"/>
</g>
</svg>
