<?xml version="1.0" encoding="utf-8"?>
<!-- Generator: Adobe Illustrator 15.0.2, SVG Export Plug-In . SVG Version: 6.00 Build 0)  -->
<!DOCTYPE svg PUBLIC "-//W3C//DTD SVG 1.1//EN" "http://www.w3.org/Graphics/SVG/1.1/DTD/svg11.dtd">
<svg version="1.1" id="レイヤー1" xmlns="http://www.w3.org/2000/svg" xmlns:xlink="http://www.w3.org/1999/xlink" x="0px"
	 y="0px" width="841.8896484px" height="595.2753906px" viewBox="0 0 841.8896484 595.2753906"
	 enable-background="new 0 0 841.8896484 595.2753906" xml:space="preserve">
<g>
	<rect x="71.5" y="-76.5" fill="none" stroke="#000000" stroke-width="0.25" width="50" height="150"/>
	<rect x="171.5" y="-76.5" fill="none" stroke="#000000" stroke-width="0.25" width="50" height="150"/>
	<rect x="271.5" y="-76.5" fill="none" stroke="#000000" stroke-width="0.25" width="50" height="150"/>
	<rect x="371.5" y="-76.5" fill="none" stroke="#000000" stroke-width="0.25" width="50" height="150"/>
	<rect x="471.5" y="-76.5" fill="none" stroke="#000000" stroke-width="0.25" width="50" height="150"/>
	<rect x="571.5" y="-76.5" fill="none" stroke="#000000" stroke-width="0.25" width="50" height="150"/>
	<rect x="671.5" y="-76.5" fill="none" stroke="#000000" stroke-width="0.25" width="50" height="150"/>
	<rect x="71.5" y="73.5" fill="none" stroke="#000000" stroke-width="0.25" width="50" height="150"/>
	<rect x="171.5" y="73.5" fill="none" stroke="#000000" stroke-width="0.25" width="50" height="150"/>
	<rect x="271.5" y="73.5" fill="none" stroke="#000000" stroke-width="0.25" width="50" height="150"/>
	<rect x="371.5" y="73.5" fill="none" stroke="#000000" stroke-width="0.25" width="50" height="150"/>
	<rect x="471.5" y="73.5" fill="none" stroke="#000000" stroke-width="0.25" width="50" height="150"/>
	<rect x="571.5" y="73.5" fill="none" stroke="#000000" stroke-width="0.25" width="50" height="150"/>
	<rect x="671.5" y="73.5" fill="none" stroke="#000000" stroke-width="0.25" width="50" height="150"/>
	<rect x="71.5" y="223.5" fill="none" stroke="#000000" stroke-width="0.25" width="50" height="150"/>
	<rect x="171.5" y="223.5" fill="none" stroke="#000000" stroke-width="0.25" width="50" height="150"/>
	<rect x="271.5" y="223.5" fill="none" stroke="#000000" stroke-width="0.25" width="50" height="150"/>
	<rect x="371.5" y="223.5" fill="none" stroke="#000000" stroke-width="0.25" width="50" height="150"/>
	<rect x="471.5" y="223.5" fill="none" stroke="#000000" stroke-width="0.25" width="50" height="150"/>
	<rect x="571.5" y="223.5" fill="none" stroke="#000000" stroke-width="0.25" width="50" height="150"/>
	<rect x="671.5" y="223.5" fill="none" stroke="#000000" stroke-width="0.25" width="50" height="150"/>
	<rect x="71.5" y="373.5" fill="none" stroke="#000000" stroke-width="0.25" width="50" height="150"/>
	<rect x="171.5" y="373.5" fill="none" stroke="#000000" stroke-width="0.25" width="50" height="150"/>
	<rect x="271.5" y="373.5" fill="none" stroke="#000000" stroke-width="0.25" width="50" height="150"/>
	<rect x="371.5" y="373.5" fill="none" stroke="#000000" stroke-width="0.25" width="50" height="150"/>
	<rect x="471.5" y="373.5" fill="none" stroke="#000000" stroke-width="0.25" width="50" height="150"/>
	<rect x="571.5" y="373.5" fill="none" stroke="#000000" stroke-width="0.25" width="50" height="150"/>
	<rect x="671.5" y="373.5" fill="none" stroke="#000000" stroke-width="0.25" width="50" height="150"/>
	<rect x="71.5" y="523.5" fill="none" stroke="#000000" stroke-width="0.25" width="50" height="150"/>
	<rect x="171.5" y="523.5" fill="none" stroke="#000000" stroke-width="0.25" width="50" height="150"/>
	<rect x="271.5" y="523.5" fill="none" stroke="#000000" stroke-width="0.25" width="50" height="150"/>
	<rect x="371.5" y="523.5" fill="none" stroke="#000000" stroke-width="0.25" width="50" height="150"/>
	<rect x="471.5" y="523.5" fill="none" stroke="#000000" stroke-width="0.25" width="50" height="150"/>
	<rect x="571.5" y="523.5" fill="none" stroke="#000000" stroke-width="0.25" width="50" height="150"/>
	<rect x="671.5" y="523.5" fill="none" stroke="#000000" stroke-width="0.25" width="50" height="150"/>
	<rect x="771.5" y="-76.5" fill="none" stroke="#000000" stroke-width="0.25" width="50" height="150"/>
	<rect x="771.5" y="73.5" fill="none" stroke="#000000" stroke-width="0.25" width="50" height="150"/>
	<rect x="771.5" y="223.5" fill="none" stroke="#000000" stroke-width="0.25" width="50" height="150"/>
	<rect x="771.5" y="373.5" fill="none" stroke="#000000" stroke-width="0.25" width="50" height="150"/>
	<rect x="771.5" y="523.5" fill="none" stroke="#000000" stroke-width="0.25" width="50" height="150"/>
</g>
<g>
	<g>
		
			<rect x="85.5001068" y="553.8266602" transform="matrix(0.9245567 0.3810445 -0.3810445 0.9245567 231.395813 9.7799072)" width="10.9997816" height="70.8466644"/>
		
			<rect x="96.5001068" y="566.3266602" transform="matrix(0.9245567 0.3810445 -0.3810445 0.9245567 236.9887543 6.5314941)" width="10.9997816" height="70.8466644"/>
	</g>
	<g>
		
			<rect x="86.5750885" y="403.8257446" transform="matrix(0.9246072 0.3809219 -0.3809219 0.9246072 174.180481 -1.5476379)" width="8.8498306" height="70.8475647"/>
		
			<rect x="97.5750885" y="416.3257446" transform="matrix(0.9246072 0.3809219 -0.3809219 0.9246072 179.7713318 -4.7953796)" width="8.8498306" height="70.8475647"/>
	</g>
	<g>
		
			<rect x="87.6496887" y="253.8257294" transform="matrix(0.9245875 0.3809697 -0.3809697 0.9245875 117.0578384 -12.8552246)" width="6.700623" height="70.8475647"/>
		
			<rect x="98.6496887" y="266.3257446" transform="matrix(0.9245875 0.3809697 -0.3809697 0.9245875 122.649498 -16.103241)" width="6.700623" height="70.8475647"/>
	</g>
	<g>
		
			<rect x="88.8247681" y="103.8262024" transform="matrix(0.9246037 0.3809305 -0.3809305 0.9246037 59.9055328 -24.1657562)" width="4.3504701" height="70.8471146"/>
		
			<rect x="99.8247681" y="116.3262024" transform="matrix(0.9246037 0.3809305 -0.3809305 0.9246037 65.496521 -27.4135284)" width="4.3504701" height="70.8471146"/>
	</g>
	<g>
		
			<rect x="89.9998398" y="-46.1733322" transform="matrix(0.9246579 0.3807989 -0.3807989 0.9246579 2.7625427 -35.4626312)" width="2.0003176" height="70.8466644"/>
		
			<rect x="100.9998398" y="-33.6733322" transform="matrix(0.9246579 0.3807989 -0.3807989 0.9246579 8.3512955 -38.7096443)" width="2.0003176" height="70.8466644"/>
	</g>
</g>
<g>
	<g>
		
			<rect x="185.5001068" y="553.8266602" transform="matrix(0.9245567 0.3810445 -0.3810445 0.9245567 238.9401398 -28.3245239)" width="10.9997816" height="70.8466644"/>
		
			<rect x="196.5001068" y="566.3266602" transform="matrix(0.9245567 0.3810445 -0.3810445 0.9245567 244.5330811 -31.572998)" width="10.9997816" height="70.8466644"/>
		
			<rect x="163.8159027" y="590.4998169" transform="matrix(0.4895347 0.8719838 -0.8719838 0.4895347 619.5727539 132.6372681)" width="65.368187" height="10.0003548"/>
	</g>
	<g>
		
			<rect x="186.5750885" y="403.8257446" transform="matrix(0.9246072 0.3809219 -0.3809219 0.9246072 181.7197723 -39.6398315)" width="8.8498306" height="70.8475647"/>
		
			<rect x="197.5750885" y="416.3257446" transform="matrix(0.9246072 0.3809219 -0.3809219 0.9246072 187.3106079 -42.8875732)" width="8.8498306" height="70.8475647"/>
		
			<rect x="163.8159027" y="441.4499207" transform="matrix(0.4895347 0.8719838 -0.8719838 0.4895347 488.7752075 56.0674744)" width="65.368187" height="8.1001654"/>
	</g>
	<g>
		
			<rect x="187.6496887" y="253.8257294" transform="matrix(0.9245875 0.3809697 -0.3809697 0.9245875 124.5990906 -50.9522095)" width="6.700623" height="70.8475647"/>
		
			<rect x="198.6496887" y="266.3257446" transform="matrix(0.9245875 0.3809697 -0.3809697 0.9245875 130.1907349 -54.2001953)" width="6.700623" height="70.8475647"/>
		
			<rect x="163.8159027" y="292.4000244" transform="matrix(0.4895347 0.8719838 -0.8719838 0.4895347 357.9776306 -20.5023193)" width="65.368187" height="6.1999769"/>
	</g>
	<g>
		
			<rect x="188.8247681" y="103.8262024" transform="matrix(0.9246037 0.3809305 -0.3809305 0.9246037 67.4451675 -62.2587891)" width="4.3504701" height="70.8471146"/>
		
			<rect x="199.8247681" y="116.3262024" transform="matrix(0.9246037 0.3809305 -0.3809305 0.9246037 73.0361633 -65.5065765)" width="4.3504701" height="70.8471146"/>
		
			<rect x="163.8159027" y="143.4500427" transform="matrix(0.4895347 0.8719838 -0.8719838 0.4895347 227.1800537 -97.072113)" width="65.368187" height="4.0999284"/>
	</g>
	<g>
		
			<rect x="189.9998474" y="-46.1733322" transform="matrix(0.9246579 0.3807989 -0.3807989 0.9246579 10.2967682 -73.5425262)" width="2.0003176" height="70.8466644"/>
		
			<rect x="200.9998474" y="-33.6733322" transform="matrix(0.9246579 0.3807989 -0.3807989 0.9246579 15.885498 -76.7895355)" width="2.0003176" height="70.8466644"/>
		
			<rect x="163.8159027" y="-5.4999399" transform="matrix(0.4895347 0.8719838 -0.8719838 0.4895347 96.3824997 -173.6418915)" width="65.368187" height="1.9998798"/>
	</g>
</g>
</svg>
