<?xml version="1.0" encoding="utf-8"?>
<!-- Generator: Adobe Illustrator 15.0.2, SVG Export Plug-In . SVG Version: 6.00 Build 0)  -->
<!DOCTYPE svg PUBLIC "-//W3C//DTD SVG 1.1//EN" "http://www.w3.org/Graphics/SVG/1.1/DTD/svg11.dtd">
<svg version="1.1" id="レイヤー1" xmlns="http://www.w3.org/2000/svg" xmlns:xlink="http://www.w3.org/1999/xlink" x="0px"
	 y="0px" width="841.8896484px" height="595.2753906px" viewBox="0 0 841.8896484 595.2753906"
	 enable-background="new 0 0 841.8896484 595.2753906" xml:space="preserve">
<g>
	<rect x="71.5" y="-76.5" fill="none" stroke="#000000" stroke-width="0.25" width="50" height="150"/>
	<rect x="171.5" y="-76.5" fill="none" stroke="#000000" stroke-width="0.25" width="50" height="150"/>
	<rect x="271.5" y="-76.5" fill="none" stroke="#000000" stroke-width="0.25" width="50" height="150"/>
	<rect x="371.5" y="-76.5" fill="none" stroke="#000000" stroke-width="0.25" width="50" height="150"/>
	<rect x="471.5" y="-76.5" fill="none" stroke="#000000" stroke-width="0.25" width="50" height="150"/>
	<rect x="571.5" y="-76.5" fill="none" stroke="#000000" stroke-width="0.25" width="50" height="150"/>
	<rect x="671.5" y="-76.5" fill="none" stroke="#000000" stroke-width="0.25" width="50" height="150"/>
	<rect x="71.5" y="73.5" fill="none" stroke="#000000" stroke-width="0.25" width="50" height="150"/>
	<rect x="171.5" y="73.5" fill="none" stroke="#000000" stroke-width="0.25" width="50" height="150"/>
	<rect x="271.5" y="73.5" fill="none" stroke="#000000" stroke-width="0.25" width="50" height="150"/>
	<rect x="371.5" y="73.5" fill="none" stroke="#000000" stroke-width="0.25" width="50" height="150"/>
	<rect x="471.5" y="73.5" fill="none" stroke="#000000" stroke-width="0.25" width="50" height="150"/>
	<rect x="571.5" y="73.5" fill="none" stroke="#000000" stroke-width="0.25" width="50" height="150"/>
	<rect x="671.5" y="73.5" fill="none" stroke="#000000" stroke-width="0.25" width="50" height="150"/>
	<rect x="71.5" y="223.5" fill="none" stroke="#000000" stroke-width="0.25" width="50" height="150"/>
	<rect x="171.5" y="223.5" fill="none" stroke="#000000" stroke-width="0.25" width="50" height="150"/>
	<rect x="271.5" y="223.5" fill="none" stroke="#000000" stroke-width="0.25" width="50" height="150"/>
	<rect x="371.5" y="223.5" fill="none" stroke="#000000" stroke-width="0.25" width="50" height="150"/>
	<rect x="471.5" y="223.5" fill="none" stroke="#000000" stroke-width="0.25" width="50" height="150"/>
	<rect x="571.5" y="223.5" fill="none" stroke="#000000" stroke-width="0.25" width="50" height="150"/>
	<rect x="671.5" y="223.5" fill="none" stroke="#000000" stroke-width="0.25" width="50" height="150"/>
	<rect x="71.5" y="373.5" fill="none" stroke="#000000" stroke-width="0.25" width="50" height="150"/>
	<rect x="171.5" y="373.5" fill="none" stroke="#000000" stroke-width="0.25" width="50" height="150"/>
	<rect x="271.5" y="373.5" fill="none" stroke="#000000" stroke-width="0.25" width="50" height="150"/>
	<rect x="371.5" y="373.5" fill="none" stroke="#000000" stroke-width="0.25" width="50" height="150"/>
	<rect x="471.5" y="373.5" fill="none" stroke="#000000" stroke-width="0.25" width="50" height="150"/>
	<rect x="571.5" y="373.5" fill="none" stroke="#000000" stroke-width="0.25" width="50" height="150"/>
	<rect x="671.5" y="373.5" fill="none" stroke="#000000" stroke-width="0.25" width="50" height="150"/>
	<rect x="71.5" y="523.5" fill="none" stroke="#000000" stroke-width="0.25" width="50" height="150"/>
	<rect x="171.5" y="523.5" fill="none" stroke="#000000" stroke-width="0.25" width="50" height="150"/>
	<rect x="271.5" y="523.5" fill="none" stroke="#000000" stroke-width="0.25" width="50" height="150"/>
	<rect x="371.5" y="523.5" fill="none" stroke="#000000" stroke-width="0.25" width="50" height="150"/>
	<rect x="471.5" y="523.5" fill="none" stroke="#000000" stroke-width="0.25" width="50" height="150"/>
	<rect x="571.5" y="523.5" fill="none" stroke="#000000" stroke-width="0.25" width="50" height="150"/>
	<rect x="671.5" y="523.5" fill="none" stroke="#000000" stroke-width="0.25" width="50" height="150"/>
	<rect x="771.5" y="-76.5" fill="none" stroke="#000000" stroke-width="0.25" width="50" height="150"/>
	<rect x="771.5" y="73.5" fill="none" stroke="#000000" stroke-width="0.25" width="50" height="150"/>
	<rect x="771.5" y="223.5" fill="none" stroke="#000000" stroke-width="0.25" width="50" height="150"/>
	<rect x="771.5" y="373.5" fill="none" stroke="#000000" stroke-width="0.25" width="50" height="150"/>
	<rect x="771.5" y="523.5" fill="none" stroke="#000000" stroke-width="0.25" width="50" height="150"/>
</g>
<g>
	<g>
		<polygon points="180.71875,-3.1005859 214.5,-26.5498047 214.5,-29 178.5,-4 178.5,-2 214.5,23 214.5,20.5498047 
			180.71875,-2.9003906 		"/>
		<rect x="178.5" y="32" width="36" height="2"/>
	</g>
	<g>
		<polygon points="215,125.7250977 215,120.5 178,144 178,149 215,172.5 215,167.2749023 181.609375,146.5996094 
			181.609375,146.3999023 		"/>
		<rect x="178" y="179.3999023" width="37" height="4.6000977"/>
	</g>
	<g>
		<polygon points="215.5,278 215.5,270 177.5,292 177.5,300 215.5,322 215.5,314 182.5,296.0996094 182.5,295.9003906 		"/>
		<rect x="177.5" y="326.7998047" width="38" height="7.2001953"/>
	</g>
	<g>
		<polygon points="216,429.75 216,419.75 177,440 177,451 216,471.25 216,461.25 183.5,445.5996094 183.5,445.4003906 		"/>
		<rect x="177" y="475.1503906" width="39" height="9.0996094"/>
	</g>
	<g>
		<polygon points="216.5,581.5 216.5,569.5 176.5,588 176.5,602 216.5,620.5 216.5,608.5 184.5,595.0996094 184.5,594.9003906 		"/>
		<rect x="176.5" y="623.5" width="40" height="11"/>
	</g>
</g>
<g>
	<g>
		<polygon points="312.28125,-3.1005859 278.5,-26.5498047 278.5,-29 314.5,-4 314.5,-2 278.5,23 278.5,20.5498047 
			312.28125,-2.9003906 		"/>
		<rect x="278.5" y="32" width="36" height="2"/>
	</g>
	<g>
		<polygon points="278,125.7250977 278,120.5 315,144 315,149 278,172.5 278,167.2749023 311.390625,146.5996094 
			311.390625,146.3999023 		"/>
		<rect x="278" y="179.3999023" width="37" height="4.6000977"/>
	</g>
	<g>
		<polygon points="277.5,278 277.5,270 315.5,292 315.5,300 277.5,322 277.5,314 310.5,296.0996094 310.5,295.9003906 		"/>
		<rect x="277.5" y="326.7998047" width="38" height="7.2001953"/>
	</g>
	<g>
		<polygon points="277,429.75 277,419.75 316,440 316,451 277,471.25 277,461.25 309.5,445.5996094 309.5,445.4003906 		"/>
		<rect x="277" y="475.1503906" width="39" height="9.0996094"/>
	</g>
	<g>
		<polygon points="276.5,581.5 276.5,569.5 316.5,588 316.5,602 276.5,620.5 276.5,608.5 308.5,595.0996094 308.5,594.9003906 		"/>
		<rect x="276.5" y="623.5" width="40" height="11"/>
	</g>
</g>
<g>
	<g>
		<rect x="78.5" y="-11" width="36" height="2"/>
		<rect x="78.5" y="9" width="36" height="2"/>
		
			<rect x="95.4996262" y="-25.3577538" transform="matrix(-0.9332449 -0.3592407 0.3592407 -0.9332449 185.6603851 39.4979553)" width="2.0007474" height="55.7135544"/>
	</g>
	<g>
		<rect x="78" y="138" width="37" height="4.6000977"/>
		<rect x="78" y="158.3999023" width="37" height="4.6000977"/>
		<polygon points="84.1298828,179.206543 88.8696289,180.7915039 108.8696289,125.7919922 104.1298828,124.2070312 		"/>
	</g>
	<g>
		<rect x="77.5" y="287" width="38" height="7.2001953"/>
		<rect x="77.5" y="307.7998047" width="38" height="7.2001953"/>
		<polygon points="82.6933594,330.2734375 90.3056641,332.7246094 110.3056641,274.7250977 102.6933594,272.2739258 		"/>
	</g>
	<g>
		<rect x="77" y="436" width="39" height="9.0996094"/>
		<rect x="77" y="457.9003906" width="39" height="9.0996094"/>
		<polygon points="81.4946289,481.4179688 91.5048828,484.5820312 111.5048828,423.5820312 101.4946289,420.4179688 		"/>
	</g>
	<g>
		<rect x="76.5" y="585" width="40" height="11"/>
		<rect x="76.5" y="608" width="40" height="11"/>
		
			<rect x="90.0001068" y="568.973877" transform="matrix(-0.9544933 -0.2982323 0.2982323 -0.9544933 8.9236374 1206.3615723)" width="12.9997797" height="67.0522156"/>
	</g>
</g>
</svg>
