<?xml version="1.0" encoding="utf-8"?>
<!-- Generator: Adobe Illustrator 11 Build 225, SVG Export Plug-In . SVG Version: 6.0.0 Build 78)  -->
<!DOCTYPE svg PUBLIC "-//W3C//DTD SVG 1.0//EN"    "http://www.w3.org/TR/2001/REC-SVG-20010904/DTD/svg10.dtd" [
	<!ENTITY ns_flows "http://ns.adobe.com/Flows/1.0/">
	<!ENTITY ns_svg "http://www.w3.org/2000/svg">
	<!ENTITY ns_xlink "http://www.w3.org/1999/xlink">
]>
<svg  xmlns="&ns_svg;" xmlns:xlink="&ns_xlink;" xmlns:a="http://ns.adobe.com/AdobeSVGViewerExtensions/3.0/"
	 width="750.25" height="750.25" viewBox="0 0 750.25 750.25" overflow="visible" enable-background="new 0 0 750.25 750.25"
	 xml:space="preserve">
	<metadata>
		<x:xmpmeta  x:xmptk="XMP toolkit 3.0-29, framework 1.6" xmlns:x="adobe:ns:meta/">
			<rdf:RDF  xmlns:rdf="http://www.w3.org/1999/02/22-rdf-syntax-ns#" xmlns:iX="http://ns.adobe.com/iX/1.0/">
				<rdf:Description  rdf:about="" xmlns:pdf="http://ns.adobe.com/pdf/1.3/"></rdf:Description>
				<rdf:Description  rdf:about="" xmlns:tiff="http://ns.adobe.com/tiff/1.0/"></rdf:Description>
				<rdf:Description  rdf:about="" xmlns:xap="http://ns.adobe.com/xap/1.0/" xmlns:xapGImg="http://ns.adobe.com/xap/1.0/g/img/">
					<xap:CreateDate>2005-10-18T08:31:30Z</xap:CreateDate>
					<xap:ModifyDate>2005-10-18T08:31:30Z</xap:ModifyDate>
					<xap:CreatorTool>Illustrator</xap:CreatorTool>
					<xap:Thumbnails>
						<rdf:Alt>
							<rdf:li  rdf:parseType="Resource">
								<xapGImg:format>JPEG</xapGImg:format>
								<xapGImg:width>172</xapGImg:width>
								<xapGImg:height>256</xapGImg:height>
								<xapGImg:image>/9j/4AAQSkZJRgABAgEASABIAAD/7QAsUGhvdG9zaG9wIDMuMAA4QklNA+0AAAAAABAASAAAAAEA
AQBIAAAAAQAB/+4ADkFkb2JlAGTAAAAAAf/bAIQABgQEBAUEBgUFBgkGBQYJCwgGBggLDAoKCwoK
DBAMDAwMDAwQDA4PEA8ODBMTFBQTExwbGxscHx8fHx8fHx8fHwEHBwcNDA0YEBAYGhURFRofHx8f
Hx8fHx8fHx8fHx8fHx8fHx8fHx8fHx8fHx8fHx8fHx8fHx8fHx8fHx8fHx8f/8AAEQgBAACsAwER
AAIRAQMRAf/EAaIAAAAHAQEBAQEAAAAAAAAAAAQFAwIGAQAHCAkKCwEAAgIDAQEBAQEAAAAAAAAA
AQACAwQFBgcICQoLEAACAQMDAgQCBgcDBAIGAnMBAgMRBAAFIRIxQVEGE2EicYEUMpGhBxWxQiPB
UtHhMxZi8CRygvElQzRTkqKyY3PCNUQnk6OzNhdUZHTD0uIIJoMJChgZhJRFRqS0VtNVKBry4/PE
1OT0ZXWFlaW1xdXl9WZ2hpamtsbW5vY3R1dnd4eXp7fH1+f3OEhYaHiImKi4yNjo+Ck5SVlpeYmZ
qbnJ2en5KjpKWmp6ipqqusra6voRAAICAQIDBQUEBQYECAMDbQEAAhEDBCESMUEFURNhIgZxgZEy
obHwFMHR4SNCFVJicvEzJDRDghaSUyWiY7LCB3PSNeJEgxdUkwgJChgZJjZFGidkdFU38qOzwygp
0+PzhJSktMTU5PRldYWVpbXF1eX1RlZmdoaWprbG1ub2R1dnd4eXp7fH1+f3OEhYaHiImKi4yNjo
+DlJWWl5iZmpucnZ6fkqOkpaanqKmqq6ytrq+v/aAAwDAQACEQMRAD8A9U4q7FXYq7FXYq7FXYq7
FXYqhtT1Kx0vTbvU7+UQWNjDJc3c5BISKFC8jkKCfhVSdhiqJxV2KuxV2KuxV2KuxV2KuxV2KuxV
2KsW/Kx3f8uvLruxZmsYSWJqSePjirKcVdirzfyzp2tRXXlUz21yiwXmvtdGRJAESW4mMBkqNg6k
FK9R0xV6RirsVedfmP5ovob/AEXTItC1SZf0zaFbiBbb0rj0Fa6KRFp1ev7mvxKv2T2xVS0PzfqF
z+Y+tyny3q6RtZ6VYlGW0pAUlu5mkkpcmgZbpfs1NF6Yq9KxV4n5/i0vWNG/MyPX72WTW9L0+/fS
NGeeSGKGzSwLw3MNurIk3qPyLSsGofg2pTFXp2ieStJ0PUGu9KmvLeB42jk01rqaazLFgwlEMzSC
NxxpWMrWp5V2oqn2KvPrfyx5b81ec/Nb+ZbGDWJNLubax020vY1mit7V7C3ufUhjkDKryTzSgyqO
R4ha/DiqWadrmpxeU18r6HdSSalf6pqOkaBfuxleHT7S5dJrss1eS2UdYkLV5OIwftYq9J0jS7LS
dLtNLskKWdlCkECkliEjUKOTHdjtuTuTirEvzIt7CbUfLia/H63lGW5kg1SJ/wDeY3MyBbH62vRo
DJySjVT1GTl2xVBeWtN8s2v5jPD5KtIbLSbGxuIPMSaeixaebxpYTaxCOICE3MapMXKjkqkBvtCi
r0XFWN6Tb3qefPMU8kUi2ctnpi28rKwjZ0N16gRj8JK8l5U8RXFWSYq7FXYqxr8tLS6s/IGgWt3D
Jb3MNlEk0EqlJEYLurKwBB+eKslxV2KuxV2KuxV5r5x8weY285+V7WPyvdyrZajeXVs63NiouFis
Lm15JymBUcbrlR6H6dsVXeR9c8wXXnHzTLN5buoIp9St7ae4e4s3W3EGn254twmZm+KQmkYYb+NQ
FXpGKsG/OfRtE1T8sfNM1/ZW95NYaRqM1nLNGkjwTR2sjB42YEowKjcYqutbW68q+bdH0mz1C4vN
D1tbmJdOvZXupLSW2i9YSw3Epeb0So9NkdmAJTjx3BVZvirHvMnk3ynqkzarq0TwzwQlJ763urix
c26VcpNLbSQGSJak8XJXrtirzvStPubufRLrTuegWnmeU2Oki2VYpbLy9Y28lzFDCGBEU17IgkkI
HII1PtICFWY6XBf+XvPNroiald6hpGr6fdXkUN9K1zLbXFjLbxsUmespjlW7FQ7EKyjjTliqjqum
nzr5k1fQNTmkj8r6OsEN3pcLGJr+e4jE5NxIhEn1dI2VRGpAduXOqjjiqVfpf/lVWlS6NexmTy3F
DO3le/RSWWRVaRNMuAo+KVj8Nu/WX7J+MVdVn3lu31G38vaXb6nK0+pQ2kEd9MxqzzrEolYkdSzg
nFUxxV2KuxV2KoXStP8A0dpttY/WZ7z6tGI/rV2/qzycf2pHoOTHuaYqisVdirsVdirsVS+60S1u
dasNXkeQXOnR3EUEYI9Mi69PmWBBPIeiONCOpxV2k6JaaXJqEkDyO+pXb3twZCD+8dEjovELRQkS
gfrxVMMVYL57/K601zR/MK6Ncz6TrGtWVzBKYbiSKzuJpoDEpuoKSxEGoDusfqce9aYqnmh+S9L0
q/bVGnutS1d4zAdR1Cdp5ViJDNHEvwxRKzKCwjReRpXoMVT7FUs8yeX7PzBpMmk3skqWVw0Zuo4S
q+tEjh2gclW/dyheEgFCVJFcVWeYvLVlrlnBBLLNZ3FnMtzp9/aMqT206KyCSIusifYdkKurKykg
gg4qhdA8oDTdTm1i/wBTuta1maEWwvbwQp6VuG5mKGK3jhjRWajMeJZiBU7CirWteTo77VBrGn6l
eaJq/pLBNd2JhYTxRlmjjnhuI54ZAhduLcQ4qaMMVS+4/LHTtVP/ADtepXvmZFVhFa3xhitY2deP
Nbe0itkLqCeDycmU7qQcVZLo2nNpml2untd3F/8AVYxELu8ZXuJAuwMjosYZqbcqVPU1O+KozFXY
q7FXYq7FXYq7FXYq7FXYq7FXYq7FXYq7FXYq7FXYq7FXYq7FXYq7FXYq7FXYqkPkXzhY+cPK9p5h
sYZbe1u3nRIZ+PqA21xJbtXiWG7REjfpiqfYq7FWIaT+ZelanJpKRWs6HV9U1DR4OfD4ZdNS4eR2
ox+BhaNxpvuK4qy/FXYqkvmnzVZ+XYdNkuopJv0nqVppUCxcaiW9lEaseRHwr9pqb0xV0Pmqzm85
XflVIZDd2dhBqM1xQeiFuJZIkjrWvP8AclunTFU6xV5t+ZP5y6d5bttd03RrS81jzJpWnzXc6Wds
09tYt6LSQyX0paJEj25MA3Lj26YqmHkX807HzHJZ6Ze6bqWj63cWouUg1C0aCKdVVTJJbyqZYnSr
VHx1p2xVnOKsK1/8yLm08xXHl7y95evfMup6fDHcasLSS3gitUmBMSPLcSRqZXUcljXfjviqZaL5
+8uap5Qk81iV7TS7ZJ31AXS+nLatalluIp034vEyEECvtUUxVMPLOtNrmgWGsGzmsBfwrOlpc8RM
iPunMKWAJWhpXbFUr87+frHyr+jrb6ldarrOszNBpOkWKq087xrzkasjIiRxru7s2wxVAaB+ZU91
5kt/LXmLy/e+WtZvYZLjTY7l7e4guUgoZVintZJU5orBmVqbYqzbFUqs/MVrdeZdU0BInW50q2s7
qaU04Mt806oFoa1X6q1ajuMVTXFXYq7FXmv/ADjj/wCSd0X/AIz6l/3U7nFXpWKuxVhGi/ljBpcm
jOuoNL+h9X1LWVBjC+o2ppcoYj8R4iP659rvx6CuKs3xV2KvH/ze8r3955o8nxJ5k1WFNU8wQtHZ
xmyEFqLW0nm9W35WzSeoGjFPUZ13O3Siqh5O8n6lL+bnnB2826zI2jx6PbtKzWBe4VopLow3FLQL
wHqCgjCNRjU7iir2fFXhX5laB548paV+Y99pNhBrnlfzZZXdzfkTLb3unytYtBLKQ44TwhV5cVIc
dKeKrOPyt/Mjyx5g02z0O3eaz17T7G3N1pF/C9tciMRqvqorikkZ7MhI3HjirPcVeaTS+ZPJ3n7z
Nqi+Xr3XtG8zfVLq3m0sQvNBc2lqlq8E8cskJ4usSsrgkCtDirz71VhS70Xzg66Vo/6Ul82efIEb
6wkbX1wG0zRf3QYyySlUllVF+ILt9rFXtHlf8w/LPmS9uNPsJLiDU7WNZ5tOv7aeyufRc0WZYrlI
2aMnbktRX5jFWGfnlf2+mXnljW9KuBL560q6kfQNDRHml1CG4QR3lt6cQZ0Vo1B9UjihUVxVD/l5
qF75+19fzI1uWLT7Py8t5YaZ5ajLPcWUrEJdy6gzLGwnZI6CPjRVodzuVXqWia1put6RZ6xpc31j
Tr+JLi0n4unOOQVVuLhXFR2IriqDsfLiWnmvV/MInLvqtrY2jW/GgjFi1wwYNXfn9a6U2piqc4q7
FXYqwz8nbLRrH8vNNttG+uDTklvTD+ko1iuqtezNJzRdgPULcPFaHFWZ4q7FXYq7FXYq8e87fl89
5+anlDhq2uehdSave3Ekd7KEtStuqqsDdIAxuOAUdV26A4q3+WXkF083+b9Wm1TWh9V1xILcT3kt
LqO1s7ejXAP9+tWKgn9kU7Yq9gxV5J+b3n++sPK3nPQtW8t6lDbXGl30Ol63axG8splls2VTO8NW
tmDsQfUWlBy5UxVL/Kj3/nLzj5C1jT9CvLDSfKWnzi91rUbdrT6011ZC3jt7VXpJKgYmQuV47be6
r2vFUl85+Y/8OeWr7V0tZb64gQLaWMCs8k9xIQkMSqtT8UjAE9hv2xV5hrfkrUfLHlfyxrWoQNrO
oWPmGLzF50e2iMrySzRSxyXEcagu62byp6aqPsJWm2KprYa/pvnf82NB1fyys1xpPl/T79dU1gwS
QQyPfeiILRGlVGkZTE0jACi7b1JGKofVNVg8k/nFrPmXzPa3B0PW9Os7XSddigluYrI2xf6xay+i
sjxCZ2WSvHiaexoqw38xtU/xNf3Wp/k1DqF55j1K0msvMc1vaywadPZmB1DTyXIgQ3cdR6DIS37J
22xV7V+W91os/kbRU0ZZotPtLSG0iguo2huIvq6CIxzRtusi8fi8eoJG+KskxV2KuxV2KuxV2Kux
V2KuxV2KuxV2KuxVD6jp9lqOn3On30K3FleRPb3UD/ZkilUo6N7MpIxVUt7eG2t4reBBHBCixxRj
oqKKKB8gMVVMVdirsVdirsVdirsVdirsVdirsVdirsVdirsVdirsVdirsVdiqncXFvbW8tzcypBb
wI0k00jBEREHJmZmoAoAqScVdb3Fvc28VzbSpPbzoskM0bB0dHHJWVlqCpBqCMVVMVdirsVdirsV
dirsVdirsVdirsVeS/8AOM/mLXde8h6hea1fz6jdR6xdwJPcOZHESLHxQFv2RU0GKvWsVdirwGy8
3+aH0by9K2q3JkuPzIl0udzK1XsRJdAWzb7xfAvw9NsVe/Yq7FXhH57fnh5Z0i80zy5p3mCWx1ux
12w/xBHCl3GYtPoZLgtIkfGROLJVY2LGuw2xVBaT/wA5F+R7z86LmX/E0x8qTaVBY6ZAYbwQyajJ
chmYQ+jVW4njzdR86Yq+hMVfOH5leaPPfnTUvzM0HTdaTy/5b8laVM17YpBHLc6lztZXdWdzyjjP
plSU7EbEnZVln5I+XPzP03RPKV7N5og1byde6RbSy6TdWqxXNoJLRWgjtp46l1QlVPqH7I6VNcVe
x4q8bvrXzF5//NrzX5ebzNqfl7Q/KFvp6W9voswtZri41CA3Bmml4uzKlOPDp0/yuSqA8v8A5ueY
dJ/LDXP0lMNb82aTr135U0OQKofUryNlW2fiKA7SVbxCnvir1byNomraJ5V07TtZ1KbVtXjj5ahq
E7mRpJ3JeTiT0RWPFB/KBirz/wDPfzL5hs9Z8k+WtO1p/Lem+Zr2e31TXIVHqxCJYzFCkjCkbTNI
QG67eFcVSRG8xfl/+cflLyppnmvVfNOn+YI7k6tpeszre3FrHEnKO5WYKjIpPLt0Ujwoq94xVgGm
6vqkn5463pL3UraZBoNlcQ2ZY+ksz3MqtIF6BmVQCcVZ/irsVdirxj/nFGCeH8utSWaNo2Ot3pCu
CpoVi33xV7PirsVU/qtsAAIkor+oo4jZ/wCYf5XviqpirsVfOf5x/m15bn8/eTtONrqXHy5r0txq
I+pyfvGs1aMG32rN8VT8O1N8Vd+XP5teW7v88PON/wDVtTCeYJNG07SlNnIPTKQmKQ3Ip+6HqsCC
x+zvir6MxV5B+fH5ReTda8t+YvOBjmsPMenaTeTG/sZTC06wWzMIblaMsiMq8G25Fdq0xViX5V+b
vzB8mXv5d+XPMF7DrflXzppcLaHKIxFdWDx2scv1c8f7yNBKiVbcjeooVKr6MxVgfm38odM13zGf
MthrOqeW9cmtxZ3t5pE6wm4gX7Kyq6SAsv7LChH0CirwuN00Z7TW/JlqlxpOnasnlT8vpL9jLHd6
xqLML/WLhl4mT+7McbD4fADjTFXrGleYPzJ8qfmN5f8AK3m/V7XzHpvmqG6+pahFaJYSW11ZRes8
bIjOro6bKTuT4U3VSj83J7/8yPNz/k7pMVtbwW1vFqnmDW7qP1Xtk5KYls46r+9PMVavRiPHFWK+
WtQtvyS1PzLYecbcSa7f211eaB55l9SY6ksUfNbSV5GkMcqsi/ADRjT/ACSyr3D8rdY1/Wvy90HW
Nf4fpbUbRLq49NPTWkxLx0Xt+7ZcVZOIohIZQiiQjiXoORA7VxVdirsVdirHvI/l7zBoOkzWeua/
J5ju5LmSeO+mhEDJE4XjDxDy1CUO9e+KshxV2KuxV2KuxVifmDyIdZ8/eVPNjX3op5WW/Edh6XL1
21CAQFjLzHDgFrTia+2Ku8meQv8ADeu+atXa9F5L5mvxfFBD6XoKqcEi5c5PUp/Nt8sVZZiryH8z
PyV1XUrfzNqnlHzDqWnajrdpcfX9CWVJbG/la2MQj4TlVhaUKsZfl8I6UxVr8p/yNfQ30DzJ5r1O
81bzLpemw2tjY3Lp9W0wGARvBAsZdWMYrHz5UPXrvir1/FUk866Fqmv+V9R0XTNT/Q11qERg/SIi
9do43NJOCc4viZKqG5fDWuKsf8y/lFoWq/l9YeTdPnk0iLR2t59Fv4AGktrm1NY56HiHYkty3Fan
cHfFUD5c/LDzQfOdh5u87eZF17UdGt5bfRbe2tFs4ITcrwnmYBn5ySJ8PYfhRV3nX8pNS1LzhF52
8o+YZPLPmgW31O8m9BLu3uoAQVSWF2UbUG+/QbVFcVSbW/yM80edikH5jecpNU0m3YyW2k6ZZxWE
YmKFFleQmZ3K8jQH+JGKs/8AIHlzXvLflu30bWdb/T8ln+6tb9rf6tL6CgBEl/ezCRlG3Pao6iu5
VZHirsVdirsVdirsVdirsVdirsVdirsVdirsVdirsVdirsVdirsVdirsVdirsVdirsVY75N/MPyf
5zivJfLWofX49Pl+r3bejPDwkIrx/fJHXp1FRirIsVdirD3/ADc/L1NNn1JtWpZW2qnQJpfq9z8O
pChMHH0uR6j4wOH+VirMMVdiqR+bvO3ljyhYW9/5ivfqVpd3KWVvJ6Usxe4lVmRAsKSNuI23pTFW
/wDGnlr/ABd/hD65/wA7ELX6+bH05f8Aeblw5+rw9L7X7PKvtiqd4qw38x/zW8oeQ9KubjVb+3Gq
LbS3Gn6Q0vCe5dFYxxqFWRkWR14cytBiqD/Lf86vI3nmysls9StrfXbiFZLjQ2mrPFIV5PGnNYjL
w7si4qz7FWE+evzl/LzyPfQ6f5h1P0b+eMzJaQxS3EgiFf3jrEr8F+E/a8MVT7y75v8ALXmPQI/M
GjahFdaPKrOLsEoqhPt+oHCtGVp8QYCmKu8p+bvL/m3Rk1ry/cteaZK7xxXJimhDtGeLcRMkbMA2
3ICmKqHnPz55S8l6WNT8y6jHp9qzcIuQZ5JH68Y40DO58aDbvirHPJv5+flX5v1dNH0XWQ+pygmC
2nhmtzLQVIjMqqrNQfZrXFXoWKpOnm7y8/myTykt3XzBFZ/pJ7L05drUyCL1PU4+l9tgOPLl7Yqn
GKuxV2KvnX/nDb/jlecv+2qv/EGxV9FYq7FXhE35D+b38p6jo4vNP+s3fnVvNEbmSb0xZEKPTY+j
X1vh+zTj/lYq93xV2KvmX/nJaz/Mq680eV9KfU9OOiatr1qvlyz4OJorlQsSyXLBfiRXnP2a7HFU
t8t6X+dV5/zkJ5h9PV9I/wAT6Tpttb6nfNA/1VrWcQTKkKcOQk4kfER44q+rMVfHX5z6Vc+V/wAy
/O+u+bvLs2taT5i0y4tfLmshBNDaXM1sIrdjy+BGiYcd6Mv2kr3Venf84/W35Ma9ofla+0yLT288
6BZILoxJ9XvBKYTBM8qUjM4o5HMhgDShrir3fFXz1rfmGy/Lj/nIPzJ5n816fctovmHTrWLRtVgg
e4VHhiijkt/h+yZHiO3+rXY1xV5/5cutdPlK58hWkbeXG8/6vd6xcLcARDTPLYCCSaQNxEYlETIl
aBlX/KU4q+mfIPmL8t59Nt/L3k3V7C9g0m3SKOzs7iOV0hjAQOyqeRqerdyfHFXl/wDzlTotxajy
p5/Vba8tPKd6HvNJu3VFuEmliYBA+zEmHiygE0NaGhxVjUGqy/nZ+Z/lrzboel/oXyh5ImS51LXL
z045ZZImjuTA3FiOKekAN6KrMxpUDFX0zYajp+o2kd5p9zFeWctfSubd1ljbixVuLoSpowIPvirD
LfyHq8f53XPntprc6RNoA0hYAz/WfXF0k/Irw4cOKdeda9sVZ3irsVdirxP/AJxi0nynp2neZ18u
+YH1+OXUA9272Ulj6MnE/uwJHk5/6wpir2zFXYq7FXYq7FXyv+cHlP8AMm4/OXyjpjecPVk1TUL6
+8u1tYwNLRGEiDr++4ooX4v5ffFVP8pPJ35lah+b3nS7h85cLzRb+yttevjZof0kiM4aIA0EXFbf
iePiDir6sxV4T+cP566Fpll528j69pt9pl1cabd2uh37xM9te/WLMopVgAV/fOVrQrtUkdMVeP8A
5XQaZ5j/ADK/LiTyNpU9teaDZ25846nGhhgdo1pKWptVkqhY7yFqb9Sq+1sVSvzT5k0vyx5d1DX9
Vk9Ow02Fp5jtU8fsoterOxCqO5OKvlrzz5W8y3n5N63+ZWtwyfprzdf2d3qNvGSWttBV/wDR7dR2
WvpOfbjy3BxVPmu/y11D87Py1P5UxWwkt47l9bfS4vSRbIxKIxc0UDnx9QNz+LcA7lcVU/zfv9Jt
P+cjtGm/MqN5PIUdoDpAmR5LL1uHxNJGgYPSc/GKHbhy+HFWG/mpr/lHRfMN7e/k1rf1mTzTaXNp
5i8uWMEslv6ckL8riKihFKhmai7oakfCSMVfQX/ONl75al/KDQbLQ79b36hEU1BRUPDdzO1xNG6n
cUeU8T0I3GKvT8VdirsVdiqC0zRNF0pZV0uwtrBZ25zLbQxwh2/mbgFqfc4qjcVdirsVdirsVQs+
k6VPfwahPZQS39qCLW7eJGmiDAhhHIRyWtd6HFXWmlaXZT3M9nZwW094/qXcsMaRvM+/xSMoBdtz
ucVRWKpf5g0LTdf0S+0bUo/VsdQgltp1GzcJkMbFTvxajGh7Yqt8t+XdL8uaFZaJpcZjsbCJIIFY
8m4oAoLN+01BucVTLFUNqOmabqVq1pqNpDe2jkF7e4jWWMlTUEo4ZTQ4qrvDE8TQuitEylGjIBUq
RQqQdqUxVL9H8seWtFaVtG0mz0xp95zZ28UBc9fj9NV5fTiqI1HStL1O2NrqVnBfWxIJguY0lSo6
Hi4YYqhdF8q+V9C5foTR7HS+Y4v9StobeorWh9JV774qq6Z5e0DSXmk0vTbWwe4p9Ye1gjhMnGpH
MxqvKnI9cVR+KuxV2KuxV2KuxV2KuxV2KuxV2KuxV2KuxV2KuxV2KuxV2KuxV2KuxV2KuxV2KuxV
4l/zjf8Amx5v8/X3m6HzDJBImjy2iWXoRCKgma5D8qE8v7lcVe24q7FXzNq35+fmFa+SPPOsRTWw
vdA8xLpWnkwKVFsZHWjrX4moo3xV9JWEzz2NtNJ9uWJHamwqygnFVfFXiH/OQv56P5Os7PT/ACpq
1j/iT68kOpWsvGZ4IDEzVkjr8HxMhqcVQR/5yL05vztGip5h01PIMdl6kl+SnBrn0q8BcFqfaYfd
TFXvmKvnj82Pz585yecNU/L38vtGivb2ytpf0rf3BPwKsXOZogJIlQRK1Obtu2wXpVVjv/OM/n/8
2Y7bR9Jm0JtX8o6nezR/4gZ5XmgcAtJ6snKUBV4fCrotenLfFX1Tirwvzt+YX5r67+bt7+XP5dzW
OlyaLZJe6jqN+nqczIkbhRVJQF/0iNQAla1NaYqv8hf85CzS/lZ5h8x+cYIodY8rTvY3UcB4pdTk
AQKg+LizueDUqBTlsNgqz38oNQ886r5HstY86NENW1Ot1FawxeiILaQAwxstSSxX4zXcVp1GKsN/
5yD/ADj8yeSrjQvLvlW2hk1/zC5WK7uhWKJeaxIFBKqXZ36seKgbg12VYXqn5tfnl+WPm/QrD8xZ
tM1rSNbahaxULIiBlSQoVSA84zIpoyEN0B7hV9NYq8vufzB8xx/85CWvkZXi/QMujm/dPTHq+sC4
r6nWnwjbFXqGKuxV2KvmD/nC3/jqfmF/xnsP+J3uKvp/FXYqxWb8rPy9msNQ0+XQrZ7LVbkX2oQE
NxmuQSfVff7VWOKsojjSONY4xxRAFVR0AAoBiq7FXxp/zkZq35N6j+ZGjfo9ka/j1aWDz5c+neKU
S2lhgZWDJR6KkorBX7PeoxVLfJsf5Aal+emsW93FE3ke9hitfLVrwvwr3shto1oAPWWrerUy0Xf5
Yq+3cVfM/wDzkX+T1xo82s/mx5W1qXTL5I1/S1kKgSCbhbOY3U7c1Yc0cENuajpirGfyI/NHzX+X
N55b8j+Z9HRPL/mgwXmj36keqqamV9KXkrNG8ZZl5KeLJvXwxV9fYq8f8/fkl5mvvPz+fPInmb/D
mv3lsLPU/UhE0cyKqoGFeQHwRoKFTuoYEHFXz1qWm6T5Zvr7TZZZPMflnyTeLqPmac0jj1TXpyIY
bSv7zjFFxYNy5GgmP7SjFXtXlr8+vzDtPNXlfSvP3la30nTfOIRdEvLSRiweUqIxIheXvLGGU8Sv
IH2xVJf+csNV8u+Yb3R/IOm6XNq/n95Fl057dgn1VJ6ckdmBD+qqVK7BQA5YU3VeaaLqC6B+YWqX
n51ve33mzy3YGfyzaX0nOyuZrWNngjaRQ9RIygxsPhZq8qtsVX1Z+UHn698++R7XzPd6cNLN3LMk
NushlVkhkMfMMVTqysOnbFU+byp5cbzInmZrCI69HB9VTUaH1RDueFa0p8RxVNsVdirsVefflVpP
5q6fca23nu406eGZ4TpA0+OOMqqmX1fV4RQ12aOla98Veg4q7FXYq7FXYq8U/MP8hovMX5qeWfMF
jpOlRaBaStc+Y4jFEkl5K8pkYyxiJhPyp8XqHepxVZ+Wv5BQaF+Y3mzzBrej6TLpV5dCbyxbRxxy
/VEWd3VkjaJVgYLwpw6dMVe3Yq+bP+cgvye8/GLzT5p8ueYbq603WBA+reVxHI5l9P0oU9JY+auV
EakVQMAPtHFVP8p/+cdvNN9qXlXzn581s3Uek2dlLo2iBZA8EcKLJbQTeosfp+iackVTVq1Piq+l
8VSTzsnmqTyrqUPlQwr5gmhMVhLcsUijdyFMpIV941JZRTcgV2xV5ev/ADjpbf8AKjJfIS3SRa7d
smoXeqHkyPqIYOSx+0Y6D0gaVp8VK4qkuh/lB+cPmHzb5PvvzCu9Ng0nyKyPpy6eWaa5kiaNkZ6i
g5G3j5H4dhstSTiqYfm5+R3nTU/zCs/zH/L/AFW3svMVsiLNb3dQpaNDEHjbjKp5RHgyOtKd96Yq
xfzL+R356/mheWZ8/ajo+l2mnq6wSWkIlnJYD+QKSrEbgygDqFxV6l+Rnlr8yPKflpfLHm1NPmst
OHHSb2xkYuYyxJiljMcfStQ/U999yq9LxV2KuxV2KuxV2KuxV2KuxV2KuxV2KuxV2KuxV2KuxV2K
uxV2KuxV2KuxV2KuxV2KpPo3nLyhrd1LZ6Lrmn6ndwKXnt7O6huJEUEKWdI2ZlHI03xVOMVdiqRH
z75GWG+mPmLTBDpciw6nKb23420kjFESdudImZ0ZQGpUgjFU4tLu1vLWG8s5o7m0uY1mt7iFg8ck
bgMjo6kqyspqCOuKquKpdrfmTy7oNvHc65qlnpVvK/pxTX08VsjPQnirSsgJoCaYqpnzZ5WGrw6K
dZsRrNwokt9N+sw/WZEKlwyQ8vUYFAWqB03xVNcVQeraxpmkWMl9qVzFa20SlmkmdIwaAmgLlRXb
xxVin5W/m95X/MnTru+0KO5thZTehLb3qwpMfhVuapFLN8HxUqT1xVm+KpP5h84+U/LcccnmDWLP
SlmqIfrc8cJenXgHILU70xVH6dqem6nZRX2m3cN9ZTjlDdW0iyxOK0qroWVvoOKobRvMvlzXBOdE
1Wz1QWzBLk2VxFcCNzWiv6TNxO3Q4qiNT1bS9Ks3vtUvILCyi/vLq6kSGJf9Z3KqPvxVJ9C/MXyF
r939S0XzFp2o3m5Ftb3MUkpA3JCBuRA8QMVZFiqXv5h0CPWY9DfU7Rdalj9WLS2njF00YBPNYC3q
FaKd6dsVTDFXYq7FXx//AM4d/wDk0/NP/MBL/wBRkeKvsDFXYq+Sbn8nPzLfy1+bVouhym48w6tY
3OjR+pDW4ihvrmWR1+Og4pIp+KnXFX0r+XWm32l/l95Y0y/iMF9Y6TY213ASCUlhtkSRCVJHwspG
xxVkOKvjb/nLrzH59vfMVv5d1TS4rby5DdNJ5evUR1lu2EMay8mMjI3BpqbIuKsZtvNf5wT/AJ7R
63B5cgk896ZB6Q0MRzGGONbP0N4zPz/uZeX971P0Yq+67V5ntonmXhMyKZUHQMR8Q798VfD358ag
dV/Py+07z1fXdl5csnEVr6C8zDbG3DxNCh5D97JQuwBO52NOOKph/wA4uflZpnmbUrbzSuuGz1Xy
7qkcsmlIVLT20apIp+FlkVWkqpJBVgCMVfauKvkP80/8ID/nKC9P5oer/hH6hEdP5+sY+H1NePH0
P3nD6z6v2f2+u2KsQ/Ln8xde8ufldr3lzQTPLqXmvVI9P8tQA/GnqJwupU8HKvDGN/tGo+ycVfWf
5O+RNI8ieSbPy5aSxT38Y9fV5o2DGS7kA9VjTfitOC1H2QO+KvFf+c19M8xyx+XNRVJpfLFsZUvB
EfgjuZGXi0goQC6VVGNabjvuq8h842PkPV/OPlu0/JKy1Aai8cTyqzSl1vOSshUysxVoqEyOD6Y6
g0BOKvv23EwgjE5DTBVErL0LU+Ijp3xV49qnknzTN/zk7pHm6OwdvLtvpL202ock4LKY5wE48ufW
Rf2cVeyYq7FXYq+af+cZvJelaH+YPmC8s/NOl65LPaSI9nYNMZYgblG5P6kca0BHHY9cVfS2KuxV
2KuxV2Kvib/nIA/m5f8A5taTpGsNDJI2pS/4IgU24/cXN4I7Yycehb04wTLvtviqG/Ln/ldWofnr
rF7p7QTebrSRovMshNrwWBJ44LhU5fu6jgF+DfbFX3Fir5P/AOcpPzO8i6suv+TLjSCPNOiy2q6Z
rJjR+SN6cs8Yk2kjoJGHHdWpWvTFXjXkwQw/mR5L/wACz3j6nI1h9d5DiVvWb/S44+NOUHD7XLty
rVd8VforirH/ADnoHkbUNLlvvN2m2N7YaZHJcPPfwxyiGNF5yMGcEqKLvTrir5B1mz1TzD5V83/m
7ZWn6H0iwMWj+TbK2jWFLa0e4WKaSJY+KpRJWUlducj03XFUq0+Dy35V1P8AK3WvIetyXXmfVWT/
ABFaxzCQxzPNCvoPEgDKJDJIhRvtBQe9Sqzj/nKLzfq99+amneSdb1CfR/Iw+pyXbwgkSxzPWa5Z
QP3npbqq7gFa0rirzzz2dH/LjXr1Py082RatoXmLT5rO7hjkEs0UUq8XjmdFVK1PKNlow3BFPtKv
pL/nERrE/lOPS1Fb6/mvp7jUYeZeS3duMUcbhviHKOFWHY12xV7ZirsVdirsVYr5U/K3yD5S1K51
Py7pEen314hiuZ0eVy6M4cikjuPtKDsMVZVirsVdirsVdirHta/L7ydrfmHTvMeqaZHda1pPA6de
M0gaIxuZEoqsENHNdxirtC/L3yboOu6lr+kaZHa6xrDO+pXitIzStLIZXJDsyjk55fCBirIcVYJ+
bP5Q+XvzF0J7G7WGz1Osf1fWhbxzXMSI4dkRiUbi4FCOWKon8uvyp8oeRtKtLfTLC2OqQwLBdayI
ES5uCAAzM/xMORFSvKmKsyxVLvMXl3RvMej3Gjazb/W9MugouLYu6BwrBwCY2RqclHfFVOy8q+XL
Hy4nlq20+FNBSE2w04ryhMLV5IytXlyqeVevfFWM+WPyL/KjyxrS63onl6K21OMsYrhpbif0y1am
NJpJEQ79VAxVOfOH5d+SfOVvHB5m0iDUlhqIZJAyyxg9Qk0ZSRQe4DYqx7Q/+ce/ya0S6+tWPle2
aahWt0894oBFDRLqSZR160xVNvKn5T/l95S1KXUvLekLpl5MhjmeGWfi6E14tG0jIRXcfDt2xVlu
KuxV2KuxV2KuxV2KuxV2KuxV2KuxV2KuxV2KuxV2KuxV2KuxV2KuxV2KuxV2KuxV4F+UP/OSWt+e
vzEbyrd6NbWduI7mT6zFJIz1g6Cjbb4q99xV2KvnaT/nKDXkt/zAl/QlqT5OkjS2HqSfvw+orZfv
PD4X5bd8Vev/AJW+cbnzn5B0jzNc26Wk+pRu728RLIpSV49i2/7FcVZViryL8+fz1b8trbTRplva
6pf3k0kdzaySkNCsaKwLBCWBPMUriqRRf85KXb/mnpHk36np/wCj72G0e+1T6yeMTz2i3MoBNE+A
txFTX6cVe9AhgCDUHcEdCMVeL/m9/wA5PeWvy/1l9AtdOk1vW4AjXcKyi3gh9RQyq0pWUl+LBuIT
6cVeV/kx/wA5ReY5fOkmnebmu9XttduYbXSYYFgrayzTFFWnGIup9RVJ5V26HFX15irw382v+cid
Y8ted18jeT/L51/zAkaSXKn1Hozxev6UcMI5uRDRy3LYYqmf5Yf85F6B5t8j655k1e3/AEPL5aRZ
NWhD+ohSRWMTRMQpJlaNlVOvLbeoxVNvyP8AzJ80fmHoN35g1XSIdJ0tpjDpQjd5JJglfVdiwUcV
NFBHUhulMVQX55fn3pv5YxWdpHYnVNc1BGlgtS/pRRxKePqSvRm3bZVA3odxiry+w/5zE806Zqlt
H5z8nmx067pLHJD60Ewt2PwyxpcDjMPkVBxV9P2F7a39jb31pIJbW7iSe3lHRo5FDIwr4qcVeZ+Y
Pzh1LS/zx0T8uY9PhkstVt1nkv2dxKhZJmoFHw/7pH34q9TxV2KuxV8Qf84sf+T5f/jBf4q+38Vd
iryR/wDnGXyG0XmqI3+qcfN7q+pH1besZS7W9Hof6P8AD+8Wnxcvh998VZ/5J8oab5O8rWHlrTJZ
prHTkZIJLlkaUh5GkPMosandz0UYqnmKvhH/AJyhsvKJ/Mu5v9E1pdQ1C/nlj1u1pRbKe29O3EZN
PFGr8sVYxpfk38vrz805fLkvmUw+Ug8iQeYCq1k4xVSi9Pjl+HFX6I2sAt7aKAHkIkVAx6kKKVxV
8Z/85Lfl75o8l/mEfzKsZYpNM1DUIZbSZwkjwXyx+oI5IZAVdT6DMpoRTY+6rGPyN/Mfy35b8+TX
XnHRkvV1i6t7iLUCi+pYXHqNIlzGjDlxPrVPFgePTl0xV974q+dfzX/Jv80Y/wA3E/Mz8upbefUZ
kUSwTtGjQyLa/UyQJv3bo8I8ag9sVfPWreXtW8qTXvkbVL9Y3uJLfUPOL2pEwgitgzQwepVVkkHr
livLi0jRrXkMVe9+Qf8AnK3yJZHR/LX+G7rQfLahbLT9QeRZUREPBXkUIvf+8ZWYg+OKpb/zmrZ+
TZE0e8k1H0vN8KGOHTUXn6tkzkl5CP7rg/LgT9rcUNKqq8L1Hzhq/n3UbFPPmum3stAsTFB+5rO6
QgVhiVQqtcTUHxSso23PQFV9sfkf+YXlvzn5NVvLmn3WnaVobR6TBDd8C3G3gj4gFGcGiMoxVF6r
+UXlvU/zL038w57m8XWtLiEFvbxvELVlVZFq6GJpCf3x6SDtirN8VdirsVeBflDpX5m2/wCYjTa/
+X+h+X9J9O5A1fT7G0t7nkfsL6sUjvR/2tt8Ve+4q7FXYq7FXYq+UPzh/wCccdV1L827K78t6Nc3
GgaxOl55jv8A6xFRJ7u9ka64CQqyhIiGFAeuKoT8vf8AnF+8m/NPWE8yaNd2Xku1e6k0Sczx85PT
ulForGN3aphJY1HbFX11ir40/wCcs/JHnvTdbvvNN5qKz+UtavrZLexjlkAiuYrRo4vUt2+DkIop
KOpPU9K4qhfy/wD+cd/zO893/l/XPNsiW3lhLSy+qzyyxSyyaZFEpt4YIYS/ENHQfvOJFSSCdiq+
1cVSfzjqWuab5Y1G80HT21XWo4T+j7BSq+pO3wpyLsg4KTybfoDTfFXz35Z/5xx8zXn5SebH134P
zD81OLhjcOrFBb3K3KxO6ErW4kQs5rTdf5cVefwfk5+eHm208qeSNX8vDSNH8tPdxrqsnBQsV5OJ
Z3dldllKlaJ6Y3792xVnH/OSX5E+f9c88jzp5Vtl1WKSGAXFmGjE0UtuOIKxykLIjKqmgqa12pir
B/NX5X/n9+aHmKK/1fylbaXfpCIp78KlmkqoPgM3KRy7CnEFVrTboBRV7B/zjRYfmZ5P05/KHmfy
jJY6Y0slxbaxE8DUlfd1uVWVmYHiAjqNtgRTcKvfMVdirsVdirsVdirsVdirsVdirsVdirsVU57e
3nQJPEkqA1CuoYV6VocVXoiIioihUUAKoFAANgABireKuxV2KuxV2KuxV2KuxV2KuxV2Kv8A/9k=
									</xapGImg:image>
							</rdf:li>
						</rdf:Alt>
					</xap:Thumbnails>
				</rdf:Description>
				<rdf:Description  rdf:about="" xmlns:dc="http://purl.org/dc/elements/1.1/">
					<dc:format>image/svg+xml</dc:format>
				</rdf:Description>
			</rdf:RDF>
		</x:xmpmeta>
<?xpacket begin='﻿' id='W5M0MpCehiHzreSzNTczkc9d'?><x:xmpmeta xmlns:x='adobe:ns:meta/' x:xmptk='XMP toolkit 3.0-29, framework 1.6'>
<rdf:RDF xmlns:rdf='http://www.w3.org/1999/02/22-rdf-syntax-ns#' xmlns:iX='http://ns.adobe.com/iX/1.0/'>

 <rdf:Description rdf:about='uuid:220067b4-45ab-11de-99af-001124740a56'
  xmlns:pdf='http://ns.adobe.com/pdf/1.3/'>
  <pdf:Producer>Adobe PDF library 6.66</pdf:Producer>
 </rdf:Description>

 <rdf:Description rdf:about='uuid:220067b4-45ab-11de-99af-001124740a56'
  xmlns:tiff='http://ns.adobe.com/tiff/1.0/'>
 </rdf:Description>

 <rdf:Description rdf:about='uuid:220067b4-45ab-11de-99af-001124740a56'
  xmlns:xap='http://ns.adobe.com/xap/1.0/'
  xmlns:xapGImg='http://ns.adobe.com/xap/1.0/g/img/'>
  <xap:CreateDate>2006-06-01T14:44:00+09:00</xap:CreateDate>
  <xap:ModifyDate>2009-05-21T02:01:17Z</xap:ModifyDate>
  <xap:CreatorTool>Illustrator</xap:CreatorTool>
  <xap:MetadataDate>2009-05-21T10:59:55+09:00</xap:MetadataDate>
  <xap:Thumbnails>
   <rdf:Alt>
    <rdf:li rdf:parseType='Resource'>
     <xapGImg:format>JPEG</xapGImg:format>
     <xapGImg:width>256</xapGImg:width>
     <xapGImg:height>256</xapGImg:height>
     <xapGImg:image>/9j/4AAQSkZJRgABAgEASABIAAD/7QAsUGhvdG9zaG9wIDMuMAA4QklNA+0AAAAAABAASAAAAAEA&#xA;AQBIAAAAAQAB/+4ADkFkb2JlAGTAAAAAAf/bAIQABgQEBAUEBgUFBgkGBQYJCwgGBggLDAoKCwoK&#xA;DBAMDAwMDAwQDA4PEA8ODBMTFBQTExwbGxscHx8fHx8fHx8fHwEHBwcNDA0YEBAYGhURFRofHx8f&#xA;Hx8fHx8fHx8fHx8fHx8fHx8fHx8fHx8fHx8fHx8fHx8fHx8fHx8fHx8fHx8f/8AAEQgBAAEAAwER&#xA;AAIRAQMRAf/EAaIAAAAHAQEBAQEAAAAAAAAAAAQFAwIGAQAHCAkKCwEAAgIDAQEBAQEAAAAAAAAA&#xA;AQACAwQFBgcICQoLEAACAQMDAgQCBgcDBAIGAnMBAgMRBAAFIRIxQVEGE2EicYEUMpGhBxWxQiPB&#xA;UtHhMxZi8CRygvElQzRTkqKyY3PCNUQnk6OzNhdUZHTD0uIIJoMJChgZhJRFRqS0VtNVKBry4/PE&#xA;1OT0ZXWFlaW1xdXl9WZ2hpamtsbW5vY3R1dnd4eXp7fH1+f3OEhYaHiImKi4yNjo+Ck5SVlpeYmZ&#xA;qbnJ2en5KjpKWmp6ipqqusra6voRAAICAQIDBQUEBQYECAMDbQEAAhEDBCESMUEFURNhIgZxgZEy&#xA;obHwFMHR4SNCFVJicvEzJDRDghaSUyWiY7LCB3PSNeJEgxdUkwgJChgZJjZFGidkdFU38qOzwygp&#xA;0+PzhJSktMTU5PRldYWVpbXF1eX1RlZmdoaWprbG1ub2R1dnd4eXp7fH1+f3OEhYaHiImKi4yNjo&#xA;+DlJWWl5iZmpucnZ6fkqOkpaanqKmqq6ytrq+v/aAAwDAQACEQMRAD8A9KaVpWlnS7MmzgJMEdT6&#xA;afyD2xVFfonSv+WKD/kUn9MVa0lES0KIoVFmnCqBQACd6ADFUZiqWQafYTXmoSTW0UkhnWruisdo&#xA;Iu5GKoj9E6V/yxQf8ik/piqnaW9vBqVykESRIYYCVRQorzl3oMVR+Kpfd2ttcapaieJJQsE5UOoY&#xA;A84elcVVf0TpX/LFB/yKT+mKqE1hYwXlg8FvFE/rMOSIqmnoS7VAxVMsVQWrxxyWapIodGntwysA&#xA;QR66dQcVXfonSv8Alig/5FJ/TFULqml6YumXbLaQqywyFWEaAghDuNsVTXFXYqlWl6XpjaZaM1pC&#xA;zNDGWYxoSSUG52xVFfonSv8Alig/5FJ/TFVukRxx2bJGoRFnuAqqAAB679AMVRuKpbDYWM95fvPb&#xA;xSv6yjk6Kxp6EW1SMVV/0TpX/LFB/wAik/piqlaWttb6pdCCJIg0EBYIoUE85utMVTDFUBd29vPq&#xA;Vsk8SSoIZyFdQwrzi3ocVVP0TpX/ACxQf8ik/piqHn0+whvNPkhtoo5BO1HRFU7wS9wMVTPFUHqy&#xA;I9oEdQyNNAGUioIM6VBGKt/onSv+WKD/AJFJ/TFULqulaWNLvCLOAEQSUPpp/IfbFWDfmB+adx5G&#xA;stAihs7W7a+0+5u+F1dG1aT6itsPq1sBFN6txP8AWaRr3I99lXpcTl4kcqULKCUbqKitD8sVQ+mf&#xA;7zP/AMZ7j/k++KovFWKeb/NkXlPQtU1yVY2hg1CwhmM0gijSO7ltbV5GcggCNZi+/hiqI8jecbXz&#xA;Zp99qFoYXs7bULqxtri3lE0U8du/FZldfhIcb7VHviqcR/8AHVuP+MEH/E5sVReKoST/AI6tv/xg&#xA;n/4nDiqW+SvMb+ZPLdtrDwC2aeS4jMKtzA9C4kgryIXr6demKple/wC9Nh/xnb/kxLiqLxVCan/v&#xA;Mn/Ge3/5PpirFNR/MK4tPMlxoIsFa6XU9MsrSshHq22oRNLJP9nYxC3uKL34dRXZVlerf8cq9/4w&#xA;S/8AEDiqLxV2KsD84ed77yvpXliKzjsDNrEgtPrGq3bWNpCI7OS45STLHMRy9Hivw7kjFWbWkrzW&#xA;sMrmMvJGrMYW5x1YAng9F5L4Gm+KqWmf7zP/AMZ7j/k++KovFWP695gh8u6Lr+tTQvcrYn1Vtoqc&#xA;5X9CIJGtdgXchanFUw0OfXprIvrdpbWV5zNIbS4e6j4UBUl3htzy3II402rXfFVWP/jq3H/GCD/i&#xA;c2KovFUJJ/x1bf8A4wT/APE4cVY75O85ap5i1fWImsbW203TLm4sgVu2kvlmtp2i/wBJtfRRYlmR&#xA;fVjIkb4aeOKsivf96bD/AIzt/wAmJcVReKoTU/8AeZP+M9v/AMn0xVjmr+cdVt/Pdl5W0+xtZfVt&#xA;or25mu7traR4HneGX6nEIpRO9uqepIpZdiv82yrI9W/45V7/AMYJf+IHFWC+c/y6v/Ntnos1nqFt&#xA;ZiHSr3TLlLq0N2Gg1OO3DyRUlhCyx/V/h5VG/tiqb+TPNV5q1/fabBpsi6Ro0k+m/pea5ieaS6sX&#xA;WF1ktwOaepu6MT8Siu3Jaqsj0z/eZ/8AjPcf8n3xVF4qxnzN5ZXzLpWoaS04tlbUbC6aQx+qCLKW&#xA;1u+BXkn956HCtdq136Yqx6CbVvJHmC28vafp0OqQeatSvr+C5M/1MW7PyuJYTEI5+QjiX4W5Dkdq&#xA;LirPI/8Ajq3H/GCD/ic2KovFUJJ/x1bf/jBP/wAThxVgVv8Ap38tPLcNrPdWWs2ct99X02No20wx&#xA;NezyzM1zdPNeIyqXoOMSYqzO3u5by20e6lWNJJn5ukEoniBa3kNElCpzHg1BXFU1xVCan/vMn/Ge&#xA;3/5PpirHNY8jG5892PnOC45T6bZyQJpbKFSedVnW2kaapMfpreTp9g/3ntiqzyv5r1PzR5V1LUrv&#xA;S00yFTeWsCpc/WWd7SWa1mJ/dQ8QJITx61HhirMcVdirF7ryrFrL+UtQllVY9CdrtrZ4xIJ/WsJb&#xA;TgSWHHj6/OtD0p74qs0bznNqPmvU9Cjs7aG10uZrZpjeL9Zdlhjmqtn6YPCkoHLn2xVkGmf7zP8A&#xA;8Z7j/k++KovFWP655fg8w6Pr2izyyW8d83pi4ip6kbehEUkWtRVGAbfFWK61+YmveTJvqPmBLfW2&#xA;gs5NUvtRtF/R4js45o7cBLeR7n1piz8iBIta0UdAVWfx/wDHVuP+MEH/ABObFUXiqEk/46tv/wAY&#xA;J/8AicOKsC1HTtT8r+aZPOGoXaazf6iq6Do2m2lqlk8hurkSxfW7hpZBJ6IQjmEHFAxCliQVWTaD&#xA;5jh8w6fpuoxwPaSLe3Nrd2kpVnhubT6xbzxsULKeMsTUI6ih74qyLFUJqf8AvMn/ABnt/wDk+mKs&#xA;b84eStX8x63o8/6VhtdH0y6tb97T6msl0Z7SYygw3ZkX0VlHFJB6ZJUUB+I4qt8u+bNT8x6Lr8l9&#xA;paaYdOmutPKpc/WectuGSU19KGig04+PtirJtJ/45Vl/xgi/4gMVYtpHk/X4fzFvfNF9c2CWktrL&#xA;ZxQ2MEkM1yrzpJC98zu6u9vHH6aMv8zHYHjirKdM/wB5n/4z3H/J98VReKoSy/3pv/8AjOv/ACYi&#xA;xVLNa8uT6h5m8u6wkypHokl08sRBLSC5t2gAUjpQtXFUzj/46tx/xgg/4nNiqLxVCSf8dW3/AOME&#xA;/wDxOHFUu81+W01+HToJPTaCzv4L2eKZeaSJDyqnE7b8u+Ko6aCCB9NhgjWKGOYrHEgCqqiCWgCj&#xA;YDFUdiqE1P8A3mT/AIz2/wDyfTFUXirFvL/lyfy75LvNMmmWeT1dUuvUQEDje3dxdqtD3VZwp9xi&#xA;rKcVdiqE0n/jlWX/ABgi/wCIDFUq0DypbaZq2tanLHBLd6nfNdRXAjHqpE1vDD6Zcjl1hJ2NN8VT&#xA;XTP95n/4z3H/ACffFUXiqEsv96b/AP4zr/yYixVhH5g/lWPNeuJrIkt0vbGw9LR5Zoy7W9/Hdx3U&#xA;NwCOij0uLAdQSMVZvFX9KXFevoQV/wCDmxVF4qhJP+Orb/8AGCf/AInDiqVedPLt5rdhZnT547fU&#xA;tLvYNRsXnQvC0sBP7uQKQwWRHZCy7rWu9KYqh/K/lyfy/pdhZ3M6XV9caje399cRoY42uL5rm6l4&#xA;IWchVaXiu/QYqyjFUJqf+8yf8Z7f/k+mKovFWE+VfLnmHQ9E8xprE1pM2o3N5qMZsxKArXXJ5Eb1&#xA;OymnHFWV6T/xyrL/AIwRf8QGKovFUJpn+8z/APGe4/5PviqLxVCWX+9N/wD8Z1/5MRYqi8VQkf8A&#xA;x1bj/jBB/wATmxVF4qhJP+Orb/8AGCf/AInDiqLxVCXv+9Nh/wAZ2/5MS4qi8VQmp/7zJ/xnt/8A&#xA;k+mKovFUJq3/AByr3/jBL/xA4qi8VdiqE0n/AI5Vl/xgi/4gMVReKoTTP95n/wCM9x/yffFUXiqE&#xA;sv8Aem//AOM6/wDJiLFUXiqEj/46tx/xgg/4nNiqLxVCSf8AHVt/+ME//E4cVReKoS9/3psP+M7f&#xA;8mJcVReKoTU/95k/4z2//J9MVReKoTVv+OVe/wDGCX/iBxV2k/8AHKsv+MEX/EBiqLxVCaZ/vM//&#xA;ABnuP+T74qi8VQll/vTf/wDGdf8AkxFiqLxVCR/8dW4/4wQf8TmxVF4qhJP+Orb/APGCf/icOKov&#xA;FUJe/wC9Nh/xnb/kxLiqLxVCan/vMn/Ge3/5PpiqLxVCat/xyr3/AIwS/wDEDiqLxV2KoTSf+OVZ&#xA;f8YIv+IDFUXiqE0z/eZ/+M9x/wAn3xVF4qhLL/em/wD+M6/8mIsVReKoSP8A46tx/wAYIP8Aic2K&#xA;ovFUJJ/x1bf/AIwT/wDE4cVReKoS9/3psP8AjO3/ACYlxVF4qhNT/wB5k/4z2/8AyfTFUXiqE1b/&#xA;AI5V7/xgl/4gcVS3SoPMf6Ls6X1mB6EdAbOU/sD/AJecVRX1fzL/AMt9n/0hy/8AZViqto4lFlSZ&#xA;leUTT82RSqlvWepCksQPapxVG4qk6Q601/qBtbu2ih9deKS20krD9xFWrLPGP+FxVV+r+Zf+W+z/&#xA;AOkOX/sqxVvT0vk1G6F5NFNJ6MHFoYmhULyl2KtJLv71xVMsVSzUU1B9TtPqU8MLCGfmZommBHOH&#xA;oFkhpirvq/mX/lvs/wDpDl/7KsVU2i1hb6wN3dW80XrN8EVu8TV9CSh5NNKP+FxVN8VQGtCdrECB&#xA;1jmM1vweRS6g+unVQyE/8EMVU/q/mX/lvs/+kOX/ALKsVQ2pweYhpt2XvbRk9GTkq2kqkjiagE3J&#xA;p92Kp5irsVSPTIPMR020KXtoqejHxVrSViBxFASLkV+7FUT9X8y/8t9n/wBIcv8A2VYqqaKJ1sSJ&#xA;3WSYTXHN41KKT679FLOR/wAEcVR+KpQsWsNfX5tLq3hi9Zfglt3lavoR1PJZoh/wuKqn1fzL/wAt&#xA;9n/0hy/9lWKu05NQTU7v67PDMxhg4GGJoQBzm6hpJq4qmeKpbqCXz6jaizmihk9Gfk00TTKV5RbB&#xA;Vki3964q19X8y/8ALfZ/9Icv/ZViqk8OtLf6ebq7tpYfXbkkVtJEx/cS0ozTyD/hcVTjFUFrAlNl&#xA;SFlSUzQcGdSyhvWShKgqSPaoxVR+r+Zf+W+z/wCkOX/sqxVC6rB5j/Rd5W+syPQkqBZyj9g/8vOK&#xA;rZPNPljQtN0pNb1ey0t7uFBaLe3MVuZSiJyEYlZefHmtaeIxVP8AFUJpn+8z/wDGe4/5PviqLxVL&#xA;fr1lZNf3F7cR2sH1qKP1ZnWNOcscMca8mIFXd1VR3JAxVF2t9ZXYlNpcR3AgkeCYxOr8JYzR424k&#xA;8WU9VO4xVTj/AOOrcf8AGCD/AInNiqLxVCSf8dW3/wCME/8AxOHFVSyvrK+t1ubK4jurZywSeF1k&#xA;QlGKMAykj4WUg++Kqd7/AL02H/Gdv+TEuKovFUJqf+8yf8Z7f/k+mKrZNb0aOSWOS/tkkgnitJ0a&#xA;aMMlxcBDDC4J+GSUSpwU7tyFOoxVdq3/AByr3/jBL/xA4qi8VdiqRy+ZPLug6Fp9zrmqWmlW8scU&#xA;cU19PFbIz+nXirSsoJoCaYqnMM0U0STQuskUih45EIZWVhUMpGxBGKofTP8AeZ/+M9x/yffFUXiq&#xA;DtXRJtQd2CoswLMTQACCKpJxVrSda0bWLY3WkX9vqNqrtE09pKk8YkT7SFoyw5L3GKro/wDjq3H/&#xA;ABgg/wCJzYqi8VQkn/HVt/8AjBP/AMThxVRtPMXl+91O50qz1O0udUshW8sIZ45LiEVp+9iVi6bn&#xA;9oYqrXv+9Nh/xnb/AJMS4qi8VQmp/wC8yf8AGe3/AOT6Yqo3/mLy/p19aWGoanaWd9fsEsbSeeOK&#xA;adieIWKN2DOa7UUYqrat/wAcq9/4wS/8QOKvF/zt06/vIPLyWxu0jl8v6zav9UspL4TSTpY+nZyL&#xA;GkjJ9Y4MocFWFKhhTFXsml6haSxxWnOKK/ihja409ZFaSGqj4WUEmgrSuKqmmf7zP/xnuP8Ak++K&#xA;ovFWAfmpY3195O1S1sRL9afWNGMbQJ6siBL6wdpAhDA+mqlzUUoN9sVU/wAsriHRLPWtP1vUFTUJ&#xA;dd1GWN7wxW81wkk9EmWOkYKyEGhReJ7YqziP/jq3H/GCD/ic2KovFUJJ/wAdW3/4wT/8ThxVg35S&#xA;65ptl5MTT9Qd9PutPnu/rYvYpbVF9a9nePjLOscb8lNfgY4qzaaeCd9NmgkWWGSYtHKhDKymCWhD&#xA;DYjFUdiqE1P/AHmT/jPb/wDJ9MVebeYdHvh+cFihtpP0BfC11vUb0ikEc+kQ3UXF5OgZnmtGFe0b&#xA;Yqz+41XS9Q0m/NheQXYjgkEhgkSQKShpXgTStMVTXFXYq8584aVquoX/AOXS6dPPZPDeTPLqFvEk&#xA;xgU6RdLyYSpJGA5ISrD9rbemKs5t9S076wNO+vwz6jEoEsPqR+sSACWaNaEV69MVXaZ/vM//ABnu&#xA;P+T74qi8VYX+YunX+peRvNtjY273dzOhUWkZo8yejCZIl8TIgZad60xVN9D81+Wb62iNnL9S9ZvT&#xA;itLyCSwmZlVahYLlIZG4ghaqtO3bFUyj/wCOrcf8YIP+JzYqi8VQkn/HVt/+ME//ABOHFXnfkW+T&#xA;TvO+uaVZ21yvlyNLzUZr/ULGSzNneT3vOe2S7lWNbiGZnedCK8VH2mFOKr0O6dHm090YMjTEqwNQ&#xA;QYJaEHFUZiqE1P8A3mT/AIz2/wDyfTFWAedpH078xNGv9MtLq91S/FhYX9mbCW4s5LFbyR/XW7C+&#xA;nbzWRd5TyfcFQV+yyqs1uNV0vUNJvzYXkF2I4JBIYJEkCkoaV4E0rTFUVpP/AByrL/jBF/xAYq82&#xA;8jSaPY/mnruk6bDDqP1j6/qF3qrWkkF7YzyXkfq2U1xIiiaGVzzh4n7KdGXi2KvSdM/3mf8A4z3H&#xA;/J98VReKoSy/3pv/APjOv/JiLFWHeddKsbr8xfIs09nFOwm1BZJHjVyFWydkBJB2Dmq++Ksxj/46&#xA;tx/xgg/4nNiqLxVCSf8AHVt/+ME//E4cVYp+amn3GoaZotpbmNZZdZswHnh+sxL9vd4SyBx7chir&#xA;Ibe0ls7bR7WVo3khfg7wRCCIlbeQVSIM/AeC1NMVTXFUJqf+8yf8Z7f/AJPpiqJkjjljaORQ8bgq&#xA;6MAVZSKEEHqDirzz8r9OtbP8t7/0rVLaSS9131OEYRmVNTvBHWgFQEoF9sVei4q7FUJpP/HKsv8A&#xA;jBF/xAYqwvyXol6POvmvVjJbLbfpV4xE1oPrJP1K1+JbvnXh/k8PpxVmmmf7zP8A8Z7j/k++KovF&#xA;UJZf703/APxnX/kxFirxj88tN1C780tLBFC1lb6A0mpTSQNNPFaDUYDPLZkEBLiOOroxr0+nFXs0&#xA;JDapcEGoNvAQR0I5y4qjMVQkn/HVt/8AjBP/AMThxVif5sRxto2kS3cRm0e21mxn1lODSJ9VjkJ5&#xA;yIoNY0l9N3qKACp2xVQ/LC3eDytYBYmt7GTWNWl0mB0aMpYS3V49oODhWVTCylB/KRirPsVQmp/7&#xA;zJ/xnt/+T6Yqi8VeW/lXc+X5/L/nP9EG3KnVtTk/0dVUGCRmNu3wgfAVrwxV6PpP/HKsv+MEX/EB&#xA;iqLxVCaZ/vM//Ge4/wCT74qi8VQll/vTf/8AGdf+TEWKovFUJH/x1bj/AIwQf8TmxVF4qhJP+Orb&#xA;/wDGCf8A4nDiqLxVCXv+9Nh/xnb/AJMS4qi8VQmp/wC8yf8AGe3/AOT6Yqi8VQmrf8cq9/4wS/8A&#xA;EDiqLxV2KoTSf+OVZf8AGCL/AIgMVReKoTTP95n/AOM9x/yffFUXiqEsv96b/wD4zr/yYixVF4qh&#xA;I/8Ajq3H/GCD/ic2KovFUJJ/x1bf/jBP/wAThxVF4qhL3/emw/4zt/yYlxVF4qhNT/3mT/jPb/8A&#xA;J9MVReKoTVv+OVe/8YJf+IHFXaT/AMcqy/4wRf8AEBiqLxVCaZ/vM/8AxnuP+T74qi8VQll/vTf/&#xA;APGdf+TEWKovFUJH/wAdW4/4wQf8TmxVF4qhJP8Ajq2//GCf/icOKovFUJe/702H/Gdv+TEuKovF&#xA;UJqf+8yf8Z7f/k+mKovFUJq3/HKvf+MEv/EDiqLxV2KoTSf+OVZf8YIv+IDFUXiqE0z/AHmf/jPc&#xA;f8n3xVF4qhLL/em//wCM6/8AJiLFUXiqEj/46tx/xgg/4nNiqLxVCSf8dW3/AOME/wDxOHFUXiqE&#xA;vf8Aemw/4zt/yYlxVF4qhNT/AN5k/wCM9v8A8n0xVF4qhNW/45V7/wAYJf8AiBxVLdK8wWA0uzBi&#xA;vKiCMbWN4f2B4RYqiv8AENh/vq8/6Qbz/qliqto8iy2XqKGCvNOwDqyNQzOd1YBgfYjFUbiqTprF&#xA;pbX+oQyR3LOJ1JMVrcyrvBEdnjjdT9+Kqv8AiGw/31ef9IN5/wBUsVb0+9hu9RupIllVVhgUiaKW&#xA;Bq8pTssqoxG/WmKpliqWajfwWmp2rSrKwaGcD0YZZzs8PURK5H04q7/ENh/vq8/6Qbz/AKpYqptq&#xA;1rdX1hFElwresxrLbXEK0EEn7UsaL+OKpviqB1qZILESuGKpNbkiNGkb+/ToiBmP0DFVL/ENh/vq&#xA;8/6Qbz/qliqG1PXrF9Nu0EV2C0MgBayu1FSpG5MQA+nFU8xV2KpHpmvWKabaIYrslYYwStldsKhQ&#xA;NiIiD9GKon/ENh/vq8/6Qbz/AKpYqq6LMk9iZUDBXmuCBIjRt/fv1RwrD6RiqOxVKF1a1tb6/ilS&#xA;4ZvWU1itriZaGCP9qKN1/HFVT/ENh/vq8/6Qbz/qlirtOv4LvU7pollULDAD60MsB3eboJVQn6MV&#xA;TPFUt1C9htNRtZJVlZWhnUCGKWdq8ojusSuwG3WmKtf4hsP99Xn/AEg3n/VLFVJ9YtLm/wBPhjju&#xA;VczsQZbW5iXaCU7vJGij78VTjFUFrEixWXqMGKpNAxCKztQTIdlUFifYDFVH/ENh/vq8/wCkG8/6&#xA;pYqhdV8wWB0u8AivKmCQb2N4P2D4xYqmWk/8cqy/4wRf8QGKovFUJpn+8z/8Z7j/AJPviqLxVCWX&#xA;+9N//wAZ1/5MRYqi8VQkf/HVuP8AjBB/xObFUXiqEk/46tv/AMYJ/wDicOKovFUJe/702H/Gdv8A&#xA;kxLiqLxVCan/ALzJ/wAZ7f8A5PpiqLxVCat/xyr3/jBL/wAQOKovFXYqhNJ/45Vl/wAYIv8AiAxV&#xA;F4qhNM/3mf8A4z3H/J98VReKoSy/3pv/APjOv/JiLFUXiqEj/wCOrcf8YIP+JzYqi8VQkn/HVt/+&#xA;ME//ABOHFUXiqEvf96bD/jO3/JiXFUXiqE1P/eZP+M9v/wAn0xVF4qhNW/45V7/xgl/4gcVeUfm1&#xA;5182+XLTy/F5euJ4DLo+o30q29rDdBpLFbP0TP6oJS3X13MrJ8QG+KvXbaX1beKXkr+oitzjNUNR&#xA;WqnwPbFVHTP95n/4z3H/ACffFUXirCvzB8w6j5e8sapquncvrMWqaXFxRBIzR3N1ZwSoqNsWaKVl&#xA;HviqI/LfzLqPmHTdWu75XjMGr31pbwyxiKSOCCTjHHIo/aUda4qyKP8A46tx/wAYIP8Aic2KovFU&#xA;JJ/x1bf/AIwT/wDE4cVSP8t9c1HXPJ1nqeoyCW8mlu0d1UICIbuWJPhUAbIgGKp5e/702H/Gdv8A&#xA;kxLiqLxVCan/ALzJ/wAZ7f8A5PpirA9X83+Y7bz+3leK4UNe6hpUunjgnJdOkguZb1dx8VTpko5d&#xA;V9Qbj4cVZ5q3/HKvf+MEv/EDiqLxV2KvOfPXmHXdLtPJlppVxdW41a4Nvdmwt4bq6McenTXAEUc6&#xA;un24V5bfZrir0C0Lm1hLly5jUsZFCuTQV5KuwPiBiqlpn+8z/wDGe4/5PviqLxVivnHXrzQPK/mT&#xA;V7FY2vbWhtRP/dCV4YUQyUKfCGYFviG3fFU50Ow1SxszDqWpvq1wXLi6kiigYKQPg4wqi0U1oaV8&#xA;a9cVVo/+Orcf8YIP+JzYqi8VQkn/AB1bf/jBP/xOHFWIeTda1+fzbrOm+YNQkivoXuJLTQ2tY44P&#xA;qIuONrd2t0o5TKYuIlDNVZGIIX4aqsvvf96bD/jO3/JiXFUXiqE1P/eZP+M9v/yfTFWH+adZ8w2P&#xA;nzSLaXUpNJ8tXQto4J0tY7iK5v3uHElncStV7f1YvTELCgLE71AUqsw1b/jlXv8Axgl/4gcVY1rH&#xA;kDRPNVjpM2oy3UT2tjLaD6pO0HO3vkiFxFIV3KuIFGxBxVB+Std1qfzZq2i6jdW1jFpvrR6f5bFp&#xA;JFMLKKYR2l7FcvIVnikiHx8EorkLUEUZVmOmf7zP/wAZ7j/k++KovFUj1LQtP122v9PvwzW3161u&#xA;aI3E+paG3uYt/D1IVr7YqxbVLbXPLvnHRdJ8vX0Frpvme9vrrUI7m2a5kFwI3upXjk9aKiyUCheP&#xA;w9d+mKs6j/46tx/xgg/4nNiqLxVCSf8AHVt/+ME//E4cVYBr9g/5eaDCfL99drFfajDb+lPDNqqw&#xA;LcySSym3tIAsrMWY7LXFWZWNxNcWOiTzSNNLKwZ5Xt5bJmJt5Kk20372I/5D7jFU4xVCan/vMn/G&#xA;e3/5PpiqW6l5P0u88xW3mZR6evWNpPZWN01XjRZ9+TRVXnxPTcbEjviqQ+RdX8y6z5K1LU9cvLe5&#xA;keXUrWFLa3NuEWxuri0LGss3L1PRDdqdN8VZ3irsVSOLQtP1CPy7qFyGNzo3+k2RVqASS2j2zch+&#xA;0PTmb6cVSLy75q1jUfPet6XPcsLHTrp7aC1TS7v0yq20Mod9TqbUPylP7v7XTFWXaZ/vM/8AxnuP&#xA;+T74qi8VSm50rT9WtdY0zUYRcWN45huYGJAeN7eMMKqQR8wa4q8u87ebda/L7WLPQdG1CS6Wa0N5&#xA;aWuprc6nc3t291HaxWSzmQNCrh/hZujbmtTVV65H/wAdW4/4wQf8TmxVF4qhJP8Ajq2//GCf/icO&#xA;KsD8yaDbeVtTt9Z0WaZ/MfmC7j0S0u9TnuL2GzhvJTcz+jC8mw/dFwnICoUVCimKp15P8wX+uaTZ&#xA;z6iIhqVnqmoabetbqywvLYSXNqZI1csyrIIg/Ek0rSpxVluKoTU/95k/4z2//J9MVSrXPI+i63q9&#xA;lqeoPdu1k8MiWaXU6WbyWspmgeW2VhE7RyHkCRvtWtBRVJPJur+ZdU0PzO2uXlvdPYXt9p1ube3N&#xA;sONpyQuwMs1S+xp298VZhpP/AByrL/jBF/xAYqk2n+R7O081S+ZZtRv9QvDHPBZwXcqPBaRXUqTT&#xA;JboqIwDNEg+NmIUBRtiqc6Z/vM//ABnuP+T74qi8VQll/vTf/wDGdf8AkxFiqG1Hy9ZahrOkavM8&#xA;i3OivO9qiFQjG5hML+oCpJorbUI3xVEx/wDHVuP+MEH/ABObFUXiqEk/46tv/wAYJ/8AicOKqWr6&#xA;Ja6r9S+sPIn1C7ivYfTIFZIa8Q1Q3w/FvT78VVb3/emw/wCM7f8AJiXFUXiqE1P/AHmT/jPb/wDJ&#xA;9MVReKpBY+XrLy/5VvNMsnkkgrf3XKYqz872aW6kFVVBQPMwXbpTr1xVP8VdiqE0n/jlWX/GCL/i&#xA;AxVS0rRLXTJtSmgeRm1S7N7cCQghZDFHDRKBaLxhXrXeu+Kqumf7zP8A8Z7j/k++KovFUJZf703/&#xA;APxnX/kxFiqReaPy90TzJc3Vxfy3CSXWnPpZMLIOEbTJcLNHyR6SxyxKyE1H+ScVTyEEapcAmpFv&#xA;Buep+OXwxVGYqhJP+Orb/wDGCf8A4nDiqF8x+XbPX9PS0uZZrd4Zorq0u7Zgk0NxA3OOVOQdCVPZ&#xA;1ZT0IIxVD6ToFjoFjpel2TSPFHdTSvNO/qSyzXCzzTSyNtV5JZGdqACp2AGKp7iqE1P/AHmT/jPb&#xA;/wDJ9MVReKsT0XycvljRdcjTVr3VP0i9xfTNfC1BWeYM0rJ9Vgth8bGpBqB2pirIdJ/45Vl/xgi/&#xA;4gMVReKoTTP95n/4z3H/ACffFUXiqEsv96b/AP4zr/yYixVF4qhI/wDjq3H/ABgg/wCJzYqi8VQk&#xA;n/HVt/8AjBP/AMThxVF4qhL3/emw/wCM7f8AJiXFUXiqE1P/AHmT/jPb/wDJ9MVReKoTVv8AjlXv&#xA;/GCX/iBxVF4q7FUJpP8AxyrL/jBF/wAQGKovFUJpn+8z/wDGe4/5PviqLxVCWX+9N/8A8Z1/5MRY&#xA;qi8VQkf/AB1bj/jBB/xObFUXiqEk/wCOrb/8YJ/+Jw4qi8VQl7/vTYf8Z2/5MS4qi8VQmp/7zJ/x&#xA;nt/+T6Yqi8VQmrf8cq9/4wS/8QOKu0n/AI5Vl/xgi/4gMVReKoTTP95n/wCM9x/yffFUXiqEsv8A&#xA;em//AOM6/wDJiLFUXiqEj/46tx/xgg/4nNiqLxVCSf8AHVt/+ME//E4cVReKoS9/3psP+M7f8mJc&#xA;VReKoTU/95k/4z2//J9MVReKoTVv+OVe/wDGCX/iBxVF4q7FUJpP/HKsv+MEX/EBiqLxVCaZ/vM/&#xA;/Ge4/wCT74qi8VQll/vTf/8AGdf+TEWKovFUJH/x1bj/AIwQf8TmxVF4qhJP+Orb/wDGCf8A4nDi&#xA;qLxVCXv+9Nh/xnb/AJMS4qi8VQmp/wC8yf8AGe3/AOT6Yqi8VQmrf8cq9/4wS/8AEDiqW6V5fsDp&#xA;dmTLeVMEZ2vrwfsDwlxVFf4esP8Aft5/0nXn/VXFVbR41isvTUsVSadQXZnagmcbsxLE+5OKo3FU&#xA;nTR7S5v9QmkkuVczqCIrq5iXaCIbJHIij7sVVf8AD1h/v28/6Trz/qriren2UNpqN1HE0rK0MDEz&#xA;SyztXlKNmlZ2A26VxVMsVSzUbCC71O1WVpVCwzkejNLAd3h6mJkJ+nFXf4esP9+3n/Sdef8AVXFV&#xA;NtJtbW+sJYnuGb1mFJbm4mWhgk/ZlkdfwxVN8VQOtQpPYiJywV5rcExu0bf36dHQqw+g4qpf4esP&#xA;9+3n/Sdef9VcVQ2p6DYppt24luyVhkIDXt2wqFJ3BlIP04qnmKuxVI9M0GxfTbRzLdgtDGSFvbtR&#xA;UqDsBKAPoxVE/wCHrD/ft5/0nXn/AFVxVV0WFILExIWKpNcAGR2kb+/fq7lmP0nFUdiqULpNrdX1&#xA;/LK9wresopFc3EK0EEf7MUiL+GKqn+HrD/ft5/0nXn/VXFXadYQWmp3SxNKwaGAn1ppZzs83Qys5&#xA;H0YqmeKpbqFlDd6jaxytKqrDOwMMssDV5RDdomRiN+lcVa/w9Yf79vP+k68/6q4qpPo9pbX+nzRy&#xA;XLOJ2AEt1cyrvBKN0kkdT92KpxiqC1iNZbL02LBXmgUlGZGoZkGzKQwPuDiqj/h6w/37ef8ASdef&#xA;9VcVQuq+X7AaXeES3lRBId768P7B8ZcVSjX/AMxdE8n6bpK6lBdz/WLGW7Y2cPreja2KRG5nlHJS&#xA;EjEyk0BPtirMo5EkjWRDyRwGVh0IIqDiqG0z/eZ/+M9x/wAn3xVF4qkepa7p+hW1/qF+WW2+vWtt&#xA;VF5H1Ls29tFt4epMtfbFUXo2vafrCXj2RYixu57C45rxpNbNwkA8RXocVVo/+Orcf8YIP+JzYqi8&#xA;VQkn/HVt/wDjBP8A8ThxVR0DXtP17SotU08s1pM0qIXXi1YZWhfb/XjOKq17/vTYf8Z2/wCTEuKo&#xA;vFUJqf8AvMn/ABnt/wDk+mKpVc+eNCttQudPlaX63a31nprxiMms1+ivCV8U4v8AE3bi3hiqa6t/&#xA;xyr3/jBL/wAQOKovFXYqxm/826f5f03QormC5urnVONtZW1nF60ryJbNO3w1XYRxMfoxVkcMnqRJ&#xA;JxZOahuDijCorRh2IxVD6Z/vM/8AxnuP+T74qi8VSi71fTtHs9Z1XUphb2FkxnuZyCwVEt4yTxUF&#xA;j7ACp7YqraHrA1azN0LK7sAHKCG+iMEpAAIcISfhYHbv2NDiqtH/AMdW4/4wQf8AE5sVReKoST/j&#xA;q2//ABgn/wCJw4qlWgedNO13Uby0sLW8MFo80Q1N4GWzmktpjbzJDNWjFJVK9BWh41AxVNb3/emw&#xA;/wCM7f8AJiXFUXiqE1P/AHmT/jPb/wDJ9MVSrU/Omn2HmO28vi0vb2/nWGWY2du00dtDcyvDFLcO&#xA;PsIzxOK70CkmgFcVTXVv+OVe/wDGCX/iBxV5X+afkPWPNFv5dlsdL/SkdvpGo2nH60tqsN1eJaG1&#xA;mkqy+pEjW7F1o1f5TirPfL3nHS9S1CXRI5prrU7BHS+u1tbiOzee2ZYrlYrhkWB2jlcBkVyR9Boq&#xA;m+mf7zP/AMZ7j/k++KovFWFfmD5cvfMfljVNIs4/Vlm1TS5XQSekfRt7qznnIcFSpEUTEUNfDfFU&#xA;o8pahpHkGa48s6ql7Fdavq19d6LFDa3+oiW3llLJW4hiuF5hELOHfkq/E1Aa4q9Bj/46tx/xgg/4&#xA;nNiqLxVCSf8AHVt/+ME//E4cVYB5J1XUfJXlYaf5s0ubT7e2upYrK6t66i93JeXU0qLHbWSzzg8W&#xA;HVcVZwLyK9TSruFZFink9RFnikglAa3lI5xTLHIh8VZQRiqZYqhNT/3mT/jPb/8AJ9MVYP5g8o6m&#xA;35o6f5mCcvLttai61NYwZJDeWEV3FbcIEDSSFk1FzRVO8a96Yqn2m+cdC80aDqV1ozXMlvBHNE8t&#xA;xZ3dmpkTnG6obqKHmUeNlfjXiwoaHFWS4q7FWB+ZfKEvmOTyOXiaTTdOuHuNSaOd7eRY30yeGMq8&#xA;Txyf30iA8T067VxVkGm+adBuNXn8v2Ru5LvTj6Fw5s702yOkavwa9eL6uX4Opp6pbfFUx0z/AHmf&#xA;/jPcf8n3xVF4qxbzfoN5r/ljzHpFi8cd7dEC1aepi9VIYXjElAx4FlAbY7dsVQkn5mWOlNFbea7O&#xA;XRdRkja4e3jEl/FFbI6xfWJp7eMxxxmV+NWpTq1OyrKY/wDjq3H/ABgg/wCJzYqi8VQkn/HVt/8A&#xA;jBP/AMThxV53YNqflbzbrGvarZLoPle6Vkks7a4kvzqGq3Fyohuba0ij5xyyx1EiIvJ3bo3HkVWb&#xA;2WtaZrVrpWp6ZN9Ysp55PTk4shrHHNG6sjhXVkdSrKwBBFDiqcYqhNT/AN5k/wCM9v8A8n0xVhvn&#xA;TQfM955x0LUNB0+OGS2lthe+YBdmJvqSzs13ZzWoX9+jx/3dW+F2J+GnxKpxp/nHQvM2javJpDXL&#xA;rZLNb3P1mzu7MrMqsGjpdRQlmQijBa8e9MVTrSf+OVZf8YIv+IDFWE+VtN8zWf5i6tJb6Vc6T5Vu&#xA;FuZbxbi5gngudQe4UxXVlEjySw+rFzaZW4gsR8PIFiqzbTP95n/4z3H/ACffFUXiqEsv96b/AP4z&#xA;r/yYixVIvMei6leec/KOo20POy0uW+e+l5IPTE9o0UZ4khm5OafCDiqex/8AHVuP+MEH/E5sVReK&#xA;oST/AI6tv/xgn/4nDiqRef8Ay9ea9ZaVaW/qhItUtri6lt5jbyxwx8ubpIGRgRUfZNcVTYWiWaaV&#xA;apJJKsMnBZJ5GllYLbyiryOSzHxJOKpliqE1P/eZP+M9v/yfTFUXirDPJmi6lo3kG8sdSh9C6+s6&#xA;zcenyR/3d1qF1cQtVCy/FFKrUrUVod8VZnirsVQmk/8AHKsv+MEX/EBirG/K3lO5svMvmLWbt7qJ&#xA;r3UXltLcXTm1eA2tvGJDbq5jDc42FWXlt8sVZJpn+8z/APGe4/5PviqLxVCWX+9N/wD8Z1/5MRYq&#xA;8x/Nr8vvMfmTXXvtPhlntbfRzEbNJ44Yr+VL6GdtPnDMrenPCjLWqgHq3bFXp0X/AB1Ljt+4g2/2&#xA;c2KovFUJJ/x1bf8A4wT/APE4cVSD8wdM1S7sdLu9Ntnvp9I1S11GSxieOOSeKEssiIZWSMuFk5KG&#xA;dQSBuMVUPJGj6lpej2q6nCba9v8AWNT1KW0LrL6Av57u6SIulULIkqhuJI5VoSMVZjiqE1P/AHmT&#xA;/jPb/wDJ9MVReKvP/I1rrttoXmoavo9zpDXmoahqFstzJaSF4bss6j/RZ7kBkA+INT2rirNdJ/45&#xA;Vl/xgi/4gMVReKoTTP8AeZ/+M9x/yffFUXiqEsv96b//AIzr/wAmIsVReKoSP/jq3H/GCD/ic2Ko&#xA;vFUJJ/x1bf8A4wT/APE4cVReKoS9/wB6bD/jO3/JiXFUXiqE1P8A3mT/AIz2/wDyfTFUXiqE1b/j&#xA;lXv/ABgl/wCIHFUXirsVQmk/8cqy/wCMEX/EBiqLxVCaZ/vM/wDxnuP+T74qi8VQll/vTf8A/Gdf&#xA;+TEWKovFUJH/AMdW4/4wQf8AE5sVReKoST/jq2//ABgn/wCJw4qi8VQl7/vTYf8AGdv+TEuKovFU&#xA;Jqf+8yf8Z7f/AJPpiqLxVCat/wAcq9/4wS/8QOKu0n/jlWX/ABgi/wCIDFUXiqE0z/eZ/wDjPcf8&#xA;n3xVF4qhLL/em/8A+M6/8mIsVReKoSP/AI6tx/xgg/4nNiqLxVCSf8dW3/4wT/8AE4cVReKoS9/3&#xA;psP+M7f8mJcVReKoTU/95k/4z2//ACfTFUXiqE1b/jlXv/GCX/iBxVF4q7FUJpP/AByrL/jBF/xA&#xA;Yqi8VQmmf7zP/wAZ7j/k++KovFUJZf703/8AxnX/AJMRYqi8VQkf/HVuP+MEH/E5sVReKoST/jq2&#xA;/wDxgn/4nDiqLxVCXv8AvTYf8Z2/5MS4qi8VQmp/7zJ/xnt/+T6Yqi8VQmrf8cq9/wCMEv8AxA4q&#xA;lulT+Y/0XZ0sbMj0I6E3ko/YH/LtiqK+seZf+WCz/wCkyX/slxVW0cymyrMqpKZp+aoxZQ3rPUBi&#xA;FJHvQYqjcVSdJtaW/wBQFraW0sPrrxeW5kiY/uIq1VYJB/w2Kqv1jzL/AMsFn/0mS/8AZLirenvf&#xA;PqN0byGKGT0YOKwytMpXlLuWaOLf2piqZYqlmovqCanafUoIZmMM/MTStCAOcPQrHNXFXfWPMv8A&#xA;ywWf/SZL/wBkuKqbS6w19YC7tbeGL1m+OK4eVq+hJQcWhiH/AA2KpviqA1ozrYgwIskwmt+CSMUU&#xA;n106sFcj/gTiqn9Y8y/8sFn/ANJkv/ZLiqG1OfzEdNuw9laKnoycmW7lYgcTUgG2FfvxVPMVdiqR&#xA;6ZP5iGm2gSytGT0Y+LNdyqSOIoSBbGn34qifrHmX/lgs/wDpMl/7JcVVNFM7WJM6LHMZrjmkbF1B&#xA;9d+jFUJ/4EYqj8VShZdYW+vxaWtvNF6y/HLcPE1fQjqOKwyj/hsVVPrHmX/lgs/+kyX/ALJcVdpz&#xA;6g+p3f12CGFhDBwEMrTAjnN1LRw0xVM8VS3UHvk1G1NnDFNJ6M/JZpWhULyi3DLHLv7UxVr6x5l/&#xA;5YLP/pMl/wCyXFVJ5taa/wBPF1aW0UPrtyeK5klYfuJaUVoIx/w2KpxiqC1gyiyrCqvKJoOCuxVS&#xA;3rJQFgGIHvQ4qo/WPMv/ACwWf/SZL/2S4qhdVn8x/ou8rY2YHoSVIvJT+wf+XbFUy0n/AI5Vl/xg&#xA;i/4gMVReKoTTP95n/wCM9x/yffFUXiqEsv8Aem//AOM6/wDJiLFUXiqEj/46tx/xgg/4nNiqLxVC&#xA;Sf8AHVt/+ME//E4cVReKoS9/3psP+M7f8mJcVReKoTU/95k/4z2//J9MVReKoTVv+OVe/wDGCX/i&#xA;BxVF4q7FUJpP/HKsv+MEX/EBiqLxVCaZ/vM//Ge4/wCT74qi8VQll/vTf/8AGdf+TEWKovFUJH/x&#xA;1bj/AIwQf8TmxVF4qhJP+Orb/wDGCf8A4nDiqLxVCXv+9Nh/xnb/AJMS4qi8VQmp/wC8yf8AGe3/&#xA;AOT6Yqi8VQmrf8cq9/4wS/8AEDirxL88xqjw+WksJlh9HQNZvHle6mtDCbZLFluITDT1J4qkxI5V&#xA;STuwGKvb9OuI7jT7W4jZnjmhjkR5BRyrKCCw7HffFVumf7zP/wAZ7j/k++KovFXnv5s3GoW/krVZ&#xA;dOYC+GsaMLfk7RIWa/sF4u6BmVGrxainbscVRH5RXOr3Gk662r8BqC69qSTRwyvNChWb7EUkixsU&#xA;X9mqj5Yqy+P/AI6tx/xgg/4nNiqLxVCSf8dW3/4wT/8AE4cVYp+T199a8iWfqXHr3Kz3wl5PzcAX&#xA;04XlUk9BtirK73/emw/4zt/yYlxVF4qhNT/3mT/jPb/8n0xV5jr0l8n5tw+W1mk9DW7vTNdFGYBY&#xA;tOguRcKKHZfVs7QMOh9TFXp2rf8AHKvf+MEv/EDiqLxV2KvKPzQsNQ1OH8v9LsoYrt7y9dXs7i6u&#xA;LGCVY9KuZaST2qySqFKchRTVgAdsVeoWMTQ2VvC6LG0caIyIzOqlVAIV3AZgPE7nFVPTP95n/wCM&#xA;9x/yffFUXirC/wAxdQvdP8i+bbyyuJLOeGMn65F/eQoYYhJKng0cZZge1K4qnvlfT9AsNM9HQpfW&#xA;sWcyep9Zku6u6qSfUkeU/EKN17174qjI/wDjq3H/ABgg/wCJzYqi8VQkn/HVt/8AjBP/AMThxV55&#xA;5ClsLP8AMTWtNnuf0pqt7Hd6jbavDfyXMb2X17j9Wnti5it5bV5FiTitGUGlCGXFXod7/vTYf8Z2&#xA;/wCTEuKovFUJqf8AvMn/ABnt/wDk+mKvOvP0thp/5i6Fqep3Iu7ORtPsLfS4b+S2urS7nvHEF4lr&#xA;G6C5inYiOVSPsxnZl5jFXourf8cq9/4wS/8AEDiqXf4c8vazpmltrGl2mpNaRRvatdwRTmJii1aP&#xA;1FbiTxG48MVYr5Sku7H8x9V0/Wb28udR1Bb690h1vXn099PS6jT0haFuFvPaF1iJCfF8R5E1Cqs7&#xA;0z/eZ/8AjPcf8n3xVF4ql6WtrdPfw3UKTxfWY39OVQ68o4oXRqMCKq6hgexFcVYV5w0S0/5WF5Pj&#xA;gnvbKDUp779IW1jfXllBO0Ns9wjyw20sUbP6u7OV5N0YldsVZ1H/AMdW4/4wQf8AE5sVReKoST/j&#xA;q2//ABgn/wCJw4qwb8xdCs9N0yyHl7To7K81TVrSG7GnzPpEtyrFyUku7MLMoJ3rirLLG3mt7HRI&#xA;Jo2hliYK8T3Et6ykW8lQbmb97Kf8t9ziqcYqhNT/AN5k/wCM9v8A8n0xVu70uwunMk0I+selJbrd&#xA;JWOdI5ac1jmQrLHWgNUYGoB6jFWBflhasv5faleTXd7eXM91rELy317dXpEdnf3VvAqfWZZeHGKN&#xA;VPGnKlWqd8Vej4q7FUv061tZtP0yaWFJJbaJHt5HUM0bNFwLISKqSjFSR2NMVYZ5Rh1e58/+Zryd&#xA;LiaytdQe2guX1W8MMa/U7dxEumE/VacnJ59anFWcaZ/vM/8AxnuP+T74qi8VQdoA0+oAioM4BB6E&#xA;ehFirxX81mu/Lvme3s/LEM2l2o003IOnXDWNjaXU2owQfX7y2geNbmNRJSRTG5K9tqhV7XH/AMdW&#xA;4/4wQf8AE5sVReKoST/jq2//ABgn/wCJw4qw3z/p9jpsWnjS4U0mTzDrVlZazqNiFtLmSGVyWBuI&#xA;wsvKRlWPkGDfFsa4qq/l3qF7e+XrP61cyX31PWdVsLa+lcSST29nc3lvA7OPtn041Ut+1SvfFWcY&#xA;qhNT/wB5k/4z2/8AyfTFVlzoeiXWo2+p3On20+pWg42t7JDG88QNdo5GBdevY4qwb8vLVodB8387&#xA;u9u/R1TU7OE317dXpSC2ZkiRDdSzFaKd6bt3rirPNJ/45Vl/xgi/4gMVQmneUvK+mateaxp+k2lp&#xA;quocje30MKJNLzbm3N1AY8n+JvFtzviqL0z/AHmf/jPcf8n3xVF4qhLL/em//wCM6/8AJiLFV0+n&#xA;WNxd2t3PAkl1ZF2tJmUF4jIvByh7clNDiq2P/jq3H/GCD/ic2KovFUJJ/wAdW3/4wT/8ThxVUurK&#xA;zu/R+swpN6Eizw8wDwlT7LrXoRXriqne/wC9Nh/xnb/kxLiqLxVCan/vMn/Ge3/5PpiqLxVLJ9Os&#xA;dP0G8trGBLa39O5l9KJQq85i8srUHd5HZj7nFUzxV2KoTSf+OVZf8YIv+IDFVS2srO2ed7eFImup&#xA;DPcsgAMkpVU5tTqeKKK+2Kqemf7zP/xnuP8Ak++KovFUJZf703//ABnX/kxFiqjqPl7Q9SaZtQsI&#xA;Lpri2exnMyK/O2kIZ4Wr1RiKkYqrRCmqXA/4og/4nNiqLxVCSf8AHVt/+ME//E4cVdqmk6Zq1jLY&#xA;anaxXtlOKS286B0ahqNm7g7g9sVQ6afY6dHpdlYW8dpZ28pSC3hURxoogl2VVAAxVM8VQmp/7zJ/&#xA;xnt/+T6Yqi8VY9beVPLXl7R9TTQ9Nt9OS5ike4W3QRh2CNRmp1O5xVNtJ/45Vl/xgi/4gMVReKoT&#xA;TP8AeZ/+M9x/yffFUXiqEsv96b//AIzr/wAmIsVReKoSP/jq3H/GCD/ic2KovFUJJ/x1bf8A4wT/&#xA;APE4cVReKoS9/wB6bD/jO3/JiXFUXiqE1P8A3mT/AIz2/wDyfTFUXiqE1b/jlXv/ABgl/wCIHFUX&#xA;irsVQmk/8cqy/wCMEX/EBiqLxVCaZ/vM/wDxnuP+T74qi8VQll/vTf8A/Gdf+TEWKovFUJH/AMdW&#xA;4/4wQf8AE5sVReKoST/jq2//ABgn/wCJw4qi8VQl7/vTYf8AGdv+TEuKovFUJqf+8yf8Z7f/AJPp&#xA;iqLxVCat/wAcq9/4wS/8QOKoXStV0saXZg3kAIgjqPUT+Qe+Kor9LaV/y2wf8jU/rirWkuj2hdGD&#xA;I005VgaggzvQg4qjMVSyDULCG81COa5ijkE61R3VTvBF2JxVEfpbSv8Altg/5Gp/XFVO0uLefUrl&#xA;4JUlQQwAsjBhXnLtUYqj8VS+7ura31S1M8qRBoJwpdgoJ5w9K4qq/pbSv+W2D/kan9cVUJr+xnvL&#xA;BILiKV/WY8UdWNPQl3oDiqZYqgtXkjjs1eRgiLPblmYgAD106k4qu/S2lf8ALbB/yNT+uKoXVNU0&#xA;xtMu1W7hZmhkCqJEJJKHYb4qmuKuxVKtL1TTF0y0VruFWWGMMpkQEEINjviqK/S2lf8ALbB/yNT+&#xA;uKrdIkjks2eNg6NPcFWUggj136EYqjcVS2G/sYLy/Se4iif1lPF3VTT0It6E4qr/AKW0r/ltg/5G&#xA;p/XFVK0ura41S6MEqShYIAxRgwB5zdaYqmGKoC7uLeDUrZ55UiQwzgM7BRXnFtU4qqfpbSv+W2D/&#xA;AJGp/XFUPPqFhNeafHDcxSSGdqIjqx2gl7A4qmeKoPVnRLQO7BUWaAsxNAAJ0qScVb/S2lf8tsH/&#xA;ACNT+uKoXVdV0s6XeAXkBJgkoPUT+Q++Kv8A/9k=</xapGImg:image>
    </rdf:li>
   </rdf:Alt>
  </xap:Thumbnails>
 </rdf:Description>

 <rdf:Description rdf:about='uuid:220067b4-45ab-11de-99af-001124740a56'
  xmlns:xapMM='http://ns.adobe.com/xap/1.0/mm/'>
  <xapMM:DocumentID>uuid:831aaf18-81ce-11da-9137-001124808cba</xapMM:DocumentID>
 </rdf:Description>

 <rdf:Description rdf:about='uuid:220067b4-45ab-11de-99af-001124740a56'
  xmlns:dc='http://purl.org/dc/elements/1.1/'>
  <dc:format>image/svg+xml</dc:format>
 </rdf:Description>

</rdf:RDF>
</x:xmpmeta>
                                                                                                                                                                                                                                                                                                                                                                                                                                                                                                                                                                                                                                                                                                                                                                                                                                                                                                                                                                                                                                                                                                                                                                                                                                                                                                                                                                                                                                                                                                                                                                                                                                                                                                                                                                                                                                                                                                                                                                                                                                                                                                                                <?xpacket end='w'?>
			</metadata>
		<g id="レイヤー1">
			<g>
				<rect x="0.125" y="0.125" fill="none" stroke="#000000" stroke-width="0.25" width="50" height="150"/> 
				<rect x="100.125" y="0.125" fill="none" stroke="#000000" stroke-width="0.25" width="50" height="150"/> 
				<rect x="200.125" y="0.125" fill="none" stroke="#000000" stroke-width="0.25" width="50" height="150"/> 
				<rect x="300.125" y="0.125" fill="none" stroke="#000000" stroke-width="0.25" width="50" height="150"/> 
				<rect x="400.125" y="0.125" fill="none" stroke="#000000" stroke-width="0.25" width="50" height="150"/> 
				<rect x="500.125" y="0.125" fill="none" stroke="#000000" stroke-width="0.25" width="50" height="150"/> 
				<rect x="600.125" y="0.125" fill="none" stroke="#000000" stroke-width="0.25" width="50" height="150"/> 
				<rect x="0.125" y="150.125" fill="none" stroke="#000000" stroke-width="0.25" width="50" height="150"/> 
				<rect x="100.125" y="150.125" fill="none" stroke="#000000" stroke-width="0.25" width="50" height="150"/> 
				<rect x="200.125" y="150.125" fill="none" stroke="#000000" stroke-width="0.25" width="50" height="150"/> 
				<rect x="300.125" y="150.125" fill="none" stroke="#000000" stroke-width="0.25" width="50" height="150"/> 
				<rect x="400.125" y="150.125" fill="none" stroke="#000000" stroke-width="0.25" width="50" height="150"/> 
				<rect x="500.125" y="150.125" fill="none" stroke="#000000" stroke-width="0.25" width="50" height="150"/> 
				<rect x="600.125" y="150.125" fill="none" stroke="#000000" stroke-width="0.25" width="50" height="150"/> 
				<rect x="0.125" y="300.125" fill="none" stroke="#000000" stroke-width="0.25" width="50" height="150"/> 
				<rect x="100.125" y="300.125" fill="none" stroke="#000000" stroke-width="0.25" width="50" height="150"/> 
				<rect x="200.125" y="300.125" fill="none" stroke="#000000" stroke-width="0.25" width="50" height="150"/> 
				<rect x="300.125" y="300.125" fill="none" stroke="#000000" stroke-width="0.25" width="50" height="150"/> 
				<rect x="400.125" y="300.125" fill="none" stroke="#000000" stroke-width="0.25" width="50" height="150"/> 
				<rect x="500.125" y="300.125" fill="none" stroke="#000000" stroke-width="0.25" width="50" height="150"/> 
				<rect x="600.125" y="300.125" fill="none" stroke="#000000" stroke-width="0.25" width="50" height="150"/> 
				<rect x="0.125" y="450.125" fill="none" stroke="#000000" stroke-width="0.25" width="50" height="150"/> 
				<rect x="100.125" y="450.125" fill="none" stroke="#000000" stroke-width="0.25" width="50" height="150"/> 
				<rect x="200.125" y="450.125" fill="none" stroke="#000000" stroke-width="0.25" width="50" height="150"/> 
				<rect x="300.125" y="450.125" fill="none" stroke="#000000" stroke-width="0.25" width="50" height="150"/> 
				<rect x="400.125" y="450.125" fill="none" stroke="#000000" stroke-width="0.25" width="50" height="150"/> 
				<rect x="500.125" y="450.125" fill="none" stroke="#000000" stroke-width="0.25" width="50" height="150"/> 
				<rect x="600.125" y="450.125" fill="none" stroke="#000000" stroke-width="0.25" width="50" height="150"/> 
				<rect x="0.125" y="600.125" fill="none" stroke="#000000" stroke-width="0.25" width="50" height="150"/> 
				<rect x="100.125" y="600.125" fill="none" stroke="#000000" stroke-width="0.25" width="50" height="150"/> 
				<rect x="200.125" y="600.125" fill="none" stroke="#000000" stroke-width="0.25" width="50" height="150"/> 
				<rect x="300.125" y="600.125" fill="none" stroke="#000000" stroke-width="0.25" width="50" height="150"/> 
				<rect x="400.125" y="600.125" fill="none" stroke="#000000" stroke-width="0.25" width="50" height="150"/> 
				<rect x="500.125" y="600.125" fill="none" stroke="#000000" stroke-width="0.25" width="50" height="150"/> 
				<rect x="600.125" y="600.125" fill="none" stroke="#000000" stroke-width="0.25" width="50" height="150"/> 
				<rect x="700.125" y="0.125" fill="none" stroke="#000000" stroke-width="0.25" width="50" height="150"/> 
				<rect x="700.125" y="150.125" fill="none" stroke="#000000" stroke-width="0.25" width="50" height="150"/> 
				<rect x="700.125" y="300.125" fill="none" stroke="#000000" stroke-width="0.25" width="50" height="150"/> 
				<rect x="700.125" y="450.125" fill="none" stroke="#000000" stroke-width="0.25" width="50" height="150"/> 
				<rect x="700.125" y="600.125" fill="none" stroke="#000000" stroke-width="0.25" width="50" height="150"/> 
			</g>
			<g>
				<polygon points="114.40625,635.125 114.40625,644.6611328 121.3173828,644.6611328 121.3173828,635.125 124.0058594,635.125 
					124.0058594,658.4853516 121.3173828,658.4853516 121.3173828,646.9658203 114.40625,646.9658203 114.40625,658.4853516 
					111.8457031,658.4853516 111.8457031,635.125 "/>
				<polygon points="131.0136719,683.3056641 131.0136719,662.1855469 126.0849609,662.1855469 126.0849609,659.9453125 
					138.5654297,659.9453125 138.5654297,662.1855469 133.6367188,662.1855469 133.6367188,683.3056641 "/>
			</g>
			<g>
				<polygon points="215.75,635.125 215.75,656.1816406 223.3662109,656.1816406 223.3662109,658.4853516 213.1259766,658.4853516 
					213.1259766,635.125 "/>
				<polygon points="229.8291016,671.7861328 229.8291016,683.3056641 227.2050781,683.3056641 227.2050781,659.9453125 
					237.765625,659.9453125 237.765625,662.25 229.8291016,662.25 229.8291016,669.5458984 237.4453125,669.5458984 
					237.4453125,671.7861328 "/>
			</g>
			<g>
				<polygon points="318.0214844,656.2451172 322.3417969,635.125 324.9658203,635.125 319.5253906,658.4853516 
					316.3261719,658.4853516 310.8857422,635.125 313.6376953,635.125 317.9580078,656.2451172 "/>
				<polygon points="331.0136719,683.3056641 331.0136719,662.1855469 326.0849609,662.1855469 326.0849609,659.9453125 
					338.5654297,659.9453125 338.5654297,662.1855469 333.6367188,662.1855469 333.6367188,683.3056641 "/>
			</g>
			<g>
				<polygon points="415.4296875,646.9658203 415.4296875,658.4853516 412.8056641,658.4853516 412.8056641,635.125 
					423.3662109,635.125 423.3662109,637.4296875 415.4296875,637.4296875 415.4296875,644.7255859 423.0458984,644.7255859 
					423.0458984,646.9658203 "/>
				<polygon points="429.8291016,671.7861328 429.8291016,683.3056641 427.2050781,683.3056641 427.2050781,659.9453125 
					437.765625,659.9453125 437.765625,662.25 429.8291016,662.25 429.8291016,669.5458984 437.4453125,669.5458984 
					437.4453125,671.7861328 "/>
			</g>
			<g>
				<path d="M511.6855469,646.8056641c0-4.203125,0.6445312-7.2539062,1.9355469-9.1523438s3.2060547-2.8476562,5.7451172-2.8476562
					c1.4072266,0,2.7402344,0.3203125,4,0.9599609v2.3994141c-1.28125-0.703125-2.5615234-1.0556641-3.8408203-1.0556641
					c-3.5195312,0-5.2792969,3.2324219-5.2792969,9.6962891c0,3.4990234,0.4472656,5.9892578,1.34375,7.4716797
					c0.8955078,1.4824219,2.2070312,2.2236328,3.9355469,2.2236328c1.3222656,0,2.65625-0.4052734,4-1.2158203v2.5605469
					c-1.2587891,0.6396484-2.6455078,0.9599609-4.1591797,0.9599609c-2.6035156,0-4.5341797-0.9169922-5.7929688-2.7519531
					C512.3144531,654.2197266,511.6855469,651.1367188,511.6855469,646.8056641z"/>
				<path d="M529.1894531,683.3056641h-2.6240234v-23.2001953c1.6640625-0.3193359,3.3701172-0.4794922,5.1201172-0.4794922
					c2.3886719,0,4.1591797,0.5283203,5.3115234,1.5839844c1.1523438,1.0566406,1.7285156,2.6611328,1.7285156,4.8154297
					c0,3.0507812-1.1630859,5.1103516-3.4882812,6.1767578v0.0634766c0.6611328,0.3203125,1.3652344,1.7177734,2.1123047,4.1923828
					l2.015625,6.8476562h-2.7519531l-1.8876953-6.9121094c-0.3632812-1.3652344-0.8007812-2.2607422-1.3125-2.6875
					s-1.3867188-0.640625-2.6240234-0.640625h-3.0996094v-2.2402344h3.4199219c1.8554688,0,3.1621094-0.3564453,3.9199219-1.0712891
					c0.7568359-0.7148438,1.1357422-1.9570312,1.1357422-3.7285156c0-2.7734375-1.5791016-4.1601562-4.7363281-4.1601562
					c-0.875,0-1.6210938,0.0859375-2.2392578,0.2568359V683.3056641z"/>
			</g>
			<g>
				<path d="M618.2460938,637.109375c-1.0029297,0-1.8300781,0.3261719-2.4804688,0.9765625
					s-0.9755859,1.4775391-0.9755859,2.4794922c0,1.0664062,0.2285156,1.9462891,0.6875,2.6396484
					s1.2216797,1.2861328,2.2880859,1.7763672c2.3671875,1.0458984,3.9990234,2.1396484,4.8955078,3.2802734
					c0.8964844,1.1416016,1.3447266,2.6298828,1.3447266,4.4638672c0,2.0058594-0.5498047,3.5205078-1.6484375,4.5439453
					c-1.0986328,1.0244141-2.6826172,1.5361328-4.7519531,1.5361328c-1.9414062,0-3.7011719-0.5869141-5.2792969-1.7607422
					v-3.0400391c1.7060547,1.6640625,3.5195312,2.4960938,5.4394531,2.4960938c2.4101562,0,3.6162109-1.2578125,3.6162109-3.7753906
					c0-1.1728516-0.2773438-2.1435547-0.8320312-2.9121094c-0.5546875-0.7675781-1.4833984-1.4501953-2.7841797-2.0478516
					c-2.0058594-0.8964844-3.4404297-1.9150391-4.3037109-3.0566406c-0.8642578-1.140625-1.2958984-2.5224609-1.2958984-4.1435547
					c0-1.7070312,0.5439453-3.09375,1.6318359-4.1601562s2.5166016-1.5996094,4.2880859-1.5996094
					c1.1308594,0,2.0585938,0.0859375,2.7841797,0.2558594c0.7246094,0.1708984,1.5566406,0.5117188,2.4960938,1.0234375v2.8808594
					C621.7226562,637.7285156,620.015625,637.109375,618.2460938,637.109375z"/>
				<path d="M632.3251953,681.3212891c0.9384766,0,1.6953125-0.2714844,2.2714844-0.8154297
					s1.0341797-1.5410156,1.3759766-2.9921875c0.3417969-1.4501953,0.5126953-3.4130859,0.5126953-5.8876953
					s-0.1708984-4.4365234-0.5126953-5.8876953s-0.7998047-2.4482422-1.3759766-2.9921875s-1.3330078-0.8164062-2.2714844-0.8164062
					c-0.9394531,0-1.6962891,0.2724609-2.2724609,0.8164062s-1.0341797,1.5410156-1.3759766,2.9921875
					s-0.5117188,3.4130859-0.5117188,5.8876953s0.1699219,4.4375,0.5117188,5.8876953
					c0.3417969,1.4511719,0.7998047,2.4482422,1.3759766,2.9921875S631.3857422,681.3212891,632.3251953,681.3212891v2.3046875
					c-2.2832031,0-3.9736328-0.9013672-5.0722656-2.7041016s-1.6474609-4.9013672-1.6474609-9.2958984
					s0.5488281-7.4931641,1.6474609-9.2958984s2.7890625-2.7041016,5.0722656-2.7041016
					c2.2822266,0,3.9726562,0.9013672,5.0712891,2.7041016s1.6484375,4.9013672,1.6484375,9.2958984
					s-0.5498047,7.4931641-1.6484375,9.2958984s-2.7890625,2.7041016-5.0712891,2.7041016V681.3212891z"/>
			</g>
			<g>
				<path d="M718.2460938,637.109375c-1.0029297,0-1.8300781,0.3261719-2.4804688,0.9765625
					s-0.9755859,1.4775391-0.9755859,2.4794922c0,1.0664062,0.2285156,1.9462891,0.6875,2.6396484
					s1.2216797,1.2861328,2.2880859,1.7763672c2.3671875,1.0458984,3.9990234,2.1396484,4.8955078,3.2802734
					c0.8964844,1.1416016,1.3447266,2.6298828,1.3447266,4.4638672c0,2.0058594-0.5498047,3.5205078-1.6484375,4.5439453
					c-1.0986328,1.0244141-2.6826172,1.5361328-4.7519531,1.5361328c-1.9414062,0-3.7011719-0.5869141-5.2792969-1.7607422
					v-3.0400391c1.7060547,1.6640625,3.5195312,2.4960938,5.4394531,2.4960938c2.4101562,0,3.6162109-1.2578125,3.6162109-3.7753906
					c0-1.1728516-0.2773438-2.1435547-0.8320312-2.9121094c-0.5546875-0.7675781-1.4833984-1.4501953-2.7841797-2.0478516
					c-2.0058594-0.8964844-3.4404297-1.9150391-4.3037109-3.0566406c-0.8642578-1.140625-1.2958984-2.5224609-1.2958984-4.1435547
					c0-1.7070312,0.5439453-3.09375,1.6318359-4.1601562s2.5166016-1.5996094,4.2880859-1.5996094
					c1.1308594,0,2.0585938,0.0859375,2.7841797,0.2558594c0.7246094,0.1708984,1.5566406,0.5117188,2.4960938,1.0234375v2.8808594
					C721.7226562,637.7285156,720.015625,637.109375,718.2460938,637.109375z"/>
				<polygon points="737.4453125,683.3056641 727.2050781,683.3056641 727.2050781,681.0654297 730.9814453,681.0654297 
					730.9814453,662.1855469 727.2050781,662.1855469 727.2050781,659.9453125 737.4453125,659.9453125 737.4453125,662.1855469 
					733.6689453,662.1855469 733.6689453,681.0654297 737.4453125,681.0654297 "/>
			</g>
			<g>
				<path d="M17.2861328,658.8056641c-1.7070312,0-3.3603516-0.1601562-4.9599609-0.4804688v-23.0400391
					c1.5996094-0.3193359,3.2529297-0.4794922,4.9599609-0.4794922c4.3730469,0,6.5595703,1.9199219,6.5595703,5.7597656
					c0,1.3017578-0.3261719,2.4003906-0.9765625,3.2958984c-0.6503906,0.8964844-1.5517578,1.4931641-2.703125,1.7919922v0.0644531
					c1.2363281,0.234375,2.265625,0.9169922,3.0869141,2.0478516s1.2324219,2.4638672,1.2324219,4
					C24.4853516,656.4589844,22.0849609,658.8056641,17.2861328,658.8056641l0.5439453-2.2402344
					c2.6875,0,4.03125-1.7060547,4.03125-5.1201172c0-2.9863281-1.7177734-4.4794922-5.1513672-4.4794922h-2.7597656v-2.2402344
					h2.4394531c1.7070312,0,2.9492188-0.3144531,3.7285156-0.9443359c0.7783203-0.6289062,1.1679688-1.5947266,1.1679688-2.8955078
					c0-1.2158203-0.3847656-2.1601562-1.1523438-2.8320312c-0.7685547-0.671875-1.8564453-1.0087891-3.2636719-1.0087891
					c-0.7685547,0-1.4082031,0.0859375-1.9199219,0.2568359v19.0078125
					c0.7890625,0.1708984,1.7490234,0.2558594,2.8798828,0.2558594L17.2861328,658.8056641z"/>
				<path d="M32.6455078,661.9296875c-1.0029297,0-1.8300781,0.3261719-2.4804688,0.9765625
					s-0.9755859,1.4775391-0.9755859,2.4794922c0,1.0664062,0.2285156,1.9462891,0.6875,2.6396484
					s1.2216797,1.2861328,2.2880859,1.7763672c2.3671875,1.0458984,3.9990234,2.1396484,4.8955078,3.2802734
					c0.8964844,1.1416016,1.3447266,2.6298828,1.3447266,4.4638672c0,2.0058594-0.5498047,3.5205078-1.6484375,4.5439453
					c-1.0986328,1.0244141-2.6826172,1.5361328-4.7519531,1.5361328c-1.9414062,0-3.7011719-0.5869141-5.2792969-1.7607422
					v-3.0400391c1.7060547,1.6640625,3.5195312,2.4960938,5.4394531,2.4960938c2.4101562,0,3.6162109-1.2578125,3.6162109-3.7753906
					c0-1.1728516-0.2773438-2.1435547-0.8320312-2.9121094c-0.5546875-0.7675781-1.4833984-1.4501953-2.7841797-2.0478516
					c-2.0058594-0.8964844-3.4404297-1.9150391-4.3037109-3.0566406c-0.8642578-1.140625-1.2958984-2.5224609-1.2958984-4.1435547
					c0-1.7070312,0.5439453-3.09375,1.6318359-4.1601562s2.5166016-1.5996094,4.2880859-1.5996094
					c1.1308594,0,2.0585938,0.0859375,2.7841797,0.2558594c0.7246094,0.1708984,1.5566406,0.5117188,2.4960938,1.0234375v2.8808594
					C36.1220703,662.5488281,34.4150391,661.9296875,32.6455078,661.9296875z"/>
			</g>
			<g>
				<polygon points="114.40625,485.125 114.40625,494.6611328 121.3173828,494.6611328 121.3173828,485.125 124.0058594,485.125 
					124.0058594,508.4853516 121.3173828,508.4853516 121.3173828,496.9658203 114.40625,496.9658203 114.40625,508.4853516 
					111.8457031,508.4853516 111.8457031,485.125 "/>
				<polygon points="131.0136719,533.3056641 131.0136719,512.1855469 126.0849609,512.1855469 126.0849609,509.9453125 
					138.5654297,509.9453125 138.5654297,512.1855469 133.6367188,512.1855469 133.6367188,533.3056641 "/>
			</g>
			<g>
				<polygon points="215.75,485.125 215.75,506.1816406 223.3662109,506.1816406 223.3662109,508.4853516 213.1259766,508.4853516 
					213.1259766,485.125 "/>
				<polygon points="229.8291016,521.7861328 229.8291016,533.3056641 227.2050781,533.3056641 227.2050781,509.9453125 
					237.765625,509.9453125 237.765625,512.25 229.8291016,512.25 229.8291016,519.5458984 237.4453125,519.5458984 
					237.4453125,521.7861328 "/>
			</g>
			<g>
				<polygon points="318.0214844,506.2451172 322.3417969,485.125 324.9658203,485.125 319.5253906,508.4853516 
					316.3261719,508.4853516 310.8857422,485.125 313.6376953,485.125 317.9580078,506.2451172 "/>
				<polygon points="331.0136719,533.3056641 331.0136719,512.1855469 326.0849609,512.1855469 326.0849609,509.9453125 
					338.5654297,509.9453125 338.5654297,512.1855469 333.6367188,512.1855469 333.6367188,533.3056641 "/>
			</g>
			<g>
				<polygon points="415.4296875,496.9658203 415.4296875,508.4853516 412.8056641,508.4853516 412.8056641,485.125 
					423.3662109,485.125 423.3662109,487.4296875 415.4296875,487.4296875 415.4296875,494.7255859 423.0458984,494.7255859 
					423.0458984,496.9658203 "/>
				<polygon points="429.8291016,521.7861328 429.8291016,533.3056641 427.2050781,533.3056641 427.2050781,509.9453125 
					437.765625,509.9453125 437.765625,512.25 429.8291016,512.25 429.8291016,519.5458984 437.4453125,519.5458984 
					437.4453125,521.7861328 "/>
			</g>
			<g>
				<path d="M511.6855469,496.8056641c0-4.203125,0.6445312-7.2539062,1.9355469-9.1523438s3.2060547-2.8476562,5.7451172-2.8476562
					c1.4072266,0,2.7402344,0.3203125,4,0.9599609v2.3994141c-1.28125-0.703125-2.5615234-1.0556641-3.8408203-1.0556641
					c-3.5195312,0-5.2792969,3.2324219-5.2792969,9.6962891c0,3.4990234,0.4472656,5.9892578,1.34375,7.4716797
					c0.8955078,1.4824219,2.2070312,2.2236328,3.9355469,2.2236328c1.3222656,0,2.65625-0.4052734,4-1.2158203v2.5605469
					c-1.2587891,0.6396484-2.6455078,0.9599609-4.1591797,0.9599609c-2.6035156,0-4.5341797-0.9169922-5.7929688-2.7519531
					C512.3144531,504.2197266,511.6855469,501.1367188,511.6855469,496.8056641z"/>
				<path d="M529.1894531,533.3056641h-2.6240234v-23.2001953c1.6640625-0.3193359,3.3701172-0.4794922,5.1201172-0.4794922
					c2.3886719,0,4.1591797,0.5283203,5.3115234,1.5839844c1.1523438,1.0566406,1.7285156,2.6611328,1.7285156,4.8154297
					c0,3.0507812-1.1630859,5.1103516-3.4882812,6.1767578v0.0634766c0.6611328,0.3203125,1.3652344,1.7177734,2.1123047,4.1923828
					l2.015625,6.8476562h-2.7519531l-1.8876953-6.9121094c-0.3632812-1.3652344-0.8007812-2.2607422-1.3125-2.6875
					s-1.3867188-0.640625-2.6240234-0.640625h-3.0996094v-2.2402344h3.4199219c1.8554688,0,3.1621094-0.3564453,3.9199219-1.0712891
					c0.7568359-0.7148438,1.1357422-1.9570312,1.1357422-3.7285156c0-2.7734375-1.5791016-4.1601562-4.7363281-4.1601562
					c-0.875,0-1.6210938,0.0859375-2.2392578,0.2568359V533.3056641z"/>
			</g>
			<g>
				<path d="M618.2460938,487.109375c-1.0029297,0-1.8300781,0.3261719-2.4804688,0.9765625
					s-0.9755859,1.4775391-0.9755859,2.4794922c0,1.0664062,0.2285156,1.9462891,0.6875,2.6396484
					s1.2216797,1.2861328,2.2880859,1.7763672c2.3671875,1.0458984,3.9990234,2.1396484,4.8955078,3.2802734
					c0.8964844,1.1416016,1.3447266,2.6298828,1.3447266,4.4638672c0,2.0058594-0.5498047,3.5205078-1.6484375,4.5439453
					c-1.0986328,1.0244141-2.6826172,1.5361328-4.7519531,1.5361328c-1.9414062,0-3.7011719-0.5869141-5.2792969-1.7607422
					v-3.0400391c1.7060547,1.6640625,3.5195312,2.4960938,5.4394531,2.4960938c2.4101562,0,3.6162109-1.2578125,3.6162109-3.7753906
					c0-1.1728516-0.2773438-2.1435547-0.8320312-2.9121094c-0.5546875-0.7675781-1.4833984-1.4501953-2.7841797-2.0478516
					c-2.0058594-0.8964844-3.4404297-1.9150391-4.3037109-3.0566406c-0.8642578-1.140625-1.2958984-2.5224609-1.2958984-4.1435547
					c0-1.7070312,0.5439453-3.09375,1.6318359-4.1601562s2.5166016-1.5996094,4.2880859-1.5996094
					c1.1308594,0,2.0585938,0.0859375,2.7841797,0.2558594c0.7246094,0.1708984,1.5566406,0.5117188,2.4960938,1.0234375v2.8808594
					C621.7226562,487.7285156,620.015625,487.109375,618.2460938,487.109375z"/>
				<path d="M632.3251953,531.3212891c0.9384766,0,1.6953125-0.2714844,2.2714844-0.8154297
					s1.0341797-1.5410156,1.3759766-2.9921875c0.3417969-1.4501953,0.5126953-3.4130859,0.5126953-5.8876953
					s-0.1708984-4.4365234-0.5126953-5.8876953s-0.7998047-2.4482422-1.3759766-2.9921875s-1.3330078-0.8164062-2.2714844-0.8164062
					c-0.9394531,0-1.6962891,0.2724609-2.2724609,0.8164062s-1.0341797,1.5410156-1.3759766,2.9921875
					s-0.5117188,3.4130859-0.5117188,5.8876953s0.1699219,4.4375,0.5117188,5.8876953
					c0.3417969,1.4511719,0.7998047,2.4482422,1.3759766,2.9921875S631.3857422,531.3212891,632.3251953,531.3212891v2.3046875
					c-2.2832031,0-3.9736328-0.9013672-5.0722656-2.7041016s-1.6474609-4.9013672-1.6474609-9.2958984
					s0.5488281-7.4931641,1.6474609-9.2958984s2.7890625-2.7041016,5.0722656-2.7041016
					c2.2822266,0,3.9726562,0.9013672,5.0712891,2.7041016s1.6484375,4.9013672,1.6484375,9.2958984
					s-0.5498047,7.4931641-1.6484375,9.2958984s-2.7890625,2.7041016-5.0712891,2.7041016V531.3212891z"/>
			</g>
			<g>
				<path d="M718.2460938,487.109375c-1.0029297,0-1.8300781,0.3261719-2.4804688,0.9765625
					s-0.9755859,1.4775391-0.9755859,2.4794922c0,1.0664062,0.2285156,1.9462891,0.6875,2.6396484
					s1.2216797,1.2861328,2.2880859,1.7763672c2.3671875,1.0458984,3.9990234,2.1396484,4.8955078,3.2802734
					c0.8964844,1.1416016,1.3447266,2.6298828,1.3447266,4.4638672c0,2.0058594-0.5498047,3.5205078-1.6484375,4.5439453
					c-1.0986328,1.0244141-2.6826172,1.5361328-4.7519531,1.5361328c-1.9414062,0-3.7011719-0.5869141-5.2792969-1.7607422
					v-3.0400391c1.7060547,1.6640625,3.5195312,2.4960938,5.4394531,2.4960938c2.4101562,0,3.6162109-1.2578125,3.6162109-3.7753906
					c0-1.1728516-0.2773438-2.1435547-0.8320312-2.9121094c-0.5546875-0.7675781-1.4833984-1.4501953-2.7841797-2.0478516
					c-2.0058594-0.8964844-3.4404297-1.9150391-4.3037109-3.0566406c-0.8642578-1.140625-1.2958984-2.5224609-1.2958984-4.1435547
					c0-1.7070312,0.5439453-3.09375,1.6318359-4.1601562s2.5166016-1.5996094,4.2880859-1.5996094
					c1.1308594,0,2.0585938,0.0859375,2.7841797,0.2558594c0.7246094,0.1708984,1.5566406,0.5117188,2.4960938,1.0234375v2.8808594
					C721.7226562,487.7285156,720.015625,487.109375,718.2460938,487.109375z"/>
				<polygon points="737.4453125,533.3056641 727.2050781,533.3056641 727.2050781,531.0654297 730.9814453,531.0654297 
					730.9814453,512.1855469 727.2050781,512.1855469 727.2050781,509.9453125 737.4453125,509.9453125 737.4453125,512.1855469 
					733.6689453,512.1855469 733.6689453,531.0654297 737.4453125,531.0654297 "/>
			</g>
			<g>
				<path d="M17.2861328,508.8056641c-1.7070312,0-3.3603516-0.1601562-4.9599609-0.4804688v-23.0400391
					c1.5996094-0.3193359,3.2529297-0.4794922,4.9599609-0.4794922c4.3730469,0,6.5595703,1.9199219,6.5595703,5.7597656
					c0,1.3017578-0.3261719,2.4003906-0.9765625,3.2958984c-0.6503906,0.8964844-1.5517578,1.4931641-2.703125,1.7919922v0.0644531
					c1.2363281,0.234375,2.265625,0.9169922,3.0869141,2.0478516s1.2324219,2.4638672,1.2324219,4
					C24.4853516,506.4589844,22.0849609,508.8056641,17.2861328,508.8056641l0.5439453-2.2402344
					c2.6875,0,4.03125-1.7060547,4.03125-5.1201172c0-2.9863281-1.7177734-4.4794922-5.1513672-4.4794922h-2.7597656v-2.2402344
					h2.4394531c1.7070312,0,2.9492188-0.3144531,3.7285156-0.9443359c0.7783203-0.6289062,1.1679688-1.5947266,1.1679688-2.8955078
					c0-1.2158203-0.3847656-2.1601562-1.1523438-2.8320312c-0.7685547-0.671875-1.8564453-1.0087891-3.2636719-1.0087891
					c-0.7685547,0-1.4082031,0.0859375-1.9199219,0.2568359v19.0078125
					c0.7890625,0.1708984,1.7490234,0.2558594,2.8798828,0.2558594L17.2861328,508.8056641z"/>
				<path d="M32.6455078,511.9296875c-1.0029297,0-1.8300781,0.3261719-2.4804688,0.9765625
					s-0.9755859,1.4775391-0.9755859,2.4794922c0,1.0664062,0.2285156,1.9462891,0.6875,2.6396484
					s1.2216797,1.2861328,2.2880859,1.7763672c2.3671875,1.0458984,3.9990234,2.1396484,4.8955078,3.2802734
					c0.8964844,1.1416016,1.3447266,2.6298828,1.3447266,4.4638672c0,2.0058594-0.5498047,3.5205078-1.6484375,4.5439453
					c-1.0986328,1.0244141-2.6826172,1.5361328-4.7519531,1.5361328c-1.9414062,0-3.7011719-0.5869141-5.2792969-1.7607422
					v-3.0400391c1.7060547,1.6640625,3.5195312,2.4960938,5.4394531,2.4960938c2.4101562,0,3.6162109-1.2578125,3.6162109-3.7753906
					c0-1.1728516-0.2773438-2.1435547-0.8320312-2.9121094c-0.5546875-0.7675781-1.4833984-1.4501953-2.7841797-2.0478516
					c-2.0058594-0.8964844-3.4404297-1.9150391-4.3037109-3.0566406c-0.8642578-1.140625-1.2958984-2.5224609-1.2958984-4.1435547
					c0-1.7070312,0.5439453-3.09375,1.6318359-4.1601562s2.5166016-1.5996094,4.2880859-1.5996094
					c1.1308594,0,2.0585938,0.0859375,2.7841797,0.2558594c0.7246094,0.1708984,1.5566406,0.5117188,2.4960938,1.0234375v2.8808594
					C36.1220703,512.5488281,34.4150391,511.9296875,32.6455078,511.9296875z"/>
			</g>
			<g>
				<polygon points="114.40625,335.125 114.40625,344.6611328 121.3173828,344.6611328 121.3173828,335.125 124.0058594,335.125 
					124.0058594,358.4853516 121.3173828,358.4853516 121.3173828,346.9658203 114.40625,346.9658203 114.40625,358.4853516 
					111.8457031,358.4853516 111.8457031,335.125 "/>
				<polygon points="131.0136719,383.3056641 131.0136719,362.1855469 126.0849609,362.1855469 126.0849609,359.9453125 
					138.5654297,359.9453125 138.5654297,362.1855469 133.6367188,362.1855469 133.6367188,383.3056641 "/>
			</g>
			<g>
				<polygon points="215.75,335.125 215.75,356.1816406 223.3662109,356.1816406 223.3662109,358.4853516 213.1259766,358.4853516 
					213.1259766,335.125 "/>
				<polygon points="229.8291016,371.7861328 229.8291016,383.3056641 227.2050781,383.3056641 227.2050781,359.9453125 
					237.765625,359.9453125 237.765625,362.25 229.8291016,362.25 229.8291016,369.5458984 237.4453125,369.5458984 
					237.4453125,371.7861328 "/>
			</g>
			<g>
				<polygon points="318.0214844,356.2451172 322.3417969,335.125 324.9658203,335.125 319.5253906,358.4853516 
					316.3261719,358.4853516 310.8857422,335.125 313.6376953,335.125 317.9580078,356.2451172 "/>
				<polygon points="331.0136719,383.3056641 331.0136719,362.1855469 326.0849609,362.1855469 326.0849609,359.9453125 
					338.5654297,359.9453125 338.5654297,362.1855469 333.6367188,362.1855469 333.6367188,383.3056641 "/>
			</g>
			<g>
				<polygon points="415.4296875,346.9658203 415.4296875,358.4853516 412.8056641,358.4853516 412.8056641,335.125 
					423.3662109,335.125 423.3662109,337.4296875 415.4296875,337.4296875 415.4296875,344.7255859 423.0458984,344.7255859 
					423.0458984,346.9658203 "/>
				<polygon points="429.8291016,371.7861328 429.8291016,383.3056641 427.2050781,383.3056641 427.2050781,359.9453125 
					437.765625,359.9453125 437.765625,362.25 429.8291016,362.25 429.8291016,369.5458984 437.4453125,369.5458984 
					437.4453125,371.7861328 "/>
			</g>
			<g>
				<path d="M511.6855469,346.8056641c0-4.203125,0.6445312-7.2539062,1.9355469-9.1523438s3.2060547-2.8476562,5.7451172-2.8476562
					c1.4072266,0,2.7402344,0.3203125,4,0.9599609v2.3994141c-1.28125-0.703125-2.5615234-1.0556641-3.8408203-1.0556641
					c-3.5195312,0-5.2792969,3.2324219-5.2792969,9.6962891c0,3.4990234,0.4472656,5.9892578,1.34375,7.4716797
					c0.8955078,1.4824219,2.2070312,2.2236328,3.9355469,2.2236328c1.3222656,0,2.65625-0.4052734,4-1.2158203v2.5605469
					c-1.2587891,0.6396484-2.6455078,0.9599609-4.1591797,0.9599609c-2.6035156,0-4.5341797-0.9169922-5.7929688-2.7519531
					C512.3144531,354.2197266,511.6855469,351.1367188,511.6855469,346.8056641z"/>
				<path d="M529.1894531,383.3056641h-2.6240234v-23.2001953c1.6640625-0.3193359,3.3701172-0.4794922,5.1201172-0.4794922
					c2.3886719,0,4.1591797,0.5283203,5.3115234,1.5839844c1.1523438,1.0566406,1.7285156,2.6611328,1.7285156,4.8154297
					c0,3.0507812-1.1630859,5.1103516-3.4882812,6.1767578v0.0634766c0.6611328,0.3203125,1.3652344,1.7177734,2.1123047,4.1923828
					l2.015625,6.8476562h-2.7519531l-1.8876953-6.9121094c-0.3632812-1.3652344-0.8007812-2.2607422-1.3125-2.6875
					s-1.3867188-0.640625-2.6240234-0.640625h-3.0996094v-2.2402344h3.4199219c1.8554688,0,3.1621094-0.3564453,3.9199219-1.0712891
					c0.7568359-0.7148438,1.1357422-1.9570312,1.1357422-3.7285156c0-2.7734375-1.5791016-4.1601562-4.7363281-4.1601562
					c-0.875,0-1.6210938,0.0859375-2.2392578,0.2568359V383.3056641z"/>
			</g>
			<g>
				<path d="M618.2460938,337.109375c-1.0029297,0-1.8300781,0.3261719-2.4804688,0.9765625
					s-0.9755859,1.4775391-0.9755859,2.4794922c0,1.0664062,0.2285156,1.9462891,0.6875,2.6396484
					s1.2216797,1.2861328,2.2880859,1.7763672c2.3671875,1.0458984,3.9990234,2.1396484,4.8955078,3.2802734
					c0.8964844,1.1416016,1.3447266,2.6298828,1.3447266,4.4638672c0,2.0058594-0.5498047,3.5205078-1.6484375,4.5439453
					c-1.0986328,1.0244141-2.6826172,1.5361328-4.7519531,1.5361328c-1.9414062,0-3.7011719-0.5869141-5.2792969-1.7607422
					v-3.0400391c1.7060547,1.6640625,3.5195312,2.4960938,5.4394531,2.4960938c2.4101562,0,3.6162109-1.2578125,3.6162109-3.7753906
					c0-1.1728516-0.2773438-2.1435547-0.8320312-2.9121094c-0.5546875-0.7675781-1.4833984-1.4501953-2.7841797-2.0478516
					c-2.0058594-0.8964844-3.4404297-1.9150391-4.3037109-3.0566406c-0.8642578-1.140625-1.2958984-2.5224609-1.2958984-4.1435547
					c0-1.7070312,0.5439453-3.09375,1.6318359-4.1601562s2.5166016-1.5996094,4.2880859-1.5996094
					c1.1308594,0,2.0585938,0.0859375,2.7841797,0.2558594c0.7246094,0.1708984,1.5566406,0.5117188,2.4960938,1.0234375v2.8808594
					C621.7226562,337.7285156,620.015625,337.109375,618.2460938,337.109375z"/>
				<path d="M632.3251953,381.3212891c0.9384766,0,1.6953125-0.2714844,2.2714844-0.8154297
					s1.0341797-1.5410156,1.3759766-2.9921875c0.3417969-1.4501953,0.5126953-3.4130859,0.5126953-5.8876953
					s-0.1708984-4.4365234-0.5126953-5.8876953s-0.7998047-2.4482422-1.3759766-2.9921875s-1.3330078-0.8164062-2.2714844-0.8164062
					c-0.9394531,0-1.6962891,0.2724609-2.2724609,0.8164062s-1.0341797,1.5410156-1.3759766,2.9921875
					s-0.5117188,3.4130859-0.5117188,5.8876953s0.1699219,4.4375,0.5117188,5.8876953
					c0.3417969,1.4511719,0.7998047,2.4482422,1.3759766,2.9921875S631.3857422,381.3212891,632.3251953,381.3212891v2.3046875
					c-2.2832031,0-3.9736328-0.9013672-5.0722656-2.7041016s-1.6474609-4.9013672-1.6474609-9.2958984
					s0.5488281-7.4931641,1.6474609-9.2958984s2.7890625-2.7041016,5.0722656-2.7041016
					c2.2822266,0,3.9726562,0.9013672,5.0712891,2.7041016s1.6484375,4.9013672,1.6484375,9.2958984
					s-0.5498047,7.4931641-1.6484375,9.2958984s-2.7890625,2.7041016-5.0712891,2.7041016V381.3212891z"/>
			</g>
			<g>
				<path d="M718.2460938,337.109375c-1.0029297,0-1.8300781,0.3261719-2.4804688,0.9765625
					s-0.9755859,1.4775391-0.9755859,2.4794922c0,1.0664062,0.2285156,1.9462891,0.6875,2.6396484
					s1.2216797,1.2861328,2.2880859,1.7763672c2.3671875,1.0458984,3.9990234,2.1396484,4.8955078,3.2802734
					c0.8964844,1.1416016,1.3447266,2.6298828,1.3447266,4.4638672c0,2.0058594-0.5498047,3.5205078-1.6484375,4.5439453
					c-1.0986328,1.0244141-2.6826172,1.5361328-4.7519531,1.5361328c-1.9414062,0-3.7011719-0.5869141-5.2792969-1.7607422
					v-3.0400391c1.7060547,1.6640625,3.5195312,2.4960938,5.4394531,2.4960938c2.4101562,0,3.6162109-1.2578125,3.6162109-3.7753906
					c0-1.1728516-0.2773438-2.1435547-0.8320312-2.9121094c-0.5546875-0.7675781-1.4833984-1.4501953-2.7841797-2.0478516
					c-2.0058594-0.8964844-3.4404297-1.9150391-4.3037109-3.0566406c-0.8642578-1.140625-1.2958984-2.5224609-1.2958984-4.1435547
					c0-1.7070312,0.5439453-3.09375,1.6318359-4.1601562s2.5166016-1.5996094,4.2880859-1.5996094
					c1.1308594,0,2.0585938,0.0859375,2.7841797,0.2558594c0.7246094,0.1708984,1.5566406,0.5117188,2.4960938,1.0234375v2.8808594
					C721.7226562,337.7285156,720.015625,337.109375,718.2460938,337.109375z"/>
				<polygon points="737.4453125,383.3056641 727.2050781,383.3056641 727.2050781,381.0654297 730.9814453,381.0654297 
					730.9814453,362.1855469 727.2050781,362.1855469 727.2050781,359.9453125 737.4453125,359.9453125 737.4453125,362.1855469 
					733.6689453,362.1855469 733.6689453,381.0654297 737.4453125,381.0654297 "/>
			</g>
			<g>
				<path d="M17.2861328,358.8056641c-1.7070312,0-3.3603516-0.1601562-4.9599609-0.4804688v-23.0400391
					c1.5996094-0.3193359,3.2529297-0.4794922,4.9599609-0.4794922c4.3730469,0,6.5595703,1.9199219,6.5595703,5.7597656
					c0,1.3017578-0.3261719,2.4003906-0.9765625,3.2958984c-0.6503906,0.8964844-1.5517578,1.4931641-2.703125,1.7919922v0.0644531
					c1.2363281,0.234375,2.265625,0.9169922,3.0869141,2.0478516s1.2324219,2.4638672,1.2324219,4
					C24.4853516,356.4589844,22.0849609,358.8056641,17.2861328,358.8056641l0.5439453-2.2402344
					c2.6875,0,4.03125-1.7060547,4.03125-5.1201172c0-2.9863281-1.7177734-4.4794922-5.1513672-4.4794922h-2.7597656v-2.2402344
					h2.4394531c1.7070312,0,2.9492188-0.3144531,3.7285156-0.9443359c0.7783203-0.6289062,1.1679688-1.5947266,1.1679688-2.8955078
					c0-1.2158203-0.3847656-2.1601562-1.1523438-2.8320312c-0.7685547-0.671875-1.8564453-1.0087891-3.2636719-1.0087891
					c-0.7685547,0-1.4082031,0.0859375-1.9199219,0.2568359v19.0078125
					c0.7890625,0.1708984,1.7490234,0.2558594,2.8798828,0.2558594L17.2861328,358.8056641z"/>
				<path d="M32.6455078,361.9296875c-1.0029297,0-1.8300781,0.3261719-2.4804688,0.9765625
					s-0.9755859,1.4775391-0.9755859,2.4794922c0,1.0664062,0.2285156,1.9462891,0.6875,2.6396484
					s1.2216797,1.2861328,2.2880859,1.7763672c2.3671875,1.0458984,3.9990234,2.1396484,4.8955078,3.2802734
					c0.8964844,1.1416016,1.3447266,2.6298828,1.3447266,4.4638672c0,2.0058594-0.5498047,3.5205078-1.6484375,4.5439453
					c-1.0986328,1.0244141-2.6826172,1.5361328-4.7519531,1.5361328c-1.9414062,0-3.7011719-0.5869141-5.2792969-1.7607422
					v-3.0400391c1.7060547,1.6640625,3.5195312,2.4960938,5.4394531,2.4960938c2.4101562,0,3.6162109-1.2578125,3.6162109-3.7753906
					c0-1.1728516-0.2773438-2.1435547-0.8320312-2.9121094c-0.5546875-0.7675781-1.4833984-1.4501953-2.7841797-2.0478516
					c-2.0058594-0.8964844-3.4404297-1.9150391-4.3037109-3.0566406c-0.8642578-1.140625-1.2958984-2.5224609-1.2958984-4.1435547
					c0-1.7070312,0.5439453-3.09375,1.6318359-4.1601562s2.5166016-1.5996094,4.2880859-1.5996094
					c1.1308594,0,2.0585938,0.0859375,2.7841797,0.2558594c0.7246094,0.1708984,1.5566406,0.5117188,2.4960938,1.0234375v2.8808594
					C36.1220703,362.5488281,34.4150391,361.9296875,32.6455078,361.9296875z"/>
			</g>
			<g>
				<polygon points="114.40625,185.125 114.40625,194.6611328 121.3173828,194.6611328 121.3173828,185.125 124.0058594,185.125 
					124.0058594,208.4853516 121.3173828,208.4853516 121.3173828,196.9658203 114.40625,196.9658203 114.40625,208.4853516 
					111.8457031,208.4853516 111.8457031,185.125 "/>
				<polygon points="131.0136719,233.3056641 131.0136719,212.1855469 126.0849609,212.1855469 126.0849609,209.9453125 
					138.5654297,209.9453125 138.5654297,212.1855469 133.6367188,212.1855469 133.6367188,233.3056641 "/>
			</g>
			<g>
				<polygon points="215.75,185.125 215.75,206.1816406 223.3662109,206.1816406 223.3662109,208.4853516 213.1259766,208.4853516 
					213.1259766,185.125 "/>
				<polygon points="229.8291016,221.7861328 229.8291016,233.3056641 227.2050781,233.3056641 227.2050781,209.9453125 
					237.765625,209.9453125 237.765625,212.25 229.8291016,212.25 229.8291016,219.5458984 237.4453125,219.5458984 
					237.4453125,221.7861328 "/>
			</g>
			<g>
				<polygon points="318.0214844,206.2451172 322.3417969,185.125 324.9658203,185.125 319.5253906,208.4853516 
					316.3261719,208.4853516 310.8857422,185.125 313.6376953,185.125 317.9580078,206.2451172 "/>
				<polygon points="331.0136719,233.3056641 331.0136719,212.1855469 326.0849609,212.1855469 326.0849609,209.9453125 
					338.5654297,209.9453125 338.5654297,212.1855469 333.6367188,212.1855469 333.6367188,233.3056641 "/>
			</g>
			<g>
				<polygon points="415.4296875,196.9658203 415.4296875,208.4853516 412.8056641,208.4853516 412.8056641,185.125 
					423.3662109,185.125 423.3662109,187.4296875 415.4296875,187.4296875 415.4296875,194.7255859 423.0458984,194.7255859 
					423.0458984,196.9658203 "/>
				<polygon points="429.8291016,221.7861328 429.8291016,233.3056641 427.2050781,233.3056641 427.2050781,209.9453125 
					437.765625,209.9453125 437.765625,212.25 429.8291016,212.25 429.8291016,219.5458984 437.4453125,219.5458984 
					437.4453125,221.7861328 "/>
			</g>
			<g>
				<path d="M511.6855469,196.8056641c0-4.203125,0.6445312-7.2539062,1.9355469-9.1523438s3.2060547-2.8476562,5.7451172-2.8476562
					c1.4072266,0,2.7402344,0.3203125,4,0.9599609v2.3994141c-1.28125-0.703125-2.5615234-1.0556641-3.8408203-1.0556641
					c-3.5195312,0-5.2792969,3.2324219-5.2792969,9.6962891c0,3.4990234,0.4472656,5.9892578,1.34375,7.4716797
					c0.8955078,1.4824219,2.2070312,2.2236328,3.9355469,2.2236328c1.3222656,0,2.65625-0.4052734,4-1.2158203v2.5605469
					c-1.2587891,0.6396484-2.6455078,0.9599609-4.1591797,0.9599609c-2.6035156,0-4.5341797-0.9169922-5.7929688-2.7519531
					C512.3144531,204.2197266,511.6855469,201.1367188,511.6855469,196.8056641z"/>
				<path d="M529.1894531,233.3056641h-2.6240234v-23.2001953c1.6640625-0.3193359,3.3701172-0.4794922,5.1201172-0.4794922
					c2.3886719,0,4.1591797,0.5283203,5.3115234,1.5839844c1.1523438,1.0566406,1.7285156,2.6611328,1.7285156,4.8154297
					c0,3.0507812-1.1630859,5.1103516-3.4882812,6.1767578v0.0634766c0.6611328,0.3203125,1.3652344,1.7177734,2.1123047,4.1923828
					l2.015625,6.8476562h-2.7519531l-1.8876953-6.9121094c-0.3632812-1.3652344-0.8007812-2.2607422-1.3125-2.6875
					s-1.3867188-0.640625-2.6240234-0.640625h-3.0996094v-2.2402344h3.4199219c1.8554688,0,3.1621094-0.3564453,3.9199219-1.0712891
					c0.7568359-0.7148438,1.1357422-1.9570312,1.1357422-3.7285156c0-2.7734375-1.5791016-4.1601562-4.7363281-4.1601562
					c-0.875,0-1.6210938,0.0859375-2.2392578,0.2568359V233.3056641z"/>
			</g>
			<g>
				<path d="M618.2460938,187.109375c-1.0029297,0-1.8300781,0.3261719-2.4804688,0.9765625
					s-0.9755859,1.4775391-0.9755859,2.4794922c0,1.0664062,0.2285156,1.9462891,0.6875,2.6396484
					s1.2216797,1.2861328,2.2880859,1.7763672c2.3671875,1.0458984,3.9990234,2.1396484,4.8955078,3.2802734
					c0.8964844,1.1416016,1.3447266,2.6298828,1.3447266,4.4638672c0,2.0058594-0.5498047,3.5205078-1.6484375,4.5439453
					c-1.0986328,1.0244141-2.6826172,1.5361328-4.7519531,1.5361328c-1.9414062,0-3.7011719-0.5869141-5.2792969-1.7607422
					v-3.0400391c1.7060547,1.6640625,3.5195312,2.4960938,5.4394531,2.4960938c2.4101562,0,3.6162109-1.2578125,3.6162109-3.7753906
					c0-1.1728516-0.2773438-2.1435547-0.8320312-2.9121094c-0.5546875-0.7675781-1.4833984-1.4501953-2.7841797-2.0478516
					c-2.0058594-0.8964844-3.4404297-1.9150391-4.3037109-3.0566406c-0.8642578-1.140625-1.2958984-2.5224609-1.2958984-4.1435547
					c0-1.7070312,0.5439453-3.09375,1.6318359-4.1601562s2.5166016-1.5996094,4.2880859-1.5996094
					c1.1308594,0,2.0585938,0.0859375,2.7841797,0.2558594c0.7246094,0.1708984,1.5566406,0.5117188,2.4960938,1.0234375v2.8808594
					C621.7226562,187.7285156,620.015625,187.109375,618.2460938,187.109375z"/>
				<path d="M632.3251953,231.3212891c0.9384766,0,1.6953125-0.2714844,2.2714844-0.8154297
					s1.0341797-1.5410156,1.3759766-2.9921875c0.3417969-1.4501953,0.5126953-3.4130859,0.5126953-5.8876953
					s-0.1708984-4.4365234-0.5126953-5.8876953s-0.7998047-2.4482422-1.3759766-2.9921875s-1.3330078-0.8164062-2.2714844-0.8164062
					c-0.9394531,0-1.6962891,0.2724609-2.2724609,0.8164062s-1.0341797,1.5410156-1.3759766,2.9921875
					s-0.5117188,3.4130859-0.5117188,5.8876953s0.1699219,4.4375,0.5117188,5.8876953
					c0.3417969,1.4511719,0.7998047,2.4482422,1.3759766,2.9921875S631.3857422,231.3212891,632.3251953,231.3212891v2.3046875
					c-2.2832031,0-3.9736328-0.9013672-5.0722656-2.7041016s-1.6474609-4.9013672-1.6474609-9.2958984
					s0.5488281-7.4931641,1.6474609-9.2958984s2.7890625-2.7041016,5.0722656-2.7041016
					c2.2822266,0,3.9726562,0.9013672,5.0712891,2.7041016s1.6484375,4.9013672,1.6484375,9.2958984
					s-0.5498047,7.4931641-1.6484375,9.2958984s-2.7890625,2.7041016-5.0712891,2.7041016V231.3212891z"/>
			</g>
			<g>
				<path d="M718.2460938,187.109375c-1.0029297,0-1.8300781,0.3261719-2.4804688,0.9765625
					s-0.9755859,1.4775391-0.9755859,2.4794922c0,1.0664062,0.2285156,1.9462891,0.6875,2.6396484
					s1.2216797,1.2861328,2.2880859,1.7763672c2.3671875,1.0458984,3.9990234,2.1396484,4.8955078,3.2802734
					c0.8964844,1.1416016,1.3447266,2.6298828,1.3447266,4.4638672c0,2.0058594-0.5498047,3.5205078-1.6484375,4.5439453
					c-1.0986328,1.0244141-2.6826172,1.5361328-4.7519531,1.5361328c-1.9414062,0-3.7011719-0.5869141-5.2792969-1.7607422
					v-3.0400391c1.7060547,1.6640625,3.5195312,2.4960938,5.4394531,2.4960938c2.4101562,0,3.6162109-1.2578125,3.6162109-3.7753906
					c0-1.1728516-0.2773438-2.1435547-0.8320312-2.9121094c-0.5546875-0.7675781-1.4833984-1.4501953-2.7841797-2.0478516
					c-2.0058594-0.8964844-3.4404297-1.9150391-4.3037109-3.0566406c-0.8642578-1.140625-1.2958984-2.5224609-1.2958984-4.1435547
					c0-1.7070312,0.5439453-3.09375,1.6318359-4.1601562s2.5166016-1.5996094,4.2880859-1.5996094
					c1.1308594,0,2.0585938,0.0859375,2.7841797,0.2558594c0.7246094,0.1708984,1.5566406,0.5117188,2.4960938,1.0234375v2.8808594
					C721.7226562,187.7285156,720.015625,187.109375,718.2460938,187.109375z"/>
				<polygon points="737.4453125,233.3056641 727.2050781,233.3056641 727.2050781,231.0654297 730.9814453,231.0654297 
					730.9814453,212.1855469 727.2050781,212.1855469 727.2050781,209.9453125 737.4453125,209.9453125 737.4453125,212.1855469 
					733.6689453,212.1855469 733.6689453,231.0654297 737.4453125,231.0654297 "/>
			</g>
			<g>
				<path d="M17.2861328,208.8056641c-1.7070312,0-3.3603516-0.1601562-4.9599609-0.4804688v-23.0400391
					c1.5996094-0.3193359,3.2529297-0.4794922,4.9599609-0.4794922c4.3730469,0,6.5595703,1.9199219,6.5595703,5.7597656
					c0,1.3017578-0.3261719,2.4003906-0.9765625,3.2958984c-0.6503906,0.8964844-1.5517578,1.4931641-2.703125,1.7919922v0.0644531
					c1.2363281,0.234375,2.265625,0.9169922,3.0869141,2.0478516s1.2324219,2.4638672,1.2324219,4
					C24.4853516,206.4589844,22.0849609,208.8056641,17.2861328,208.8056641l0.5439453-2.2402344
					c2.6875,0,4.03125-1.7060547,4.03125-5.1201172c0-2.9863281-1.7177734-4.4794922-5.1513672-4.4794922h-2.7597656v-2.2402344
					h2.4394531c1.7070312,0,2.9492188-0.3144531,3.7285156-0.9443359c0.7783203-0.6289062,1.1679688-1.5947266,1.1679688-2.8955078
					c0-1.2158203-0.3847656-2.1601562-1.1523438-2.8320312c-0.7685547-0.671875-1.8564453-1.0087891-3.2636719-1.0087891
					c-0.7685547,0-1.4082031,0.0859375-1.9199219,0.2568359v19.0078125
					c0.7890625,0.1708984,1.7490234,0.2558594,2.8798828,0.2558594L17.2861328,208.8056641z"/>
				<path d="M32.6455078,211.9296875c-1.0029297,0-1.8300781,0.3261719-2.4804688,0.9765625
					s-0.9755859,1.4775391-0.9755859,2.4794922c0,1.0664062,0.2285156,1.9462891,0.6875,2.6396484
					s1.2216797,1.2861328,2.2880859,1.7763672c2.3671875,1.0458984,3.9990234,2.1396484,4.8955078,3.2802734
					c0.8964844,1.1416016,1.3447266,2.6298828,1.3447266,4.4638672c0,2.0058594-0.5498047,3.5205078-1.6484375,4.5439453
					c-1.0986328,1.0244141-2.6826172,1.5361328-4.7519531,1.5361328c-1.9414062,0-3.7011719-0.5869141-5.2792969-1.7607422
					v-3.0400391c1.7060547,1.6640625,3.5195312,2.4960938,5.4394531,2.4960938c2.4101562,0,3.6162109-1.2578125,3.6162109-3.7753906
					c0-1.1728516-0.2773438-2.1435547-0.8320312-2.9121094c-0.5546875-0.7675781-1.4833984-1.4501953-2.7841797-2.0478516
					c-2.0058594-0.8964844-3.4404297-1.9150391-4.3037109-3.0566406c-0.8642578-1.140625-1.2958984-2.5224609-1.2958984-4.1435547
					c0-1.7070312,0.5439453-3.09375,1.6318359-4.1601562s2.5166016-1.5996094,4.2880859-1.5996094
					c1.1308594,0,2.0585938,0.0859375,2.7841797,0.2558594c0.7246094,0.1708984,1.5566406,0.5117188,2.4960938,1.0234375v2.8808594
					C36.1220703,212.5488281,34.4150391,211.9296875,32.6455078,211.9296875z"/>
			</g>
			<g>
				<polygon points="114.40625,35.125 114.40625,44.6611328 121.3173828,44.6611328 121.3173828,35.125 124.0058594,35.125 
					124.0058594,58.4853516 121.3173828,58.4853516 121.3173828,46.9658203 114.40625,46.9658203 114.40625,58.4853516 
					111.8457031,58.4853516 111.8457031,35.125 "/>
				<polygon points="131.0136719,83.3056641 131.0136719,62.1855469 126.0849609,62.1855469 126.0849609,59.9453125 
					138.5654297,59.9453125 138.5654297,62.1855469 133.6367188,62.1855469 133.6367188,83.3056641 "/>
			</g>
			<g>
				<polygon points="215.75,35.125 215.75,56.1816406 223.3662109,56.1816406 223.3662109,58.4853516 213.1259766,58.4853516 
					213.1259766,35.125 "/>
				<polygon points="229.8291016,71.7861328 229.8291016,83.3056641 227.2050781,83.3056641 227.2050781,59.9453125 
					237.765625,59.9453125 237.765625,62.25 229.8291016,62.25 229.8291016,69.5458984 237.4453125,69.5458984 
					237.4453125,71.7861328 "/>
			</g>
			<g>
				<polygon points="318.0214844,56.2451172 322.3417969,35.125 324.9658203,35.125 319.5253906,58.4853516 316.3261719,58.4853516 
					310.8857422,35.125 313.6376953,35.125 317.9580078,56.2451172 "/>
				<polygon points="331.0136719,83.3056641 331.0136719,62.1855469 326.0849609,62.1855469 326.0849609,59.9453125 
					338.5654297,59.9453125 338.5654297,62.1855469 333.6367188,62.1855469 333.6367188,83.3056641 "/>
			</g>
			<g>
				<polygon points="415.4296875,46.9658203 415.4296875,58.4853516 412.8056641,58.4853516 412.8056641,35.125 423.3662109,35.125 
					423.3662109,37.4296875 415.4296875,37.4296875 415.4296875,44.7255859 423.0458984,44.7255859 423.0458984,46.9658203 "/>
				<polygon points="429.8291016,71.7861328 429.8291016,83.3056641 427.2050781,83.3056641 427.2050781,59.9453125 
					437.765625,59.9453125 437.765625,62.25 429.8291016,62.25 429.8291016,69.5458984 437.4453125,69.5458984 
					437.4453125,71.7861328 "/>
			</g>
			<g>
				<path d="M511.6855469,46.8056641c0-4.203125,0.6445312-7.2539062,1.9355469-9.1523438s3.2060547-2.8476562,5.7451172-2.8476562
					c1.4072266,0,2.7402344,0.3203125,4,0.9599609v2.3994141c-1.28125-0.703125-2.5615234-1.0556641-3.8408203-1.0556641
					c-3.5195312,0-5.2792969,3.2324219-5.2792969,9.6962891c0,3.4990234,0.4472656,5.9892578,1.34375,7.4716797
					c0.8955078,1.4824219,2.2070312,2.2236328,3.9355469,2.2236328c1.3222656,0,2.65625-0.4052734,4-1.2158203v2.5605469
					c-1.2587891,0.6396484-2.6455078,0.9599609-4.1591797,0.9599609c-2.6035156,0-4.5341797-0.9169922-5.7929688-2.7519531
					C512.3144531,54.2197266,511.6855469,51.1367188,511.6855469,46.8056641z"/>
				<path d="M529.1894531,83.3056641h-2.6240234V60.1054688c1.6640625-0.3193359,3.3701172-0.4794922,5.1201172-0.4794922
					c2.3886719,0,4.1591797,0.5283203,5.3115234,1.5839844c1.1523438,1.0566406,1.7285156,2.6611328,1.7285156,4.8154297
					c0,3.0507812-1.1630859,5.1103516-3.4882812,6.1767578v0.0634766c0.6611328,0.3203125,1.3652344,1.7177734,2.1123047,4.1923828
					l2.015625,6.8476562h-2.7519531l-1.8876953-6.9121094c-0.3632812-1.3652344-0.8007812-2.2607422-1.3125-2.6875
					s-1.3867188-0.640625-2.6240234-0.640625h-3.0996094v-2.2402344h3.4199219c1.8554688,0,3.1621094-0.3564453,3.9199219-1.0712891
					c0.7568359-0.7148438,1.1357422-1.9570312,1.1357422-3.7285156c0-2.7734375-1.5791016-4.1601562-4.7363281-4.1601562
					c-0.875,0-1.6210938,0.0859375-2.2392578,0.2568359V83.3056641z"/>
			</g>
			<g>
				<path d="M618.2460938,37.109375c-1.0029297,0-1.8300781,0.3261719-2.4804688,0.9765625
					s-0.9755859,1.4775391-0.9755859,2.4794922c0,1.0664062,0.2285156,1.9462891,0.6875,2.6396484
					s1.2216797,1.2861328,2.2880859,1.7763672c2.3671875,1.0458984,3.9990234,2.1396484,4.8955078,3.2802734
					c0.8964844,1.1416016,1.3447266,2.6298828,1.3447266,4.4638672c0,2.0058594-0.5498047,3.5205078-1.6484375,4.5439453
					c-1.0986328,1.0244141-2.6826172,1.5361328-4.7519531,1.5361328c-1.9414062,0-3.7011719-0.5869141-5.2792969-1.7607422
					v-3.0400391c1.7060547,1.6640625,3.5195312,2.4960938,5.4394531,2.4960938c2.4101562,0,3.6162109-1.2578125,3.6162109-3.7753906
					c0-1.1728516-0.2773438-2.1435547-0.8320312-2.9121094c-0.5546875-0.7675781-1.4833984-1.4501953-2.7841797-2.0478516
					c-2.0058594-0.8964844-3.4404297-1.9150391-4.3037109-3.0566406c-0.8642578-1.140625-1.2958984-2.5224609-1.2958984-4.1435547
					c0-1.7070312,0.5439453-3.09375,1.6318359-4.1601562s2.5166016-1.5996094,4.2880859-1.5996094
					c1.1308594,0,2.0585938,0.0859375,2.7841797,0.2558594c0.7246094,0.1708984,1.5566406,0.5117188,2.4960938,1.0234375v2.8808594
					C621.7226562,37.7285156,620.015625,37.109375,618.2460938,37.109375z"/>
				<path d="M632.3251953,81.3212891c0.9384766,0,1.6953125-0.2714844,2.2714844-0.8154297s1.0341797-1.5410156,1.3759766-2.9921875
					c0.3417969-1.4501953,0.5126953-3.4130859,0.5126953-5.8876953s-0.1708984-4.4365234-0.5126953-5.8876953
					s-0.7998047-2.4482422-1.3759766-2.9921875s-1.3330078-0.8164062-2.2714844-0.8164062
					c-0.9394531,0-1.6962891,0.2724609-2.2724609,0.8164062s-1.0341797,1.5410156-1.3759766,2.9921875
					s-0.5117188,3.4130859-0.5117188,5.8876953s0.1699219,4.4375,0.5117188,5.8876953
					c0.3417969,1.4511719,0.7998047,2.4482422,1.3759766,2.9921875S631.3857422,81.3212891,632.3251953,81.3212891v2.3046875
					c-2.2832031,0-3.9736328-0.9013672-5.0722656-2.7041016s-1.6474609-4.9013672-1.6474609-9.2958984
					s0.5488281-7.4931641,1.6474609-9.2958984s2.7890625-2.7041016,5.0722656-2.7041016
					c2.2822266,0,3.9726562,0.9013672,5.0712891,2.7041016s1.6484375,4.9013672,1.6484375,9.2958984
					s-0.5498047,7.4931641-1.6484375,9.2958984s-2.7890625,2.7041016-5.0712891,2.7041016V81.3212891z"/>
			</g>
			<g>
				<path d="M718.2460938,37.109375c-1.0029297,0-1.8300781,0.3261719-2.4804688,0.9765625
					s-0.9755859,1.4775391-0.9755859,2.4794922c0,1.0664062,0.2285156,1.9462891,0.6875,2.6396484
					s1.2216797,1.2861328,2.2880859,1.7763672c2.3671875,1.0458984,3.9990234,2.1396484,4.8955078,3.2802734
					c0.8964844,1.1416016,1.3447266,2.6298828,1.3447266,4.4638672c0,2.0058594-0.5498047,3.5205078-1.6484375,4.5439453
					c-1.0986328,1.0244141-2.6826172,1.5361328-4.7519531,1.5361328c-1.9414062,0-3.7011719-0.5869141-5.2792969-1.7607422
					v-3.0400391c1.7060547,1.6640625,3.5195312,2.4960938,5.4394531,2.4960938c2.4101562,0,3.6162109-1.2578125,3.6162109-3.7753906
					c0-1.1728516-0.2773438-2.1435547-0.8320312-2.9121094c-0.5546875-0.7675781-1.4833984-1.4501953-2.7841797-2.0478516
					c-2.0058594-0.8964844-3.4404297-1.9150391-4.3037109-3.0566406c-0.8642578-1.140625-1.2958984-2.5224609-1.2958984-4.1435547
					c0-1.7070312,0.5439453-3.09375,1.6318359-4.1601562s2.5166016-1.5996094,4.2880859-1.5996094
					c1.1308594,0,2.0585938,0.0859375,2.7841797,0.2558594c0.7246094,0.1708984,1.5566406,0.5117188,2.4960938,1.0234375v2.8808594
					C721.7226562,37.7285156,720.015625,37.109375,718.2460938,37.109375z"/>
				<polygon points="737.4453125,83.3056641 727.2050781,83.3056641 727.2050781,81.0654297 730.9814453,81.0654297 
					730.9814453,62.1855469 727.2050781,62.1855469 727.2050781,59.9453125 737.4453125,59.9453125 737.4453125,62.1855469 
					733.6689453,62.1855469 733.6689453,81.0654297 737.4453125,81.0654297 "/>
			</g>
			<g>
				<path d="M17.2861328,58.8056641c-1.7070312,0-3.3603516-0.1601562-4.9599609-0.4804688V35.2851562
					c1.5996094-0.3193359,3.2529297-0.4794922,4.9599609-0.4794922c4.3730469,0,6.5595703,1.9199219,6.5595703,5.7597656
					c0,1.3017578-0.3261719,2.4003906-0.9765625,3.2958984c-0.6503906,0.8964844-1.5517578,1.4931641-2.703125,1.7919922v0.0644531
					c1.2363281,0.234375,2.265625,0.9169922,3.0869141,2.0478516s1.2324219,2.4638672,1.2324219,4
					C24.4853516,56.4589844,22.0849609,58.8056641,17.2861328,58.8056641l0.5439453-2.2402344
					c2.6875,0,4.03125-1.7060547,4.03125-5.1201172c0-2.9863281-1.7177734-4.4794922-5.1513672-4.4794922h-2.7597656v-2.2402344
					h2.4394531c1.7070312,0,2.9492188-0.3144531,3.7285156-0.9443359c0.7783203-0.6289062,1.1679688-1.5947266,1.1679688-2.8955078
					c0-1.2158203-0.3847656-2.1601562-1.1523438-2.8320312c-0.7685547-0.671875-1.8564453-1.0087891-3.2636719-1.0087891
					c-0.7685547,0-1.4082031,0.0859375-1.9199219,0.2568359v19.0078125
					c0.7890625,0.1708984,1.7490234,0.2558594,2.8798828,0.2558594L17.2861328,58.8056641z"/>
				<path d="M32.6455078,61.9296875c-1.0029297,0-1.8300781,0.3261719-2.4804688,0.9765625
					s-0.9755859,1.4775391-0.9755859,2.4794922c0,1.0664062,0.2285156,1.9462891,0.6875,2.6396484
					s1.2216797,1.2861328,2.2880859,1.7763672c2.3671875,1.0458984,3.9990234,2.1396484,4.8955078,3.2802734
					c0.8964844,1.1416016,1.3447266,2.6298828,1.3447266,4.4638672c0,2.0058594-0.5498047,3.5205078-1.6484375,4.5439453
					c-1.0986328,1.0244141-2.6826172,1.5361328-4.7519531,1.5361328c-1.9414062,0-3.7011719-0.5869141-5.2792969-1.7607422
					v-3.0400391c1.7060547,1.6640625,3.5195312,2.4960938,5.4394531,2.4960938c2.4101562,0,3.6162109-1.2578125,3.6162109-3.7753906
					c0-1.1728516-0.2773438-2.1435547-0.8320312-2.9121094c-0.5546875-0.7675781-1.4833984-1.4501953-2.7841797-2.0478516
					c-2.0058594-0.8964844-3.4404297-1.9150391-4.3037109-3.0566406c-0.8642578-1.140625-1.2958984-2.5224609-1.2958984-4.1435547
					c0-1.7070312,0.5439453-3.09375,1.6318359-4.1601562s2.5166016-1.5996094,4.2880859-1.5996094
					c1.1308594,0,2.0585938,0.0859375,2.7841797,0.2558594c0.7246094,0.1708984,1.5566406,0.5117188,2.4960938,1.0234375v2.8808594
					C36.1220703,62.5488281,34.4150391,61.9296875,32.6455078,61.9296875z"/>
			</g>
		</g>
	</svg>
