<?xml version="1.0" encoding="utf-8"?>
<!-- Generator: Adobe Illustrator 15.0.2, SVG Export Plug-In . SVG Version: 6.00 Build 0)  -->
<!DOCTYPE svg PUBLIC "-//W3C//DTD SVG 1.1//EN" "http://www.w3.org/Graphics/SVG/1.1/DTD/svg11.dtd">
<svg version="1.1" id="レイヤー1" xmlns="http://www.w3.org/2000/svg" xmlns:xlink="http://www.w3.org/1999/xlink" x="0px"
	 y="0px" width="841.8896484px" height="595.2753906px" viewBox="0 0 841.8896484 595.2753906"
	 enable-background="new 0 0 841.8896484 595.2753906" xml:space="preserve">
<g>
	<rect x="71.5" y="-204.5" fill="none" stroke="#000000" stroke-width="0.25" width="100" height="100"/>
	<rect x="171.5" y="-204.5" fill="none" stroke="#000000" stroke-width="0.25" width="100" height="100"/>
	<rect x="271.5" y="-204.5" fill="none" stroke="#000000" stroke-width="0.25" width="100" height="100"/>
	<rect x="371.5" y="-204.5" fill="none" stroke="#000000" stroke-width="0.25" width="100" height="100"/>
	<rect x="471.5" y="-204.5" fill="none" stroke="#000000" stroke-width="0.25" width="100" height="100"/>
	<rect x="571.5" y="-204.5" fill="none" stroke="#000000" stroke-width="0.25" width="100" height="100"/>
	<rect x="671.5" y="-204.5" fill="none" stroke="#000000" stroke-width="0.25" width="100" height="100"/>
	<rect x="71.5" y="-54.5" fill="none" stroke="#000000" stroke-width="0.25" width="100" height="100"/>
	<rect x="171.5" y="-54.5" fill="none" stroke="#000000" stroke-width="0.25" width="100" height="100"/>
	<rect x="271.5" y="-54.5" fill="none" stroke="#000000" stroke-width="0.25" width="100" height="100"/>
	<rect x="371.5" y="-54.5" fill="none" stroke="#000000" stroke-width="0.25" width="100" height="100"/>
	<rect x="471.5" y="-54.5" fill="none" stroke="#000000" stroke-width="0.25" width="100" height="100"/>
	<rect x="571.5" y="-54.5" fill="none" stroke="#000000" stroke-width="0.25" width="100" height="100"/>
	<rect x="671.5" y="-54.5" fill="none" stroke="#000000" stroke-width="0.25" width="100" height="100"/>
	<rect x="71.5" y="95.5" fill="none" stroke="#000000" stroke-width="0.25" width="100" height="100"/>
	<rect x="171.5" y="95.5" fill="none" stroke="#000000" stroke-width="0.25" width="100" height="100"/>
	<rect x="271.5" y="95.5" fill="none" stroke="#000000" stroke-width="0.25" width="100" height="100"/>
	<rect x="371.5" y="95.5" fill="none" stroke="#000000" stroke-width="0.25" width="100" height="100"/>
	<rect x="471.5" y="95.5" fill="none" stroke="#000000" stroke-width="0.25" width="100" height="100"/>
	<rect x="571.5" y="95.5" fill="none" stroke="#000000" stroke-width="0.25" width="100" height="100"/>
	<rect x="671.5" y="95.5" fill="none" stroke="#000000" stroke-width="0.25" width="100" height="100"/>
	<rect x="71.5" y="245.5" fill="none" stroke="#000000" stroke-width="0.25" width="100" height="100"/>
	<rect x="171.5" y="245.5" fill="none" stroke="#000000" stroke-width="0.25" width="100" height="100"/>
	<rect x="271.5" y="245.5" fill="none" stroke="#000000" stroke-width="0.25" width="100" height="100"/>
	<rect x="371.5" y="245.5" fill="none" stroke="#000000" stroke-width="0.25" width="100" height="100"/>
	<rect x="471.5" y="245.5" fill="none" stroke="#000000" stroke-width="0.25" width="100" height="100"/>
	<rect x="571.5" y="245.5" fill="none" stroke="#000000" stroke-width="0.25" width="100" height="100"/>
	<rect x="671.5" y="245.5" fill="none" stroke="#000000" stroke-width="0.25" width="100" height="100"/>
	<rect x="71.5" y="395.5" fill="none" stroke="#000000" stroke-width="0.25" width="100" height="100"/>
	<rect x="171.5" y="395.5" fill="none" stroke="#000000" stroke-width="0.25" width="100" height="100"/>
	<rect x="271.5" y="395.5" fill="none" stroke="#000000" stroke-width="0.25" width="100" height="100"/>
	<rect x="371.5" y="395.5" fill="none" stroke="#000000" stroke-width="0.25" width="100" height="100"/>
	<rect x="471.5" y="395.5" fill="none" stroke="#000000" stroke-width="0.25" width="100" height="100"/>
	<rect x="571.5" y="395.5" fill="none" stroke="#000000" stroke-width="0.25" width="100" height="100"/>
	<rect x="671.5" y="395.5" fill="none" stroke="#000000" stroke-width="0.25" width="100" height="100"/>
	<rect x="71.5" y="545.5" fill="none" stroke="#000000" stroke-width="0.25" width="100" height="100"/>
	<rect x="171.5" y="545.5" fill="none" stroke="#000000" stroke-width="0.25" width="100" height="100"/>
	<rect x="271.5" y="545.5" fill="none" stroke="#000000" stroke-width="0.25" width="100" height="100"/>
	<rect x="371.5" y="545.5" fill="none" stroke="#000000" stroke-width="0.25" width="100" height="100"/>
	<rect x="471.5" y="545.5" fill="none" stroke="#000000" stroke-width="0.25" width="100" height="100"/>
	<rect x="571.5" y="545.5" fill="none" stroke="#000000" stroke-width="0.25" width="100" height="100"/>
	<rect x="671.5" y="545.5" fill="none" stroke="#000000" stroke-width="0.25" width="100" height="100"/>
	<rect x="71.5" y="695.5" fill="none" stroke="#000000" stroke-width="0.25" width="100" height="100"/>
	<rect x="171.5" y="695.5" fill="none" stroke="#000000" stroke-width="0.25" width="100" height="100"/>
	<rect x="271.5" y="695.5" fill="none" stroke="#000000" stroke-width="0.25" width="100" height="100"/>
	<rect x="371.5" y="695.5" fill="none" stroke="#000000" stroke-width="0.25" width="100" height="100"/>
	<rect x="471.5" y="695.5" fill="none" stroke="#000000" stroke-width="0.25" width="100" height="100"/>
	<rect x="571.5" y="695.5" fill="none" stroke="#000000" stroke-width="0.25" width="100" height="100"/>
	<rect x="671.5" y="695.5" fill="none" stroke="#000000" stroke-width="0.25" width="100" height="100"/>
	<rect x="771.5" y="-204.5" fill="none" stroke="#000000" stroke-width="0.25" width="100" height="100"/>
	<rect x="771.5" y="-54.5" fill="none" stroke="#000000" stroke-width="0.25" width="100" height="100"/>
	<rect x="771.5" y="95.5" fill="none" stroke="#000000" stroke-width="0.25" width="100" height="100"/>
	<rect x="771.5" y="245.5" fill="none" stroke="#000000" stroke-width="0.25" width="100" height="100"/>
	<rect x="771.5" y="395.5" fill="none" stroke="#000000" stroke-width="0.25" width="100" height="100"/>
	<rect x="771.5" y="545.5" fill="none" stroke="#000000" stroke-width="0.25" width="100" height="100"/>
	<rect x="771.5" y="695.5" fill="none" stroke="#000000" stroke-width="0.25" width="100" height="100"/>
</g>
<g>
	<rect x="120.5" y="-167" width="2" height="25.0009766"/>
	<rect x="119.3330078" y="-17" width="4.3334961" height="25"/>
	<rect x="118.1665039" y="133.0009766" width="6.6665039" height="24.9990234"/>
	<rect x="117" y="283.0009766" width="9" height="24.9990234"/>
	<rect x="115.8330078" y="433" fill="#0C0807" width="11.3330078" height="25"/>
	<rect x="114.6669922" y="583" fill="#17100E" width="13.6660156" height="25"/>
	<rect x="113.5" y="733" width="16" height="25"/>
</g>
<g>
	<rect x="220.5" y="-168" width="2" height="27.0009766"/>
	<rect x="219.3330078" y="-18.6669922" width="4.3334961" height="28.3339844"/>
	<rect x="218.1669922" y="130.6669922" width="6.6665039" height="29.6669922"/>
	<rect x="217" y="280.0009766" width="9" height="30.9990234"/>
	<rect x="215.8330078" y="429.3339844" fill="#0C0807" width="11.3334961" height="32.3320312"/>
	<rect x="214.6669922" y="578.6669922" fill="#17100E" width="13.6660156" height="33.6669922"/>
	<rect x="213.5" y="728" width="16" height="35"/>
</g>
<g>
	<rect x="320.5" y="-173" width="2" height="37.0009766"/>
	<rect x="319.6665039" y="-23.6665039" width="3.6665039" height="38.3334961"/>
	<rect x="318.8330078" y="125.6669922" width="5.3339844" height="39.6669922"/>
	<rect x="318" y="275.0009766" width="7" height="40.9990234"/>
	<rect x="317.1660156" y="424.3339844" fill="#0C0807" width="8.6669922" height="42.3320312"/>
	<rect x="316.3330078" y="573.6669922" fill="#17100E" width="10.3339844" height="43.6660156"/>
	<rect x="315.5" y="723" width="12" height="45"/>
</g>
<g>
	<rect x="420.5" y="-178.25" width="2" height="47.5009766"/>
	<rect x="419.6665039" y="-28.25" width="3.6665039" height="47.5"/>
	<rect x="418.8334961" y="121.7509766" width="5.3334961" height="47.4990234"/>
	<rect x="418" y="271.7509766" width="7" height="47.4990234"/>
	<rect x="417.1665039" y="421.75" fill="#0C0807" width="8.6665039" height="47.5"/>
	<rect x="416.3330078" y="571.75" fill="#17100E" width="10.3330078" height="47.5"/>
	<rect x="415.5" y="721.75" width="12" height="47.5"/>
</g>
<g>
	<rect x="520.5" y="-197" width="2" height="85.0009766"/>
	<rect x="519.6660156" y="-47" width="3.6669922" height="85"/>
	<rect x="518.8330078" y="103.0009766" width="5.3330078" height="84.9990234"/>
	<rect x="518" y="253.0009766" width="7" height="84.9990234"/>
	<rect x="517.1660156" y="403" fill="#0C0807" width="8.6669922" height="85"/>
	<rect x="516.3339844" y="553" fill="#17100E" width="10.3330078" height="85"/>
	<rect x="515.5" y="703" width="12" height="85"/>
</g>
<g>
	<rect x="620.5" y="-199.5" width="2" height="90.0009766"/>
	<rect x="619.3330078" y="-49.5" width="4.3330078" height="90.0004883"/>
	<rect x="618.1669922" y="100.5009766" width="6.6660156" height="89.9990234"/>
	<rect x="617" y="250.5009766" width="9" height="89.9990234"/>
	<rect x="615.8330078" y="400.5" fill="#0C0807" width="11.3330078" height="90"/>
	<rect x="614.6660156" y="550.5" fill="#17100E" width="13.6679688" height="90"/>
	<rect x="613.5" y="700.5" width="16" height="90"/>
</g>
<g>
	<g>
		<rect x="689.5" y="730.5" width="64" height="12.5009766"/>
		<rect x="689.5" y="748.0009766" width="64" height="12.4990234"/>
	</g>
	<g>
		<rect x="690.1660156" y="581.6660156" width="62.6669922" height="10.9169922"/>
		<rect x="690.1660156" y="598.4169922" width="62.6669922" height="10.9160156"/>
	</g>
	<g>
		<rect x="690.8330078" y="432.8339844" width="61.3330078" height="9.3320312"/>
		<rect x="690.8330078" y="448.8330078" width="61.3330078" height="9.3339844"/>
	</g>
	<g>
		<rect x="691.5" y="284.0009766" width="60" height="7.7480469"/>
		<rect x="691.5" y="299.2490234" width="60" height="7.7509766"/>
	</g>
	<g>
		<rect x="692.1660156" y="135.1669922" width="58.6669922" height="5.8320312"/>
		<rect x="692.1660156" y="149.9990234" width="58.6669922" height="5.8339844"/>
	</g>
	<g>
		<rect x="692.8330078" y="-13.6660156" width="57.3339844" height="3.9155273"/>
		<rect x="692.8330078" y="0.7495117" width="57.3339844" height="3.9174805"/>
	</g>
	<g>
		<rect x="693.5" y="-162.5" width="56" height="2"/>
		<rect x="693.5" y="-148.5" width="56" height="2"/>
	</g>
</g>
<g>
	<g>
		<rect x="801.5" y="700.5" width="16.5" height="90"/>
		<rect x="825" y="700.5" width="16.5" height="90"/>
	</g>
	<g>
		<rect x="803" y="550.5" width="14.25" height="90"/>
		<rect x="825.75" y="550.5" width="14.25" height="90"/>
	</g>
	<g>
		<rect x="804.5" y="400.5009766" width="12" height="89.9990234"/>
		<rect x="826.5" y="400.5009766" width="12" height="89.9990234"/>
	</g>
	<g>
		<rect x="806" y="250.5009766" width="9.75" height="89.9990234"/>
		<rect x="827.25" y="250.5009766" width="9.75" height="89.9990234"/>
	</g>
	<g>
		<rect x="807.5" y="100.5004883" width="7.1660156" height="89.9995117"/>
		<rect x="828.3330078" y="100.5004883" width="7.1669922" height="89.9995117"/>
	</g>
	<g>
		<rect x="809" y="-49.5" width="4.5839844" height="90.0009766"/>
		<rect x="829.4169922" y="-49.5" width="4.5830078" height="90.0009766"/>
	</g>
	<g>
		<rect x="810.5" y="-199.5" width="2" height="90.0009766"/>
		<rect x="830.5" y="-199.5" width="2" height="90.0009766"/>
	</g>
</g>
</svg>
