<?xml version="1.0" encoding="utf-8"?>
<!-- Generator: Adobe Illustrator 15.0.2, SVG Export Plug-In . SVG Version: 6.00 Build 0)  -->
<!DOCTYPE svg PUBLIC "-//W3C//DTD SVG 1.1//EN" "http://www.w3.org/Graphics/SVG/1.1/DTD/svg11.dtd">
<svg version="1.1" id="レイヤー1" xmlns="http://www.w3.org/2000/svg" xmlns:xlink="http://www.w3.org/1999/xlink" x="0px"
	 y="0px" width="841.8896484px" height="595.2753906px" viewBox="0 0 841.8896484 595.2753906"
	 enable-background="new 0 0 841.8896484 595.2753906" xml:space="preserve">
<g>
	<rect x="71.5" y="-204.5" fill="none" stroke="#000000" stroke-width="0.25" width="100" height="100"/>
	<rect x="171.5" y="-204.5" fill="none" stroke="#000000" stroke-width="0.25" width="100" height="100"/>
	<rect x="271.5" y="-204.5" fill="none" stroke="#000000" stroke-width="0.25" width="100" height="100"/>
	<rect x="371.5" y="-204.5" fill="none" stroke="#000000" stroke-width="0.25" width="100" height="100"/>
	<rect x="471.5" y="-204.5" fill="none" stroke="#000000" stroke-width="0.25" width="100" height="100"/>
	<rect x="571.5" y="-204.5" fill="none" stroke="#000000" stroke-width="0.25" width="100" height="100"/>
	<rect x="671.5" y="-204.5" fill="none" stroke="#000000" stroke-width="0.25" width="100" height="100"/>
	<rect x="71.5" y="-54.5" fill="none" stroke="#000000" stroke-width="0.25" width="100" height="100"/>
	<rect x="171.5" y="-54.5" fill="none" stroke="#000000" stroke-width="0.25" width="100" height="100"/>
	<rect x="271.5" y="-54.5" fill="none" stroke="#000000" stroke-width="0.25" width="100" height="100"/>
	<rect x="371.5" y="-54.5" fill="none" stroke="#000000" stroke-width="0.25" width="100" height="100"/>
	<rect x="471.5" y="-54.5" fill="none" stroke="#000000" stroke-width="0.25" width="100" height="100"/>
	<rect x="571.5" y="-54.5" fill="none" stroke="#000000" stroke-width="0.25" width="100" height="100"/>
	<rect x="671.5" y="-54.5" fill="none" stroke="#000000" stroke-width="0.25" width="100" height="100"/>
	<rect x="71.5" y="95.5" fill="none" stroke="#000000" stroke-width="0.25" width="100" height="100"/>
	<rect x="171.5" y="95.5" fill="none" stroke="#000000" stroke-width="0.25" width="100" height="100"/>
	<rect x="271.5" y="95.5" fill="none" stroke="#000000" stroke-width="0.25" width="100" height="100"/>
	<rect x="371.5" y="95.5" fill="none" stroke="#000000" stroke-width="0.25" width="100" height="100"/>
	<rect x="471.5" y="95.5" fill="none" stroke="#000000" stroke-width="0.25" width="100" height="100"/>
	<rect x="571.5" y="95.5" fill="none" stroke="#000000" stroke-width="0.25" width="100" height="100"/>
	<rect x="671.5" y="95.5" fill="none" stroke="#000000" stroke-width="0.25" width="100" height="100"/>
	<rect x="71.5" y="245.5" fill="none" stroke="#000000" stroke-width="0.25" width="100" height="100"/>
	<rect x="171.5" y="245.5" fill="none" stroke="#000000" stroke-width="0.25" width="100" height="100"/>
	<rect x="271.5" y="245.5" fill="none" stroke="#000000" stroke-width="0.25" width="100" height="100"/>
	<rect x="371.5" y="245.5" fill="none" stroke="#000000" stroke-width="0.25" width="100" height="100"/>
	<rect x="471.5" y="245.5" fill="none" stroke="#000000" stroke-width="0.25" width="100" height="100"/>
	<rect x="571.5" y="245.5" fill="none" stroke="#000000" stroke-width="0.25" width="100" height="100"/>
	<rect x="671.5" y="245.5" fill="none" stroke="#000000" stroke-width="0.25" width="100" height="100"/>
	<rect x="71.5" y="395.5" fill="none" stroke="#000000" stroke-width="0.25" width="100" height="100"/>
	<rect x="171.5" y="395.5" fill="none" stroke="#000000" stroke-width="0.25" width="100" height="100"/>
	<rect x="271.5" y="395.5" fill="none" stroke="#000000" stroke-width="0.25" width="100" height="100"/>
	<rect x="371.5" y="395.5" fill="none" stroke="#000000" stroke-width="0.25" width="100" height="100"/>
	<rect x="471.5" y="395.5" fill="none" stroke="#000000" stroke-width="0.25" width="100" height="100"/>
	<rect x="571.5" y="395.5" fill="none" stroke="#000000" stroke-width="0.25" width="100" height="100"/>
	<rect x="671.5" y="395.5" fill="none" stroke="#000000" stroke-width="0.25" width="100" height="100"/>
	<rect x="71.5" y="545.5" fill="none" stroke="#000000" stroke-width="0.25" width="100" height="100"/>
	<rect x="171.5" y="545.5" fill="none" stroke="#000000" stroke-width="0.25" width="100" height="100"/>
	<rect x="271.5" y="545.5" fill="none" stroke="#000000" stroke-width="0.25" width="100" height="100"/>
	<rect x="371.5" y="545.5" fill="none" stroke="#000000" stroke-width="0.25" width="100" height="100"/>
	<rect x="471.5" y="545.5" fill="none" stroke="#000000" stroke-width="0.25" width="100" height="100"/>
	<rect x="571.5" y="545.5" fill="none" stroke="#000000" stroke-width="0.25" width="100" height="100"/>
	<rect x="671.5" y="545.5" fill="none" stroke="#000000" stroke-width="0.25" width="100" height="100"/>
	<rect x="71.5" y="695.5" fill="none" stroke="#000000" stroke-width="0.25" width="100" height="100"/>
	<rect x="171.5" y="695.5" fill="none" stroke="#000000" stroke-width="0.25" width="100" height="100"/>
	<rect x="271.5" y="695.5" fill="none" stroke="#000000" stroke-width="0.25" width="100" height="100"/>
	<rect x="371.5" y="695.5" fill="none" stroke="#000000" stroke-width="0.25" width="100" height="100"/>
	<rect x="471.5" y="695.5" fill="none" stroke="#000000" stroke-width="0.25" width="100" height="100"/>
	<rect x="571.5" y="695.5" fill="none" stroke="#000000" stroke-width="0.25" width="100" height="100"/>
	<rect x="671.5" y="695.5" fill="none" stroke="#000000" stroke-width="0.25" width="100" height="100"/>
	<rect x="771.5" y="-204.5" fill="none" stroke="#000000" stroke-width="0.25" width="100" height="100"/>
	<rect x="771.5" y="-54.5" fill="none" stroke="#000000" stroke-width="0.25" width="100" height="100"/>
	<rect x="771.5" y="95.5" fill="none" stroke="#000000" stroke-width="0.25" width="100" height="100"/>
	<rect x="771.5" y="245.5" fill="none" stroke="#000000" stroke-width="0.25" width="100" height="100"/>
	<rect x="771.5" y="395.5" fill="none" stroke="#000000" stroke-width="0.25" width="100" height="100"/>
	<rect x="771.5" y="545.5" fill="none" stroke="#000000" stroke-width="0.25" width="100" height="100"/>
	<rect x="771.5" y="695.5" fill="none" stroke="#000000" stroke-width="0.25" width="100" height="100"/>
</g>
<g>
	<polygon points="361.3710938,-195.4990234 353.3632812,-173.4990234 355.4921875,-173.4990234 363.5,-195.4990234 	"/>
	<polygon fill="#17100E" points="357.5800781,-45.4990234 349.9086914,-22.1660156 354.6611328,-22.1660156 
		363.6665039,-45.4990234 	"/>
	<polygon fill="#0C0807" points="353.7900391,104.5009766 346.4545898,129.1679688 353.8310547,129.1679688 
		363.8334961,104.5009766 	"/>
	<polygon points="350,254.5009766 343,280.5009766 353,280.5009766 364,254.5009766 	"/>
	<polygon fill="#0C0807" points="352.8330078,432.5 364.1665039,404.5 347.5,404.5 340.8330078,432.5 	"/>
	<polygon fill="#17100E" points="352.6665039,584.5 364.3330078,554.5 345,554.5 338.6669922,584.5 	"/>
	<polygon points="352.5,736.5 364.5,704.5 342.5,704.5 336.5,736.5 	"/>
</g>
<g>
	<polygon points="148.5,704.5 136.5,736.5 158.5,736.5 164.5,704.5 	"/>
	<polygon fill="#17100E" points="158,584.5 164.3330078,554.5 150.3330078,554.5 138.6660156,584.5 	"/>
	<polygon fill="#0C0807" points="157.5,432.5009766 164.1669922,404.5009766 152.1669922,404.5009766 140.8330078,432.5009766 	"/>
	<polygon points="157,280.5009766 164,254.5009766 154,254.5009766 143,280.5009766 	"/>
	<polygon fill="#0C0807" points="156.4970703,129.1674805 163.8330078,104.5009766 156.4570312,104.5009766 
		146.4541016,129.1674805 	"/>
	<polygon fill="#17100E" points="155.9941406,-22.1660156 163.6665039,-45.4990234 158.9140625,-45.4990234 
		149.9086914,-22.1660156 	"/>
	<polygon points="155.4912109,-173.4990234 163.5,-195.4990234 161.3710938,-195.4990234 153.3632812,-173.4990234 	"/>
</g>
<g>
	<polygon points="181.6279297,-173.4990234 189.6367188,-195.4990234 187.5078125,-195.4990234 179.5,-173.4990234 	"/>
	<polygon fill="#17100E" points="187.0048828,-45.4990234 179.3330078,-22.1660156 184.0849609,-22.1660156 
		193.0908203,-45.4990234 	"/>
	<polygon fill="#0C0807" points="186.5024414,104.5009766 179.1669922,129.1679688 186.5424805,129.1679688 
		196.5458984,104.5009766 	"/>
	<polygon points="186,254.5009766 179,280.5009766 189,280.5009766 200,254.5009766 	"/>
	<polygon fill="#0C0807" points="190.8330078,432.5 202.1665039,404.5 185.4995117,404.5 178.8330078,432.5 	"/>
	<polygon fill="#17100E" points="192.6669922,584.5 204.3334961,554.5 185,554.5 178.6665039,584.5 	"/>
	<polygon points="194.5,736.5 206.5,704.5 184.5,704.5 178.5,736.5 	"/>
</g>
<g>
	<polygon points="461.3720703,-107.4990234 453.3632812,-129.4990234 455.4921875,-129.4990234 463.5,-107.4990234 	"/>
	<polygon fill="#17100E" points="455.9941406,19.1669922 463.6660156,42.5 458.9140625,42.5 449.9082031,19.1669922 	"/>
	<polygon fill="#0C0807" points="456.4980469,167.8334961 463.8330078,192.5 456.4570312,192.5 446.4541016,167.8334961 	"/>
	<polygon points="457,316.5 464,342.5 454,342.5 443,316.5 	"/>
	<polygon fill="#0C0807" points="452.1660156,492.5 440.8330078,464.5 457.5,464.5 464.1660156,492.5 	"/>
	<polygon fill="#17100E" points="450.3330078,642.5 438.6660156,612.5 458,612.5 464.3339844,642.5 	"/>
	<polygon points="448.5,792.5 436.5,760.5 458.5,760.5 464.5,792.5 	"/>
</g>
<g>
	<g>
		<polygon points="525.5,704.5 513.5,736.5 533.5,736.5 539.5,704.5 		"/>
		<polygon points="550.5,704.5 538.5,736.5 558.5,736.5 564.5,704.5 		"/>
	</g>
	<g>
		<polygon fill="#17100E" points="534.6660156,584.5 541,554.5 528.6660156,554.5 517,584.5 		"/>
		<polygon fill="#17100E" points="558,584.5 564.3330078,554.5 552,554.5 540.3330078,584.5 		"/>
	</g>
	<g>
		<polygon fill="#0C0807" points="535.8330078,432.5009766 542.5,404.5009766 531.8339844,404.5009766 520.5,432.5009766 		"/>
		<polygon fill="#0C0807" points="557.5,432.5009766 564.1660156,404.5009766 553.5,404.5009766 542.1669922,432.5009766 		"/>
	</g>
	<g>
		<polygon points="537,280.5009766 544,254.5009766 535,254.5009766 524,280.5009766 		"/>
		<polygon points="557,280.5009766 564,254.5009766 555,254.5009766 544,280.5009766 		"/>
	</g>
	<g>
		<polygon fill="#0C0807" points="537.875,129.1674805 545.2119141,104.5009766 538.5019531,104.5009766 528.5,129.1674805 		"/>
		<polygon fill="#0C0807" points="556.4970703,129.1674805 563.8330078,104.5009766 557.1230469,104.5009766 
			547.1210938,129.1674805 		"/>
	</g>
	<g>
		<polygon fill="#17100E" points="538.7519531,-22.1660156 546.4248047,-45.4990234 542.0048828,-45.4990234 533,-22.1660156 		"/>
		<polygon fill="#17100E" points="555.9941406,-22.1660156 563.6669922,-45.4990234 559.2470703,-45.4990234 
			550.2421875,-22.1660156 		"/>
	</g>
	<g>
		<polygon points="539.6279297,-173.4990234 547.6367188,-195.4990234 545.5078125,-195.4990234 537.5,-173.4990234 		"/>
		<polygon points="555.4912109,-173.4990234 563.5,-195.4990234 561.3710938,-195.4990234 553.3632812,-173.4990234 		"/>
	</g>
</g>
<g>
	<g>
		<polygon points="592.5,736.5 604.5,704.5 584.5,704.5 578.5,736.5 		"/>
		<polygon points="617.5,736.5 629.5,704.5 609.5,704.5 603.5,736.5 		"/>
	</g>
	<g>
		<polygon fill="#17100E" points="585,554.5 578.6660156,584.5 591,584.5 602.6660156,554.5 		"/>
		<polygon fill="#17100E" points="608.3330078,554.5 602,584.5 614.3330078,584.5 626,554.5 		"/>
	</g>
	<g>
		<polygon fill="#0C0807" points="585.5,404.5009766 578.8330078,432.5009766 589.5,432.5009766 600.8330078,404.5009766 		"/>
		<polygon fill="#0C0807" points="607.1660156,404.5009766 600.5,432.5009766 611.1669922,432.5009766 622.5,404.5009766 		"/>
	</g>
	<g>
		<polygon points="586,254.5009766 579,280.5009766 588,280.5009766 599,254.5009766 		"/>
		<polygon points="606,254.5009766 599,280.5009766 608,280.5009766 619,254.5009766 		"/>
	</g>
	<g>
		<polygon fill="#0C0807" points="585.875,129.1674805 595.8789062,104.5009766 586.5019531,104.5009766 579.1660156,129.1674805 		
			"/>
		<polygon fill="#0C0807" points="604.4970703,129.1674805 614.5,104.5009766 605.1230469,104.5009766 597.7871094,129.1674805 		
			"/>
	</g>
	<g>
		<polygon fill="#17100E" points="583.7519531,-22.1660156 592.7578125,-45.4990234 587.0048828,-45.4990234 
			579.3330078,-22.1660156 		"/>
		<polygon fill="#17100E" points="600.9941406,-22.1660156 610,-45.4990234 604.2470703,-45.4990234 596.5761719,-22.1660156 		"/>
	</g>
	<g>
		<polygon points="581.6279297,-173.4990234 589.6367188,-195.4990234 587.5078125,-195.4990234 579.5,-173.4990234 		"/>
		<polygon points="597.4912109,-173.4990234 605.5,-195.4990234 603.3710938,-195.4990234 595.3632812,-173.4990234 		"/>
	</g>
</g>
<g>
	<g>
		<polygon points="825.5,792.5 813.5,760.5 833.5,760.5 839.5,792.5 		"/>
		<polygon points="850.5,792.5 838.5,760.5 858.5,760.5 864.5,792.5 		"/>
	</g>
	<g>
		<polygon fill="#17100E" points="834.6660156,612.5 841,642.5 828.6660156,642.5 817,612.5 		"/>
		<polygon fill="#17100E" points="858,612.5 864.3330078,642.5 852,642.5 840.3330078,612.5 		"/>
	</g>
	<g>
		<polygon fill="#0C0807" points="835.8330078,464.5 842.5,492.5 831.8339844,492.5 820.5,464.5 		"/>
		<polygon fill="#0C0807" points="857.5,464.5 864.1660156,492.5 853.5,492.5 842.1669922,464.5 		"/>
	</g>
	<g>
		<polygon points="837,316.5 844,342.5 835,342.5 824,316.5 		"/>
		<polygon points="857,316.5 864,342.5 855,342.5 844,316.5 		"/>
	</g>
	<g>
		<polygon fill="#0C0807" points="838.5029297,192.5 828.5,167.8330078 837.8759766,167.8330078 845.2119141,192.5 		"/>
		<polygon fill="#0C0807" points="857.1230469,192.5 847.1210938,167.8330078 856.4970703,167.8330078 863.8330078,192.5 		"/>
	</g>
	<g>
		<polygon fill="#17100E" points="842.0058594,42.5004883 833,19.1669922 838.7529297,19.1669922 846.4248047,42.5004883 		"/>
		<polygon fill="#17100E" points="859.2470703,42.5004883 850.2421875,19.1669922 855.9941406,19.1669922 863.6669922,42.5004883 		
			"/>
	</g>
	<g>
		<polygon points="845.5087891,-107.4990234 837.5,-129.4990234 839.6289062,-129.4990234 847.6367188,-107.4990234 		"/>
		<polygon points="861.3710938,-107.4990234 853.3632812,-129.4990234 855.4921875,-129.4990234 863.5,-107.4990234 		"/>
	</g>
</g>
<g>
	<g>
		<polygon points="727.5,736.5 739.5,704.5 719.5,704.5 713.5,736.5 		"/>
		<polygon points="752.5,736.5 764.5,704.5 744.5,704.5 738.5,736.5 		"/>
	</g>
	<g>
		<polygon fill="#17100E" points="723.3330078,554.5 717,584.5 729.3330078,584.5 741,554.5 		"/>
		<polygon fill="#17100E" points="746.6660156,554.5 740.3330078,584.5 752.6660156,584.5 764.3330078,554.5 		"/>
	</g>
	<g>
		<polygon fill="#0C0807" points="727.1669922,404.5009766 720.5,432.5009766 731.1669922,432.5009766 742.5,404.5009766 		"/>
		<polygon fill="#0C0807" points="748.8339844,404.5009766 742.1660156,432.5009766 752.8330078,432.5009766 
			764.1669922,404.5009766 		"/>
	</g>
	<g>
		<polygon points="731,254.5009766 724,280.5009766 733,280.5009766 744,254.5009766 		"/>
		<polygon points="751,254.5009766 744,280.5009766 753,280.5009766 764,254.5009766 		"/>
	</g>
	<g>
		<polygon fill="#0C0807" points="735.2089844,129.1674805 745.2119141,104.5009766 735.8359375,104.5009766 728.5,129.1674805 		
			"/>
		<polygon fill="#0C0807" points="753.8300781,129.1674805 763.8330078,104.5009766 754.4570312,104.5009766 
			747.1210938,129.1674805 		"/>
	</g>
	<g>
		<polygon fill="#17100E" points="737.4189453,-22.1660156 746.4248047,-45.4990234 740.671875,-45.4990234 733,-22.1660156 		"/>
		<polygon fill="#17100E" points="754.6611328,-22.1660156 763.6660156,-45.4990234 757.9140625,-45.4990234 
			750.2421875,-22.1660156 		"/>
	</g>
	<g>
		<polygon points="739.6279297,-173.4990234 747.6367188,-195.4990234 745.5078125,-195.4990234 737.5,-173.4990234 		"/>
		<polygon points="755.4912109,-173.4990234 763.5,-195.4990234 761.3710938,-195.4990234 753.3632812,-173.4990234 		"/>
	</g>
</g>
</svg>
