<?xml version="1.0" encoding="utf-8"?>
<!-- Generator: Adobe Illustrator 11 Build 225, SVG Export Plug-In . SVG Version: 6.0.0 Build 78)  -->
<!DOCTYPE svg PUBLIC "-//W3C//DTD SVG 1.0//EN"    "http://www.w3.org/TR/2001/REC-SVG-20010904/DTD/svg10.dtd" [
	<!ENTITY ns_flows "http://ns.adobe.com/Flows/1.0/">
	<!ENTITY ns_svg "http://www.w3.org/2000/svg">
	<!ENTITY ns_xlink "http://www.w3.org/1999/xlink">
]>
<svg  xmlns="&ns_svg;" xmlns:xlink="&ns_xlink;" xmlns:a="http://ns.adobe.com/AdobeSVGViewerExtensions/3.0/"
	 width="150.25" height="750.25" viewBox="0 0 150.25 750.25" overflow="visible" enable-background="new 0 0 150.25 750.25"
	 xml:space="preserve">
	<metadata>
		<x:xmpmeta  x:xmptk="XMP toolkit 3.0-29, framework 1.6" xmlns:x="adobe:ns:meta/">
			<rdf:RDF  xmlns:iX="http://ns.adobe.com/iX/1.0/" xmlns:rdf="http://www.w3.org/1999/02/22-rdf-syntax-ns#">
				<rdf:Description  rdf:about="" xmlns:pdf="http://ns.adobe.com/pdf/1.3/"></rdf:Description>
				<rdf:Description  rdf:about="" xmlns:tiff="http://ns.adobe.com/tiff/1.0/"></rdf:Description>
				<rdf:Description  rdf:about="" xmlns:xapGImg="http://ns.adobe.com/xap/1.0/g/img/" xmlns:xap="http://ns.adobe.com/xap/1.0/">
					<xap:CreateDate>2005-10-18T08:31:30Z</xap:CreateDate>
					<xap:ModifyDate>2005-10-18T08:31:30Z</xap:ModifyDate>
					<xap:CreatorTool>Illustrator</xap:CreatorTool>
					<xap:Thumbnails>
						<rdf:Alt>
							<rdf:li  rdf:parseType="Resource">
								<xapGImg:format>JPEG</xapGImg:format>
								<xapGImg:width>172</xapGImg:width>
								<xapGImg:height>256</xapGImg:height>
								<xapGImg:image>/9j/4AAQSkZJRgABAgEASABIAAD/7QAsUGhvdG9zaG9wIDMuMAA4QklNA+0AAAAAABAASAAAAAEA
AQBIAAAAAQAB/+4ADkFkb2JlAGTAAAAAAf/bAIQABgQEBAUEBgUFBgkGBQYJCwgGBggLDAoKCwoK
DBAMDAwMDAwQDA4PEA8ODBMTFBQTExwbGxscHx8fHx8fHx8fHwEHBwcNDA0YEBAYGhURFRofHx8f
Hx8fHx8fHx8fHx8fHx8fHx8fHx8fHx8fHx8fHx8fHx8fHx8fHx8fHx8fHx8f/8AAEQgBAACsAwER
AAIRAQMRAf/EAaIAAAAHAQEBAQEAAAAAAAAAAAQFAwIGAQAHCAkKCwEAAgIDAQEBAQEAAAAAAAAA
AQACAwQFBgcICQoLEAACAQMDAgQCBgcDBAIGAnMBAgMRBAAFIRIxQVEGE2EicYEUMpGhBxWxQiPB
UtHhMxZi8CRygvElQzRTkqKyY3PCNUQnk6OzNhdUZHTD0uIIJoMJChgZhJRFRqS0VtNVKBry4/PE
1OT0ZXWFlaW1xdXl9WZ2hpamtsbW5vY3R1dnd4eXp7fH1+f3OEhYaHiImKi4yNjo+Ck5SVlpeYmZ
qbnJ2en5KjpKWmp6ipqqusra6voRAAICAQIDBQUEBQYECAMDbQEAAhEDBCESMUEFURNhIgZxgZEy
obHwFMHR4SNCFVJicvEzJDRDghaSUyWiY7LCB3PSNeJEgxdUkwgJChgZJjZFGidkdFU38qOzwygp
0+PzhJSktMTU5PRldYWVpbXF1eX1RlZmdoaWprbG1ub2R1dnd4eXp7fH1+f3OEhYaHiImKi4yNjo
+DlJWWl5iZmpucnZ6fkqOkpaanqKmqq6ytrq+v/aAAwDAQACEQMRAD8A9U4q7FXYq7FXYq7FXYq7
FXYqhtT1Kx0vTbvU7+UQWNjDJc3c5BISKFC8jkKCfhVSdhiqJxV2KuxV2KuxV2KuxV2KuxV2KuxV
2KsW/Kx3f8uvLruxZmsYSWJqSePjirKcVdirzfyzp2tRXXlUz21yiwXmvtdGRJAESW4mMBkqNg6k
FK9R0xV6RirsVedfmP5ovob/AEXTItC1SZf0zaFbiBbb0rj0Fa6KRFp1ev7mvxKv2T2xVS0PzfqF
z+Y+tyny3q6RtZ6VYlGW0pAUlu5mkkpcmgZbpfs1NF6Yq9KxV4n5/i0vWNG/MyPX72WTW9L0+/fS
NGeeSGKGzSwLw3MNurIk3qPyLSsGofg2pTFXp2ieStJ0PUGu9KmvLeB42jk01rqaazLFgwlEMzSC
NxxpWMrWp5V2oqn2KvPrfyx5b81ec/Nb+ZbGDWJNLubax020vY1mit7V7C3ufUhjkDKryTzSgyqO
R4ha/DiqWadrmpxeU18r6HdSSalf6pqOkaBfuxleHT7S5dJrss1eS2UdYkLV5OIwftYq9J0jS7LS
dLtNLskKWdlCkECkliEjUKOTHdjtuTuTirEvzIt7CbUfLia/H63lGW5kg1SJ/wDeY3MyBbH62vRo
DJySjVT1GTl2xVBeWtN8s2v5jPD5KtIbLSbGxuIPMSaeixaebxpYTaxCOICE3MapMXKjkqkBvtCi
r0XFWN6Tb3qefPMU8kUi2ctnpi28rKwjZ0N16gRj8JK8l5U8RXFWSYq7FXYqxr8tLS6s/IGgWt3D
Jb3MNlEk0EqlJEYLurKwBB+eKslxV2KuxV2KuxV5r5x8weY285+V7WPyvdyrZajeXVs63NiouFis
Lm15JymBUcbrlR6H6dsVXeR9c8wXXnHzTLN5buoIp9St7ae4e4s3W3EGn254twmZm+KQmkYYb+NQ
FXpGKsG/OfRtE1T8sfNM1/ZW95NYaRqM1nLNGkjwTR2sjB42YEowKjcYqutbW68q+bdH0mz1C4vN
D1tbmJdOvZXupLSW2i9YSw3Epeb0So9NkdmAJTjx3BVZvirHvMnk3ynqkzarq0TwzwQlJ763urix
c26VcpNLbSQGSJak8XJXrtirzvStPubufRLrTuegWnmeU2Oki2VYpbLy9Y28lzFDCGBEU17IgkkI
HII1PtICFWY6XBf+XvPNroiald6hpGr6fdXkUN9K1zLbXFjLbxsUmespjlW7FQ7EKyjjTliqjqum
nzr5k1fQNTmkj8r6OsEN3pcLGJr+e4jE5NxIhEn1dI2VRGpAduXOqjjiqVfpf/lVWlS6NexmTy3F
DO3le/RSWWRVaRNMuAo+KVj8Nu/WX7J+MVdVn3lu31G38vaXb6nK0+pQ2kEd9MxqzzrEolYkdSzg
nFUxxV2KuxV2KoXStP8A0dpttY/WZ7z6tGI/rV2/qzycf2pHoOTHuaYqisVdirsVdirsVS+60S1u
dasNXkeQXOnR3EUEYI9Mi69PmWBBPIeiONCOpxV2k6JaaXJqEkDyO+pXb3twZCD+8dEjovELRQkS
gfrxVMMVYL57/K601zR/MK6Ncz6TrGtWVzBKYbiSKzuJpoDEpuoKSxEGoDusfqce9aYqnmh+S9L0
q/bVGnutS1d4zAdR1Cdp5ViJDNHEvwxRKzKCwjReRpXoMVT7FUs8yeX7PzBpMmk3skqWVw0Zuo4S
q+tEjh2gclW/dyheEgFCVJFcVWeYvLVlrlnBBLLNZ3FnMtzp9/aMqT206KyCSIusifYdkKurKykg
gg4qhdA8oDTdTm1i/wBTuta1maEWwvbwQp6VuG5mKGK3jhjRWajMeJZiBU7CirWteTo77VBrGn6l
eaJq/pLBNd2JhYTxRlmjjnhuI54ZAhduLcQ4qaMMVS+4/LHTtVP/ADtepXvmZFVhFa3xhitY2deP
Nbe0itkLqCeDycmU7qQcVZLo2nNpml2untd3F/8AVYxELu8ZXuJAuwMjosYZqbcqVPU1O+KozFXY
q7FXYq7FXYq7FXYq7FXYq7FXYq7FXYq7FXYq7FXYq7FXYq7FXYq7FXYq7FXYqkPkXzhY+cPK9p5h
sYZbe1u3nRIZ+PqA21xJbtXiWG7REjfpiqfYq7FWIaT+ZelanJpKRWs6HV9U1DR4OfD4ZdNS4eR2
ox+BhaNxpvuK4qy/FXYqkvmnzVZ+XYdNkuopJv0nqVppUCxcaiW9lEaseRHwr9pqb0xV0Pmqzm85
XflVIZDd2dhBqM1xQeiFuJZIkjrWvP8AclunTFU6xV5t+ZP5y6d5bttd03RrS81jzJpWnzXc6Wds
09tYt6LSQyX0paJEj25MA3Lj26YqmHkX807HzHJZ6Ze6bqWj63cWouUg1C0aCKdVVTJJbyqZYnSr
VHx1p2xVnOKsK1/8yLm08xXHl7y95evfMup6fDHcasLSS3gitUmBMSPLcSRqZXUcljXfjviqZaL5
+8uap5Qk81iV7TS7ZJ31AXS+nLatalluIp034vEyEECvtUUxVMPLOtNrmgWGsGzmsBfwrOlpc8RM
iPunMKWAJWhpXbFUr87+frHyr+jrb6ldarrOszNBpOkWKq087xrzkasjIiRxru7s2wxVAaB+ZU91
5kt/LXmLy/e+WtZvYZLjTY7l7e4guUgoZVintZJU5orBmVqbYqzbFUqs/MVrdeZdU0BInW50q2s7
qaU04Mt806oFoa1X6q1ajuMVTXFXYq7FXmv/ADjj/wCSd0X/AIz6l/3U7nFXpWKuxVhGi/ljBpcm
jOuoNL+h9X1LWVBjC+o2ppcoYj8R4iP659rvx6CuKs3xV2KvH/ze8r3955o8nxJ5k1WFNU8wQtHZ
xmyEFqLW0nm9W35WzSeoGjFPUZ13O3Siqh5O8n6lL+bnnB2826zI2jx6PbtKzWBe4VopLow3FLQL
wHqCgjCNRjU7iir2fFXhX5laB548paV+Y99pNhBrnlfzZZXdzfkTLb3unytYtBLKQ44TwhV5cVIc
dKeKrOPyt/Mjyx5g02z0O3eaz17T7G3N1pF/C9tciMRqvqorikkZ7MhI3HjirPcVeaTS+ZPJ3n7z
Nqi+Xr3XtG8zfVLq3m0sQvNBc2lqlq8E8cskJ4usSsrgkCtDirz71VhS70Xzg66Vo/6Ul82efIEb
6wkbX1wG0zRf3QYyySlUllVF+ILt9rFXtHlf8w/LPmS9uNPsJLiDU7WNZ5tOv7aeyufRc0WZYrlI
2aMnbktRX5jFWGfnlf2+mXnljW9KuBL560q6kfQNDRHml1CG4QR3lt6cQZ0Vo1B9UjihUVxVD/l5
qF75+19fzI1uWLT7Py8t5YaZ5ajLPcWUrEJdy6gzLGwnZI6CPjRVodzuVXqWia1put6RZ6xpc31j
Tr+JLi0n4unOOQVVuLhXFR2IriqDsfLiWnmvV/MInLvqtrY2jW/GgjFi1wwYNXfn9a6U2piqc4q7
FXYqwz8nbLRrH8vNNttG+uDTklvTD+ko1iuqtezNJzRdgPULcPFaHFWZ4q7FXYq7FXYq8e87fl89
5+anlDhq2uehdSave3Ekd7KEtStuqqsDdIAxuOAUdV26A4q3+WXkF083+b9Wm1TWh9V1xILcT3kt
LqO1s7ejXAP9+tWKgn9kU7Yq9gxV5J+b3n++sPK3nPQtW8t6lDbXGl30Ol63axG8splls2VTO8NW
tmDsQfUWlBy5UxVL/Kj3/nLzj5C1jT9CvLDSfKWnzi91rUbdrT6011ZC3jt7VXpJKgYmQuV47be6
r2vFUl85+Y/8OeWr7V0tZb64gQLaWMCs8k9xIQkMSqtT8UjAE9hv2xV5hrfkrUfLHlfyxrWoQNrO
oWPmGLzF50e2iMrySzRSxyXEcagu62byp6aqPsJWm2KprYa/pvnf82NB1fyys1xpPl/T79dU1gwS
QQyPfeiILRGlVGkZTE0jACi7b1JGKofVNVg8k/nFrPmXzPa3B0PW9Os7XSddigluYrI2xf6xay+i
sjxCZ2WSvHiaexoqw38xtU/xNf3Wp/k1DqF55j1K0msvMc1vaywadPZmB1DTyXIgQ3cdR6DIS37J
22xV7V+W91os/kbRU0ZZotPtLSG0iguo2huIvq6CIxzRtusi8fi8eoJG+KskxV2KuxV2KuxV2Kux
V2KuxV2KuxV2KuxVD6jp9lqOn3On30K3FleRPb3UD/ZkilUo6N7MpIxVUt7eG2t4reBBHBCixxRj
oqKKKB8gMVVMVdirsVdirsVdirsVdirsVdirsVdirsVdirsVdirsVdirsVdiqncXFvbW8tzcypBb
wI0k00jBEREHJmZmoAoAqScVdb3Fvc28VzbSpPbzoskM0bB0dHHJWVlqCpBqCMVVMVdirsVdirsV
dirsVdirsVdirsVeS/8AOM/mLXde8h6hea1fz6jdR6xdwJPcOZHESLHxQFv2RU0GKvWsVdirwGy8
3+aH0by9K2q3JkuPzIl0udzK1XsRJdAWzb7xfAvw9NsVe/Yq7FXhH57fnh5Z0i80zy5p3mCWx1ux
12w/xBHCl3GYtPoZLgtIkfGROLJVY2LGuw2xVBaT/wA5F+R7z86LmX/E0x8qTaVBY6ZAYbwQyajJ
chmYQ+jVW4njzdR86Yq+hMVfOH5leaPPfnTUvzM0HTdaTy/5b8laVM17YpBHLc6lztZXdWdzyjjP
plSU7EbEnZVln5I+XPzP03RPKV7N5og1byde6RbSy6TdWqxXNoJLRWgjtp46l1QlVPqH7I6VNcVe
x4q8bvrXzF5//NrzX5ebzNqfl7Q/KFvp6W9voswtZri41CA3Bmml4uzKlOPDp0/yuSqA8v8A5ueY
dJ/LDXP0lMNb82aTr135U0OQKofUryNlW2fiKA7SVbxCnvir1byNomraJ5V07TtZ1KbVtXjj5ahq
E7mRpJ3JeTiT0RWPFB/KBirz/wDPfzL5hs9Z8k+WtO1p/Lem+Zr2e31TXIVHqxCJYzFCkjCkbTNI
QG67eFcVSRG8xfl/+cflLyppnmvVfNOn+YI7k6tpeszre3FrHEnKO5WYKjIpPLt0Ujwoq94xVgGm
6vqkn5463pL3UraZBoNlcQ2ZY+ksz3MqtIF6BmVQCcVZ/irsVdirxj/nFGCeH8utSWaNo2Ot3pCu
CpoVi33xV7PirsVU/qtsAAIkor+oo4jZ/wCYf5XviqpirsVfOf5x/m15bn8/eTtONrqXHy5r0txq
I+pyfvGs1aMG32rN8VT8O1N8Vd+XP5teW7v88PON/wDVtTCeYJNG07SlNnIPTKQmKQ3Ip+6HqsCC
x+zvir6MxV5B+fH5ReTda8t+YvOBjmsPMenaTeTG/sZTC06wWzMIblaMsiMq8G25Fdq0xViX5V+b
vzB8mXv5d+XPMF7DrflXzppcLaHKIxFdWDx2scv1c8f7yNBKiVbcjeooVKr6MxVgfm38odM13zGf
MthrOqeW9cmtxZ3t5pE6wm4gX7Kyq6SAsv7LChH0CirwuN00Z7TW/JlqlxpOnasnlT8vpL9jLHd6
xqLML/WLhl4mT+7McbD4fADjTFXrGleYPzJ8qfmN5f8AK3m/V7XzHpvmqG6+pahFaJYSW11ZRes8
bIjOro6bKTuT4U3VSj83J7/8yPNz/k7pMVtbwW1vFqnmDW7qP1Xtk5KYls46r+9PMVavRiPHFWK+
WtQtvyS1PzLYecbcSa7f211eaB55l9SY6ksUfNbSV5GkMcqsi/ADRjT/ACSyr3D8rdY1/Wvy90HW
Nf4fpbUbRLq49NPTWkxLx0Xt+7ZcVZOIohIZQiiQjiXoORA7VxVdirsVdirHvI/l7zBoOkzWeua/
J5ju5LmSeO+mhEDJE4XjDxDy1CUO9e+KshxV2KuxV2KuxVifmDyIdZ8/eVPNjX3op5WW/Edh6XL1
21CAQFjLzHDgFrTia+2Ku8meQv8ADeu+atXa9F5L5mvxfFBD6XoKqcEi5c5PUp/Nt8sVZZiryH8z
PyV1XUrfzNqnlHzDqWnajrdpcfX9CWVJbG/la2MQj4TlVhaUKsZfl8I6UxVr8p/yNfQ30DzJ5r1O
81bzLpemw2tjY3Lp9W0wGARvBAsZdWMYrHz5UPXrvir1/FUk866Fqmv+V9R0XTNT/Q11qERg/SIi
9do43NJOCc4viZKqG5fDWuKsf8y/lFoWq/l9YeTdPnk0iLR2t59Fv4AGktrm1NY56HiHYkty3Fan
cHfFUD5c/LDzQfOdh5u87eZF17UdGt5bfRbe2tFs4ITcrwnmYBn5ySJ8PYfhRV3nX8pNS1LzhF52
8o+YZPLPmgW31O8m9BLu3uoAQVSWF2UbUG+/QbVFcVSbW/yM80edikH5jecpNU0m3YyW2k6ZZxWE
YmKFFleQmZ3K8jQH+JGKs/8AIHlzXvLflu30bWdb/T8ln+6tb9rf6tL6CgBEl/ezCRlG3Pao6iu5
VZHirsVdirsVdirsVdirsVdirsVdirsVdirsVdirsVdirsVdirsVdirsVdirsVdirsVY75N/MPyf
5zivJfLWofX49Pl+r3bejPDwkIrx/fJHXp1FRirIsVdirD3/ADc/L1NNn1JtWpZW2qnQJpfq9z8O
pChMHH0uR6j4wOH+VirMMVdiqR+bvO3ljyhYW9/5ivfqVpd3KWVvJ6Usxe4lVmRAsKSNuI23pTFW
/wDGnlr/ABd/hD65/wA7ELX6+bH05f8Aeblw5+rw9L7X7PKvtiqd4qw38x/zW8oeQ9KubjVb+3Gq
LbS3Gn6Q0vCe5dFYxxqFWRkWR14cytBiqD/Lf86vI3nmysls9StrfXbiFZLjQ2mrPFIV5PGnNYjL
w7si4qz7FWE+evzl/LzyPfQ6f5h1P0b+eMzJaQxS3EgiFf3jrEr8F+E/a8MVT7y75v8ALXmPQI/M
GjahFdaPKrOLsEoqhPt+oHCtGVp8QYCmKu8p+bvL/m3Rk1ry/cteaZK7xxXJimhDtGeLcRMkbMA2
3ICmKqHnPz55S8l6WNT8y6jHp9qzcIuQZ5JH68Y40DO58aDbvirHPJv5+flX5v1dNH0XWQ+pygmC
2nhmtzLQVIjMqqrNQfZrXFXoWKpOnm7y8/myTykt3XzBFZ/pJ7L05drUyCL1PU4+l9tgOPLl7Yqn
GKuxV2KvnX/nDb/jlecv+2qv/EGxV9FYq7FXhE35D+b38p6jo4vNP+s3fnVvNEbmSb0xZEKPTY+j
X1vh+zTj/lYq93xV2KvmX/nJaz/Mq680eV9KfU9OOiatr1qvlyz4OJorlQsSyXLBfiRXnP2a7HFU
t8t6X+dV5/zkJ5h9PV9I/wAT6Tpttb6nfNA/1VrWcQTKkKcOQk4kfER44q+rMVfHX5z6Vc+V/wAy
/O+u+bvLs2taT5i0y4tfLmshBNDaXM1sIrdjy+BGiYcd6Mv2kr3Venf84/W35Ma9ofla+0yLT288
6BZILoxJ9XvBKYTBM8qUjM4o5HMhgDShrir3fFXz1rfmGy/Lj/nIPzJ5n816fctovmHTrWLRtVgg
e4VHhiijkt/h+yZHiO3+rXY1xV5/5cutdPlK58hWkbeXG8/6vd6xcLcARDTPLYCCSaQNxEYlETIl
aBlX/KU4q+mfIPmL8t59Nt/L3k3V7C9g0m3SKOzs7iOV0hjAQOyqeRqerdyfHFXl/wDzlTotxajy
p5/Vba8tPKd6HvNJu3VFuEmliYBA+zEmHiygE0NaGhxVjUGqy/nZ+Z/lrzboel/oXyh5ImS51LXL
z045ZZImjuTA3FiOKekAN6KrMxpUDFX0zYajp+o2kd5p9zFeWctfSubd1ljbixVuLoSpowIPvirD
LfyHq8f53XPntprc6RNoA0hYAz/WfXF0k/Irw4cOKdeda9sVZ3irsVdirxP/AJxi0nynp2neZ18u
+YH1+OXUA9272Ulj6MnE/uwJHk5/6wpir2zFXYq7FXYq7FXyv+cHlP8AMm4/OXyjpjecPVk1TUL6
+8u1tYwNLRGEiDr++4ooX4v5ffFVP8pPJ35lah+b3nS7h85cLzRb+yttevjZof0kiM4aIA0EXFbf
iePiDir6sxV4T+cP566Fpll528j69pt9pl1cabd2uh37xM9te/WLMopVgAV/fOVrQrtUkdMVeP8A
5XQaZ5j/ADK/LiTyNpU9teaDZ25846nGhhgdo1pKWptVkqhY7yFqb9Sq+1sVSvzT5k0vyx5d1DX9
Vk9Ow02Fp5jtU8fsoterOxCqO5OKvlrzz5W8y3n5N63+ZWtwyfprzdf2d3qNvGSWttBV/wDR7dR2
WvpOfbjy3BxVPmu/y11D87Py1P5UxWwkt47l9bfS4vSRbIxKIxc0UDnx9QNz+LcA7lcVU/zfv9Jt
P+cjtGm/MqN5PIUdoDpAmR5LL1uHxNJGgYPSc/GKHbhy+HFWG/mpr/lHRfMN7e/k1rf1mTzTaXNp
5i8uWMEslv6ckL8riKihFKhmai7oakfCSMVfQX/ONl75al/KDQbLQ79b36hEU1BRUPDdzO1xNG6n
cUeU8T0I3GKvT8VdirsVdiqC0zRNF0pZV0uwtrBZ25zLbQxwh2/mbgFqfc4qjcVdirsVdirsVQs+
k6VPfwahPZQS39qCLW7eJGmiDAhhHIRyWtd6HFXWmlaXZT3M9nZwW094/qXcsMaRvM+/xSMoBdtz
ucVRWKpf5g0LTdf0S+0bUo/VsdQgltp1GzcJkMbFTvxajGh7Yqt8t+XdL8uaFZaJpcZjsbCJIIFY
8m4oAoLN+01BucVTLFUNqOmabqVq1pqNpDe2jkF7e4jWWMlTUEo4ZTQ4qrvDE8TQuitEylGjIBUq
RQqQdqUxVL9H8seWtFaVtG0mz0xp95zZ28UBc9fj9NV5fTiqI1HStL1O2NrqVnBfWxIJguY0lSo6
Hi4YYqhdF8q+V9C5foTR7HS+Y4v9StobeorWh9JV774qq6Z5e0DSXmk0vTbWwe4p9Ye1gjhMnGpH
MxqvKnI9cVR+KuxV2KuxV2KuxV2KuxV2KuxV2KuxV2KuxV2KuxV2KuxV2KuxV2KuxV2KuxV2KuxV
4l/zjf8Amx5v8/X3m6HzDJBImjy2iWXoRCKgma5D8qE8v7lcVe24q7FXzNq35+fmFa+SPPOsRTWw
vdA8xLpWnkwKVFsZHWjrX4moo3xV9JWEzz2NtNJ9uWJHamwqygnFVfFXiH/OQv56P5Os7PT/ACpq
1j/iT68kOpWsvGZ4IDEzVkjr8HxMhqcVQR/5yL05vztGip5h01PIMdl6kl+SnBrn0q8BcFqfaYfd
TFXvmKvnj82Pz585yecNU/L38vtGivb2ytpf0rf3BPwKsXOZogJIlQRK1Obtu2wXpVVjv/OM/n/8
2Y7bR9Jm0JtX8o6nezR/4gZ5XmgcAtJ6snKUBV4fCrotenLfFX1Tirwvzt+YX5r67+bt7+XP5dzW
OlyaLZJe6jqN+nqczIkbhRVJQF/0iNQAla1NaYqv8hf85CzS/lZ5h8x+cYIodY8rTvY3UcB4pdTk
AQKg+LizueDUqBTlsNgqz38oNQ886r5HstY86NENW1Ot1FawxeiILaQAwxstSSxX4zXcVp1GKsN/
5yD/ADj8yeSrjQvLvlW2hk1/zC5WK7uhWKJeaxIFBKqXZ36seKgbg12VYXqn5tfnl+WPm/QrD8xZ
tM1rSNbahaxULIiBlSQoVSA84zIpoyEN0B7hV9NYq8vufzB8xx/85CWvkZXi/QMujm/dPTHq+sC4
r6nWnwjbFXqGKuxV2KvmD/nC3/jqfmF/xnsP+J3uKvp/FXYqxWb8rPy9msNQ0+XQrZ7LVbkX2oQE
NxmuQSfVff7VWOKsojjSONY4xxRAFVR0AAoBiq7FXxp/zkZq35N6j+ZGjfo9ka/j1aWDz5c+neKU
S2lhgZWDJR6KkorBX7PeoxVLfJsf5Aal+emsW93FE3ke9hitfLVrwvwr3shto1oAPWWrerUy0Xf5
Yq+3cVfM/wDzkX+T1xo82s/mx5W1qXTL5I1/S1kKgSCbhbOY3U7c1Yc0cENuajpirGfyI/NHzX+X
N55b8j+Z9HRPL/mgwXmj36keqqamV9KXkrNG8ZZl5KeLJvXwxV9fYq8f8/fkl5mvvPz+fPInmb/D
mv3lsLPU/UhE0cyKqoGFeQHwRoKFTuoYEHFXz1qWm6T5Zvr7TZZZPMflnyTeLqPmac0jj1TXpyIY
bSv7zjFFxYNy5GgmP7SjFXtXlr8+vzDtPNXlfSvP3la30nTfOIRdEvLSRiweUqIxIheXvLGGU8Sv
IH2xVJf+csNV8u+Yb3R/IOm6XNq/n95Fl057dgn1VJ6ckdmBD+qqVK7BQA5YU3VeaaLqC6B+YWqX
n51ve33mzy3YGfyzaX0nOyuZrWNngjaRQ9RIygxsPhZq8qtsVX1Z+UHn698++R7XzPd6cNLN3LMk
NushlVkhkMfMMVTqysOnbFU+byp5cbzInmZrCI69HB9VTUaH1RDueFa0p8RxVNsVdirsVefflVpP
5q6fca23nu406eGZ4TpA0+OOMqqmX1fV4RQ12aOla98Veg4q7FXYq7FXYq8U/MP8hovMX5qeWfMF
jpOlRaBaStc+Y4jFEkl5K8pkYyxiJhPyp8XqHepxVZ+Wv5BQaF+Y3mzzBrej6TLpV5dCbyxbRxxy
/VEWd3VkjaJVgYLwpw6dMVe3Yq+bP+cgvye8/GLzT5p8ueYbq603WBA+reVxHI5l9P0oU9JY+auV
EakVQMAPtHFVP8p/+cdvNN9qXlXzn581s3Uek2dlLo2iBZA8EcKLJbQTeosfp+iackVTVq1Piq+l
8VSTzsnmqTyrqUPlQwr5gmhMVhLcsUijdyFMpIV941JZRTcgV2xV5ev/ADjpbf8AKjJfIS3SRa7d
smoXeqHkyPqIYOSx+0Y6D0gaVp8VK4qkuh/lB+cPmHzb5PvvzCu9Ng0nyKyPpy6eWaa5kiaNkZ6i
g5G3j5H4dhstSTiqYfm5+R3nTU/zCs/zH/L/AFW3svMVsiLNb3dQpaNDEHjbjKp5RHgyOtKd96Yq
xfzL+R356/mheWZ8/ajo+l2mnq6wSWkIlnJYD+QKSrEbgygDqFxV6l+Rnlr8yPKflpfLHm1NPmst
OHHSb2xkYuYyxJiljMcfStQ/U999yq9LxV2KuxV2KuxV2KuxV2KuxV2KuxV2KuxV2KuxV2KuxV2K
uxV2KuxV2KuxV2KuxV2KpPo3nLyhrd1LZ6Lrmn6ndwKXnt7O6huJEUEKWdI2ZlHI03xVOMVdiqRH
z75GWG+mPmLTBDpciw6nKb23420kjFESdudImZ0ZQGpUgjFU4tLu1vLWG8s5o7m0uY1mt7iFg8ck
bgMjo6kqyspqCOuKquKpdrfmTy7oNvHc65qlnpVvK/pxTX08VsjPQnirSsgJoCaYqpnzZ5WGrw6K
dZsRrNwokt9N+sw/WZEKlwyQ8vUYFAWqB03xVNcVQeraxpmkWMl9qVzFa20SlmkmdIwaAmgLlRXb
xxVin5W/m95X/MnTru+0KO5thZTehLb3qwpMfhVuapFLN8HxUqT1xVm+KpP5h84+U/LcccnmDWLP
SlmqIfrc8cJenXgHILU70xVH6dqem6nZRX2m3cN9ZTjlDdW0iyxOK0qroWVvoOKobRvMvlzXBOdE
1Wz1QWzBLk2VxFcCNzWiv6TNxO3Q4qiNT1bS9Ks3vtUvILCyi/vLq6kSGJf9Z3KqPvxVJ9C/MXyF
r939S0XzFp2o3m5Ftb3MUkpA3JCBuRA8QMVZFiqXv5h0CPWY9DfU7Rdalj9WLS2njF00YBPNYC3q
FaKd6dsVTDFXYq7FXx//AM4d/wDk0/NP/MBL/wBRkeKvsDFXYq+Sbn8nPzLfy1+bVouhym48w6tY
3OjR+pDW4ihvrmWR1+Og4pIp+KnXFX0r+XWm32l/l95Y0y/iMF9Y6TY213ASCUlhtkSRCVJHwspG
xxVkOKvjb/nLrzH59vfMVv5d1TS4rby5DdNJ5evUR1lu2EMay8mMjI3BpqbIuKsZtvNf5wT/AJ7R
63B5cgk896ZB6Q0MRzGGONbP0N4zPz/uZeX971P0Yq+67V5ntonmXhMyKZUHQMR8Q798VfD358ag
dV/Py+07z1fXdl5csnEVr6C8zDbG3DxNCh5D97JQuwBO52NOOKph/wA4uflZpnmbUrbzSuuGz1Xy
7qkcsmlIVLT20apIp+FlkVWkqpJBVgCMVfauKvkP80/8ID/nKC9P5oer/hH6hEdP5+sY+H1NePH0
P3nD6z6v2f2+u2KsQ/Ln8xde8ufldr3lzQTPLqXmvVI9P8tQA/GnqJwupU8HKvDGN/tGo+ycVfWf
5O+RNI8ieSbPy5aSxT38Y9fV5o2DGS7kA9VjTfitOC1H2QO+KvFf+c19M8xyx+XNRVJpfLFsZUvB
EfgjuZGXi0goQC6VVGNabjvuq8h842PkPV/OPlu0/JKy1Aai8cTyqzSl1vOSshUysxVoqEyOD6Y6
g0BOKvv23EwgjE5DTBVErL0LU+Ijp3xV49qnknzTN/zk7pHm6OwdvLtvpL202ock4LKY5wE48ufW
Rf2cVeyYq7FXYq+af+cZvJelaH+YPmC8s/NOl65LPaSI9nYNMZYgblG5P6kca0BHHY9cVfS2KuxV
2KuxV2Kvib/nIA/m5f8A5taTpGsNDJI2pS/4IgU24/cXN4I7Yycehb04wTLvtviqG/Ln/ldWofnr
rF7p7QTebrSRovMshNrwWBJ44LhU5fu6jgF+DfbFX3Fir5P/AOcpPzO8i6suv+TLjSCPNOiy2q6Z
rJjR+SN6cs8Yk2kjoJGHHdWpWvTFXjXkwQw/mR5L/wACz3j6nI1h9d5DiVvWb/S44+NOUHD7XLty
rVd8VforirH/ADnoHkbUNLlvvN2m2N7YaZHJcPPfwxyiGNF5yMGcEqKLvTrir5B1mz1TzD5V83/m
7ZWn6H0iwMWj+TbK2jWFLa0e4WKaSJY+KpRJWUlducj03XFUq0+Dy35V1P8AK3WvIetyXXmfVWT/
ABFaxzCQxzPNCvoPEgDKJDJIhRvtBQe9Sqzj/nKLzfq99+amneSdb1CfR/Iw+pyXbwgkSxzPWa5Z
QP3npbqq7gFa0rirzzz2dH/LjXr1Py082RatoXmLT5rO7hjkEs0UUq8XjmdFVK1PKNlow3BFPtKv
pL/nERrE/lOPS1Fb6/mvp7jUYeZeS3duMUcbhviHKOFWHY12xV7ZirsVdirsVYr5U/K3yD5S1K51
Py7pEen314hiuZ0eVy6M4cikjuPtKDsMVZVirsVdirsVdirHta/L7ydrfmHTvMeqaZHda1pPA6de
M0gaIxuZEoqsENHNdxirtC/L3yboOu6lr+kaZHa6xrDO+pXitIzStLIZXJDsyjk55fCBirIcVYJ+
bP5Q+XvzF0J7G7WGz1Osf1fWhbxzXMSI4dkRiUbi4FCOWKon8uvyp8oeRtKtLfTLC2OqQwLBdayI
ES5uCAAzM/xMORFSvKmKsyxVLvMXl3RvMej3Gjazb/W9MugouLYu6BwrBwCY2RqclHfFVOy8q+XL
Hy4nlq20+FNBSE2w04ryhMLV5IytXlyqeVevfFWM+WPyL/KjyxrS63onl6K21OMsYrhpbif0y1am
NJpJEQ79VAxVOfOH5d+SfOVvHB5m0iDUlhqIZJAyyxg9Qk0ZSRQe4DYqx7Q/+ce/ya0S6+tWPle2
aahWt0894oBFDRLqSZR160xVNvKn5T/l95S1KXUvLekLpl5MhjmeGWfi6E14tG0jIRXcfDt2xVlu
KuxV2KuxV2KuxV2KuxV2KuxV2KuxV2KuxV2KuxV2KuxV2KuxV2KuxV2KuxV2KuxV4F+UP/OSWt+e
vzEbyrd6NbWduI7mT6zFJIz1g6Cjbb4q99xV2KvnaT/nKDXkt/zAl/QlqT5OkjS2HqSfvw+orZfv
PD4X5bd8Vev/AJW+cbnzn5B0jzNc26Wk+pRu728RLIpSV49i2/7FcVZViryL8+fz1b8trbTRplva
6pf3k0kdzaySkNCsaKwLBCWBPMUriqRRf85KXb/mnpHk36np/wCj72G0e+1T6yeMTz2i3MoBNE+A
txFTX6cVe9AhgCDUHcEdCMVeL/m9/wA5PeWvy/1l9AtdOk1vW4AjXcKyi3gh9RQyq0pWUl+LBuIT
6cVeV/kx/wA5ReY5fOkmnebmu9XttduYbXSYYFgrayzTFFWnGIup9RVJ5V26HFX15irw382v+cid
Y8ted18jeT/L51/zAkaSXKn1Hozxev6UcMI5uRDRy3LYYqmf5Yf85F6B5t8j655k1e3/AEPL5aRZ
NWhD+ohSRWMTRMQpJlaNlVOvLbeoxVNvyP8AzJ80fmHoN35g1XSIdJ0tpjDpQjd5JJglfVdiwUcV
NFBHUhulMVQX55fn3pv5YxWdpHYnVNc1BGlgtS/pRRxKePqSvRm3bZVA3odxiry+w/5zE806Zqlt
H5z8nmx067pLHJD60Ewt2PwyxpcDjMPkVBxV9P2F7a39jb31pIJbW7iSe3lHRo5FDIwr4qcVeZ+Y
Pzh1LS/zx0T8uY9PhkstVt1nkv2dxKhZJmoFHw/7pH34q9TxV2KuxV8Qf84sf+T5f/jBf4q+38Vd
iryR/wDnGXyG0XmqI3+qcfN7q+pH1besZS7W9Hof6P8AD+8Wnxcvh998VZ/5J8oab5O8rWHlrTJZ
prHTkZIJLlkaUh5GkPMosandz0UYqnmKvhH/AJyhsvKJ/Mu5v9E1pdQ1C/nlj1u1pRbKe29O3EZN
PFGr8sVYxpfk38vrz805fLkvmUw+Ug8iQeYCq1k4xVSi9Pjl+HFX6I2sAt7aKAHkIkVAx6kKKVxV
8Z/85Lfl75o8l/mEfzKsZYpNM1DUIZbSZwkjwXyx+oI5IZAVdT6DMpoRTY+6rGPyN/Mfy35b8+TX
XnHRkvV1i6t7iLUCi+pYXHqNIlzGjDlxPrVPFgePTl0xV974q+dfzX/Jv80Y/wA3E/Mz8upbefUZ
kUSwTtGjQyLa/UyQJv3bo8I8ag9sVfPWreXtW8qTXvkbVL9Y3uJLfUPOL2pEwgitgzQwepVVkkHr
livLi0jRrXkMVe9+Qf8AnK3yJZHR/LX+G7rQfLahbLT9QeRZUREPBXkUIvf+8ZWYg+OKpb/zmrZ+
TZE0e8k1H0vN8KGOHTUXn6tkzkl5CP7rg/LgT9rcUNKqq8L1Hzhq/n3UbFPPmum3stAsTFB+5rO6
QgVhiVQqtcTUHxSso23PQFV9sfkf+YXlvzn5NVvLmn3WnaVobR6TBDd8C3G3gj4gFGcGiMoxVF6r
+UXlvU/zL038w57m8XWtLiEFvbxvELVlVZFq6GJpCf3x6SDtirN8VdirsVeBflDpX5m2/wCYjTa/
+X+h+X9J9O5A1fT7G0t7nkfsL6sUjvR/2tt8Ve+4q7FXYq7FXYq+UPzh/wCccdV1L827K78t6Nc3
GgaxOl55jv8A6xFRJ7u9ka64CQqyhIiGFAeuKoT8vf8AnF+8m/NPWE8yaNd2Xku1e6k0Sczx85PT
ulForGN3aphJY1HbFX11ir40/wCcs/JHnvTdbvvNN5qKz+UtavrZLexjlkAiuYrRo4vUt2+DkIop
KOpPU9K4qhfy/wD+cd/zO893/l/XPNsiW3lhLSy+qzyyxSyyaZFEpt4YIYS/ENHQfvOJFSSCdiq+
1cVSfzjqWuab5Y1G80HT21XWo4T+j7BSq+pO3wpyLsg4KTybfoDTfFXz35Z/5xx8zXn5SebH134P
zD81OLhjcOrFBb3K3KxO6ErW4kQs5rTdf5cVefwfk5+eHm208qeSNX8vDSNH8tPdxrqsnBQsV5OJ
Z3dldllKlaJ6Y3792xVnH/OSX5E+f9c88jzp5Vtl1WKSGAXFmGjE0UtuOIKxykLIjKqmgqa12pir
B/NX5X/n9+aHmKK/1fylbaXfpCIp78KlmkqoPgM3KRy7CnEFVrTboBRV7B/zjRYfmZ5P05/KHmfy
jJY6Y0slxbaxE8DUlfd1uVWVmYHiAjqNtgRTcKvfMVdirsVdirsVdirsVdirsVdirsVdirsVU57e
3nQJPEkqA1CuoYV6VocVXoiIioihUUAKoFAANgABireKuxV2KuxV2KuxV2KuxV2KuxV2Kv8A/9k=
									</xapGImg:image>
							</rdf:li>
						</rdf:Alt>
					</xap:Thumbnails>
				</rdf:Description>
				<rdf:Description  rdf:about="" xmlns:dc="http://purl.org/dc/elements/1.1/">
					<dc:format>image/svg+xml</dc:format>
				</rdf:Description>
			</rdf:RDF>
		</x:xmpmeta>
<?xpacket begin='﻿' id='W5M0MpCehiHzreSzNTczkc9d'?><x:xmpmeta xmlns:x='adobe:ns:meta/' x:xmptk='XMP toolkit 3.0-29, framework 1.6'>
<rdf:RDF xmlns:rdf='http://www.w3.org/1999/02/22-rdf-syntax-ns#' xmlns:iX='http://ns.adobe.com/iX/1.0/'>

 <rdf:Description rdf:about='uuid:8584a110-4696-11de-8879-001124740a56'
  xmlns:pdf='http://ns.adobe.com/pdf/1.3/'>
 </rdf:Description>

 <rdf:Description rdf:about='uuid:8584a110-4696-11de-8879-001124740a56'
  xmlns:tiff='http://ns.adobe.com/tiff/1.0/'>
 </rdf:Description>

 <rdf:Description rdf:about='uuid:8584a110-4696-11de-8879-001124740a56'
  xmlns:xap='http://ns.adobe.com/xap/1.0/'
  xmlns:xapGImg='http://ns.adobe.com/xap/1.0/g/img/'>
  <xap:CreateDate>2005-10-18T08:31:30Z</xap:CreateDate>
  <xap:ModifyDate>2009-05-22T06:07:52Z</xap:ModifyDate>
  <xap:CreatorTool>Illustrator</xap:CreatorTool>
  <xap:MetadataDate>2009-05-22T15:05:00+09:00</xap:MetadataDate>
  <xap:Thumbnails>
   <rdf:Alt>
    <rdf:li rdf:parseType='Resource'>
     <xapGImg:format>JPEG</xapGImg:format>
     <xapGImg:width>52</xapGImg:width>
     <xapGImg:height>256</xapGImg:height>
     <xapGImg:image>/9j/4AAQSkZJRgABAgEASABIAAD/7QAsUGhvdG9zaG9wIDMuMAA4QklNA+0AAAAAABAASAAAAAEA&#xA;AQBIAAAAAQAB/+4ADkFkb2JlAGTAAAAAAf/bAIQABgQEBAUEBgUFBgkGBQYJCwgGBggLDAoKCwoK&#xA;DBAMDAwMDAwQDA4PEA8ODBMTFBQTExwbGxscHx8fHx8fHx8fHwEHBwcNDA0YEBAYGhURFRofHx8f&#xA;Hx8fHx8fHx8fHx8fHx8fHx8fHx8fHx8fHx8fHx8fHx8fHx8fHx8fHx8fHx8f/8AAEQgBAAA0AwER&#xA;AAIRAQMRAf/EAaIAAAAHAQEBAQEAAAAAAAAAAAQFAwIGAQAHCAkKCwEAAgIDAQEBAQEAAAAAAAAA&#xA;AQACAwQFBgcICQoLEAACAQMDAgQCBgcDBAIGAnMBAgMRBAAFIRIxQVEGE2EicYEUMpGhBxWxQiPB&#xA;UtHhMxZi8CRygvElQzRTkqKyY3PCNUQnk6OzNhdUZHTD0uIIJoMJChgZhJRFRqS0VtNVKBry4/PE&#xA;1OT0ZXWFlaW1xdXl9WZ2hpamtsbW5vY3R1dnd4eXp7fH1+f3OEhYaHiImKi4yNjo+Ck5SVlpeYmZ&#xA;qbnJ2en5KjpKWmp6ipqqusra6voRAAICAQIDBQUEBQYECAMDbQEAAhEDBCESMUEFURNhIgZxgZEy&#xA;obHwFMHR4SNCFVJicvEzJDRDghaSUyWiY7LCB3PSNeJEgxdUkwgJChgZJjZFGidkdFU38qOzwygp&#xA;0+PzhJSktMTU5PRldYWVpbXF1eX1RlZmdoaWprbG1ub2R1dnd4eXp7fH1+f3OEhYaHiImKi4yNjo&#xA;+DlJWWl5iZmpucnZ6fkqOkpaanqKmqq6ytrq+v/aAAwDAQACEQMRAD8A9KaVpWlnS7MmzgJMEdT6&#xA;afyD2xVFfonSv+WKD/kUn9MVa0lES0KIoVFmnCqBQACd6ADFUZiqWQafYTXmoSTW0UkhnWruisdo&#xA;Iu5GKoj9E6V/yxQf8ik/piqWfo7T/wDEvo/VovS+p8/T4Lx5erTlSlK0xVB6p5nbSdI0uw0+Fb/z&#xA;FqUKJpWmluAcqi+pNMwDenBCDykengq1dlUqqnl/zPevqsvl3zDFHa+YIlaa3aEMtte2wIHr2vMs&#xA;3wcgssZPJG8VZWKqd6Z/vM//ABnuP+T74qi8VY9rWvroFpf6nLbyT2cN5CL54qkwW7xRLJcFVDMy&#xA;xA8noPs1PbFUPq/5jeWLTT1m06+ttY1C6omlabZXEcst1M+yKnpmQhd6u9CEWrHYYqmf/TVf9GP/&#xA;ADOxVjbXOo3Gs22meWoLG11ZNLtZdY1+6gM7RWzs4trZURoXld2SVgGkCoPioeQBVQet6p5y0PXf&#xA;LlvrEGna7Z6hqcdtaavHatBNZSSRuGBiaWajPHzCzIwp9ll3rirO9M/3mf8A4z3H/J98VReKsY1/&#xA;X7rSQ8On263WsarqEdjplvIxSIytarK8krKGYRxQxPI1BU8aDcjFUkv7Tzj5SsL3zFGNJ1RYIZJ9&#xA;Ts7PTjY3DxrV5Ggl+sTcyn2vTkFXpTkDiqZfpu6+q/pzhH9b/wAP/XeFD6fqU9WlK8uPL3+nFUqm&#xA;8xWflHzJZ3erMy6T5i0+0t7eaNGleK7sVkZw8cQaX05IpgeYXihU8iOQxVFXet2vnDWtEs9EjmuN&#xA;P068XUdT1R4ZYbdBBG4ihjeVY/UlkldahK8UDcqHjVVmGmf7zP8A8Z7j/k++KovFWC+eZjpfpeay&#xA;vO38tal9cv4gQGa0msPqsxj5EAvH64kC/tceI3IxV2tfmJpWpaPdWPluO51TXL2F4LKzFpcxhJZV&#xA;Kq900sSLBGhNXMlKdKFqLiqYfoMV/QXq7foP6j69N6f3XOn44quu/LEupw6JqljqM2l6tp1q0Nvc&#xA;RJFKjQ3SxGaKWKVWDKzQRtVSrAr1pUFVCz6t5z8u3Fk+uzWOraPd3dvYveWkEtlcW8t5KsFuzxPL&#xA;dJMjTyKjFWQryBoaHFWT6Z/vM/8AxnuP+T74qi8VSPVNDt9csdV02eWSBZbiF0uICokjlhSCaKRO&#xA;aulUkjVqMpB7gjFUumsvzK06My2mp2GvLFUmxvLZrOeUDei3cMjRI3zt6fLFVP8Axfpf1T/F/CX9&#xA;GfoD9K+lw/f+jT1+HCv95x241+1tiquieeoo7WbSn028057eDjZXgmtpYyIwHpcxC4Vg3UAw7eJx&#xA;VTl0LzZrl/aN5gksrPSLG5ivV0ywaW4eee3cS25muJkgASKVVk4rFUsq/EACCqyPTP8AeZ/+M9x/&#xA;yffFUXirH9Rh8zvPcSaBdWcUkdx/pFvfQySRzKYIqBZIpI2iZT+1xcf5PfFUHeQ/mZqNv9TDaXoa&#xA;yrwn1G2lnvp1B2JgilhtY0f+VnLgHcq3TFXf4W0fj/hX0m/Q36D/AEZ6XI8vq39xTn1rw/a64qj9&#xA;Kg8x/ouzpfWYHoR0Bs5T+wP+XnFUV9X8y/8ALfZ/9Icv/ZViqto4lFlSZleUTT82RSqlvWepCksQ&#xA;PapxVG4qk6Q601/qBtbu2ih9deKS20krD9xFWrLPGP8AhcVVfq/mX/lvs/8ApDl/7KsVS70dc/xF&#xA;x+t2v1n6pX1Pq0nDh6v2eH1ivKvfl9GKoqfXtH0DypHq+sXSWWm2drE9xcyV4qOKgdKkkk0AG5OK&#xA;t+VvOHlnzVp76h5fv49QtI5GglePkrJKn2kdHCup36EYqjtM/wB5n/4z3H/J98VReKpU+q6Xp085&#xA;1C8gsxdX0Vram4kSL1biWCP04Y+ZHKR6fCo3OKozUdT03TLKW/1K7hsbGAcp7q5kWKJASAC7uVVd&#xA;zTc4qgPWi/xL63NfS/R/P1Kjjx9WvKvSlMVeY/mbB5Oiu/Kmq+f/ADNHb+WLBI5rHymLd5Gvb5UA&#xA;WaX02lkmSPkAEEPEV3PxEFVDaPr35ayfmLF5z8q+b49LOt3MGka/5bmtJgb2+nr9VYwuYJLeY8G/&#xA;elCrfS3JV7Jpn+8z/wDGe4/5PviqLxVg/wCY+h+UtY8pa7B5qvf0ZpUFxFcjVBIIZLWaKKIxTRSH&#xA;o6tsPGtO+KvINO1Lyp5yaDSvNf5sXOv+XbYG8GkS6S2kLfRWn7797cMgN0q8Ksq/EeNeu+Kvbv8A&#xA;EOg8/wDEf1lP0B+hP0j9b4tw+p/33qcacqelvTjX2xVgPlWG0u/+cgtRbV1V77T/AC3px8tJJQ8b&#xA;eSv1qWIH9r1TxLDehIxV3586JpNz5x/K+9jiU+YR5ms0iKj949jC3r3JNN2WJkQ7/ZqfE4q9c0z/&#xA;AHmf/jPcf8n3xVF4q8Z/OyO1udd8l2Gq7+XrvzTAuoxv/cySC0U20cvQFWfsdjirKPz00zQ7r8ov&#xA;M41SOP0bTT57iyZ6L6d1DGTbGM/st6vFRTrWnfFWM/Urv/lR/wBR9Jvrf/KvfQ9H9r1PqHHjTx5b&#xA;YqkX506NNN5l8gavfQapa+XNPtZvr2veX4XfUIJXjURI0sQaWOKvcKepHU4qnP5YzfkhfebxqOl+&#xA;ZLvzB5xSNorZ9fnuGvYY2FXS3iukgpsTXglaV7VxV67pn+8z/wDGe4/5PviqLxV5V+fuj6xrH5Ye&#xA;ZLHSdOOp3T3VszQRxevcJEggaSS3j/alVRsBv1pirAdHk/IO9uNL03zP5t1+7NqyNBonmya8htfV&#xA;SnEyLLHHAeJ24tIV7dMVe984v8S8+S+l+j68qjjx9XrXpSmKsQvfzp8leV7pdH8zG90f0ILf6vqV&#xA;xZztZXIkgjesE8SyKeJco3KnxAjFWFedfNvlj8z/ADH5SsvIdrLrOpaXrFpf3fmSK2lhgsbS3fnM&#xA;jXMiRkmQdEFQT/lUxV7jpn+8z/8AGe4/5PviqLxVhfmv8xNI8mXfqaxZ376fe3DiXUrO1kuoLUxQ&#xA;QU+s+lydPU5nhRTXicVYR58/O38pfM/lPUdB0ov5v1PUbeSGx0W0s7iWR5nQrG9XjUR8GYHlXkO2&#xA;+Kq3+CPNn/Kov8Hc/wDnZf8ACf1LhzFPV6fV+deP2f3XKtO/TFXpGleYLAaXZgxXlRBGNrG8P7A8&#xA;IsVRX+IbD/fV5/0g3n/VLFVbR5FlsvUUMFeadgHVkahmc7qwDA+xGKo3FUnTWLS2v9QhkjuWcTqS&#xA;YrW5lXeCI7PHG6n78VVf8Q2H++rz/pBvP+qWKpd+mbP/ABD9Y9O69P6p6fH6pc86+rWvp+nz4/5V&#xA;KYqnOk/8cqy/4wRf8QGKovFUJpn+8z/8Z7j/AJPviqLxVCWX+9N//wAZ1/5MRYqi8VSn/pqv+jH/&#xA;AJnYq8g/NnzX+Yl/ceXvy+8g299Z3moLbNqvmSKGVYbWIqH4LcUCiijnIVatPhG7EYqs8ia5+ZXk&#xA;b80b3yT5sfU/MnlnU2STRPMssUtx6LOKIs0qqQqtTg9TRWHLZWJxV7bpn+8z/wDGe4/5PviqLxV5&#xA;l+ccf5lL5Wvb78vbh01qw1CKea0jRJHubYW6CSJVcGpqVag3IBA3pirz3Xvzu/NXznY2nlvyP5Q1&#xA;bQPM080Q1HUruHjb2ijd/jkjICk9WkUGnQEkYq9t+q3/AOkfqv1r/ch+iPS+vcRX1uXH1ePT7XxU&#xA;xV4r5r178wfPP5q2/wCV/lbXZfLGmaNpcF7rGo23IXD+pDC/wsjRvQC5jVVVl3LEk7AKpZ56P5wf&#xA;lt5l8maMfOd3rfl3WNVgjW6uFAvFpLGktvPITI0iOslVJPY9O6r6U0z/AHmf/jPcf8n3xVF4q8U/&#xA;5yA/MDzT5dttO8u+UpRbeY/NuqrY2l2aExoIbdG4VDUZnnjXlQ0Fab0IVY1528l/nN+W/kXUfMun&#xA;fmHe67LBARqtnfh3VVl/dma0eSSVo2hZgwG1af7Eqpn/AIv8zf8AKhf8UfpGX/EH+GvrH6RqPV9X&#xA;61TnWlK0xVi/n6/1vyb+fnl/V/I0A1nzP5l0iKHUtAcUWSJI1jU+ryUJyS1Df5Pp8jVTTFWRt5O/&#xA;N78zvPnlvWfO2j2/lXyz5YuBe29gs6XM9xMrq9CY2OzNEo+ILRa0qTir3fTP95n/AOM9x/yffFUX&#xA;ir59/wCcrrS1tvKlp5qS8Nnrmga3A+jMF5epNLDE7J/klRAJK/5FO+KoTzHc/wDOR/5meU08rz+U&#xA;rXy1Z6okJ1TWJrpaGFuMnFYOTzR8qfEtGYfZNMVekf8AKttL/wALf8q99VvqP+Hf0Z9aoOfKvH1+&#xA;PTl6nx08cVSvzb+T3k78wrjTdXg1e50rzTottDbHUdKuFWeIcOaJMoqVI9QlaFWoetMVeeeb7r80&#xA;vyW1/wAvXR87XHm3RNXvFtZ9I1IF7opUcuDO8rnY7OrLRqAgg4q+kdM/3mf/AIz3H/J98VReKsF8&#xA;/eSPJ3nvT7ryr5km9M3F0LqwWKZYrkSW9vEjSwq3LlwWbi1VI+Lftirynzt+WP5i/lt5SvfMvlr8&#xA;ztSNtosXqrpmqkSwsikARoZGki5HoqelRjttirIv+Vta1/yqD/lYv1aL9NfoH1PSofR+sfW/q3qc&#xA;a14c/j416bV74qj9e/5x08meZr+LzPFf6poevXMMDT3mm3Pp82SNVDFXWSnwqPsFcVVfKn/ONXkX&#xA;RPMEHmLULvUfMes2rrJbXOrTiYRyI3JHVVVKlTuOZbffFXp+mf7zP/xnuP8Ak++KovFXn/n/APKL&#xA;yj+YpKa99ZiuNMuHbT7yzmMMsJmgt+ZWodDX0l+0ppTbFWIp/wA4oeT7meE695h17XbS3IMVjeXg&#xA;MNB+yeKBwP8AUZcVej/4c0L63/h76hD+hP0T9T/R3Aej9X9Th6fHw44qitK8v2B0uzJlvKmCM7X1&#xA;4P2B4S4qiv8AD1h/v28/6Trz/qriqto8axWXpqWKpNOoLsztQTON2YlifcnFUbiqTpo9pc3+oTSS&#xA;XKuZ1BEV1cxLtBENkjkRR92Kqv8Ah6w/37ef9J15/wBVcVS79DWf+Ifq/qXXp/VPU5fW7nnX1aU9&#xA;T1OfH/JrTFWKfmZ+dWhfln5a0aS6t21LU9QSNbTTInEbtGqDnKzEPxVSQOm5O3eiqn+Vv59aZ538&#xA;x6n5YvtKm8u+YtNrXTrqQSNIIyVlCkLHR4z1WnTcd6KvSNM/3mf/AIz3H/J98VReKvN/zS/Nqy/L&#xA;TTzqt9pk+o215qAtSbdkX03+qo68uf8AMFNPliq78xfzz8meTPKtn5hWePWI9QkRLG2s5ozJKjqW&#xA;MgqT8KgbnxIHXFU4/wAQv6H+IvqUnP8AQH6Q/R9f3taet6Nafa/Z6dcVeE/m55h/J/y5590fU9T0&#xA;zUPNPna3hs5lsEuONrbqiK1vGyFW3NeYjVTWtT13VSXXPzY/Jy988aX5zuPLes6f54a4QXcEU4tj&#xA;C8IjWGRwy8ZVlR+J2FQpDChFVX1npn+8z/8AGe4/5PviqLxV5T+eXmr8utD8n6lb+ebNtTstTuli&#xA;tdMh2nllS3ifnG3JDH6exL12rTetCq+avLOsf84/6MTrmq+T9cFxCEuNIsb65We0uz6iA8XWKCpR&#xA;X50aqEDfcgFV9Kf8rh03/BP/ACsz9HzfUf0X6/6P5p6tPr31enL7PXfFXjFvqel+RP8AnKJ9a86D&#xA;0NMv7VZdO1KRGaOMTWsaRyigY0Tg0JNNvliqH/P3XPLP5j/m15S03yTImragvC2vL61Uujcpwyry&#xA;oOSwoHdmHwgHrsaKvrvTP95n/wCM9x/yffFUXir5Y/5zA0y7XUfLevzWr3ehWF9LFfhRVVMkdo4R&#xA;q7D1UjYD5Yqiv+ckvzd/KvzL+VCaXompQalqV1PbzafbxIedsImq7uGUel+75JTr8XhXFUZ/hDzB&#xA;/wBC1/oH6o/6W/w59Z+p0Pqcfr/1vjxpy5+l+zTrtiqSfnt5G89XXn7y75qXy1P5x8q2lhbIuk25&#xA;kYckUmSN44Q0q8mYPyCkN0PSmKph+XH52flh5a8xw6RqP5dv5A1K9YQfW2jDsvNqKJpJIredYyf8&#xA;kgfLfFX0jpn+8z/8Z7j/AJPviqLxV4f/AM5M+TPO/mvyVLZeVomvPq+ppcajp8TBZJoltUCFQSOf&#xA;BzXh32I6Yq8s0D8w/JvkNrCTzP8AkrNo89qIoxq0yPJI0kYp6sa3sMY5njWolr74q+hP+VmeT/0T&#xA;/j764f8ADf6J+s/WODc6fWPT9Ph15+r+7p/Nirz3WtY/5yh8u6zPP5f0m08x+Vp+Eunwy+m0kMRj&#xA;U+nRJLaevWleQ/VirEtc/Lj8+fzm8y6PL560m18t+X9MZ94yqsIpmQzBY/VnmaV1jUDlxUe2KvqP&#xA;TP8AeZ/+M9x/yffFUXiryD80z+etnr6ar+Wy299Ywkpqek3Bh/eP6cTK1JTEfs/ySBsVeb+b7j/n&#xA;Kj8yNDl8qX3lGy0jTrto1v7kcYq+nIH+3PcSnhyVT+7Utt1xVnX/ACpKb/lVH/Kr/r6fXP0R/vdQ&#xA;+l9a/SH17w5en63w9K8e1cVeoaVP5j/RdnSxsyPQjoTeSj9gf8u2Kor6x5l/5YLP/pMl/wCyXFVb&#xA;RzKbKsyqkpmn5qjFlDes9QGIUke9BiqNxVJ0m1pb/UBa2ltLD668XluZImP7iKtVWCQf8Niqr9Y8&#xA;y/8ALBZ/9Jkv/ZLiqXetrn+IuX1S1+s/VKen9Zk4cPV+1z+r15V7cfpxVGrrGkaToVjc6rfW9hbt&#xA;FFGs11KkKFzHUKGkKitFO2Kq+leYdA1j1f0TqdpqPo09b6pPHPw5V48vTZqVoaVxVV0z/eZ/+M9x&#xA;/wAn3xVF4qktzr+haPPdNq2pWunLNcUha7mjgDlYIqhfUZa0r2xVHajrGkaZai71K+t7G1Zgq3Fz&#xA;KkUZZhUAO5VakDFUr/Sul/pj9J/XIP0b+jfW+veonoel6tfU9WvDjTvWmKvA/wA6Py2/Mbz7r+gp&#xA;e3FlpHkSxW3hglmu40dhIqfWLkxtQNJxqEWvQdqnFWvLP5Qedvy3/N19e8mzWU/kq8YBrSa9RHks&#xA;ZqMyAP8AaaFv7tq70FTucVfSWmf7zP8A8Z7j/k++KovFXjX/ADkL+VN3+YHlS5GmzRQ6vo159atv&#xA;rDCOKSNrWNZo2kOyVAVgx2+Gh61CrxrU/LP/ADkV+Zmj6R5Y15bG18u6TKiy6obi0MfONPSWSd4Z&#xA;pTK6oWoEG9d/HFX0h/hrQv0N/hP60P0L/h39DfWea/3HH6rXlXjy4/jir5U1bTNU/Nv/AJyD/wAL&#xA;apqMlpY20ktlb7cvRtrCJiwhRjTlL6Ravi1d6UxVjX59fly35eeb7by3Fqk2p6b9SS8071/twxzS&#xA;yK0RA+H+8iZvhAG/StcVff8Apn+8z/8AGe4/5PviqLxV8if85leaNZGuWHlaGdotLmH165iDcUml&#xA;Kxxx+p0BEfpkiu29fDFWP/nX/wA4+f8AKs/Idnqtlr094t5cw2mr2TgRwyTGOSRJIwp3CFCAGqd6&#xA;164qiPTk/wChTeXE8acq0NOP6a41+VdsVS785Fso/wA+bSLy7fL5Y1WOCxe+1u4naC3S6ktVl9cM&#xA;ilkX0nRW68mr4nFWf+RvyHtPNvnSHzJ5u/MLT/OVzaNHK9pptwl2ZBCwKJJJy+GIU3VU38Rir6a0&#xA;z/eZ/wDjPcf8n3xVF4q+W/8AnNAaEuk6U01qz65LfyrZ3ikhUt47aAzo+xDcmePiPnTvVVi2j/lf&#xA;rP5g2ei6f5i/NzSbyyhjRrXSo7363dRVULw9CRoT6gHw8mr93VV9Ff8AKrvKn6A/5V76L/4f/Q/1&#xA;SnIer/f+p63KlPU9X95WlOXbFXh/mz8xf+cdvNOt3Wnef9AvLHW9GlfTP0xaMzCWO1kMKuxhZGNQ&#xA;taPE3HoGOKvHfNY8mweedMP5PzarLKHjNs9wB631z1P3Ytgqq5HT7YrXFX6D6N6v1AetxE3qz+oF&#xA;rx5es9aV7VxVHYq8F/PT8w/yu03Xv8IfmH5fm1TTLxUvoL23IMkEhRYvhAaGRPsbsj79OOKvnf8A&#xA;NKL/AJx7GkRyfl9Nqp1lpELQXAP1VYjUuHMwEnMbAcWI/Xir1T6157/6Fd9bnd/pL9FU9Sr/AFj9&#xA;GfpOla/a9P6t/wAk/bFXt11+X/5R+YLW1u9a0fSbu9eGNpblliWZzwA+ORCrt/sjiqP8teSfyq8s&#xA;3JutB0zStPuyCPrUQi9YA9QJGJcA+AOKsl0l0e0LowZGmnKsDUEGd6EHFUZirFNc8ueQ9fmvrbzN&#xA;YadqBjmUIt6kTyIDBEfgZ/jT/YkYqlGn/lR+SGn3SXdroGjiePdGkWOUA+IWQutfA0xVkn1/Tv8A&#xA;EfqfWYfQ+pcOfNeHL1a8a1pWnbFX/9k=</xapGImg:image>
    </rdf:li>
   </rdf:Alt>
  </xap:Thumbnails>
 </rdf:Description>

 <rdf:Description rdf:about='uuid:8584a110-4696-11de-8879-001124740a56'
  xmlns:xapMM='http://ns.adobe.com/xap/1.0/mm/'>
  <xapMM:DocumentID>uuid:831aaf18-81ce-11da-9137-001124808cba</xapMM:DocumentID>
 </rdf:Description>

 <rdf:Description rdf:about='uuid:8584a110-4696-11de-8879-001124740a56'
  xmlns:dc='http://purl.org/dc/elements/1.1/'>
  <dc:format>image/svg+xml</dc:format>
 </rdf:Description>

</rdf:RDF>
</x:xmpmeta>
                                                                                                                                                                                                                                                                                                                                                                                                                                                                                                                                                                                                                                                                                                                                                                                                                                                                                                                                                                                                                                                                                                                                                                                                                                                                                                                                                                                                                                                                                                                                                                                                                                                                                                                                                                                                                                                                                                                                                                                                                                                                                                                                <?xpacket end='w'?>
			</metadata>
		<g id="レイヤー1">
			<g>
				<g>
					<path d="M46.625,674.875c0,12.2167969-7.2861328,18.5-21.5,18.5c-13.0693359,0-21.5-7.3554688-21.5-19.25l12.7998047,1
						c0,6.5126953,3.2509766,9.75,8.2001953,9.75c4.9873047,0,8.2998047-3.0488281,8.2998047-9.5
						c0-6.1904297-3.2783203-9.75-8.2998047-9.75c-4.9814453,0-8.2001953,3.2822266-8.2001953,9.5l-12.7998047-1
						c0-11.6796875,6.7216797-19,17-19c5.1484375,0,9.4785156,2.4404297,12.3994141,7h0.2001953l0.2001953-6H46.625V674.875z"/>
					<path d="M22.125,692.125c-3.3105469,2.5244141-4.5,4.3027344-4.5,5.5c0,1.6845703,1.3496094,2.5732422,7.5,3
						c17.2109375,1.2119141,22,5.3876953,22,15.5c0,9.1611328-8.1669922,15-24.5,15c-6.2412109,0-13.2910156-1.4863281-19-4
						v-11.7998047c6.0478516,3.1474609,13.2119141,5,19,5c8.5957031,0,11.5-1.890625,11.5-5.2001953
						c0-2.7236328-1.8671875-4.0087891-13-5c-10.2666016-0.921875-15-4.6582031-15-10.5c0-3.96875,2.1748047-7.8945312,8-13
						L22.125,692.125z"/>
				</g>
				<g>
					<path d="M45.625,524.625c0,12.0703125-7.2177734,18.5-20.25,18.5c-12.6147461,0-20.5-7.140625-20.5-19l10.3500977,0.5
						c0,7.390625,3.7416992,11.0996094,9.8999023,11.0996094c5.8393555,0,9.699707-3.546875,9.699707-10.8496094
						c0-6.9814453-4.0161133-11.1503906-9.699707-11.1503906c-6.1240234,0-9.8999023,3.8046875-9.8999023,10.9003906L4.875,524.125
						c0-11.7998047,6.6572266-19,17-19c5.496582,0,10.0463867,2.5117188,13.0493164,7.25h0.2001953l0.2001953-6.25H45.625V524.625z"
						/>
					<path d="M21.625,541.625c-2.9047852,2.1923828-4.3999023,4.4140625-4.3999023,5.75
						c0,2.2558594,1.7202148,3.4873047,8.3999023,4c15.8901367,1.2099609,20.75,5.4873047,20.75,15
						c0,9.0751953-7.7680664,14.75-23.25,14.75c-6.1689453,0-13.0170898-1.4921875-18.5-4v-9.75
						c6.0083008,3.1894531,13.0444336,5,18.5,5c8.8696289,0,12.7998047-2.65625,12.7998047-6.5
						c0-3.5917969-2.5883789-5.5195312-13.7998047-6.5498047C12.0195312,558.40625,7.375,554.7363281,7.375,549.125
						c0-3.5644531,2.0092773-7.5146484,7-12.25L21.625,541.625z"/>
				</g>
				<g>
					<path d="M44.625,374.375c0,11.9248047-7.1494141,18.5-19,18.5c-12.1601562,0-19.5-6.9267578-19.5-18.75h7.9003906
						c0,8.2685547,4.2324219,12.4501953,11.5996094,12.4501953c6.6914062,0,11.0996094-4.0449219,11.0996094-12.2001953
						c0-7.7724609-4.7539062-12.5498047-11.0996094-12.5498047c-7.2666016,0-11.5996094,4.3251953-11.5996094,12.2998047H6.125
						c0-11.9199219,6.5927734-19,17-19c5.8447266,0,10.6142578,2.5820312,13.6992188,7.5h0.2001953l0.2001953-6.5H44.625V374.375z"
						/>
					<path d="M23.625,424.4248047c9.1435547,0,14.0996094-3.4208984,14.0996094-7.7998047
						c0-4.4589844-3.3095703-7.0302734-14.5996094-8.0996094c-9.9443359-0.9169922-14.5-4.5185547-14.5-9.9003906
						c0-3.1601562,1.84375-7.1347656,6-11.5l6.5,4c-2.4990234,1.8603516-4.2998047,4.5244141-4.2998047,6
						c0,2.8261719,2.0908203,4.4013672,9.2998047,5c14.5693359,1.2080078,19.5,5.5869141,19.5,14.5
						c0,8.9892578-7.3691406,14.5-22,14.5c-6.0966797,0-12.7431641-1.4980469-18-4v-7.7001953
						C11.59375,422.65625,18.5019531,424.4248047,23.625,424.4248047z"/>
				</g>
				<g>
					<path d="M43.375,224c0,11.9272461-6.5932617,18.5-18,18.5c-11.2436523,0-18.25-7.0942383-18.25-18.625h4.9501953
						c0,9.2231445,4.9902344,14.4750977,13.2998047,14.4750977c8.2519531,0,13.0498047-4.875,13.0498047-14.3500977
						c0-8.7436523-5.4609375-14.5249023-13.0498047-14.5249023c-8.2597656,0-13.2998047,5.3237305-13.2998047,14.3999023H7.125
						c0-11.5791016,6.6328125-18.75,17-18.75c6.2929688,0,11.3144531,3.1142578,14.2495117,8.4414062h0.2001953L38.6748047,206.125
						H43.375V224z"/>
					<path d="M23.8183594,256.3222656C15.1289062,255.4389648,10.375,252.8388672,10.375,247.625
						c0-2.9545898,1.8027344-6.2973633,5.6923828-9.894043l3.8652344,2.7880859
						c-2.8022461,2.1425781-4.4575195,4.5722656-4.4575195,6.355957c0,2.5,1.4550781,4.3950195,9.956543,5.2529297
						C39.6000977,253.5170898,44.625,257.6704102,44.625,266.625c0,8.8867188-7.2255859,14.5-20.75,14.5
						c-6.1210938,0-12.5678711-1.4624023-17.75-4v-4.9804688c5.5869141,3.0058594,12.21875,4.6303711,17.75,4.6303711
						c10.0507812,0,15.7998047-4.046875,15.7998047-10.1499023
						C39.6748047,260.9726562,36.6567383,257.6767578,23.8183594,256.3222656z"/>
				</g>
				<g>
					<path d="M40.125,64.5078125V56.125h2v17.5c0,11.9296875-6.0371094,18.5-17,18.5c-10.3271484,0-17-7.2617188-17-18.5h2
						c0,10.1777344,5.7475586,16.5,15,16.5c9.8125,0,15-5.7050781,15-16.5c0-9.7148438-6.1679688-16.5-15-16.5
						c-9.2524414,0-15,6.3222656-15,16.5h-2c0-11.2382812,6.6728516-18.5,17-18.5
						c6.7412109,0,12.0146484,3.6464844,14.7998047,9.3828125H40.125z"/>
					<path d="M24.5117188,104.1191406C17.0766602,103.2695312,12.125,101.6708984,12.125,96.625
						c0-2.7490234,1.7612305-5.4599609,5.3847656-8.2880859l1.2304688,1.5761719
						C15.6347656,92.3378906,14.125,94.5332031,14.125,96.625c0,2.1738281,0.8193359,4.3886719,10.6132812,5.5058594
						C38.5058594,103.7011719,43.625,107.6289062,43.625,116.625c0,8.7841797-7.0820312,14.5-19.5,14.5
						c-6.1455078,0-12.3925781-1.4267578-17.5-4v-2.2607422c5.2050781,2.7802734,11.5605469,4.2607422,17.5,4.2607422
						c10.9580078,0,17.5-4.6728516,17.5-12.5C41.625,109.7792969,38.8984375,105.7587891,24.5117188,104.1191406z"/>
				</g>
			</g>
			<g>
				<rect x="0.125" y="0.125" fill="none" stroke="#000000" stroke-width="0.25" width="50" height="150"/> 
				<rect x="0.125" y="150.125" fill="none" stroke="#000000" stroke-width="0.25" width="50" height="150"/> 
				<rect x="0.125" y="300.125" fill="none" stroke="#000000" stroke-width="0.25" width="50" height="150"/> 
				<rect x="0.125" y="450.125" fill="none" stroke="#000000" stroke-width="0.25" width="50" height="150"/> 
				<rect x="0.125" y="600.125" fill="none" stroke="#000000" stroke-width="0.25" width="50" height="150"/> 
				<rect x="100.125" y="0.125" fill="none" stroke="#000000" stroke-width="0.25" width="50" height="150"/> 
				<rect x="100.125" y="150.125" fill="none" stroke="#000000" stroke-width="0.25" width="50" height="150"/> 
				<rect x="100.125" y="300.125" fill="none" stroke="#000000" stroke-width="0.25" width="50" height="150"/> 
				<rect x="100.125" y="450.125" fill="none" stroke="#000000" stroke-width="0.25" width="50" height="150"/> 
				<rect x="100.125" y="600.125" fill="none" stroke="#000000" stroke-width="0.25" width="50" height="150"/> 
			</g>
			<g>
				<g>
					<path d="M146.625,674.875c0,12.2167969-7.2861328,18.5-21.5,18.5c-13.0693359,0-21.5-7.3554688-21.5-19.25l12.7998047,1
						c0,6.5126953,3.2509766,9.75,8.2001953,9.75c4.9873047,0,8.2998047-3.0488281,8.2998047-9.5
						c0-6.1904297-3.2783203-9.75-8.2998047-9.75c-4.9814453,0-8.2001953,3.2822266-8.2001953,9.5l-12.7998047-1
						c0-11.6796875,6.7216797-19,17-19c5.1484375,0,9.4785156,2.4404297,12.3994141,7h0.2001953l0.2001953-6H146.625V674.875z"/>
					<path d="M122.125,692.125c-3.3105469,2.5244141-4.5,4.3027344-4.5,5.5c0,1.6845703,1.3496094,2.5732422,7.5,3
						c17.2109375,1.2119141,22,5.3876953,22,15.5c0,9.1611328-8.1669922,15-24.5,15c-6.2412109,0-13.2910156-1.4863281-19-4
						v-11.7998047c6.0478516,3.1474609,13.2119141,5,19,5c8.5957031,0,11.5-1.890625,11.5-5.2001953
						c0-2.7236328-1.8671875-4.0087891-13-5c-10.2666016-0.921875-15-4.6582031-15-10.5c0-3.96875,2.1748047-7.8945312,8-13
						L122.125,692.125z"/>
				</g>
				<g>
					<path d="M145.625,524.625c0,12.0703125-7.2177734,18.5-20.25,18.5c-12.6147461,0-20.5-7.140625-20.5-19l10.3500977,0.5
						c0,7.390625,3.7416992,11.0996094,9.8999023,11.0996094c5.8393555,0,9.699707-3.546875,9.699707-10.8496094
						c0-6.9814453-4.0161133-11.1503906-9.699707-11.1503906c-6.1240234,0-9.8999023,3.8046875-9.8999023,10.9003906
						l-10.3500977-0.5c0-11.7998047,6.6572266-19,17-19c5.496582,0,10.0463867,2.5117188,13.0493164,7.25h0.2001953l0.2001953-6.25
						H145.625V524.625z"/>
					<path d="M121.625,541.625c-2.9047852,2.1923828-4.3999023,4.4140625-4.3999023,5.75
						c0,2.2558594,1.7202148,3.4873047,8.3999023,4c15.8901367,1.2099609,20.75,5.4873047,20.75,15
						c0,9.0751953-7.7680664,14.75-23.25,14.75c-6.1689453,0-13.0170898-1.4921875-18.5-4v-9.75
						c6.0083008,3.1894531,13.0444336,5,18.5,5c8.8696289,0,12.7998047-2.65625,12.7998047-6.5
						c0-3.5917969-2.5883789-5.5195312-13.7998047-6.5498047c-10.1054688-0.9189453-14.75-4.5888672-14.75-10.2001953
						c0-3.5644531,2.0092773-7.5146484,7-12.25L121.625,541.625z"/>
				</g>
				<g>
					<path d="M144.625,374.375c0,11.9248047-7.1494141,18.5-19,18.5c-12.1601562,0-19.5-6.9267578-19.5-18.75h7.9003906
						c0,8.2685547,4.2324219,12.4501953,11.5996094,12.4501953c6.6914062,0,11.0996094-4.0449219,11.0996094-12.2001953
						c0-7.7724609-4.7539062-12.5498047-11.0996094-12.5498047c-7.2666016,0-11.5996094,4.3251953-11.5996094,12.2998047H106.125
						c0-11.9199219,6.5927734-19,17-19c5.8447266,0,10.6142578,2.5820312,13.6992188,7.5h0.2001953l0.2001953-6.5H144.625V374.375z"
						/>
					<path d="M123.625,424.4248047c9.1435547,0,14.0996094-3.4208984,14.0996094-7.7998047
						c0-4.4589844-3.3095703-7.0302734-14.5996094-8.0996094c-9.9443359-0.9169922-14.5-4.5185547-14.5-9.9003906
						c0-3.1601562,1.84375-7.1347656,6-11.5l6.5,4c-2.4990234,1.8603516-4.2998047,4.5244141-4.2998047,6
						c0,2.8261719,2.0908203,4.4013672,9.2998047,5c14.5693359,1.2080078,19.5,5.5869141,19.5,14.5
						c0,8.9892578-7.3691406,14.5-22,14.5c-6.0966797,0-12.7431641-1.4980469-18-4v-7.7001953
						C111.59375,422.65625,118.5019531,424.4248047,123.625,424.4248047z"/>
				</g>
				<g>
					<path d="M143.375,224c0,11.9272461-6.5932617,18.5-18,18.5c-11.2436523,0-18.25-7.0942383-18.25-18.625h4.9501953
						c0,9.2231445,4.9902344,14.4750977,13.2998047,14.4750977c8.2519531,0,13.0498047-4.875,13.0498047-14.3500977
						c0-8.7436523-5.4609375-14.5249023-13.0498047-14.5249023c-8.2597656,0-13.2998047,5.3237305-13.2998047,14.3999023H107.125
						c0-11.5791016,6.6328125-18.75,17-18.75c6.2929688,0,11.3144531,3.1142578,14.2495117,8.4414062h0.2001953l0.1000977-7.4414062
						H143.375V224z"/>
					<path d="M123.8183594,256.3222656C115.1289062,255.4389648,110.375,252.8388672,110.375,247.625
						c0-2.9545898,1.8027344-6.2973633,5.6923828-9.894043l3.8652344,2.7880859
						c-2.8022461,2.1425781-4.4575195,4.5722656-4.4575195,6.355957c0,2.5,1.4550781,4.3950195,9.956543,5.2529297
						C139.6000977,253.5170898,144.625,257.6704102,144.625,266.625c0,8.8867188-7.2255859,14.5-20.75,14.5
						c-6.1210938,0-12.5678711-1.4624023-17.75-4v-4.9804688c5.5869141,3.0058594,12.21875,4.6303711,17.75,4.6303711
						c10.0507812,0,15.7998047-4.046875,15.7998047-10.1499023
						C139.6748047,260.9726562,136.6567383,257.6767578,123.8183594,256.3222656z"/>
				</g>
				<g>
					<path d="M140.125,64.5078125V56.125h2v17.5c0,11.9296875-6.0371094,18.5-17,18.5c-10.3271484,0-17-7.2617188-17-18.5h2
						c0,10.1777344,5.7475586,16.5,15,16.5c9.8125,0,15-5.7050781,15-16.5c0-9.7148438-6.1679688-16.5-15-16.5
						c-9.2524414,0-15,6.3222656-15,16.5h-2c0-11.2382812,6.6728516-18.5,17-18.5
						c6.7412109,0,12.0146484,3.6464844,14.7998047,9.3828125H140.125z"/>
					<path d="M124.5117188,104.1191406C117.0766602,103.2695312,112.125,101.6708984,112.125,96.625
						c0-2.7490234,1.7612305-5.4599609,5.3847656-8.2880859l1.2304688,1.5761719
						C115.6347656,92.3378906,114.125,94.5332031,114.125,96.625c0,2.1738281,0.8193359,4.3886719,10.6132812,5.5058594
						C138.5058594,103.7011719,143.625,107.6289062,143.625,116.625c0,8.7841797-7.0820312,14.5-19.5,14.5
						c-6.1455078,0-12.3925781-1.4267578-17.5-4v-2.2607422c5.2050781,2.7802734,11.5605469,4.2607422,17.5,4.2607422
						c10.9580078,0,17.5-4.6728516,17.5-12.5C141.625,109.7792969,138.8984375,105.7587891,124.5117188,104.1191406z"/>
				</g>
			</g>
			<g>
				<polygon points="25.0253906,636.625 19.125,649.125 4.125,649.125 16.125,631.125 34.125,631.125 46.125,649.125 
					31.125,649.125 25.2246094,636.625 "/>
				<polygon points="25.0253906,486.375 18,499.125 5.125,499.125 17.625,481.625 32.625,481.625 45.125,499.125 32.25,499.125 
					25.2246094,486.375 "/>
				<polygon points="25.0253906,336.125 16.875,349.125 6.125,349.125 19.125,332.125 31.125,332.125 44.125,349.125 
					33.375,349.125 25.2246094,336.125 "/>
				<polygon points="14.1201172,199.125 7.375,199.125 21.375,182.625 28.875,182.625 42.875,199.125 36.1298828,199.125 
					25.2246094,185.309082 25.0249023,185.309082 "/>
				<polygon points="41.625,49.125 38.8847656,49.125 25.2246094,34.4931641 25.0244141,34.4931641 11.3652344,49.125 8.625,49.125 
					23.625,33.125 26.625,33.125 "/>
			</g>
			<g>
				<path d="M125.125,46.125c7.7763672,0,13-5.1708984,13-10h2c0,6.2973633-6.4091797,12-15,12s-15-5.7026367-15-12h2
					C112.125,40.9541016,117.3486328,46.125,125.125,46.125z"/>
				<path d="M136.375,184.875h4.75c0,8.0849609-6.5727539,14-16,14s-16-5.9150391-16-14h4.75
					c0.1606445,5.3461914,4.6083984,9.5,11.25,9.5S136.2143555,190.2211914,136.375,184.875z"/>
				<path d="M125.125,349.625c10.2636719,0,17-6.1269531,17-16h-7.5c-0.3212891,5.8632812-3.9931641,9-9.5,9
					s-9.1787109-3.1367188-9.5-9h-7.5C108.125,343.4980469,114.8613281,349.625,125.125,349.625z"/>
				<path d="M133.875,482.375c-0.5234375,6.8544922-3.6479492,9.75-8.75,9.75s-8.2265625-2.8955078-8.75-9.75h-9
					c0,11.6660156,6.8227539,18,17.75,18s17.75-6.3339844,17.75-18H133.875z"/>
				<path d="M133.125,631.125c-0.7255859,7.8457031-3.3027344,10.5-8,10.5s-7.2744141-2.6542969-8-10.5h-10.5
					c0,13.4589844,6.9091797,20,18.5,20s18.5-6.5410156,18.5-20H133.125z"/>
			</g>
		</g>
	</svg>
