<?xml version="1.0" encoding="utf-8"?>
<!-- Generator: Adobe Illustrator 11 Build 225, SVG Export Plug-In . SVG Version: 6.0.0 Build 78)  -->
<!DOCTYPE svg PUBLIC "-//W3C//DTD SVG 1.0//EN"    "http://www.w3.org/TR/2001/REC-SVG-20010904/DTD/svg10.dtd" [
	<!ENTITY ns_flows "http://ns.adobe.com/Flows/1.0/">
	<!ENTITY ns_svg "http://www.w3.org/2000/svg">
	<!ENTITY ns_xlink "http://www.w3.org/1999/xlink">
]>
<svg  xmlns="&ns_svg;" xmlns:xlink="&ns_xlink;" xmlns:a="http://ns.adobe.com/AdobeSVGViewerExtensions/3.0/"
	 width="250.25" height="750.25" viewBox="0 0 250.25 750.25" overflow="visible" enable-background="new 0 0 250.25 750.25"
	 xml:space="preserve">
	<metadata>
		<x:xmpmeta  x:xmptk="XMP toolkit 3.0-29, framework 1.6" xmlns:x="adobe:ns:meta/">
			<rdf:RDF  xmlns:iX="http://ns.adobe.com/iX/1.0/" xmlns:rdf="http://www.w3.org/1999/02/22-rdf-syntax-ns#">
				<rdf:Description  rdf:about="" xmlns:pdf="http://ns.adobe.com/pdf/1.3/"></rdf:Description>
				<rdf:Description  rdf:about="" xmlns:tiff="http://ns.adobe.com/tiff/1.0/"></rdf:Description>
				<rdf:Description  rdf:about="" xmlns:xapGImg="http://ns.adobe.com/xap/1.0/g/img/" xmlns:xap="http://ns.adobe.com/xap/1.0/">
					<xap:CreateDate>2005-10-18T08:31:30Z</xap:CreateDate>
					<xap:ModifyDate>2005-10-18T08:31:30Z</xap:ModifyDate>
					<xap:CreatorTool>Illustrator</xap:CreatorTool>
					<xap:Thumbnails>
						<rdf:Alt>
							<rdf:li  rdf:parseType="Resource">
								<xapGImg:format>JPEG</xapGImg:format>
								<xapGImg:width>172</xapGImg:width>
								<xapGImg:height>256</xapGImg:height>
								<xapGImg:image>/9j/4AAQSkZJRgABAgEASABIAAD/7QAsUGhvdG9zaG9wIDMuMAA4QklNA+0AAAAAABAASAAAAAEA
AQBIAAAAAQAB/+4ADkFkb2JlAGTAAAAAAf/bAIQABgQEBAUEBgUFBgkGBQYJCwgGBggLDAoKCwoK
DBAMDAwMDAwQDA4PEA8ODBMTFBQTExwbGxscHx8fHx8fHx8fHwEHBwcNDA0YEBAYGhURFRofHx8f
Hx8fHx8fHx8fHx8fHx8fHx8fHx8fHx8fHx8fHx8fHx8fHx8fHx8fHx8fHx8f/8AAEQgBAACsAwER
AAIRAQMRAf/EAaIAAAAHAQEBAQEAAAAAAAAAAAQFAwIGAQAHCAkKCwEAAgIDAQEBAQEAAAAAAAAA
AQACAwQFBgcICQoLEAACAQMDAgQCBgcDBAIGAnMBAgMRBAAFIRIxQVEGE2EicYEUMpGhBxWxQiPB
UtHhMxZi8CRygvElQzRTkqKyY3PCNUQnk6OzNhdUZHTD0uIIJoMJChgZhJRFRqS0VtNVKBry4/PE
1OT0ZXWFlaW1xdXl9WZ2hpamtsbW5vY3R1dnd4eXp7fH1+f3OEhYaHiImKi4yNjo+Ck5SVlpeYmZ
qbnJ2en5KjpKWmp6ipqqusra6voRAAICAQIDBQUEBQYECAMDbQEAAhEDBCESMUEFURNhIgZxgZEy
obHwFMHR4SNCFVJicvEzJDRDghaSUyWiY7LCB3PSNeJEgxdUkwgJChgZJjZFGidkdFU38qOzwygp
0+PzhJSktMTU5PRldYWVpbXF1eX1RlZmdoaWprbG1ub2R1dnd4eXp7fH1+f3OEhYaHiImKi4yNjo
+DlJWWl5iZmpucnZ6fkqOkpaanqKmqq6ytrq+v/aAAwDAQACEQMRAD8A9U4q7FXYq7FXYq7FXYq7
FXYqhtT1Kx0vTbvU7+UQWNjDJc3c5BISKFC8jkKCfhVSdhiqJxV2KuxV2KuxV2KuxV2KuxV2KuxV
2KsW/Kx3f8uvLruxZmsYSWJqSePjirKcVdirzfyzp2tRXXlUz21yiwXmvtdGRJAESW4mMBkqNg6k
FK9R0xV6RirsVedfmP5ovob/AEXTItC1SZf0zaFbiBbb0rj0Fa6KRFp1ev7mvxKv2T2xVS0PzfqF
z+Y+tyny3q6RtZ6VYlGW0pAUlu5mkkpcmgZbpfs1NF6Yq9KxV4n5/i0vWNG/MyPX72WTW9L0+/fS
NGeeSGKGzSwLw3MNurIk3qPyLSsGofg2pTFXp2ieStJ0PUGu9KmvLeB42jk01rqaazLFgwlEMzSC
NxxpWMrWp5V2oqn2KvPrfyx5b81ec/Nb+ZbGDWJNLubax020vY1mit7V7C3ufUhjkDKryTzSgyqO
R4ha/DiqWadrmpxeU18r6HdSSalf6pqOkaBfuxleHT7S5dJrss1eS2UdYkLV5OIwftYq9J0jS7LS
dLtNLskKWdlCkECkliEjUKOTHdjtuTuTirEvzIt7CbUfLia/H63lGW5kg1SJ/wDeY3MyBbH62vRo
DJySjVT1GTl2xVBeWtN8s2v5jPD5KtIbLSbGxuIPMSaeixaebxpYTaxCOICE3MapMXKjkqkBvtCi
r0XFWN6Tb3qefPMU8kUi2ctnpi28rKwjZ0N16gRj8JK8l5U8RXFWSYq7FXYqxr8tLS6s/IGgWt3D
Jb3MNlEk0EqlJEYLurKwBB+eKslxV2KuxV2KuxV5r5x8weY285+V7WPyvdyrZajeXVs63NiouFis
Lm15JymBUcbrlR6H6dsVXeR9c8wXXnHzTLN5buoIp9St7ae4e4s3W3EGn254twmZm+KQmkYYb+NQ
FXpGKsG/OfRtE1T8sfNM1/ZW95NYaRqM1nLNGkjwTR2sjB42YEowKjcYqutbW68q+bdH0mz1C4vN
D1tbmJdOvZXupLSW2i9YSw3Epeb0So9NkdmAJTjx3BVZvirHvMnk3ynqkzarq0TwzwQlJ763urix
c26VcpNLbSQGSJak8XJXrtirzvStPubufRLrTuegWnmeU2Oki2VYpbLy9Y28lzFDCGBEU17IgkkI
HII1PtICFWY6XBf+XvPNroiald6hpGr6fdXkUN9K1zLbXFjLbxsUmespjlW7FQ7EKyjjTliqjqum
nzr5k1fQNTmkj8r6OsEN3pcLGJr+e4jE5NxIhEn1dI2VRGpAduXOqjjiqVfpf/lVWlS6NexmTy3F
DO3le/RSWWRVaRNMuAo+KVj8Nu/WX7J+MVdVn3lu31G38vaXb6nK0+pQ2kEd9MxqzzrEolYkdSzg
nFUxxV2KuxV2KoXStP8A0dpttY/WZ7z6tGI/rV2/qzycf2pHoOTHuaYqisVdirsVdirsVS+60S1u
dasNXkeQXOnR3EUEYI9Mi69PmWBBPIeiONCOpxV2k6JaaXJqEkDyO+pXb3twZCD+8dEjovELRQkS
gfrxVMMVYL57/K601zR/MK6Ncz6TrGtWVzBKYbiSKzuJpoDEpuoKSxEGoDusfqce9aYqnmh+S9L0
q/bVGnutS1d4zAdR1Cdp5ViJDNHEvwxRKzKCwjReRpXoMVT7FUs8yeX7PzBpMmk3skqWVw0Zuo4S
q+tEjh2gclW/dyheEgFCVJFcVWeYvLVlrlnBBLLNZ3FnMtzp9/aMqT206KyCSIusifYdkKurKykg
gg4qhdA8oDTdTm1i/wBTuta1maEWwvbwQp6VuG5mKGK3jhjRWajMeJZiBU7CirWteTo77VBrGn6l
eaJq/pLBNd2JhYTxRlmjjnhuI54ZAhduLcQ4qaMMVS+4/LHTtVP/ADtepXvmZFVhFa3xhitY2deP
Nbe0itkLqCeDycmU7qQcVZLo2nNpml2untd3F/8AVYxELu8ZXuJAuwMjosYZqbcqVPU1O+KozFXY
q7FXYq7FXYq7FXYq7FXYq7FXYq7FXYq7FXYq7FXYq7FXYq7FXYq7FXYq7FXYqkPkXzhY+cPK9p5h
sYZbe1u3nRIZ+PqA21xJbtXiWG7REjfpiqfYq7FWIaT+ZelanJpKRWs6HV9U1DR4OfD4ZdNS4eR2
ox+BhaNxpvuK4qy/FXYqkvmnzVZ+XYdNkuopJv0nqVppUCxcaiW9lEaseRHwr9pqb0xV0Pmqzm85
XflVIZDd2dhBqM1xQeiFuJZIkjrWvP8AclunTFU6xV5t+ZP5y6d5bttd03RrS81jzJpWnzXc6Wds
09tYt6LSQyX0paJEj25MA3Lj26YqmHkX807HzHJZ6Ze6bqWj63cWouUg1C0aCKdVVTJJbyqZYnSr
VHx1p2xVnOKsK1/8yLm08xXHl7y95evfMup6fDHcasLSS3gitUmBMSPLcSRqZXUcljXfjviqZaL5
+8uap5Qk81iV7TS7ZJ31AXS+nLatalluIp034vEyEECvtUUxVMPLOtNrmgWGsGzmsBfwrOlpc8RM
iPunMKWAJWhpXbFUr87+frHyr+jrb6ldarrOszNBpOkWKq087xrzkasjIiRxru7s2wxVAaB+ZU91
5kt/LXmLy/e+WtZvYZLjTY7l7e4guUgoZVintZJU5orBmVqbYqzbFUqs/MVrdeZdU0BInW50q2s7
qaU04Mt806oFoa1X6q1ajuMVTXFXYq7FXmv/ADjj/wCSd0X/AIz6l/3U7nFXpWKuxVhGi/ljBpcm
jOuoNL+h9X1LWVBjC+o2ppcoYj8R4iP659rvx6CuKs3xV2KvH/ze8r3955o8nxJ5k1WFNU8wQtHZ
xmyEFqLW0nm9W35WzSeoGjFPUZ13O3Siqh5O8n6lL+bnnB2826zI2jx6PbtKzWBe4VopLow3FLQL
wHqCgjCNRjU7iir2fFXhX5laB548paV+Y99pNhBrnlfzZZXdzfkTLb3unytYtBLKQ44TwhV5cVIc
dKeKrOPyt/Mjyx5g02z0O3eaz17T7G3N1pF/C9tciMRqvqorikkZ7MhI3HjirPcVeaTS+ZPJ3n7z
Nqi+Xr3XtG8zfVLq3m0sQvNBc2lqlq8E8cskJ4usSsrgkCtDirz71VhS70Xzg66Vo/6Ul82efIEb
6wkbX1wG0zRf3QYyySlUllVF+ILt9rFXtHlf8w/LPmS9uNPsJLiDU7WNZ5tOv7aeyufRc0WZYrlI
2aMnbktRX5jFWGfnlf2+mXnljW9KuBL560q6kfQNDRHml1CG4QR3lt6cQZ0Vo1B9UjihUVxVD/l5
qF75+19fzI1uWLT7Py8t5YaZ5ajLPcWUrEJdy6gzLGwnZI6CPjRVodzuVXqWia1put6RZ6xpc31j
Tr+JLi0n4unOOQVVuLhXFR2IriqDsfLiWnmvV/MInLvqtrY2jW/GgjFi1wwYNXfn9a6U2piqc4q7
FXYqwz8nbLRrH8vNNttG+uDTklvTD+ko1iuqtezNJzRdgPULcPFaHFWZ4q7FXYq7FXYq8e87fl89
5+anlDhq2uehdSave3Ekd7KEtStuqqsDdIAxuOAUdV26A4q3+WXkF083+b9Wm1TWh9V1xILcT3kt
LqO1s7ejXAP9+tWKgn9kU7Yq9gxV5J+b3n++sPK3nPQtW8t6lDbXGl30Ol63axG8splls2VTO8NW
tmDsQfUWlBy5UxVL/Kj3/nLzj5C1jT9CvLDSfKWnzi91rUbdrT6011ZC3jt7VXpJKgYmQuV47be6
r2vFUl85+Y/8OeWr7V0tZb64gQLaWMCs8k9xIQkMSqtT8UjAE9hv2xV5hrfkrUfLHlfyxrWoQNrO
oWPmGLzF50e2iMrySzRSxyXEcagu62byp6aqPsJWm2KprYa/pvnf82NB1fyys1xpPl/T79dU1gwS
QQyPfeiILRGlVGkZTE0jACi7b1JGKofVNVg8k/nFrPmXzPa3B0PW9Os7XSddigluYrI2xf6xay+i
sjxCZ2WSvHiaexoqw38xtU/xNf3Wp/k1DqF55j1K0msvMc1vaywadPZmB1DTyXIgQ3cdR6DIS37J
22xV7V+W91os/kbRU0ZZotPtLSG0iguo2huIvq6CIxzRtusi8fi8eoJG+KskxV2KuxV2KuxV2Kux
V2KuxV2KuxV2KuxVD6jp9lqOn3On30K3FleRPb3UD/ZkilUo6N7MpIxVUt7eG2t4reBBHBCixxRj
oqKKKB8gMVVMVdirsVdirsVdirsVdirsVdirsVdirsVdirsVdirsVdirsVdiqncXFvbW8tzcypBb
wI0k00jBEREHJmZmoAoAqScVdb3Fvc28VzbSpPbzoskM0bB0dHHJWVlqCpBqCMVVMVdirsVdirsV
dirsVdirsVdirsVeS/8AOM/mLXde8h6hea1fz6jdR6xdwJPcOZHESLHxQFv2RU0GKvWsVdirwGy8
3+aH0by9K2q3JkuPzIl0udzK1XsRJdAWzb7xfAvw9NsVe/Yq7FXhH57fnh5Z0i80zy5p3mCWx1ux
12w/xBHCl3GYtPoZLgtIkfGROLJVY2LGuw2xVBaT/wA5F+R7z86LmX/E0x8qTaVBY6ZAYbwQyajJ
chmYQ+jVW4njzdR86Yq+hMVfOH5leaPPfnTUvzM0HTdaTy/5b8laVM17YpBHLc6lztZXdWdzyjjP
plSU7EbEnZVln5I+XPzP03RPKV7N5og1byde6RbSy6TdWqxXNoJLRWgjtp46l1QlVPqH7I6VNcVe
x4q8bvrXzF5//NrzX5ebzNqfl7Q/KFvp6W9voswtZri41CA3Bmml4uzKlOPDp0/yuSqA8v8A5ueY
dJ/LDXP0lMNb82aTr135U0OQKofUryNlW2fiKA7SVbxCnvir1byNomraJ5V07TtZ1KbVtXjj5ahq
E7mRpJ3JeTiT0RWPFB/KBirz/wDPfzL5hs9Z8k+WtO1p/Lem+Zr2e31TXIVHqxCJYzFCkjCkbTNI
QG67eFcVSRG8xfl/+cflLyppnmvVfNOn+YI7k6tpeszre3FrHEnKO5WYKjIpPLt0Ujwoq94xVgGm
6vqkn5463pL3UraZBoNlcQ2ZY+ksz3MqtIF6BmVQCcVZ/irsVdirxj/nFGCeH8utSWaNo2Ot3pCu
CpoVi33xV7PirsVU/qtsAAIkor+oo4jZ/wCYf5XviqpirsVfOf5x/m15bn8/eTtONrqXHy5r0txq
I+pyfvGs1aMG32rN8VT8O1N8Vd+XP5teW7v88PON/wDVtTCeYJNG07SlNnIPTKQmKQ3Ip+6HqsCC
x+zvir6MxV5B+fH5ReTda8t+YvOBjmsPMenaTeTG/sZTC06wWzMIblaMsiMq8G25Fdq0xViX5V+b
vzB8mXv5d+XPMF7DrflXzppcLaHKIxFdWDx2scv1c8f7yNBKiVbcjeooVKr6MxVgfm38odM13zGf
MthrOqeW9cmtxZ3t5pE6wm4gX7Kyq6SAsv7LChH0CirwuN00Z7TW/JlqlxpOnasnlT8vpL9jLHd6
xqLML/WLhl4mT+7McbD4fADjTFXrGleYPzJ8qfmN5f8AK3m/V7XzHpvmqG6+pahFaJYSW11ZRes8
bIjOro6bKTuT4U3VSj83J7/8yPNz/k7pMVtbwW1vFqnmDW7qP1Xtk5KYls46r+9PMVavRiPHFWK+
WtQtvyS1PzLYecbcSa7f211eaB55l9SY6ksUfNbSV5GkMcqsi/ADRjT/ACSyr3D8rdY1/Wvy90HW
Nf4fpbUbRLq49NPTWkxLx0Xt+7ZcVZOIohIZQiiQjiXoORA7VxVdirsVdirHvI/l7zBoOkzWeua/
J5ju5LmSeO+mhEDJE4XjDxDy1CUO9e+KshxV2KuxV2KuxVifmDyIdZ8/eVPNjX3op5WW/Edh6XL1
21CAQFjLzHDgFrTia+2Ku8meQv8ADeu+atXa9F5L5mvxfFBD6XoKqcEi5c5PUp/Nt8sVZZiryH8z
PyV1XUrfzNqnlHzDqWnajrdpcfX9CWVJbG/la2MQj4TlVhaUKsZfl8I6UxVr8p/yNfQ30DzJ5r1O
81bzLpemw2tjY3Lp9W0wGARvBAsZdWMYrHz5UPXrvir1/FUk866Fqmv+V9R0XTNT/Q11qERg/SIi
9do43NJOCc4viZKqG5fDWuKsf8y/lFoWq/l9YeTdPnk0iLR2t59Fv4AGktrm1NY56HiHYkty3Fan
cHfFUD5c/LDzQfOdh5u87eZF17UdGt5bfRbe2tFs4ITcrwnmYBn5ySJ8PYfhRV3nX8pNS1LzhF52
8o+YZPLPmgW31O8m9BLu3uoAQVSWF2UbUG+/QbVFcVSbW/yM80edikH5jecpNU0m3YyW2k6ZZxWE
YmKFFleQmZ3K8jQH+JGKs/8AIHlzXvLflu30bWdb/T8ln+6tb9rf6tL6CgBEl/ezCRlG3Pao6iu5
VZHirsVdirsVdirsVdirsVdirsVdirsVdirsVdirsVdirsVdirsVdirsVdirsVdirsVY75N/MPyf
5zivJfLWofX49Pl+r3bejPDwkIrx/fJHXp1FRirIsVdirD3/ADc/L1NNn1JtWpZW2qnQJpfq9z8O
pChMHH0uR6j4wOH+VirMMVdiqR+bvO3ljyhYW9/5ivfqVpd3KWVvJ6Usxe4lVmRAsKSNuI23pTFW
/wDGnlr/ABd/hD65/wA7ELX6+bH05f8Aeblw5+rw9L7X7PKvtiqd4qw38x/zW8oeQ9KubjVb+3Gq
LbS3Gn6Q0vCe5dFYxxqFWRkWR14cytBiqD/Lf86vI3nmysls9StrfXbiFZLjQ2mrPFIV5PGnNYjL
w7si4qz7FWE+evzl/LzyPfQ6f5h1P0b+eMzJaQxS3EgiFf3jrEr8F+E/a8MVT7y75v8ALXmPQI/M
GjahFdaPKrOLsEoqhPt+oHCtGVp8QYCmKu8p+bvL/m3Rk1ry/cteaZK7xxXJimhDtGeLcRMkbMA2
3ICmKqHnPz55S8l6WNT8y6jHp9qzcIuQZ5JH68Y40DO58aDbvirHPJv5+flX5v1dNH0XWQ+pygmC
2nhmtzLQVIjMqqrNQfZrXFXoWKpOnm7y8/myTykt3XzBFZ/pJ7L05drUyCL1PU4+l9tgOPLl7Yqn
GKuxV2KvnX/nDb/jlecv+2qv/EGxV9FYq7FXhE35D+b38p6jo4vNP+s3fnVvNEbmSb0xZEKPTY+j
X1vh+zTj/lYq93xV2KvmX/nJaz/Mq680eV9KfU9OOiatr1qvlyz4OJorlQsSyXLBfiRXnP2a7HFU
t8t6X+dV5/zkJ5h9PV9I/wAT6Tpttb6nfNA/1VrWcQTKkKcOQk4kfER44q+rMVfHX5z6Vc+V/wAy
/O+u+bvLs2taT5i0y4tfLmshBNDaXM1sIrdjy+BGiYcd6Mv2kr3Venf84/W35Ma9ofla+0yLT288
6BZILoxJ9XvBKYTBM8qUjM4o5HMhgDShrir3fFXz1rfmGy/Lj/nIPzJ5n816fctovmHTrWLRtVgg
e4VHhiijkt/h+yZHiO3+rXY1xV5/5cutdPlK58hWkbeXG8/6vd6xcLcARDTPLYCCSaQNxEYlETIl
aBlX/KU4q+mfIPmL8t59Nt/L3k3V7C9g0m3SKOzs7iOV0hjAQOyqeRqerdyfHFXl/wDzlTotxajy
p5/Vba8tPKd6HvNJu3VFuEmliYBA+zEmHiygE0NaGhxVjUGqy/nZ+Z/lrzboel/oXyh5ImS51LXL
z045ZZImjuTA3FiOKekAN6KrMxpUDFX0zYajp+o2kd5p9zFeWctfSubd1ljbixVuLoSpowIPvirD
LfyHq8f53XPntprc6RNoA0hYAz/WfXF0k/Irw4cOKdeda9sVZ3irsVdirxP/AJxi0nynp2neZ18u
+YH1+OXUA9272Ulj6MnE/uwJHk5/6wpir2zFXYq7FXYq7FXyv+cHlP8AMm4/OXyjpjecPVk1TUL6
+8u1tYwNLRGEiDr++4ooX4v5ffFVP8pPJ35lah+b3nS7h85cLzRb+yttevjZof0kiM4aIA0EXFbf
iePiDir6sxV4T+cP566Fpll528j69pt9pl1cabd2uh37xM9te/WLMopVgAV/fOVrQrtUkdMVeP8A
5XQaZ5j/ADK/LiTyNpU9teaDZ25846nGhhgdo1pKWptVkqhY7yFqb9Sq+1sVSvzT5k0vyx5d1DX9
Vk9Ow02Fp5jtU8fsoterOxCqO5OKvlrzz5W8y3n5N63+ZWtwyfprzdf2d3qNvGSWttBV/wDR7dR2
WvpOfbjy3BxVPmu/y11D87Py1P5UxWwkt47l9bfS4vSRbIxKIxc0UDnx9QNz+LcA7lcVU/zfv9Jt
P+cjtGm/MqN5PIUdoDpAmR5LL1uHxNJGgYPSc/GKHbhy+HFWG/mpr/lHRfMN7e/k1rf1mTzTaXNp
5i8uWMEslv6ckL8riKihFKhmai7oakfCSMVfQX/ONl75al/KDQbLQ79b36hEU1BRUPDdzO1xNG6n
cUeU8T0I3GKvT8VdirsVdiqC0zRNF0pZV0uwtrBZ25zLbQxwh2/mbgFqfc4qjcVdirsVdirsVQs+
k6VPfwahPZQS39qCLW7eJGmiDAhhHIRyWtd6HFXWmlaXZT3M9nZwW094/qXcsMaRvM+/xSMoBdtz
ucVRWKpf5g0LTdf0S+0bUo/VsdQgltp1GzcJkMbFTvxajGh7Yqt8t+XdL8uaFZaJpcZjsbCJIIFY
8m4oAoLN+01BucVTLFUNqOmabqVq1pqNpDe2jkF7e4jWWMlTUEo4ZTQ4qrvDE8TQuitEylGjIBUq
RQqQdqUxVL9H8seWtFaVtG0mz0xp95zZ28UBc9fj9NV5fTiqI1HStL1O2NrqVnBfWxIJguY0lSo6
Hi4YYqhdF8q+V9C5foTR7HS+Y4v9StobeorWh9JV774qq6Z5e0DSXmk0vTbWwe4p9Ye1gjhMnGpH
MxqvKnI9cVR+KuxV2KuxV2KuxV2KuxV2KuxV2KuxV2KuxV2KuxV2KuxV2KuxV2KuxV2KuxV2KuxV
4l/zjf8Amx5v8/X3m6HzDJBImjy2iWXoRCKgma5D8qE8v7lcVe24q7FXzNq35+fmFa+SPPOsRTWw
vdA8xLpWnkwKVFsZHWjrX4moo3xV9JWEzz2NtNJ9uWJHamwqygnFVfFXiH/OQv56P5Os7PT/ACpq
1j/iT68kOpWsvGZ4IDEzVkjr8HxMhqcVQR/5yL05vztGip5h01PIMdl6kl+SnBrn0q8BcFqfaYfd
TFXvmKvnj82Pz585yecNU/L38vtGivb2ytpf0rf3BPwKsXOZogJIlQRK1Obtu2wXpVVjv/OM/n/8
2Y7bR9Jm0JtX8o6nezR/4gZ5XmgcAtJ6snKUBV4fCrotenLfFX1Tirwvzt+YX5r67+bt7+XP5dzW
OlyaLZJe6jqN+nqczIkbhRVJQF/0iNQAla1NaYqv8hf85CzS/lZ5h8x+cYIodY8rTvY3UcB4pdTk
AQKg+LizueDUqBTlsNgqz38oNQ886r5HstY86NENW1Ot1FawxeiILaQAwxstSSxX4zXcVp1GKsN/
5yD/ADj8yeSrjQvLvlW2hk1/zC5WK7uhWKJeaxIFBKqXZ36seKgbg12VYXqn5tfnl+WPm/QrD8xZ
tM1rSNbahaxULIiBlSQoVSA84zIpoyEN0B7hV9NYq8vufzB8xx/85CWvkZXi/QMujm/dPTHq+sC4
r6nWnwjbFXqGKuxV2KvmD/nC3/jqfmF/xnsP+J3uKvp/FXYqxWb8rPy9msNQ0+XQrZ7LVbkX2oQE
NxmuQSfVff7VWOKsojjSONY4xxRAFVR0AAoBiq7FXxp/zkZq35N6j+ZGjfo9ka/j1aWDz5c+neKU
S2lhgZWDJR6KkorBX7PeoxVLfJsf5Aal+emsW93FE3ke9hitfLVrwvwr3shto1oAPWWrerUy0Xf5
Yq+3cVfM/wDzkX+T1xo82s/mx5W1qXTL5I1/S1kKgSCbhbOY3U7c1Yc0cENuajpirGfyI/NHzX+X
N55b8j+Z9HRPL/mgwXmj36keqqamV9KXkrNG8ZZl5KeLJvXwxV9fYq8f8/fkl5mvvPz+fPInmb/D
mv3lsLPU/UhE0cyKqoGFeQHwRoKFTuoYEHFXz1qWm6T5Zvr7TZZZPMflnyTeLqPmac0jj1TXpyIY
bSv7zjFFxYNy5GgmP7SjFXtXlr8+vzDtPNXlfSvP3la30nTfOIRdEvLSRiweUqIxIheXvLGGU8Sv
IH2xVJf+csNV8u+Yb3R/IOm6XNq/n95Fl057dgn1VJ6ckdmBD+qqVK7BQA5YU3VeaaLqC6B+YWqX
n51ve33mzy3YGfyzaX0nOyuZrWNngjaRQ9RIygxsPhZq8qtsVX1Z+UHn698++R7XzPd6cNLN3LMk
NushlVkhkMfMMVTqysOnbFU+byp5cbzInmZrCI69HB9VTUaH1RDueFa0p8RxVNsVdirsVefflVpP
5q6fca23nu406eGZ4TpA0+OOMqqmX1fV4RQ12aOla98Veg4q7FXYq7FXYq8U/MP8hovMX5qeWfMF
jpOlRaBaStc+Y4jFEkl5K8pkYyxiJhPyp8XqHepxVZ+Wv5BQaF+Y3mzzBrej6TLpV5dCbyxbRxxy
/VEWd3VkjaJVgYLwpw6dMVe3Yq+bP+cgvye8/GLzT5p8ueYbq603WBA+reVxHI5l9P0oU9JY+auV
EakVQMAPtHFVP8p/+cdvNN9qXlXzn581s3Uek2dlLo2iBZA8EcKLJbQTeosfp+iackVTVq1Piq+l
8VSTzsnmqTyrqUPlQwr5gmhMVhLcsUijdyFMpIV941JZRTcgV2xV5ev/ADjpbf8AKjJfIS3SRa7d
smoXeqHkyPqIYOSx+0Y6D0gaVp8VK4qkuh/lB+cPmHzb5PvvzCu9Ng0nyKyPpy6eWaa5kiaNkZ6i
g5G3j5H4dhstSTiqYfm5+R3nTU/zCs/zH/L/AFW3svMVsiLNb3dQpaNDEHjbjKp5RHgyOtKd96Yq
xfzL+R356/mheWZ8/ajo+l2mnq6wSWkIlnJYD+QKSrEbgygDqFxV6l+Rnlr8yPKflpfLHm1NPmst
OHHSb2xkYuYyxJiljMcfStQ/U999yq9LxV2KuxV2KuxV2KuxV2KuxV2KuxV2KuxV2KuxV2KuxV2K
uxV2KuxV2KuxV2KuxV2KpPo3nLyhrd1LZ6Lrmn6ndwKXnt7O6huJEUEKWdI2ZlHI03xVOMVdiqRH
z75GWG+mPmLTBDpciw6nKb23420kjFESdudImZ0ZQGpUgjFU4tLu1vLWG8s5o7m0uY1mt7iFg8ck
bgMjo6kqyspqCOuKquKpdrfmTy7oNvHc65qlnpVvK/pxTX08VsjPQnirSsgJoCaYqpnzZ5WGrw6K
dZsRrNwokt9N+sw/WZEKlwyQ8vUYFAWqB03xVNcVQeraxpmkWMl9qVzFa20SlmkmdIwaAmgLlRXb
xxVin5W/m95X/MnTru+0KO5thZTehLb3qwpMfhVuapFLN8HxUqT1xVm+KpP5h84+U/LcccnmDWLP
SlmqIfrc8cJenXgHILU70xVH6dqem6nZRX2m3cN9ZTjlDdW0iyxOK0qroWVvoOKobRvMvlzXBOdE
1Wz1QWzBLk2VxFcCNzWiv6TNxO3Q4qiNT1bS9Ks3vtUvILCyi/vLq6kSGJf9Z3KqPvxVJ9C/MXyF
r939S0XzFp2o3m5Ftb3MUkpA3JCBuRA8QMVZFiqXv5h0CPWY9DfU7Rdalj9WLS2njF00YBPNYC3q
FaKd6dsVTDFXYq7FXx//AM4d/wDk0/NP/MBL/wBRkeKvsDFXYq+Sbn8nPzLfy1+bVouhym48w6tY
3OjR+pDW4ihvrmWR1+Og4pIp+KnXFX0r+XWm32l/l95Y0y/iMF9Y6TY213ASCUlhtkSRCVJHwspG
xxVkOKvjb/nLrzH59vfMVv5d1TS4rby5DdNJ5evUR1lu2EMay8mMjI3BpqbIuKsZtvNf5wT/AJ7R
63B5cgk896ZB6Q0MRzGGONbP0N4zPz/uZeX971P0Yq+67V5ntonmXhMyKZUHQMR8Q798VfD358ag
dV/Py+07z1fXdl5csnEVr6C8zDbG3DxNCh5D97JQuwBO52NOOKph/wA4uflZpnmbUrbzSuuGz1Xy
7qkcsmlIVLT20apIp+FlkVWkqpJBVgCMVfauKvkP80/8ID/nKC9P5oer/hH6hEdP5+sY+H1NePH0
P3nD6z6v2f2+u2KsQ/Ln8xde8ufldr3lzQTPLqXmvVI9P8tQA/GnqJwupU8HKvDGN/tGo+ycVfWf
5O+RNI8ieSbPy5aSxT38Y9fV5o2DGS7kA9VjTfitOC1H2QO+KvFf+c19M8xyx+XNRVJpfLFsZUvB
EfgjuZGXi0goQC6VVGNabjvuq8h842PkPV/OPlu0/JKy1Aai8cTyqzSl1vOSshUysxVoqEyOD6Y6
g0BOKvv23EwgjE5DTBVErL0LU+Ijp3xV49qnknzTN/zk7pHm6OwdvLtvpL202ock4LKY5wE48ufW
Rf2cVeyYq7FXYq+af+cZvJelaH+YPmC8s/NOl65LPaSI9nYNMZYgblG5P6kca0BHHY9cVfS2KuxV
2KuxV2Kvib/nIA/m5f8A5taTpGsNDJI2pS/4IgU24/cXN4I7Yycehb04wTLvtviqG/Ln/ldWofnr
rF7p7QTebrSRovMshNrwWBJ44LhU5fu6jgF+DfbFX3Fir5P/AOcpPzO8i6suv+TLjSCPNOiy2q6Z
rJjR+SN6cs8Yk2kjoJGHHdWpWvTFXjXkwQw/mR5L/wACz3j6nI1h9d5DiVvWb/S44+NOUHD7XLty
rVd8VforirH/ADnoHkbUNLlvvN2m2N7YaZHJcPPfwxyiGNF5yMGcEqKLvTrir5B1mz1TzD5V83/m
7ZWn6H0iwMWj+TbK2jWFLa0e4WKaSJY+KpRJWUlducj03XFUq0+Dy35V1P8AK3WvIetyXXmfVWT/
ABFaxzCQxzPNCvoPEgDKJDJIhRvtBQe9Sqzj/nKLzfq99+amneSdb1CfR/Iw+pyXbwgkSxzPWa5Z
QP3npbqq7gFa0rirzzz2dH/LjXr1Py082RatoXmLT5rO7hjkEs0UUq8XjmdFVK1PKNlow3BFPtKv
pL/nERrE/lOPS1Fb6/mvp7jUYeZeS3duMUcbhviHKOFWHY12xV7ZirsVdirsVYr5U/K3yD5S1K51
Py7pEen314hiuZ0eVy6M4cikjuPtKDsMVZVirsVdirsVdirHta/L7ydrfmHTvMeqaZHda1pPA6de
M0gaIxuZEoqsENHNdxirtC/L3yboOu6lr+kaZHa6xrDO+pXitIzStLIZXJDsyjk55fCBirIcVYJ+
bP5Q+XvzF0J7G7WGz1Osf1fWhbxzXMSI4dkRiUbi4FCOWKon8uvyp8oeRtKtLfTLC2OqQwLBdayI
ES5uCAAzM/xMORFSvKmKsyxVLvMXl3RvMej3Gjazb/W9MugouLYu6BwrBwCY2RqclHfFVOy8q+XL
Hy4nlq20+FNBSE2w04ryhMLV5IytXlyqeVevfFWM+WPyL/KjyxrS63onl6K21OMsYrhpbif0y1am
NJpJEQ79VAxVOfOH5d+SfOVvHB5m0iDUlhqIZJAyyxg9Qk0ZSRQe4DYqx7Q/+ce/ya0S6+tWPle2
aahWt0894oBFDRLqSZR160xVNvKn5T/l95S1KXUvLekLpl5MhjmeGWfi6E14tG0jIRXcfDt2xVlu
KuxV2KuxV2KuxV2KuxV2KuxV2KuxV2KuxV2KuxV2KuxV2KuxV2KuxV2KuxV2KuxV4F+UP/OSWt+e
vzEbyrd6NbWduI7mT6zFJIz1g6Cjbb4q99xV2KvnaT/nKDXkt/zAl/QlqT5OkjS2HqSfvw+orZfv
PD4X5bd8Vev/AJW+cbnzn5B0jzNc26Wk+pRu728RLIpSV49i2/7FcVZViryL8+fz1b8trbTRplva
6pf3k0kdzaySkNCsaKwLBCWBPMUriqRRf85KXb/mnpHk36np/wCj72G0e+1T6yeMTz2i3MoBNE+A
txFTX6cVe9AhgCDUHcEdCMVeL/m9/wA5PeWvy/1l9AtdOk1vW4AjXcKyi3gh9RQyq0pWUl+LBuIT
6cVeV/kx/wA5ReY5fOkmnebmu9XttduYbXSYYFgrayzTFFWnGIup9RVJ5V26HFX15irw382v+cid
Y8ted18jeT/L51/zAkaSXKn1Hozxev6UcMI5uRDRy3LYYqmf5Yf85F6B5t8j655k1e3/AEPL5aRZ
NWhD+ohSRWMTRMQpJlaNlVOvLbeoxVNvyP8AzJ80fmHoN35g1XSIdJ0tpjDpQjd5JJglfVdiwUcV
NFBHUhulMVQX55fn3pv5YxWdpHYnVNc1BGlgtS/pRRxKePqSvRm3bZVA3odxiry+w/5zE806Zqlt
H5z8nmx067pLHJD60Ewt2PwyxpcDjMPkVBxV9P2F7a39jb31pIJbW7iSe3lHRo5FDIwr4qcVeZ+Y
Pzh1LS/zx0T8uY9PhkstVt1nkv2dxKhZJmoFHw/7pH34q9TxV2KuxV8Qf84sf+T5f/jBf4q+38Vd
iryR/wDnGXyG0XmqI3+qcfN7q+pH1besZS7W9Hof6P8AD+8Wnxcvh998VZ/5J8oab5O8rWHlrTJZ
prHTkZIJLlkaUh5GkPMosandz0UYqnmKvhH/AJyhsvKJ/Mu5v9E1pdQ1C/nlj1u1pRbKe29O3EZN
PFGr8sVYxpfk38vrz805fLkvmUw+Ug8iQeYCq1k4xVSi9Pjl+HFX6I2sAt7aKAHkIkVAx6kKKVxV
8Z/85Lfl75o8l/mEfzKsZYpNM1DUIZbSZwkjwXyx+oI5IZAVdT6DMpoRTY+6rGPyN/Mfy35b8+TX
XnHRkvV1i6t7iLUCi+pYXHqNIlzGjDlxPrVPFgePTl0xV974q+dfzX/Jv80Y/wA3E/Mz8upbefUZ
kUSwTtGjQyLa/UyQJv3bo8I8ag9sVfPWreXtW8qTXvkbVL9Y3uJLfUPOL2pEwgitgzQwepVVkkHr
livLi0jRrXkMVe9+Qf8AnK3yJZHR/LX+G7rQfLahbLT9QeRZUREPBXkUIvf+8ZWYg+OKpb/zmrZ+
TZE0e8k1H0vN8KGOHTUXn6tkzkl5CP7rg/LgT9rcUNKqq8L1Hzhq/n3UbFPPmum3stAsTFB+5rO6
QgVhiVQqtcTUHxSso23PQFV9sfkf+YXlvzn5NVvLmn3WnaVobR6TBDd8C3G3gj4gFGcGiMoxVF6r
+UXlvU/zL038w57m8XWtLiEFvbxvELVlVZFq6GJpCf3x6SDtirN8VdirsVeBflDpX5m2/wCYjTa/
+X+h+X9J9O5A1fT7G0t7nkfsL6sUjvR/2tt8Ve+4q7FXYq7FXYq+UPzh/wCccdV1L827K78t6Nc3
GgaxOl55jv8A6xFRJ7u9ka64CQqyhIiGFAeuKoT8vf8AnF+8m/NPWE8yaNd2Xku1e6k0Sczx85PT
ulForGN3aphJY1HbFX11ir40/wCcs/JHnvTdbvvNN5qKz+UtavrZLexjlkAiuYrRo4vUt2+DkIop
KOpPU9K4qhfy/wD+cd/zO893/l/XPNsiW3lhLSy+qzyyxSyyaZFEpt4YIYS/ENHQfvOJFSSCdiq+
1cVSfzjqWuab5Y1G80HT21XWo4T+j7BSq+pO3wpyLsg4KTybfoDTfFXz35Z/5xx8zXn5SebH134P
zD81OLhjcOrFBb3K3KxO6ErW4kQs5rTdf5cVefwfk5+eHm208qeSNX8vDSNH8tPdxrqsnBQsV5OJ
Z3dldllKlaJ6Y3792xVnH/OSX5E+f9c88jzp5Vtl1WKSGAXFmGjE0UtuOIKxykLIjKqmgqa12pir
B/NX5X/n9+aHmKK/1fylbaXfpCIp78KlmkqoPgM3KRy7CnEFVrTboBRV7B/zjRYfmZ5P05/KHmfy
jJY6Y0slxbaxE8DUlfd1uVWVmYHiAjqNtgRTcKvfMVdirsVdirsVdirsVdirsVdirsVdirsVU57e
3nQJPEkqA1CuoYV6VocVXoiIioihUUAKoFAANgABireKuxV2KuxV2KuxV2KuxV2KuxV2Kv8A/9k=
									</xapGImg:image>
							</rdf:li>
						</rdf:Alt>
					</xap:Thumbnails>
				</rdf:Description>
				<rdf:Description  rdf:about="" xmlns:dc="http://purl.org/dc/elements/1.1/">
					<dc:format>image/svg+xml</dc:format>
				</rdf:Description>
			</rdf:RDF>
		</x:xmpmeta>
<?xpacket begin='﻿' id='W5M0MpCehiHzreSzNTczkc9d'?><x:xmpmeta xmlns:x='adobe:ns:meta/' x:xmptk='XMP toolkit 3.0-29, framework 1.6'>
<rdf:RDF xmlns:rdf='http://www.w3.org/1999/02/22-rdf-syntax-ns#' xmlns:iX='http://ns.adobe.com/iX/1.0/'>

 <rdf:Description rdf:about='uuid:fd368602-5f17-11df-99a8-001124740a56'
  xmlns:pdf='http://ns.adobe.com/pdf/1.3/'>
 </rdf:Description>

 <rdf:Description rdf:about='uuid:fd368602-5f17-11df-99a8-001124740a56'
  xmlns:tiff='http://ns.adobe.com/tiff/1.0/'>
 </rdf:Description>

 <rdf:Description rdf:about='uuid:fd368602-5f17-11df-99a8-001124740a56'
  xmlns:xap='http://ns.adobe.com/xap/1.0/'
  xmlns:xapGImg='http://ns.adobe.com/xap/1.0/g/img/'>
  <xap:CreateDate>2005-10-18T08:31:30Z</xap:CreateDate>
  <xap:ModifyDate>2010-05-14T05:18:48Z</xap:ModifyDate>
  <xap:CreatorTool>Illustrator</xap:CreatorTool>
  <xap:MetadataDate>2010-05-12T15:56:06+09:00</xap:MetadataDate>
  <xap:Thumbnails>
   <rdf:Alt>
    <rdf:li rdf:parseType='Resource'>
     <xapGImg:format>JPEG</xapGImg:format>
     <xapGImg:width>88</xapGImg:width>
     <xapGImg:height>256</xapGImg:height>
     <xapGImg:image>/9j/4AAQSkZJRgABAgEASABIAAD/7QAsUGhvdG9zaG9wIDMuMAA4QklNA+0AAAAAABAASAAAAAEA&#xA;AQBIAAAAAQAB/+4ADkFkb2JlAGTAAAAAAf/bAIQABgQEBAUEBgUFBgkGBQYJCwgGBggLDAoKCwoK&#xA;DBAMDAwMDAwQDA4PEA8ODBMTFBQTExwbGxscHx8fHx8fHx8fHwEHBwcNDA0YEBAYGhURFRofHx8f&#xA;Hx8fHx8fHx8fHx8fHx8fHx8fHx8fHx8fHx8fHx8fHx8fHx8fHx8fHx8fHx8f/8AAEQgBAABYAwER&#xA;AAIRAQMRAf/EAaIAAAAHAQEBAQEAAAAAAAAAAAQFAwIGAQAHCAkKCwEAAgIDAQEBAQEAAAAAAAAA&#xA;AQACAwQFBgcICQoLEAACAQMDAgQCBgcDBAIGAnMBAgMRBAAFIRIxQVEGE2EicYEUMpGhBxWxQiPB&#xA;UtHhMxZi8CRygvElQzRTkqKyY3PCNUQnk6OzNhdUZHTD0uIIJoMJChgZhJRFRqS0VtNVKBry4/PE&#xA;1OT0ZXWFlaW1xdXl9WZ2hpamtsbW5vY3R1dnd4eXp7fH1+f3OEhYaHiImKi4yNjo+Ck5SVlpeYmZ&#xA;qbnJ2en5KjpKWmp6ipqqusra6voRAAICAQIDBQUEBQYECAMDbQEAAhEDBCESMUEFURNhIgZxgZEy&#xA;obHwFMHR4SNCFVJicvEzJDRDghaSUyWiY7LCB3PSNeJEgxdUkwgJChgZJjZFGidkdFU38qOzwygp&#xA;0+PzhJSktMTU5PRldYWVpbXF1eX1RlZmdoaWprbG1ub2R1dnd4eXp7fH1+f3OEhYaHiImKi4yNjo&#xA;+DlJWWl5iZmpucnZ6fkqOkpaanqKmqq6ytrq+v/aAAwDAQACEQMRAD8A9KaVpWlnS7MmzgJMEdT6&#xA;afyD2xVFfonSv+WKD/kUn9MVa0lES0KIoVFmnCqBQACd6ADFUZiqWQafYTXmoSTW0UkhnWruisdo&#xA;Iu5GKoj9E6V/yxQf8ik/piqnaW9vBqVykESRIYYCVRQorzl3oMVR+Kpfd2ttcapaieJJQsE5UOoY&#xA;A84elcVVf0TpX/LFB/yKT+mKqE1hYwXlg8FvFE/rMOSIqmnoS7VAxVhNj+YHmO10q81SXR7ebyzo&#xA;kptr6eG5k+upDbohluRbtD6brGp5MolDcQaVPwlVMvNXmXzzolndapFp+lXOlxSItt/plwtxKJpF&#xA;ihXiLcx83Z1AHOle+Ksr0z/eZ/8AjPcf8n3xVF4qwzVPMXmS382vomhWFneSzwzX8zXtzLbDjAtr&#xA;FwRo4bjdjN1I2xVPvLWvR65pEd+sD2sweW3u7OUgyQXFvI0M0TFag8ZENGGzCjDY4qio/wDjq3H/&#xA;ABgg/wCJzYqi8VQkn/HVt/8AjBP/AMThxVKvM/mK6sbix0jSYkufMGqMfqsMlTFDbxlfrF3PxIPp&#xA;RKwFKjk5VARyqFU1vf8Aemw/4zt/yYlxVh35b2kV55e160mFYbnUbuKQbGqvFGp6+xxVLNKvJdZ8&#xA;n/lbYS/E2qRadqd8Ov7vT7Fb0N70vFtx9OKvRNM/3mf/AIz3H/J98VReKsJj/wDJuL/2yrz/AJO6&#xA;fiqF02280DXvN0Oharp2nQw6ss8sd9Yz3vwz6ZZPVWjvLIJ+89Vj9rr27qpt+XusatrWi2uraqYW&#xA;u7+0iuFe2ieCJ4JJp2tnEUkk7oXgKMymRtyd8VZViqU63qdnpPqapev6dlYWN3dXMn8sUPpyOfoV&#xA;TirHLPTvzGv/APnYBLpOi6ldwoq6dNYSXMyQKWkjt7q8W4hdmUyNXggVGJoG6sqqeSvNWs+YluH1&#xA;ewTTbzTNZm05rRGL8fRsgzH1D/eAvIxRwq1Tj8IOKqX5ZTx2+ha5cSmkUOp3UjnwVY4yfwGKpR+U&#xA;9tLM/l9ZR/yjnlLSrD2FzfxpLcLv3WOzgP8AssVejaZ/vM//ABnuP+T74qi8VYTH/wCTcX/tlXn/&#xA;ACd0/FUj1u4MkPnixt2aO78wa3aeX7WRWFaXGm2Uc8ydw0EUkz/7DFXodlbwW17JbwIIoIbW2jij&#xA;UUVURpQqgeAAxVH4qkHm7SJda02/0eGUQS6lpd/ZxzkcgjTokYcjevEtXFUj0b84PK13pqSX7T2m&#xA;qRlob3T0tri4YXMTGOVIHgjlS4USKVVoi1fnUBVFeULPUEhOp39s1lc65q0+o/UZKepDE1s0MCSU&#xA;LASGGFGda/CxI7YqkWn+U/PEui6loaDT7bQ9emeabVUup3vUtbqNFljS1NskayFAyq/1g8a8qGlM&#xA;VTPSdL8/6JqestZaTo91Z6lf/WYp5NTubeRbdIYraGP0V06dVKQ267CQitcVZhpn+8z/APGe4/5P&#xA;viqLxVhGraX5uXzo2u6BbWF4Ireewmiv7ua0KtOLSVZF9K2u+YHokFTx+eKoD/BvnPTLrQ7uwTTt&#xA;Zns5NQ1DVDeXU+niTU78hRND6dtf/u4oZJokQ78WXfY1VZho0mqyTSPqtvBaX5gi9a3tZ3uoVpLO&#xA;F4zSQ2zNVaE1jFDtv1KqbYqhJP8Ajq2//GCf/icOKsZs/J/mrQ7VbLy55giTToK/VLHVLIXQjQks&#xA;Illgls5OArRS/JhtUt3VROha/fanO1pqdtHaavpGoG0vo4HMsLFrMzxyxOyo3CSKZTRhVWqu9KlV&#xA;PdJ/45Vl/wAYIv8AiAxVF4qhNM/3mf8A4z3H/J98VReKoSy/3pv/APjOv/JiLFUXiqEj/wCOrcf8&#xA;YIP+JzYqi8VSvVor+WdY9PuEtb1raf6vcSxmaNX5w0Lxhoyy+IDD5jFUrE35nLGYjaaJJLUBbsXN&#xA;2i07sbb0HP8AsfW+nFV2h+Xp9IdJr67+v6tql+13qV2sfpRtJ9UaFEij5OUijiiVVUsx7kkknFUT&#xA;pUHmP9F2dL6zA9COgNnKf2B/y84qivq/mX/lvs/+kOX/ALKsVVtHEosqTMryiafmyKVUt6z1IUli&#xA;B7VOKo3FUnSHWmv9QNrd20UPrrxSW2klYfuIq1ZZ4x/wuKqv1fzL/wAt9n/0hy/9lWKt6el8mo3Q&#xA;vJoppPRg4tDE0KheUuxVpJd/euKpliqWaimoPqdp9SnhhYQz8zNE0wI5w9AskNMVd9X8y/8ALfZ/&#xA;9Icv/ZViqm0WsLfWBu7q3mi9Zvgit3iavoSUPJppR/wuKoPRvOfk95LTQ013T21pYo0bSxdwG6Dh&#xA;ASpgD+pX2pirV7+Zf5c2F3NZX3mrR7W8t3MdxbT39rHLG6mjK6NIGUjuCMVTnTP95n/4z3H/ACff&#xA;FUXirHb3zh5S0LULm31vW7DS57iYNbw3t1DbvIBDEKosrKW322xVkEckcsayRsHjcBkdSCrKRUEE&#xA;dQcVQ0f/AB1bj/jBB/xObFUXiqEk/wCOrb/8YJ/+Jw4qgvNPm/y35U00an5gv49PsmkWBJZAzFpX&#xA;rxRVQMzE0OwGKou4kWWTTZErxeYsvIFTQ28hFVYAj5HFXzrH5M0fXvKX5r38lpENc0q/kvdJ1RVV&#xA;bqCazsILiP0pxR0BdKGh74qnP5nWHl7zN+XHkx10myj1z8wb3Ro7i9S2iW5C3QS7uZfUVeeyp8RB&#xA;6HFXuemf7zP/AMZ7j/k++KovFXiXm3RNH1r/AJyI0PT9XsYNRsZNKvy9tdRpNGSI4aHi4IqOxxVD&#xA;/lt+Z3kn8v8ARtX8p+aNYXT4tC17UtN0VZ1mldrGJkmi+JUf7IueO/0bYq9V8qeadA80I+s6DeLf&#xA;aZPDGsVyiuoYxyzIwo4VtmFOmKsgxVCSkDVLcnYCCep/2cOKvEtf88/k7q/5pWWsa75vjv8AT/Lw&#xA;9LS9Ljs7htOtr9mAN1PeqJIJH/kOypQGtdyq9X0zzX5d8w3KnRb6O+XT757W7eKpVJhbSNxDEAN8&#xA;LA1Wo98VeV+T/wDlEvzi/wCM95/3SYsVS78vUfWPMf5Q6QVPo+W/Kr69cKR8Ja7jSzt+Ve67sv34&#xA;q970z/eZ/wDjPcf8n3xVF4q8f1X/ANaX0D/tlX//ACbhxVLLPzV/hTRfzn19WCz2eszfVK97mS0g&#xA;itx9MrqMVZ/+VXlX/CnlLStBZeM9nptr9b97mV5pbg/TK7YqzTFWB/nPPqcH5f8AmKbTCwvE0XUC&#xA;jJXkq0i9RlpvVY+RGKo78r9M8tw/ln5ftNHihfR5tOgPFVVkl9WIGVpBSjM7E86961xV59/zjxpW&#xA;n6evmqPSVpoi+b7+HSyKlTDDbFF4E/aRfsq3tirDovPel6Xpf5meU7Z2ufN/mS/ez0TSIUd5pWu7&#xA;GC39QFRwVU5MxLEfZxVNPy286eQfKHn3zZF5i1y20+XSbfS/LWmRzlg3o6VaiOdhsfheff6MVfQO&#xA;mf7zP/xnuP8Ak++KovFXhH5gebvLvlP8/tE1nzBeLY6bFpd8jzsrv8TJCFUKgZiT7DFWGXuq2FrZ&#xA;+XU80v8AoTTfPXm69836it4DGY9OtOLWtvMACf3xWMgfqxV9G+WvMeh+Y/U1bQ7yO/06aGJYrmIk&#xA;oxSWZWAqB0YUxVPcVS+/Vmu1VY1lZrW5CxPurEtF8LV7Hvir5X8iweStA8uSaR+YWveavKOozXE7&#xA;alo8Iu7PSR6kzUSAW0UsYidCKkOAflTFX0Z5Mg8k2/lzQoPJTWzeXIpXFmbN/Vj3ilL1erMX5E8u&#xA;R5V64qnmjWtslhazJEizPbxh5QoDEcB1br2xVXfTNNkcvJaQu7GrM0akk+JJGKrdM/3mf/jPcf8A&#xA;J98VReKpfb2trLeXkksKSOk68HZQxX9xEdiRtiqKns7S4IM8EcxX7JkVWpXwqMVQ9rDDDqNxHDGs&#xA;cYghoiAKN3m7DFUdiqQ+aNcGhQnVmsrrUFtLeVntLCIz3LqZoFYxxgjlxDciPAYqw1/+ckPyZaBk&#xA;m1plnI4yadLZXguORH92YjDUk1p4Yqlv5H6TewHW9a/REugaLr+uy3uiaROnoyJb/VHT1TB0i9Ui&#xA;oX7tqYq9F0rzBYDS7MGK8qIIxtY3h/YHhFiqK/xDYf76vP8ApBvP+qWKq2jyLLZeooYK807AOrI1&#xA;DM53VgGB9iMVRuKpOmsWltf6hDJHcs4nUkxWtzKu8ER2eON1P34qq/4hsP8AfV5/0g3n/VLFW9Pv&#xA;YbvUbqSJZVVYYFImilgavKU7LKqMRv1piqZYqlmo38Fpqdq0qysGhnA9GGWc7PD1ESuR9OKu/wAQ&#xA;2H++rz/pBvP+qWKqbata3V9YRRJcK3rMay21xCtBBJ+1LGi/jiqM0n/jlWX/ABgi/wCIDFUXiqE0&#xA;z/eZ/wDjPcf8n3xVF4qhLL/em/8A+M6/8mIsVReKoSP/AI6tx/xgg/4nNiqLxVCSf8dW3/4wT/8A&#xA;E4cVReKoS9/3psP+M7f8mJcVfLdx+dH502Gq+btT064sr3yr5HvLWC+0ueJEma2uZWhj9N0QMePp&#xA;/ExeoqDRt8VTr82fPv53eWdFh86aV5l09vLGu3MI0DTltI3uhDeRtPArl4qEiNd/iOKvoXQ/X/Rq&#xA;fWP7/wBSb1aUpz9Z+XT3xVMMVeC/nB53/NHT/wAzNG8peRb+2s7jXFmk43cUbxtJDAjCrskjLVUI&#xA;FO+Ks7/JD8xrvz75Fj1bUYFt9Ys7iXT9WhjBCC5g4klQSSOSOrU7E0xVmkf/AB1bj/jBB/xObFUX&#xA;iqEk/wCOrb/8YJ/+Jw4q8X/Me+/NDzr+Zdl5M8nTaj5c8vaV+917zLGkkCSMwFUikPD1eA+FVU7s&#xA;ST8K1xV7CtotnHpNokksywSemJZ3aWVuNvIOTyOSzMe5OKvlbRLcz6L/AM5DICAQltJv4Rtduf8A&#xA;iOKoy8nPmaL8gPKCM0kZhh1G+jbesVmqADfsI7eYfLFX1Jpn+8z/APGe4/5PviqLxV8//mD/AOtP&#xA;/l//ANHX/ULirAvKGl+aP0L+ZOp6F5vn8p2HlnWtUu7qG3t1nN0ONUTk0kXEr6HFetS33qvav+cd&#xA;r/zVqf5f2Wq+Zr2S/wBS1GIXCzTfbEBnnWIGgHVV5D2OKvU8VYd+Z/m5vJ/ljUvMiRCabTtPuJII&#xA;mrxaZpII4g1KHj6jjl7Yq8i8g/l/+dnmvy1aeep/zKvbDWNTj+t6fpiqZLBUY8oxNDzEVHHYRfCP&#xA;5sVTf/nHHzj5z8yjXm813j3N9Y620CwtTjb/AOjzc4o6fsqwoMVea6deJaaD/wA5CSvIIg5soQx7&#xA;maW6iC/7LnTFU7/Iqxm1X85tNa5FV8m+UbC0Q/yXE9vEzJ81+tzKfcYq+m9M/wB5n/4z3H/J98VR&#xA;eKvn/wDMH/1p/wDL/wD6Ov8AqFxV5TNqVxL+Wfmyx0li11+YPnZ9O09a7yQI6zFlpXYvIiGhPWmK&#xA;vr3y7o9posMGj2Ypaadp9naQDoeEPqItaey4qnOKsN/NLRNJ1zylrGmavcfVNOm0q9e4vKcvRERi&#xA;lEvH9r0yganemKvCPyZ/Mj8+5fy4s9N8teT4NbsrTnZaVrc86WyqsR2Ekcjp6gj5cQwKjam5BxV6&#xA;l+SP5Yar5D8vouuXKXXmDWtSkv8AU2iNUR2t5AIw1ByI3ZjTqaDYVxVIof8AnFrylquvy+Y9V1W/&#xA;ubXVJ49QutGQpFbSSbuqSUBZ1XmR2NCd98VVdZ/5xihvfNOr+YdP846to0+s3DXFxDYkQqAzEqlU&#xA;ZSypX4a4q9g0WIxaeIixcxyzKXbq3GZxU/PFUfiryb8yfyM038xPMceq3Os3mlS6aWt0+pBAzJLD&#xA;GW+Nt1qCRiqH80f840+V9V0Pyvo2k6neaFb+VTcPZT23Fp5Jbpo3eaST4T6nKGtVp12oAMVZl+XX&#xA;k6fyjYy6NNq93rjoqS/X79i8xEkkp4kktsvbFWX4qkvmFdGkVrfWnhTSru0uLS7Fw4jidLl4YfTZ&#xA;iV/vDJwG+5NBiryNf+cZb7RI5V8i/mDrfl62ZjLFZGQzWwY1O6RvbgjpuQT88VVf+cffzD82+ZpN&#xA;Y0HzPdRapfeVtUFomswBQlyjxXSbMgVX4mCoagqrCuKvZtJ/45Vl/wAYIv8AiAxVF4qhNM/3mf8A&#xA;4z3H/J98VReKoSy/3pv/APjOv/JiLFUXiqEj/wCOrcf8YIP+JzYqi8VY55z8p6J5usZPL2uRNPpd&#xA;9byCeNHaNqxz28qEMhBHF0U/r2xV5j/0Kd5XWE2EPmvzJFozVDaYt5H6XE/s09LjT5qcVeheT/y8&#xA;8q+RNNsNH8uWn1a2a6aWeR2Mkssht5Bzkc7k0HyHYYqmWleX7A6XZky3lTBGdr68H7A8JcVRX+Hr&#xA;D/ft5/0nXn/VXFVbR41isvTUsVSadQXZnagmcbsxLE+5OKo3FUnTR7S5v9QmkkuVczqCIrq5iXaC&#xA;IbJHIij7sVVf8PWH+/bz/pOvP+quKt6fZQ2mo3UcTSsrQwMTNLLO1eUo2aVnYDbpXFUyxVLNRsIL&#xA;vU7VZWlULDOR6M0sB3eHqYmQn6cVd/h6w/37ef8ASdef9VcVU20m1tb6wlie4ZvWYUlubiZaGCT9&#xA;mWR1/DFXm1r/AM5M/lNY6knly/v57S9s5PqFzNLbuIEmhPpNykFaLzX7VKdztiqr5g/5yg/KnQdb&#xA;vtFv7i8F7p8z29wI7ZnTnGaNxYHce+KvSfL15De6TFeQEmC5eWaIkUPCSVmWo+RxVMsVea+d/wA8&#xA;PIf5f65NpnmKW4jurvjcwiCEyr6fpom5BFDVDirNfK/mjQvNGh2uuaFdLeaZdqWhnUFd1JVlZWAZ&#xA;WVhQgjFUVH/x1bj/AIwQf8TmxVF4qhJP+Orb/wDGCf8A4nDirzD81v8AnIPS/InmbTvLFppE3mDW&#xA;75VZ7O2lEbRmVgkCfYkLPIa0Xwp4jFXolrc39za6PcahaCwvZn53FkJBN6LtbyExmRQqsV6EgUxV&#xA;8Tny7puq2P523dxapNfaVeR3NhclA0sJ/Scol4N1UPHUN7fLFWSfmnHpms/lX+U+l2NhbR+YfM7Q&#xA;C4vo4I1uZXgjS0rLIo5t6kk/Lc/ERXFX11oNrDaaYlrAvGC3kmiiXwRJnVR9wxVMMVfMH5x6Xp2q&#xA;/wDOTfk3TdSto7ywukSK4tplDo6MGqGBxVjH5PfnZb/lb5c1XQbrS7rWYU1i8EH1ZlrCsSRI3PkN&#xA;g53HvyxV9EflH+Zlj+Y2l3fmCyspbCFWS19CZldiYy7FqrtQ88VZ9iqS+Y9d0rQIpNZ1acW2nWFn&#xA;czXM7VPFFaHoBuSegA3J2xV8u+V/zl/KS3/Mm+89HylrMr3Ezi48x3MouhbGYhefoKvCKi0UcZCV&#xA;XZcVe0/lX+dukfmde3a6bp89iujXEId52VhKLmG64lQtCKeh38cVfPWhTJFpf5/M5oCxQfN9QmVf&#xA;xOKoz8t0Pmb81/yr0Zq/V/LOiQ3dwh/ZlCy3qNT/ACvUgxV9g6Z/vM//ABnuP+T74qi8VfNX5n/+&#xA;tWeRf+eX6mxVgHlzzG3lr8q/zfvVfjPq2qrpFoBsS87TCXf2gdyKeGKvo38h/Kn+F/y+0XTHThct&#xA;p1vd3YIo3rXck07q3unqcPoxV6Piryf/AJyW0XVdY/K7WbXTEaW4jtfrLwJUs8VvdW0sooOvFELU&#xA;9sVYJ+Tn5yfk/o/5HQaRrN3BBc2dvcw6nozoxluXkZ2PBQv7z1lYb9uhpTFUu/5wu0LUbbTNZ1qa&#xA;JksdSvba3s5GFBI1pb3ZlK16gGdRXxqOxxVhkv5Y/ndd695x0XRtBaLQ/Omo8rnVLiiILWK8e4ik&#xA;WTmOKNyDN8JZhsPAqpvo/lf86Py5/M3WdX8s+T31u3S3Gj6fdXCMUaztxFHFIvCRDyZLZNzir6s8&#xA;tTXU2iwTXcXo3cpke4hHRJGlYuu9ejbYqmmKvmb8+fLX5mv+bukea/JeiSapLo8K8JQgkiWelQGH&#xA;JCaK4OKsM8zfkh+Z+lflt5U0i20WXV7661O91vzJYxFZFjm4QRW0UjowB/depXiepahxV9I/lRr/&#xA;AJ31zTrq9856KmhaupSJbFAyj0VLlHozSHclh17YqzvFWMeftP1vUdB1Sw0OX0NYu9Kv4bCblw4z&#xA;OI1Q8/2dz9rt1xV8jeUbKX8vtNktvO35M3OtywzNJLrc6zGNVIoE/uZ7dlXjtRwO+Kvpb8qPzS8l&#xA;+fdHtD5Ytjpq6VcLBc6Q0aRfVw9vN6fBYqx+m3BuPHwOwxVn+k/8cqy/4wRf8QGKovFUJpn+8z/8&#xA;Z7j/AJPviqLxVCWX+9N//wAZ1/5MRYqi8VQkf/HVuP8AjBB/xObFUXirCfzTtvPdxohTyLOlv5lR&#xA;DJaPKUCFUngaRD6isnxJUfEMVeSt+YH/ADmAsB00+SbH68QVF+qqQOo5chdmDlXfw9sVTv8A5x3/&#xA;ACZ1/wDL+CfUvMkkY1rW7mPnZwsJFgjhguGo7r8BdmkNeNQABQ9cVesaVP5j/RdnSxsyPQjoTeSj&#xA;9gf8u2Kor6x5l/5YLP8A6TJf+yXFVbRzKbKsyqkpmn5qjFlDes9QGIUke9BiqNxVJ0m1pb/UBa2l&#xA;tLD668XluZImP7iKtVWCQf8ADYqq/WPMv/LBZ/8ASZL/ANkuKt6e98+o3RvIYoZPRg4rDK0yleUu&#xA;5Zo4t/amKpliqWai+oJqdp9SghmYwz8xNK0IA5w9Csc1cVd9Y8y/8sFn/wBJkv8A2S4qptLrDX1g&#xA;Lu1t4YvWb44rh5Wr6ElBxaGIf8NiqM0n/jlWX/GCL/iAxVF4qhNM/wB5n/4z3H/J98VReKoSy/3p&#xA;v/8AjOv/ACYixVF4qhI/+Orcf8YIP+JzYqi8VQkn/HVt/wDjBP8A8ThxVD6r5m8t6RKkWratZ6fL&#xA;KvKOO6uIoGZQaVUSMpIrirl1Cw1BdNvLC5ivLSWd/SuIHWWNuMMqni6EqaEEYq+DtZ1T8w4PNnnT&#xA;X9D1u7tIfLGpSyTBLmVSkc18beIJHUoyB2VWU7U7EYqmP5qWPnm30jTfzHn8xlbTznIbq10y1uLl&#xA;XhLp6kq8TxQLGx47HFX2j+XlveW3knR7e9qbyG3WO5LEs3qoSHqT1PIHFWRYq+QP+cll81aj+e2l&#xA;eXtA1GazutTs7OK3RJ5IIjNJLKqsxQ7dAK0xV6h/zi1+ZWoeY/y/ntvMd/62p6NdtardXT/vZYGR&#xA;XjLu5qzKSyknegFd8VewWlxBPqVy8Eiyp6MA5IwYV5y7VGKo/FUJJ/x1bf8A4wT/APE4cVfM+t/k&#xA;t5o/Mr86LvV/OV/YweXrdiqafa3iS3S2duaRQcEJMZevKRuxLU3pir6Ltk0e3j0uw0r0Es7NxFDb&#xA;25XhHGtvKqqFXoABir4st0R4fzzDgMAeQB8V1lSD9BGKukkbzZJ+S/kpiZoY4Q90K1AS61GRJAQf&#xA;5ILUH5Yq+4NM/wB5n/4z3H/J98VReKvlX83v/Wt/JX/bs/6iZcVeRaF+X2m+YPJPnjzNfam1gvlW&#xA;dpIYViEguJbwmOKNmLLwrJGq1oftYq+lP+cQtJu7D8sRNcLxXUpnu7cd/T9SSAEj3aEke2Kvc8Ve&#xA;O/8AOUPmnV/Ln5cXNxpMr293eqbH61ESHijmliMhVh9nkiFK/wCVtvirwfyB/wA4+jVvydufzIg1&#xA;+ex1qKG9u7CGEARqlkZEdJWHx8pPSbcHYEbHFU7/AOcKf+O9r/8A0af8m7vFXmeu+abXSb/81NIc&#xA;SG71+9a2tmT7KiDVPrEhc1GxSPj9OKpn+WvmjQfJf5w2Gp+b1mtoPL1ktqLdIjI8d0toIHUoKdHk&#xA;kb54q+4/K+pW2qaHbanakm1vvUuYCw4sY5pGdajsaNiqa4q+Qf8AnIXzBZ+XP+clfLmvXqu9ppdt&#xA;YXUyRgF2WKeViFBIFTTFXlk99f6d+TLLKhi/xlrrzc6EK9vpMS8qbn4TcXv3pir7Q/JfXfKOq+U7&#xA;SPypcNdaTpNna6YJnieEtJbK4c8ZArfFy5V98Veg4q81/P8ATQj+W2uvrdq95ZRadO6wxsEkE4mg&#xA;EDK5DceMpUk0O1dj0xV8pflhofmPXvJ91o8X5l6Z5Z0W8meK40G/vjDJIGA5MITxHGTpRW+Lvir6&#xA;k/Jv8o9A/LrRLaPTb8avd6rcrNe6qoVY5RHbzCNYlUuBGnJqfETUnfsFUx0n8kvyrN7beYn8u20u&#xA;sSst7JdSmWTlcSfvGkMbu0deZ5fZxVfq/wCQv5R6xql1qupeXIbnUL2Vp7qdpbgF5HNWYhZANz4D&#xA;FWW+XrG1sNJisbSMRWlo0sFvECSFjjlZUUE1OyimKplirBvMP5S/l35w1y61TzJosWo38JS2inke&#xA;ZSIkjV1Skbov2pGPTviqJ138ofy217TtM03VNBt5rDRkkj0u1QyQxwLLx9QKsTR/a9Na1xVGeT/J&#xA;vlnyibrSvLtiun6eyxTmBGdx6jtIGasjOdwo74qyTFXm/wCd3nvRPJmg29/rulHWdHvmk06/sgVq&#xA;Yp+JZuLji/2KcSR88VfNXmKX/nES+0i6u9Li1vTNRZGNtYw82Ik4kqD65nj48qA/vPlirK/+cLpP&#xA;MRk1eN/VPl1Z4TFz5ekLswT8/Sr8PL06epT/ACa9sVfTularpY0uzBvIARBHUeon8g98VRX6W0r/&#xA;AJbYP+Rqf1xVrSXR7QujBkaacqwNQQZ3oQcVRmKpZBqFhDeahHNcxRyCdao7qp3gi7E4qiP0tpX/&#xA;AC2wf8jU/riqnaXFvPqVy8EqSoIYAWRgwrzl2qMVR+KpLr1noV7PDZ63Ba3NjNBOHtr1Y5Ino8XV&#xA;JQVOKsRP5O/kQZfV/wAP6Ry5cqfDxrWv2OXGntSmKsss4vL9kumaboyWltawSsIbOzEaRovoS/Zj&#xA;joAPoxV//9k=</xapGImg:image>
    </rdf:li>
   </rdf:Alt>
  </xap:Thumbnails>
 </rdf:Description>

 <rdf:Description rdf:about='uuid:fd368602-5f17-11df-99a8-001124740a56'
  xmlns:xapMM='http://ns.adobe.com/xap/1.0/mm/'>
  <xapMM:DocumentID>uuid:831aaf18-81ce-11da-9137-001124808cba</xapMM:DocumentID>
 </rdf:Description>

 <rdf:Description rdf:about='uuid:fd368602-5f17-11df-99a8-001124740a56'
  xmlns:dc='http://purl.org/dc/elements/1.1/'>
  <dc:format>image/svg+xml</dc:format>
 </rdf:Description>

</rdf:RDF>
</x:xmpmeta>
                                                                                                                                                                                                                                                                                                                                                                                                                                                                                                                                                                                                                                                                                                                                                                                                                                                                                                                                                                                                                                                                                                                                                                                                                                                                                                                                                                                                                                                                                                                                                                                                                                                                                                                                                                                                                                                                                                                                                                                                                                                                                                                                <?xpacket end='w'?>
			</metadata>
		<g id="レイヤー1">
			<g>
				<rect x="0.125" y="0.125" fill="none" stroke="#000000" stroke-width="0.25" width="50" height="150"/> 
				<rect x="0.125" y="150.125" fill="none" stroke="#000000" stroke-width="0.25" width="50" height="150"/> 
				<rect x="0.125" y="300.125" fill="none" stroke="#000000" stroke-width="0.25" width="50" height="150"/> 
				<rect x="0.125" y="450.125" fill="none" stroke="#000000" stroke-width="0.25" width="50" height="150"/> 
				<rect x="0.125" y="600.125" fill="none" stroke="#000000" stroke-width="0.25" width="50" height="150"/> 
				<rect x="100.125" y="0.125" fill="none" stroke="#000000" stroke-width="0.25" width="50" height="150"/> 
				<rect x="100.125" y="150.125" fill="none" stroke="#000000" stroke-width="0.25" width="50" height="150"/> 
				<rect x="100.125" y="300.125" fill="none" stroke="#000000" stroke-width="0.25" width="50" height="150"/> 
				<rect x="100.125" y="450.125" fill="none" stroke="#000000" stroke-width="0.25" width="50" height="150"/> 
				<rect x="100.125" y="600.125" fill="none" stroke="#000000" stroke-width="0.25" width="50" height="150"/> 
				<rect x="200.125" y="0.125" fill="none" stroke="#000000" stroke-width="0.25" width="50" height="150"/> 
				<rect x="200.125" y="150.125" fill="none" stroke="#000000" stroke-width="0.25" width="50" height="150"/> 
				<rect x="200.125" y="300.125" fill="none" stroke="#000000" stroke-width="0.25" width="50" height="150"/> 
				<rect x="200.125" y="450.125" fill="none" stroke="#000000" stroke-width="0.25" width="50" height="150"/> 
				<rect x="200.125" y="600.125" fill="none" stroke="#000000" stroke-width="0.25" width="50" height="150"/> 
			</g>
			<g>
				<g>
					<path d="M12.125,106.125h-5v2h5c9.9438477,0,14-10.5742188,14-36.5c0-26.265625-3.9248047-36.5-14-36.5h-7v73h2v-71h5
						c7.203125,0,12,5.8671875,12,34.5C24.125,101.9453125,18.3574219,106.125,12.125,106.125z"/>
					<polygon points="29.7246094,105.9248047 46.125,37.125 46.125,35.125 27.625,35.125 27.625,37.125 44.0249023,37.125 
						44.0249023,37.3251953 27.625,106.125 27.625,108.125 46.125,108.125 46.125,106.125 29.7246094,106.125 "/>
				</g>
				<g>
					<path d="M12.0639648,253.5253906H9.2714844V258.125h2.7924805c10.1254883,0,14.5610352-9.6875,14.5610352-36.5
						c0-27.2109375-4.0541992-36.5-14.5610352-36.5H4.625v73h4.6464844v-68.3994141h3.4804688
						c5.9990234,0,9.2265625,5.8535156,9.2265625,31.8994141C21.9785156,248.7285156,18.8676758,253.5253906,12.0639648,253.5253906
						z"/>
					<polygon points="41.9501953,189.8251953 27.625,253.625 27.625,258.125 46.75,258.125 46.75,253.625 32.4248047,253.625 
						32.4248047,253.4248047 46.75,189.625 46.75,185.125 27.625,185.125 27.625,189.625 41.9501953,189.625 "/>
				</g>
				<g>
					<path d="M11.418457,342.3261719h1.9604492c4.7949219,0,6.4526367,5.8398438,6.4526367,29.2988281
						c0,23.8867188-0.4536133,29.3007812-7.8286133,29.3007812H11.418457V408.125h0.5844727
						c10.3076172,0,15.1220703-8.8007812,15.1220703-36.5c0-28.15625-4.1835938-36.5-15.1220703-36.5H4.125v73h7.293457V342.3261719
						z"/>
					<polygon points="39.875,342.3251953 27.625,401.125 27.625,408.125 47.375,408.125 47.375,401.125 35.125,401.125 
						35.125,400.9248047 47.375,342.125 47.375,335.125 27.625,335.125 27.625,342.125 39.875,342.125 "/>
				</g>
				<g>
					<path d="M12.1806641,494.7255859h1.6621094c3.9355469,0,5.3398438,5.1279297,5.3398438,26.8994141
						c0,22.0761719-0.8618164,26.9003906-6.027832,26.9003906h-0.9741211V558.125h0.4970703
						c9.9428711,0,14.9472656-9.2451172,14.9472656-36.5c0-28.1152344-4.2456055-36.5-14.9472656-36.5H3.625v73h8.5556641
						V494.7255859z"/>
					<polygon points="39.0771484,494.5751953 27.625,548.875 27.625,558.125 48,558.125 48,548.875 36.5478516,548.875 
						36.5478516,548.6748047 48,494.375 48,485.125 27.625,485.125 27.625,494.375 39.0771484,494.375 "/>
				</g>
				<g>
					<path d="M12.9433594,647.125h1.3632812c3.0761719,0,4.2275391,4.4160156,4.2275391,24.5
						c0,20.265625-1.2705078,24.5-4.2275391,24.5h-1.3632812v12h0.4091797c9.578125,0,14.7724609-9.6894531,14.7724609-36.5
						c0-28.0742188-4.3076172-36.5-14.7724609-36.5H3.125v73h9.8183594V647.125z"/>
					<polygon points="38.2788086,646.8251953 27.625,696.625 27.625,708.125 48.625,708.125 48.625,696.625 37.9711914,696.625 
						37.9711914,696.4248047 48.625,646.625 48.625,635.125 27.625,635.125 27.625,646.625 38.2788086,646.625 "/>
				</g>
			</g>
			<g>
				<g>
					<path d="M112.125,106.125h-5v2h5c9.9433594,0,14-10.5742188,14-36.5c0-26.265625-3.9248047-36.5-14-36.5h-7v73h2v-71h5
						c7.203125,0,12,5.8671875,12,34.5C124.125,101.9453125,118.3574219,106.125,112.125,106.125z"/>
					<polygon points="143.9648438,58.3251953 128.625,106.125 128.625,108.125 146.125,108.125 146.125,106.125 
						130.7851562,106.125 130.7851562,105.9248047 146.125,58.125 146.125,56.125 128.625,56.125 128.625,58.125 
						143.9648438,58.125 "/>
				</g>
				<g>
					<path d="M112.0639648,253.5253906h-2.7924805V258.125h2.7924805c10.1254883,0,14.5610352-9.6875,14.5610352-36.5
						c0-27.2109375-4.0541992-36.5-14.5610352-36.5H104.625v73h4.6464844v-68.3994141h3.4804688
						c5.9990234,0,9.2265625,5.8535156,9.2265625,31.8994141
						C121.9785156,248.7285156,118.8676758,253.5253906,112.0639648,253.5253906z"/>
					<polygon points="128.875,206.125 146.75,206.125 146.75,210.5751953 133.5551758,253.4746094 133.5551758,253.6748047 
						146.75,253.6748047 146.75,258.125 128.875,258.125 128.875,253.6748047 142.0698242,210.7749023 142.0698242,210.5751953 
						128.875,210.5751953 "/>
				</g>
				<g>
					<path d="M111.4179688,342.3261719h1.9609375c4.7949219,0,6.453125,5.8398438,6.453125,29.2988281
						c0,23.8867188-0.4541016,29.3007812-7.8291016,29.3007812h-0.5849609V408.125h0.5849609
						c10.3076172,0,15.1220703-8.8007812,15.1220703-36.5c0-28.15625-4.1835938-36.5-15.1220703-36.5H104.125v73h7.2929688
						V342.3261719z"/>
					<polygon points="129.125,356.125 147.375,356.125 147.375,363.0253906 136.3251953,401.0244141 136.3251953,401.2246094 
						147.375,401.2246094 147.375,408.125 129.125,408.125 129.125,401.2246094 140.1748047,363.2246094 140.1748047,363.0253906 
						129.125,363.0253906 "/>
				</g>
				<g>
					<path d="M112.1806641,494.7255859h1.6621094c3.9355469,0,5.340332,5.1279297,5.340332,26.8994141
						c0,22.0761719-0.8623047,26.9003906-6.0283203,26.9003906h-0.9741211V558.125h0.4970703
						c9.9428711,0,14.9472656-9.2451172,14.9472656-36.5c0-28.1152344-4.2456055-36.5-14.9472656-36.5H103.625v73h8.5556641
						V494.7255859z"/>
					<polygon points="129.375,506.125 148,506.125 148,515.0253906 137.9750977,549.0244141 137.9750977,549.2246094 
						148,549.2246094 148,558.125 129.375,558.125 129.375,549.2246094 139.3999023,515.2246094 139.3999023,515.0253906 
						129.375,515.0253906 "/>
				</g>
				<g>
					<path d="M112.9433594,647.125h1.3632812c3.0761719,0,4.2275391,4.4160156,4.2275391,24.5
						c0,20.265625-1.2705078,24.5-4.2275391,24.5h-1.3632812v12h0.4091797c9.578125,0,14.7724609-9.6894531,14.7724609-36.5
						c0-28.0742188-4.3076172-36.5-14.7724609-36.5H103.125v73h9.8183594V647.125z"/>
					<polygon points="138.625,667.0253906 129.625,667.0253906 129.625,656.125 148.625,656.125 148.625,667.0253906 
						139.625,697.0244141 139.625,697.2246094 148.625,697.2246094 148.625,708.125 129.625,708.125 129.625,697.2246094 
						138.625,667.2255859 "/>
				</g>
			</g>
			<g>
				<g>
					<path d="M246.625,674.875c0,12.2167969-7.2861328,18.5-21.5,18.5c-13.0693359,0-21.5-7.3554688-21.5-19.25l12.7998047,1
						c0,6.5126953,3.2509766,9.75,8.2001953,9.75c4.9873047,0,8.2998047-3.0488281,8.2998047-9.5
						c0-6.1904297-3.2783203-9.75-8.2998047-9.75c-4.9814453,0-8.2001953,3.2822266-8.2001953,9.5l-12.7998047-1
						c0-11.6796875,6.7216797-19,17-19c5.1484375,0,9.4785156,2.4404297,12.3994141,7h0.2001953l0.2001953-6H246.625V674.875z"/>
					<path d="M222.125,692.125c-3.3105469,2.5244141-4.5,4.3027344-4.5,5.5c0,1.6845703,1.3496094,2.5732422,7.5,3
						c17.2109375,1.2119141,22,5.3876953,22,15.5c0,9.1611328-8.1669922,15-24.5,15c-6.2412109,0-13.2910156-1.4863281-19-4
						v-11.7998047c6.0478516,3.1474609,13.2119141,5,19,5c8.5957031,0,11.5-1.890625,11.5-5.2001953
						c0-2.7236328-1.8671875-4.0087891-13-5c-10.2666016-0.921875-15-4.6582031-15-10.5c0-3.96875,2.1748047-7.8945312,8-13
						L222.125,692.125z"/>
				</g>
				<g>
					<path d="M245.625,524.625c0,12.0703125-7.2177734,18.5-20.25,18.5c-12.6147461,0-20.5-7.140625-20.5-19l10.3500977,0.5
						c0,7.390625,3.7416992,11.0996094,9.8999023,11.0996094c5.8393555,0,9.699707-3.546875,9.699707-10.8496094
						c0-6.9814453-4.0161133-11.1503906-9.699707-11.1503906c-6.1240234,0-9.8999023,3.8046875-9.8999023,10.9003906
						l-10.3500977-0.5c0-11.7998047,6.6572266-19,17-19c5.496582,0,10.0463867,2.5117188,13.0493164,7.25h0.2001953l0.2001953-6.25
						H245.625V524.625z"/>
					<path d="M221.625,541.625c-2.9047852,2.1923828-4.3999023,4.4140625-4.3999023,5.75
						c0,2.2558594,1.7202148,3.4873047,8.3999023,4c15.8901367,1.2109375,20.75,5.4873047,20.75,15
						c0,9.0751953-7.7680664,14.75-23.25,14.75c-6.1689453,0-13.0170898-1.4921875-18.5-4v-9.75
						c6.0083008,3.1894531,13.0444336,5,18.5,5c8.8696289,0,12.7998047-2.65625,12.7998047-6.5
						c0-3.5917969-2.5883789-5.5195312-13.7998047-6.5498047c-10.1054688-0.9189453-14.75-4.5888672-14.75-10.2001953
						c0-3.5644531,2.0092773-7.5146484,7-12.25L221.625,541.625z"/>
				</g>
				<g>
					<path d="M244.625,374.375c0,11.9248047-7.1494141,18.5-19,18.5c-12.1601562,0-19.5-6.9267578-19.5-18.75h7.9003906
						c0,8.2685547,4.2324219,12.4501953,11.5996094,12.4501953c6.6914062,0,11.0996094-4.0449219,11.0996094-12.2001953
						c0-7.7724609-4.7539062-12.5498047-11.0996094-12.5498047c-7.2666016,0-11.5996094,4.3251953-11.5996094,12.2998047H206.125
						c0-11.9199219,6.5927734-19,17-19c5.8447266,0,10.6142578,2.5820312,13.6992188,7.5h0.2001953l0.2001953-6.5H244.625V374.375z"
						/>
					<path d="M223.625,424.4248047c9.1435547,0,14.0996094-3.4208984,14.0996094-7.7998047
						c0-4.4589844-3.3095703-7.0302734-14.5996094-8.0996094c-9.9443359-0.9169922-14.5-4.5185547-14.5-9.9003906
						c0-3.1601562,1.84375-7.1347656,6-11.5l6.5,4c-2.4990234,1.8603516-4.2998047,4.5244141-4.2998047,6
						c0,2.8261719,2.0908203,4.4013672,9.2998047,5c14.5693359,1.2089844,19.5,5.5869141,19.5,14.5
						c0,8.9892578-7.3691406,14.5-22,14.5c-6.0966797,0-12.7431641-1.4980469-18-4v-7.7001953
						C211.59375,422.65625,218.5019531,424.4248047,223.625,424.4248047z"/>
				</g>
				<g>
					<path d="M243.375,224c0,11.9272461-6.5932617,18.5-18,18.5c-11.2436523,0-18.25-7.0942383-18.25-18.625h4.9501953
						c0,9.2231445,4.9902344,14.4750977,13.2998047,14.4750977c8.2524414,0,13.0498047-4.875,13.0498047-14.3500977
						c0-8.7436523-5.4609375-14.5249023-13.0498047-14.5249023c-8.2597656,0-13.2998047,5.3237305-13.2998047,14.3999023H207.125
						c0-11.5791016,6.6328125-18.75,17-18.75c6.2929688,0,11.3144531,3.1142578,14.2495117,8.4414062h0.2001953l0.1000977-7.4414062
						H243.375V224z"/>
					<path d="M223.8183594,256.3222656C215.128418,255.4394531,210.375,252.8388672,210.375,247.625
						c0-2.9541016,1.8027344-6.2973633,5.6923828-9.894043l3.8652344,2.7880859
						c-2.8022461,2.1425781-4.4575195,4.5722656-4.4575195,6.355957c0,2.5,1.4550781,4.3950195,9.956543,5.2529297
						C239.6000977,253.5175781,244.625,257.6704102,244.625,266.625c0,8.8867188-7.2255859,14.5-20.75,14.5
						c-6.1210938,0-12.5678711-1.4624023-17.75-4v-4.9804688c5.5869141,3.0058594,12.21875,4.6303711,17.75,4.6303711
						c10.0507812,0,15.7998047-4.046875,15.7998047-10.1499023
						C239.6748047,260.9726562,236.65625,257.6767578,223.8183594,256.3222656z"/>
				</g>
				<g>
					<path d="M240.125,64.5078125V56.125h2v17.5c0,11.9296875-6.0371094,18.5-17,18.5c-10.3271484,0-17-7.2617188-17-18.5h2
						c0,10.1777344,5.7475586,16.5,15,16.5c9.8134766,0,15-5.7050781,15-16.5c0-9.7148438-6.1679688-16.5-15-16.5
						c-9.2524414,0-15,6.3222656-15,16.5h-2c0-11.2382812,6.6728516-18.5,17-18.5
						c6.7412109,0,12.0146484,3.6464844,14.7998047,9.3828125H240.125z"/>
					<path d="M224.5117188,104.1191406C217.0761719,103.2705078,212.125,101.6708984,212.125,96.625
						c0-2.7480469,1.7612305-5.4599609,5.3847656-8.2880859l1.2304688,1.5761719
						C215.6347656,92.3378906,214.125,94.5332031,214.125,96.625c0,2.1738281,0.8193359,4.3886719,10.6132812,5.5058594
						C238.5058594,103.7011719,243.625,107.6289062,243.625,116.625c0,8.7841797-7.0820312,14.5-19.5,14.5
						c-6.1455078,0-12.3925781-1.4267578-17.5-4v-2.2607422c5.2050781,2.7802734,11.5605469,4.2607422,17.5,4.2607422
						c10.9580078,0,17.5-4.6728516,17.5-12.5C241.625,109.7792969,238.8974609,105.7587891,224.5117188,104.1191406z"/>
				</g>
			</g>
			<g>
				<polygon points="212.125,649.125 222.125,631.125 240.125,631.125 224.125,649.125 "/>
				<polygon points="239.125,481.625 223.625,499.125 213.625,499.125 224.125,481.625 "/>
				<polygon points="238.125,332.125 223.125,349.125 215.125,349.125 226.125,332.125 "/>
				<polygon points="228.9677734,182.625 236.2177734,182.625 222.7128906,199.125 217.4638672,199.125 "/>
				<polygon points="219.8027344,49.125 231.8105469,33.125 234.3105469,33.125 222.3007812,49.125 "/>
			</g>
		</g>
	</svg>
