<?xml version="1.0" encoding="utf-8"?>
<!-- Generator: Adobe Illustrator 15.0.2, SVG Export Plug-In . SVG Version: 6.00 Build 0)  -->
<!DOCTYPE svg PUBLIC "-//W3C//DTD SVG 1.1//EN" "http://www.w3.org/Graphics/SVG/1.1/DTD/svg11.dtd">
<svg version="1.1" id="レイヤー1" xmlns="http://www.w3.org/2000/svg" xmlns:xlink="http://www.w3.org/1999/xlink" x="0px"
	 y="0px" width="841.89px" height="595.275px" viewBox="0 0 841.89 595.275" enable-background="new 0 0 841.89 595.275"
	 xml:space="preserve">
<g>
	<rect x="320.5" y="-77.5" fill="none" stroke="#000000" stroke-width="0.25" width="100" height="150"/>
	<rect x="320.5" y="72.5" fill="none" stroke="#000000" stroke-width="0.25" width="100" height="150"/>
	<rect x="320.5" y="222.5" fill="none" stroke="#000000" stroke-width="0.25" width="100" height="150"/>
	<rect x="320.5" y="372.5" fill="none" stroke="#000000" stroke-width="0.25" width="100" height="150"/>
	<rect x="320.5" y="522.5" fill="none" stroke="#000000" stroke-width="0.25" width="100" height="150"/>
	<rect x="420.5" y="-77.5" fill="none" stroke="#000000" stroke-width="0.25" width="100" height="150"/>
	<rect x="420.5" y="72.5" fill="none" stroke="#000000" stroke-width="0.25" width="100" height="150"/>
	<rect x="420.5" y="222.5" fill="none" stroke="#000000" stroke-width="0.25" width="100" height="150"/>
	<rect x="420.5" y="372.5" fill="none" stroke="#000000" stroke-width="0.25" width="100" height="150"/>
	<rect x="420.5" y="522.5" fill="none" stroke="#000000" stroke-width="0.25" width="100" height="150"/>
</g>
<g>
	<polygon points="470.399,14 458.859,-42.5 455.8,-42.5 449,30.5 451.01,30.5 457.4,-39 457.601,-39 468.93,16.5 472.07,16.5 
		483.4,-39 483.601,-39 489.99,30.5 492,30.5 485.2,-42.5 482.141,-42.5 470.6,14 	"/>
	<polygon points="470.5,160.75 460.98,107.5 453.9,107.5 448.5,180.5 453.355,180.5 457.801,114.75 458,114.75 467.365,166.5 
		473.436,166.5 482.8,114.75 483,114.75 487.445,180.5 492.5,180.5 487.1,107.5 480.221,107.5 470.699,160.75 	"/>
	<polygon points="482.399,268.5 484.899,330.5 493,330.5 489,257.5 478.3,257.5 470.8,307.5 470.601,307.5 463.101,257.5 452,257.5 
		448,330.5 455.7,330.5 458.2,268.5 458.4,268.5 465.8,316.5 474.8,316.5 482.199,268.5 	"/>
	<polygon points="481.1,422.5 482.85,480.5 493.5,480.5 489.75,407.5 476.75,407.5 470.8,454.5 470.601,454.5 464.65,407.5 
		451.25,407.5 447.5,480.5 457.75,480.5 459.5,422.5 459.7,422.5 465.55,466.5 475.05,466.5 480.899,422.5 	"/>
	<polygon points="479.8,576.5 480.8,630.5 494,630.5 490.5,557.5 475.2,557.5 470.8,601.5 470.601,601.5 466.2,557.5 450.5,557.5 
		447,630.5 459.8,630.5 460.8,576.5 461,576.5 465.3,616.5 475.3,616.5 479.6,576.5 	"/>
</g>
<g>
	<path d="M367.5,569.5c9.023,0,12.4,4.416,12.4,24.5c0,20.266-3.727,24.5-12.4,24.5h-4v12h4c16.857,0,26-9.689,26-36.5
		c0-28.074-7.582-36.5-26-36.5h-18v73h14v-61H367.5z"/>
	<path d="M366.6,417.101c11.237,0,15.25,5.128,15.25,26.899c0,22.076-4.5,26.9-15.25,26.9h-4.75v9.6h4.75
		c17.392,0,26.15-9.245,26.15-36.5c0-28.115-7.429-36.5-26.15-36.5h-15.85v73h11.1v-63.399H366.6z"/>
	<path d="M360.2,264.701h5.5c13.45,0,18.1,5.84,18.1,29.299c0,23.887-5.273,29.301-18.1,29.301h-5.5v7.199h5.5
		c17.927,0,26.3-8.801,26.3-36.5c0-28.156-7.275-36.5-26.3-36.5H352v73h8.2V264.701z"/>
	<path d="M358.1,112.101h7.75c13.516,0,20.05,5.806,20.05,31.899c0,26.26-7.034,31.9-20.05,31.9h-7.75v4.6h7.75
		c17.487,0,25.15-9.688,25.15-36.5c0-27.211-7.002-36.5-25.15-36.5H353v73h5.1V112.101z"/>
	<path d="M356-40.5h10c13.582,0,22,5.771,22,34.5c0,28.633-8.795,34.5-22,34.5h-10v2h10c17.047,0,24-10.574,24-36.5
		c0-26.266-6.729-36.5-24-36.5h-12v73h2V-40.5z"/>
</g>
</svg>
