<?xml version="1.0" encoding="utf-8"?>
<!-- Generator: Adobe Illustrator 15.0.2, SVG Export Plug-In . SVG Version: 6.00 Build 0)  -->
<!DOCTYPE svg PUBLIC "-//W3C//DTD SVG 1.1//EN" "http://www.w3.org/Graphics/SVG/1.1/DTD/svg11.dtd">
<svg version="1.1" id="レイヤー1" xmlns="http://www.w3.org/2000/svg" xmlns:xlink="http://www.w3.org/1999/xlink" x="0px"
	 y="0px" width="841.8896484px" height="595.2753906px" viewBox="0 0 841.8896484 595.2753906"
	 enable-background="new 0 0 841.8896484 595.2753906" xml:space="preserve">
<g>
	<rect x="71.5" y="-226.5" fill="none" stroke="#000000" stroke-width="0.25" width="100" height="150"/>
	<rect x="171.5" y="-226.5" fill="none" stroke="#000000" stroke-width="0.25" width="100" height="150"/>
	<rect x="271.5" y="-226.5" fill="none" stroke="#000000" stroke-width="0.25" width="100" height="150"/>
	<rect x="371.5" y="-226.5" fill="none" stroke="#000000" stroke-width="0.25" width="100" height="150"/>
	<rect x="471.5" y="-226.5" fill="none" stroke="#000000" stroke-width="0.25" width="100" height="150"/>
	<rect x="571.5" y="-226.5" fill="none" stroke="#000000" stroke-width="0.25" width="100" height="150"/>
	<rect x="671.5" y="-226.5" fill="none" stroke="#000000" stroke-width="0.25" width="100" height="150"/>
	<rect x="71.5" y="-76.5" fill="none" stroke="#000000" stroke-width="0.25" width="100" height="150"/>
	<rect x="171.5" y="-76.5" fill="none" stroke="#000000" stroke-width="0.25" width="100" height="150"/>
	<rect x="271.5" y="-76.5" fill="none" stroke="#000000" stroke-width="0.25" width="100" height="150"/>
	<rect x="371.5" y="-76.5" fill="none" stroke="#000000" stroke-width="0.25" width="100" height="150"/>
	<rect x="471.5" y="-76.5" fill="none" stroke="#000000" stroke-width="0.25" width="100" height="150"/>
	<rect x="571.5" y="-76.5" fill="none" stroke="#000000" stroke-width="0.25" width="100" height="150"/>
	<rect x="671.5" y="-76.5" fill="none" stroke="#000000" stroke-width="0.25" width="100" height="150"/>
	<rect x="71.5" y="73.5" fill="none" stroke="#000000" stroke-width="0.25" width="100" height="150"/>
	<rect x="171.5" y="73.5" fill="none" stroke="#000000" stroke-width="0.25" width="100" height="150"/>
	<rect x="271.5" y="73.5" fill="none" stroke="#000000" stroke-width="0.25" width="100" height="150"/>
	<rect x="371.5" y="73.5" fill="none" stroke="#000000" stroke-width="0.25" width="100" height="150"/>
	<rect x="471.5" y="73.5" fill="none" stroke="#000000" stroke-width="0.25" width="100" height="150"/>
	<rect x="571.5" y="73.5" fill="none" stroke="#000000" stroke-width="0.25" width="100" height="150"/>
	<rect x="671.5" y="73.5" fill="none" stroke="#000000" stroke-width="0.25" width="100" height="150"/>
	<rect x="71.5" y="223.5" fill="none" stroke="#000000" stroke-width="0.25" width="100" height="150"/>
	<rect x="171.5" y="223.5" fill="none" stroke="#000000" stroke-width="0.25" width="100" height="150"/>
	<rect x="271.5" y="223.5" fill="none" stroke="#000000" stroke-width="0.25" width="100" height="150"/>
	<rect x="371.5" y="223.5" fill="none" stroke="#000000" stroke-width="0.25" width="100" height="150"/>
	<rect x="471.5" y="223.5" fill="none" stroke="#000000" stroke-width="0.25" width="100" height="150"/>
	<rect x="571.5" y="223.5" fill="none" stroke="#000000" stroke-width="0.25" width="100" height="150"/>
	<rect x="671.5" y="223.5" fill="none" stroke="#000000" stroke-width="0.25" width="100" height="150"/>
	<rect x="71.5" y="373.5" fill="none" stroke="#000000" stroke-width="0.25" width="100" height="150"/>
	<rect x="171.5" y="373.5" fill="none" stroke="#000000" stroke-width="0.25" width="100" height="150"/>
	<rect x="271.5" y="373.5" fill="none" stroke="#000000" stroke-width="0.25" width="100" height="150"/>
	<rect x="371.5" y="373.5" fill="none" stroke="#000000" stroke-width="0.25" width="100" height="150"/>
	<rect x="471.5" y="373.5" fill="none" stroke="#000000" stroke-width="0.25" width="100" height="150"/>
	<rect x="571.5" y="373.5" fill="none" stroke="#000000" stroke-width="0.25" width="100" height="150"/>
	<rect x="671.5" y="373.5" fill="none" stroke="#000000" stroke-width="0.25" width="100" height="150"/>
	<rect x="71.5" y="523.5" fill="none" stroke="#000000" stroke-width="0.25" width="100" height="150"/>
	<rect x="171.5" y="523.5" fill="none" stroke="#000000" stroke-width="0.25" width="100" height="150"/>
	<rect x="271.5" y="523.5" fill="none" stroke="#000000" stroke-width="0.25" width="100" height="150"/>
	<rect x="371.5" y="523.5" fill="none" stroke="#000000" stroke-width="0.25" width="100" height="150"/>
	<rect x="471.5" y="523.5" fill="none" stroke="#000000" stroke-width="0.25" width="100" height="150"/>
	<rect x="571.5" y="523.5" fill="none" stroke="#000000" stroke-width="0.25" width="100" height="150"/>
	<rect x="671.5" y="523.5" fill="none" stroke="#000000" stroke-width="0.25" width="100" height="150"/>
	<rect x="71.5" y="673.5" fill="none" stroke="#000000" stroke-width="0.25" width="100" height="150"/>
	<rect x="171.5" y="673.5" fill="none" stroke="#000000" stroke-width="0.25" width="100" height="150"/>
	<rect x="271.5" y="673.5" fill="none" stroke="#000000" stroke-width="0.25" width="100" height="150"/>
	<rect x="371.5" y="673.5" fill="none" stroke="#000000" stroke-width="0.25" width="100" height="150"/>
	<rect x="471.5" y="673.5" fill="none" stroke="#000000" stroke-width="0.25" width="100" height="150"/>
	<rect x="571.5" y="673.5" fill="none" stroke="#000000" stroke-width="0.25" width="100" height="150"/>
	<rect x="671.5" y="673.5" fill="none" stroke="#000000" stroke-width="0.25" width="100" height="150"/>
	<rect x="771.5" y="-226.5" fill="none" stroke="#000000" stroke-width="0.25" width="100" height="150"/>
	<rect x="771.5" y="-76.5" fill="none" stroke="#000000" stroke-width="0.25" width="100" height="150"/>
	<rect x="771.5" y="73.5" fill="none" stroke="#000000" stroke-width="0.25" width="100" height="150"/>
	<rect x="771.5" y="223.5" fill="none" stroke="#000000" stroke-width="0.25" width="100" height="150"/>
	<rect x="771.5" y="373.5" fill="none" stroke="#000000" stroke-width="0.25" width="100" height="150"/>
	<rect x="771.5" y="523.5" fill="none" stroke="#000000" stroke-width="0.25" width="100" height="150"/>
	<rect x="771.5" y="673.5" fill="none" stroke="#000000" stroke-width="0.25" width="100" height="150"/>
	<rect x="871.5" y="-226.5" fill="none" stroke="#000000" stroke-width="0.25" width="100" height="150"/>
	<rect x="871.5" y="-76.5" fill="none" stroke="#000000" stroke-width="0.25" width="100" height="150"/>
	<rect x="871.5" y="73.5" fill="none" stroke="#000000" stroke-width="0.25" width="100" height="150"/>
	<rect x="871.5" y="223.5" fill="none" stroke="#000000" stroke-width="0.25" width="100" height="150"/>
	<rect x="871.5" y="373.5" fill="none" stroke="#000000" stroke-width="0.25" width="100" height="150"/>
	<rect x="871.5" y="523.5" fill="none" stroke="#000000" stroke-width="0.25" width="100" height="150"/>
	<rect x="871.5" y="673.5" fill="none" stroke="#000000" stroke-width="0.25" width="100" height="150"/>
	<rect x="971.5" y="-226.5" fill="none" stroke="#000000" stroke-width="0.25" width="100" height="150"/>
	<rect x="971.5" y="-76.5" fill="none" stroke="#000000" stroke-width="0.25" width="100" height="150"/>
	<rect x="971.5" y="73.5" fill="none" stroke="#000000" stroke-width="0.25" width="100" height="150"/>
	<rect x="971.5" y="223.5" fill="none" stroke="#000000" stroke-width="0.25" width="100" height="150"/>
	<rect x="971.5" y="373.5" fill="none" stroke="#000000" stroke-width="0.25" width="100" height="150"/>
	<rect x="971.5" y="523.5" fill="none" stroke="#000000" stroke-width="0.25" width="100" height="150"/>
	<rect x="971.5" y="673.5" fill="none" stroke="#000000" stroke-width="0.25" width="100" height="150"/>
</g>
<g>
	<polygon points="195.5,781.5 195.5,764.5 223.5,764.5 223.5,708.5 243.5,708.5 243.5,781.5 	"/>
	<polygon points="195.8330078,631.5 195.8330078,617 225.4995117,617 225.4995117,558.5 242.4995117,558.5 242.4995117,631.5 	"/>
	<polygon points="196.1665039,481.5 196.1665039,469.5 227.5,469.5 227.5,408.5 241.5,408.5 241.5,481.5 	"/>
	<polygon points="196.5,331.5 196.5,322 229.5,322 229.5,258.5 240.5,258.5 240.5,331.5 	"/>
	<polygon points="196.9995117,181.4995117 196.9995117,174.5 231.6660156,174.5 231.6660156,108.4995117 239.6665039,108.4995117 
		239.6665039,181.4995117 	"/>
	<polygon points="197.5,31.5 197.5,27 233.8334961,27 233.8334961,-41.5 238.8334961,-41.5 238.8334961,31.5 	"/>
	<polygon points="198,-118.5 198,-120.5 236,-120.5 236,-191.5 238,-191.5 238,-118.5 	"/>
</g>
<g>
	<polygon points="123.5,770.5 95.5,770.5 95.5,753.5 123.5,753.5 123.5,708.5 143.5,708.5 143.5,781.5 123.5,781.5 	"/>
	<polygon points="125.4995117,619.75 95.8330078,619.75 95.8330078,605.25 125.4995117,605.25 125.4995117,558.5 142.5,558.5 
		142.5,631.5 125.4995117,631.5 	"/>
	<polygon points="127.5,469 96.1669922,469 96.1669922,457 127.5,457 127.5,408.5 141.5,408.5 141.5,481.5 127.5,481.5 	"/>
	<polygon points="129.5,318.25 96.5,318.25 96.5,308.75 129.5,308.75 129.5,258.5 140.5,258.5 140.5,331.5 129.5,331.5 	"/>
	<polygon points="96.9995117,167.5 96.9995117,160.4995117 131.6665039,160.4995117 131.6665039,108.4995117 
		139.6665039,108.4995117 139.6665039,181.4995117 131.6665039,181.4995117 131.6665039,167.5 	"/>
	<polygon points="97.5,16.75 97.5,12.25 133.8334961,12.25 133.8334961,-41.5 138.8334961,-41.5 138.8334961,31.5 133.8334961,31.5 
		133.8334961,16.75 	"/>
	<polygon points="136,-134 98,-134 98,-136 136,-136 136,-191.5 138,-191.5 138,-118.5 136,-118.5 	"/>
</g>
<g>
	<polygon points="346,781.5 346,766.5 321,766.5 321,722.5 303,722.5 303,781.5 	"/>
	<polygon points="345.6665039,631.5 345.6665039,618.6660156 319.3330078,618.6660156 319.3330078,572.5 303.9995117,572.5 
		303.9995117,631.5 	"/>
	<polygon points="345.3334961,481.5 345.3334961,470.8330078 317.6665039,470.8330078 317.6665039,422.5 305,422.5 305,481.5 	"/>
	<polygon points="345,331.5 345,323 316,323 316,272.5 306,272.5 306,331.5 	"/>
	<polygon points="344.4995117,181.4995117 344.4995117,175.1665039 314.1665039,175.1665039 314.1665039,122.5 306.8330078,122.5 
		306.8330078,181.4995117 	"/>
	<polygon points="344,31.5 344,27.3334961 312.3334961,27.3334961 312.3334961,-27.5 307.6665039,-27.5 307.6665039,31.5 	"/>
	<polygon points="343.5,-118.5 343.5,-120.5 310.5,-120.5 310.5,-177.5 308.5,-177.5 308.5,-118.5 	"/>
</g>
<g>
	<polygon points="421,759.5 446,759.5 446,744.5 421,744.5 421,722.5 403,722.5 403,781.5 421,781.5 	"/>
	<polygon points="419.3330078,608.4160156 445.6660156,608.4160156 445.6660156,595.5830078 419.3330078,595.5830078 
		419.3330078,572.5 404,572.5 404,631.5 419.3330078,631.5 	"/>
	<polygon points="417.6669922,457.3330078 445.3330078,457.3330078 445.3330078,446.6669922 417.6669922,446.6669922 
		417.6669922,422.5 405,422.5 405,481.5 417.6669922,481.5 	"/>
	<polygon points="416,306.25 445,306.25 445,297.75 416,297.75 416,272.5 406,272.5 406,331.5 416,331.5 	"/>
	<polygon points="444.5,155.1665039 444.5,148.8330078 414.1665039,148.8330078 414.1665039,122.5 406.8330078,122.5 
		406.8330078,181.4995117 414.1665039,181.4995117 414.1665039,155.1665039 	"/>
	<polygon points="444,4.0834961 444,-0.0834961 412.3334961,-0.0834961 412.3334961,-27.5 407.6669922,-27.5 407.6669922,31.5 
		412.3334961,31.5 412.3334961,4.0834961 	"/>
	<polygon points="410.5,-147 443.5,-147 443.5,-149 410.5,-149 410.5,-177.5 408.5,-177.5 408.5,-118.5 410.5,-118.5 	"/>
</g>
<g>
	<g>
		<polygon points="716,736.5 719,704.5 699,704.5 702,736.5 		"/>
		<polygon points="741,736.5 744,704.5 724,704.5 727,736.5 		"/>
	</g>
	<g>
		<polygon points="701.5,554.5 704,584.5 716,584.5 718.5,554.5 		"/>
		<polygon points="724.5,554.5 727,584.5 739,584.5 741.5,554.5 		"/>
	</g>
	<g>
		<polygon points="704,404.5 706,432.5 716,432.5 718,404.5 		"/>
		<polygon points="725,404.5 727,432.5 737,432.5 739,404.5 		"/>
	</g>
	<g>
		<polygon points="706.5,254.5 708,280.5 716,280.5 717.5,254.5 		"/>
		<polygon points="725.5,254.5 727,280.5 735,280.5 736.5,254.5 		"/>
	</g>
	<g>
		<polygon points="708.5,104.5 709.5,129.1660156 715.5,129.1660156 716.5,104.5 		"/>
		<polygon points="726.5,104.5 727.5,129.1660156 733.5,129.1660156 734.5,104.5 		"/>
	</g>
	<g>
		<polygon points="710.5,-45.5 711,-22.1665039 715,-22.1665039 715.5,-45.5 		"/>
		<polygon points="727.5,-45.5 728,-22.1665039 732,-22.1665039 732.5,-45.5 		"/>
	</g>
	<g>
		<rect x="712.5" y="-195.5" width="2" height="22"/>
		<rect x="728.5" y="-195.5" width="2" height="22"/>
	</g>
</g>
<g>
	<g>
		<rect x="601.5" y="687.5" width="40" height="12.5"/>
		<rect x="601.5" y="705" width="40" height="12.5"/>
	</g>
	<g>
		<rect x="602.1660156" y="538.1660156" width="38.6669922" height="10.9169922"/>
		<rect x="602.1660156" y="554.9160156" width="38.6669922" height="10.9169922"/>
	</g>
	<g>
		<rect x="602.8330078" y="388.8330078" width="37.3339844" height="9.3330078"/>
		<rect x="602.8330078" y="404.8330078" width="37.3339844" height="9.3339844"/>
	</g>
	<g>
		<rect x="603.5" y="239.5" width="36" height="7.7490234"/>
		<rect x="603.5" y="254.7490234" width="36" height="7.7509766"/>
	</g>
	<g>
		<rect x="604.1660156" y="90.1665039" width="34.6669922" height="5.8325195"/>
		<rect x="604.1660156" y="104.9990234" width="34.6669922" height="5.8339844"/>
	</g>
	<g>
		<rect x="604.8330078" y="-59.1665039" width="33.3339844" height="3.9165039"/>
		<rect x="604.8330078" y="-44.75" width="33.3339844" height="3.9165039"/>
	</g>
	<g>
		<rect x="605.5" y="-208.5" width="32" height="2"/>
		<rect x="605.5" y="-194.5" width="32" height="2"/>
	</g>
</g>
<g>
	<polygon points="521.5996094,793 527.5,781.5 545.5,781.5 533.5,799.5 509.5,799.5 497.5,781.5 515.5,781.5 521.4003906,793 	"/>
	<polygon points="521.5996094,643.3330078 528.25,631.5 544.3330078,631.5 532,649.1660156 511,649.1660156 498.6669922,631.5 
		514.75,631.5 521.4003906,643.3330078 	"/>
	<polygon points="521.5996094,493.6669922 529,481.5 543.1669922,481.5 530.5,498.8330078 512.5,498.8330078 499.8330078,481.5 
		514,481.5 521.4003906,493.6669922 	"/>
	<polygon points="521.5996094,344 529.75,331.5 542,331.5 529,348.5 514,348.5 501,331.5 513.25,331.5 521.4003906,344 	"/>
	<polygon points="521.5996094,194.7104492 531.5869141,181.4995117 540.6660156,181.4995117 527,198.1665039 516,198.1665039 
		502.3330078,181.4995117 511.4130859,181.4995117 521.4003906,194.7104492 	"/>
	<polygon points="521.6005859,45.4213867 533.4228516,31.5 539.3330078,31.5 525,47.8334961 518,47.8334961 503.6669922,31.5 
		509.5771484,31.5 521.4003906,45.4213867 	"/>
	<polygon points="505,-118.5 507.7402344,-118.5 521.4003906,-103.8681641 521.6005859,-103.8681641 535.2597656,-118.5 538,-118.5 
		523,-102.5 520,-102.5 	"/>
</g>
<g>
	<polygon points="821.4003906,-99.2705078 809.7050781,-124.5 807.5,-124.5 820.5,-96.5 822.5,-96.5 835.5,-124.5 
		833.2949219,-124.5 821.5996094,-99.2705078 	"/>
	<polygon points="832.1132812,25.4995117 821.5996094,50.3193359 821.4003906,50.3193359 810.8867188,25.4995117 805.25,25.4995117 
		818.0830078,53.8334961 824.9160156,53.8334961 837.75,25.4995117 	"/>
	<polygon points="830.9316406,175.5 821.5996094,199.909668 821.4003906,199.909668 812.0683594,175.5 803,175.5 
		815.6669922,204.1665039 827.3330078,204.1665039 840,175.5 	"/>
	<polygon points="821.4003906,349.5 813.25,325.5 800.75,325.5 813.25,354.5 829.75,354.5 842.25,325.5 829.75,325.5 
		821.5996094,349.5 	"/>
	<polygon points="829.3330078,475.5 821.5996094,499 821.4003906,499 813.6669922,475.5 799,475.5 811.3330078,504.8330078 
		831.6669922,504.8330078 844,475.5 	"/>
	<polygon points="828.9169922,625.5 821.5996094,648.5 821.4003906,648.5 814.0830078,625.5 797.25,625.5 809.4169922,655.1669922 
		833.5830078,655.1669922 845.75,625.5 	"/>
	<polygon points="821.4003906,798 814.5,775.5 795.5,775.5 807.5,805.5 835.5,805.5 847.5,775.5 828.5,775.5 821.5996094,798 	"/>
</g>
<g>
	<polygon points="936,-191.5 890,-118.5 892.3632812,-118.5 936,-187.7480469 936,-118.5 938,-118.5 938,-191.5 	"/>
	<polygon fill="#060403" points="934.0830078,31.4995117 938.9160156,31.4995117 938.9160156,-41.5 934.0830078,-41.5 
		889.0830078,31.4995117 894.5751953,31.4995117 934.0830078,-32.4155273 	"/>
	<polygon fill="#0B0807" points="932.1669922,181.5 939.8339844,181.5 939.8339844,108.5 932.1669922,108.5 888.1660156,181.5 
		896.7880859,181.5 932.1669922,122.9169922 	"/>
	<polygon fill="#110C0A" points="930.25,278.25 930.25,331.5 940.75,331.5 940.75,258.5 930.25,258.5 887.25,331.5 899,331.5 	"/>
	<polygon fill="#17100E" points="928.3330078,481.5 941.6660156,481.5 941.6660156,408.5 928.3330078,408.5 886.3330078,481.5 
		901.1660156,481.5 928.3330078,433.6660156 	"/>
	<polygon fill="#1D1411" points="926.4169922,631.5 942.5830078,631.5 942.5830078,558.5 926.4169922,558.5 885.4169922,631.5 
		903.3339844,631.5 926.4169922,589.0830078 	"/>
	<polygon points="924.5,708.5 884.5,781.5 905.5,781.5 924.5,744.5 924.5,781.5 943.5,781.5 943.5,708.5 	"/>
</g>
<g>
	<polygon points="1036,-118.5 990,-191.5 992.3632812,-191.5 1036,-122.2519531 1036,-191.5 1038,-191.5 1038,-118.5 	"/>
	<polygon fill="#060403" points="994.5751953,-41.5 1034.0830078,22.4150391 1034.0830078,-41.5 1038.9160156,-41.5 
		1038.9160156,31.4995117 1034.0830078,31.4995117 989.0830078,-41.5 	"/>
	<polygon fill="#0B0807" points="996.7871094,108.5 1032.1669922,167.0830078 1032.1669922,108.5 1039.8330078,108.5 
		1039.8330078,181.5 1032.1669922,181.5 988.1669922,108.5 	"/>
	<polygon fill="#110C0A" points="1030.25,311.75 1030.25,258.5 1040.75,258.5 1040.75,331.5 1030.25,331.5 987.25,258.5 999,258.5 	
		"/>
	<polygon fill="#17100E" points="1001.1660156,408.5 1028.3330078,456.3330078 1028.3330078,408.5 1041.6660156,408.5 
		1041.6660156,481.5 1028.3330078,481.5 986.3330078,408.5 	"/>
	<polygon fill="#1D1411" points="1003.3330078,558.5 1026.4160156,600.9160156 1026.4160156,558.5 1042.5839844,558.5 
		1042.5839844,631.5 1026.4160156,631.5 985.4169922,558.5 	"/>
	<polygon points="1024.5,781.5 984.5,708.5 1005.5,708.5 1024.5,745.5 1024.5,708.5 1043.5,708.5 1043.5,781.5 	"/>
</g>
</svg>
