<?xml version="1.0" encoding="utf-8"?>
<!-- Generator: Adobe Illustrator 15.0.2, SVG Export Plug-In . SVG Version: 6.00 Build 0)  -->
<!DOCTYPE svg PUBLIC "-//W3C//DTD SVG 1.1//EN" "http://www.w3.org/Graphics/SVG/1.1/DTD/svg11.dtd">
<svg version="1.1" id="レイヤー1" xmlns="http://www.w3.org/2000/svg" xmlns:xlink="http://www.w3.org/1999/xlink" x="0px"
	 y="0px" width="841.8896484px" height="595.2753906px" viewBox="0 0 841.8896484 595.2753906"
	 enable-background="new 0 0 841.8896484 595.2753906" xml:space="preserve">
<g>
	<rect x="71.5" y="-226.5" fill="none" stroke="#000000" stroke-width="0.25" width="100" height="150"/>
	<rect x="71.5" y="-76.5" fill="none" stroke="#000000" stroke-width="0.25" width="100" height="150"/>
	<rect x="71.5" y="73.5" fill="none" stroke="#000000" stroke-width="0.25" width="100" height="150"/>
	<rect x="71.5" y="223.5" fill="none" stroke="#000000" stroke-width="0.25" width="100" height="150"/>
	<rect x="71.5" y="373.5" fill="none" stroke="#000000" stroke-width="0.25" width="100" height="150"/>
	<rect x="71.5" y="523.5" fill="none" stroke="#000000" stroke-width="0.25" width="100" height="150"/>
	<rect x="71.5" y="673.5" fill="none" stroke="#000000" stroke-width="0.25" width="100" height="150"/>
	<rect x="171.5" y="-226.5" fill="none" stroke="#000000" stroke-width="0.25" width="100" height="150"/>
	<rect x="171.5" y="-76.5" fill="none" stroke="#000000" stroke-width="0.25" width="100" height="150"/>
	<rect x="171.5" y="73.5" fill="none" stroke="#000000" stroke-width="0.25" width="100" height="150"/>
	<rect x="171.5" y="223.5" fill="none" stroke="#000000" stroke-width="0.25" width="100" height="150"/>
	<rect x="171.5" y="373.5" fill="none" stroke="#000000" stroke-width="0.25" width="100" height="150"/>
	<rect x="171.5" y="523.5" fill="none" stroke="#000000" stroke-width="0.25" width="100" height="150"/>
	<rect x="171.5" y="673.5" fill="none" stroke="#000000" stroke-width="0.25" width="100" height="150"/>
	<rect x="271.5" y="-226.5" fill="none" stroke="#000000" stroke-width="0.25" width="100" height="150"/>
	<rect x="271.5" y="-76.5" fill="none" stroke="#000000" stroke-width="0.25" width="100" height="150"/>
	<rect x="271.5" y="73.5" fill="none" stroke="#000000" stroke-width="0.25" width="100" height="150"/>
	<rect x="271.5" y="223.5" fill="none" stroke="#000000" stroke-width="0.25" width="100" height="150"/>
	<rect x="271.5" y="373.5" fill="none" stroke="#000000" stroke-width="0.25" width="100" height="150"/>
	<rect x="271.5" y="523.5" fill="none" stroke="#000000" stroke-width="0.25" width="100" height="150"/>
	<rect x="271.5" y="673.5" fill="none" stroke="#000000" stroke-width="0.25" width="100" height="150"/>
	<rect x="371.5" y="-226.5" fill="none" stroke="#000000" stroke-width="0.25" width="100" height="150"/>
	<rect x="371.5" y="-76.5" fill="none" stroke="#000000" stroke-width="0.25" width="100" height="150"/>
	<rect x="371.5" y="73.5" fill="none" stroke="#000000" stroke-width="0.25" width="100" height="150"/>
	<rect x="371.5" y="223.5" fill="none" stroke="#000000" stroke-width="0.25" width="100" height="150"/>
	<rect x="371.5" y="373.5" fill="none" stroke="#000000" stroke-width="0.25" width="100" height="150"/>
	<rect x="371.5" y="523.5" fill="none" stroke="#000000" stroke-width="0.25" width="100" height="150"/>
	<rect x="371.5" y="673.5" fill="none" stroke="#000000" stroke-width="0.25" width="100" height="150"/>
	<rect x="471.5" y="-226.5" fill="none" stroke="#000000" stroke-width="0.25" width="100" height="150"/>
	<rect x="471.5" y="-76.5" fill="none" stroke="#000000" stroke-width="0.25" width="100" height="150"/>
	<rect x="471.5" y="73.5" fill="none" stroke="#000000" stroke-width="0.25" width="100" height="150"/>
	<rect x="471.5" y="223.5" fill="none" stroke="#000000" stroke-width="0.25" width="100" height="150"/>
	<rect x="471.5" y="373.5" fill="none" stroke="#000000" stroke-width="0.25" width="100" height="150"/>
	<rect x="471.5" y="523.5" fill="none" stroke="#000000" stroke-width="0.25" width="100" height="150"/>
	<rect x="471.5" y="673.5" fill="none" stroke="#000000" stroke-width="0.25" width="100" height="150"/>
	<rect x="571.5" y="-226.5" fill="none" stroke="#000000" stroke-width="0.25" width="100" height="150"/>
	<rect x="571.5" y="-76.5" fill="none" stroke="#000000" stroke-width="0.25" width="100" height="150"/>
	<rect x="571.5" y="73.5" fill="none" stroke="#000000" stroke-width="0.25" width="100" height="150"/>
	<rect x="571.5" y="223.5" fill="none" stroke="#000000" stroke-width="0.25" width="100" height="150"/>
	<rect x="571.5" y="373.5" fill="none" stroke="#000000" stroke-width="0.25" width="100" height="150"/>
	<rect x="571.5" y="523.5" fill="none" stroke="#000000" stroke-width="0.25" width="100" height="150"/>
	<rect x="571.5" y="673.5" fill="none" stroke="#000000" stroke-width="0.25" width="100" height="150"/>
	<rect x="671.5" y="-226.5" fill="none" stroke="#000000" stroke-width="0.25" width="100" height="150"/>
	<rect x="671.5" y="-76.5" fill="none" stroke="#000000" stroke-width="0.25" width="100" height="150"/>
	<rect x="671.5" y="73.5" fill="none" stroke="#000000" stroke-width="0.25" width="100" height="150"/>
	<rect x="671.5" y="223.5" fill="none" stroke="#000000" stroke-width="0.25" width="100" height="150"/>
	<rect x="671.5" y="373.5" fill="none" stroke="#000000" stroke-width="0.25" width="100" height="150"/>
	<rect x="671.5" y="523.5" fill="none" stroke="#000000" stroke-width="0.25" width="100" height="150"/>
	<rect x="671.5" y="673.5" fill="none" stroke="#000000" stroke-width="0.25" width="100" height="150"/>
	<rect x="771.5" y="-226.5" fill="none" stroke="#000000" stroke-width="0.25" width="100" height="150"/>
	<rect x="771.5" y="-76.5" fill="none" stroke="#000000" stroke-width="0.25" width="100" height="150"/>
	<rect x="771.5" y="73.5" fill="none" stroke="#000000" stroke-width="0.25" width="100" height="150"/>
	<rect x="771.5" y="223.5" fill="none" stroke="#000000" stroke-width="0.25" width="100" height="150"/>
	<rect x="771.5" y="373.5" fill="none" stroke="#000000" stroke-width="0.25" width="100" height="150"/>
	<rect x="771.5" y="523.5" fill="none" stroke="#000000" stroke-width="0.25" width="100" height="150"/>
	<rect x="771.5" y="673.5" fill="none" stroke="#000000" stroke-width="0.25" width="100" height="150"/>
</g>
<g>
	<g>
		<rect x="112.5" y="785.5" width="18" height="9"/>
		<path d="M143.5,807.5H130c-0.3442383-3.0390625-4.3540039-6-8.5-6c-4.1479492,0-8.1567383,2.9609375-8.5,6H99.5
			c0-8.828125,9.3867188-17,22-17S143.5,798.671875,143.5,807.5z"/>
	</g>
	<g>
		<rect x="113.8330078" y="635.5" width="15.3330078" height="9"/>
		<path d="M142.6665039,657.1660156h-11.8334961c-0.3027344-3.1142578-4.625-6.3330078-9.3334961-6.3330078
			c-4.7094727,0-9.0307617,3.21875-9.3330078,6.3330078h-11.8334961c0-8.3515625,8.9467773-16.1660156,21.1665039-16.1660156
			C133.7197266,641,142.6665039,648.8144531,142.6665039,657.1660156z"/>
	</g>
	<g>
		<rect x="115.1669922" y="485.5" width="12.6660156" height="9"/>
		<path d="M141.8330078,506.8339844h-10.1660156c-0.2617188-3.1904297-4.8964844-6.6679688-10.1669922-6.6679688
			c-5.2719727,0-9.9052734,3.4775391-10.1665039,6.6679688h-10.1669922C101.1665039,498.9560547,109.6733398,491.5,121.5,491.5
			C133.3261719,491.5,141.8330078,498.9560547,141.8330078,506.8339844z"/>
	</g>
	<g>
		<rect x="116.5" y="335.5" width="10" height="9"/>
		<path d="M141,356.5h-8.5c-0.2207031-3.265625-5.1669922-7-11-7c-5.8339844,0-10.7802734,3.734375-11,7H102
			c0-7.4013672,8.0664062-14.5,19.5-14.5C132.9321289,342,141,349.0986328,141,356.5z"/>
	</g>
	<g>
		<rect x="117.8330078" y="185.5" width="7.3334961" height="9"/>
		<path d="M139.9995117,206.1665039h-6.3330078c-0.1469727-3.7871094-5.387207-8.0004883-12.1669922-8.0004883
			c-6.7802734,0-12.0200195,4.2133789-12.1665039,8.0004883h-6.3334961c0-7.0336914,7.7275391-13.6669922,18.5-13.6669922
			C132.2709961,192.4995117,139.9995117,199.1328125,139.9995117,206.1665039z"/>
	</g>
	<g>
		<rect x="119.1669922" y="35.5" width="4.6665039" height="9"/>
		<path d="M139,55.8330078h-4.1665039c-0.0737305-4.3081055-5.6069336-9-13.3334961-9
			c-7.7270508,0-13.2597656,4.6918945-13.3330078,9H104C104,49.1679688,111.3876953,43,121.5,43
			C131.6103516,43,139,49.1679688,139,55.8330078z"/>
	</g>
	<g>
		<rect x="120.5" y="-114.5" width="2" height="9"/>
		<path d="M138-94.5h-2c0-4.8300781-5.8271484-10-14.5-10c-8.6738281,0-14.5,5.1699219-14.5,10h-2c0-6.296875,7.0488281-12,16.5-12
			C130.9492188-106.5,138-100.796875,138-94.5z"/>
	</g>
</g>
<g>
	<g>
		<rect x="213" y="689.5" width="17" height="15.5"/>
		<rect x="201.5" y="709" width="17" height="15.5"/>
		<rect x="224.5" y="709" width="17" height="15.5"/>
	</g>
	<g>
		<rect x="214.1660156" y="541.1660156" width="14.6669922" height="14.5"/>
		<rect x="203.1665039" y="559.5" width="14.6665039" height="14.5"/>
		<rect x="225.1665039" y="559.5" width="14.6665039" height="14.5"/>
	</g>
	<g>
		<rect x="215.3330078" y="392.8330078" width="12.3334961" height="13.5"/>
		<rect x="204.8334961" y="410" width="12.3334961" height="13.5"/>
		<rect x="225.8330078" y="410" width="12.3339844" height="13.5"/>
	</g>
	<g>
		<rect x="216.5" y="244.5" width="10" height="12.5"/>
		<rect x="206.5" y="260.5" width="10" height="12.5"/>
		<rect x="226.5" y="260.5" width="10" height="12.5"/>
	</g>
	<g>
		<rect x="217.8330078" y="95.1660156" width="7.3330078" height="12.1669922"/>
		<rect x="207.8330078" y="110.3330078" width="7.3334961" height="12.1665039"/>
		<rect x="227.8330078" y="110.3330078" width="7.3334961" height="12.1665039"/>
	</g>
	<g>
		<rect x="219.1665039" y="-54.1669922" width="4.6665039" height="11.8334961"/>
		<rect x="209.1669922" y="-39.8330078" width="4.6665039" height="11.8330078"/>
		<rect x="229.1669922" y="-39.8330078" width="4.6660156" height="11.8330078"/>
	</g>
	<g>
		<rect x="220.5" y="-203.5" width="2" height="11.5"/>
		<rect x="210.5" y="-190" width="2" height="11.5"/>
		<rect x="230.5" y="-190" width="2" height="11.5"/>
	</g>
</g>
<g>
	<g>
		<rect x="413" y="689.5" width="17" height="15"/>
		<rect x="413" y="709.5" width="17" height="15"/>
	</g>
	<g>
		<rect x="414.1665039" y="541.1660156" width="14.6665039" height="13.9169922"/>
		<rect x="414.1665039" y="560.0830078" width="14.6665039" height="13.9169922"/>
	</g>
	<g>
		<rect x="415.3334961" y="392.8330078" width="12.3334961" height="12.8339844"/>
		<rect x="415.3334961" y="410.6669922" width="12.3334961" height="12.8330078"/>
	</g>
	<g>
		<rect x="416.5" y="244.5" width="10" height="11.75"/>
		<rect x="416.5" y="261.25" width="10" height="11.75"/>
	</g>
	<g>
		<rect x="417.8330078" y="95.1660156" width="7.3330078" height="11.1669922"/>
		<rect x="417.8330078" y="111.3330078" width="7.3330078" height="11.1665039"/>
	</g>
	<g>
		<rect x="419.1669922" y="-54.1669922" width="4.6669922" height="10.5834961"/>
		<rect x="419.1669922" y="-38.5830078" width="4.6669922" height="10.5830078"/>
	</g>
	<g>
		<rect x="420.5" y="-203.5" width="2" height="10"/>
		<rect x="420.5" y="-188.5" width="2" height="10"/>
	</g>
</g>
<g>
	<rect x="508.75" y="244.5" width="9" height="28.5"/>
	<rect x="524.25" y="244.5" width="10" height="11.75"/>
	<rect x="524.25" y="261.25" width="10" height="11.75"/>
</g>
<g>
	<rect x="502.5" y="689.5" width="15" height="35"/>
	<rect x="523.5" y="689.5" width="17" height="15"/>
	<rect x="523.5" y="709.5" width="17" height="15"/>
</g>
<g>
	<rect x="513.5" y="-203.5" width="2" height="25"/>
	<rect x="527.5" y="-203.5" width="2" height="10"/>
	<rect x="527.5" y="-188.5" width="2" height="10"/>
</g>
<g>
	<g>
		<rect x="502.5" y="689.5" width="15" height="35"/>
		<rect x="523.5" y="689.5" width="17" height="15"/>
		<rect x="523.5" y="709.5" width="17" height="15"/>
	</g>
	<g>
		<rect x="504.5830078" y="541.1660156" width="13" height="32.8339844"/>
		<rect x="523.75" y="541.1660156" width="14.6660156" height="13.9169922"/>
		<rect x="523.75" y="560.0830078" width="14.6660156" height="13.9169922"/>
	</g>
	<g>
		<rect x="506.6669922" y="392.8330078" width="11" height="30.6669922"/>
		<rect x="524" y="392.8330078" width="12.3339844" height="12.8339844"/>
		<rect x="524" y="410.6669922" width="12.3339844" height="12.8330078"/>
	</g>
	<g>
		<rect x="508.75" y="244.5" width="9" height="28.5"/>
		<rect x="524.25" y="244.5" width="10" height="11.75"/>
		<rect x="524.25" y="261.25" width="10" height="11.75"/>
	</g>
	<g>
		<rect x="510.3330078" y="95.1660156" width="6.6669922" height="27.3334961"/>
		<rect x="525.3330078" y="95.1660156" width="7.3330078" height="11.1669922"/>
		<rect x="525.3330078" y="111.3330078" width="7.3330078" height="11.1665039"/>
	</g>
	<g>
		<rect x="511.9169922" y="-54.1669922" width="4.3330078" height="26.1669922"/>
		<rect x="526.4169922" y="-54.1669922" width="4.6660156" height="10.5834961"/>
		<rect x="526.4169922" y="-38.5830078" width="4.6660156" height="10.5830078"/>
	</g>
	<g>
		<rect x="513.5" y="-203.5" width="2" height="25"/>
		<rect x="527.5" y="-203.5" width="2" height="10"/>
		<rect x="527.5" y="-188.5" width="2" height="10"/>
	</g>
</g>
<g>
	<polygon points="314.9418945,715.2412109 337,717.0800781 337,726.5 306,721.1513672 306,709.4257812 327.4614258,707.1005859 
		327.4614258,706.9003906 306,704.5761719 306,692.8505859 337,687.5 337,697.1171875 314.9418945,698.953125 
		314.9418945,699.1533203 337,701.4785156 337,712.7167969 314.9418945,715.0410156 	"/>
	<polygon points="328.3334961,557.4833984 305.9995117,554.8183594 305.9995117,544.4755859 337,539.1660156 337,547.5908203 
		314.1264648,549.8359375 314.1264648,550.0361328 337,552.7050781 337,562.6269531 314.1264648,565.2949219 
		314.1264648,565.4951172 337,567.7421875 337,576 305.9995117,570.6914062 305.9995117,560.3486328 328.3334961,557.6835938 	"/>
	<polygon points="329.2060547,408.0664062 306,405.0615234 306,396.1015625 337,390.8339844 337,398.0654297 
		313.3115234,400.7197266 313.3115234,400.9199219 337,403.9326172 337,412.5371094 313.3115234,415.5488281 
		313.3115234,415.7490234 337,418.4052734 337,425.5 306,420.2324219 306,411.2714844 329.2060547,408.2666016 	"/>
	<polygon points="330.0791016,258.6494141 305.9995117,255.3046875 305.9995117,247.7275391 337,242.5 337,248.5390625 
		312.496582,251.6025391 312.496582,251.8027344 337,255.1601562 337,262.4472656 312.496582,265.8027344 312.496582,266.0029297 
		337,269.0683594 337,275 305.9995117,269.7724609 305.9995117,262.1943359 330.0791016,258.8496094 	"/>
	<polygon points="337,97.8740234 311.8544922,101.7470703 311.8544922,101.9472656 337,106.0234375 337,111.7143555 
		311.8544922,115.7890625 311.8544922,115.9892578 337,119.8632812 337,124.5 305.9995117,118.828125 305.9995117,113.0595703 
		331.1391602,108.9326172 331.1391602,108.7329102 305.9995117,104.6054688 305.9995117,98.8378906 337,93.1665039 	"/>
	<polygon points="337,-52.7905273 311.2138672,-48.1074219 311.2138672,-47.9077148 337,-43.1132812 337,-39.0175781 
		311.2138672,-34.2236328 311.2138672,-34.0239258 337,-29.3408203 337,-26 306,-32.1152344 306,-36.074707 
		332.2001953,-40.9833984 332.2001953,-41.1831055 306,-46.0927734 306,-50.0512695 337,-56.1669922 	"/>
	<polygon points="333.2607422,-191.0996094 305.9995117,-196.7910156 305.9995117,-198.9404297 337,-205.5 337,-203.4550781 
		310.5722656,-197.9628906 310.5722656,-197.7626953 337,-192.25 337,-189.75 310.5722656,-184.2373047 310.5722656,-184.0371094 
		337,-178.5449219 337,-176.5 305.9995117,-183.0595703 305.9995117,-185.2089844 333.2607422,-190.8994141 	"/>
</g>
<g>
	<rect x="710.5" y="701.5" width="22" height="21"/>
	<rect x="712" y="552.6660156" width="19" height="19"/>
	<rect x="713.5" y="403.8330078" width="16" height="17"/>
	<rect x="715" y="255" width="13" height="15"/>
	<rect x="716.8330078" y="105.1660156" width="9.3330078" height="14"/>
	<rect x="718.6669922" y="-44.6669922" width="5.6669922" height="13"/>
	<rect x="720.5" y="-194.5" width="2" height="12"/>
</g>
<g>
	<path d="M634.5-95.5v2h-6c-8.4179688,0-12-3.609375-12-11v-8h2v8c0,6.3925781,2.8964844,9,10,9H634.5z"/>
	<path d="M635.3330078,56.8330078h-7.4169922c-8.9492188,0-12.9160156-3.9326172-12.9160156-11.75v-7.5834961h4.6660156v7.4169922
		c0,5.921875,2.5966797,8.25,9.0839844,8.25h6.5830078V56.8330078z"/>
	<path d="M636.1669922,207.1669922h-8.8339844c-9.4814453,0-13.8330078-4.2568359-13.8330078-12.5004883V187.5h7.3339844v6.8334961
		c0,5.4511719,2.2958984,7.5,8.1660156,7.5h7.1669922V207.1669922z"/>
	<path d="M637,350.5v7h-10.25c-10.0126953,0-14.75-4.5800781-14.75-13.25v-6.75h10v6.25c0,4.9804688,1.9960938,6.75,7.25,6.75H637z"
		/>
	<path d="M638,507.8330078h-11.8339844c-10.5439453,0-15.6660156-4.9033203-15.6660156-14V487.5h12.6660156v5.6660156
		c0,4.5097656,1.6962891,6,6.3339844,6h8.5V507.8330078z"/>
	<path d="M639,658.1660156h-13.4160156C614.5078125,658.1660156,609,652.9384766,609,643.4169922V637.5h15.3330078v5.0830078
		c0,4.0390625,1.3955078,5.25,5.4169922,5.25H639V658.1660156z"/>
	<path d="M640,796.5v12h-15c-11.6074219,0-17.5-5.5517578-17.5-15.5v-5.5h18v4.5c0,3.5673828,1.0957031,4.5,4.5,4.5H640z"/>
</g>
</svg>
