<?xml version="1.0" encoding="utf-8"?>
<!-- Generator: Adobe Illustrator 15.0.2, SVG Export Plug-In . SVG Version: 6.00 Build 0)  -->
<!DOCTYPE svg PUBLIC "-//W3C//DTD SVG 1.1//EN" "http://www.w3.org/Graphics/SVG/1.1/DTD/svg11.dtd">
<svg version="1.1" id="レイヤー1" xmlns="http://www.w3.org/2000/svg" xmlns:xlink="http://www.w3.org/1999/xlink" x="0px"
	 y="0px" width="841.8896484px" height="595.2753906px" viewBox="0 0 841.8896484 595.2753906"
	 enable-background="new 0 0 841.8896484 595.2753906" xml:space="preserve">
<g>
	<rect x="71.5" y="-226.5" fill="none" stroke="#000000" stroke-width="0.25" width="100" height="150"/>
	<rect x="71.5" y="-76.5" fill="none" stroke="#000000" stroke-width="0.25" width="100" height="150"/>
	<rect x="71.5" y="73.5" fill="none" stroke="#000000" stroke-width="0.25" width="100" height="150"/>
	<rect x="71.5" y="223.5" fill="none" stroke="#000000" stroke-width="0.25" width="100" height="150"/>
	<rect x="71.5" y="373.5" fill="none" stroke="#000000" stroke-width="0.25" width="100" height="150"/>
	<rect x="71.5" y="523.5" fill="none" stroke="#000000" stroke-width="0.25" width="100" height="150"/>
	<rect x="71.5" y="673.5" fill="none" stroke="#000000" stroke-width="0.25" width="100" height="150"/>
	<rect x="171.5" y="-226.5" fill="none" stroke="#000000" stroke-width="0.25" width="100" height="150"/>
	<rect x="171.5" y="-76.5" fill="none" stroke="#000000" stroke-width="0.25" width="100" height="150"/>
	<rect x="171.5" y="73.5" fill="none" stroke="#000000" stroke-width="0.25" width="100" height="150"/>
	<rect x="171.5" y="223.5" fill="none" stroke="#000000" stroke-width="0.25" width="100" height="150"/>
	<rect x="171.5" y="373.5" fill="none" stroke="#000000" stroke-width="0.25" width="100" height="150"/>
	<rect x="171.5" y="523.5" fill="none" stroke="#000000" stroke-width="0.25" width="100" height="150"/>
	<rect x="171.5" y="673.5" fill="none" stroke="#000000" stroke-width="0.25" width="100" height="150"/>
	<rect x="271.5" y="-226.5" fill="none" stroke="#000000" stroke-width="0.25" width="100" height="150"/>
	<rect x="271.5" y="-76.5" fill="none" stroke="#000000" stroke-width="0.25" width="100" height="150"/>
	<rect x="271.5" y="73.5" fill="none" stroke="#000000" stroke-width="0.25" width="100" height="150"/>
	<rect x="271.5" y="223.5" fill="none" stroke="#000000" stroke-width="0.25" width="100" height="150"/>
	<rect x="271.5" y="373.5" fill="none" stroke="#000000" stroke-width="0.25" width="100" height="150"/>
	<rect x="271.5" y="523.5" fill="none" stroke="#000000" stroke-width="0.25" width="100" height="150"/>
	<rect x="271.5" y="673.5" fill="none" stroke="#000000" stroke-width="0.25" width="100" height="150"/>
	<rect x="371.5" y="-226.5" fill="none" stroke="#000000" stroke-width="0.25" width="100" height="150"/>
	<rect x="371.5" y="-76.5" fill="none" stroke="#000000" stroke-width="0.25" width="100" height="150"/>
	<rect x="371.5" y="73.5" fill="none" stroke="#000000" stroke-width="0.25" width="100" height="150"/>
	<rect x="371.5" y="223.5" fill="none" stroke="#000000" stroke-width="0.25" width="100" height="150"/>
	<rect x="371.5" y="373.5" fill="none" stroke="#000000" stroke-width="0.25" width="100" height="150"/>
	<rect x="371.5" y="523.5" fill="none" stroke="#000000" stroke-width="0.25" width="100" height="150"/>
	<rect x="371.5" y="673.5" fill="none" stroke="#000000" stroke-width="0.25" width="100" height="150"/>
	<rect x="471.5" y="-226.5" fill="none" stroke="#000000" stroke-width="0.25" width="100" height="150"/>
	<rect x="471.5" y="-76.5" fill="none" stroke="#000000" stroke-width="0.25" width="100" height="150"/>
	<rect x="471.5" y="73.5" fill="none" stroke="#000000" stroke-width="0.25" width="100" height="150"/>
	<rect x="471.5" y="223.5" fill="none" stroke="#000000" stroke-width="0.25" width="100" height="150"/>
	<rect x="471.5" y="373.5" fill="none" stroke="#000000" stroke-width="0.25" width="100" height="150"/>
	<rect x="471.5" y="523.5" fill="none" stroke="#000000" stroke-width="0.25" width="100" height="150"/>
	<rect x="471.5" y="673.5" fill="none" stroke="#000000" stroke-width="0.25" width="100" height="150"/>
	<rect x="571.5" y="-226.5" fill="none" stroke="#000000" stroke-width="0.25" width="100" height="150"/>
	<rect x="571.5" y="-76.5" fill="none" stroke="#000000" stroke-width="0.25" width="100" height="150"/>
	<rect x="571.5" y="73.5" fill="none" stroke="#000000" stroke-width="0.25" width="100" height="150"/>
	<rect x="571.5" y="223.5" fill="none" stroke="#000000" stroke-width="0.25" width="100" height="150"/>
	<rect x="571.5" y="373.5" fill="none" stroke="#000000" stroke-width="0.25" width="100" height="150"/>
	<rect x="571.5" y="523.5" fill="none" stroke="#000000" stroke-width="0.25" width="100" height="150"/>
	<rect x="571.5" y="673.5" fill="none" stroke="#000000" stroke-width="0.25" width="100" height="150"/>
	<rect x="671.5" y="-226.5" fill="none" stroke="#000000" stroke-width="0.25" width="100" height="150"/>
	<rect x="671.5" y="-76.5" fill="none" stroke="#000000" stroke-width="0.25" width="100" height="150"/>
	<rect x="671.5" y="73.5" fill="none" stroke="#000000" stroke-width="0.25" width="100" height="150"/>
	<rect x="671.5" y="223.5" fill="none" stroke="#000000" stroke-width="0.25" width="100" height="150"/>
	<rect x="671.5" y="373.5" fill="none" stroke="#000000" stroke-width="0.25" width="100" height="150"/>
	<rect x="671.5" y="523.5" fill="none" stroke="#000000" stroke-width="0.25" width="100" height="150"/>
	<rect x="671.5" y="673.5" fill="none" stroke="#000000" stroke-width="0.25" width="100" height="150"/>
	<rect x="771.5" y="-226.5" fill="none" stroke="#000000" stroke-width="0.25" width="100" height="150"/>
	<rect x="771.5" y="-76.5" fill="none" stroke="#000000" stroke-width="0.25" width="100" height="150"/>
	<rect x="771.5" y="73.5" fill="none" stroke="#000000" stroke-width="0.25" width="100" height="150"/>
	<rect x="771.5" y="223.5" fill="none" stroke="#000000" stroke-width="0.25" width="100" height="150"/>
	<rect x="771.5" y="373.5" fill="none" stroke="#000000" stroke-width="0.25" width="100" height="150"/>
	<rect x="771.5" y="523.5" fill="none" stroke="#000000" stroke-width="0.25" width="100" height="150"/>
	<rect x="771.5" y="673.5" fill="none" stroke="#000000" stroke-width="0.25" width="100" height="150"/>
</g>
<g>
	<path d="M123.5,709c2.2802734,1.4160156,4.0195312,2,5,2c1.3574219,0,2-0.8867188,2-5.5h13c0,13.9189453-4.15625,19-11,19
		c-3.78125,0-7.7939453-1.265625-13-4.5c-2.2802734-1.4179688-4.0205078-2-5-2c-1.4023438,0-2,0.9394531-2,6.5h-13
		c0-14.6982422,4.015625-20,11-20C114.28125,704.5,118.2924805,705.7636719,123.5,709z"/>
	<path d="M123.25,560c2.8549805,1.7949219,4.5869141,2.4160156,5.6665039,2.4160156
		c1.5097656,0,2.2495117-1.0664062,2.2495117-5.9160156h11.5004883c0,12.7783203-3.9521484,17.5-10.3334961,17.5
		c-3.5678711,0-7.3271484-1.2060547-12.5830078-4.5c-2.855957-1.796875-4.5883789-2.4169922-5.6669922-2.4169922
		c-1.5576172,0-2.25,1.1386719-2.25,6.9169922h-11.5c0-13.5517578,3.7919922-18.5,10.3334961-18.5
		C114.2529297,555.5,118.0175781,556.7207031,123.25,560z"/>
	<path d="M123,411c3.4306641,2.1738281,5.1547852,2.8330078,6.3330078,2.8330078c1.6625977,0,2.5-1.2470703,2.5-6.3330078h10
		c0,11.6386719-3.7475586,16-9.6665039,16C128.8125,423.5,125.3066406,422.3544922,120,419
		c-3.4306641-2.1748047-5.1552734-2.8330078-6.3334961-2.8330078c-1.7124023,0-2.4995117,1.3378906-2.4995117,7.3330078h-10.0004883
		c0-12.4042969,3.5688477-17,9.6665039-17C114.2255859,406.5,117.7426758,407.6777344,123,411z"/>
	<path d="M122.75,262c4.0058594,2.5527344,5.7226562,3.25,7,3.25c1.8144531,0,2.75-1.4277344,2.75-6.75h8.5
		c0,10.4980469-3.5439453,14.5-9,14.5c-3.140625,0-6.3935547-1.0859375-11.75-4.5c-4.0058594-2.5527344-5.7226562-3.25-7-3.25
		c-1.8681641,0-2.75,1.5371094-2.75,7.75H102c0-11.2578125,3.3447266-15.5,9-15.5
		C114.1982422,257.5,117.4677734,258.6347656,122.75,262z"/>
	<path d="M139.9995117,109.5c0,9.753418-3.5405273,12.9995117-8.1665039,12.9995117
		c-3.0068359,0-6.3046875-1.2250977-11.3867188-4.5786133c-4.0117188-2.6582031-6.1748047-3.5878906-7.7802734-3.5878906
		c-1.6162109,0-3.3330078,1.0249023-3.3330078,8.1665039h-6.3334961c0-10.1015625,3.0610352-13.9995117,8.1665039-13.9995117
		c2.9702148,0,6.222168,1.1669922,11.3339844,4.5449219c4.1674805,2.7685547,6.2802734,3.621582,7.8330078,3.621582
		c2.1225586,0,3.3334961-1.6782227,3.3334961-7.1665039H139.9995117z"/>
	<path d="M139-39.5c0,9.0097656-3.5380859,11.5-7.3330078,11.5c-2.8730469,0-6.2163086-1.3652344-11.0244141-4.6572266
		c-4.0166016-2.7641602-6.6259766-3.9262695-8.5595703-3.9262695c-1.3642578,0-3.9160156,0.512207-3.9160156,8.5834961H104
		c0-8.9462891,2.7768555-12.5,7.3330078-12.5c2.7416992,0,5.9760742,1.199707,10.9169922,4.5898438
		c4.3300781,2.9848633,6.8388672,3.9936523,8.6669922,3.9936523c2.4296875,0,3.9165039-1.9291992,3.9165039-7.5834961H139z"/>
	<path d="M105-178.5c0-7.7900391,2.4931641-11,6.5-11c2.5126953,0,5.7294922,1.2324219,10.5,4.6347656
		c4.4921875,3.2011719,7.3964844,4.3652344,9.5,4.3652344c2.7382812,0,4.5-2.1796875,4.5-8h2c0,8.265625-3.5351562,10-6.5,10
		c-2.7392578,0-6.1274414-1.5048828-10.6611328-4.7363281C116.8164062-186.1054688,113.7617188-187.5,111.5-187.5
		c-1.1132812,0-4.5,0-4.5,9H105z"/>
</g>
<g>
	<polygon points="314,800.5996094 334.5,804.5 334.5,816.5 304.5,807.5 304.5,793.5 334.5,784.5 334.5,796.5 314,800.4003906 	"/>
	<polygon points="313.1665039,650.765625 334.3330078,655.5830078 334.3330078,666.3330078 304.6660156,656.8330078 
		304.6660156,644.5 334.3330078,635 334.3330078,645.75 313.1665039,650.5664062 	"/>
	<polygon points="312.3334961,500.9326172 334.1669922,506.6660156 334.1669922,516.1660156 304.8330078,506.1660156 
		304.8330078,495.5 334.1669922,485.5 334.1669922,495 312.3334961,500.7333984 	"/>
	<polygon points="311.5,351.0996094 334,357.75 334,366 305,355.5 305,346.5 334,336 334,344.25 311.5,350.9003906 	"/>
	<polygon points="333.8330078,186.4995117 333.8330078,192.734375 310.4233398,201.0664062 310.4233398,201.265625 
		333.8330078,209.5976562 333.8330078,215.8330078 305.1665039,204.4995117 305.1665039,197.8330078 	"/>
	<polygon points="333.6669922,37 333.6669922,41.2197266 309.3466797,51.2333984 309.3466797,51.4326172 333.6669922,61.4462891 
		333.6669922,65.6669922 305.3334961,53.5 305.3334961,49.1669922 	"/>
	<polygon points="308.2705078,-98.4003906 333.5,-86.7050781 333.5,-84.5 305.5,-97.5 305.5,-99.5 333.5,-112.5 333.5,-110.2949219 
		308.2705078,-98.5996094 	"/>
</g>
<g>
	<g>
		<path d="M417.5,801.5c3.4038086,0,4.5-0.9326172,4.5-4.5v-9.5h16v8.5c0,9.9482422-5.8925781,15.5-17.5,15.5h-15v-10H417.5z"/>
		<rect x="405.5" y="787.5" width="12.5" height="10.5"/>
	</g>
	<g>
		<path d="M417.3330078,651.5c4.0205078,0,5.4169922-1.2119141,5.4169922-5.25v-8.75h14v8.25
			c0,9.5214844-5.5078125,14.75-16.5834961,14.75H406.75v-9H417.3330078z"/>
		<rect x="406.75" y="637.5" width="11.6665039" height="10.3330078"/>
	</g>
	<g>
		<path d="M417.1665039,501.5c4.637207,0,6.3334961-1.4902344,6.3334961-6v-8h12v8c0,9.0957031-5.1230469,14-15.6665039,14H408v-8
			H417.1665039z"/>
		<rect x="408" y="487.5" width="10.8330078" height="10.1669922"/>
	</g>
	<g>
		<path d="M417,351.5c5.2539062,0,7.25-1.7695312,7.25-6.75v-7.25h10v7.75c0,8.6699219-4.7373047,13.25-14.75,13.25h-10.25v-7H417z"
			/>
		<rect x="409.25" y="337.5" width="10" height="10"/>
	</g>
	<g>
		<path d="M417.6660156,202.5c5.8710938,0,8.1669922-2.0488281,8.1669922-7.5v-7.5004883h7.3330078v7.8334961
			c0,8.2436523-4.3515625,12.5-13.8330078,12.5H410.5V202.5H417.6660156z"/>
		<rect x="410.5" y="187.4995117" width="7.3330078" height="10.0004883"/>
	</g>
	<g>
		<path d="M418.3330078,53.5c6.4873047,0,9.0830078-2.328125,9.0830078-8.25V37.5h4.6669922v7.9169922
			c0,7.8168945-3.9667969,11.75-12.9160156,11.75H411.75V53.5H418.3330078z"/>
		<rect x="411.75" y="37.5" width="4.6669922" height="10"/>
	</g>
	<g>
		<path d="M419-95.5c7.1035156,0,10-2.6074219,10-9v-8h2v8c0,7.390625-3.5820312,11-12,11h-6v-2H419z"/>
		<rect x="413" y="-112.5" width="2" height="10"/>
	</g>
</g>
<g>
	<path d="M528.5-195.5c-7.1035156,0-10,2.6074219-10,9v8h-2v-8c0-7.390625,3.5820312-11,12-11h6v2H528.5z"/>
	<path d="M519.6660156-28.0004883H515v-7.5830078c0-7.8168945,3.9667969-11.75,12.9160156-11.75h7.4169922v3.6665039H528.75
		c-6.4873047,0-9.0839844,2.328125-9.0839844,8.25V-28.0004883z"/>
	<path d="M520.8330078,122.5H513.5v-7.1669922c0-8.2431641,4.3525391-12.4995117,13.8339844-12.4995117h8.8320312v5.3334961H529
		c-5.8701172,0-8.1669922,2.0488281-8.1669922,7.5V122.5z"/>
	<path d="M529.25,260c-5.2539062,0-7.25,1.7695312-7.25,6.75V273h-10v-6.75c0-8.6699219,4.7373047-13.25,14.75-13.25H537v7H529.25z"
		/>
	<path d="M523.1660156,423.5H510.5v-6.3339844c0-9.0957031,5.1220703-14,15.6660156-14H538v8.6669922h-8.5
		c-4.6376953,0-6.3339844,1.4912109-6.3339844,6V423.5z"/>
	<path d="M524.3330078,574H509v-5.9169922c0-9.5224609,5.5078125-14.75,16.5830078-14.75H539v10.3330078h-9.25
		c-4.0205078,0-5.4169922,1.2128906-5.4169922,5.25V574z"/>
	<path d="M530,715.5c-3.4042969,0-4.5,0.9326172-4.5,4.5v4.5h-18V719c0-9.9482422,5.8925781-15.5,17.5-15.5h15v12H530z"/>
</g>
<g>
	<path d="M628.5-195.5c-7.1035156,0-10,2.6074219-10,9v8h-2v-8c0-7.390625,3.5820312-11,12-11h6v2H628.5z"/>
	<path d="M619.6660156-28.0004883H615v-7.5830078c0-7.8168945,3.9667969-11.75,12.9160156-11.75h7.4169922v3.6665039H628.75
		c-6.4873047,0-9.0839844,2.328125-9.0839844,8.25V-28.0004883z"/>
	<path d="M620.8339844,122.5H613.5v-7.1669922c0-8.2431641,4.3515625-12.4995117,13.8330078-12.4995117h8.8339844v5.3334961H629
		c-5.8701172,0-8.1660156,2.0488281-8.1660156,7.5V122.5z"/>
	<path d="M629.25,260c-5.2539062,0-7.25,1.7695312-7.25,6.75V273h-10v-6.75c0-8.6699219,4.7373047-13.25,14.75-13.25H637v7H629.25z"
		/>
	<path d="M623.1660156,423.5H610.5v-6.3339844c0-9.0957031,5.1220703-14,15.6660156-14H638v8.6669922h-8.5
		c-4.6376953,0-6.3339844,1.4912109-6.3339844,6V423.5z"/>
	<path d="M624.3330078,574H609v-5.9169922c0-9.5224609,5.5078125-14.75,16.5839844-14.75H639v10.3330078h-9.25
		c-4.0214844,0-5.4169922,1.2128906-5.4169922,5.25V574z"/>
	<path d="M630,715.5c-3.4042969,0-4.5,0.9326172-4.5,4.5v4.5h-18V719c0-9.9482422,5.8925781-15.5,17.5-15.5h15v12H630z"/>
</g>
<g>
	<g>
		<path d="M720.5-195.5c-7.1035156,0-10,2.6074219-10,9v8h-2v-8c0-7.390625,3.5820312-11,12-11l0,0V-195.5L720.5-195.5z"/>
		<path d="M738.5-195.5c-7.1035156,0-10,2.6074219-10,9v8h-2v-8c0-7.390625,3.5820312-11,12-11l0,0V-195.5L738.5-195.5z"/>
	</g>
	<g>
		<path d="M720.0830078-43.6669922c-6.4873047,0-9.0830078,2.328125-9.0830078,8.25v7.4165039h-4.6669922v-7.5830078
			c0-7.8168945,3.9677734-11.75,12.9169922-11.75h1.4160156v3.6665039H720.0830078z"/>
		<path d="M739.0830078-43.6669922c-6.4873047,0-9.0830078,2.328125-9.0830078,8.25v7.4165039h-4.6669922v-7.5830078
			c0-7.8168945,3.9677734-11.75,12.9169922-11.75h1.4160156v3.6665039H739.0830078z"/>
	</g>
	<g>
		<path d="M719.6660156,108.1669922c-5.8701172,0-8.1660156,2.0488281-8.1660156,7.5V122.5h-7.3339844v-7.1669922
			c0-8.2431641,4.3525391-12.4995117,13.8339844-12.4995117h2.8339844v5.3334961H719.6660156z"/>
		<path d="M739.6660156,108.1669922c-5.8701172,0-8.1660156,2.0488281-8.1660156,7.5V122.5h-7.3339844v-7.1669922
			c0-8.2431641,4.3525391-12.4995117,13.8339844-12.4995117h2.8339844v5.3334961H739.6660156z"/>
	</g>
	<g>
		<path d="M719.25,260c-5.2539062,0-7.25,1.7695312-7.25,6.75V273h-10v-6.75c0-8.6699219,4.7373047-13.25,14.75-13.25H721v7H719.25z
			"/>
		<path d="M740.25,260c-5.2539062,0-7.25,1.7695312-7.25,6.75V273h-10v-6.75c0-8.6699219,4.7373047-13.25,14.75-13.25H742v7H740.25z
			"/>
	</g>
	<g>
		<path d="M718.6660156,411.8330078c-4.6367188,0-6.3330078,1.4912109-6.3330078,6V423.5h-12.6669922v-6.3339844
			c0-9.0957031,5.1230469-14,15.6669922-14h5.8330078v8.6669922H718.6660156z"/>
		<path d="M742,411.8330078c-4.6376953,0-6.3339844,1.4912109-6.3339844,6V423.5H723v-6.3339844
			c0-9.0957031,5.1220703-14,15.6660156-14H744.5v8.6669922H742z"/>
	</g>
	<g>
		<path d="M718.0830078,563.6660156c-4.0205078,0-5.4160156,1.2128906-5.4160156,5.25V574h-15.3339844v-5.9169922
			c0-9.5224609,5.5078125-14.75,16.5830078-14.75h7.4169922v10.3330078H718.0830078z"/>
		<path d="M743.75,563.6660156c-4.0214844,0-5.4169922,1.2128906-5.4169922,5.25V574H723v-5.9169922
			c0-9.5224609,5.5078125-14.75,16.5839844-14.75H747v10.3330078H743.75z"/>
	</g>
	<g>
		<path d="M717.5,715.5c-3.4042969,0-4.5,0.9326172-4.5,4.5v4.5h-18V719c0-9.9482422,5.8925781-15.5,17.5-15.5h9v12H717.5z"/>
		<path d="M745.5,715.5c-3.4042969,0-4.5,0.9326172-4.5,4.5v4.5h-18V719c0-9.9482422,5.8925781-15.5,17.5-15.5h9v12H745.5z"/>
	</g>
</g>
<g>
	<g>
		<path d="M803.5-200.5c-4.4179688,0-8,3.5820312-8,8s3.5820312,8,8,8s8-3.5820312,8-8S807.9179688-200.5,803.5-200.5v-2
			c5.5224609,0,10,4.4775391,10,10s-4.4775391,10-10,10s-10-4.4775391-10-10s4.4775391-10,10-10V-200.5z"/>
		
			<rect x="812.7525635" y="-187.7476654" transform="matrix(0.7071068 -0.7071068 0.7071068 0.7071068 367.2110596 522.0307617)" width="1.9997864" height="11.000206"/>
		<path d="M837.5-200.5c-4.4179688,0-8,3.5820312-8,8s3.5820312,8,8,8s8-3.5820312,8-8S841.9179688-200.5,837.5-200.5v-2
			c5.5224609,0,10,4.4775391,10,10s-4.4775391,10-10,10s-10-4.4775391-10-10s4.4775391-10,10-10V-200.5z"/>
		
			<rect x="826.2476807" y="-187.7476654" transform="matrix(-0.7071068 -0.7071068 0.7071068 -0.7071068 1541.0683594 273.8363037)" width="1.9997864" height="11.000206"/>
	</g>
	<g>
		<path d="M803.3330078-49.5c-3.9580078,0-7.1669922,3.2089844-7.1669922,7.1665039s3.2089844,7.1665039,7.1669922,7.1665039
			S810.5-38.3759766,810.5-42.3334961S807.2910156-49.5,803.3330078-49.5v-3.3339844c5.7988281,0,10.5,4.7016602,10.5,10.5004883
			s-4.7011719,10.5-10.5,10.5s-10.5-4.7011719-10.5-10.5s4.7011719-10.5004883,10.5-10.5004883V-49.5z"/>
		
			<rect x="811.4922485" y="-37.841053" transform="matrix(0.7071068 -0.7071068 0.7071068 0.7071068 261.0516357 565.7191162)" width="3.8338447" height="11.1669703"/>
		<path d="M838-49.5c-3.9580078,0-7.1669922,3.2089844-7.1669922,7.1665039S834.0419922-35.1669922,838-35.1669922
			c3.9570312,0,7.1660156-3.2089844,7.1660156-7.1665039S841.9570312-49.5,838-49.5v-3.3339844
			c5.7988281,0,10.5,4.7016602,10.5,10.5004883s-4.7011719,10.5-10.5,10.5s-10.5-4.7011719-10.5-10.5
			s4.7011719-10.5004883,10.5-10.5004883V-49.5z"/>
		
			<rect x="826.0074463" y="-37.8409538" transform="matrix(0.7070431 0.7071705 -0.7071705 0.7070431 219.7342529 -594.9334106)" width="3.8328087" height="11.1662798"/>
	</g>
	<g>
		<path d="M803.1669922,101.5c-3.4980469,0-6.3330078,2.8359375-6.3330078,6.3330078
			c0,3.4980469,2.8349609,6.3339844,6.3330078,6.3339844c3.4970703,0,6.3330078-2.8359375,6.3330078-6.3339844
			C809.5,104.3359375,806.6640625,101.5,803.1669922,101.5v-4.6669922c6.0751953,0,10.9990234,4.9248047,10.9990234,11
			s-4.9238281,11.0004883-10.9990234,11.0004883s-11-4.925293-11-11.0004883s4.9248047-11,11-11V101.5z"/>
		
			<rect x="810.232666" y="112.066803" transform="matrix(0.7071068 -0.7071068 0.7071068 0.7071068 154.8916016 609.4077148)" width="5.6665215" height="11.3326988"/>
		<path d="M838.5,101.5c-3.4980469,0-6.3330078,2.8359375-6.3330078,6.3330078c0,3.4980469,2.8349609,6.3339844,6.3330078,6.3339844
			s6.3330078-2.8359375,6.3330078-6.3339844C844.8330078,104.3359375,841.9980469,101.5,838.5,101.5v-4.6669922
			c6.0751953,0,11,4.9248047,11,11s-4.9248047,11.0004883-11,11.0004883s-11-4.925293-11-11.0004883s4.9248047-11,11-11V101.5z"/>
		
			<rect x="825.7676392" y="112.0657959" transform="matrix(0.707236 0.7069775 -0.7069775 0.707236 325.8189392 -551.3344727)" width="5.6668668" height="11.3337336"/>
	</g>
	<g>
		<path d="M803,252.5c-3.0371094,0-5.5,2.4628906-5.5,5.5s2.4628906,5.5,5.5,5.5s5.5-2.4628906,5.5-5.5S806.0371094,252.5,803,252.5
			v-6c6.3515625,0,11.5,5.1484375,11.5,11.5s-5.1484375,11.5-11.5,11.5s-11.5-5.1484375-11.5-11.5s5.1484375-11.5,11.5-11.5V252.5z"
			/>
		
			<rect x="808.9727173" y="261.9739075" transform="matrix(0.7071719 -0.7070417 0.7070417 0.7071719 48.6962891 653.0258179)" width="7.4998894" height="11.4994621"/>
		<path d="M839,252.5c-3.0371094,0-5.5,2.4628906-5.5,5.5s2.4628906,5.5,5.5,5.5s5.5-2.4628906,5.5-5.5S842.0371094,252.5,839,252.5
			v-6c6.3515625,0,11.5,5.1484375,11.5,11.5s-5.1484375,11.5-11.5,11.5s-11.5-5.1484375-11.5-11.5s5.1484375-11.5,11.5-11.5V252.5z"
			/>
		
			<rect x="825.5274048" y="261.9729309" transform="matrix(0.7071719 0.7070417 -0.7070417 0.7071719 432.1268311 -507.9368896)" width="7.4998894" height="11.4994621"/>
	</g>
	<g>
		<path d="M802.8330078,402.8330078c-2.9453125,0-5.3330078,2.3876953-5.3330078,5.3330078S799.8876953,413.5,802.8330078,413.5
			s5.3330078-2.3886719,5.3330078-5.3339844S805.7783203,402.8330078,802.8330078,402.8330078v-6.6669922
			c6.6279297,0,12,5.3730469,12,12c0,6.6279297-5.3720703,12-12,12s-12-5.3720703-12-12c0-6.6269531,5.3720703-12,12-12V402.8330078
			z"/>
		
			<rect x="807.7122803" y="411.8807983" transform="matrix(0.7072114 -0.7070022 0.7070022 0.7072114 -57.4689941 696.6553345)" width="9.3332567" height="11.6651897"/>
		<path d="M839.5,402.8330078c-2.9453125,0-5.3339844,2.3876953-5.3339844,5.3330078S836.5546875,413.5,839.5,413.5
			s5.3330078-2.3886719,5.3330078-5.3339844S842.4453125,402.8330078,839.5,402.8330078v-6.6669922c6.6269531,0,12,5.3730469,12,12
			c0,6.6279297-5.3730469,12-12,12c-6.6279297,0-12-5.3720703-12-12c0-6.6269531,5.3720703-12,12-12V402.8330078z"/>
		
			<rect x="825.288147" y="411.8791199" transform="matrix(-0.7071068 -0.7071068 0.7071068 -0.7071068 1121.4530029 1299.9458008)" width="9.3318758" height="11.6665716"/>
	</g>
	<g>
		<path d="M802.6660156,553.1660156c-2.8525391,0-5.1660156,2.3134766-5.1660156,5.1669922
			C797.5,561.1875,799.8134766,563.5,802.6660156,563.5c2.8544922,0,5.1669922-2.3125,5.1669922-5.1669922
			C807.8330078,555.4794922,805.5205078,553.1660156,802.6660156,553.1660156v-7.3320312
			c6.9042969,0,12.5009766,5.5957031,12.5009766,12.4990234c0,6.9042969-5.5966797,12.5-12.5009766,12.5
			c-6.9023438,0-12.4990234-5.5957031-12.4990234-12.5c0-6.9033203,5.5966797-12.4990234,12.4990234-12.4990234V553.1660156z"/>
		
			<rect x="806.4528198" y="561.7861328" transform="matrix(0.7071505 -0.707063 0.707063 0.7071505 -163.597168 740.4121094)" width="11.166625" height="11.8329897"/>
		<path d="M840,553.1660156c-2.8535156,0-5.1669922,2.3134766-5.1669922,5.1669922
			C834.8330078,561.1875,837.1464844,563.5,840,563.5s5.1669922-2.3125,5.1669922-5.1669922
			C845.1669922,555.4794922,842.8535156,553.1660156,840,553.1660156v-7.3320312c6.9042969,0,12.5,5.5957031,12.5,12.4990234
			c0,6.9042969-5.5957031,12.5-12.5,12.5s-12.5-5.5957031-12.5-12.5c0-6.9033203,5.5957031-12.4990234,12.5-12.4990234V553.1660156z
			"/>
		
			<rect x="825.0487061" y="561.786499" transform="matrix(-0.7070631 -0.7071505 0.7071505 -0.7070631 1016.4890137 1556.4855957)" width="11.1652441" height="11.8322992"/>
	</g>
	<g>
		<path d="M802.5,703.5c-2.7617188,0-5,2.2382812-5,5s2.2382812,5,5,5s5-2.2382812,5-5S805.2617188,703.5,802.5,703.5v-8
			c7.1796875,0,13,5.8203125,13,13s-5.8203125,13-13,13s-13-5.8203125-13-13s5.8203125-13,13-13V703.5z"/>
		
			<rect x="805.1923828" y="711.6923218" transform="matrix(0.7071068 -0.7071068 0.7071068 0.7071068 -269.7459717 784.1604004)" width="12.9999924" height="12.0000992"/>
		<path d="M840.5,703.5c-2.7617188,0-5,2.2382812-5,5s2.2382812,5,5,5s5-2.2382812,5-5S843.2617188,703.5,840.5,703.5v-8
			c7.1796875,0,13,5.8203125,13,13s-5.8203125,13-13,13s-13-5.8203125-13-13s5.8203125-13,13-13V703.5z"/>
		
			<rect x="824.8076172" y="711.6923218" transform="matrix(-0.7071068 -0.7071068 0.7071068 -0.7071068 911.645752 1813.0007324)" width="12.9999924" height="12.0000992"/>
	</g>
</g>
<g>
	<path d="M208.5-195.5v-2h6c8.418457,0,12,3.609375,12,11v8h-2v-8c0-6.3925781-2.8969727-9-10-9H208.5z"/>
	<path d="M227.9995117-28.0004883h-4.6665039v-7.4165039c0-5.921875-2.5966797-8.25-9.0834961-8.25h-6.5834961v-3.6665039h7.4169922
		c8.949707,0,12.9165039,3.9331055,12.9165039,11.75V-28.0004883z"/>
	<path d="M229.5,122.5h-7.3330078v-6.8330078c0-5.4511719-2.296875-7.5-8.1669922-7.5h-7.1669922v-5.3334961h8.8339844
		c9.4804688,0,13.8330078,4.2563477,13.8330078,12.4995117V122.5z"/>
	<path d="M206,260v-7h10.25c10.0126953,0,14.75,4.5800781,14.75,13.25V273h-10v-6.25c0-4.9804688-1.996582-6.75-7.25-6.75H206z"/>
	<path d="M232.4995117,423.5h-12.6665039v-5.6669922c0-4.5087891-1.6962891-6-6.3334961-6H205v-8.6669922h11.8330078
		c10.5439453,0,15.6665039,4.9042969,15.6665039,14V423.5z"/>
	<path d="M234,574h-15.3334961v-5.0839844c0-4.0371094-1.3959961-5.25-5.4165039-5.25H204v-10.3330078h13.4169922
		c11.0751953,0,16.5830078,5.2275391,16.5830078,14.75V574z"/>
	<path d="M203,715.5v-12h15c11.6069336,0,17.5,5.5517578,17.5,15.5v5.5h-18V720c0-3.5673828-1.0961914-4.5-4.5-4.5H203z"/>
</g>
</svg>
