<?xml version="1.0" encoding="utf-8"?>
<!-- Generator: Adobe Illustrator 15.0.2, SVG Export Plug-In . SVG Version: 6.00 Build 0)  -->
<!DOCTYPE svg PUBLIC "-//W3C//DTD SVG 1.1//EN" "http://www.w3.org/Graphics/SVG/1.1/DTD/svg11.dtd">
<svg version="1.1" id="レイヤー1" xmlns="http://www.w3.org/2000/svg" xmlns:xlink="http://www.w3.org/1999/xlink" x="0px"
	 y="0px" width="841.8896484px" height="595.2753906px" viewBox="0 0 841.8896484 595.2753906"
	 enable-background="new 0 0 841.8896484 595.2753906" xml:space="preserve">
<g>
	<rect x="71.5" y="-226.5" fill="none" stroke="#000000" stroke-width="0.25" width="100" height="150"/>
	<rect x="71.5" y="-76.5" fill="none" stroke="#000000" stroke-width="0.25" width="100" height="150"/>
	<rect x="71.5" y="73.5" fill="none" stroke="#000000" stroke-width="0.25" width="100" height="150"/>
	<rect x="71.5" y="223.5" fill="none" stroke="#000000" stroke-width="0.25" width="100" height="150"/>
	<rect x="71.5" y="373.5" fill="none" stroke="#000000" stroke-width="0.25" width="100" height="150"/>
	<rect x="71.5" y="523.5" fill="none" stroke="#000000" stroke-width="0.25" width="100" height="150"/>
	<rect x="71.5" y="673.5" fill="none" stroke="#000000" stroke-width="0.25" width="100" height="150"/>
	<rect x="171.5" y="-226.5" fill="none" stroke="#000000" stroke-width="0.25" width="100" height="150"/>
	<rect x="171.5" y="-76.5" fill="none" stroke="#000000" stroke-width="0.25" width="100" height="150"/>
	<rect x="171.5" y="73.5" fill="none" stroke="#000000" stroke-width="0.25" width="100" height="150"/>
	<rect x="171.5" y="223.5" fill="none" stroke="#000000" stroke-width="0.25" width="100" height="150"/>
	<rect x="171.5" y="373.5" fill="none" stroke="#000000" stroke-width="0.25" width="100" height="150"/>
	<rect x="171.5" y="523.5" fill="none" stroke="#000000" stroke-width="0.25" width="100" height="150"/>
	<rect x="171.5" y="673.5" fill="none" stroke="#000000" stroke-width="0.25" width="100" height="150"/>
	<rect x="271.5" y="-226.5" fill="none" stroke="#000000" stroke-width="0.25" width="100" height="150"/>
	<rect x="271.5" y="-76.5" fill="none" stroke="#000000" stroke-width="0.25" width="100" height="150"/>
	<rect x="271.5" y="73.5" fill="none" stroke="#000000" stroke-width="0.25" width="100" height="150"/>
	<rect x="271.5" y="223.5" fill="none" stroke="#000000" stroke-width="0.25" width="100" height="150"/>
	<rect x="271.5" y="373.5" fill="none" stroke="#000000" stroke-width="0.25" width="100" height="150"/>
	<rect x="271.5" y="523.5" fill="none" stroke="#000000" stroke-width="0.25" width="100" height="150"/>
	<rect x="271.5" y="673.5" fill="none" stroke="#000000" stroke-width="0.25" width="100" height="150"/>
	<rect x="371.5" y="-226.5" fill="none" stroke="#000000" stroke-width="0.25" width="100" height="150"/>
	<rect x="371.5" y="-76.5" fill="none" stroke="#000000" stroke-width="0.25" width="100" height="150"/>
	<rect x="371.5" y="73.5" fill="none" stroke="#000000" stroke-width="0.25" width="100" height="150"/>
	<rect x="371.5" y="223.5" fill="none" stroke="#000000" stroke-width="0.25" width="100" height="150"/>
	<rect x="371.5" y="373.5" fill="none" stroke="#000000" stroke-width="0.25" width="100" height="150"/>
	<rect x="371.5" y="523.5" fill="none" stroke="#000000" stroke-width="0.25" width="100" height="150"/>
	<rect x="371.5" y="673.5" fill="none" stroke="#000000" stroke-width="0.25" width="100" height="150"/>
	<rect x="471.5" y="-226.5" fill="none" stroke="#000000" stroke-width="0.25" width="100" height="150"/>
	<rect x="471.5" y="-76.5" fill="none" stroke="#000000" stroke-width="0.25" width="100" height="150"/>
	<rect x="471.5" y="73.5" fill="none" stroke="#000000" stroke-width="0.25" width="100" height="150"/>
	<rect x="471.5" y="223.5" fill="none" stroke="#000000" stroke-width="0.25" width="100" height="150"/>
	<rect x="471.5" y="373.5" fill="none" stroke="#000000" stroke-width="0.25" width="100" height="150"/>
	<rect x="471.5" y="523.5" fill="none" stroke="#000000" stroke-width="0.25" width="100" height="150"/>
	<rect x="471.5" y="673.5" fill="none" stroke="#000000" stroke-width="0.25" width="100" height="150"/>
	<rect x="571.5" y="-226.5" fill="none" stroke="#000000" stroke-width="0.25" width="100" height="150"/>
	<rect x="571.5" y="-76.5" fill="none" stroke="#000000" stroke-width="0.25" width="100" height="150"/>
	<rect x="571.5" y="73.5" fill="none" stroke="#000000" stroke-width="0.25" width="100" height="150"/>
	<rect x="571.5" y="223.5" fill="none" stroke="#000000" stroke-width="0.25" width="100" height="150"/>
	<rect x="571.5" y="373.5" fill="none" stroke="#000000" stroke-width="0.25" width="100" height="150"/>
	<rect x="571.5" y="523.5" fill="none" stroke="#000000" stroke-width="0.25" width="100" height="150"/>
	<rect x="571.5" y="673.5" fill="none" stroke="#000000" stroke-width="0.25" width="100" height="150"/>
	<rect x="671.5" y="-226.5" fill="none" stroke="#000000" stroke-width="0.25" width="100" height="150"/>
	<rect x="671.5" y="-76.5" fill="none" stroke="#000000" stroke-width="0.25" width="100" height="150"/>
	<rect x="671.5" y="73.5" fill="none" stroke="#000000" stroke-width="0.25" width="100" height="150"/>
	<rect x="671.5" y="223.5" fill="none" stroke="#000000" stroke-width="0.25" width="100" height="150"/>
	<rect x="671.5" y="373.5" fill="none" stroke="#000000" stroke-width="0.25" width="100" height="150"/>
	<rect x="671.5" y="523.5" fill="none" stroke="#000000" stroke-width="0.25" width="100" height="150"/>
	<rect x="671.5" y="673.5" fill="none" stroke="#000000" stroke-width="0.25" width="100" height="150"/>
	<rect x="771.5" y="-226.5" fill="none" stroke="#000000" stroke-width="0.25" width="100" height="150"/>
	<rect x="771.5" y="-76.5" fill="none" stroke="#000000" stroke-width="0.25" width="100" height="150"/>
	<rect x="771.5" y="73.5" fill="none" stroke="#000000" stroke-width="0.25" width="100" height="150"/>
	<rect x="771.5" y="223.5" fill="none" stroke="#000000" stroke-width="0.25" width="100" height="150"/>
	<rect x="771.5" y="373.5" fill="none" stroke="#000000" stroke-width="0.25" width="100" height="150"/>
	<rect x="771.5" y="523.5" fill="none" stroke="#000000" stroke-width="0.25" width="100" height="150"/>
	<rect x="771.5" y="673.5" fill="none" stroke="#000000" stroke-width="0.25" width="100" height="150"/>
</g>
<g>
	<g>
		<path d="M121.5-200.5c-4.4179688,0-8,3.5820312-8,8s3.5820312,8,8,8s8-3.5820312,8-8S125.9179688-200.5,121.5-200.5v-2
			c5.5224609,0,10,4.4775391,10,10s-4.4775391,10-10,10s-10-4.4775391-10-10s4.4775391-10,10-10V-200.5z"/>
		
			<rect x="110.2476654" y="-187.7476654" transform="matrix(-0.7071068 -0.7071068 0.7071068 -0.7071068 318.7799377 -232.4521484)" width="1.9997864" height="11.000206"/>
	</g>
	<g>
		<path d="M121.4995117-49.5c-3.9575195,0-7.1665039,3.2089844-7.1665039,7.1665039s3.2089844,7.1665039,7.1665039,7.1665039
			s7.1669922-3.2089844,7.1669922-7.1665039S125.4570312-49.5,121.4995117-49.5v-3.3339844
			C127.2983398-52.8339844,132-48.1323242,132-42.3334961s-4.7016602,10.5-10.5004883,10.5S111-36.534668,111-42.3334961
			s4.7006836-10.5004883,10.4995117-10.5004883V-49.5z"/>
		
			<rect x="109.5072479" y="-37.8411255" transform="matrix(0.7071068 0.7071068 -0.7071068 0.7071068 9.8255692 -88.2366409)" width="3.833154" height="11.166625"/>
	</g>
	<g>
		<path d="M121.5,101.5c-3.4970703,0-6.3330078,2.8359375-6.3330078,6.3330078c0,3.4980469,2.8359375,6.3339844,6.3330078,6.3339844
			s6.3334961-2.8359375,6.3334961-6.3339844C127.8334961,104.3359375,124.9970703,101.5,121.5,101.5v-4.6669922
			c6.0751953,0,11,4.9248047,11,11s-4.9248047,11.0004883-11,11.0004883s-11-4.925293-11-11.0004883s4.9248047-11,11-11V101.5z"/>
		
			<rect x="108.7675705" y="112.0661469" transform="matrix(0.707193 0.7070206 -0.7070206 0.707193 115.9169235 -44.4311218)" width="5.6665215" height="11.3330431"/>
	</g>
	<g>
		<path d="M121.5,252.5c-3.0371094,0-5.5,2.4628906-5.5,5.5s2.4628906,5.5,5.5,5.5s5.5-2.4628906,5.5-5.5
			S124.5371094,252.5,121.5,252.5v-6c6.3515625,0,11.5,5.1484375,11.5,11.5s-5.1484375,11.5-11.5,11.5S110,264.3515625,110,258
			s5.1484375-11.5,11.5-11.5V252.5z"/>
		
			<rect x="108.0273972" y="261.9729309" transform="matrix(0.7071719 0.7070417 -0.7070417 0.7071719 222.0226288 -0.6345215)" width="7.4998894" height="11.4994621"/>
	</g>
	<g>
		<path d="M121.4995117,402.8330078c-2.9448242,0-5.3330078,2.3876953-5.3330078,5.3330078S118.5546875,413.5,121.4995117,413.5
			c2.9458008,0,5.3334961-2.3886719,5.3334961-5.3339844S124.4453125,402.8330078,121.4995117,402.8330078v-6.6669922
			c6.6274414,0,12.0004883,5.3730469,12.0004883,12c0,6.6279297-5.3730469,12-12.0004883,12s-11.9995117-5.3720703-11.9995117-12
			c0-6.6269531,5.3720703-12,11.9995117-12V402.8330078z"/>
		
			<rect x="107.2873306" y="411.8791199" transform="matrix(-0.707159 -0.7070545 0.7070545 -0.707159 -104.2228088 792.2587891)" width="9.3325663" height="11.6665716"/>
	</g>
	<g>
		<path d="M121.5,553.1660156c-2.8535156,0-5.1665039,2.3134766-5.1665039,5.1669922
			C116.3334961,561.1875,118.6464844,563.5,121.5,563.5s5.1669922-2.3125,5.1669922-5.1669922
			C126.6669922,555.4794922,124.3535156,553.1660156,121.5,553.1660156v-7.3320312c6.9033203,0,12.5,5.5957031,12.5,12.4990234
			c0,6.9042969-5.5966797,12.5-12.5,12.5s-12.5-5.5957031-12.5-12.5c0-6.9033203,5.5966797-12.4990234,12.5-12.4990234V553.1660156z
			"/>
		
			<rect x="106.5473022" y="561.7859497" transform="matrix(-0.7071505 -0.7070631 0.7070631 -0.7071505 -209.9777832 1048.4372559)" width="11.166625" height="11.8333359"/>
	</g>
	<g>
		<path d="M121.5,703.5c-2.7617188,0-5,2.2382812-5,5s2.2382812,5,5,5s5-2.2382812,5-5S124.2617188,703.5,121.5,703.5v-8
			c7.1796875,0,13,5.8203125,13,13s-5.8203125,13-13,13s-13-5.8203125-13-13s5.8203125-13,13-13V703.5z"/>
		
			<rect x="105.8076172" y="711.6923218" transform="matrix(-0.7071068 -0.7071068 0.7071068 -0.7071068 -315.7640381 1304.5910645)" width="12.9999924" height="12.0000992"/>
	</g>
</g>
<g>
	<path d="M231.5-197.5v2c0,7.390625-3.581543,11-12,11h-6v6h-2v-19h2v11h6c7.1030273,0,10-2.6074219,10-9v-2H231.5z"/>
	<path d="M232.6665039-48v2.4165039c0,7.8173828-3.9667969,11.7495117-12.8334961,11.7495117h-4.5v5.8334961h-4.6669922V-48
		h4.6669922v10.5h4.5c5.9033203,0,8.5-2.3286133,8.5-8.25V-48H232.6665039z"/>
	<path d="M233.8334961,101.5v2.8330078c0,8.2451172-4.3520508,12.5-13.6669922,12.5h-3V122.5h-7.3334961v-21h7.3334961v10h3
		c4.7036133,0,7.0004883-2.0498047,7.0004883-7.5v-2.5H233.8334961z"/>
	<path d="M235,251v3.25c0,8.671875-4.7368164,13.25-14.5,13.25H219v5.5h-10v-22h10v9.5h1.5c3.5039062,0,5.5-1.7705078,5.5-6.75V251
		H235z"/>
	<path d="M237,400.5v4c0,9.0966797-5.1225586,14-15.5004883,14h-2.5v5H207v-23h11.9995117v9.3330078h2.5
		c2.9453125,0,4.5004883-1.4912109,4.5004883-6V400.5H237z"/>
	<path d="M239,550v4.75c0,9.5224609-5.5078125,14.75-16.5,14.75H219v4.5h-14v-24h14v9.1669922h3.5
		c2.3867188,0,3.5-1.2119141,3.5-5.25V550H239z"/>
	<path d="M241,699.5v5.5c0,9.9482422-5.8930664,15.5-17.5,15.5H219v4h-16v-25h16v9h4.5c1.828125,0,2.5-0.9326172,2.5-4.5v-4.5H241z"
		/>
</g>
<g>
	<polygon points="327.5,-99.5 327.5,-112.5 329.5,-112.5 329.5,-97.5 308.5,-97.5 308.5,-99.5 	"/>
	<polygon points="330.5830078,53.4995117 307.5830078,53.4995117 307.5830078,49.6665039 325.9165039,49.6665039 
		325.9165039,37.4995117 330.5830078,37.4995117 	"/>
	<polygon points="331.6669922,204.5 306.6669922,204.5 306.6669922,198.8330078 324.3334961,198.8330078 324.3334961,187.5 
		331.6669922,187.5 	"/>
	<polygon points="332.75,355.5 305.75,355.5 305.75,348 322.75,348 322.75,337.5 332.75,337.5 	"/>
	<polygon points="333.8330078,506.5 304.8330078,506.5 304.8330078,497.5 321.1665039,497.5 321.1665039,487.5 333.8330078,487.5 	
		"/>
	<polygon points="334.9165039,657.5 303.9165039,657.5 303.9165039,647 319.5830078,647 319.5830078,637.5 334.9165039,637.5 	"/>
	<polygon points="336,808.5 303,808.5 303,796.5 318,796.5 318,787.5 336,787.5 	"/>
</g>
<g>
	<polygon points="414,800.5996094 434.5,804.5 434.5,816.5 404.5,807.5 404.5,793.5 434.5,784.5 434.5,796.5 414,800.4003906 	"/>
	<polygon points="413.1660156,650.765625 434.3330078,655.5830078 434.3330078,666.3330078 404.6665039,656.8330078 
		404.6665039,644.5 434.3330078,635 434.3330078,645.75 413.1660156,650.5664062 	"/>
	<polygon points="412.3330078,500.9326172 434.1669922,506.6660156 434.1669922,516.1660156 404.8330078,506.1660156 
		404.8330078,495.5 434.1669922,485.5 434.1669922,495 412.3330078,500.7333984 	"/>
	<polygon points="411.5,351.0996094 434,357.75 434,366 405,355.5 405,346.5 434,336 434,344.25 411.5,350.9003906 	"/>
	<polygon points="433.8330078,215.8330078 405.1660156,204.4995117 405.1660156,197.8330078 433.8330078,186.4995117 
		433.8330078,192.734375 410.4233398,201.0664062 410.4233398,201.265625 433.8330078,209.5976562 	"/>
	<polygon points="433.6660156,65.6669922 405.3330078,53.5 405.3330078,49.1669922 433.6660156,37 433.6660156,41.2197266 
		409.347168,51.2333984 409.347168,51.4326172 433.6660156,61.4462891 	"/>
	<polygon points="408.2705078,-98.4003906 433.5,-86.7050781 433.5,-84.5 405.5,-97.5 405.5,-99.5 433.5,-112.5 433.5,-110.2949219 
		408.2705078,-98.5996094 	"/>
</g>
<g>
	<path d="M514.5-95.5c7.1035156,0,10-2.6074219,10-9v-8h2v8c0,7.390625-3.5820312,11-12,11h-6v-2H514.5z"/>
	<path d="M507.6660156,56.8330078v-3.6665039H514.25c6.4863281,0,9.0830078-2.328125,9.0830078-8.25v-7.4169922H528v7.5834961
		c0,7.8173828-3.9667969,11.75-12.9169922,11.75H507.6660156z"/>
	<path d="M506.8330078,207.1669922v-5.3334961H514c5.8710938,0,8.1669922-2.0488281,8.1669922-7.5V187.5H529.5v7.1665039
		c0,8.2436523-4.3525391,12.5004883-13.8330078,12.5004883H506.8330078z"/>
	<path d="M513.75,350.5c5.2539062,0,7.25-1.7695312,7.25-6.75v-6.25h10v6.75c0,8.6699219-4.7373047,13.25-14.75,13.25H506v-7H513.75
		z"/>
	<path d="M505,507.8330078v-8.6669922h8.5c4.6367188,0,6.3330078-1.4902344,6.3330078-6V487.5H532.5v6.3330078
		c0,9.0966797-5.1230469,14-15.6669922,14H505z"/>
	<path d="M504,658.1660156v-10.3330078h9.25c4.0205078,0,5.4160156-1.2109375,5.4160156-5.25V637.5H534v5.9169922
		c0,9.5214844-5.5078125,14.7490234-16.5830078,14.7490234H504z"/>
	<path d="M513,796.5c3.4042969,0,4.5-0.9326172,4.5-4.5v-4.5h18v5.5c0,9.9482422-5.8925781,15.5-17.5,15.5h-15v-12H513z"/>
</g>
<g>
	<g>
		<path d="M622.5-95.5c7.1035156,0,10-2.6074219,10-9v-8h2v8c0,7.390625-3.5820312,11-12,11l0,0V-95.5L622.5-95.5z"/>
		<path d="M604.5-95.5c7.1035156,0,10-2.6074219,10-9v-8h2v8c0,7.390625-3.5820312,11-12,11l0,0V-95.5L604.5-95.5z"/>
	</g>
	<g>
		<path d="M622.9160156,53.1665039c6.4873047,0,9.0839844-2.328125,9.0839844-8.25v-7.4169922h4.6660156v7.5834961
			c0,7.8173828-3.9667969,11.75-12.9160156,11.75h-1.4169922v-3.6665039H622.9160156z"/>
		<path d="M603.9160156,53.1665039c6.4873047,0,9.0839844-2.328125,9.0839844-8.25v-7.4169922h4.6660156v7.5834961
			c0,7.8173828-3.9667969,11.75-12.9160156,11.75h-1.4169922v-3.6665039H603.9160156z"/>
	</g>
	<g>
		<path d="M623.3330078,201.8334961c5.8701172,0,8.1669922-2.0488281,8.1669922-7.5V187.5h7.3330078v7.1665039
			c0,8.2436523-4.3515625,12.5004883-13.8330078,12.5004883h-2.8330078v-5.3334961H623.3330078z"/>
		<path d="M603.3330078,201.8334961c5.8701172,0,8.1669922-2.0488281,8.1669922-7.5V187.5h7.3330078v7.1665039
			c0,8.2436523-4.3515625,12.5004883-13.8330078,12.5004883h-2.8330078v-5.3334961H603.3330078z"/>
	</g>
	<g>
		<path d="M623.75,350.5c5.2539062,0,7.25-1.7695312,7.25-6.75v-6.25h10v6.75c0,8.6699219-4.7373047,13.25-14.75,13.25H622v-7
			H623.75z"/>
		<path d="M602.75,350.5c5.2539062,0,7.25-1.7695312,7.25-6.75v-6.25h10v6.75c0,8.6699219-4.7373047,13.25-14.75,13.25H601v-7
			H602.75z"/>
	</g>
	<g>
		<path d="M624.3330078,499.1660156c4.6376953,0,6.3330078-1.4902344,6.3330078-6V487.5h12.6669922v6.3330078
			c0,9.0966797-5.1220703,14-15.6669922,14h-5.8330078v-8.6669922H624.3330078z"/>
		<path d="M601,499.1660156c4.6367188,0,6.3330078-1.4902344,6.3330078-6V487.5H620v6.3330078
			c0,9.0966797-5.1230469,14-15.6669922,14H598.5v-8.6669922H601z"/>
	</g>
	<g>
		<path d="M624.9160156,647.8330078c4.0214844,0,5.4169922-1.2109375,5.4169922-5.25V637.5h15.3330078v5.9169922
			c0,9.5214844-5.5068359,14.7490234-16.5830078,14.7490234h-7.4160156v-10.3330078H624.9160156z"/>
		<path d="M599.25,647.8330078c4.0205078,0,5.4169922-1.2109375,5.4169922-5.25V637.5H620v5.9169922
			c0,9.5214844-5.5078125,14.7490234-16.5830078,14.7490234H596v-10.3330078H599.25z"/>
	</g>
	<g>
		<path d="M625.5,796.5c3.4042969,0,4.5-0.9326172,4.5-4.5v-4.5h18v5.5c0,9.9482422-5.8925781,15.5-17.5,15.5h-9v-12H625.5z"/>
		<path d="M597.5,796.5c3.4042969,0,4.5-0.9326172,4.5-4.5v-4.5h18v5.5c0,9.9482422-5.8925781,15.5-17.5,15.5h-9v-12H597.5z"/>
	</g>
</g>
<g>
	<path d="M722.3037109,784.5c5.2060547,0,9.9189453,0.7890625,13.3935547,2.1328125l-2.4824219,7.9970703
		c-3.5097656-1.359375-6.9023438-2.0205078-10.375-2.0205078c-2.2949219,0-3.4960938,0.5361328-3.4960938,1.4375
		c0,1.234375,1.0117188,1.6699219,3.1875,2.1855469c10.5234375,2.4931641,13.96875,5.6171875,13.96875,10.6679688
		c0,6.1601562-5.3222656,9.5996094-16.3378906,9.5996094c-4.6162109,0-10.5810547-1.421875-13.6621094-3.2011719
		l3.2128906-7.9072266c3.3330078,1.8212891,7.6445312,2.9980469,10.984375,2.9980469
		c1.4726562,0,3.2265625-0.2216797,3.2265625-1.6503906c0-1.2626953-0.9746094-1.6591797-3.921875-2.3994141
		c-9.6601562-2.4296875-13.234375-5.6484375-13.234375-10.6679688C706.7675781,788.1582031,712.2177734,784.5,722.3037109,784.5z"/>
	<path d="M736,657.1513672c0,5.5751953-4.6953125,9.1816406-15.6152344,9.1816406
		c-4.6230469,0-10.2607422-1.3310547-13.3847656-3.1035156l2.9882812-7.1787109
		c3.2431641,1.7597656,7.4003906,2.8574219,10.8417969,2.8574219c1.6816406,0,4.0234375-0.2509766,4.0234375-1.8916016
		c0-1.484375-1.0039062-2.2587891-4.8769531-3.1962891c-9.140625-2.2851562-12.6582031-5.390625-12.6582031-10.1816406
		c0-5.1875,5.2148438-8.6386719,14.8515625-8.6386719c5.0380859,0,9.5996094,0.7607422,13.0654297,2.0878906l-2.2998047,7.2900391
		c-3.4257812-1.3144531-6.7998047-1.9541016-10.3193359-1.9541016c-2.7128906,0-4.1513672,0.6503906-4.1513672,1.5273438
		c0,1.4492188,1.3369141,2.1367188,4.1210938,2.7871094C732.5917969,649.109375,736,652.1689453,736,657.1513672z"/>
	<path d="M735.5,507.4033203c0,4.9892578-4.0673828,8.7626953-14.8925781,8.7626953
		c-4.6298828,0-9.9394531-1.2392578-13.1074219-3.0048828l2.7636719-6.4501953
		c3.1533203,1.6972656,7.15625,2.7158203,10.7011719,2.7158203c1.8886719,0,4.8173828-0.2802734,4.8173828-2.1318359
		c0-1.7060547-1.0302734-2.859375-5.8310547-3.9941406c-8.6201172-2.140625-12.0820312-5.1318359-12.0820312-9.6953125
		c0-4.859375,4.9804688-8.1054688,14.1660156-8.1054688c4.8720703,0,9.28125,0.7333984,12.7392578,2.0439453l-2.1181641,6.5820312
		c-3.3398438-1.2695312-6.6972656-1.8867188-10.2626953-1.8867188c-3.1308594,0-4.8066406,0.7646484-4.8066406,1.6162109
		c0,1.6640625,1.6611328,2.6035156,5.0546875,3.3886719C732.1298828,499.4941406,735.5,502.4892578,735.5,507.4033203z"/>
	<path d="M735,357.6542969C735,362.0585938,731.5595703,366,720.8300781,366c-4.6367188,0-9.6191406-1.1484375-12.8300781-2.9072266
		l2.5390625-5.7226562c3.0634766,1.6367188,6.9121094,2.5751953,10.5595703,2.5751953
		c2.0966797,0,5.6132812-0.3085938,5.6132812-2.3720703c0-1.9287109-1.0595703-3.4599609-6.7861328-4.7919922
		c-8.1005859-1.9960938-11.5058594-4.8730469-11.5058594-9.2089844c0-4.5332031,4.7451172-7.5722656,13.4814453-7.5722656
		c4.7041016,0,8.9619141,0.7050781,12.4111328,1.9990234l-1.9355469,5.875
		c-3.2558594-1.2246094-6.59375-1.8193359-10.2070312-1.8193359c-3.5478516,0-5.4619141,0.8789062-5.4619141,1.7050781
		c0,1.8789062,1.9863281,3.0712891,5.9892578,3.9892578C731.6679688,349.8789062,735,352.8085938,735,357.6542969z"/>
	<path d="M733.8505859,188.4541016l-1.5175781,4.543457c-3.2333984-1.2026367-6.6650391-1.7944336-10.3867188-1.7944336
		c-4.2744141,0-6.7841797,1.1054688-6.7841797,2.4609375c0,2.09375,2.3837891,3.5380859,7.1425781,4.590332
		C731.0839844,200.2636719,734.5,203.1279297,734.5,207.9052734c0,3.8188477-2.8134766,7.9277344-13.4472656,7.9277344
		c-4.6435547,0-9.2988281-1.0571289-12.5527344-2.809082l2-4.40625c3.0566406,1.6186523,6.8642578,2.512207,10.7324219,2.512207
		c2.6425781,0,7.0751953-0.4267578,7.0751953-3.2788086c0-2.1508789-1.1259766-4.0605469-7.9882812-5.5898438
		c-7.8759766-1.8515625-11.3486328-4.6142578-11.3486328-8.722168c0-4.2070312,4.5097656-7.0395508,12.796875-7.0395508
		C726.3037109,186.4995117,730.4101562,187.1772461,733.8505859,188.4541016z"/>
	<path d="M733.3896484,38.9101562l-1.1005859,3.2114258c-3.2119141-1.1806641-6.7353516-1.7700195-10.5664062-1.7700195
		c-5.0009766,0-8.1054688,1.3325195-8.1054688,3.2172852c0,2.309082,2.78125,4.0053711,8.2949219,5.190918
		C730.5,50.6484375,734,53.4482422,734,58.15625c0,3.2338867-2.1855469,7.5107422-12.7236328,7.5107422
		c-4.6513672,0-8.9794922-0.9658203-12.2763672-2.7114258l1.4628906-3.090332
		c3.0478516,1.6015625,6.8154297,2.4501953,10.9033203,2.4501953c3.1884766,0,8.5380859-0.5449219,8.5380859-4.1860352
		c0-2.3735352-1.1933594-4.6611328-9.1914062-6.387207c-7.6503906-1.7075195-11.1923828-4.355957-11.1923828-8.2358398
		C709.5205078,39.6259766,713.796875,37,721.6337891,37C726.0019531,37,729.9570312,37.6499023,733.3896484,38.9101562z"/>
	<path d="M710.0712891-106.5263672c0-3.5546875,4.0410156-5.9736328,11.4287109-5.9736328
		c4.2011719,0,8.0039062,0.6220703,11.4277344,1.8652344l-0.6826172,1.8798828
		C729.0556641-109.9130859,725.4394531-110.5,721.5-110.5c-5.7285156,0-9.4287109,1.5595703-9.4287109,3.9736328
		c0,2.5234375,3.1787109,4.4716797,9.4482422,5.7919922C729.9169922-98.9667969,733.5-96.2324219,733.5-91.5927734
		c0,2.6484375-1.5585938,7.0927734-12,7.0927734c-4.6591797,0-8.6601562-0.8740234-12-2.6132812l0.9238281-1.7734375
		C713.4648438-87.3027344,717.1914062-86.5,721.5-86.5c3.734375,0,10-0.6621094,10-5.0927734
		c0-2.5957031-1.2597656-5.2617188-10.3925781-7.1845703C713.6816406-100.3408203,710.0712891-102.875,710.0712891-106.5263672z"/>
</g>
</svg>
