<?xml version="1.0" encoding="utf-8"?>
<!-- Generator: Adobe Illustrator 15.0.2, SVG Export Plug-In . SVG Version: 6.00 Build 0)  -->
<!DOCTYPE svg PUBLIC "-//W3C//DTD SVG 1.1//EN" "http://www.w3.org/Graphics/SVG/1.1/DTD/svg11.dtd">
<svg version="1.1" id="レイヤー1" xmlns="http://www.w3.org/2000/svg" xmlns:xlink="http://www.w3.org/1999/xlink" x="0px"
	 y="0px" width="841.8896484px" height="595.2753906px" viewBox="0 0 841.8896484 595.2753906"
	 enable-background="new 0 0 841.8896484 595.2753906" xml:space="preserve">
<g>
	<rect x="71.5" y="-226.5" fill="none" stroke="#000000" stroke-width="0.25" width="100" height="150"/>
	<rect x="71.5" y="-76.5" fill="none" stroke="#000000" stroke-width="0.25" width="100" height="150"/>
	<rect x="71.5" y="73.5" fill="none" stroke="#000000" stroke-width="0.25" width="100" height="150"/>
	<rect x="71.5" y="223.5" fill="none" stroke="#000000" stroke-width="0.25" width="100" height="150"/>
	<rect x="71.5" y="373.5" fill="none" stroke="#000000" stroke-width="0.25" width="100" height="150"/>
	<rect x="71.5" y="523.5" fill="none" stroke="#000000" stroke-width="0.25" width="100" height="150"/>
	<rect x="71.5" y="673.5" fill="none" stroke="#000000" stroke-width="0.25" width="100" height="150"/>
	<rect x="171.5" y="-226.5" fill="none" stroke="#000000" stroke-width="0.25" width="100" height="150"/>
	<rect x="171.5" y="-76.5" fill="none" stroke="#000000" stroke-width="0.25" width="100" height="150"/>
	<rect x="171.5" y="73.5" fill="none" stroke="#000000" stroke-width="0.25" width="100" height="150"/>
	<rect x="171.5" y="223.5" fill="none" stroke="#000000" stroke-width="0.25" width="100" height="150"/>
	<rect x="171.5" y="373.5" fill="none" stroke="#000000" stroke-width="0.25" width="100" height="150"/>
	<rect x="171.5" y="523.5" fill="none" stroke="#000000" stroke-width="0.25" width="100" height="150"/>
	<rect x="171.5" y="673.5" fill="none" stroke="#000000" stroke-width="0.25" width="100" height="150"/>
	<rect x="271.5" y="-226.5" fill="none" stroke="#000000" stroke-width="0.25" width="100" height="150"/>
	<rect x="271.5" y="-76.5" fill="none" stroke="#000000" stroke-width="0.25" width="100" height="150"/>
	<rect x="271.5" y="73.5" fill="none" stroke="#000000" stroke-width="0.25" width="100" height="150"/>
	<rect x="271.5" y="223.5" fill="none" stroke="#000000" stroke-width="0.25" width="100" height="150"/>
	<rect x="271.5" y="373.5" fill="none" stroke="#000000" stroke-width="0.25" width="100" height="150"/>
	<rect x="271.5" y="523.5" fill="none" stroke="#000000" stroke-width="0.25" width="100" height="150"/>
	<rect x="271.5" y="673.5" fill="none" stroke="#000000" stroke-width="0.25" width="100" height="150"/>
	<rect x="371.5" y="-226.5" fill="none" stroke="#000000" stroke-width="0.25" width="100" height="150"/>
	<rect x="371.5" y="-76.5" fill="none" stroke="#000000" stroke-width="0.25" width="100" height="150"/>
	<rect x="371.5" y="73.5" fill="none" stroke="#000000" stroke-width="0.25" width="100" height="150"/>
	<rect x="371.5" y="223.5" fill="none" stroke="#000000" stroke-width="0.25" width="100" height="150"/>
	<rect x="371.5" y="373.5" fill="none" stroke="#000000" stroke-width="0.25" width="100" height="150"/>
	<rect x="371.5" y="523.5" fill="none" stroke="#000000" stroke-width="0.25" width="100" height="150"/>
	<rect x="371.5" y="673.5" fill="none" stroke="#000000" stroke-width="0.25" width="100" height="150"/>
	<rect x="471.5" y="-226.5" fill="none" stroke="#000000" stroke-width="0.25" width="100" height="150"/>
	<rect x="471.5" y="-76.5" fill="none" stroke="#000000" stroke-width="0.25" width="100" height="150"/>
	<rect x="471.5" y="73.5" fill="none" stroke="#000000" stroke-width="0.25" width="100" height="150"/>
	<rect x="471.5" y="223.5" fill="none" stroke="#000000" stroke-width="0.25" width="100" height="150"/>
	<rect x="471.5" y="373.5" fill="none" stroke="#000000" stroke-width="0.25" width="100" height="150"/>
	<rect x="471.5" y="523.5" fill="none" stroke="#000000" stroke-width="0.25" width="100" height="150"/>
	<rect x="471.5" y="673.5" fill="none" stroke="#000000" stroke-width="0.25" width="100" height="150"/>
	<rect x="571.5" y="-226.5" fill="none" stroke="#000000" stroke-width="0.25" width="100" height="150"/>
	<rect x="571.5" y="-76.5" fill="none" stroke="#000000" stroke-width="0.25" width="100" height="150"/>
	<rect x="571.5" y="73.5" fill="none" stroke="#000000" stroke-width="0.25" width="100" height="150"/>
	<rect x="571.5" y="223.5" fill="none" stroke="#000000" stroke-width="0.25" width="100" height="150"/>
	<rect x="571.5" y="373.5" fill="none" stroke="#000000" stroke-width="0.25" width="100" height="150"/>
	<rect x="571.5" y="523.5" fill="none" stroke="#000000" stroke-width="0.25" width="100" height="150"/>
	<rect x="571.5" y="673.5" fill="none" stroke="#000000" stroke-width="0.25" width="100" height="150"/>
	<rect x="671.5" y="-226.5" fill="none" stroke="#000000" stroke-width="0.25" width="100" height="150"/>
	<rect x="671.5" y="-76.5" fill="none" stroke="#000000" stroke-width="0.25" width="100" height="150"/>
	<rect x="671.5" y="73.5" fill="none" stroke="#000000" stroke-width="0.25" width="100" height="150"/>
	<rect x="671.5" y="223.5" fill="none" stroke="#000000" stroke-width="0.25" width="100" height="150"/>
	<rect x="671.5" y="373.5" fill="none" stroke="#000000" stroke-width="0.25" width="100" height="150"/>
	<rect x="671.5" y="523.5" fill="none" stroke="#000000" stroke-width="0.25" width="100" height="150"/>
	<rect x="671.5" y="673.5" fill="none" stroke="#000000" stroke-width="0.25" width="100" height="150"/>
	<rect x="771.5" y="-226.5" fill="none" stroke="#000000" stroke-width="0.25" width="100" height="150"/>
	<rect x="771.5" y="-76.5" fill="none" stroke="#000000" stroke-width="0.25" width="100" height="150"/>
	<rect x="771.5" y="73.5" fill="none" stroke="#000000" stroke-width="0.25" width="100" height="150"/>
	<rect x="771.5" y="223.5" fill="none" stroke="#000000" stroke-width="0.25" width="100" height="150"/>
	<rect x="771.5" y="373.5" fill="none" stroke="#000000" stroke-width="0.25" width="100" height="150"/>
	<rect x="771.5" y="523.5" fill="none" stroke="#000000" stroke-width="0.25" width="100" height="150"/>
	<rect x="771.5" y="673.5" fill="none" stroke="#000000" stroke-width="0.25" width="100" height="150"/>
</g>
<g>
	<g>
		<path d="M221.5-202.5c5.5224609,0,10,4.4775391,10,10s-4.4775391,10-10,10s-10-4.4775391-10-10S215.9775391-202.5,221.5-202.5v2
			c-4.4179688,0-8,3.5820312-8,8s3.5820312,8,8,8s8-3.5820312,8-8s-3.5820312-8-8-8V-202.5z"/>
		
			<rect x="230.7525482" y="-187.7476654" transform="matrix(0.7071068 -0.7071068 0.7071068 0.7071068 196.7472076 110.4946289)" width="1.9997864" height="11.000206"/>
	</g>
	<g>
		<path d="M221.5-52.8339844c5.7988281,0,10.5,4.7016602,10.5,10.5004883s-4.7011719,10.5-10.5,10.5
			s-10.5004883-4.7011719-10.5004883-10.5S215.7011719-52.8339844,221.5-52.8339844V-49.5
			c-3.9580078,0-7.1669922,3.2089844-7.1669922,7.1665039s3.2089844,7.1665039,7.1669922,7.1665039
			c3.9575195,0,7.1660156-3.2089844,7.1660156-7.1665039S225.4575195-49.5,221.5-49.5V-52.8339844z"/>
		
			<rect x="229.6591034" y="-37.8411255" transform="matrix(-0.7071068 0.7071068 -0.7071068 -0.7071068 372.5147095 -218.8162689)" width="3.833154" height="11.166625"/>
	</g>
	<g>
		<path d="M221.5,96.8330078c6.0751953,0,11,4.9248047,11,11s-4.9248047,11.0004883-11,11.0004883s-11-4.925293-11-11.0004883
			S215.4248047,96.8330078,221.5,96.8330078V101.5c-3.4970703,0-6.3334961,2.8359375-6.3334961,6.3330078
			c0,3.4980469,2.8364258,6.3339844,6.3334961,6.3339844s6.3330078-2.8359375,6.3330078-6.3339844
			c0-3.4970703-2.8359375-6.3330078-6.3330078-6.3330078V96.8330078z"/>
		
			<rect x="228.5667419" y="112.0661469" transform="matrix(-0.7071068 0.7071068 -0.7071068 -0.7071068 478.2734985 37.3579636)" width="5.6658311" height="11.3330431"/>
	</g>
	<g>
		<path d="M221.5,246.5c6.3515625,0,11.5,5.1484375,11.5,11.5s-5.1484375,11.5-11.5,11.5S210,264.3515625,210,258
			S215.1484375,246.5,221.5,246.5v6c-3.0371094,0-5.5,2.4628906-5.5,5.5s2.4628906,5.5,5.5,5.5s5.5-2.4628906,5.5-5.5
			s-2.4628906-5.5-5.5-5.5V246.5z"/>
		
			<rect x="227.4735413" y="261.9729309" transform="matrix(-0.7071068 0.7071068 -0.7071068 -0.7071068 584.0311279 293.5317078)" width="7.4991989" height="11.4994621"/>
	</g>
	<g>
		<path d="M221.5,396.1660156c6.6274414,0,12,5.3730469,12,12c0,6.6279297-5.3725586,12-12,12
			c-6.6279297,0-12.0004883-5.3720703-12.0004883-12C209.4995117,401.5390625,214.8720703,396.1660156,221.5,396.1660156v6.6669922
			c-2.9453125,0-5.3339844,2.3876953-5.3339844,5.3330078S218.5546875,413.5,221.5,413.5
			c2.9448242,0,5.3330078-2.3886719,5.3330078-5.3339844s-2.3881836-5.3330078-5.3330078-5.3330078V396.1660156z"/>
		
			<rect x="226.3792725" y="411.8786316" transform="matrix(0.7071068 -0.7071068 0.7071068 0.7071068 -227.6951294 285.7191162)" width="9.3332567" height="11.6665716"/>
	</g>
	<g>
		<path d="M221.5,545.8339844c6.9033203,0,12.5,5.5957031,12.5,12.4990234c0,6.9042969-5.5966797,12.5-12.5,12.5
			s-12.5-5.5957031-12.5-12.5C209,551.4296875,214.5966797,545.8339844,221.5,545.8339844v7.3320312
			c-2.8535156,0-5.1669922,2.3134766-5.1669922,5.1669922C216.3330078,561.1875,218.6464844,563.5,221.5,563.5
			s5.1665039-2.3125,5.1665039-5.1669922c0-2.8535156-2.3129883-5.1669922-5.1665039-5.1669922V545.8339844z"/>
		
			<rect x="225.2859955" y="561.7859497" transform="matrix(0.7071286 -0.7070849 0.7070849 0.7071286 -333.7990112 329.5079346)" width="11.1662798" height="11.8333359"/>
	</g>
	<g>
		<path d="M221.5,695.5c7.1796875,0,13,5.8203125,13,13s-5.8203125,13-13,13s-13-5.8203125-13-13S214.3203125,695.5,221.5,695.5v8
			c-2.7617188,0-5,2.2382812-5,5s2.2382812,5,5,5s5-2.2382812,5-5s-2.2382812-5-5-5V695.5z"/>
		
			<rect x="224.1923828" y="711.6923218" transform="matrix(0.7071068 -0.7071068 0.7071068 0.7071068 -439.9168701 373.3313904)" width="12.9999924" height="12.0000992"/>
	</g>
</g>
<g>
	<polygon points="527.5,-184.5 527.5,-197.5 529.5,-197.5 529.5,-182.5 508.5,-182.5 508.5,-184.5 	"/>
	<polygon points="507.5830078,-31.3334961 507.5830078,-35.1669922 525.9160156,-35.1669922 525.9160156,-47.3334961 
		530.5830078,-47.3334961 530.5830078,-31.3334961 	"/>
	<polygon points="506.6669922,119.8334961 506.6669922,114.1669922 524.3330078,114.1669922 524.3330078,102.8334961 
		531.6669922,102.8334961 531.6669922,119.8334961 	"/>
	<polygon points="532.75,271 505.75,271 505.75,263.5 522.75,263.5 522.75,253 532.75,253 	"/>
	<polygon points="504.8330078,422.1660156 504.8330078,413.1660156 521.1660156,413.1660156 521.1660156,403.1660156 
		533.8330078,403.1660156 533.8330078,422.1660156 	"/>
	<polygon points="503.9169922,573.3330078 503.9169922,562.8330078 519.5830078,562.8330078 519.5830078,553.3330078 
		534.9169922,553.3330078 534.9169922,573.3330078 	"/>
	<polygon points="536,724.5 503,724.5 503,712.5 518,712.5 518,703.5 536,703.5 	"/>
</g>
<g>
	<polygon points="414,709.5996094 434.5,713.5 434.5,725.5 404.5,716.5 404.5,702.5 434.5,693.5 434.5,705.5 414,709.4003906 	"/>
	<polygon points="413.1660156,559.5996094 434.3330078,564.4160156 434.3330078,575.1660156 404.6665039,565.6660156 
		404.6665039,553.3330078 434.3330078,543.8330078 434.3330078,554.5830078 413.1660156,559.4003906 	"/>
	<polygon points="412.3330078,409.5996094 434.1669922,415.3330078 434.1669922,424.8330078 404.8330078,414.8330078 
		404.8330078,404.1660156 434.1669922,394.1660156 434.1669922,403.6660156 412.3330078,409.4003906 	"/>
	<polygon points="411.5,259.5996094 434,266.25 434,274.5 405,264 405,255 434,244.5 434,252.75 411.5,259.4003906 	"/>
	<polygon points="433.8330078,123.4995117 405.1660156,112.1660156 405.1660156,105.4995117 433.8330078,94.1660156 
		433.8330078,100.4013672 410.4233398,108.7333984 410.4233398,108.9326172 433.8330078,117.2646484 	"/>
	<polygon points="433.6660156,-27.5 405.3330078,-39.6669922 405.3330078,-44 433.6660156,-56.1669922 433.6660156,-51.9462891 
		409.347168,-41.9326172 409.347168,-41.7333984 433.6660156,-31.7197266 	"/>
	<polygon points="408.2705078,-192.4003906 433.5,-180.7050781 433.5,-178.5 405.5,-191.5 405.5,-193.5 433.5,-206.5 
		433.5,-204.2949219 408.2705078,-192.5996094 	"/>
</g>
<g>
	<path d="M108.5-195.5v-2h6c8.418457,0,12,3.609375,12,11v8h-2v-8c0-6.3925781-2.8969727-9-10-9H108.5z"/>
	<path d="M107.6665039-43.6669922v-3.6665039h7.4165039c8.9501953,0,12.9169922,3.9331055,12.9169922,11.75v7.5830078h-4.6669922
		v-7.4165039c0-5.921875-2.5966797-8.25-9.0830078-8.25H107.6665039z"/>
	<path d="M106.8334961,108.1669922v-5.3334961h8.8330078c9.4814453,0,13.8334961,4.2563477,13.8334961,12.4995117V122.5h-7.3330078
		v-6.8330078c0-5.4511719-2.296875-7.5-8.1669922-7.5H106.8334961z"/>
	<path d="M106,260v-7h10.25c10.0126953,0,14.75,4.5800781,14.75,13.25V273h-10v-6.25c0-4.9804688-1.996582-6.75-7.25-6.75H106z"/>
	<path d="M105,411.8330078v-8.6669922h11.8330078c10.5439453,0,15.6669922,4.9042969,15.6669922,14V423.5h-12.6669922v-5.6669922
		c0-4.5087891-1.6962891-6-6.3330078-6H105z"/>
	<path d="M104,563.6660156v-10.3330078h13.4169922c11.0751953,0,16.5830078,5.2275391,16.5830078,14.75V574h-15.3330078v-5.0839844
		c0-4.0371094-1.3964844-5.25-5.4169922-5.25H104z"/>
	<path d="M103,715.5v-12h15c11.6069336,0,17.5,5.5517578,17.5,15.5v5.5h-18V720c0-3.5673828-1.0961914-4.5-4.5-4.5H103z"/>
</g>
<g>
	<g>
		<rect x="312.5" y="799.5" width="18" height="9"/>
		<path d="M299.5,786.5H313c0.3442383,3.0390625,4.3540039,6,8.5,6c4.1479492,0,8.1567383-2.9609375,8.5-6h13.5
			c0,8.828125-9.3867188,17-22,17S299.5,795.328125,299.5,786.5z"/>
	</g>
	<g>
		<rect x="313.8330078" y="649.1660156" width="15.3334961" height="9"/>
		<path d="M300.3330078,636.5h11.8334961c0.3032227,3.1142578,4.6245117,6.3330078,9.3334961,6.3330078
			c4.7094727,0,9.03125-3.21875,9.3330078-6.3330078h11.8330078c0,8.3515625-8.9462891,16.1660156-21.1660156,16.1660156
			S300.3330078,644.8515625,300.3330078,636.5z"/>
	</g>
	<g>
		<rect x="315.1665039" y="498.8330078" width="12.6669922" height="9"/>
		<path d="M301.1669922,486.5h10.1660156c0.2626953,3.1904297,4.8964844,6.6660156,10.1669922,6.6660156
			c5.2714844,0,9.90625-3.4755859,10.1669922-6.6660156h10.1660156c0,7.8769531-8.5058594,15.3330078-20.3330078,15.3330078
			C309.6738281,501.8330078,301.1669922,494.3769531,301.1669922,486.5z"/>
	</g>
	<g>
		<rect x="316.5" y="348.5" width="10" height="9"/>
		<path d="M302,336.5h8.5c0.2207031,3.265625,5.1669922,7,11,7c5.8339844,0,10.7802734-3.734375,11-7h8.5
			c0,7.4013672-8.0664062,14.5-19.5,14.5C310.0678711,351,302,343.9013672,302,336.5z"/>
	</g>
	<g>
		<rect x="317.8330078" y="198.1665039" width="7.3334961" height="9"/>
		<path d="M303,186.5h6.3330078c0.1474609,3.7871094,5.387207,7.9995117,12.1669922,7.9995117
			c6.7802734,0,12.0200195-4.2124023,12.1665039-7.9995117H340c0,7.0327148-7.7275391,13.6660156-18.5,13.6660156
			C310.7285156,200.1660156,303,193.5327148,303,186.5z"/>
	</g>
	<g>
		<rect x="319.1669922" y="47.8334961" width="4.6660156" height="9"/>
		<path d="M304,36.5h4.1669922c0.0732422,4.3085938,5.6069336,9,13.3330078,9c7.7275391,0,13.2597656-4.6914062,13.3330078-9H339
			c0,6.6650391-7.3876953,12.8330078-17.5,12.8330078C311.3896484,49.3330078,304,43.1650391,304,36.5z"/>
	</g>
	<g>
		<rect x="320.5" y="-102.5" width="2" height="9"/>
		<path d="M305-113.5h2c0,4.8300781,5.8271484,10,14.5,10c8.6738281,0,14.5-5.1699219,14.5-10h2c0,6.296875-7.0488281,12-16.5,12
			C312.0507812-101.5,305-107.203125,305-113.5z"/>
	</g>
</g>
<g>
	<path d="M634.5-95.5v2h-6c-8.4179688,0-12-3.609375-12-11v-8h2v8c0,6.3925781,2.8964844,9,10,9H634.5z"/>
	<path d="M635.3330078,56.8330078h-7.4169922c-8.9492188,0-12.9160156-3.9326172-12.9160156-11.75v-7.5834961h4.6660156v7.4169922
		c0,5.921875,2.5966797,8.25,9.0839844,8.25h6.5830078V56.8330078z"/>
	<path d="M636.1669922,207.1669922h-8.8339844c-9.4814453,0-13.8330078-4.2568359-13.8330078-12.5004883V187.5h7.3339844v6.8334961
		c0,5.4511719,2.2958984,7.5,8.1660156,7.5h7.1669922V207.1669922z"/>
	<path d="M637,350.5v7h-10.25c-10.0126953,0-14.75-4.5800781-14.75-13.25v-6.75h10v6.25c0,4.9804688,1.9960938,6.75,7.25,6.75H637z"
		/>
	<path d="M638,507.8330078h-11.8339844c-10.5439453,0-15.6660156-4.9033203-15.6660156-14V487.5h12.6660156v5.6660156
		c0,4.5097656,1.6962891,6,6.3339844,6h8.5V507.8330078z"/>
	<path d="M639,658.1660156h-13.4160156C614.5078125,658.1660156,609,652.9384766,609,643.4169922V637.5h15.3330078v5.0830078
		c0,4.0390625,1.3955078,5.25,5.4169922,5.25H639V658.1660156z"/>
	<path d="M640,796.5v12h-15c-11.6074219,0-17.5-5.5517578-17.5-15.5v-5.5h18v4.5c0,3.5673828,1.0957031,4.5,4.5,4.5H640z"/>
</g>
<g>
	<path d="M723.5,709c2.2802734,1.4160156,4.0195312,2,5,2c1.3574219,0,2-0.8867188,2-5.5h13c0,13.9189453-4.15625,19-11,19
		c-3.78125,0-7.7939453-1.265625-13-4.5c-2.2802734-1.4179688-4.0205078-2-5-2c-1.4023438,0-2,0.9394531-2,6.5h-13
		c0-14.6982422,4.015625-20,11-20C714.28125,704.5,718.2929688,705.7636719,723.5,709z"/>
	<path d="M723.25,560c2.8554688,1.7949219,4.5869141,2.4160156,5.6660156,2.4160156c1.5097656,0,2.25-1.0664062,2.25-5.9160156h11.5
		c0,12.7783203-3.9511719,17.5-10.3330078,17.5c-3.5673828,0-7.3271484-1.2060547-12.5830078-4.5
		c-2.8554688-1.796875-4.5878906-2.4169922-5.6669922-2.4169922c-1.5576172,0-2.25,1.1386719-2.25,6.9169922h-11.5
		c0-13.5517578,3.7919922-18.5,10.3330078-18.5C714.2529297,555.5,718.0175781,556.7207031,723.25,560z"/>
	<path d="M723,411c3.4306641,2.1738281,5.1542969,2.8330078,6.3330078,2.8330078c1.6630859,0,2.5-1.2470703,2.5-6.3330078h10
		c0,11.6386719-3.7470703,16-9.6669922,16c-3.3535156,0-6.859375-1.1455078-12.1660156-4.5
		c-3.4306641-2.1748047-5.1552734-2.8330078-6.3339844-2.8330078c-1.7119141,0-2.4990234,1.3378906-2.4990234,7.3330078h-10.0009766
		c0-12.4042969,3.5693359-17,9.6669922-17C714.2255859,406.5,717.7431641,407.6777344,723,411z"/>
	<path d="M722.75,262c4.0058594,2.5527344,5.7226562,3.25,7,3.25c1.8144531,0,2.75-1.4277344,2.75-6.75h8.5
		c0,10.4980469-3.5439453,14.5-9,14.5c-3.140625,0-6.3935547-1.0859375-11.75-4.5c-4.0058594-2.5527344-5.7226562-3.25-7-3.25
		c-1.8681641,0-2.75,1.5371094-2.75,7.75H702c0-11.2578125,3.3447266-15.5,9-15.5
		C714.1982422,257.5,717.4677734,258.6347656,722.75,262z"/>
	<path d="M703,122.4995117C703,112.3979492,706.0605469,108.5,711.1660156,108.5
		c2.9707031,0,6.2226562,1.1669922,11.3339844,4.5449219c4.1679688,2.7685547,6.2802734,3.621582,7.8330078,3.621582
		c2.1220703,0,3.3330078-1.6782227,3.3330078-7.1665039H740c0,9.753418-3.5410156,12.9995117-8.1669922,12.9995117
		c-3.0068359,0-6.3046875-1.2250977-11.3867188-4.5786133c-4.0117188-2.6582031-6.1748047-3.5878906-7.7802734-3.5878906
		c-1.6162109,0-3.3330078,1.0249023-3.3330078,8.1665039H703z"/>
	<path d="M704-28c0-8.9462891,2.7773438-12.5,7.3330078-12.5c2.7412109,0,5.9755859,1.199707,10.9169922,4.5898438
		c4.3300781,2.9848633,6.8388672,3.9936523,8.6669922,3.9936523c2.4296875,0,3.9169922-1.9291992,3.9169922-7.5834961H739
		c0,9.0097656-3.5380859,11.5-7.3330078,11.5c-2.8730469,0-6.2158203-1.3652344-11.0244141-4.6572266
		c-4.0166016-2.7641602-6.6259766-3.9262695-8.5595703-3.9262695c-1.3642578,0-3.9160156,0.512207-3.9160156,8.5834961H704z"/>
	<path d="M705-178.5c0-7.7900391,2.4931641-11,6.5-11c2.5126953,0,5.7294922,1.2324219,10.5,4.6347656
		c4.4921875,3.2011719,7.3964844,4.3652344,9.5,4.3652344c2.7382812,0,4.5-2.1796875,4.5-8h2c0,8.265625-3.5351562,10-6.5,10
		c-2.7392578,0-6.1269531-1.5048828-10.6611328-4.7363281C716.8164062-186.1054688,713.7617188-187.5,711.5-187.5
		c-1.1132812,0-4.5,0-4.5,9H705z"/>
</g>
<g>
	<path d="M830.5-185.5c0-4.9707031-4.0292969-9-9-9s-9,4.0292969-9,9s4.0292969,9,9,9S830.5-180.5292969,830.5-185.5h2
		c0,6.0742188-4.9248047,11-11,11s-11-4.9257812-11-11c0-6.0761719,4.9248047-11,11-11s11,4.9238281,11,11H830.5z"/>
	<path d="M833.1660156-36c0,6.4423828-5.2226562,11.6665039-11.6660156,11.6665039S809.8330078-29.5576172,809.8330078-36
		c0-6.4443359,5.2236328-11.6669922,11.6669922-11.6669922S833.1660156-42.4443359,833.1660156-36h-3.3330078
		c0-4.6035156-3.7314453-8.3334961-8.3330078-8.3334961c-4.6035156,0-8.3339844,3.7299805-8.3339844,8.3334961
		c0,4.6020508,3.7304688,8.3330078,8.3339844,8.3330078c4.6015625,0,8.3330078-3.730957,8.3330078-8.3330078H833.1660156z"/>
	<path d="M833.8330078,113.5c0,6.8115234-5.5214844,12.3330078-12.3330078,12.3330078S809.1660156,120.3115234,809.1660156,113.5
		c0-6.8120117,5.5224609-12.3330078,12.3339844-12.3330078S833.8330078,106.6879883,833.8330078,113.5h-4.6660156
		c0-4.2353516-3.4326172-7.6665039-7.6669922-7.6665039s-7.6669922,3.4311523-7.6669922,7.6665039
		c0,4.2333984,3.4326172,7.6665039,7.6669922,7.6665039s7.6669922-3.4331055,7.6669922-7.6665039H833.8330078z"/>
	<path d="M828.5,263c0-3.8671875-3.1337891-7-7-7c-3.8671875,0-7,3.1328125-7,7c0,3.8652344,3.1328125,7,7,7
		C825.3662109,270,828.5,266.8652344,828.5,263h6c0,7.1796875-5.8203125,13-13,13s-13-5.8203125-13-13s5.8203125-13,13-13
		s13,5.8203125,13,13H828.5z"/>
	<path d="M835.1660156,412.5c0,7.546875-6.1191406,13.6660156-13.6660156,13.6660156
		c-7.5478516,0-13.6669922-6.1191406-13.6669922-13.6660156c0-7.5488281,6.1191406-13.6669922,13.6669922-13.6669922
		C829.046875,398.8330078,835.1660156,404.9511719,835.1660156,412.5H828.5c0-3.8671875-3.1347656-7-7-7
		c-3.8671875,0-7,3.1328125-7,7c0,3.8652344,3.1328125,7,7,7c3.8652344,0,7-3.1347656,7-7H835.1660156z"/>
	<path d="M835.8339844,562c0,7.9150391-6.4189453,14.3330078-14.3339844,14.3330078
		c-7.9160156,0-14.3330078-6.4179688-14.3330078-14.3330078c0-7.9169922,6.4169922-14.3330078,14.3330078-14.3330078
		C829.4150391,547.6669922,835.8339844,554.0830078,835.8339844,562H828.5c0-3.8671875-3.1337891-7-7-7
		c-3.8671875,0-7,3.1328125-7,7c0,3.8652344,3.1328125,7,7,7c3.8662109,0,7-3.1347656,7-7H835.8339844z"/>
	<path d="M828.5,711.5c0-3.8671875-3.1337891-7-7-7c-3.8671875,0-7,3.1328125-7,7c0,3.8652344,3.1328125,7,7,7
		C825.3662109,718.5,828.5,715.3652344,828.5,711.5h8c0,8.2832031-6.7167969,15-15,15c-8.2841797,0-15-6.7167969-15-15
		c0-8.2851562,6.7158203-15,15-15c8.2832031,0,15,6.7148438,15,15H828.5z"/>
</g>
</svg>
