<?xml version="1.0" encoding="utf-8"?>
<!-- Generator: Adobe Illustrator 15.0.2, SVG Export Plug-In . SVG Version: 6.00 Build 0)  -->
<!DOCTYPE svg PUBLIC "-//W3C//DTD SVG 1.1//EN" "http://www.w3.org/Graphics/SVG/1.1/DTD/svg11.dtd">
<svg version="1.1" id="レイヤー1" xmlns="http://www.w3.org/2000/svg" xmlns:xlink="http://www.w3.org/1999/xlink" x="0px"
	 y="0px" width="841.8896484px" height="595.2753906px" viewBox="0 0 841.8896484 595.2753906"
	 enable-background="new 0 0 841.8896484 595.2753906" xml:space="preserve">
<g>
	<rect x="71.5" y="-226.5" fill="none" stroke="#000000" stroke-width="0.25" width="100" height="150"/>
	<rect x="71.5" y="-76.5" fill="none" stroke="#000000" stroke-width="0.25" width="100" height="150"/>
	<rect x="71.5" y="73.5" fill="none" stroke="#000000" stroke-width="0.25" width="100" height="150"/>
	<rect x="71.5" y="223.5" fill="none" stroke="#000000" stroke-width="0.25" width="100" height="150"/>
	<rect x="71.5" y="373.5" fill="none" stroke="#000000" stroke-width="0.25" width="100" height="150"/>
	<rect x="71.5" y="523.5" fill="none" stroke="#000000" stroke-width="0.25" width="100" height="150"/>
	<rect x="71.5" y="673.5" fill="none" stroke="#000000" stroke-width="0.25" width="100" height="150"/>
	<rect x="171.5" y="-226.5" fill="none" stroke="#000000" stroke-width="0.25" width="100" height="150"/>
	<rect x="171.5" y="-76.5" fill="none" stroke="#000000" stroke-width="0.25" width="100" height="150"/>
	<rect x="171.5" y="73.5" fill="none" stroke="#000000" stroke-width="0.25" width="100" height="150"/>
	<rect x="171.5" y="223.5" fill="none" stroke="#000000" stroke-width="0.25" width="100" height="150"/>
	<rect x="171.5" y="373.5" fill="none" stroke="#000000" stroke-width="0.25" width="100" height="150"/>
	<rect x="171.5" y="523.5" fill="none" stroke="#000000" stroke-width="0.25" width="100" height="150"/>
	<rect x="171.5" y="673.5" fill="none" stroke="#000000" stroke-width="0.25" width="100" height="150"/>
	<rect x="271.5" y="-226.5" fill="none" stroke="#000000" stroke-width="0.25" width="100" height="150"/>
	<rect x="271.5" y="-76.5" fill="none" stroke="#000000" stroke-width="0.25" width="100" height="150"/>
	<rect x="271.5" y="73.5" fill="none" stroke="#000000" stroke-width="0.25" width="100" height="150"/>
	<rect x="271.5" y="223.5" fill="none" stroke="#000000" stroke-width="0.25" width="100" height="150"/>
	<rect x="271.5" y="373.5" fill="none" stroke="#000000" stroke-width="0.25" width="100" height="150"/>
	<rect x="271.5" y="523.5" fill="none" stroke="#000000" stroke-width="0.25" width="100" height="150"/>
	<rect x="271.5" y="673.5" fill="none" stroke="#000000" stroke-width="0.25" width="100" height="150"/>
	<rect x="371.5" y="-226.5" fill="none" stroke="#000000" stroke-width="0.25" width="100" height="150"/>
	<rect x="371.5" y="-76.5" fill="none" stroke="#000000" stroke-width="0.25" width="100" height="150"/>
	<rect x="371.5" y="73.5" fill="none" stroke="#000000" stroke-width="0.25" width="100" height="150"/>
	<rect x="371.5" y="223.5" fill="none" stroke="#000000" stroke-width="0.25" width="100" height="150"/>
	<rect x="371.5" y="373.5" fill="none" stroke="#000000" stroke-width="0.25" width="100" height="150"/>
	<rect x="371.5" y="523.5" fill="none" stroke="#000000" stroke-width="0.25" width="100" height="150"/>
	<rect x="371.5" y="673.5" fill="none" stroke="#000000" stroke-width="0.25" width="100" height="150"/>
	<rect x="471.5" y="-226.5" fill="none" stroke="#000000" stroke-width="0.25" width="100" height="150"/>
	<rect x="471.5" y="-76.5" fill="none" stroke="#000000" stroke-width="0.25" width="100" height="150"/>
	<rect x="471.5" y="73.5" fill="none" stroke="#000000" stroke-width="0.25" width="100" height="150"/>
	<rect x="471.5" y="223.5" fill="none" stroke="#000000" stroke-width="0.25" width="100" height="150"/>
	<rect x="471.5" y="373.5" fill="none" stroke="#000000" stroke-width="0.25" width="100" height="150"/>
	<rect x="471.5" y="523.5" fill="none" stroke="#000000" stroke-width="0.25" width="100" height="150"/>
	<rect x="471.5" y="673.5" fill="none" stroke="#000000" stroke-width="0.25" width="100" height="150"/>
	<rect x="571.5" y="-226.5" fill="none" stroke="#000000" stroke-width="0.25" width="100" height="150"/>
	<rect x="571.5" y="-76.5" fill="none" stroke="#000000" stroke-width="0.25" width="100" height="150"/>
	<rect x="571.5" y="73.5" fill="none" stroke="#000000" stroke-width="0.25" width="100" height="150"/>
	<rect x="571.5" y="223.5" fill="none" stroke="#000000" stroke-width="0.25" width="100" height="150"/>
	<rect x="571.5" y="373.5" fill="none" stroke="#000000" stroke-width="0.25" width="100" height="150"/>
	<rect x="571.5" y="523.5" fill="none" stroke="#000000" stroke-width="0.25" width="100" height="150"/>
	<rect x="571.5" y="673.5" fill="none" stroke="#000000" stroke-width="0.25" width="100" height="150"/>
	<rect x="671.5" y="-226.5" fill="none" stroke="#000000" stroke-width="0.25" width="100" height="150"/>
	<rect x="671.5" y="-76.5" fill="none" stroke="#000000" stroke-width="0.25" width="100" height="150"/>
	<rect x="671.5" y="73.5" fill="none" stroke="#000000" stroke-width="0.25" width="100" height="150"/>
	<rect x="671.5" y="223.5" fill="none" stroke="#000000" stroke-width="0.25" width="100" height="150"/>
	<rect x="671.5" y="373.5" fill="none" stroke="#000000" stroke-width="0.25" width="100" height="150"/>
	<rect x="671.5" y="523.5" fill="none" stroke="#000000" stroke-width="0.25" width="100" height="150"/>
	<rect x="671.5" y="673.5" fill="none" stroke="#000000" stroke-width="0.25" width="100" height="150"/>
	<rect x="771.5" y="-226.5" fill="none" stroke="#000000" stroke-width="0.25" width="100" height="150"/>
	<rect x="771.5" y="-76.5" fill="none" stroke="#000000" stroke-width="0.25" width="100" height="150"/>
	<rect x="771.5" y="73.5" fill="none" stroke="#000000" stroke-width="0.25" width="100" height="150"/>
	<rect x="771.5" y="223.5" fill="none" stroke="#000000" stroke-width="0.25" width="100" height="150"/>
	<rect x="771.5" y="373.5" fill="none" stroke="#000000" stroke-width="0.25" width="100" height="150"/>
	<rect x="771.5" y="523.5" fill="none" stroke="#000000" stroke-width="0.25" width="100" height="150"/>
	<rect x="771.5" y="673.5" fill="none" stroke="#000000" stroke-width="0.25" width="100" height="150"/>
</g>
<g>
	<g>
		<rect x="113" y="786.5" width="17" height="12"/>
		<rect x="113" y="803.5" width="17" height="12"/>
	</g>
	<g>
		<rect x="114.1665039" y="637" width="14.6665039" height="11.3330078"/>
		<rect x="114.1665039" y="653.3330078" width="14.6665039" height="11.3330078"/>
	</g>
	<g>
		<rect x="115.3334961" y="487.5" width="12.3334961" height="10.6660156"/>
		<rect x="115.3334961" y="503.1669922" width="12.3334961" height="10.6660156"/>
	</g>
	<g>
		<rect x="116.5" y="338" width="10" height="10"/>
		<rect x="116.5" y="353" width="10" height="10"/>
	</g>
	<g>
		<rect x="117.8330078" y="188.5" width="7.3334961" height="9.3330078"/>
		<rect x="117.8330078" y="202.8330078" width="7.3334961" height="9.3330078"/>
	</g>
	<g>
		<rect x="119.1669922" y="39" width="4.6665039" height="8.6669922"/>
		<rect x="119.1669922" y="52.6665039" width="4.6665039" height="8.6665039"/>
	</g>
	<g>
		<rect x="120.5" y="-110.5" width="2" height="8"/>
		<rect x="120.5" y="-97.5" width="2" height="8"/>
	</g>
</g>
<g>
	<rect x="513" y="786.5" width="17" height="14"/>
	<rect x="514.1660156" y="637" width="14.6669922" height="13.3330078"/>
	<rect x="515.3330078" y="487.5" width="12.3330078" height="12.6669922"/>
	<rect x="516.5" y="338" width="10" height="12"/>
	<rect x="517.8330078" y="188.5" width="7.3330078" height="11.3330078"/>
	<rect x="519.1660156" y="39" width="4.6669922" height="10.6665039"/>
	<rect x="520.5" y="-110.5" width="2" height="10"/>
</g>
<g>
	<rect x="202.25" y="338" width="9.5" height="10"/>
	<rect x="209.5" y="353" width="9.5" height="10"/>
	<rect x="216.75" y="338" width="9.5" height="10"/>
	<rect x="231.25" y="338" width="9.5" height="10"/>
	<rect x="231.25" y="353" width="9.5" height="10"/>
</g>
<g>
	<g>
		<rect x="207.5" y="-110.5" width="2" height="8"/>
		<rect x="214" y="-97.5" width="2" height="8"/>
		<rect x="220.5" y="-110.5" width="2" height="8"/>
		<rect x="233.5" y="-110.5" width="2" height="8"/>
		<rect x="233.5" y="-97.5" width="2" height="8"/>
	</g>
	<g>
		<rect x="205.75" y="39" width="4.5" height="8.6665039"/>
		<rect x="212.5" y="52.6660156" width="4.4995117" height="8.6669922"/>
		<rect x="219.2495117" y="39" width="4.5004883" height="8.6665039"/>
		<rect x="232.75" y="39" width="4.4995117" height="8.6665039"/>
		<rect x="232.75" y="52.6660156" width="4.4995117" height="8.6669922"/>
	</g>
	<g>
		<rect x="204" y="188.5" width="7" height="9.3330078"/>
		<rect x="211" y="202.8330078" width="7" height="9.3334961"/>
		<rect x="218" y="188.5" width="7" height="9.3330078"/>
		<rect x="232" y="188.5" width="7" height="9.3330078"/>
		<rect x="232" y="202.8330078" width="7" height="9.3334961"/>
	</g>
	<g>
		<rect x="202.25" y="338" width="9.5" height="10"/>
		<rect x="209.5" y="353" width="9.5" height="10"/>
		<rect x="216.75" y="338" width="9.5" height="10"/>
		<rect x="231.25" y="338" width="9.5" height="10"/>
		<rect x="231.25" y="353" width="9.5" height="10"/>
	</g>
	<g>
		<rect x="200.3330078" y="487.5" width="11" height="10.6660156"/>
		<rect x="208.3330078" y="503.1660156" width="11" height="10.6669922"/>
		<rect x="216.3330078" y="487.5" width="11" height="10.6660156"/>
		<rect x="232.3330078" y="487.5" width="11" height="10.6660156"/>
		<rect x="232.3330078" y="503.1660156" width="11" height="10.6669922"/>
	</g>
	<g>
		<rect x="198.4165039" y="637" width="12.5004883" height="11.3330078"/>
		<rect x="207.1669922" y="653.3339844" width="12.5" height="11.3330078"/>
		<rect x="215.9169922" y="637" width="12.4995117" height="11.3330078"/>
		<rect x="233.4169922" y="637" width="12.5" height="11.3330078"/>
		<rect x="233.4169922" y="653.3339844" width="12.5" height="11.3330078"/>
	</g>
	<g>
		<rect x="196.5" y="786.5" width="14" height="12"/>
		<rect x="206" y="803.5" width="14" height="12"/>
		<rect x="215.5" y="786.5" width="14" height="12"/>
		<rect x="234.5" y="786.5" width="14" height="12"/>
		<rect x="234.5" y="803.5" width="14" height="12"/>
	</g>
</g>
<g>
	<g>
		<rect x="713.5" y="-110.5" width="2" height="8"/>
		<rect x="720.5" y="-97.5" width="2" height="8"/>
		<rect x="727.5" y="-110.5" width="2" height="8"/>
	</g>
	<g>
		<rect x="712" y="39" width="4.5" height="8.6665039"/>
		<rect x="719.25" y="52.6660156" width="4.5" height="8.6669922"/>
		<rect x="726.5" y="39" width="4.5" height="8.6665039"/>
	</g>
	<g>
		<rect x="710.5" y="188.5" width="7" height="9.3330078"/>
		<rect x="718" y="202.8330078" width="7" height="9.3334961"/>
		<rect x="725.5" y="188.5" width="7" height="9.3330078"/>
	</g>
	<g>
		<rect x="709" y="338" width="9.5" height="10"/>
		<rect x="716.75" y="353" width="9.5" height="10"/>
		<rect x="724.5" y="338" width="9.5" height="10"/>
	</g>
	<g>
		<rect x="707.5" y="487.5" width="11" height="10.6660156"/>
		<rect x="716" y="503.1660156" width="11" height="10.6669922"/>
		<rect x="724.5" y="487.5" width="11" height="10.6660156"/>
	</g>
	<g>
		<rect x="706" y="637" width="12.5" height="11.3330078"/>
		<rect x="715.25" y="653.3339844" width="12.5" height="11.3330078"/>
		<rect x="724.5" y="637" width="12.5" height="11.3330078"/>
	</g>
	<g>
		<rect x="704.5" y="786.5" width="14" height="12"/>
		<rect x="714.5" y="803.5" width="14" height="12"/>
		<rect x="724.5" y="786.5" width="14" height="12"/>
	</g>
</g>
<g>
	<g>
		<rect x="613.5" y="-110.5" width="2" height="10"/>
		<rect x="627.5" y="-110.5" width="2" height="10"/>
	</g>
	<g>
		<rect x="612" y="39" width="4.5" height="10.6660156"/>
		<rect x="626.5" y="39" width="4.5" height="10.6660156"/>
	</g>
	<g>
		<rect x="610.5" y="188.5" width="7" height="11.3330078"/>
		<rect x="625.5" y="188.5" width="7" height="11.3330078"/>
	</g>
	<g>
		<rect x="609" y="338" width="9.5" height="12"/>
		<rect x="624.5" y="338" width="9.5" height="12"/>
	</g>
	<g>
		<rect x="607.5" y="487.5" width="11" height="12.6660156"/>
		<rect x="624.5" y="487.5" width="11" height="12.6660156"/>
	</g>
	<g>
		<rect x="606" y="637" width="12.5" height="13.3339844"/>
		<rect x="624.5" y="637" width="12.5" height="13.3339844"/>
	</g>
	<g>
		<rect x="604.5" y="786.5" width="14" height="14"/>
		<rect x="624.5" y="786.5" width="14" height="14"/>
	</g>
</g>
<g>
	<g>
		<rect x="305" y="-110.5" width="21" height="2"/>
		<rect x="331" y="-110.5" width="2" height="8"/>
		<rect x="331" y="-97.5" width="2" height="8"/>
	</g>
	<g>
		<rect x="303.4165039" y="39" width="22" height="3.8330078"/>
		<rect x="330.4165039" y="39" width="4.4995117" height="8.6665039"/>
		<rect x="330.4165039" y="52.6660156" width="4.4995117" height="8.6669922"/>
	</g>
	<g>
		<rect x="301.8334961" y="188.5" width="23" height="5.6669922"/>
		<rect x="329.8330078" y="188.5" width="7" height="9.3330078"/>
		<rect x="329.8330078" y="202.8330078" width="7" height="9.3334961"/>
	</g>
	<g>
		<rect x="300.25" y="338" width="24" height="7.5"/>
		<rect x="329.25" y="338" width="9.5" height="10"/>
		<rect x="329.25" y="353" width="9.5" height="10"/>
	</g>
	<g>
		<rect x="298.5" y="487.5" width="27" height="9"/>
		<rect x="330.4995117" y="487.5" width="11.0004883" height="10.6660156"/>
		<rect x="330.4995117" y="503.1660156" width="11.0004883" height="10.6669922"/>
	</g>
	<g>
		<rect x="296.75" y="637" width="30" height="10.5"/>
		<rect x="331.75" y="637" width="12.5" height="11.3330078"/>
		<rect x="331.75" y="653.3339844" width="12.5" height="11.3330078"/>
	</g>
	<g>
		<rect x="295" y="786.5" width="33" height="12"/>
		<rect x="333" y="786.5" width="14" height="12"/>
		<rect x="333" y="803.5" width="14" height="12"/>
	</g>
</g>
<g>
	<rect x="810.5" y="-110.5" width="22" height="2"/>
	<rect x="810" y="39" width="23" height="3.8330078"/>
	<rect x="809.5" y="188.5" width="24" height="5.6669922"/>
	<rect x="809" y="338" width="25" height="7.5"/>
	<rect x="807.5" y="487.5" width="28" height="9"/>
	<rect x="806" y="637" width="31" height="10.5"/>
	<rect x="804.5" y="786.5" width="34" height="12"/>
</g>
<g>
	<g>
		<polygon points="428.5,786.5 428.5,798.5 419,798.5 419,810.5 405,810.5 405,798.5 395.5,798.5 395.5,786.5 		"/>
		<rect x="433.5" y="786.5" width="14" height="12"/>
		<rect x="433.5" y="803.5" width="14" height="12"/>
	</g>
	<g>
		<polygon points="427.25,637 427.25,647.5 418.5,647.5 418.5,660 405.9995117,660 405.9995117,647.5 397.25,647.5 397.25,637 		"/>
		<rect x="432.25" y="637" width="12.5" height="11.3330078"/>
		<rect x="432.25" y="653.3330078" width="12.5" height="11.3330078"/>
	</g>
	<g>
		<polygon points="426,487.5 426,496.5 418,496.5 418,509.5 407,509.5 407,496.5 399,496.5 399,487.5 		"/>
		<rect x="431" y="487.5" width="11" height="10.6660156"/>
		<rect x="431" y="503.1669922" width="11" height="10.6660156"/>
	</g>
	<g>
		<polygon points="424.75,338 424.75,345.5 417.5,345.5 417.5,359 408,359 408,345.5 400.75,345.5 400.75,338 		"/>
		<rect x="429.75" y="338" width="9.5" height="10"/>
		<rect x="429.75" y="353" width="9.5" height="10"/>
	</g>
	<g>
		<polygon points="425.3330078,188.5 425.3330078,194.1665039 417.3330078,194.1665039 417.3330078,208.5 410.3330078,208.5 
			410.3330078,194.1665039 402.3330078,194.1665039 402.3330078,188.5 		"/>
		<rect x="430.3330078" y="188.5" width="7" height="9.3330078"/>
		<rect x="430.3330078" y="202.8330078" width="7" height="9.3330078"/>
	</g>
	<g>
		<polygon points="425.9169922,39 425.9169922,42.8334961 417.1665039,42.8334961 417.1665039,58 412.6669922,58 
			412.6669922,42.8334961 403.9169922,42.8334961 403.9169922,39 		"/>
		<rect x="430.9169922" y="39" width="4.4990234" height="8.6669922"/>
		<rect x="430.9169922" y="52.6665039" width="4.4990234" height="8.6665039"/>
	</g>
	<g>
		<polygon points="426.5,-110.5 426.5,-108.5 417,-108.5 417,-92.5 415,-92.5 415,-108.5 405.5,-108.5 405.5,-110.5 		"/>
		<rect x="431.5" y="-110.5" width="2" height="8"/>
		<rect x="431.5" y="-97.5" width="2" height="8"/>
	</g>
</g>
</svg>
