<?xml version="1.0" encoding="utf-8"?>
<!-- Generator: Adobe Illustrator 15.0.2, SVG Export Plug-In . SVG Version: 6.00 Build 0)  -->
<!DOCTYPE svg PUBLIC "-//W3C//DTD SVG 1.1//EN" "http://www.w3.org/Graphics/SVG/1.1/DTD/svg11.dtd">
<svg version="1.1" id="レイヤー1" xmlns="http://www.w3.org/2000/svg" xmlns:xlink="http://www.w3.org/1999/xlink" x="0px"
	 y="0px" width="841.8896484px" height="595.2753906px" viewBox="0 0 841.8896484 595.2753906"
	 enable-background="new 0 0 841.8896484 595.2753906" xml:space="preserve">
<g>
	<rect x="71.5" y="-226.5" fill="none" stroke="#000000" stroke-width="0.25" width="100" height="150"/>
	<rect x="71.5" y="-76.5" fill="none" stroke="#000000" stroke-width="0.25" width="100" height="150"/>
	<rect x="71.5" y="73.5" fill="none" stroke="#000000" stroke-width="0.25" width="100" height="150"/>
	<rect x="71.5" y="223.5" fill="none" stroke="#000000" stroke-width="0.25" width="100" height="150"/>
	<rect x="71.5" y="373.5" fill="none" stroke="#000000" stroke-width="0.25" width="100" height="150"/>
	<rect x="71.5" y="523.5" fill="none" stroke="#000000" stroke-width="0.25" width="100" height="150"/>
	<rect x="71.5" y="673.5" fill="none" stroke="#000000" stroke-width="0.25" width="100" height="150"/>
	<rect x="171.5" y="-226.5" fill="none" stroke="#000000" stroke-width="0.25" width="100" height="150"/>
	<rect x="171.5" y="-76.5" fill="none" stroke="#000000" stroke-width="0.25" width="100" height="150"/>
	<rect x="171.5" y="73.5" fill="none" stroke="#000000" stroke-width="0.25" width="100" height="150"/>
	<rect x="171.5" y="223.5" fill="none" stroke="#000000" stroke-width="0.25" width="100" height="150"/>
	<rect x="171.5" y="373.5" fill="none" stroke="#000000" stroke-width="0.25" width="100" height="150"/>
	<rect x="171.5" y="523.5" fill="none" stroke="#000000" stroke-width="0.25" width="100" height="150"/>
	<rect x="171.5" y="673.5" fill="none" stroke="#000000" stroke-width="0.25" width="100" height="150"/>
	<rect x="271.5" y="-226.5" fill="none" stroke="#000000" stroke-width="0.25" width="100" height="150"/>
	<rect x="271.5" y="-76.5" fill="none" stroke="#000000" stroke-width="0.25" width="100" height="150"/>
	<rect x="271.5" y="73.5" fill="none" stroke="#000000" stroke-width="0.25" width="100" height="150"/>
	<rect x="271.5" y="223.5" fill="none" stroke="#000000" stroke-width="0.25" width="100" height="150"/>
	<rect x="271.5" y="373.5" fill="none" stroke="#000000" stroke-width="0.25" width="100" height="150"/>
	<rect x="271.5" y="523.5" fill="none" stroke="#000000" stroke-width="0.25" width="100" height="150"/>
	<rect x="271.5" y="673.5" fill="none" stroke="#000000" stroke-width="0.25" width="100" height="150"/>
	<rect x="371.5" y="-226.5" fill="none" stroke="#000000" stroke-width="0.25" width="100" height="150"/>
	<rect x="371.5" y="-76.5" fill="none" stroke="#000000" stroke-width="0.25" width="100" height="150"/>
	<rect x="371.5" y="73.5" fill="none" stroke="#000000" stroke-width="0.25" width="100" height="150"/>
	<rect x="371.5" y="223.5" fill="none" stroke="#000000" stroke-width="0.25" width="100" height="150"/>
	<rect x="371.5" y="373.5" fill="none" stroke="#000000" stroke-width="0.25" width="100" height="150"/>
	<rect x="371.5" y="523.5" fill="none" stroke="#000000" stroke-width="0.25" width="100" height="150"/>
	<rect x="371.5" y="673.5" fill="none" stroke="#000000" stroke-width="0.25" width="100" height="150"/>
	<rect x="471.5" y="-226.5" fill="none" stroke="#000000" stroke-width="0.25" width="100" height="150"/>
	<rect x="471.5" y="-76.5" fill="none" stroke="#000000" stroke-width="0.25" width="100" height="150"/>
	<rect x="471.5" y="73.5" fill="none" stroke="#000000" stroke-width="0.25" width="100" height="150"/>
	<rect x="471.5" y="223.5" fill="none" stroke="#000000" stroke-width="0.25" width="100" height="150"/>
	<rect x="471.5" y="373.5" fill="none" stroke="#000000" stroke-width="0.25" width="100" height="150"/>
	<rect x="471.5" y="523.5" fill="none" stroke="#000000" stroke-width="0.25" width="100" height="150"/>
	<rect x="471.5" y="673.5" fill="none" stroke="#000000" stroke-width="0.25" width="100" height="150"/>
	<rect x="571.5" y="-226.5" fill="none" stroke="#000000" stroke-width="0.25" width="100" height="150"/>
	<rect x="571.5" y="-76.5" fill="none" stroke="#000000" stroke-width="0.25" width="100" height="150"/>
	<rect x="571.5" y="73.5" fill="none" stroke="#000000" stroke-width="0.25" width="100" height="150"/>
	<rect x="571.5" y="223.5" fill="none" stroke="#000000" stroke-width="0.25" width="100" height="150"/>
	<rect x="571.5" y="373.5" fill="none" stroke="#000000" stroke-width="0.25" width="100" height="150"/>
	<rect x="571.5" y="523.5" fill="none" stroke="#000000" stroke-width="0.25" width="100" height="150"/>
	<rect x="571.5" y="673.5" fill="none" stroke="#000000" stroke-width="0.25" width="100" height="150"/>
	<rect x="671.5" y="-226.5" fill="none" stroke="#000000" stroke-width="0.25" width="100" height="150"/>
	<rect x="671.5" y="-76.5" fill="none" stroke="#000000" stroke-width="0.25" width="100" height="150"/>
	<rect x="671.5" y="73.5" fill="none" stroke="#000000" stroke-width="0.25" width="100" height="150"/>
	<rect x="671.5" y="223.5" fill="none" stroke="#000000" stroke-width="0.25" width="100" height="150"/>
	<rect x="671.5" y="373.5" fill="none" stroke="#000000" stroke-width="0.25" width="100" height="150"/>
	<rect x="671.5" y="523.5" fill="none" stroke="#000000" stroke-width="0.25" width="100" height="150"/>
	<rect x="671.5" y="673.5" fill="none" stroke="#000000" stroke-width="0.25" width="100" height="150"/>
	<rect x="771.5" y="-226.5" fill="none" stroke="#000000" stroke-width="0.25" width="100" height="150"/>
	<rect x="771.5" y="-76.5" fill="none" stroke="#000000" stroke-width="0.25" width="100" height="150"/>
	<rect x="771.5" y="73.5" fill="none" stroke="#000000" stroke-width="0.25" width="100" height="150"/>
	<rect x="771.5" y="223.5" fill="none" stroke="#000000" stroke-width="0.25" width="100" height="150"/>
	<rect x="771.5" y="373.5" fill="none" stroke="#000000" stroke-width="0.25" width="100" height="150"/>
	<rect x="771.5" y="523.5" fill="none" stroke="#000000" stroke-width="0.25" width="100" height="150"/>
	<rect x="771.5" y="673.5" fill="none" stroke="#000000" stroke-width="0.25" width="100" height="150"/>
</g>
<g>
	<rect x="213" y="710.5" width="17" height="14"/>
	<rect x="214.1660156" y="560.6660156" width="14.6669922" height="13.3339844"/>
	<rect x="215.3330078" y="410.8330078" width="12.3334961" height="12.6669922"/>
	<rect x="216.5" y="261" width="10" height="12"/>
	<rect x="217.8330078" y="111.1660156" width="7.3330078" height="11.3334961"/>
	<rect x="219.1665039" y="-38.6669922" width="4.6665039" height="10.6669922"/>
	<rect x="220.5" y="-188.5" width="2" height="10"/>
</g>
<g>
	<rect x="413" y="748.5" width="17" height="14"/>
	<rect x="414.1665039" y="598.8330078" width="14.6665039" height="13.3330078"/>
	<rect x="415.3334961" y="449.1669922" width="12.3334961" height="12.6669922"/>
	<rect x="416.5" y="299.5" width="10" height="12"/>
	<rect x="417.8330078" y="149.8330078" width="7.3330078" height="11.3334961"/>
	<rect x="419.1669922" y="0.1669922" width="4.6669922" height="10.6660156"/>
	<rect x="420.5" y="-149.5" width="2" height="10"/>
</g>
<g>
	<g>
		<rect x="307.5" y="-110.5" width="2" height="8"/>
		<rect x="320.5" y="-104" width="2" height="8"/>
		<rect x="333.5" y="-97.5" width="2" height="8"/>
	</g>
	<g>
		<rect x="305.7495117" y="39" width="4.5004883" height="8.6665039"/>
		<rect x="319.25" y="45.8330078" width="4.4995117" height="8.6665039"/>
		<rect x="332.75" y="52.6660156" width="4.5" height="8.6669922"/>
	</g>
	<g>
		<rect x="304" y="188.5" width="7" height="9.3330078"/>
		<rect x="318" y="195.6669922" width="7" height="9.3330078"/>
		<rect x="332" y="202.8330078" width="7" height="9.3334961"/>
	</g>
	<g>
		<rect x="302.25" y="338" width="9.5" height="10"/>
		<rect x="316.75" y="345.5" width="9.5" height="10"/>
		<rect x="331.25" y="353" width="9.5" height="10"/>
	</g>
	<g>
		<rect x="300.3330078" y="487.5" width="11" height="10.6660156"/>
		<rect x="316.3330078" y="495.3330078" width="11" height="10.6669922"/>
		<rect x="332.3330078" y="503.1660156" width="11" height="10.6669922"/>
	</g>
	<g>
		<rect x="298.4169922" y="637" width="12.4995117" height="11.3330078"/>
		<rect x="315.9169922" y="645.1660156" width="12.5" height="11.3339844"/>
		<rect x="333.4165039" y="653.3339844" width="12.5004883" height="11.3330078"/>
	</g>
	<g>
		<rect x="296.5" y="786.5" width="14" height="12"/>
		<rect x="315.5" y="795" width="14" height="12"/>
		<rect x="334.5" y="803.5" width="14" height="12"/>
	</g>
</g>
<g>
	<rect x="610.5" y="-170.5" width="22" height="2"/>
	<rect x="610" y="-20.5" width="23" height="3.8330078"/>
	<rect x="609.5" y="129.5" width="24" height="5.6669922"/>
	<rect x="609" y="279.5" width="25" height="7.5"/>
	<rect x="607.5" y="429.5" width="28" height="9"/>
	<rect x="606" y="579.5" width="31" height="10.5"/>
	<rect x="604.5" y="729.5" width="34" height="12"/>
</g>
<g>
	<rect x="710.5" y="-180.5" width="22" height="2"/>
	<rect x="710" y="-31.8334961" width="23" height="3.8330078"/>
	<rect x="709.5" y="116.8330078" width="24" height="5.6669922"/>
	<rect x="709" y="265.5" width="25" height="7.5"/>
	<rect x="707.5" y="414.5" width="28" height="9"/>
	<rect x="706" y="563.5" width="31" height="10.5"/>
	<rect x="704.5" y="712.5" width="34" height="12"/>
</g>
<g>
	<polygon points="138.5,786.5 138.5,798.5 128.5,798.5 128.5,810.5 114.5,810.5 114.5,798.5 104.5,798.5 104.5,786.5 	"/>
	<polygon points="137,637 137,647.5 127.75,647.5 127.75,660 115.25,660 115.25,647.5 106,647.5 106,637 	"/>
	<polygon points="135.5,487.5 135.5,496.5 127,496.5 127,509.5 116,509.5 116,496.5 107.5,496.5 107.5,487.5 	"/>
	<polygon points="134,338 134,345.5 126.25,345.5 126.25,359 116.75,359 116.75,345.5 109,345.5 109,338 	"/>
	<polygon points="133.5,194.1665039 125,194.1665039 125,208.5 118,208.5 118,194.1665039 109.5,194.1665039 109.5,188.5 
		133.5,188.5 	"/>
	<polygon points="133,42.8334961 123.75,42.8334961 123.75,58 119.25,58 119.25,42.8334961 110,42.8334961 110,39 133,39 	"/>
	<polygon points="132.5,-110.5 132.5,-108.5 122.5,-108.5 122.5,-92.5 120.5,-92.5 120.5,-108.5 110.5,-108.5 110.5,-110.5 	"/>
</g>
<g>
	<rect x="513.5" y="786.5" width="16" height="24"/>
	<rect x="514.4160156" y="637" width="14.1669922" height="23"/>
	<rect x="515.3339844" y="487.5" width="12.3330078" height="22"/>
	<rect x="516.25" y="338" width="10.5" height="21"/>
	<rect x="517.6660156" y="188.5" width="7.6669922" height="20"/>
	<rect x="519.0830078" y="39" width="4.8339844" height="19"/>
	<rect x="520.5" y="-110.5" width="2" height="18"/>
</g>
</svg>
