<?xml version="1.0" encoding="utf-8"?>
<!-- Generator: Adobe Illustrator 15.0.2, SVG Export Plug-In . SVG Version: 6.00 Build 0)  -->
<!DOCTYPE svg PUBLIC "-//W3C//DTD SVG 1.1//EN" "http://www.w3.org/Graphics/SVG/1.1/DTD/svg11.dtd">
<svg version="1.1" id="レイヤー1" xmlns="http://www.w3.org/2000/svg" xmlns:xlink="http://www.w3.org/1999/xlink" x="0px"
	 y="0px" width="841.8896484px" height="595.2753906px" viewBox="0 0 841.8896484 595.2753906"
	 enable-background="new 0 0 841.8896484 595.2753906" xml:space="preserve">
<g>
	<rect x="71.5" y="-226.5" fill="none" stroke="#000000" stroke-width="0.25" width="100" height="150"/>
	<rect x="71.5" y="-76.5" fill="none" stroke="#000000" stroke-width="0.25" width="100" height="150"/>
	<rect x="71.5" y="73.5" fill="none" stroke="#000000" stroke-width="0.25" width="100" height="150"/>
	<rect x="71.5" y="223.5" fill="none" stroke="#000000" stroke-width="0.25" width="100" height="150"/>
	<rect x="71.5" y="373.5" fill="none" stroke="#000000" stroke-width="0.25" width="100" height="150"/>
	<rect x="71.5" y="523.5" fill="none" stroke="#000000" stroke-width="0.25" width="100" height="150"/>
	<rect x="71.5" y="673.5" fill="none" stroke="#000000" stroke-width="0.25" width="100" height="150"/>
	<rect x="171.5" y="-226.5" fill="none" stroke="#000000" stroke-width="0.25" width="100" height="150"/>
	<rect x="171.5" y="-76.5" fill="none" stroke="#000000" stroke-width="0.25" width="100" height="150"/>
	<rect x="171.5" y="73.5" fill="none" stroke="#000000" stroke-width="0.25" width="100" height="150"/>
	<rect x="171.5" y="223.5" fill="none" stroke="#000000" stroke-width="0.25" width="100" height="150"/>
	<rect x="171.5" y="373.5" fill="none" stroke="#000000" stroke-width="0.25" width="100" height="150"/>
	<rect x="171.5" y="523.5" fill="none" stroke="#000000" stroke-width="0.25" width="100" height="150"/>
	<rect x="171.5" y="673.5" fill="none" stroke="#000000" stroke-width="0.25" width="100" height="150"/>
	<rect x="271.5" y="-226.5" fill="none" stroke="#000000" stroke-width="0.25" width="100" height="150"/>
	<rect x="271.5" y="-76.5" fill="none" stroke="#000000" stroke-width="0.25" width="100" height="150"/>
	<rect x="271.5" y="73.5" fill="none" stroke="#000000" stroke-width="0.25" width="100" height="150"/>
	<rect x="271.5" y="223.5" fill="none" stroke="#000000" stroke-width="0.25" width="100" height="150"/>
	<rect x="271.5" y="373.5" fill="none" stroke="#000000" stroke-width="0.25" width="100" height="150"/>
	<rect x="271.5" y="523.5" fill="none" stroke="#000000" stroke-width="0.25" width="100" height="150"/>
	<rect x="271.5" y="673.5" fill="none" stroke="#000000" stroke-width="0.25" width="100" height="150"/>
	<rect x="371.5" y="-226.5" fill="none" stroke="#000000" stroke-width="0.25" width="100" height="150"/>
	<rect x="371.5" y="-76.5" fill="none" stroke="#000000" stroke-width="0.25" width="100" height="150"/>
	<rect x="371.5" y="73.5" fill="none" stroke="#000000" stroke-width="0.25" width="100" height="150"/>
	<rect x="371.5" y="223.5" fill="none" stroke="#000000" stroke-width="0.25" width="100" height="150"/>
	<rect x="371.5" y="373.5" fill="none" stroke="#000000" stroke-width="0.25" width="100" height="150"/>
	<rect x="371.5" y="523.5" fill="none" stroke="#000000" stroke-width="0.25" width="100" height="150"/>
	<rect x="371.5" y="673.5" fill="none" stroke="#000000" stroke-width="0.25" width="100" height="150"/>
	<rect x="471.5" y="-226.5" fill="none" stroke="#000000" stroke-width="0.25" width="100" height="150"/>
	<rect x="471.5" y="-76.5" fill="none" stroke="#000000" stroke-width="0.25" width="100" height="150"/>
	<rect x="471.5" y="73.5" fill="none" stroke="#000000" stroke-width="0.25" width="100" height="150"/>
	<rect x="471.5" y="223.5" fill="none" stroke="#000000" stroke-width="0.25" width="100" height="150"/>
	<rect x="471.5" y="373.5" fill="none" stroke="#000000" stroke-width="0.25" width="100" height="150"/>
	<rect x="471.5" y="523.5" fill="none" stroke="#000000" stroke-width="0.25" width="100" height="150"/>
	<rect x="471.5" y="673.5" fill="none" stroke="#000000" stroke-width="0.25" width="100" height="150"/>
	<rect x="571.5" y="-226.5" fill="none" stroke="#000000" stroke-width="0.25" width="100" height="150"/>
	<rect x="571.5" y="-76.5" fill="none" stroke="#000000" stroke-width="0.25" width="100" height="150"/>
	<rect x="571.5" y="73.5" fill="none" stroke="#000000" stroke-width="0.25" width="100" height="150"/>
	<rect x="571.5" y="223.5" fill="none" stroke="#000000" stroke-width="0.25" width="100" height="150"/>
	<rect x="571.5" y="373.5" fill="none" stroke="#000000" stroke-width="0.25" width="100" height="150"/>
	<rect x="571.5" y="523.5" fill="none" stroke="#000000" stroke-width="0.25" width="100" height="150"/>
	<rect x="571.5" y="673.5" fill="none" stroke="#000000" stroke-width="0.25" width="100" height="150"/>
	<rect x="671.5" y="-226.5" fill="none" stroke="#000000" stroke-width="0.25" width="100" height="150"/>
	<rect x="671.5" y="-76.5" fill="none" stroke="#000000" stroke-width="0.25" width="100" height="150"/>
	<rect x="671.5" y="73.5" fill="none" stroke="#000000" stroke-width="0.25" width="100" height="150"/>
	<rect x="671.5" y="223.5" fill="none" stroke="#000000" stroke-width="0.25" width="100" height="150"/>
	<rect x="671.5" y="373.5" fill="none" stroke="#000000" stroke-width="0.25" width="100" height="150"/>
	<rect x="671.5" y="523.5" fill="none" stroke="#000000" stroke-width="0.25" width="100" height="150"/>
	<rect x="671.5" y="673.5" fill="none" stroke="#000000" stroke-width="0.25" width="100" height="150"/>
	<rect x="771.5" y="-226.5" fill="none" stroke="#000000" stroke-width="0.25" width="100" height="150"/>
	<rect x="771.5" y="-76.5" fill="none" stroke="#000000" stroke-width="0.25" width="100" height="150"/>
	<rect x="771.5" y="73.5" fill="none" stroke="#000000" stroke-width="0.25" width="100" height="150"/>
	<rect x="771.5" y="223.5" fill="none" stroke="#000000" stroke-width="0.25" width="100" height="150"/>
	<rect x="771.5" y="373.5" fill="none" stroke="#000000" stroke-width="0.25" width="100" height="150"/>
	<rect x="771.5" y="523.5" fill="none" stroke="#000000" stroke-width="0.25" width="100" height="150"/>
	<rect x="771.5" y="673.5" fill="none" stroke="#000000" stroke-width="0.25" width="100" height="150"/>
</g>
<g>
	<g>
		<rect x="413" y="729.5" width="17" height="15"/>
		<rect x="413" y="766.5" width="17" height="15"/>
	</g>
	<g>
		<rect x="414.1665039" y="579.5" width="14.6665039" height="13.9160156"/>
		<rect x="414.1665039" y="617.5830078" width="14.6665039" height="13.9169922"/>
	</g>
	<g>
		<rect x="415.3334961" y="429.5" width="12.3334961" height="12.8339844"/>
		<rect x="415.3334961" y="468.6669922" width="12.3334961" height="12.8330078"/>
	</g>
	<g>
		<rect x="416.5" y="279.5" width="10" height="11.75"/>
		<rect x="416.5" y="319.75" width="10" height="11.75"/>
	</g>
	<g>
		<rect x="417.8330078" y="129.5" width="7.3330078" height="11.1665039"/>
		<rect x="417.8330078" y="170.3330078" width="7.3330078" height="11.1665039"/>
	</g>
	<g>
		<rect x="419.1669922" y="-20.5" width="4.6669922" height="10.5830078"/>
		<rect x="419.1669922" y="20.9169922" width="4.6669922" height="10.5830078"/>
	</g>
	<g>
		<rect x="420.5" y="-170.5" width="2" height="10"/>
		<rect x="420.5" y="-128.5" width="2" height="10"/>
	</g>
</g>
<g>
	<rect x="113.5" y="729.5" width="16" height="52"/>
	<rect x="114.4165039" y="579.5" width="14.1665039" height="52"/>
	<rect x="115.3330078" y="429.5" width="12.3334961" height="52"/>
	<rect x="116.25" y="279.5" width="10.5" height="52"/>
	<rect x="117.6660156" y="129.5" width="7.6669922" height="51.9995117"/>
	<rect x="119.0830078" y="-20.5" width="4.8339844" height="52"/>
	<rect x="120.5" y="-170.5" width="2" height="52"/>
</g>
<g>
	<rect x="213" y="703.5" width="17" height="14"/>
	<rect x="214.1660156" y="553.3330078" width="14.6669922" height="13.3330078"/>
	<rect x="215.3330078" y="403.1669922" width="12.3334961" height="12.6669922"/>
	<rect x="216.5" y="253" width="10" height="12"/>
	<rect x="217.8330078" y="102.8330078" width="7.3330078" height="11.3334961"/>
	<rect x="219.1665039" y="-47.3330078" width="4.6665039" height="10.6660156"/>
	<rect x="220.5" y="-197.5" width="2" height="10"/>
</g>
<g>
	<rect x="313" y="703.5" width="17" height="14"/>
	<rect x="314.1665039" y="553.3330078" width="14.6665039" height="13.3330078"/>
	<rect x="315.3330078" y="403.1669922" width="12.3339844" height="12.6669922"/>
	<rect x="316.5" y="253" width="10" height="12"/>
	<rect x="317.8330078" y="102.8330078" width="7.3334961" height="11.3334961"/>
	<rect x="319.1669922" y="-47.3330078" width="4.6660156" height="10.6660156"/>
	<rect x="320.5" y="-197.5" width="2" height="10"/>
</g>
<g>
	<rect x="513" y="703.5" width="17" height="14"/>
	<rect x="514.1660156" y="553.3330078" width="14.6669922" height="13.3330078"/>
	<rect x="515.3330078" y="403.1669922" width="12.3330078" height="12.6669922"/>
	<rect x="516.5" y="253" width="10" height="12"/>
	<rect x="517.8330078" y="102.8330078" width="7.3330078" height="11.3334961"/>
	<rect x="519.1660156" y="-47.3330078" width="4.6669922" height="10.6660156"/>
	<rect x="520.5" y="-197.5" width="2" height="10"/>
</g>
</svg>
