<?xml version="1.0" encoding="utf-8"?>
<!-- Generator: Adobe Illustrator 15.0.2, SVG Export Plug-In . SVG Version: 6.00 Build 0)  -->
<!DOCTYPE svg PUBLIC "-//W3C//DTD SVG 1.1//EN" "http://www.w3.org/Graphics/SVG/1.1/DTD/svg11.dtd">
<svg version="1.1" id="レイヤー1" xmlns="http://www.w3.org/2000/svg" xmlns:xlink="http://www.w3.org/1999/xlink" x="0px"
	 y="0px" width="841.8896484px" height="595.2753906px" viewBox="0 0 841.8896484 595.2753906"
	 enable-background="new 0 0 841.8896484 595.2753906" xml:space="preserve">
<g>
	<rect x="71.5" y="-226.5" fill="none" stroke="#000000" stroke-width="0.25" width="100" height="150"/>
	<rect x="71.5" y="-76.5" fill="none" stroke="#000000" stroke-width="0.25" width="100" height="150"/>
	<rect x="71.5" y="73.5" fill="none" stroke="#000000" stroke-width="0.25" width="100" height="150"/>
	<rect x="71.5" y="223.5" fill="none" stroke="#000000" stroke-width="0.25" width="100" height="150"/>
	<rect x="71.5" y="373.5" fill="none" stroke="#000000" stroke-width="0.25" width="100" height="150"/>
	<rect x="71.5" y="523.5" fill="none" stroke="#000000" stroke-width="0.25" width="100" height="150"/>
	<rect x="71.5" y="673.5" fill="none" stroke="#000000" stroke-width="0.25" width="100" height="150"/>
	<rect x="171.5" y="-226.5" fill="none" stroke="#000000" stroke-width="0.25" width="100" height="150"/>
	<rect x="171.5" y="-76.5" fill="none" stroke="#000000" stroke-width="0.25" width="100" height="150"/>
	<rect x="171.5" y="73.5" fill="none" stroke="#000000" stroke-width="0.25" width="100" height="150"/>
	<rect x="171.5" y="223.5" fill="none" stroke="#000000" stroke-width="0.25" width="100" height="150"/>
	<rect x="171.5" y="373.5" fill="none" stroke="#000000" stroke-width="0.25" width="100" height="150"/>
	<rect x="171.5" y="523.5" fill="none" stroke="#000000" stroke-width="0.25" width="100" height="150"/>
	<rect x="171.5" y="673.5" fill="none" stroke="#000000" stroke-width="0.25" width="100" height="150"/>
	<rect x="271.5" y="-226.5" fill="none" stroke="#000000" stroke-width="0.25" width="100" height="150"/>
	<rect x="271.5" y="-76.5" fill="none" stroke="#000000" stroke-width="0.25" width="100" height="150"/>
	<rect x="271.5" y="73.5" fill="none" stroke="#000000" stroke-width="0.25" width="100" height="150"/>
	<rect x="271.5" y="223.5" fill="none" stroke="#000000" stroke-width="0.25" width="100" height="150"/>
	<rect x="271.5" y="373.5" fill="none" stroke="#000000" stroke-width="0.25" width="100" height="150"/>
	<rect x="271.5" y="523.5" fill="none" stroke="#000000" stroke-width="0.25" width="100" height="150"/>
	<rect x="271.5" y="673.5" fill="none" stroke="#000000" stroke-width="0.25" width="100" height="150"/>
	<rect x="371.5" y="-226.5" fill="none" stroke="#000000" stroke-width="0.25" width="100" height="150"/>
	<rect x="371.5" y="-76.5" fill="none" stroke="#000000" stroke-width="0.25" width="100" height="150"/>
	<rect x="371.5" y="73.5" fill="none" stroke="#000000" stroke-width="0.25" width="100" height="150"/>
	<rect x="371.5" y="223.5" fill="none" stroke="#000000" stroke-width="0.25" width="100" height="150"/>
	<rect x="371.5" y="373.5" fill="none" stroke="#000000" stroke-width="0.25" width="100" height="150"/>
	<rect x="371.5" y="523.5" fill="none" stroke="#000000" stroke-width="0.25" width="100" height="150"/>
	<rect x="371.5" y="673.5" fill="none" stroke="#000000" stroke-width="0.25" width="100" height="150"/>
	<rect x="471.5" y="-226.5" fill="none" stroke="#000000" stroke-width="0.25" width="100" height="150"/>
	<rect x="471.5" y="-76.5" fill="none" stroke="#000000" stroke-width="0.25" width="100" height="150"/>
	<rect x="471.5" y="73.5" fill="none" stroke="#000000" stroke-width="0.25" width="100" height="150"/>
	<rect x="471.5" y="223.5" fill="none" stroke="#000000" stroke-width="0.25" width="100" height="150"/>
	<rect x="471.5" y="373.5" fill="none" stroke="#000000" stroke-width="0.25" width="100" height="150"/>
	<rect x="471.5" y="523.5" fill="none" stroke="#000000" stroke-width="0.25" width="100" height="150"/>
	<rect x="471.5" y="673.5" fill="none" stroke="#000000" stroke-width="0.25" width="100" height="150"/>
	<rect x="571.5" y="-226.5" fill="none" stroke="#000000" stroke-width="0.25" width="100" height="150"/>
	<rect x="571.5" y="-76.5" fill="none" stroke="#000000" stroke-width="0.25" width="100" height="150"/>
	<rect x="571.5" y="73.5" fill="none" stroke="#000000" stroke-width="0.25" width="100" height="150"/>
	<rect x="571.5" y="223.5" fill="none" stroke="#000000" stroke-width="0.25" width="100" height="150"/>
	<rect x="571.5" y="373.5" fill="none" stroke="#000000" stroke-width="0.25" width="100" height="150"/>
	<rect x="571.5" y="523.5" fill="none" stroke="#000000" stroke-width="0.25" width="100" height="150"/>
	<rect x="571.5" y="673.5" fill="none" stroke="#000000" stroke-width="0.25" width="100" height="150"/>
	<rect x="671.5" y="-226.5" fill="none" stroke="#000000" stroke-width="0.25" width="100" height="150"/>
	<rect x="671.5" y="-76.5" fill="none" stroke="#000000" stroke-width="0.25" width="100" height="150"/>
	<rect x="671.5" y="73.5" fill="none" stroke="#000000" stroke-width="0.25" width="100" height="150"/>
	<rect x="671.5" y="223.5" fill="none" stroke="#000000" stroke-width="0.25" width="100" height="150"/>
	<rect x="671.5" y="373.5" fill="none" stroke="#000000" stroke-width="0.25" width="100" height="150"/>
	<rect x="671.5" y="523.5" fill="none" stroke="#000000" stroke-width="0.25" width="100" height="150"/>
	<rect x="671.5" y="673.5" fill="none" stroke="#000000" stroke-width="0.25" width="100" height="150"/>
	<rect x="771.5" y="-226.5" fill="none" stroke="#000000" stroke-width="0.25" width="100" height="150"/>
	<rect x="771.5" y="-76.5" fill="none" stroke="#000000" stroke-width="0.25" width="100" height="150"/>
	<rect x="771.5" y="73.5" fill="none" stroke="#000000" stroke-width="0.25" width="100" height="150"/>
	<rect x="771.5" y="223.5" fill="none" stroke="#000000" stroke-width="0.25" width="100" height="150"/>
	<rect x="771.5" y="373.5" fill="none" stroke="#000000" stroke-width="0.25" width="100" height="150"/>
	<rect x="771.5" y="523.5" fill="none" stroke="#000000" stroke-width="0.25" width="100" height="150"/>
	<rect x="771.5" y="673.5" fill="none" stroke="#000000" stroke-width="0.25" width="100" height="150"/>
</g>
<g>
	<g>
		<polygon points="142.5,-118.5 140,-118.5 100.5,-170.5 103,-170.5 		"/>
		<path d="M126.4121094-137.7207031c3.3920898-2.3691406,5.6054688-6.515625,8.7709961-16.4316406L140.4003906-170.5H142.5
			l-5.4116211,16.9560547c-3.3188477,10.3964844-5.7236328,14.8037109-9.53125,17.4628906L126.4121094-137.7207031z"/>
		<path d="M116.5878906-151.2792969c-3.3920898,2.3691406-5.6054688,6.515625-8.7709961,16.4316406L102.5996094-118.5H100.5
			l5.4116211-16.9560547c3.3188477-10.3964844,5.7236328-14.8037109,9.53125-17.4628906L116.5878906-151.2792969z"/>
	</g>
	<g>
		<polygon points="143.5830078,31.4995117 138.3330078,31.4995117 99.4160156,-20.5 104.6665039,-20.5 		"/>
		<path d="M126.2646484,10.496582c3.1635742-2.0268555,5.1674805-5.6933594,7.9829102-14.9995117L139-20.5h4.5830078
			l-4.9814453,16.6230469c-3.0722656,10.2832031-5.6992188,14.9389648-9.8974609,17.8764648L126.2646484,10.496582z"/>
		<path d="M116.7348633,0.5029297c-3.1640625,2.0263672-5.1679688,5.6933594-7.9833984,14.9990234l-4.7519531,15.9975586h-4.5834961
			l4.9819336-16.6225586C107.4697266,4.5927734,110.0976562-0.0625,114.2949219-3L116.7348633,0.5029297z"/>
	</g>
	<g>
		<polygon points="144.6669922,181.5 136.6665039,181.5 98.3330078,129.5 106.3330078,129.5 		"/>
		<path d="M126.1176758,158.7138672c2.9350586-1.684082,4.7299805-4.8710938,7.1948242-13.5668945L137.6005859,129.5h7.0664062
			l-4.5517578,16.2900391c-2.8251953,10.1708984-5.675293,15.0742188-10.2636719,18.2910156L126.1176758,158.7138672z"/>
		<path d="M116.8818359,152.2861328c-2.9355469,1.6835938-4.7294922,4.8710938-7.1953125,13.5664062L105.3999023,181.5h-7.0668945
			l4.5517578-16.2900391c2.8251953-10.1713867,5.6757812-15.0742188,10.2636719-18.2910156L116.8818359,152.2861328z"/>
	</g>
	<g>
		<polygon points="145.75,331.5 135,331.5 97.25,279.5 108,279.5 		"/>
		<path d="M125.9707031,306.9316406c2.7070312-1.3417969,4.2919922-4.0488281,6.4072266-12.1347656L136.2001953,279.5H145.75
			l-4.1210938,15.9570312c-2.5791016,10.0585938-5.6513672,15.2099609-10.6298828,18.7050781L125.9707031,306.9316406z"/>
		<path d="M117.0292969,304.0683594c-2.7070312,1.3417969-4.2919922,4.0488281-6.4072266,12.1347656L106.7998047,331.5H97.25
			l4.1210938-15.9570312c2.5791016-10.0585938,5.6513672-15.2099609,10.6298828-18.7050781L117.0292969,304.0683594z"/>
	</g>
	<g>
		<polygon points="146.8330078,481.5 132.9995117,481.5 96.1665039,429.5 109.9995117,429.5 		"/>
		<path d="M125.4897461,455.1484375c2.4790039-1,3.8544922-3.2265625,5.6196289-10.7021484L134.4667969,429.5h12.3662109
			l-3.690918,15.6240234c-2.3325195,9.9462891-5.6269531,15.3447266-10.9956055,19.1181641L125.4897461,455.1484375z"/>
		<path d="M117.5092773,455.8515625c-2.4785156,0.9990234-3.8540039,3.2265625-5.6196289,10.7011719L108.5332031,481.5H96.1665039
			l3.690918-15.625c2.3325195-9.9453125,5.6269531-15.3447266,10.9960938-19.1181641L117.5092773,455.8515625z"/>
	</g>
	<g>
		<polygon points="147.9169922,631.5 131,631.5 95.0834961,579.5 112,579.5 		"/>
		<path d="M125.0097656,603.3662109c2.25-0.6572266,3.4169922-2.4042969,4.8320312-9.2695312L132.7333984,579.5h15.1835938
			l-3.2612305,15.2919922c-2.0864258,9.8330078-5.6025391,15.4794922-11.3618164,19.53125L125.0097656,603.3662109z"/>
		<path d="M117.9902344,607.6347656c-2.25,0.65625-3.4169922,2.4042969-4.8320312,9.2675781L110.2666016,631.5H95.0834961
			l3.2602539-15.2919922c2.0864258-9.8330078,5.6035156-15.4794922,11.3623047-19.5322266L117.9902344,607.6347656z"/>
	</g>
	<g>
		<polygon points="114,729.5 149,781.5 129,781.5 94,729.5 		"/>
		<path d="M146.1694336,744.4589844c-1.8398438,9.7207031-5.5786133,15.6152344-11.7280273,19.9453125l-9.9121094-12.8212891
			c2.0219727-0.3144531,2.9790039-1.5820312,4.0439453-7.8359375L131,729.5h18L146.1694336,744.4589844z"/>
		<path d="M96.8305664,766.5410156c1.8398438-9.7207031,5.5786133-15.6152344,11.7280273-19.9453125l9.9121094,12.8212891
			c-2.0219727,0.3144531-2.9790039,1.5820312-4.0439453,7.8359375L112,781.5H94L96.8305664,766.5410156z"/>
	</g>
</g>
<g>
	<path d="M231.5-160.5c0-6.0556641-1.9438477-8-8-8H204v-2h19.5c7.1655273,0,10,2.875,10,10v40h8.5v2h-41v-2h30.5V-160.5z"/>
	<path fill="#1D1411" d="M229.9165039-9.0839844c0-5.640625-1.8862305-7.4160156-7.5004883-7.4160156h-19.1665039v-4h20.25
		c7.7231445,0,11.0834961,3.3530273,11.0834961,11.0830078V27.5h8.25v3.9995117h-42.6669922V27.5h29.7504883V-9.0839844z"/>
	<path fill="#17100E" d="M228.3334961,142.3330078c0-5.2255859-1.828125-6.8330078-7.0004883-6.8330078H202.5v-6h21
		c8.2802734,0,12.1669922,3.8320312,12.1669922,12.1669922V175.5h7.9995117v6h-44.3334961v-6h29.0004883V142.3330078z"/>
	<path fill="#110C0A" d="M226.75,293.75c0-4.8115234-1.7700195-6.25-6.5-6.25h-18.5v-8h21.75
		c8.8378906,0,13.25,4.3105469,13.25,13.25v30.75h7.75v8h-46v-8h28.25V293.75z"/>
	<path fill="#0B0807" d="M224.8330078,444.8330078c0-4.3964844-1.5454102-5.6669922-5.8330078-5.6669922h-18.0004883V429.5h22.5
		c9.3955078,0,14.3334961,4.7890625,14.3334961,14.3330078v28h7.5V481.5h-47.6665039v-9.6669922h27.1665039V444.8330078z"/>
	<path fill="#060403" d="M222.9169922,595.9160156c0-3.9814453-1.3212891-5.0830078-5.1669922-5.0830078h-17.5V579.5h23.25
		c9.9526367,0,15.4165039,5.2675781,15.4165039,15.4169922v25.25h7.2504883V631.5h-49.3334961v-11.3330078h26.0834961V595.9160156z"
		/>
	<path d="M221,747c0-3.5673828-1.0961914-4.5-4.5-4.5h-17v-13h24c10.5102539,0,16.5,5.7460938,16.5,16.5v22.5h7v13h-51v-13h25V747z"
		/>
</g>
<g>
	<polygon points="433.5,-118.5 433.5,-168.5 442,-168.5 442,-170.5 401,-170.5 401,-168.5 431.5,-168.5 431.5,-118.5 	"/>
	<polygon fill="#1D1411" points="434.5830078,31.4995117 434.5830078,-16.5 442.8330078,-16.5 442.8330078,-20.5 400.1665039,-20.5 
		400.1665039,-16.5 429.7167969,-16.5 429.7167969,31.4995117 	"/>
	<polygon fill="#17100E" points="435.6669922,181.5 435.6669922,135.5 443.6669922,135.5 443.6669922,129.5 399.3334961,129.5 
		399.3334961,135.5 427.9335938,135.5 427.9335938,181.5 	"/>
	<polygon fill="#110C0A" points="436.75,331.5 436.75,287.5 444.5,287.5 444.5,279.5 398.5,279.5 398.5,287.5 426.1503906,287.5 
		426.1503906,331.5 	"/>
	<polygon fill="#0B0807" points="437.8330078,481.5 437.8330078,439.1660156 445.3330078,439.1660156 445.3330078,429.5 
		397.6665039,429.5 397.6665039,439.1660156 424.0996094,439.1660156 424.0996094,481.5 	"/>
	<polygon fill="#060403" points="438.9169922,631.5 438.9169922,590.8330078 446.1660156,590.8330078 446.1660156,579.5 
		396.8330078,579.5 396.8330078,590.8330078 422.0498047,590.8330078 422.0498047,631.5 	"/>
	<polygon points="440,781.5 440,742.5 447,742.5 447,729.5 396,729.5 396,742.5 420,742.5 420,781.5 	"/>
</g>
<g>
	<g>
		<path d="M319.5,747c0-3.5673828-1.0961914-4.5-4.5-4.5h-13.5v-13h19c11.6069336,0,17.5,5.5517578,17.5,15.5v4
			c0,10.3603516,2.7138672,19.4521484,10,32.5h-19.5c-6.6660156-12.9228516-9-21.390625-9-30.5V747z"/>
		<g>
			<polygon points="324,744.5 295,781.5 314.5,781.5 337,750.5 			"/>
		</g>
	</g>
	<g>
		<path fill="#060403" d="M321.2495117,596.0830078c0-4.0380859-1.3959961-5.25-5.4165039-5.25h-13.4169922V579.5H320.25
			c11.0751953,0,16.5830078,5.2275391,16.5830078,14.75v4.5830078c0,10.4042969,2.7290039,19.5263672,10.0830078,32.6669922
			h-16.4638672c-6.7763672-12.9628906-9.2026367-21.5996094-9.2026367-31V596.0830078z"/>
		<polygon points="324.9995117,596.3330078 296.0830078,631.5 312.828125,631.5 336.0576172,601.5791016 		"/>
	</g>
	<g>
		<path fill="#0B0807" d="M323,445.1669922c0-4.5097656-1.6962891-6-6.3330078-6h-13.3339844V429.5H320
			c10.5439453,0,15.6665039,4.9042969,15.6665039,14v5.1660156c0,10.4492188,2.7446289,19.6015625,10.1665039,32.8339844
			h-13.4287109C325.5175781,468.4970703,323,459.6933594,323,450V445.1669922z"/>
		<polygon points="326,448.1660156 297.1669922,481.5 311.15625,481.5 335.1162109,452.6582031 		"/>
	</g>
	<g>
		<path fill="#110C0A" d="M334.5,298.5c0,10.4921875,2.7592773,19.6748047,10.25,33h-10.3930664
			C327.359375,318.4570312,324.75,309.484375,324.75,299.5v-5.25c0-4.9804688-1.996582-6.75-7.25-6.75h-13.25v-8h15.5
			c10.0126953,0,14.75,4.5800781,14.75,13.25V298.5z"/>
		<polygon points="327,300 298.25,331.5 309.4838867,331.5 334.1738281,303.7382812 		"/>
	</g>
	<g>
		<path fill="#17100E" d="M333.3330078,148.3330078c0,10.5366211,2.7744141,19.7490234,10.3334961,33.1665039h-7.690918
			c-7.1083984-13.0830078-9.8095703-22.2241211-9.8095703-32.4995117v-6c0-5.4511719-2.2963867-7.5-8.1660156-7.5h-12.8334961v-6
			H319.5c9.480957,0,13.8330078,4.2558594,13.8330078,12.5V148.3330078z"/>
		<polygon points="327.9995117,151.8330078 299.3330078,181.4995117 307.8115234,181.4995117 333.2314453,154.8173828 		"/>
	</g>
	<g>
		<path fill="#1D1411" d="M332.1669922-1.8330078c0,10.5800781,2.7890625,19.8227539,10.4165039,33.3330078h-4.9887695
			c-7.21875-13.1230469-10.0117188-22.4326172-10.0117188-33v-6.75c0-5.921875-2.5966797-8.25-9.0830078-8.25h-12.4165039v-4H319.25
			c8.9501953,0,12.9169922,3.9326172,12.9169922,11.75V-1.8330078z"/>
		<polygon points="329,3.6669922 300.4165039,31.5 306.1396484,31.5 332.2900391,5.8974609 		"/>
	</g>
	<g>
		<path d="M331-152v-7.5c0-7.390625-3.581543-11-12-11h-12v2h12c7.1030273,0,10,2.6074219,10,9v7.5
			c0,10.8583984,2.8842773,20.3369141,10.2138672,33.5H341.5C333.8046875-132.1025391,331-141.375,331-152z"/>
		<polygon points="330,-144.5 301.5,-118.5 304.4677734,-118.5 331.3481445,-143.0224609 		"/>
	</g>
</g>
<g>
	<path d="M840.5-159.5c0-7.390625-3.5820312-11-12-11H795v2h8.5v50h2v-50h23c7.1035156,0,10,2.6074219,10,9v41h2V-159.5z"/>
	<path fill="#1D1411" d="M837.3164062-8.25c0-5.921875-2.5966797-8.25-9.0830078-8.25H807.25v47.9995117h-4.6669922V-16.5h-8.25v-4
		H829c8.9492188,0,12.9160156,3.9326172,12.9160156,11.75v40.2495117h-4.5996094V-8.25z"/>
	<path fill="#17100E" d="M836.1337891,143c0-5.4511719-2.296875-7.5-8.1669922-7.5H809v46h-7.3330078v-46h-8v-6H829.5
		c9.4814453,0,13.8339844,4.2563477,13.8339844,12.5v39.5h-7.2001953V143z"/>
	<path fill="#110C0A" d="M834.9501953,294.25c0-4.9804688-1.9970703-6.75-7.25-6.75H810.75v44h-10v-44H793v-8h37
		c10.0126953,0,14.75,4.5800781,14.75,13.25v38.75h-9.7998047V294.25z"/>
	<path fill="#0B0807" d="M833.3671875,445.1660156c0-4.5087891-1.6972656-6-6.3339844-6h-14.2001953V481.5h-13v-42.3339844h-7.5
		V429.5H830.5c10.5439453,0,15.6660156,4.9033203,15.6660156,14v38h-12.7988281V445.1660156z"/>
	<path fill="#060403" d="M831.7832031,596.0830078c0-4.0380859-1.3964844-5.25-5.4160156-5.25h-11.4501953V631.5h-16.0009766
		v-40.6669922h-7.2490234V579.5H831c11.0761719,0,16.5830078,5.2275391,16.5830078,14.75v37.25h-15.7998047V596.0830078z"/>
	<path d="M830.2001953,747c0-3.5673828-1.0966797-4.5-4.5-4.5H817v39h-19v-39h-7v-13h40.5c11.6074219,0,17.5,5.5517578,17.5,15.5
		v36.5h-18.7998047V747z"/>
</g>
<g>
	<path d="M528.5-168.5c7.1035156,0,10,2.6074219,10,9v41h2v-41c0-7.390625-3.5820312-11-12-11H495v2H528.5z"/>
	<polygon points="503.5,-157 503.5,-120.5 503.5,-118.5 505.5,-118.5 505.5,-120.5 505.5,-157 	"/>
</g>
<g>
	<path fill="#1D1411" d="M494.3330078-16.5v-4H529c8.9492188,0,12.9160156,3.9326172,12.9160156,11.75v40.2495117h-4.5996094V-8.25
		c0-5.921875-2.5966797-8.25-9.0830078-8.25H494.3330078z"/>
	<polygon fill="#1D1411" points="507.25,-5.25 507.25,26.8330078 507.25,31.4995117 502.5830078,31.4995117 502.5830078,26.8330078 
		502.5830078,-5.25 	"/>
</g>
<g>
	<path fill="#17100E" d="M493.6669922,135.5v-6H529.5c9.4814453,0,13.8339844,4.2563477,13.8339844,12.5v39.5h-7.2001953V143
		c0-5.4511719-2.296875-7.5-8.1669922-7.5H493.6669922z"/>
	<polygon fill="#17100E" points="509,146.5 509,174.1669922 509,181.5 501.6669922,181.5 501.6669922,174.1669922 
		501.6669922,146.5 	"/>
</g>
<g>
	<path fill="#110C0A" d="M493,287.5v-8h37c10.0126953,0,14.75,4.5800781,14.75,13.25v38.75h-9.7998047v-37.25
		c0-4.9804688-1.9970703-6.75-7.25-6.75H493z"/>
	<polygon fill="#110C0A" points="510.75,298.25 510.75,321.5 510.75,331.5 500.75,331.5 500.75,321.5 500.75,298.25 	"/>
</g>
<g>
	<path fill="#0B0807" d="M492.3330078,439.1660156V429.5H530.5c10.5439453,0,15.6660156,4.9033203,15.6660156,14v38h-12.7988281
		v-36.3339844c0-4.5087891-1.6972656-6-6.3339844-6H492.3330078z"/>
	<polygon fill="#0B0807" points="512.8330078,449.6660156 512.8330078,468.5 512.8330078,481.5 499.8330078,481.5 
		499.8330078,468.5 499.8330078,449.6660156 	"/>
</g>
<g>
	<path fill="#060403" d="M491.6669922,590.8330078V579.5H531c11.0761719,0,16.5830078,5.2275391,16.5830078,14.75v37.25h-15.7998047
		v-35.4169922c0-4.0380859-1.3964844-5.25-5.4160156-5.25H491.6669922z"/>
	<polygon fill="#060403" points="514.9169922,601.0839844 514.9169922,615.5 514.9169922,631.5 498.9160156,631.5 
		498.9160156,615.5 498.9160156,601.0839844 	"/>
</g>
<g>
	<path d="M491,742.5v-13h40.5c11.6074219,0,17.5,5.5517578,17.5,15.5v36.5h-18.7998047V747c0-3.5673828-1.0966797-4.5-4.5-4.5H491z"
		/>
	<polygon points="517,752.5 517,762.5 517,781.5 498,781.5 498,762.5 498,752.5 	"/>
</g>
<g>
	<path d="M613.5-168.5c7.1035156,0,10,2.6074219,10,9v41h2v-41c0-7.390625-3.5820312-11-12-11H605v2H613.5z"/>
	<path fill="#1D1411" d="M604.3330078-16.5v-4H614c8.9492188,0,12.9160156,3.9326172,12.9160156,11.75v40.2495117h-4.8662109V-8.25
		c0-5.921875-2.5966797-8.25-9.0830078-8.25H604.3330078z"/>
	<path fill="#17100E" d="M603.6660156,135.5v-6H614.5c9.4814453,0,13.8330078,4.2563477,13.8330078,12.5v39.5h-7.7324219V143
		c0-5.4511719-2.2978516-7.5-8.1669922-7.5H603.6660156z"/>
	<path fill="#110C0A" d="M603,287.5v-8h12c10.0126953,0,14.75,4.5800781,14.75,13.25v38.75h-10.5996094v-37.25
		c0-4.9804688-1.9970703-6.75-7.25-6.75H603z"/>
	<path fill="#0B0807" d="M602.3330078,439.1660156V429.5H615.5c10.5439453,0,15.6660156,4.9033203,15.6660156,14v38h-13.7324219
		v-36.3339844c0-4.5087891-1.6972656-6-6.3339844-6H602.3330078z"/>
	<path fill="#060403" d="M601.6669922,590.8330078V579.5H616c11.0761719,0,16.5839844,5.2275391,16.5839844,14.75v37.25h-16.8671875
		v-35.4169922c0-4.0380859-1.3964844-5.25-5.4169922-5.25H601.6669922z"/>
	<path d="M601,742.5v-13h15.5c11.6074219,0,17.5,5.5517578,17.5,15.5v36.5h-20V747c0-3.5673828-1.0957031-4.5-4.5-4.5H601z"/>
</g>
<g>
	<path d="M729,757.5v24h-20v-20c0-8.6240234,2.8505859-14.8154297,7.8828125-18.7998047V742.5H700v-13h40.5v13
		C733.3955078,743.1044922,729,748.4902344,729,757.5z"/>
	<path d="M719.2089844,591.0332031v-0.2001953H701V579.5h38.6660156v11.3330078c-7.3876953,0.8515625-12,6.7460938-12,16.0830078
		V631.5h-16.8662109v-21.25C710.7998047,601.4394531,713.875,594.9931641,719.2089844,591.0332031z"/>
	<path d="M721.5361328,439.3671875v-0.2001953H702V429.5h36.8330078v9.6669922c-7.671875,1.0986328-12.5,7.5009766-12.5,17.1660156
		V481.5h-13.7324219V459C712.6005859,450.0029297,715.9003906,443.3017578,721.5361328,439.3671875z"/>
	<path d="M723.8632812,287.7001953V287.5H703v-8h35v8c-7.9560547,1.3457031-13,8.2578125-13,18.25v25.75h-10.5996094v-23.75
		C714.4003906,298.5664062,717.9248047,291.6103516,723.8632812,287.7001953z"/>
	<path d="M725.9228516,135.7001953V135.5H704v-6h33.1660156v6c-8.2402344,1.5922852-13.5,9.0131836-13.5,19.3330078v26.6665039
		h-7.7324219v-25.3330078C715.9335938,146.7958984,719.6826172,139.5854492,725.9228516,135.7001953z"/>
	<path d="M727.9824219-16.2998047V-16.5H705v-4h31.3330078v4c-8.5244141,1.8393555-13.9990234,9.7695312-13.9990234,20.4165039V31.5
		h-4.8671875V4.5830078C717.4667969-4.9741211,721.4414062-12.4394531,727.9824219-16.2998047z"/>
	<path d="M730.0429688-168.2998047C723.1992188-164.4638672,719-156.7441406,719-147v28.5h2V-147
		c0-10.9746094,5.6914062-19.4140625,14.5-21.5v-2H706v2h24.0429688V-168.2998047z"/>
</g>
</svg>
