<?xml version="1.0" encoding="utf-8"?>
<!-- Generator: Adobe Illustrator 15.0.2, SVG Export Plug-In . SVG Version: 6.00 Build 0)  -->
<!DOCTYPE svg PUBLIC "-//W3C//DTD SVG 1.1//EN" "http://www.w3.org/Graphics/SVG/1.1/DTD/svg11.dtd">
<svg version="1.1" id="レイヤー1" xmlns="http://www.w3.org/2000/svg" xmlns:xlink="http://www.w3.org/1999/xlink" x="0px"
	 y="0px" width="841.8896484px" height="595.2753906px" viewBox="0 0 841.8896484 595.2753906"
	 enable-background="new 0 0 841.8896484 595.2753906" xml:space="preserve">
<g>
	<rect x="71.5" y="-226.5" fill="none" stroke="#000000" stroke-width="0.25" width="100" height="150"/>
	<rect x="71.5" y="-76.5" fill="none" stroke="#000000" stroke-width="0.25" width="100" height="150"/>
	<rect x="71.5" y="73.5" fill="none" stroke="#000000" stroke-width="0.25" width="100" height="150"/>
	<rect x="71.5" y="223.5" fill="none" stroke="#000000" stroke-width="0.25" width="100" height="150"/>
	<rect x="71.5" y="373.5" fill="none" stroke="#000000" stroke-width="0.25" width="100" height="150"/>
	<rect x="71.5" y="523.5" fill="none" stroke="#000000" stroke-width="0.25" width="100" height="150"/>
	<rect x="71.5" y="673.5" fill="none" stroke="#000000" stroke-width="0.25" width="100" height="150"/>
	<rect x="171.5" y="-226.5" fill="none" stroke="#000000" stroke-width="0.25" width="100" height="150"/>
	<rect x="171.5" y="-76.5" fill="none" stroke="#000000" stroke-width="0.25" width="100" height="150"/>
	<rect x="171.5" y="73.5" fill="none" stroke="#000000" stroke-width="0.25" width="100" height="150"/>
	<rect x="171.5" y="223.5" fill="none" stroke="#000000" stroke-width="0.25" width="100" height="150"/>
	<rect x="171.5" y="373.5" fill="none" stroke="#000000" stroke-width="0.25" width="100" height="150"/>
	<rect x="171.5" y="523.5" fill="none" stroke="#000000" stroke-width="0.25" width="100" height="150"/>
	<rect x="171.5" y="673.5" fill="none" stroke="#000000" stroke-width="0.25" width="100" height="150"/>
	<rect x="271.5" y="-226.5" fill="none" stroke="#000000" stroke-width="0.25" width="100" height="150"/>
	<rect x="271.5" y="-76.5" fill="none" stroke="#000000" stroke-width="0.25" width="100" height="150"/>
	<rect x="271.5" y="73.5" fill="none" stroke="#000000" stroke-width="0.25" width="100" height="150"/>
	<rect x="271.5" y="223.5" fill="none" stroke="#000000" stroke-width="0.25" width="100" height="150"/>
	<rect x="271.5" y="373.5" fill="none" stroke="#000000" stroke-width="0.25" width="100" height="150"/>
	<rect x="271.5" y="523.5" fill="none" stroke="#000000" stroke-width="0.25" width="100" height="150"/>
	<rect x="271.5" y="673.5" fill="none" stroke="#000000" stroke-width="0.25" width="100" height="150"/>
	<rect x="371.5" y="-226.5" fill="none" stroke="#000000" stroke-width="0.25" width="100" height="150"/>
	<rect x="371.5" y="-76.5" fill="none" stroke="#000000" stroke-width="0.25" width="100" height="150"/>
	<rect x="371.5" y="73.5" fill="none" stroke="#000000" stroke-width="0.25" width="100" height="150"/>
	<rect x="371.5" y="223.5" fill="none" stroke="#000000" stroke-width="0.25" width="100" height="150"/>
	<rect x="371.5" y="373.5" fill="none" stroke="#000000" stroke-width="0.25" width="100" height="150"/>
	<rect x="371.5" y="523.5" fill="none" stroke="#000000" stroke-width="0.25" width="100" height="150"/>
	<rect x="371.5" y="673.5" fill="none" stroke="#000000" stroke-width="0.25" width="100" height="150"/>
	<rect x="471.5" y="-226.5" fill="none" stroke="#000000" stroke-width="0.25" width="100" height="150"/>
	<rect x="471.5" y="-76.5" fill="none" stroke="#000000" stroke-width="0.25" width="100" height="150"/>
	<rect x="471.5" y="73.5" fill="none" stroke="#000000" stroke-width="0.25" width="100" height="150"/>
	<rect x="471.5" y="223.5" fill="none" stroke="#000000" stroke-width="0.25" width="100" height="150"/>
	<rect x="471.5" y="373.5" fill="none" stroke="#000000" stroke-width="0.25" width="100" height="150"/>
	<rect x="471.5" y="523.5" fill="none" stroke="#000000" stroke-width="0.25" width="100" height="150"/>
	<rect x="471.5" y="673.5" fill="none" stroke="#000000" stroke-width="0.25" width="100" height="150"/>
	<rect x="571.5" y="-226.5" fill="none" stroke="#000000" stroke-width="0.25" width="100" height="150"/>
	<rect x="571.5" y="-76.5" fill="none" stroke="#000000" stroke-width="0.25" width="100" height="150"/>
	<rect x="571.5" y="73.5" fill="none" stroke="#000000" stroke-width="0.25" width="100" height="150"/>
	<rect x="571.5" y="223.5" fill="none" stroke="#000000" stroke-width="0.25" width="100" height="150"/>
	<rect x="571.5" y="373.5" fill="none" stroke="#000000" stroke-width="0.25" width="100" height="150"/>
	<rect x="571.5" y="523.5" fill="none" stroke="#000000" stroke-width="0.25" width="100" height="150"/>
	<rect x="571.5" y="673.5" fill="none" stroke="#000000" stroke-width="0.25" width="100" height="150"/>
	<rect x="671.5" y="-226.5" fill="none" stroke="#000000" stroke-width="0.25" width="100" height="150"/>
	<rect x="671.5" y="-76.5" fill="none" stroke="#000000" stroke-width="0.25" width="100" height="150"/>
	<rect x="671.5" y="73.5" fill="none" stroke="#000000" stroke-width="0.25" width="100" height="150"/>
	<rect x="671.5" y="223.5" fill="none" stroke="#000000" stroke-width="0.25" width="100" height="150"/>
	<rect x="671.5" y="373.5" fill="none" stroke="#000000" stroke-width="0.25" width="100" height="150"/>
	<rect x="671.5" y="523.5" fill="none" stroke="#000000" stroke-width="0.25" width="100" height="150"/>
	<rect x="671.5" y="673.5" fill="none" stroke="#000000" stroke-width="0.25" width="100" height="150"/>
	<rect x="771.5" y="-226.5" fill="none" stroke="#000000" stroke-width="0.25" width="100" height="150"/>
	<rect x="771.5" y="-76.5" fill="none" stroke="#000000" stroke-width="0.25" width="100" height="150"/>
	<rect x="771.5" y="73.5" fill="none" stroke="#000000" stroke-width="0.25" width="100" height="150"/>
	<rect x="771.5" y="223.5" fill="none" stroke="#000000" stroke-width="0.25" width="100" height="150"/>
	<rect x="771.5" y="373.5" fill="none" stroke="#000000" stroke-width="0.25" width="100" height="150"/>
	<rect x="771.5" y="523.5" fill="none" stroke="#000000" stroke-width="0.25" width="100" height="150"/>
	<rect x="771.5" y="673.5" fill="none" stroke="#000000" stroke-width="0.25" width="100" height="150"/>
</g>
<g>
	<polygon points="334.5,-170.5 302,-170.5 302,-168.5 332.5,-168.5 332.5,-96.5 334.5,-96.5 	"/>
	<polygon fill="#1D1411" points="335.5830078,-20.5 301.1665039,-20.5 301.1665039,-16.5 330.7167969,-16.5 330.7167969,53.5 
		335.5830078,53.5 	"/>
	<polygon fill="#17100E" points="336.6669922,129.5 300.3334961,129.5 300.3334961,135.5 328.9335938,135.5 328.9335938,203.5 
		336.6669922,203.5 	"/>
	<polygon fill="#110C0A" points="337.75,279.5 299.5,279.5 299.5,287.5 327.1499023,287.5 327.1499023,353.5 337.75,353.5 	"/>
	<polygon fill="#0B0807" points="338.8330078,429.5 298.6665039,429.5 298.6665039,439.1660156 325.0996094,439.1660156 
		325.0996094,503.5 338.8330078,503.5 	"/>
	<polygon fill="#060403" points="339.9169922,579.5 297.8330078,579.5 297.8330078,590.8330078 323.0498047,590.8330078 
		323.0498047,653.5 339.9169922,653.5 	"/>
	<polygon points="341,729.5 297,729.5 297,742.5 321,742.5 321,803.5 341,803.5 	"/>
</g>
<g>
	<path d="M640.5-159.5c0-7.390625-3.5820312-11-12-11H595v2h8.5v50h2v-50h23c7.1035156,0,10,2.6074219,10,9v39h-33v2h35V-159.5z"/>
	<path fill="#1D1411" d="M637.3164062-8.25c0-5.921875-2.5966797-8.25-9.0839844-8.25H607.25v47.9995117h-4.6669922V-16.5h-8.25v-4
		H629c8.9492188,0,12.9160156,3.9326172,12.9160156,11.75v40.2495117H607.25V27.5h30.0664062V-8.25z"/>
	<path fill="#17100E" d="M636.1337891,143c0-5.4511719-2.2978516-7.5-8.1669922-7.5H609v46h-7.3339844v-46h-7.9990234v-6H629.5
		c9.4814453,0,13.8330078,4.2563477,13.8330078,12.5v39.5H609v-6h27.1337891V143z"/>
	<path fill="#110C0A" d="M634.9501953,294.25c0-4.9804688-1.9970703-6.75-7.25-6.75H610.75v44h-10v-44H593v-8h37
		c10.0126953,0,14.75,4.5800781,14.75,13.25v38.75h-34v-8h24.2001953V294.25z"/>
	<path fill="#0B0807" d="M633.3671875,445.1660156c0-4.5087891-1.6972656-6-6.3339844-6h-14.2001953V481.5h-13v-42.3339844h-7.5
		V429.5H630.5c10.5439453,0,15.6660156,4.9033203,15.6660156,14v38h-33.3330078v-9.6669922h20.5341797V445.1660156z"/>
	<path fill="#060403" d="M631.7832031,596.0830078c0-4.0380859-1.3964844-5.25-5.4160156-5.25h-11.4501953V631.5h-16v-40.6669922
		h-7.2509766V579.5H631c11.0761719,0,16.5839844,5.2275391,16.5839844,14.75v37.25h-32.6669922v-11.3330078h16.8662109V596.0830078z
		"/>
	<path d="M630.2001953,747c0-3.5673828-1.0966797-4.5-4.5-4.5H617v39h-19v-39h-7v-13h40.5c11.6074219,0,17.5,5.5517578,17.5,15.5
		v36.5h-32v-13h13.2001953V747z"/>
</g>
<g>
	<path d="M813.5-168.5c7.1035156,0,10,2.6074219,10,9v63h2v-63c0-7.390625-3.5820312-11-12-11H805v2H813.5z"/>
	<path fill="#1D1411" d="M804.3330078-16.5v-4H814c8.9492188,0,12.9160156,3.9326172,12.9160156,11.75V53.5h-4.8662109V-8.25
		c0-5.921875-2.5966797-8.25-9.0830078-8.25H804.3330078z"/>
	<path fill="#17100E" d="M803.6669922,135.5v-6H814.5c9.4814453,0,13.8339844,4.2563477,13.8339844,12.5v61.5h-7.7333984V143
		c0-5.4511719-2.296875-7.5-8.1669922-7.5H803.6669922z"/>
	<path fill="#110C0A" d="M803,287.5v-8h12c10.0126953,0,14.75,4.5800781,14.75,13.25v60.75h-10.5996094v-59.25
		c0-4.9804688-1.9970703-6.75-7.25-6.75H803z"/>
	<path fill="#0B0807" d="M802.3330078,439.1660156V429.5H815.5c10.5439453,0,15.6660156,4.9033203,15.6660156,14v60h-13.7324219
		v-58.3339844c0-4.5087891-1.6972656-6-6.3339844-6H802.3330078z"/>
	<path fill="#060403" d="M801.6660156,590.8330078V579.5H816c11.0761719,0,16.5830078,5.2275391,16.5830078,14.75v59.25h-16.8662109
		v-57.4169922c0-4.0380859-1.3964844-5.25-5.4160156-5.25H801.6660156z"/>
	<path d="M801,742.5v-13h15.5c11.6074219,0,17.5,5.5517578,17.5,15.5v58.5h-20V747c0-3.5673828-1.0957031-4.5-4.5-4.5H801z"/>
</g>
<g>
	<path d="M213.5-168.5c7.1030273,0,10,2.6074219,10,9v21h2v-21c0-7.390625-3.581543-11-12-11H205v2H213.5z"/>
	<path fill="#1D1411" d="M204.3330078-16.5v-4H214c8.949707,0,12.9165039,3.9326172,12.9165039,11.75V11.5h-4.8666992V-8.25
		c0-5.921875-2.5966797-8.25-9.0834961-8.25H204.3330078z"/>
	<path fill="#17100E" d="M203.6669922,135.5v-6H214.5c9.4814453,0,13.8334961,4.2563477,13.8334961,12.5v19.5h-7.7338867V143
		c0-5.4511719-2.2963867-7.5-8.1665039-7.5H203.6669922z"/>
	<path fill="#110C0A" d="M203,287.5v-8h12c10.0126953,0,14.75,4.5800781,14.75,13.25v18.75h-10.6000977v-17.25
		c0-4.9804688-1.996582-6.75-7.25-6.75H203z"/>
	<path fill="#0B0807" d="M202.3330078,439.1660156V429.5H215.5c10.5439453,0,15.6665039,4.9033203,15.6665039,14v18h-13.7333984
		v-16.3339844c0-4.5087891-1.6967773-6-6.3334961-6H202.3330078z"/>
	<path fill="#060403" d="M201.6665039,590.8330078V579.5H216c11.0751953,0,16.5830078,5.2275391,16.5830078,14.75v17.25h-16.8662109
		v-15.4169922c0-4.0380859-1.3964844-5.25-5.4169922-5.25H201.6665039z"/>
	<path d="M201,742.5v-13h15.5c11.6069336,0,17.5,5.5517578,17.5,15.5v16.5h-20V747c0-3.5673828-1.0961914-4.5-4.5-4.5H201z"/>
</g>
<g>
	<path d="M132,747c0,13.2382812-5.5424805,20.5-12,20.5h-2l-5.7998047-38H92l12.5,52h5.5c26.5625,0,41-13.0732422,41-36.5
		c0-9.9482422-5.8930664-15.5-17.5-15.5H122v13h5.5C130.9038086,742.5,132,743.4326172,132,747z"/>
	<path d="M133.8330078,596.25c0,13.7597656-7.4394531,22.9160156-14.75,22.9160156h-1.7260742L110.2001953,579.5H93l12.8330078,52
		H110.75c23.7758789,0,39.0830078-14.4472656,39.0830078-37.25c0-9.5224609-5.5078125-14.75-16.5834961-14.75H122.25v11.3330078
		h6.1660156C132.4370117,590.8330078,133.8330078,592.0449219,133.8330078,596.25z"/>
	<path d="M135.6669922,445.5c0,14.28125-9.3374023,25.3330078-17.5,25.3330078h-1.453125L108.2001953,429.5H94l13.1669922,52H111.5
		c20.9892578,0,37.1669922-15.8212891,37.1669922-38c0-9.0957031-5.1230469-14-15.6669922-14h-10.5v9.6669922h6.8330078
		C133.9707031,439.1669922,135.6669922,440.6572266,135.6669922,445.5z"/>
	<path d="M137.5,294.75c0,14.8017578-11.234375,27.75-20.25,27.75h-1.1787109l-9.8710938-43H95l13.5,52h3.75
		c18.2026367,0,35.25-17.1953125,35.25-38.75c0-8.6699219-4.7373047-13.25-14.75-13.25h-10v8h7.5
		C135.5039062,287.5,137.5,289.2695312,137.5,294.75z"/>
	<path d="M116.3330078,174.8330078h-0.9462891L104.1586914,129.5H96l13.8330078,51.9995117H113
		c15.8183594,0,33.3330078-18.8295898,33.3330078-39.4995117c0-8.2441406-4.3520508-12.5-13.8334961-12.5H123v6h7.8330078
		C136.703125,135.5,139,137.5488281,139,143.3330078C139,159.3144531,125.5302734,174.8330078,116.3330078,174.8330078z"/>
	<path d="M115.4169922,27.1669922h-0.7138672L102.1176758-20.5H97l14.1665039,52H113.75
		c13.4345703,0,31.4165039-20.4648438,31.4165039-40.25c0-7.8173828-3.9667969-11.75-12.9165039-11.75h-9v4h8.1665039
		C137.9033203-16.5,140.5-14.171875,140.5-8.0830078C140.5,9.0771484,124.7954102,27.1669922,115.4169922,27.1669922z"/>
	<path d="M132-170.5h-8.5v2h8.5c7.1030273,0,10,2.6074219,10,9c0,18.3398438-17.9399414,39-27.5,39h-0.4814453l-13.9423828-50H98
		l14.5,52h2c11.0498047,0,29.5-22.0996094,29.5-41C144-166.890625,140.418457-170.5,132-170.5z"/>
</g>
<g>
	<path d="M512.5,781.5c10.8867188-14.8085938,15-24.9648438,15-34.5c0-3.3720703-1.0957031-4.5-4.5-4.5h-25.5v-30h19v17H529
		c11.6074219,0,17.5,5.5517578,17.5,15.5c0,10.6337891-4.2421875,22.4560547-14,36.5H512.5z"/>
	<path d="M514.25,631.5c10.890625-14.8681641,15.1660156-25.6289062,15.1660156-35.5839844
		c0-3.7089844-1.3955078-5.0830078-5.4160156-5.0830078h-25.25V562.5h16v17h14.0830078
		c11.0761719,0,16.5830078,5.2275391,16.5830078,14.75c0,10.9521484-4.4082031,23.1025391-14.2597656,37.25H514.25z"/>
	<path d="M516,481.5c10.8955078-14.9267578,15.3330078-26.2929688,15.3330078-36.6669922
		c0-4.0458984-1.6953125-5.6660156-6.3330078-5.6660156h-25V412.5h13v17h15.6669922
		c10.5439453,0,15.6669922,4.9042969,15.6669922,14c0,11.2714844-4.5761719,23.7490234-14.5205078,38H516z"/>
	<path d="M528.5,279.5c10.0126953,0,14.75,4.5800781,14.75,13.25c0,11.5898438-4.7431641,24.3955078-14.7792969,38.75H517.75
		c10.8994141-14.9863281,15.5-26.9570312,15.5-37.75c0-4.3828125-1.9960938-6.25-7.25-6.25h-24.75v-25h10v17H528.5z"/>
	<path d="M528.3330078,129.5c9.4814453,0,13.8330078,4.2558594,13.8330078,12.5
		c0,11.9082031-4.9101562,25.0419922-15.0390625,39.4995117h-7.9609375
		c10.9042969-15.0454102,15.6669922-27.6206055,15.6669922-38.8330078c0-5.0527344-2.2958984-7.1665039-8.1669922-7.1665039H502.5
		v-23.0004883h7.3330078V129.5H528.3330078z"/>
	<path d="M528.1660156-20.5c8.9501953,0,12.9169922,3.9326172,12.9169922,11.75c0,12.2265625-5.0771484,25.6884766-15.2978516,40.25
		h-5.2021484c10.9082031-15.1054688,15.8339844-28.2851562,15.8339844-39.9165039
		c0-5.7226562-2.5966797-8.0834961-9.0839844-8.0834961H503.75v-21h4.6660156v17H528.1660156z"/>
	<path d="M528-170.5h-21v-17h-2v19h23c7.1035156,0,10,2.6074219,10,9c0,12.0507812-5.0878906,25.8349609-16,41h2.4414062
		C534.7558594-133.1650391,540-146.9550781,540-159.5C540-166.890625,536.4179688-170.5,528-170.5z"/>
</g>
<g>
	<path d="M429,729.5h-31.5v13H423c3.4042969,0,4.5,0.9326172,4.5,4.5c0,8.5517578-1.5615234,16.2558594-4,21.5h-26v13h39
		c6.2226562-8.9550781,10-21.9902344,10-36.5C446.5,735.0517578,440.6074219,729.5,429,729.5z"/>
	<path d="M428.8330078,579.5h-30.0834961v11.3330078H424c4.0205078,0,5.4160156,1.2119141,5.4160156,5.25
		c0,9.4501953-1.7890625,18.0771484-4.6855469,24.0830078h-25.980957V631.5h36.6665039c6.2226562-9.1396484,10-22.4423828,10-37.25
		C445.4160156,584.7275391,439.9082031,579.5,428.8330078,579.5z"/>
	<path d="M428.6669922,429.5H400v9.6669922h25c4.6376953,0,6.3330078,1.4902344,6.3330078,6
		c0,10.3476562-2.0166016,19.8974609-5.3701172,26.6669922H400V481.5h34.3330078c6.2226562-9.3232422,10-22.8935547,10-38
		C444.3330078,434.4042969,439.2109375,429.5,428.6669922,429.5z"/>
	<path d="M428.5,279.5h-27.25v8H426c5.2539062,0,7.25,1.7695312,7.25,6.75c0,11.2460938-2.2451172,21.71875-6.0566406,29.25H401.25
		v8h32c6.2226562-9.5078125,10-23.3457031,10-38.75C443.25,284.0800781,438.5126953,279.5,428.5,279.5z"/>
	<path d="M428.3330078,129.5h-25.8334961v6h24.1665039c5.8710938,0,8.1669922,2.0488281,8.1669922,7.5
		c0,12.4785156-2.6064453,24.168457-7.0859375,32.5h-25.2475586v5.9995117h29.6665039
		c6.2226562-9.6914062,10-23.7973633,10-39.4995117C442.1660156,133.7558594,437.8144531,129.5,428.3330078,129.5z"/>
	<path d="M428.1669922-20.5H403.75v4h23.5830078c6.4873047,0,9.0830078,2.328125,9.0830078,8.25
		c0,13.7119141-2.9667969,26.6186523-8.1152344,35.75H403.75v4h27.3339844c6.2226562-9.8754883,9.9990234-24.25,9.9990234-40.25
		C441.0830078-16.5673828,437.1162109-20.5,428.1669922-20.5z"/>
	<path d="M428-170.5h-23v2h23c7.1035156,0,10,2.6074219,10,9c0,14.9443359-3.328125,29.0683594-9.1455078,39H405v2h25
		c6.2226562-10.0595703,10-24.7021484,10-41C440-166.890625,436.4179688-170.5,428-170.5z"/>
</g>
<g>
	<path d="M712,736.5l-1-7h-18.5c5.9375,23.71875,5.9482422,23.9101562,2,52h19c4.9355469-35.1132812,7.7080078-39,12.7001953-39
		c3.8457031,0,6.5,4.3388672,6.5,15.5v10.5H722.5v13h29V756c0-19.0273438-7.6630859-27.5-23-27.5
		c-5.171875,0-10.6572266,2.5039062-16.2998047,8H712z"/>
	<path d="M710.6103516,589.1513672c-0.0957031-1.6826172-1.1318359-8.1865234-1.6777344-9.6513672h-15.5996094
		c6.1630859,23.0234375,6.1738281,23.1953125,2,52h16c5.1767578-35.6777344,8.6728516-40.8339844,14.8330078-40.8339844
		c4.7285156,0,8.1171875,4.8632812,8.1171875,17v12.5H721.75V631.5h28.3330078V606c0-19.0273438-7.6630859-27.5-22-27.5
		c-5.9697266,0-11.6435547,3.2099609-17.2734375,10.6630859L710.6103516,589.1513672z"/>
	<path d="M709.2207031,441.8037109c-0.1914062-3.3642578-1.2626953-9.3740234-2.3544922-12.3037109h-12.6992188
		c6.3876953,22.328125,6.3994141,22.4824219,2,52h13c5.4169922-36.2421875,9.6376953-42.6669922,16.9658203-42.6669922
		c5.6113281,0,9.7333984,5.3876953,9.7333984,18.5009766v14.5H721V481.5h27.6669922V456c0-19.0273438-7.6640625-27.5-21-27.5
		c-6.7675781,0-12.6298828,3.9169922-18.2480469,13.3271484L709.2207031,441.8037109z"/>
	<path d="M707.8310547,294.4550781c-0.2871094-5.0458984-1.3935547-10.5605469-3.03125-14.9550781H695
		c6.6132812,21.6328125,6.625,21.7685547,2,52h10c5.6582031-36.8076172,10.6035156-44.5,19.0996094-44.5
		c6.4931641,0,11.3496094,5.9111328,11.3496094,20v16.5H720.25v8h27V306c0-19.0273438-7.6640625-27.5-20-27.5
		c-7.5644531,0-13.6162109,4.6230469-19.2216797,15.9902344L707.8310547,294.4550781z"/>
	<path d="M719.5,181.4995117h26.3330078v-25.5c0-19.0268555-7.6640625-27.4995117-19-27.4995117
		c-8.1865234,0-14.2646484,5.4599609-19.7138672,19.1733398l-0.1972656-0.0351562
		c-0.0957031-6.175293-1.375-11.5112305-3.84375-18.1381836h-7.2451172c6.8388672,20.9375,6.8505859,21.0541992,2,51.9995117
		h7.3330078c6.0429688-38.3125,11.7060547-46.6665039,20.9003906-46.6665039
		c7.4589844,0,12.5664062,7.1181641,12.5664062,21.8334961V175.5H719.5V181.4995117z"/>
	<path d="M718.75,31.5h25.6669922V6c0-19.0263672-7.6640625-27.5-18.0009766-27.5
		c-8.8085938,0-14.9121094,6.2978516-20.2060547,22.3564453l-0.1972656-0.0351562
		C706.109375-6.4824219,704.65625-11.640625,701.3564453-20.5h-4.6904297c7.0644531,20.2426758,7.0771484,20.3408203,2.0009766,52
		h4.6669922c6.4277344-39.8183594,12.8076172-48.8334961,22.6992188-48.8334961
		c8.4257812,0,13.7832031,8.3256836,13.7832031,23.6665039V27.5H718.75V31.5z"/>
	<path d="M705.1035156-145.9951172c0.2890625-8.4335938-1.3369141-13.4130859-5.46875-24.5048828H697.5
		c7.2890625,19.5478516,7.3017578,19.6269531,2,52h2c6.8134766-41.3232422,13.9101562-51,24.5-51c9.3925781,0,15,9.5322266,15,25.5
		v23.5h-23v2h25V-144c0-19.0263672-7.6640625-27.5-17-27.5c-9.4306641,0-15.5615234,7.1347656-20.6992188,25.5400391
		L705.1035156-145.9951172z"/>
</g>
</svg>
