<?xml version="1.0" encoding="utf-8"?>
<!-- Generator: Adobe Illustrator 15.0.2, SVG Export Plug-In . SVG Version: 6.00 Build 0)  -->
<!DOCTYPE svg PUBLIC "-//W3C//DTD SVG 1.1//EN" "http://www.w3.org/Graphics/SVG/1.1/DTD/svg11.dtd">
<svg version="1.1" id="レイヤー1" xmlns="http://www.w3.org/2000/svg" xmlns:xlink="http://www.w3.org/1999/xlink" x="0px"
	 y="0px" width="841.8896484px" height="595.2753906px" viewBox="0 0 841.8896484 595.2753906"
	 enable-background="new 0 0 841.8896484 595.2753906" xml:space="preserve">
<g>
	<rect x="71.5" y="-226.5" fill="none" stroke="#000000" stroke-width="0.25" width="100" height="150"/>
	<rect x="71.5" y="-76.5" fill="none" stroke="#000000" stroke-width="0.25" width="100" height="150"/>
	<rect x="71.5" y="73.5" fill="none" stroke="#000000" stroke-width="0.25" width="100" height="150"/>
	<rect x="71.5" y="223.5" fill="none" stroke="#000000" stroke-width="0.25" width="100" height="150"/>
	<rect x="71.5" y="373.5" fill="none" stroke="#000000" stroke-width="0.25" width="100" height="150"/>
	<rect x="71.5" y="523.5" fill="none" stroke="#000000" stroke-width="0.25" width="100" height="150"/>
	<rect x="71.5" y="673.5" fill="none" stroke="#000000" stroke-width="0.25" width="100" height="150"/>
	<rect x="171.5" y="-226.5" fill="none" stroke="#000000" stroke-width="0.25" width="100" height="150"/>
	<rect x="171.5" y="-76.5" fill="none" stroke="#000000" stroke-width="0.25" width="100" height="150"/>
	<rect x="171.5" y="73.5" fill="none" stroke="#000000" stroke-width="0.25" width="100" height="150"/>
	<rect x="171.5" y="223.5" fill="none" stroke="#000000" stroke-width="0.25" width="100" height="150"/>
	<rect x="171.5" y="373.5" fill="none" stroke="#000000" stroke-width="0.25" width="100" height="150"/>
	<rect x="171.5" y="523.5" fill="none" stroke="#000000" stroke-width="0.25" width="100" height="150"/>
	<rect x="171.5" y="673.5" fill="none" stroke="#000000" stroke-width="0.25" width="100" height="150"/>
	<rect x="271.5" y="-226.5" fill="none" stroke="#000000" stroke-width="0.25" width="100" height="150"/>
	<rect x="271.5" y="-76.5" fill="none" stroke="#000000" stroke-width="0.25" width="100" height="150"/>
	<rect x="271.5" y="73.5" fill="none" stroke="#000000" stroke-width="0.25" width="100" height="150"/>
	<rect x="271.5" y="223.5" fill="none" stroke="#000000" stroke-width="0.25" width="100" height="150"/>
	<rect x="271.5" y="373.5" fill="none" stroke="#000000" stroke-width="0.25" width="100" height="150"/>
	<rect x="271.5" y="523.5" fill="none" stroke="#000000" stroke-width="0.25" width="100" height="150"/>
	<rect x="271.5" y="673.5" fill="none" stroke="#000000" stroke-width="0.25" width="100" height="150"/>
	<rect x="371.5" y="-226.5" fill="none" stroke="#000000" stroke-width="0.25" width="100" height="150"/>
	<rect x="371.5" y="-76.5" fill="none" stroke="#000000" stroke-width="0.25" width="100" height="150"/>
	<rect x="371.5" y="73.5" fill="none" stroke="#000000" stroke-width="0.25" width="100" height="150"/>
	<rect x="371.5" y="223.5" fill="none" stroke="#000000" stroke-width="0.25" width="100" height="150"/>
	<rect x="371.5" y="373.5" fill="none" stroke="#000000" stroke-width="0.25" width="100" height="150"/>
	<rect x="371.5" y="523.5" fill="none" stroke="#000000" stroke-width="0.25" width="100" height="150"/>
	<rect x="371.5" y="673.5" fill="none" stroke="#000000" stroke-width="0.25" width="100" height="150"/>
	<rect x="471.5" y="-226.5" fill="none" stroke="#000000" stroke-width="0.25" width="100" height="150"/>
	<rect x="471.5" y="-76.5" fill="none" stroke="#000000" stroke-width="0.25" width="100" height="150"/>
	<rect x="471.5" y="73.5" fill="none" stroke="#000000" stroke-width="0.25" width="100" height="150"/>
	<rect x="471.5" y="223.5" fill="none" stroke="#000000" stroke-width="0.25" width="100" height="150"/>
	<rect x="471.5" y="373.5" fill="none" stroke="#000000" stroke-width="0.25" width="100" height="150"/>
	<rect x="471.5" y="523.5" fill="none" stroke="#000000" stroke-width="0.25" width="100" height="150"/>
	<rect x="471.5" y="673.5" fill="none" stroke="#000000" stroke-width="0.25" width="100" height="150"/>
	<rect x="571.5" y="-226.5" fill="none" stroke="#000000" stroke-width="0.25" width="100" height="150"/>
	<rect x="571.5" y="-76.5" fill="none" stroke="#000000" stroke-width="0.25" width="100" height="150"/>
	<rect x="571.5" y="73.5" fill="none" stroke="#000000" stroke-width="0.25" width="100" height="150"/>
	<rect x="571.5" y="223.5" fill="none" stroke="#000000" stroke-width="0.25" width="100" height="150"/>
	<rect x="571.5" y="373.5" fill="none" stroke="#000000" stroke-width="0.25" width="100" height="150"/>
	<rect x="571.5" y="523.5" fill="none" stroke="#000000" stroke-width="0.25" width="100" height="150"/>
	<rect x="571.5" y="673.5" fill="none" stroke="#000000" stroke-width="0.25" width="100" height="150"/>
	<rect x="671.5" y="-226.5" fill="none" stroke="#000000" stroke-width="0.25" width="100" height="150"/>
	<rect x="671.5" y="-76.5" fill="none" stroke="#000000" stroke-width="0.25" width="100" height="150"/>
	<rect x="671.5" y="73.5" fill="none" stroke="#000000" stroke-width="0.25" width="100" height="150"/>
	<rect x="671.5" y="223.5" fill="none" stroke="#000000" stroke-width="0.25" width="100" height="150"/>
	<rect x="671.5" y="373.5" fill="none" stroke="#000000" stroke-width="0.25" width="100" height="150"/>
	<rect x="671.5" y="523.5" fill="none" stroke="#000000" stroke-width="0.25" width="100" height="150"/>
	<rect x="671.5" y="673.5" fill="none" stroke="#000000" stroke-width="0.25" width="100" height="150"/>
	<rect x="771.5" y="-226.5" fill="none" stroke="#000000" stroke-width="0.25" width="100" height="150"/>
	<rect x="771.5" y="-76.5" fill="none" stroke="#000000" stroke-width="0.25" width="100" height="150"/>
	<rect x="771.5" y="73.5" fill="none" stroke="#000000" stroke-width="0.25" width="100" height="150"/>
	<rect x="771.5" y="223.5" fill="none" stroke="#000000" stroke-width="0.25" width="100" height="150"/>
	<rect x="771.5" y="373.5" fill="none" stroke="#000000" stroke-width="0.25" width="100" height="150"/>
	<rect x="771.5" y="523.5" fill="none" stroke="#000000" stroke-width="0.25" width="100" height="150"/>
	<rect x="771.5" y="673.5" fill="none" stroke="#000000" stroke-width="0.25" width="100" height="150"/>
</g>
<g>
	<path d="M129-159.5c0-6.3925781-2.8969727-9-10-9h-8.5v-2h8.5c8.418457,0,12,3.609375,12,11v41h-25v-2h23V-159.5z"/>
	<path d="M127.5498047-8.25c0-5.921875-2.5966797-8.25-9.0834961-8.25h-8.6333008v-4H119.5
		c8.949707,0,12.9165039,3.9326172,12.9165039,11.75v40.2495117h-26.8334961V27.5h21.9667969V-8.25z"/>
	<path d="M126.0996094,143c0-5.4511719-2.2963867-7.5-8.1665039-7.5h-8.7661133v-6H120
		c9.4814453,0,13.8334961,4.2563477,13.8334961,12.5v39.5h-28.6665039v-6h20.9326172V143z"/>
	<path d="M104.75,331.5v-8h19.8999023v-29.25c0-4.9804688-1.996582-6.75-7.25-6.75H108.5v-8h12
		c10.0126953,0,14.75,4.5800781,14.75,13.25v38.75H104.75z"/>
	<path d="M104.3330078,481.5v-9.6669922h18.6000977v-26.6669922c0-4.5087891-1.6967773-6-6.3334961-6h-8.7666016V429.5H121
		c10.5439453,0,15.6665039,4.9033203,15.6665039,14v38H104.3330078z"/>
	<path d="M103.9165039,631.5v-11.3330078h17.300293v-24.0839844c0-4.0380859-1.3964844-5.25-5.4169922-5.25h-8.6333008V579.5H121.5
		c11.0751953,0,16.5830078,5.2275391,16.5830078,14.75v37.25H103.9165039z"/>
	<path d="M139.5,745v36.5h-36v-13h16V747c0-3.5673828-1.0961914-4.5-4.5-4.5h-8.5v-13H122
		C133.6069336,729.5,139.5,735.0517578,139.5,745z"/>
</g>
<g>
	<path d="M227.5,742.5h-37v-13h43c11.6069336,0,17.5,5.5517578,17.5,15.5c0,23.4267578-14.4375,36.5-41,36.5h-5.5l-8.5-42
		h19.2001953L218,767.5h2c6.4575195,0,12-7.2617188,12-20.5C232,743.4326172,230.9038086,742.5,227.5,742.5z"/>
	<path d="M228.4165039,590.8330078h-37.5004883V579.5H233.25c11.0751953,0,16.5830078,5.2275391,16.5830078,14.75
		c0,22.8027344-15.3076172,37.25-39.0834961,37.25h-4.9165039L196.75,588.3330078h16.5332031l4.0737305,30.8330078h1.7260742
		c7.3100586,0,14.75-9.15625,14.75-22.9160156C233.8330078,592.0449219,232.4370117,590.8330078,228.4165039,590.8330078z"/>
	<path d="M229.3330078,439.1669922h-38V429.5H233c10.5439453,0,15.6665039,4.9042969,15.6665039,14
		c0,22.1787109-16.1772461,38-37.1665039,38h-4.3334961L197.5,437.1669922h13.8671875l5.347168,33.6660156h1.4526367
		c8.1621094,0,17.5-11.0517578,17.5-25.3330078C235.6669922,440.6582031,233.9707031,439.1669922,229.3330078,439.1669922z"/>
	<path d="M230.25,287.5h-38.5v-8h41c10.0126953,0,14.75,4.5800781,14.75,13.25c0,21.5546875-17.0473633,38.75-35.25,38.75h-3.75
		L198.25,286h11.2001953l6.6210938,36.5H217.25c9.015625,0,20.25-12.9482422,20.25-27.75
		C237.5,289.2705078,235.5039062,287.5,230.25,287.5z"/>
	<path d="M246.3330078,142c0,20.6699219-17.5146484,39.4995117-33.3334961,39.4995117h-3.1665039l-11-47.3330078h8.1533203
		l8.4174805,40.6665039h0.9291992c9.1972656,0,22.6669922-15.5185547,22.6669922-31.5
		c0-5.7836914-2.2963867-7.8330078-8.1669922-7.8330078h-38.6665039v-6H232.5
		C241.980957,129.5,246.3330078,133.7558594,246.3330078,142z"/>
	<path d="M245.1669922-8.75c0,19.7851562-17.9829102,40.25-31.4169922,40.25h-2.5830078l-11.75-49.1669922h5.1054688
		l10.2138672,44.8339844h0.6801758c9.378418,0,25.0834961-18.0898438,25.0834961-35.25
		C240.5-14.1713867,237.9033203-16.5,231.4169922-16.5h-38.8334961v-4H232.25
		C241.2001953-20.5,245.1669922-16.5673828,245.1669922-8.75z"/>
	<path d="M244-159.5c0,18.9003906-18.4501953,41-29.5,41h-2l-12.5-51h2.059082l12.0097656,49H214.5
		c9.5600586,0,27.5-20.6601562,27.5-39c0-6.3925781-2.8969727-9-10-9h-39v-2h39C240.418457-170.5,244-166.890625,244-159.5z"/>
</g>
<g>
	<g>
		<polygon points="318.5761719,-118.5 316.5,-118.5 302,-170.5 304.0761719,-170.5 		"/>
		<path d="M344-170.5c0,34.3408203-24.8139648,60-47,60v-2c21.5751953,0,45-25.0361328,45-58H344z"/>
	</g>
	<g>
		<polygon points="319.7841797,31.4995117 315.1660156,31.4995117 301,-20.5 306.1171875,-20.5 		"/>
		<path d="M296.8330078,35.4995117c21.8935547,0,43.3330078-22.7827148,43.3330078-55.9995117h4.6669922
			c0,35.1416016-23.9863281,60-48,60V35.4995117z"/>
	</g>
	<g>
		<polygon points="320.9921875,181.5 313.8330078,181.5 300,129.5 308.1591797,129.5 		"/>
		<path d="M296.6669922,183.5c22.2109375,0,41.6660156-20.5292969,41.6660156-54h7.3334961
			c0,35.9433594-23.1586914,60-48.9995117,60V183.5z"/>
	</g>
	<g>
		<polygon points="322.2001953,331.5 312.5,331.5 299,279.5 310.2001953,279.5 		"/>
		<path d="M296.5,331.5c22.5288086,0,40-18.2763672,40-52h10c0,36.7441406-22.3320312,60-50,60V331.5z"/>
	</g>
	<g>
		<polygon points="311.1665039,481.5 298,429.5 312.2001953,429.5 322.9667969,481.5 		"/>
		<path d="M296.3330078,479.8330078c22.5131836,0,38-16.0224609,38-50.3330078h13c0,37.5449219-21.5043945,60-51,60V479.8330078z"/>
	</g>
	<g>
		<polygon points="309.8334961,631.5 297,579.5 314.2001953,579.5 323.7333984,631.5 		"/>
		<path d="M296.1669922,628.1669922c22.4970703,0,35.9995117-13.7695312,35.9995117-48.6669922h16.0004883
			c0,38.3476562-20.6777344,60-52,60V628.1669922z"/>
	</g>
	<g>
		<polygon points="308.5,781.5 296,729.5 316.2001953,729.5 324.5,781.5 		"/>
		<path d="M296,776.5c22.4814453,0,34-11.515625,34-47h19c0,39.1484375-19.8496094,60-53,60V776.5z"/>
	</g>
</g>
<g>
	<path d="M503.5-159c0,11.8984375,0.5566406,13,20,13v2c-19.8398438,0-22-1.4248047-22-15v-11.5h28c8.4179688,0,12,3.609375,12,11
		v41h-40v-2h38v-39c0-6.3925781-2.8964844-9-10-9h-26V-159z"/>
	<path d="M529.5-20.5c8.9492188,0,12.9160156,3.9326172,12.9160156,11.75v40.2495117h-41.8330078V27.5h37.2333984V-8.25
		c0-5.921875-2.5966797-8.25-9.0839844-8.25H505.25v8.2495117c0,10.5527344,0.6464844,11.4838867,17.8330078,11.4838867v3.9326172
		c-19.9404297,0-22.5-1.9077148-22.5-15.4165039V-20.5H529.5z"/>
	<path d="M529.5,129.5c9.4814453,0,13.8330078,4.2563477,13.8330078,12.5v39.5h-43.6669922v-6h36.4677734V143
		c0-5.4511719-2.2978516-7.5-8.1669922-7.5H507v7c0,9.2060547,0.7373047,9.9667969,15.6669922,9.9667969v5.8662109
		c-20.0419922,0-23.0009766-2.3911133-23.0009766-15.8330078v-13H529.5z"/>
	<path d="M529.5,279.5c10.0126953,0,14.75,4.5800781,14.75,13.25v38.75h-45.5v-8h35.7001953v-29.25
		c0-4.9804688-1.9970703-6.75-7.25-6.75H508.75v5.75c0,7.8603516,0.828125,8.4501953,13.5,8.4501953V309.5
		c-20.1425781,0-23.5-2.875-23.5-16.25V279.5H529.5z"/>
	<path d="M545.1660156,481.5h-47.3330078v-9.6669922h34.5341797v-26.6669922c0-4.5087891-1.6972656-6-6.3339844-6h-15.2001953V444
		c0,6.7695312,0.7587891,7.2998047,11,7.2998047v8.8662109c-20.2431641,0-24-3.359375-24-16.1660156v-14.5H529.5
		c10.5439453,0,15.6660156,4.9033203,15.6660156,14V481.5z"/>
	<path d="M546.0839844,631.5h-49.1669922v-11.3330078h33.3662109v-24.0839844c0-4.0380859-1.3964844-5.25-5.4160156-5.25
		h-11.9501953V594.75c0,5.6796875,0.6884766,6.1503906,8.5,6.1503906v9.9335938c-20.3447266,0-24.5-3.8447266-24.5-16.0839844V579.5
		H529.5c11.0761719,0,16.5839844,5.2275391,16.5839844,14.75V631.5z"/>
	<path d="M547,781.5h-51v-13h32.2001953V747c0-3.5673828-1.0966797-4.5-4.5-4.5H515v3c0,4.5888672,0.6191406,5,6,5v11
		c-20.4453125,0-25-4.328125-25-16v-16h33.5c11.6074219,0,17.5,5.5517578,17.5,15.5V781.5z"/>
</g>
<g>
	<path d="M439.5-159.5c0-6.3925781-2.8964844-9-10-9h-26v13.5c0,11.8984375,0.5561523,13,20,13v2c-19.840332,0-22-1.4248047-22-15
		v-15.5h28c8.4179688,0,12,3.609375,12,11v63h-2V-159.5z"/>
	<path d="M437.8164062-8.25c0-5.921875-2.5966797-8.25-9.0830078-8.25h-23.4838867v12.25
		c0,10.5522461,0.6469727,11.4833984,17.8334961,11.4833984v4c-19.9414062,0-22.5-1.9086914-22.5-15.4169922V-20.5H429.5
		c8.9492188,0,12.9160156,3.9326172,12.9160156,11.75V53.5h-4.5996094V-8.25z"/>
	<path d="M436.1337891,143c0-5.4511719-2.296875-7.5-8.1669922-7.5H407v11c0,9.206543,0.7373047,9.9667969,15.6660156,9.9667969v6
		c-20.0419922,0-22.9990234-2.3916016-22.9990234-15.8330078V129.5H429.5c9.4814453,0,13.8339844,4.2563477,13.8339844,12.5v61.5
		h-7.2001953V143z"/>
	<path d="M434.4501953,294.25c0-4.9804688-1.9970703-6.75-7.25-6.75H408.75v9.75c0,7.8603516,0.828125,8.4501953,13.5,8.4501953v8
		c-20.1430664,0-23.5-2.875-23.5-16.25V279.5h30.75c10.0126953,0,14.75,4.5800781,14.75,13.25v60.75h-9.7998047V294.25z"/>
	<path d="M432.3671875,445.1660156c0-4.5087891-1.6972656-6-6.3339844-6h-15.2001953V448
		c0,6.7695312,0.7587891,7.2998047,11,7.2998047v9.6669922c-20.2441406,0-24-3.359375-24-16.1669922V429.5H429.5
		c10.5439453,0,15.6660156,4.9033203,15.6660156,14v60h-12.7988281V445.1660156z"/>
	<path d="M430.2832031,596.0830078c0-4.0380859-1.3964844-5.25-5.4160156-5.25h-11.9501953V598.75
		c0,5.6796875,0.6889648,6.1503906,8.5,6.1503906v11.3330078c-20.3447266,0-24.5004883-3.84375-24.5004883-16.0830078V579.5H429.5
		c11.0761719,0,16.5830078,5.2275391,16.5830078,14.75v59.25h-15.7998047V596.0830078z"/>
	<path d="M428.2001953,747c0-3.5673828-1.0966797-4.5-4.5-4.5H415v7c0,4.5888672,0.6196289,5,6,5v13
		c-20.4453125,0-25-4.328125-25-16v-22h33.5c11.6074219,0,17.5,5.5517578,17.5,15.5v58.5h-18.7998047V747z"/>
</g>
<g>
	<g>
		<polygon points="622.5,-132.4882812 622.5,-96.5 620.5,-96.5 620.5,-132 600.5,-170.5 602.7539062,-170.5 		"/>
		<path d="M642.5-170.5l-5.4121094,16.9560547c-5.4570312,13.6337891-9.5791016,18.9267578-15.03125,21.9628906
			l-0.9726562-1.7470703c4.5664062-2.5439453,8.5234375-6.9287109,14.1210938-20.8925781L640.4003906-170.5H642.5z"/>
	</g>
	<g>
		<polygon points="623.6162109,17.5927734 623.6162109,53.5 618.75,53.5 618.75,17.8330078 599.4160156,-20.5 604.5019531,-20.5 		
			"/>
		<path d="M620.5458984,15.0917969c4.9169922-2.5361328,8.6494141-6.7529297,13.7167969-19.6401367L639-20.5h4.5830078
			l-4.9814453,16.6230469c-5.0234375,13.3378906-9.421875,19.0429688-15.7304688,22.5429688L620.5458984,15.0917969z"/>
	</g>
	<g>
		<polygon points="624.7333984,167.6748047 624.7333984,203.5 617,203.5 617,167.6669922 598.3339844,129.5 606.2509766,129.5 		"/>
		<path d="M620.0078125,163.5117188c5.2675781-2.5283203,8.7753906-6.5766602,13.3125-18.3876953L637.6005859,129.5h7.0654297
			l-4.5507812,16.2900391c-4.5898438,13.0429688-9.2646484,19.1591797-16.4296875,23.1240234L620.0078125,163.5117188z"/>
	</g>
	<g>
		<polygon points="625.8496094,317.7558594 625.8496094,353.5 615.25,353.5 615.25,317.5 597.25,279.5 608,279.5 		"/>
		<path d="M619.4707031,311.9316406c5.6171875-2.5205078,8.9003906-6.4003906,12.9072266-17.1347656L636.2001953,279.5H645.75
			l-4.1210938,15.9570312c-4.15625,12.7470703-9.1074219,19.2753906-17.1298828,23.7050781L619.4707031,311.9316406z"/>
	</g>
	<g>
		<polygon points="613.5,467.3330078 596.1660156,429.5 610,429.5 627.2324219,467.8369141 627.2324219,503.5 613.5,503.5 		"/>
		<path d="M618.8222656,460.3154297c5.8203125-2.2578125,8.7666016-5.6054688,12.2871094-15.8691406L634.4667969,429.5h12.3662109
			l-3.6904297,15.6240234c-3.75,12.6318359-9.0410156,19.4912109-17.6630859,24.2851562L618.8222656,460.3154297z"/>
	</g>
	<g>
		<polygon points="611.75,617.1669922 595.0830078,579.5 612,579.5 628.6162109,617.9179688 628.6162109,653.5 611.75,653.5 		"/>
		<path d="M618.1757812,608.6992188c6.0224609-1.9941406,8.6318359-4.8095703,11.6660156-14.6025391L632.7333984,579.5h15.1835938
			l-3.2607422,15.2919922c-3.34375,12.515625-8.9746094,19.7060547-18.1953125,24.8642578L618.1757812,608.6992188z"/>
	</g>
	<g>
		<polygon points="610,767 594,729.5 614,729.5 630,768 630,803.5 610,803.5 		"/>
		<path d="M646.1699219,744.4589844c-2.9375,12.4003906-8.9082031,19.921875-18.7285156,25.4453125l-9.9130859-12.8212891
			c6.2255859-1.7314453,8.4980469-4.0136719,11.0449219-13.3359375L631,729.5h18L646.1699219,744.4589844z"/>
	</g>
</g>
<g>
	<g>
		<path d="M736.3701172-120.7001953C723.796875-128.2021484,713.3925781-141.3095703,700.5-170.5h2.1914062
			c14.6621094,32.9667969,25.7314453,43.859375,37.8085938,50v2h-40v-2h35.8701172V-120.7001953z"/>
		<path d="M742.5-170.5l-5.4121094,16.9560547c-4.9130859,13.0126953-8.6230469,18.0644531-13.53125,20.9628906
			l-1.0166016-1.7216797c4.0830078-2.4121094,7.6259766-6.5839844,12.6591797-19.8994141L740.4003906-170.5H742.5z"/>
	</g>
	<g>
		<path d="M733.3085938,27.2993164C721.0605469,19.5170898,711.1787109,6.6640625,699.5830078-20.5h5.0439453
			c12.5273438,29.671875,23.4384766,41.3017578,36.4560547,48v3.9995117h-41.5V27.5h33.7255859V27.2993164z"/>
		<path d="M721.3496094,14.4414062c4.5947266-2.4477539,8.0507812-6.5224609,12.7421875-18.9775391L738.8339844-20.5h4.5820312
			l-4.9814453,16.6230469C733.7734375,9.046875,729.6503906,14.5908203,723.703125,18L721.3496094,14.4414062z"/>
	</g>
	<g>
		<path d="M730.2470703,175.2998047c-11.921875-8.0634766-21.2822266-20.6611328-31.5800781-45.7998047h7.8964844
			c10.3916016,26.3779297,21.1455078,38.7451172,35.1035156,46v6h-43v-6h31.5800781V175.2998047z"/>
		<path d="M720.1601562,163.1865234c5.1054688-2.4838867,8.4755859-6.4614258,12.8251953-18.0561523L737.2666016,129.5h7.0664062
			l-4.5517578,16.2900391c-4.4082031,12.8359375-8.9453125,18.8720703-15.9296875,22.7910156L720.1601562,163.1865234z"/>
	</g>
	<g>
		<path d="M727.1855469,323.2998047c-11.5957031-8.34375-20.4335938-20.6875-29.4355469-43.7998047h10.75
			c8.2558594,23.0830078,18.8515625,36.1875,33.75,44v8h-44.5v-8h29.4355469V323.2998047z"/>
		<path d="M718.9707031,311.9316406c5.6171875-2.5205078,8.9003906-6.4003906,12.9072266-17.1347656L735.7001953,279.5H745.25
			l-4.1210938,15.9570312c-4.15625,12.7470703-9.1074219,19.2753906-17.1298828,23.7050781L718.9707031,311.9316406z"/>
	</g>
	<g>
		<path d="M724.1230469,471.6328125C713.1103516,463.1933594,704.6201172,450.796875,696.8330078,429.5h13.8330078
			c6.5947266,21.1132812,16.9794922,34.3046875,32.1669922,42.3330078V481.5h-46v-9.6669922h27.2900391V471.6328125z"/>
		<path d="M718.15625,460.3154297c5.8203125-2.2578125,8.7666016-5.6054688,12.2871094-15.8691406L733.7998047,429.5h12.3662109
			l-3.6904297,15.6240234c-3.75,12.6318359-9.0410156,19.4912109-17.6630859,24.2851562L718.15625,460.3154297z"/>
	</g>
	<g>
		<path d="M721.0625,619.9667969c-10.4316406-8.5351562-18.5732422-20.9853516-25.1455078-40.4667969h16.9169922
			c4.9316406,19.1445312,15.1064453,32.421875,30.5820312,40.6669922V631.5h-47.4990234v-11.3330078H721.0625V619.9667969z"/>
		<path d="M717.3417969,608.6992188c6.0234375-1.9941406,8.6328125-4.8095703,11.6660156-14.6025391L731.9003906,579.5h15.1835938
			l-3.2607422,15.2919922c-3.34375,12.515625-8.9746094,19.7060547-18.1962891,24.8642578L717.3417969,608.6992188z"/>
	</g>
	<g>
		<path d="M718,768.2998047c-9.8476562-8.6308594-17.6425781-21.1337891-23-38.7998047h20
			c3.2714844,17.1748047,13.234375,30.5390625,29,39v13h-49v-13h23V768.2998047z"/>
		<path d="M745.1699219,744.4589844c-2.9375,12.4003906-8.9082031,19.921875-18.7285156,25.4453125l-9.9130859-12.8212891
			c6.2255859-1.7314453,8.4980469-4.0136719,11.0449219-13.3359375L730,729.5h18L745.1699219,744.4589844z"/>
	</g>
</g>
<g>
	<g>
		<path d="M854,745c0,10.6337891-3.3330078,22.4560547-11,36.5h-20c8.7089844-14.8085938,12-24.9648438,12-34.5
			c0-3.3720703-1.0957031-4.5-4.5-4.5h-37v-13h43C848.1074219,729.5,854,735.0517578,854,745z"/>
		<rect x="800.5" y="752.5" width="19" height="51"/>
	</g>
	<g>
		<path d="M853,594.25c0,10.9521484-4.125,23.1025391-13.2597656,37.25h-16.9072266
			C832.9746094,616.6318359,837,605.8710938,837,595.9160156c0-3.7089844-1.3964844-5.0830078-5.4169922-5.0830078h-37.5V579.5
			h42.3330078C847.4921875,579.5,853,584.7275391,853,594.25z"/>
		<rect x="801.3330078" y="601.0830078" width="16" height="52.4169922"/>
	</g>
	<g>
		<path d="M852,443.5c0,11.2714844-4.9150391,23.7490234-15.5195312,38h-13.8134766
			C834.2421875,466.5732422,839,455.2070312,839,444.8330078c0-4.0458984-1.6962891-5.6660156-6.3330078-5.6660156h-38V429.5
			h41.6660156C846.8779297,429.5,852,434.4042969,852,443.5z"/>
		<rect x="802.1669922" y="449.6669922" width="12.9990234" height="53.8330078"/>
	</g>
	<g>
		<path d="M851,292.75c0,11.5898438-5.7060547,24.3955078-17.7792969,38.75H822.5c13.0087891-14.9863281,18.5-26.9570312,18.5-37.75
			c0-4.3828125-1.9960938-6.25-7.25-6.25h-38.5v-8h41C846.2626953,279.5,851,284.0800781,851,292.75z"/>
		<rect x="803" y="298.25" width="10" height="55.25"/>
	</g>
	<g>
		<path d="M836.1660156,129.5C845.6474609,129.5,850,133.7558594,850,142c0,11.9238281-6.1894531,25.0571289-18.9277344,39.4995117
			H823c13.6738281-15.0454102,19.6660156-27.6206055,19.6660156-38.8330078c0-5.0527344-2.2958984-7.1665039-8.1660156-7.1665039
			h-38.6669922v-6H836.1660156z"/>
		<rect x="803.8330078" y="146.5" width="7.3330078" height="57"/>
	</g>
	<g>
		<path d="M836.0830078-20.5C845.0332031-20.5,849-16.5673828,849-8.75c0,12.2578125-6.6708984,25.71875-20.0761719,40.25H823.5
			c14.3388672-15.1054688,20.8330078-28.2851562,20.8330078-39.9165039c0-5.7226562-2.5957031-8.0834961-9.0830078-8.0834961
			h-38.8330078v-4H836.0830078z"/>
		<rect x="804.6660156" y="-5.25" width="4.6669922" height="58.75"/>
	</g>
	<g>
		<path d="M836-170.5h-39v2h39c7.1035156,0,10,2.6074219,10,9c0,12.0507812-6.9960938,25.8349609-22,41h2.7753906
			C840.8466797-133.1191406,848-146.9082031,848-159.5C848-166.890625,844.4179688-170.5,836-170.5z"/>
		<rect x="805.5" y="-157" width="2" height="60.5"/>
	</g>
</g>
</svg>
