<?xml version="1.0" encoding="utf-8"?>
<!-- Generator: Adobe Illustrator 15.0.2, SVG Export Plug-In . SVG Version: 6.00 Build 0)  -->
<!DOCTYPE svg PUBLIC "-//W3C//DTD SVG 1.1//EN" "http://www.w3.org/Graphics/SVG/1.1/DTD/svg11.dtd">
<svg version="1.1" id="レイヤー1" xmlns="http://www.w3.org/2000/svg" xmlns:xlink="http://www.w3.org/1999/xlink" x="0px"
	 y="0px" width="841.8896484px" height="595.2753906px" viewBox="0 0 841.8896484 595.2753906"
	 enable-background="new 0 0 841.8896484 595.2753906" xml:space="preserve">
<g>
	<rect x="71.5" y="-226.5" fill="none" stroke="#000000" stroke-width="0.25" width="100" height="150"/>
	<rect x="71.5" y="-76.5" fill="none" stroke="#000000" stroke-width="0.25" width="100" height="150"/>
	<rect x="71.5" y="73.5" fill="none" stroke="#000000" stroke-width="0.25" width="100" height="150"/>
	<rect x="71.5" y="223.5" fill="none" stroke="#000000" stroke-width="0.25" width="100" height="150"/>
	<rect x="71.5" y="373.5" fill="none" stroke="#000000" stroke-width="0.25" width="100" height="150"/>
	<rect x="71.5" y="523.5" fill="none" stroke="#000000" stroke-width="0.25" width="100" height="150"/>
	<rect x="71.5" y="673.5" fill="none" stroke="#000000" stroke-width="0.25" width="100" height="150"/>
	<rect x="171.5" y="-226.5" fill="none" stroke="#000000" stroke-width="0.25" width="100" height="150"/>
	<rect x="171.5" y="-76.5" fill="none" stroke="#000000" stroke-width="0.25" width="100" height="150"/>
	<rect x="171.5" y="73.5" fill="none" stroke="#000000" stroke-width="0.25" width="100" height="150"/>
	<rect x="171.5" y="223.5" fill="none" stroke="#000000" stroke-width="0.25" width="100" height="150"/>
	<rect x="171.5" y="373.5" fill="none" stroke="#000000" stroke-width="0.25" width="100" height="150"/>
	<rect x="171.5" y="523.5" fill="none" stroke="#000000" stroke-width="0.25" width="100" height="150"/>
	<rect x="171.5" y="673.5" fill="none" stroke="#000000" stroke-width="0.25" width="100" height="150"/>
	<rect x="271.5" y="-226.5" fill="none" stroke="#000000" stroke-width="0.25" width="100" height="150"/>
	<rect x="271.5" y="-76.5" fill="none" stroke="#000000" stroke-width="0.25" width="100" height="150"/>
	<rect x="271.5" y="73.5" fill="none" stroke="#000000" stroke-width="0.25" width="100" height="150"/>
	<rect x="271.5" y="223.5" fill="none" stroke="#000000" stroke-width="0.25" width="100" height="150"/>
	<rect x="271.5" y="373.5" fill="none" stroke="#000000" stroke-width="0.25" width="100" height="150"/>
	<rect x="271.5" y="523.5" fill="none" stroke="#000000" stroke-width="0.25" width="100" height="150"/>
	<rect x="271.5" y="673.5" fill="none" stroke="#000000" stroke-width="0.25" width="100" height="150"/>
	<rect x="371.5" y="-226.5" fill="none" stroke="#000000" stroke-width="0.25" width="100" height="150"/>
	<rect x="371.5" y="-76.5" fill="none" stroke="#000000" stroke-width="0.25" width="100" height="150"/>
	<rect x="371.5" y="73.5" fill="none" stroke="#000000" stroke-width="0.25" width="100" height="150"/>
	<rect x="371.5" y="223.5" fill="none" stroke="#000000" stroke-width="0.25" width="100" height="150"/>
	<rect x="371.5" y="373.5" fill="none" stroke="#000000" stroke-width="0.25" width="100" height="150"/>
	<rect x="371.5" y="523.5" fill="none" stroke="#000000" stroke-width="0.25" width="100" height="150"/>
	<rect x="371.5" y="673.5" fill="none" stroke="#000000" stroke-width="0.25" width="100" height="150"/>
	<rect x="471.5" y="-226.5" fill="none" stroke="#000000" stroke-width="0.25" width="100" height="150"/>
	<rect x="471.5" y="-76.5" fill="none" stroke="#000000" stroke-width="0.25" width="100" height="150"/>
	<rect x="471.5" y="73.5" fill="none" stroke="#000000" stroke-width="0.25" width="100" height="150"/>
	<rect x="471.5" y="223.5" fill="none" stroke="#000000" stroke-width="0.25" width="100" height="150"/>
	<rect x="471.5" y="373.5" fill="none" stroke="#000000" stroke-width="0.25" width="100" height="150"/>
	<rect x="471.5" y="523.5" fill="none" stroke="#000000" stroke-width="0.25" width="100" height="150"/>
	<rect x="471.5" y="673.5" fill="none" stroke="#000000" stroke-width="0.25" width="100" height="150"/>
	<rect x="571.5" y="-226.5" fill="none" stroke="#000000" stroke-width="0.25" width="100" height="150"/>
	<rect x="571.5" y="-76.5" fill="none" stroke="#000000" stroke-width="0.25" width="100" height="150"/>
	<rect x="571.5" y="73.5" fill="none" stroke="#000000" stroke-width="0.25" width="100" height="150"/>
	<rect x="571.5" y="223.5" fill="none" stroke="#000000" stroke-width="0.25" width="100" height="150"/>
	<rect x="571.5" y="373.5" fill="none" stroke="#000000" stroke-width="0.25" width="100" height="150"/>
	<rect x="571.5" y="523.5" fill="none" stroke="#000000" stroke-width="0.25" width="100" height="150"/>
	<rect x="571.5" y="673.5" fill="none" stroke="#000000" stroke-width="0.25" width="100" height="150"/>
	<rect x="671.5" y="-226.5" fill="none" stroke="#000000" stroke-width="0.25" width="100" height="150"/>
	<rect x="671.5" y="-76.5" fill="none" stroke="#000000" stroke-width="0.25" width="100" height="150"/>
	<rect x="671.5" y="73.5" fill="none" stroke="#000000" stroke-width="0.25" width="100" height="150"/>
	<rect x="671.5" y="223.5" fill="none" stroke="#000000" stroke-width="0.25" width="100" height="150"/>
	<rect x="671.5" y="373.5" fill="none" stroke="#000000" stroke-width="0.25" width="100" height="150"/>
	<rect x="671.5" y="523.5" fill="none" stroke="#000000" stroke-width="0.25" width="100" height="150"/>
	<rect x="671.5" y="673.5" fill="none" stroke="#000000" stroke-width="0.25" width="100" height="150"/>
	<rect x="771.5" y="-226.5" fill="none" stroke="#000000" stroke-width="0.25" width="100" height="150"/>
	<rect x="771.5" y="-76.5" fill="none" stroke="#000000" stroke-width="0.25" width="100" height="150"/>
	<rect x="771.5" y="73.5" fill="none" stroke="#000000" stroke-width="0.25" width="100" height="150"/>
	<rect x="771.5" y="223.5" fill="none" stroke="#000000" stroke-width="0.25" width="100" height="150"/>
	<rect x="771.5" y="373.5" fill="none" stroke="#000000" stroke-width="0.25" width="100" height="150"/>
	<rect x="771.5" y="523.5" fill="none" stroke="#000000" stroke-width="0.25" width="100" height="150"/>
	<rect x="771.5" y="673.5" fill="none" stroke="#000000" stroke-width="0.25" width="100" height="150"/>
</g>
<g>
	<path d="M102-168.5v-2h20.5c8.418457,0,12,3.609375,12,11v41h-2v-41c0-6.3925781-2.8969727-9-10-9H102z"/>
	<path d="M101.1660156-16.5v-4h21.5004883c8.949707,0,12.9165039,3.9326172,12.9165039,11.75v40.2495117h-4.8666992V-8.25
		c0-5.921875-2.5966797-8.25-9.0830078-8.25H101.1660156z"/>
	<path d="M100.3330078,135.5v-6h22.5c9.4814453,0,13.8339844,4.2563477,13.8339844,12.5v39.5h-7.7338867V143
		c0-5.4511719-2.2963867-7.5-8.1665039-7.5H100.3330078z"/>
	<path d="M99.5,287.5v-8H123c10.0126953,0,14.75,4.5800781,14.75,13.25v38.75h-10.6000977v-37.25
		c0-4.9804688-1.996582-6.75-7.25-6.75H99.5z"/>
	<path fill="#17100E" d="M98.6665039,439.1660156V429.5h24.4995117c10.5444336,0,15.6669922,4.9033203,15.6669922,14v38h-13.7333984
		v-36.3339844c0-4.5087891-1.6962891-6-6.3330078-6H98.6665039z"/>
	<path fill="#0C0807" d="M97.8334961,590.8330078V579.5h25.4995117c11.0756836,0,16.5834961,5.2275391,16.5834961,14.75v37.25
		h-16.8666992v-35.4169922c0-4.0380859-1.3964844-5.25-5.4160156-5.25H97.8334961z"/>
	<path d="M97,742.5v-13h26.5c11.6069336,0,17.5,5.5517578,17.5,15.5v36.5h-20V747c0-3.5673828-1.0961914-4.5-4.5-4.5H97z"/>
</g>
<g>
	<path d="M314.3203125-120.7001953C307.3886719-126.2392578,304-138.3574219,304-158v-10.5h-8.5v-2H329
		c8.4179688,0,12,3.609375,12,11v41h-2v-41c0-6.3925781-2.8964844-9-10-9h-23v10.5c0,22.9765625,4.7109375,33.9453125,12,37.5v2
		h-22.5v-2h18.8203125V-120.7001953z"/>
	<path d="M342.4165039,31.4995117h-4.6000977V-8.25c0-5.921875-2.5966797-8.25-9.0830078-8.25h-20.9838867v9.0830078
		c0,21.6201172,4.2456055,31.4702148,11.0332031,34.9169922v3.9995117h-23.949707V27.5h17.7133789v-0.2006836
		c-6.3388672-5.362793-9.4633789-16.347168-9.4633789-34.7163086V-16.5h-8.25v-4H329.5
		c8.9492188,0,12.9165039,3.9326172,12.9165039,11.75V31.4995117z"/>
	<path d="M343.8334961,181.5h-7.199707V143c0-5.4511719-2.296875-7.5-8.1669922-7.5H309.5v7.6669922
		c0,20.2636719,3.7802734,28.9951172,10.0664062,32.3330078v6h-25.3994141v-6h16.6064453v-0.2001953
		c-5.7460938-5.1865234-8.6064453-15.0371094-8.6064453-32.1328125V135.5h-8v-6H330
		c9.4814453,0,13.8334961,4.2563477,13.8334961,12.5V181.5z"/>
	<path d="M311.25,287.5v6.25c0,18.9072266,3.3154297,26.5205078,9.0996094,29.75v8H293.5v-8H309v-0.2001953
		c-5.1533203-5.0107422-7.75-13.7275391-7.75-29.5498047v-6.25h-7.75v-8h37c10.0126953,0,14.75,4.5800781,14.75,13.25v38.75
		h-9.7998047v-37.25c0-4.9804688-1.9970703-6.75-7.25-6.75H311.25z"/>
	<path d="M346.6665039,481.5h-12.7998047v-36.3339844c0-4.5087891-1.6967773-6-6.3334961-6h-14.2001953v5.1669922
		c0,17.5791016,2.8666992,24.5742188,7.7998047,27.5V481.5h-28.2998047v-9.6669922h14.3330078v-0.2001953
		c-4.5605469-4.8339844-6.8330078-12.75-6.8330078-27.2998047v-5.1669922h-7.5V429.5H331
		c10.5439453,0,15.6665039,4.9033203,15.6665039,14V481.5z"/>
	<path d="M348.0830078,631.5h-15.7998047v-35.4169922c0-4.0380859-1.3964844-5.25-5.4165039-5.25h-11.449707v4.0830078
		c0,16.2519531,2.4174805,22.6289062,6.5,25.2509766V631.5h-29.75v-11.3330078h13.1660156v-0.2001953
		c-3.9677734-4.6582031-5.9165039-11.7744141-5.9165039-25.0507812v-4.0830078h-7.2495117V579.5H331.5
		c11.0761719,0,16.5830078,5.2275391,16.5830078,14.75V631.5z"/>
	<path d="M317.5,742.5v3c0,14.9238281,1.96875,20.6816406,5.2001953,23v13H291.5v-13h12v-0.2001953
		c-3.375-4.4814453-5-10.796875-5-22.7998047v-3h-7v-13H332c11.6074219,0,17.5,5.5517578,17.5,15.5v36.5h-18.7998047V747
		c0-3.5673828-1.0966797-4.5-4.5-4.5H317.5z"/>
</g>
<g>
	<g>
		<path d="M196.5,781.5l-7-52H207l2,38.5h3c14.734375,0,24.5-11.5458984,24.5-38.5h17c0,37.4130859-13.8027344,52-48.5,52H196.5z"/>
		<path d="M201.5,752.5c12.2382812,0,12.5-0.2548828,12.5-23h15.5c0,27.1669922-7.90625,35.5-26.5,35.5L201.5,752.5z"/>
	</g>
	<g>
		<path d="M197.9160156,631.5L190.5,579.5h15.3330078l3.25,40.25h2.0834961c15.3598633,0,26.75-13.2070312,26.75-40.25h14.5830078
			c0,36.1376953-14.9272461,52-47.1665039,52H197.9160156z"/>
		<path d="M201.9165039,604.6660156c11.1708984,0,13.25-2.6132812,13.25-25.1660156h13.4165039
			c0,26.5566406-8.5576172,36.0830078-25.25,36.0830078L201.9165039,604.6660156z"/>
	</g>
	<g>
		<path d="M199.3330078,481.5L191.5,429.5h13.1669922l4.4995117,42h1.1669922c15.9858398,0,28.9995117-14.8671875,28.9995117-42
			H251.5c0,34.8632812-16.0522461,52-45.8330078,52H199.3330078z"/>
		<path d="M202.3334961,456.8330078c10.1040039,0,13.9995117-4.9736328,13.9995117-27.3330078h11.3339844
			c0,25.9462891-9.2099609,36.6669922-24.0004883,36.6669922L202.3334961,456.8330078z"/>
	</g>
	<g>
		<path d="M250.5,279.5c0,33.5878906-17.1767578,52-44.5,52h-5.25l-8.25-52h11l5.75,43.75h0.25
			c16.6113281,0,31.25-16.5283203,31.25-43.75H250.5z"/>
		<path d="M202.75,309c9.0366211,0,14.75-7.3330078,14.75-29.5h9.25c0,25.3359375-9.8608398,37.25-22.75,37.25L202.75,309z"/>
	</g>
	<g>
		<path d="M249.4995117,129.5c0,32.3125-18.3012695,51.9995117-43.1665039,51.9995117h-4.1665039L193.5,129.5h8.0107422
			l6.8779297,45.8330078h0.277832c17.144043,0,33.6665039-17.8632812,33.6665039-45.8330078H249.4995117z"/>
		<path d="M203,161.4995117c7.9697266,0,15.4995117-9.6918945,15.4995117-31.9995117h6.8334961
			c0,24.3969727-10.2612305,37.8330078-21.5,37.8330078L203,161.4995117z"/>
	</g>
	<g>
		<path d="M248.5-20.5c0,31.0371094-19.4257812,52-41.8334961,52h-3.0830078L194.5-20.5h5.0224609l8.0058594,47.9169922h0.3046875
			c17.6777344,0,36.0839844-19.1992188,36.0839844-47.9169922H248.5z"/>
		<path d="M203.25,14c6.9033203,0,16.25-12.0507812,16.25-34.5h4.4169922c0,23.4584961-10.6621094,38.4169922-20.25,38.4169922
			L203.25,14z"/>
	</g>
	<g>
		<path d="M247.5-170.5c0,29.7617188-20.5498047,52-40.5,52h-2l-9.5-52h2.0332031l9.1342773,50H207
			c18.2099609,0,38.5-20.5341797,38.5-50H247.5z"/>
		<path d="M203.5-133.5c5.8369141,0,17-14.4091797,17-37h2c0,22.5195312-11.0615234,39-19,39V-133.5z"/>
	</g>
</g>
</svg>
