<?xml version="1.0" encoding="utf-8"?>
<!-- Generator: Adobe Illustrator 15.0.2, SVG Export Plug-In . SVG Version: 6.00 Build 0)  -->
<!DOCTYPE svg PUBLIC "-//W3C//DTD SVG 1.1//EN" "http://www.w3.org/Graphics/SVG/1.1/DTD/svg11.dtd">
<svg version="1.1" id="レイヤー1" xmlns="http://www.w3.org/2000/svg" xmlns:xlink="http://www.w3.org/1999/xlink" x="0px"
	 y="0px" width="841.8896484px" height="595.2753906px" viewBox="0 0 841.8896484 595.2753906"
	 enable-background="new 0 0 841.8896484 595.2753906" xml:space="preserve">
<g>
	<rect x="71.5" y="-226.5" fill="none" stroke="#000000" stroke-width="0.25" width="100" height="150"/>
	<rect x="71.5" y="-76.5" fill="none" stroke="#000000" stroke-width="0.25" width="100" height="150"/>
	<rect x="71.5" y="73.5" fill="none" stroke="#000000" stroke-width="0.25" width="100" height="150"/>
	<rect x="71.5" y="223.5" fill="none" stroke="#000000" stroke-width="0.25" width="100" height="150"/>
	<rect x="71.5" y="373.5" fill="none" stroke="#000000" stroke-width="0.25" width="100" height="150"/>
	<rect x="71.5" y="523.5" fill="none" stroke="#000000" stroke-width="0.25" width="100" height="150"/>
	<rect x="71.5" y="673.5" fill="none" stroke="#000000" stroke-width="0.25" width="100" height="150"/>
	<rect x="171.5" y="-226.5" fill="none" stroke="#000000" stroke-width="0.25" width="100" height="150"/>
	<rect x="171.5" y="-76.5" fill="none" stroke="#000000" stroke-width="0.25" width="100" height="150"/>
	<rect x="171.5" y="73.5" fill="none" stroke="#000000" stroke-width="0.25" width="100" height="150"/>
	<rect x="171.5" y="223.5" fill="none" stroke="#000000" stroke-width="0.25" width="100" height="150"/>
	<rect x="171.5" y="373.5" fill="none" stroke="#000000" stroke-width="0.25" width="100" height="150"/>
	<rect x="171.5" y="523.5" fill="none" stroke="#000000" stroke-width="0.25" width="100" height="150"/>
	<rect x="171.5" y="673.5" fill="none" stroke="#000000" stroke-width="0.25" width="100" height="150"/>
	<rect x="271.5" y="-226.5" fill="none" stroke="#000000" stroke-width="0.25" width="100" height="150"/>
	<rect x="271.5" y="-76.5" fill="none" stroke="#000000" stroke-width="0.25" width="100" height="150"/>
	<rect x="271.5" y="73.5" fill="none" stroke="#000000" stroke-width="0.25" width="100" height="150"/>
	<rect x="271.5" y="223.5" fill="none" stroke="#000000" stroke-width="0.25" width="100" height="150"/>
	<rect x="271.5" y="373.5" fill="none" stroke="#000000" stroke-width="0.25" width="100" height="150"/>
	<rect x="271.5" y="523.5" fill="none" stroke="#000000" stroke-width="0.25" width="100" height="150"/>
	<rect x="271.5" y="673.5" fill="none" stroke="#000000" stroke-width="0.25" width="100" height="150"/>
	<rect x="371.5" y="-226.5" fill="none" stroke="#000000" stroke-width="0.25" width="100" height="150"/>
	<rect x="371.5" y="-76.5" fill="none" stroke="#000000" stroke-width="0.25" width="100" height="150"/>
	<rect x="371.5" y="73.5" fill="none" stroke="#000000" stroke-width="0.25" width="100" height="150"/>
	<rect x="371.5" y="223.5" fill="none" stroke="#000000" stroke-width="0.25" width="100" height="150"/>
	<rect x="371.5" y="373.5" fill="none" stroke="#000000" stroke-width="0.25" width="100" height="150"/>
	<rect x="371.5" y="523.5" fill="none" stroke="#000000" stroke-width="0.25" width="100" height="150"/>
	<rect x="371.5" y="673.5" fill="none" stroke="#000000" stroke-width="0.25" width="100" height="150"/>
	<rect x="471.5" y="-226.5" fill="none" stroke="#000000" stroke-width="0.25" width="100" height="150"/>
	<rect x="471.5" y="-76.5" fill="none" stroke="#000000" stroke-width="0.25" width="100" height="150"/>
	<rect x="471.5" y="73.5" fill="none" stroke="#000000" stroke-width="0.25" width="100" height="150"/>
	<rect x="471.5" y="223.5" fill="none" stroke="#000000" stroke-width="0.25" width="100" height="150"/>
	<rect x="471.5" y="373.5" fill="none" stroke="#000000" stroke-width="0.25" width="100" height="150"/>
	<rect x="471.5" y="523.5" fill="none" stroke="#000000" stroke-width="0.25" width="100" height="150"/>
	<rect x="471.5" y="673.5" fill="none" stroke="#000000" stroke-width="0.25" width="100" height="150"/>
	<rect x="571.5" y="-226.5" fill="none" stroke="#000000" stroke-width="0.25" width="100" height="150"/>
	<rect x="571.5" y="-76.5" fill="none" stroke="#000000" stroke-width="0.25" width="100" height="150"/>
	<rect x="571.5" y="73.5" fill="none" stroke="#000000" stroke-width="0.25" width="100" height="150"/>
	<rect x="571.5" y="223.5" fill="none" stroke="#000000" stroke-width="0.25" width="100" height="150"/>
	<rect x="571.5" y="373.5" fill="none" stroke="#000000" stroke-width="0.25" width="100" height="150"/>
	<rect x="571.5" y="523.5" fill="none" stroke="#000000" stroke-width="0.25" width="100" height="150"/>
	<rect x="571.5" y="673.5" fill="none" stroke="#000000" stroke-width="0.25" width="100" height="150"/>
	<rect x="671.5" y="-226.5" fill="none" stroke="#000000" stroke-width="0.25" width="100" height="150"/>
	<rect x="671.5" y="-76.5" fill="none" stroke="#000000" stroke-width="0.25" width="100" height="150"/>
	<rect x="671.5" y="73.5" fill="none" stroke="#000000" stroke-width="0.25" width="100" height="150"/>
	<rect x="671.5" y="223.5" fill="none" stroke="#000000" stroke-width="0.25" width="100" height="150"/>
	<rect x="671.5" y="373.5" fill="none" stroke="#000000" stroke-width="0.25" width="100" height="150"/>
	<rect x="671.5" y="523.5" fill="none" stroke="#000000" stroke-width="0.25" width="100" height="150"/>
	<rect x="671.5" y="673.5" fill="none" stroke="#000000" stroke-width="0.25" width="100" height="150"/>
	<rect x="771.5" y="-226.5" fill="none" stroke="#000000" stroke-width="0.25" width="100" height="150"/>
	<rect x="771.5" y="-76.5" fill="none" stroke="#000000" stroke-width="0.25" width="100" height="150"/>
	<rect x="771.5" y="73.5" fill="none" stroke="#000000" stroke-width="0.25" width="100" height="150"/>
	<rect x="771.5" y="223.5" fill="none" stroke="#000000" stroke-width="0.25" width="100" height="150"/>
	<rect x="771.5" y="373.5" fill="none" stroke="#000000" stroke-width="0.25" width="100" height="150"/>
	<rect x="771.5" y="523.5" fill="none" stroke="#000000" stroke-width="0.25" width="100" height="150"/>
	<rect x="771.5" y="673.5" fill="none" stroke="#000000" stroke-width="0.25" width="100" height="150"/>
</g>
<g>
	<g>
		<path d="M100-168.5c7.1030273,0,10,2.6074219,10,9v41h2v-41c0-7.390625-3.581543-11-12-11h-8.5v2H100z"/>
		<path d="M129.5-168.5c7.1030273,0,10,2.6074219,10,9v41h2v-41c0-7.390625-3.581543-11-12-11H121v2H129.5z"/>
	</g>
	<g>
		<path fill="#1D1411" d="M90.4995117-16.5v-4H100c8.949707,0,12.9165039,3.9326172,12.9165039,11.75v40.2495117H108.25V-8.25
			c0-5.921875-2.5966797-8.25-9.0834961-8.25H90.4995117z"/>
		<path fill="#1D1411" d="M121.25-16.5v-4h9.5c8.949707,0,12.9165039,3.9326172,12.9165039,11.75v40.2495117h-4.6669922V-8.25
			c0-5.921875-2.5966797-8.25-9.0830078-8.25H121.25z"/>
	</g>
	<g>
		<path fill="#17100E" d="M89.5,135.5v-6H100c9.4814453,0,13.8330078,4.2563477,13.8330078,12.5v39.5H106.5V143
			c0-5.4511719-2.296875-7.5-8.1669922-7.5H89.5z"/>
		<path fill="#17100E" d="M121.5,135.5v-6H132c9.4814453,0,13.8334961,4.2563477,13.8334961,12.5v39.5H138.5V143
			c0-5.4511719-2.296875-7.5-8.1665039-7.5H121.5z"/>
	</g>
	<g>
		<path fill="#110C0A" d="M88.5,287.5v-8H100c10.0126953,0,14.75,4.5800781,14.75,13.25v38.75h-10v-37.25
			c0-4.9804688-1.996582-6.75-7.25-6.75H88.5z"/>
		<path fill="#110C0A" d="M121.75,287.5v-8h11.5c10.0126953,0,14.75,4.5800781,14.75,13.25v38.75h-10v-37.25
			c0-4.9804688-1.996582-6.75-7.25-6.75H121.75z"/>
	</g>
	<g>
		<path fill="#0B0807" d="M87.4995117,439.1660156V429.5H100c10.5439453,0,15.6660156,4.9033203,15.6660156,14v38h-12.9995117
			v-36.3339844c0-4.5087891-1.6967773-6-6.3334961-6H87.4995117z"/>
		<path fill="#0B0807" d="M122,439.1660156V429.5h12.5c10.5439453,0,15.6665039,4.9033203,15.6665039,14v38h-13.0004883v-36.3339844
			c0-4.5087891-1.6962891-6-6.3330078-6H122z"/>
	</g>
	<g>
		<path fill="#060403" d="M86.5,590.8330078V579.5H100c11.0751953,0,16.5830078,5.2275391,16.5830078,14.75v37.25h-15.9995117
			v-35.4169922c0-4.0380859-1.3964844-5.25-5.4165039-5.25H86.5z"/>
		<path fill="#060403" d="M122.25,590.8330078V579.5h13.5c11.0751953,0,16.5830078,5.2275391,16.5830078,14.75v37.25h-16
			v-35.4169922c0-4.0380859-1.3964844-5.25-5.4160156-5.25H122.25z"/>
	</g>
	<g>
		<path d="M85.5,742.5v-13H100c11.6069336,0,17.5,5.5517578,17.5,15.5v36.5h-19V747c0-3.5673828-1.0961914-4.5-4.5-4.5H85.5z"/>
		<path d="M122.5,742.5v-13H137c11.6069336,0,17.5,5.5517578,17.5,15.5v36.5h-19V747c0-3.5673828-1.0961914-4.5-4.5-4.5H122.5z"/>
	</g>
</g>
<g>
	<g>
		<path d="M200-168.5c7.1030273,0,10,2.6074219,10,9v21h2v-21c0-7.390625-3.581543-11-12-11h-8.5v2H200z"/>
		<path d="M229.5-168.5c7.1030273,0,10,2.6074219,10,9v41h2v-41c0-7.390625-3.581543-11-12-11H221v2H229.5z"/>
	</g>
	<g>
		<path fill="#1D1411" d="M190.5-16.5v-4h9.5c8.949707,0,12.9165039,3.9326172,12.9165039,11.75V11.5h-4.6669922V-8.25
			c0-5.921875-2.5966797-8.25-9.0830078-8.25H190.5z"/>
		<path fill="#1D1411" d="M221.25-16.5v-4h9.4995117c8.949707,0,12.9165039,3.9326172,12.9165039,11.75v40.2495117H239V-8.25
			c0-5.921875-2.597168-8.25-9.0839844-8.25H221.25z"/>
	</g>
	<g>
		<path fill="#17100E" d="M189.5,135.5v-6H200c9.4814453,0,13.8334961,4.2563477,13.8334961,12.5v19.5H206.5V143
			c0-5.4511719-2.296875-7.5-8.1665039-7.5H189.5z"/>
		<path fill="#17100E" d="M221.5,135.5v-6H232c9.4814453,0,13.8330078,4.2563477,13.8330078,12.5v39.5H238.5V143
			c0-5.4511719-2.296875-7.5-8.1669922-7.5H221.5z"/>
	</g>
	<g>
		<path fill="#110C0A" d="M188.5,287.5v-8H200c10.0126953,0,14.75,4.5800781,14.75,13.25v18.75h-10v-17.25
			c0-4.9804688-1.996582-6.75-7.25-6.75H188.5z"/>
		<path fill="#110C0A" d="M221.75,287.5v-8h11.5c10.0126953,0,14.75,4.5800781,14.75,13.25v38.75h-10v-37.25
			c0-4.9804688-1.996582-6.75-7.25-6.75H221.75z"/>
	</g>
	<g>
		<path fill="#0B0807" d="M187.5,439.1660156V429.5H200c10.5439453,0,15.6665039,4.9033203,15.6665039,14v18h-13.0004883
			v-16.3339844c0-4.5087891-1.6962891-6-6.3330078-6H187.5z"/>
		<path fill="#0B0807" d="M222,439.1660156V429.5h12.4995117c10.5444336,0,15.6669922,4.9033203,15.6669922,14v38h-13v-36.3339844
			c0-4.5087891-1.6962891-6-6.3334961-6H222z"/>
	</g>
	<g>
		<path fill="#060403" d="M186.5,590.8330078V579.5H200c11.0751953,0,16.5830078,5.2275391,16.5830078,14.75v17.25h-16v-15.4169922
			c0-4.0380859-1.3964844-5.25-5.4160156-5.25H186.5z"/>
		<path fill="#060403" d="M222.25,590.8330078V579.5h13.5c11.0756836,0,16.5834961,5.2275391,16.5834961,14.75v37.25h-16.0004883
			v-35.4169922c0-4.0380859-1.3955078-5.25-5.4165039-5.25H222.25z"/>
	</g>
	<g>
		<path d="M185.5,742.5v-13H200c11.6069336,0,17.5,5.5517578,17.5,15.5v16.5h-19V747c0-3.5673828-1.0961914-4.5-4.5-4.5H185.5z"/>
		<path d="M222.5,742.5v-13H237c11.6069336,0,17.5,5.5517578,17.5,15.5v36.5h-19V747c0-3.5673828-1.0961914-4.5-4.5-4.5H222.5z"/>
	</g>
</g>
<g>
	<g>
		<path d="M300-168.5c7.1030273,0,10,2.6074219,10,9v21h2v-21c0-7.390625-3.581543-11-12-11h-8.5v2H300z"/>
		<path d="M329.5-168.5c7.1035156,0,10,2.6074219,10,9v21h2v-21c0-7.390625-3.5820312-11-12-11H321v2H329.5z"/>
	</g>
	<g>
		<path fill="#1D1411" d="M290.5-16.5v-4h9.4995117c8.949707,0,12.9165039,3.9326172,12.9165039,11.75V11.5H308.25V-8.25
			c0-5.921875-2.597168-8.25-9.0839844-8.25H290.5z"/>
		<path fill="#1D1411" d="M321.2495117-16.5v-4H330.75c8.9492188,0,12.9165039,3.9326172,12.9165039,11.75V11.5H339V-8.25
			c0-5.921875-2.5966797-8.25-9.0834961-8.25H321.2495117z"/>
	</g>
	<g>
		<path fill="#17100E" d="M289.5,135.5v-6H300c9.4814453,0,13.8330078,4.2563477,13.8330078,12.5v19.5H306.5V143
			c0-5.4511719-2.296875-7.5-8.1669922-7.5H289.5z"/>
		<path fill="#17100E" d="M321.5,135.5v-6H332c9.480957,0,13.8330078,4.2563477,13.8330078,12.5v19.5H338.5V143
			c0-5.4511719-2.2958984-7.5-8.1669922-7.5H321.5z"/>
	</g>
	<g>
		<path fill="#110C0A" d="M288.5,287.5v-8H300c10.0126953,0,14.75,4.5800781,14.75,13.25v18.75h-10v-17.25
			c0-4.9804688-1.996582-6.75-7.25-6.75H288.5z"/>
		<path fill="#110C0A" d="M321.75,287.5v-8h11.5c10.0126953,0,14.75,4.5800781,14.75,13.25v18.75h-10v-17.25
			c0-4.9804688-1.9960938-6.75-7.25-6.75H321.75z"/>
	</g>
	<g>
		<path fill="#0B0807" d="M287.5,439.1660156V429.5h12.4995117c10.5444336,0,15.6669922,4.9033203,15.6669922,14v18h-13v-16.3339844
			c0-4.5087891-1.6962891-6-6.3334961-6H287.5z"/>
		<path fill="#0B0807" d="M321.9995117,439.1660156V429.5H334.5c10.5439453,0,15.6660156,4.9033203,15.6660156,14v18h-12.9995117
			v-16.3339844c0-4.5087891-1.6958008-6-6.3334961-6H321.9995117z"/>
	</g>
	<g>
		<path fill="#060403" d="M286.5,590.8330078V579.5H300c11.0756836,0,16.5834961,5.2275391,16.5834961,14.75v17.25h-16.0004883
			v-15.4169922c0-4.0380859-1.3955078-5.25-5.4165039-5.25H286.5z"/>
		<path fill="#060403" d="M322.25,590.8330078V579.5h13.5c11.0761719,0,16.5830078,5.2275391,16.5830078,14.75v17.25h-15.9995117
			v-15.4169922c0-4.0380859-1.3959961-5.25-5.4165039-5.25H322.25z"/>
	</g>
	<g>
		<path d="M285.5,742.5v-13H300c11.6069336,0,17.5,5.5517578,17.5,15.5v16.5h-19V747c0-3.5673828-1.0961914-4.5-4.5-4.5H285.5z"/>
		<path d="M322.5,742.5v-13H337c11.6074219,0,17.5,5.5517578,17.5,15.5v16.5h-19V747c0-3.5673828-1.0957031-4.5-4.5-4.5H322.5z"/>
	</g>
</g>
<g>
	<polygon points="418.4912109,-148.5 426.5,-170.5 424.3710938,-170.5 416.3632812,-148.5 	"/>
	<polygon fill="#17100E" points="422.0800781,-20.5 414.4086914,2.8330078 419.1601562,2.8330078 428.1660156,-20.5 	"/>
	<polygon fill="#0C0807" points="419.7900391,129.5 412.4545898,154.1669922 419.8300781,154.1669922 429.8339844,129.5 	"/>
	<polygon points="417.5,279.5 410.5,305.5 420.5,305.5 431.5,279.5 	"/>
	<polygon fill="#0C0807" points="421.1665039,457.5 432.5,429.5 415.8330078,429.5 409.1665039,457.5 	"/>
	<polygon fill="#17100E" points="421.8334961,609.5 433.5,579.5 414.1665039,579.5 407.8330078,609.5 	"/>
	<polygon points="422.5,761.5 434.5,729.5 412.5,729.5 406.5,761.5 	"/>
</g>
<g>
	<g>
		<polygon points="510.5,761.5 522.5,729.5 502.5,729.5 496.5,761.5 		"/>
		<polygon points="535.5,761.5 547.5,729.5 527.5,729.5 521.5,761.5 		"/>
	</g>
	<g>
		<polygon fill="#17100E" points="504.5,579.5 498.1660156,609.5 510.5,609.5 522.1660156,579.5 		"/>
		<polygon fill="#17100E" points="527.8330078,579.5 521.5,609.5 533.8330078,609.5 545.5,579.5 		"/>
	</g>
	<g>
		<polygon fill="#0C0807" points="506.5,429.5 499.8330078,457.5 510.5,457.5 521.8339844,429.5 		"/>
		<polygon fill="#0C0807" points="528.1669922,429.5 521.5,457.5 532.1669922,457.5 543.5,429.5 		"/>
	</g>
	<g>
		<polygon points="508.5,279.5 501.5,305.5 510.5,305.5 521.5,279.5 		"/>
		<polygon points="528.5,279.5 521.5,305.5 530.5,305.5 541.5,279.5 		"/>
	</g>
	<g>
		<polygon fill="#0C0807" points="510.5429688,154.1665039 520.5449219,129.5 511.1689453,129.5 503.8330078,154.1665039 		"/>
		<polygon fill="#0C0807" points="529.1640625,154.1665039 539.1660156,129.5 529.7900391,129.5 522.4541016,154.1665039 		"/>
	</g>
	<g>
		<polygon fill="#17100E" points="510.5859375,2.8330078 519.5908203,-20.5 513.8388672,-20.5 506.1660156,2.8330078 		"/>
		<polygon fill="#17100E" points="527.8271484,2.8330078 536.8330078,-20.5 531.0800781,-20.5 523.4091797,2.8330078 		"/>
	</g>
	<g>
		<polygon points="510.6279297,-148.5 518.6367188,-170.5 516.5078125,-170.5 508.5,-148.5 		"/>
		<polygon points="526.4912109,-148.5 534.5,-170.5 532.3710938,-170.5 524.3632812,-148.5 		"/>
	</g>
</g>
</svg>
