<?xml version="1.0" encoding="utf-8"?>
<!-- Generator: Adobe Illustrator 15.0.2, SVG Export Plug-In . SVG Version: 6.00 Build 0)  -->
<!DOCTYPE svg PUBLIC "-//W3C//DTD SVG 1.1//EN" "http://www.w3.org/Graphics/SVG/1.1/DTD/svg11.dtd">
<svg version="1.1" id="レイヤー1" xmlns="http://www.w3.org/2000/svg" xmlns:xlink="http://www.w3.org/1999/xlink" x="0px"
	 y="0px" width="841.8896484px" height="595.2753906px" viewBox="0 0 841.8896484 595.2753906"
	 enable-background="new 0 0 841.8896484 595.2753906" xml:space="preserve">
<g>
	<rect x="71.5" y="-226.5" fill="none" stroke="#000000" stroke-width="0.25" width="100" height="150"/>
	<rect x="171.5" y="-226.5" fill="none" stroke="#000000" stroke-width="0.25" width="100" height="150"/>
	<rect x="271.5" y="-226.5" fill="none" stroke="#000000" stroke-width="0.25" width="100" height="150"/>
	<rect x="371.5" y="-226.5" fill="none" stroke="#000000" stroke-width="0.25" width="100" height="150"/>
	<rect x="471.5" y="-226.5" fill="none" stroke="#000000" stroke-width="0.25" width="100" height="150"/>
	<rect x="571.5" y="-226.5" fill="none" stroke="#000000" stroke-width="0.25" width="100" height="150"/>
	<rect x="671.5" y="-226.5" fill="none" stroke="#000000" stroke-width="0.25" width="100" height="150"/>
	<rect x="71.5" y="-76.5" fill="none" stroke="#000000" stroke-width="0.25" width="100" height="150"/>
	<rect x="171.5" y="-76.5" fill="none" stroke="#000000" stroke-width="0.25" width="100" height="150"/>
	<rect x="271.5" y="-76.5" fill="none" stroke="#000000" stroke-width="0.25" width="100" height="150"/>
	<rect x="371.5" y="-76.5" fill="none" stroke="#000000" stroke-width="0.25" width="100" height="150"/>
	<rect x="471.5" y="-76.5" fill="none" stroke="#000000" stroke-width="0.25" width="100" height="150"/>
	<rect x="571.5" y="-76.5" fill="none" stroke="#000000" stroke-width="0.25" width="100" height="150"/>
	<rect x="671.5" y="-76.5" fill="none" stroke="#000000" stroke-width="0.25" width="100" height="150"/>
	<rect x="71.5" y="73.5" fill="none" stroke="#000000" stroke-width="0.25" width="100" height="150"/>
	<rect x="171.5" y="73.5" fill="none" stroke="#000000" stroke-width="0.25" width="100" height="150"/>
	<rect x="271.5" y="73.5" fill="none" stroke="#000000" stroke-width="0.25" width="100" height="150"/>
	<rect x="371.5" y="73.5" fill="none" stroke="#000000" stroke-width="0.25" width="100" height="150"/>
	<rect x="471.5" y="73.5" fill="none" stroke="#000000" stroke-width="0.25" width="100" height="150"/>
	<rect x="571.5" y="73.5" fill="none" stroke="#000000" stroke-width="0.25" width="100" height="150"/>
	<rect x="671.5" y="73.5" fill="none" stroke="#000000" stroke-width="0.25" width="100" height="150"/>
	<rect x="71.5" y="223.5" fill="none" stroke="#000000" stroke-width="0.25" width="100" height="150"/>
	<rect x="171.5" y="223.5" fill="none" stroke="#000000" stroke-width="0.25" width="100" height="150"/>
	<rect x="271.5" y="223.5" fill="none" stroke="#000000" stroke-width="0.25" width="100" height="150"/>
	<rect x="371.5" y="223.5" fill="none" stroke="#000000" stroke-width="0.25" width="100" height="150"/>
	<rect x="471.5" y="223.5" fill="none" stroke="#000000" stroke-width="0.25" width="100" height="150"/>
	<rect x="571.5" y="223.5" fill="none" stroke="#000000" stroke-width="0.25" width="100" height="150"/>
	<rect x="671.5" y="223.5" fill="none" stroke="#000000" stroke-width="0.25" width="100" height="150"/>
	<rect x="71.5" y="373.5" fill="none" stroke="#000000" stroke-width="0.25" width="100" height="150"/>
	<rect x="171.5" y="373.5" fill="none" stroke="#000000" stroke-width="0.25" width="100" height="150"/>
	<rect x="271.5" y="373.5" fill="none" stroke="#000000" stroke-width="0.25" width="100" height="150"/>
	<rect x="371.5" y="373.5" fill="none" stroke="#000000" stroke-width="0.25" width="100" height="150"/>
	<rect x="471.5" y="373.5" fill="none" stroke="#000000" stroke-width="0.25" width="100" height="150"/>
	<rect x="571.5" y="373.5" fill="none" stroke="#000000" stroke-width="0.25" width="100" height="150"/>
	<rect x="671.5" y="373.5" fill="none" stroke="#000000" stroke-width="0.25" width="100" height="150"/>
	<rect x="71.5" y="523.5" fill="none" stroke="#000000" stroke-width="0.25" width="100" height="150"/>
	<rect x="171.5" y="523.5" fill="none" stroke="#000000" stroke-width="0.25" width="100" height="150"/>
	<rect x="271.5" y="523.5" fill="none" stroke="#000000" stroke-width="0.25" width="100" height="150"/>
	<rect x="371.5" y="523.5" fill="none" stroke="#000000" stroke-width="0.25" width="100" height="150"/>
	<rect x="471.5" y="523.5" fill="none" stroke="#000000" stroke-width="0.25" width="100" height="150"/>
	<rect x="571.5" y="523.5" fill="none" stroke="#000000" stroke-width="0.25" width="100" height="150"/>
	<rect x="671.5" y="523.5" fill="none" stroke="#000000" stroke-width="0.25" width="100" height="150"/>
	<rect x="71.5" y="673.5" fill="none" stroke="#000000" stroke-width="0.25" width="100" height="150"/>
	<rect x="171.5" y="673.5" fill="none" stroke="#000000" stroke-width="0.25" width="100" height="150"/>
	<rect x="271.5" y="673.5" fill="none" stroke="#000000" stroke-width="0.25" width="100" height="150"/>
	<rect x="371.5" y="673.5" fill="none" stroke="#000000" stroke-width="0.25" width="100" height="150"/>
	<rect x="471.5" y="673.5" fill="none" stroke="#000000" stroke-width="0.25" width="100" height="150"/>
	<rect x="571.5" y="673.5" fill="none" stroke="#000000" stroke-width="0.25" width="100" height="150"/>
	<rect x="671.5" y="673.5" fill="none" stroke="#000000" stroke-width="0.25" width="100" height="150"/>
	<rect x="771.5" y="-226.5" fill="none" stroke="#000000" stroke-width="0.25" width="100" height="150"/>
	<rect x="771.5" y="-76.5" fill="none" stroke="#000000" stroke-width="0.25" width="100" height="150"/>
	<rect x="771.5" y="73.5" fill="none" stroke="#000000" stroke-width="0.25" width="100" height="150"/>
	<rect x="771.5" y="223.5" fill="none" stroke="#000000" stroke-width="0.25" width="100" height="150"/>
	<rect x="771.5" y="373.5" fill="none" stroke="#000000" stroke-width="0.25" width="100" height="150"/>
	<rect x="771.5" y="523.5" fill="none" stroke="#000000" stroke-width="0.25" width="100" height="150"/>
	<rect x="771.5" y="673.5" fill="none" stroke="#000000" stroke-width="0.25" width="100" height="150"/>
</g>
<g>
	<polygon points="208.9287109,708.4990234 202.5,693.4990234 190.5,693.4990234 202.5,721.4990234 248.5,721.4990234 
		248.5,708.4990234 	"/>
	<polygon fill="#17100E" points="208.6191406,559.4990234 201.6660156,544.1660156 191.1660156,544.1660156 
		203.1660156,570.8320312 247.8330078,570.8320312 247.8330078,559.4990234 	"/>
	<polygon fill="#0C0807" points="208.3095703,410.5 200.8330078,394.8330078 191.8330078,394.8330078 203.8330078,420.1660156 
		247.1669922,420.1660156 247.1669922,410.5 	"/>
	<polygon points="208,261.5 200,245.5 192.5,245.5 204.5,269.5 246.5,269.5 246.5,261.5 	"/>
	<polygon fill="#0C0807" points="245.8330078,118.5 245.8330078,112.5 207.8774414,112.5 198.9438477,95.8330078 
		193.1665039,95.8330078 205.1665039,118.5 	"/>
	<polygon fill="#17100E" points="245.1665039,-32.5 245.1665039,-36.5 207.7548828,-36.5 197.8881836,-53.8330078 
		193.8334961,-53.8330078 205.8334961,-32.5 	"/>
	<polygon points="207.6328125,-185.5 196.8320312,-203.5 194.5,-203.5 206.5,-183.5 244.5,-183.5 244.5,-185.5 	"/>
</g>
<g>
	<polygon points="334.0722656,709.5 340.5,724.5 352.5,724.5 340.5,696.5 294.5,696.5 294.5,709.5 	"/>
	<polygon points="334.3808594,558.5 341.3330078,573.8330078 351.8330078,573.8330078 339.8330078,547.1660156 
		295.1665039,547.1660156 295.1665039,558.5 	"/>
	<polygon points="334.690918,407.5 342.1665039,423.1669922 351.1665039,423.1669922 339.1665039,397.8330078 
		295.8334961,397.8330078 295.8334961,407.5 	"/>
	<polygon points="335,256.5 343,272.5 350.5,272.5 338.5,248.5 296.5,248.5 296.5,256.5 	"/>
	<polygon points="297.1665039,98.8330078 297.1665039,104.8330078 335.1220703,104.8330078 344.0556641,121.5 349.8330078,121.5 
		337.8330078,98.8330078 	"/>
	<polygon points="297.8334961,-50.8330078 297.8334961,-46.8334961 335.2446289,-46.8334961 345.1123047,-29.5 349.1669922,-29.5 
		337.1669922,-50.8330078 	"/>
	<polygon points="335.3671875,-198.5 346.1679688,-180.5 348.5,-180.5 336.5,-200.5 298.5,-200.5 298.5,-198.5 	"/>
</g>
<g>
	<polygon points="134.0712891,708.4990234 140.5,693.4990234 152.5,693.4990234 140.5,721.4990234 94.5,721.4990234 
		94.5,708.4990234 	"/>
	<polygon fill="#17100E" points="134.3803711,559.4990234 141.3330078,544.1660156 151.8330078,544.1660156 
		139.8330078,570.8320312 95.1660156,570.8320312 95.1660156,559.4990234 	"/>
	<polygon fill="#0C0807" points="134.6904297,410.5 142.1669922,394.8330078 151.1669922,394.8330078 139.1669922,420.1660156 
		95.8330078,420.1660156 95.8330078,410.5 	"/>
	<polygon points="135,261.5 143,245.5 150.5,245.5 138.5,269.5 96.5,269.5 96.5,261.5 	"/>
	<polygon fill="#0C0807" points="97.1665039,118.5 97.1665039,112.5 135.1220703,112.5 144.0556641,95.8330078 
		149.8330078,95.8330078 137.8330078,118.5 	"/>
	<polygon fill="#17100E" points="97.8334961,-32.5 97.8334961,-36.5 135.2451172,-36.5 145.1118164,-53.8330078 
		149.1665039,-53.8330078 137.1665039,-32.5 	"/>
	<polygon points="135.3671875,-185.5 146.1679688,-203.5 148.5,-203.5 136.5,-183.5 98.5,-183.5 98.5,-185.5 	"/>
</g>
<g>
	<polygon points="408.9277344,709.5 402.5,724.5 390.5,724.5 402.5,696.5 448.5,696.5 448.5,709.5 	"/>
	<polygon points="408.6181641,558.5 401.6665039,573.8330078 391.1665039,573.8330078 403.1665039,547.1660156 
		447.8330078,547.1660156 447.8330078,558.5 	"/>
	<polygon points="408.309082,407.5 400.8334961,423.1669922 391.8334961,423.1669922 403.8334961,397.8330078 
		447.1669922,397.8330078 447.1669922,407.5 	"/>
	<polygon points="408,256.5 400,272.5 392.5,272.5 404.5,248.5 446.5,248.5 446.5,256.5 	"/>
	<polygon points="445.8330078,98.8330078 445.8330078,104.8330078 407.8769531,104.8330078 398.9438477,121.5 393.1665039,121.5 
		405.1665039,98.8330078 	"/>
	<polygon points="445.1669922,-50.8330078 445.1669922,-46.8334961 407.7553711,-46.8334961 397.8881836,-29.5 393.8334961,-29.5 
		405.8334961,-50.8330078 	"/>
	<polygon points="407.6328125,-198.5 396.8320312,-180.5 394.5,-180.5 406.5,-200.5 444.5,-200.5 444.5,-198.5 	"/>
</g>
</svg>
