<?xml version="1.0" encoding="utf-8"?>
<!-- Generator: Adobe Illustrator 11 Build 225, SVG Export Plug-In . SVG Version: 6.0.0 Build 78)  -->
<!DOCTYPE svg PUBLIC "-//W3C//DTD SVG 1.0//EN"    "http://www.w3.org/TR/2001/REC-SVG-20010904/DTD/svg10.dtd" [
	<!ENTITY ns_flows "http://ns.adobe.com/Flows/1.0/">
	<!ENTITY ns_svg "http://www.w3.org/2000/svg">
	<!ENTITY ns_xlink "http://www.w3.org/1999/xlink">
]>
<svg  xmlns="&ns_svg;" xmlns:xlink="&ns_xlink;" xmlns:a="http://ns.adobe.com/AdobeSVGViewerExtensions/3.0/"
	 width="800.25" height="1050.25" viewBox="0 0 800.25 1050.25" overflow="visible" enable-background="new 0 0 800.25 1050.25"
	 xml:space="preserve">
	<metadata>
		<x:xmpmeta  x:xmptk="XMP toolkit 3.0-29, framework 1.6" xmlns:x="adobe:ns:meta/">
			<rdf:RDF  xmlns:rdf="http://www.w3.org/1999/02/22-rdf-syntax-ns#" xmlns:iX="http://ns.adobe.com/iX/1.0/">
				<rdf:Description  rdf:about="" xmlns:pdf="http://ns.adobe.com/pdf/1.3/"></rdf:Description>
				<rdf:Description  rdf:about="" xmlns:tiff="http://ns.adobe.com/tiff/1.0/"></rdf:Description>
				<rdf:Description  rdf:about="" xmlns:xap="http://ns.adobe.com/xap/1.0/" xmlns:xapGImg="http://ns.adobe.com/xap/1.0/g/img/">
					<xap:CreateDate>2005-10-18T08:31:30Z</xap:CreateDate>
					<xap:ModifyDate>2005-10-18T08:31:30Z</xap:ModifyDate>
					<xap:CreatorTool>Illustrator</xap:CreatorTool>
					<xap:Thumbnails>
						<rdf:Alt>
							<rdf:li  rdf:parseType="Resource">
								<xapGImg:format>JPEG</xapGImg:format>
								<xapGImg:width>172</xapGImg:width>
								<xapGImg:height>256</xapGImg:height>
								<xapGImg:image>/9j/4AAQSkZJRgABAgEASABIAAD/7QAsUGhvdG9zaG9wIDMuMAA4QklNA+0AAAAAABAASAAAAAEA
AQBIAAAAAQAB/+4ADkFkb2JlAGTAAAAAAf/bAIQABgQEBAUEBgUFBgkGBQYJCwgGBggLDAoKCwoK
DBAMDAwMDAwQDA4PEA8ODBMTFBQTExwbGxscHx8fHx8fHx8fHwEHBwcNDA0YEBAYGhURFRofHx8f
Hx8fHx8fHx8fHx8fHx8fHx8fHx8fHx8fHx8fHx8fHx8fHx8fHx8fHx8fHx8f/8AAEQgBAACsAwER
AAIRAQMRAf/EAaIAAAAHAQEBAQEAAAAAAAAAAAQFAwIGAQAHCAkKCwEAAgIDAQEBAQEAAAAAAAAA
AQACAwQFBgcICQoLEAACAQMDAgQCBgcDBAIGAnMBAgMRBAAFIRIxQVEGE2EicYEUMpGhBxWxQiPB
UtHhMxZi8CRygvElQzRTkqKyY3PCNUQnk6OzNhdUZHTD0uIIJoMJChgZhJRFRqS0VtNVKBry4/PE
1OT0ZXWFlaW1xdXl9WZ2hpamtsbW5vY3R1dnd4eXp7fH1+f3OEhYaHiImKi4yNjo+Ck5SVlpeYmZ
qbnJ2en5KjpKWmp6ipqqusra6voRAAICAQIDBQUEBQYECAMDbQEAAhEDBCESMUEFURNhIgZxgZEy
obHwFMHR4SNCFVJicvEzJDRDghaSUyWiY7LCB3PSNeJEgxdUkwgJChgZJjZFGidkdFU38qOzwygp
0+PzhJSktMTU5PRldYWVpbXF1eX1RlZmdoaWprbG1ub2R1dnd4eXp7fH1+f3OEhYaHiImKi4yNjo
+DlJWWl5iZmpucnZ6fkqOkpaanqKmqq6ytrq+v/aAAwDAQACEQMRAD8A9U4q7FXYq7FXYq7FXYq7
FXYqhtT1Kx0vTbvU7+UQWNjDJc3c5BISKFC8jkKCfhVSdhiqJxV2KuxV2KuxV2KuxV2KuxV2KuxV
2KsW/Kx3f8uvLruxZmsYSWJqSePjirKcVdirzfyzp2tRXXlUz21yiwXmvtdGRJAESW4mMBkqNg6k
FK9R0xV6RirsVedfmP5ovob/AEXTItC1SZf0zaFbiBbb0rj0Fa6KRFp1ev7mvxKv2T2xVS0PzfqF
z+Y+tyny3q6RtZ6VYlGW0pAUlu5mkkpcmgZbpfs1NF6Yq9KxV4n5/i0vWNG/MyPX72WTW9L0+/fS
NGeeSGKGzSwLw3MNurIk3qPyLSsGofg2pTFXp2ieStJ0PUGu9KmvLeB42jk01rqaazLFgwlEMzSC
NxxpWMrWp5V2oqn2KvPrfyx5b81ec/Nb+ZbGDWJNLubax020vY1mit7V7C3ufUhjkDKryTzSgyqO
R4ha/DiqWadrmpxeU18r6HdSSalf6pqOkaBfuxleHT7S5dJrss1eS2UdYkLV5OIwftYq9J0jS7LS
dLtNLskKWdlCkECkliEjUKOTHdjtuTuTirEvzIt7CbUfLia/H63lGW5kg1SJ/wDeY3MyBbH62vRo
DJySjVT1GTl2xVBeWtN8s2v5jPD5KtIbLSbGxuIPMSaeixaebxpYTaxCOICE3MapMXKjkqkBvtCi
r0XFWN6Tb3qefPMU8kUi2ctnpi28rKwjZ0N16gRj8JK8l5U8RXFWSYq7FXYqxr8tLS6s/IGgWt3D
Jb3MNlEk0EqlJEYLurKwBB+eKslxV2KuxV2KuxV5r5x8weY285+V7WPyvdyrZajeXVs63NiouFis
Lm15JymBUcbrlR6H6dsVXeR9c8wXXnHzTLN5buoIp9St7ae4e4s3W3EGn254twmZm+KQmkYYb+NQ
FXpGKsG/OfRtE1T8sfNM1/ZW95NYaRqM1nLNGkjwTR2sjB42YEowKjcYqutbW68q+bdH0mz1C4vN
D1tbmJdOvZXupLSW2i9YSw3Epeb0So9NkdmAJTjx3BVZvirHvMnk3ynqkzarq0TwzwQlJ763urix
c26VcpNLbSQGSJak8XJXrtirzvStPubufRLrTuegWnmeU2Oki2VYpbLy9Y28lzFDCGBEU17IgkkI
HII1PtICFWY6XBf+XvPNroiald6hpGr6fdXkUN9K1zLbXFjLbxsUmespjlW7FQ7EKyjjTliqjqum
nzr5k1fQNTmkj8r6OsEN3pcLGJr+e4jE5NxIhEn1dI2VRGpAduXOqjjiqVfpf/lVWlS6NexmTy3F
DO3le/RSWWRVaRNMuAo+KVj8Nu/WX7J+MVdVn3lu31G38vaXb6nK0+pQ2kEd9MxqzzrEolYkdSzg
nFUxxV2KuxV2KoXStP8A0dpttY/WZ7z6tGI/rV2/qzycf2pHoOTHuaYqisVdirsVdirsVS+60S1u
dasNXkeQXOnR3EUEYI9Mi69PmWBBPIeiONCOpxV2k6JaaXJqEkDyO+pXb3twZCD+8dEjovELRQkS
gfrxVMMVYL57/K601zR/MK6Ncz6TrGtWVzBKYbiSKzuJpoDEpuoKSxEGoDusfqce9aYqnmh+S9L0
q/bVGnutS1d4zAdR1Cdp5ViJDNHEvwxRKzKCwjReRpXoMVT7FUs8yeX7PzBpMmk3skqWVw0Zuo4S
q+tEjh2gclW/dyheEgFCVJFcVWeYvLVlrlnBBLLNZ3FnMtzp9/aMqT206KyCSIusifYdkKurKykg
gg4qhdA8oDTdTm1i/wBTuta1maEWwvbwQp6VuG5mKGK3jhjRWajMeJZiBU7CirWteTo77VBrGn6l
eaJq/pLBNd2JhYTxRlmjjnhuI54ZAhduLcQ4qaMMVS+4/LHTtVP/ADtepXvmZFVhFa3xhitY2deP
Nbe0itkLqCeDycmU7qQcVZLo2nNpml2untd3F/8AVYxELu8ZXuJAuwMjosYZqbcqVPU1O+KozFXY
q7FXYq7FXYq7FXYq7FXYq7FXYq7FXYq7FXYq7FXYq7FXYq7FXYq7FXYq7FXYqkPkXzhY+cPK9p5h
sYZbe1u3nRIZ+PqA21xJbtXiWG7REjfpiqfYq7FWIaT+ZelanJpKRWs6HV9U1DR4OfD4ZdNS4eR2
ox+BhaNxpvuK4qy/FXYqkvmnzVZ+XYdNkuopJv0nqVppUCxcaiW9lEaseRHwr9pqb0xV0Pmqzm85
XflVIZDd2dhBqM1xQeiFuJZIkjrWvP8AclunTFU6xV5t+ZP5y6d5bttd03RrS81jzJpWnzXc6Wds
09tYt6LSQyX0paJEj25MA3Lj26YqmHkX807HzHJZ6Ze6bqWj63cWouUg1C0aCKdVVTJJbyqZYnSr
VHx1p2xVnOKsK1/8yLm08xXHl7y95evfMup6fDHcasLSS3gitUmBMSPLcSRqZXUcljXfjviqZaL5
+8uap5Qk81iV7TS7ZJ31AXS+nLatalluIp034vEyEECvtUUxVMPLOtNrmgWGsGzmsBfwrOlpc8RM
iPunMKWAJWhpXbFUr87+frHyr+jrb6ldarrOszNBpOkWKq087xrzkasjIiRxru7s2wxVAaB+ZU91
5kt/LXmLy/e+WtZvYZLjTY7l7e4guUgoZVintZJU5orBmVqbYqzbFUqs/MVrdeZdU0BInW50q2s7
qaU04Mt806oFoa1X6q1ajuMVTXFXYq7FXmv/ADjj/wCSd0X/AIz6l/3U7nFXpWKuxVhGi/ljBpcm
jOuoNL+h9X1LWVBjC+o2ppcoYj8R4iP659rvx6CuKs3xV2KvH/ze8r3955o8nxJ5k1WFNU8wQtHZ
xmyEFqLW0nm9W35WzSeoGjFPUZ13O3Siqh5O8n6lL+bnnB2826zI2jx6PbtKzWBe4VopLow3FLQL
wHqCgjCNRjU7iir2fFXhX5laB548paV+Y99pNhBrnlfzZZXdzfkTLb3unytYtBLKQ44TwhV5cVIc
dKeKrOPyt/Mjyx5g02z0O3eaz17T7G3N1pF/C9tciMRqvqorikkZ7MhI3HjirPcVeaTS+ZPJ3n7z
Nqi+Xr3XtG8zfVLq3m0sQvNBc2lqlq8E8cskJ4usSsrgkCtDirz71VhS70Xzg66Vo/6Ul82efIEb
6wkbX1wG0zRf3QYyySlUllVF+ILt9rFXtHlf8w/LPmS9uNPsJLiDU7WNZ5tOv7aeyufRc0WZYrlI
2aMnbktRX5jFWGfnlf2+mXnljW9KuBL560q6kfQNDRHml1CG4QR3lt6cQZ0Vo1B9UjihUVxVD/l5
qF75+19fzI1uWLT7Py8t5YaZ5ajLPcWUrEJdy6gzLGwnZI6CPjRVodzuVXqWia1put6RZ6xpc31j
Tr+JLi0n4unOOQVVuLhXFR2IriqDsfLiWnmvV/MInLvqtrY2jW/GgjFi1wwYNXfn9a6U2piqc4q7
FXYqwz8nbLRrH8vNNttG+uDTklvTD+ko1iuqtezNJzRdgPULcPFaHFWZ4q7FXYq7FXYq8e87fl89
5+anlDhq2uehdSave3Ekd7KEtStuqqsDdIAxuOAUdV26A4q3+WXkF083+b9Wm1TWh9V1xILcT3kt
LqO1s7ejXAP9+tWKgn9kU7Yq9gxV5J+b3n++sPK3nPQtW8t6lDbXGl30Ol63axG8splls2VTO8NW
tmDsQfUWlBy5UxVL/Kj3/nLzj5C1jT9CvLDSfKWnzi91rUbdrT6011ZC3jt7VXpJKgYmQuV47be6
r2vFUl85+Y/8OeWr7V0tZb64gQLaWMCs8k9xIQkMSqtT8UjAE9hv2xV5hrfkrUfLHlfyxrWoQNrO
oWPmGLzF50e2iMrySzRSxyXEcagu62byp6aqPsJWm2KprYa/pvnf82NB1fyys1xpPl/T79dU1gwS
QQyPfeiILRGlVGkZTE0jACi7b1JGKofVNVg8k/nFrPmXzPa3B0PW9Os7XSddigluYrI2xf6xay+i
sjxCZ2WSvHiaexoqw38xtU/xNf3Wp/k1DqF55j1K0msvMc1vaywadPZmB1DTyXIgQ3cdR6DIS37J
22xV7V+W91os/kbRU0ZZotPtLSG0iguo2huIvq6CIxzRtusi8fi8eoJG+KskxV2KuxV2KuxV2Kux
V2KuxV2KuxV2KuxVD6jp9lqOn3On30K3FleRPb3UD/ZkilUo6N7MpIxVUt7eG2t4reBBHBCixxRj
oqKKKB8gMVVMVdirsVdirsVdirsVdirsVdirsVdirsVdirsVdirsVdirsVdiqncXFvbW8tzcypBb
wI0k00jBEREHJmZmoAoAqScVdb3Fvc28VzbSpPbzoskM0bB0dHHJWVlqCpBqCMVVMVdirsVdirsV
dirsVdirsVdirsVeS/8AOM/mLXde8h6hea1fz6jdR6xdwJPcOZHESLHxQFv2RU0GKvWsVdirwGy8
3+aH0by9K2q3JkuPzIl0udzK1XsRJdAWzb7xfAvw9NsVe/Yq7FXhH57fnh5Z0i80zy5p3mCWx1ux
12w/xBHCl3GYtPoZLgtIkfGROLJVY2LGuw2xVBaT/wA5F+R7z86LmX/E0x8qTaVBY6ZAYbwQyajJ
chmYQ+jVW4njzdR86Yq+hMVfOH5leaPPfnTUvzM0HTdaTy/5b8laVM17YpBHLc6lztZXdWdzyjjP
plSU7EbEnZVln5I+XPzP03RPKV7N5og1byde6RbSy6TdWqxXNoJLRWgjtp46l1QlVPqH7I6VNcVe
x4q8bvrXzF5//NrzX5ebzNqfl7Q/KFvp6W9voswtZri41CA3Bmml4uzKlOPDp0/yuSqA8v8A5ueY
dJ/LDXP0lMNb82aTr135U0OQKofUryNlW2fiKA7SVbxCnvir1byNomraJ5V07TtZ1KbVtXjj5ahq
E7mRpJ3JeTiT0RWPFB/KBirz/wDPfzL5hs9Z8k+WtO1p/Lem+Zr2e31TXIVHqxCJYzFCkjCkbTNI
QG67eFcVSRG8xfl/+cflLyppnmvVfNOn+YI7k6tpeszre3FrHEnKO5WYKjIpPLt0Ujwoq94xVgGm
6vqkn5463pL3UraZBoNlcQ2ZY+ksz3MqtIF6BmVQCcVZ/irsVdirxj/nFGCeH8utSWaNo2Ot3pCu
CpoVi33xV7PirsVU/qtsAAIkor+oo4jZ/wCYf5XviqpirsVfOf5x/m15bn8/eTtONrqXHy5r0txq
I+pyfvGs1aMG32rN8VT8O1N8Vd+XP5teW7v88PON/wDVtTCeYJNG07SlNnIPTKQmKQ3Ip+6HqsCC
x+zvir6MxV5B+fH5ReTda8t+YvOBjmsPMenaTeTG/sZTC06wWzMIblaMsiMq8G25Fdq0xViX5V+b
vzB8mXv5d+XPMF7DrflXzppcLaHKIxFdWDx2scv1c8f7yNBKiVbcjeooVKr6MxVgfm38odM13zGf
MthrOqeW9cmtxZ3t5pE6wm4gX7Kyq6SAsv7LChH0CirwuN00Z7TW/JlqlxpOnasnlT8vpL9jLHd6
xqLML/WLhl4mT+7McbD4fADjTFXrGleYPzJ8qfmN5f8AK3m/V7XzHpvmqG6+pahFaJYSW11ZRes8
bIjOro6bKTuT4U3VSj83J7/8yPNz/k7pMVtbwW1vFqnmDW7qP1Xtk5KYls46r+9PMVavRiPHFWK+
WtQtvyS1PzLYecbcSa7f211eaB55l9SY6ksUfNbSV5GkMcqsi/ADRjT/ACSyr3D8rdY1/Wvy90HW
Nf4fpbUbRLq49NPTWkxLx0Xt+7ZcVZOIohIZQiiQjiXoORA7VxVdirsVdirHvI/l7zBoOkzWeua/
J5ju5LmSeO+mhEDJE4XjDxDy1CUO9e+KshxV2KuxV2KuxVifmDyIdZ8/eVPNjX3op5WW/Edh6XL1
21CAQFjLzHDgFrTia+2Ku8meQv8ADeu+atXa9F5L5mvxfFBD6XoKqcEi5c5PUp/Nt8sVZZiryH8z
PyV1XUrfzNqnlHzDqWnajrdpcfX9CWVJbG/la2MQj4TlVhaUKsZfl8I6UxVr8p/yNfQ30DzJ5r1O
81bzLpemw2tjY3Lp9W0wGARvBAsZdWMYrHz5UPXrvir1/FUk866Fqmv+V9R0XTNT/Q11qERg/SIi
9do43NJOCc4viZKqG5fDWuKsf8y/lFoWq/l9YeTdPnk0iLR2t59Fv4AGktrm1NY56HiHYkty3Fan
cHfFUD5c/LDzQfOdh5u87eZF17UdGt5bfRbe2tFs4ITcrwnmYBn5ySJ8PYfhRV3nX8pNS1LzhF52
8o+YZPLPmgW31O8m9BLu3uoAQVSWF2UbUG+/QbVFcVSbW/yM80edikH5jecpNU0m3YyW2k6ZZxWE
YmKFFleQmZ3K8jQH+JGKs/8AIHlzXvLflu30bWdb/T8ln+6tb9rf6tL6CgBEl/ezCRlG3Pao6iu5
VZHirsVdirsVdirsVdirsVdirsVdirsVdirsVdirsVdirsVdirsVdirsVdirsVdirsVY75N/MPyf
5zivJfLWofX49Pl+r3bejPDwkIrx/fJHXp1FRirIsVdirD3/ADc/L1NNn1JtWpZW2qnQJpfq9z8O
pChMHH0uR6j4wOH+VirMMVdiqR+bvO3ljyhYW9/5ivfqVpd3KWVvJ6Usxe4lVmRAsKSNuI23pTFW
/wDGnlr/ABd/hD65/wA7ELX6+bH05f8Aeblw5+rw9L7X7PKvtiqd4qw38x/zW8oeQ9KubjVb+3Gq
LbS3Gn6Q0vCe5dFYxxqFWRkWR14cytBiqD/Lf86vI3nmysls9StrfXbiFZLjQ2mrPFIV5PGnNYjL
w7si4qz7FWE+evzl/LzyPfQ6f5h1P0b+eMzJaQxS3EgiFf3jrEr8F+E/a8MVT7y75v8ALXmPQI/M
GjahFdaPKrOLsEoqhPt+oHCtGVp8QYCmKu8p+bvL/m3Rk1ry/cteaZK7xxXJimhDtGeLcRMkbMA2
3ICmKqHnPz55S8l6WNT8y6jHp9qzcIuQZ5JH68Y40DO58aDbvirHPJv5+flX5v1dNH0XWQ+pygmC
2nhmtzLQVIjMqqrNQfZrXFXoWKpOnm7y8/myTykt3XzBFZ/pJ7L05drUyCL1PU4+l9tgOPLl7Yqn
GKuxV2KvnX/nDb/jlecv+2qv/EGxV9FYq7FXhE35D+b38p6jo4vNP+s3fnVvNEbmSb0xZEKPTY+j
X1vh+zTj/lYq93xV2KvmX/nJaz/Mq680eV9KfU9OOiatr1qvlyz4OJorlQsSyXLBfiRXnP2a7HFU
t8t6X+dV5/zkJ5h9PV9I/wAT6Tpttb6nfNA/1VrWcQTKkKcOQk4kfER44q+rMVfHX5z6Vc+V/wAy
/O+u+bvLs2taT5i0y4tfLmshBNDaXM1sIrdjy+BGiYcd6Mv2kr3Venf84/W35Ma9ofla+0yLT288
6BZILoxJ9XvBKYTBM8qUjM4o5HMhgDShrir3fFXz1rfmGy/Lj/nIPzJ5n816fctovmHTrWLRtVgg
e4VHhiijkt/h+yZHiO3+rXY1xV5/5cutdPlK58hWkbeXG8/6vd6xcLcARDTPLYCCSaQNxEYlETIl
aBlX/KU4q+mfIPmL8t59Nt/L3k3V7C9g0m3SKOzs7iOV0hjAQOyqeRqerdyfHFXl/wDzlTotxajy
p5/Vba8tPKd6HvNJu3VFuEmliYBA+zEmHiygE0NaGhxVjUGqy/nZ+Z/lrzboel/oXyh5ImS51LXL
z045ZZImjuTA3FiOKekAN6KrMxpUDFX0zYajp+o2kd5p9zFeWctfSubd1ljbixVuLoSpowIPvirD
LfyHq8f53XPntprc6RNoA0hYAz/WfXF0k/Irw4cOKdeda9sVZ3irsVdirxP/AJxi0nynp2neZ18u
+YH1+OXUA9272Ulj6MnE/uwJHk5/6wpir2zFXYq7FXYq7FXyv+cHlP8AMm4/OXyjpjecPVk1TUL6
+8u1tYwNLRGEiDr++4ooX4v5ffFVP8pPJ35lah+b3nS7h85cLzRb+yttevjZof0kiM4aIA0EXFbf
iePiDir6sxV4T+cP566Fpll528j69pt9pl1cabd2uh37xM9te/WLMopVgAV/fOVrQrtUkdMVeP8A
5XQaZ5j/ADK/LiTyNpU9teaDZ25846nGhhgdo1pKWptVkqhY7yFqb9Sq+1sVSvzT5k0vyx5d1DX9
Vk9Ow02Fp5jtU8fsoterOxCqO5OKvlrzz5W8y3n5N63+ZWtwyfprzdf2d3qNvGSWttBV/wDR7dR2
WvpOfbjy3BxVPmu/y11D87Py1P5UxWwkt47l9bfS4vSRbIxKIxc0UDnx9QNz+LcA7lcVU/zfv9Jt
P+cjtGm/MqN5PIUdoDpAmR5LL1uHxNJGgYPSc/GKHbhy+HFWG/mpr/lHRfMN7e/k1rf1mTzTaXNp
5i8uWMEslv6ckL8riKihFKhmai7oakfCSMVfQX/ONl75al/KDQbLQ79b36hEU1BRUPDdzO1xNG6n
cUeU8T0I3GKvT8VdirsVdiqC0zRNF0pZV0uwtrBZ25zLbQxwh2/mbgFqfc4qjcVdirsVdirsVQs+
k6VPfwahPZQS39qCLW7eJGmiDAhhHIRyWtd6HFXWmlaXZT3M9nZwW094/qXcsMaRvM+/xSMoBdtz
ucVRWKpf5g0LTdf0S+0bUo/VsdQgltp1GzcJkMbFTvxajGh7Yqt8t+XdL8uaFZaJpcZjsbCJIIFY
8m4oAoLN+01BucVTLFUNqOmabqVq1pqNpDe2jkF7e4jWWMlTUEo4ZTQ4qrvDE8TQuitEylGjIBUq
RQqQdqUxVL9H8seWtFaVtG0mz0xp95zZ28UBc9fj9NV5fTiqI1HStL1O2NrqVnBfWxIJguY0lSo6
Hi4YYqhdF8q+V9C5foTR7HS+Y4v9StobeorWh9JV774qq6Z5e0DSXmk0vTbWwe4p9Ye1gjhMnGpH
MxqvKnI9cVR+KuxV2KuxV2KuxV2KuxV2KuxV2KuxV2KuxV2KuxV2KuxV2KuxV2KuxV2KuxV2KuxV
4l/zjf8Amx5v8/X3m6HzDJBImjy2iWXoRCKgma5D8qE8v7lcVe24q7FXzNq35+fmFa+SPPOsRTWw
vdA8xLpWnkwKVFsZHWjrX4moo3xV9JWEzz2NtNJ9uWJHamwqygnFVfFXiH/OQv56P5Os7PT/ACpq
1j/iT68kOpWsvGZ4IDEzVkjr8HxMhqcVQR/5yL05vztGip5h01PIMdl6kl+SnBrn0q8BcFqfaYfd
TFXvmKvnj82Pz585yecNU/L38vtGivb2ytpf0rf3BPwKsXOZogJIlQRK1Obtu2wXpVVjv/OM/n/8
2Y7bR9Jm0JtX8o6nezR/4gZ5XmgcAtJ6snKUBV4fCrotenLfFX1Tirwvzt+YX5r67+bt7+XP5dzW
OlyaLZJe6jqN+nqczIkbhRVJQF/0iNQAla1NaYqv8hf85CzS/lZ5h8x+cYIodY8rTvY3UcB4pdTk
AQKg+LizueDUqBTlsNgqz38oNQ886r5HstY86NENW1Ot1FawxeiILaQAwxstSSxX4zXcVp1GKsN/
5yD/ADj8yeSrjQvLvlW2hk1/zC5WK7uhWKJeaxIFBKqXZ36seKgbg12VYXqn5tfnl+WPm/QrD8xZ
tM1rSNbahaxULIiBlSQoVSA84zIpoyEN0B7hV9NYq8vufzB8xx/85CWvkZXi/QMujm/dPTHq+sC4
r6nWnwjbFXqGKuxV2KvmD/nC3/jqfmF/xnsP+J3uKvp/FXYqxWb8rPy9msNQ0+XQrZ7LVbkX2oQE
NxmuQSfVff7VWOKsojjSONY4xxRAFVR0AAoBiq7FXxp/zkZq35N6j+ZGjfo9ka/j1aWDz5c+neKU
S2lhgZWDJR6KkorBX7PeoxVLfJsf5Aal+emsW93FE3ke9hitfLVrwvwr3shto1oAPWWrerUy0Xf5
Yq+3cVfM/wDzkX+T1xo82s/mx5W1qXTL5I1/S1kKgSCbhbOY3U7c1Yc0cENuajpirGfyI/NHzX+X
N55b8j+Z9HRPL/mgwXmj36keqqamV9KXkrNG8ZZl5KeLJvXwxV9fYq8f8/fkl5mvvPz+fPInmb/D
mv3lsLPU/UhE0cyKqoGFeQHwRoKFTuoYEHFXz1qWm6T5Zvr7TZZZPMflnyTeLqPmac0jj1TXpyIY
bSv7zjFFxYNy5GgmP7SjFXtXlr8+vzDtPNXlfSvP3la30nTfOIRdEvLSRiweUqIxIheXvLGGU8Sv
IH2xVJf+csNV8u+Yb3R/IOm6XNq/n95Fl057dgn1VJ6ckdmBD+qqVK7BQA5YU3VeaaLqC6B+YWqX
n51ve33mzy3YGfyzaX0nOyuZrWNngjaRQ9RIygxsPhZq8qtsVX1Z+UHn698++R7XzPd6cNLN3LMk
NushlVkhkMfMMVTqysOnbFU+byp5cbzInmZrCI69HB9VTUaH1RDueFa0p8RxVNsVdirsVefflVpP
5q6fca23nu406eGZ4TpA0+OOMqqmX1fV4RQ12aOla98Veg4q7FXYq7FXYq8U/MP8hovMX5qeWfMF
jpOlRaBaStc+Y4jFEkl5K8pkYyxiJhPyp8XqHepxVZ+Wv5BQaF+Y3mzzBrej6TLpV5dCbyxbRxxy
/VEWd3VkjaJVgYLwpw6dMVe3Yq+bP+cgvye8/GLzT5p8ueYbq603WBA+reVxHI5l9P0oU9JY+auV
EakVQMAPtHFVP8p/+cdvNN9qXlXzn581s3Uek2dlLo2iBZA8EcKLJbQTeosfp+iackVTVq1Piq+l
8VSTzsnmqTyrqUPlQwr5gmhMVhLcsUijdyFMpIV941JZRTcgV2xV5ev/ADjpbf8AKjJfIS3SRa7d
smoXeqHkyPqIYOSx+0Y6D0gaVp8VK4qkuh/lB+cPmHzb5PvvzCu9Ng0nyKyPpy6eWaa5kiaNkZ6i
g5G3j5H4dhstSTiqYfm5+R3nTU/zCs/zH/L/AFW3svMVsiLNb3dQpaNDEHjbjKp5RHgyOtKd96Yq
xfzL+R356/mheWZ8/ajo+l2mnq6wSWkIlnJYD+QKSrEbgygDqFxV6l+Rnlr8yPKflpfLHm1NPmst
OHHSb2xkYuYyxJiljMcfStQ/U999yq9LxV2KuxV2KuxV2KuxV2KuxV2KuxV2KuxV2KuxV2KuxV2K
uxV2KuxV2KuxV2KuxV2KpPo3nLyhrd1LZ6Lrmn6ndwKXnt7O6huJEUEKWdI2ZlHI03xVOMVdiqRH
z75GWG+mPmLTBDpciw6nKb23420kjFESdudImZ0ZQGpUgjFU4tLu1vLWG8s5o7m0uY1mt7iFg8ck
bgMjo6kqyspqCOuKquKpdrfmTy7oNvHc65qlnpVvK/pxTX08VsjPQnirSsgJoCaYqpnzZ5WGrw6K
dZsRrNwokt9N+sw/WZEKlwyQ8vUYFAWqB03xVNcVQeraxpmkWMl9qVzFa20SlmkmdIwaAmgLlRXb
xxVin5W/m95X/MnTru+0KO5thZTehLb3qwpMfhVuapFLN8HxUqT1xVm+KpP5h84+U/LcccnmDWLP
SlmqIfrc8cJenXgHILU70xVH6dqem6nZRX2m3cN9ZTjlDdW0iyxOK0qroWVvoOKobRvMvlzXBOdE
1Wz1QWzBLk2VxFcCNzWiv6TNxO3Q4qiNT1bS9Ks3vtUvILCyi/vLq6kSGJf9Z3KqPvxVJ9C/MXyF
r939S0XzFp2o3m5Ftb3MUkpA3JCBuRA8QMVZFiqXv5h0CPWY9DfU7Rdalj9WLS2njF00YBPNYC3q
FaKd6dsVTDFXYq7FXx//AM4d/wDk0/NP/MBL/wBRkeKvsDFXYq+Sbn8nPzLfy1+bVouhym48w6tY
3OjR+pDW4ihvrmWR1+Og4pIp+KnXFX0r+XWm32l/l95Y0y/iMF9Y6TY213ASCUlhtkSRCVJHwspG
xxVkOKvjb/nLrzH59vfMVv5d1TS4rby5DdNJ5evUR1lu2EMay8mMjI3BpqbIuKsZtvNf5wT/AJ7R
63B5cgk896ZB6Q0MRzGGONbP0N4zPz/uZeX971P0Yq+67V5ntonmXhMyKZUHQMR8Q798VfD358ag
dV/Py+07z1fXdl5csnEVr6C8zDbG3DxNCh5D97JQuwBO52NOOKph/wA4uflZpnmbUrbzSuuGz1Xy
7qkcsmlIVLT20apIp+FlkVWkqpJBVgCMVfauKvkP80/8ID/nKC9P5oer/hH6hEdP5+sY+H1NePH0
P3nD6z6v2f2+u2KsQ/Ln8xde8ufldr3lzQTPLqXmvVI9P8tQA/GnqJwupU8HKvDGN/tGo+ycVfWf
5O+RNI8ieSbPy5aSxT38Y9fV5o2DGS7kA9VjTfitOC1H2QO+KvFf+c19M8xyx+XNRVJpfLFsZUvB
EfgjuZGXi0goQC6VVGNabjvuq8h842PkPV/OPlu0/JKy1Aai8cTyqzSl1vOSshUysxVoqEyOD6Y6
g0BOKvv23EwgjE5DTBVErL0LU+Ijp3xV49qnknzTN/zk7pHm6OwdvLtvpL202ock4LKY5wE48ufW
Rf2cVeyYq7FXYq+af+cZvJelaH+YPmC8s/NOl65LPaSI9nYNMZYgblG5P6kca0BHHY9cVfS2KuxV
2KuxV2Kvib/nIA/m5f8A5taTpGsNDJI2pS/4IgU24/cXN4I7Yycehb04wTLvtviqG/Ln/ldWofnr
rF7p7QTebrSRovMshNrwWBJ44LhU5fu6jgF+DfbFX3Fir5P/AOcpPzO8i6suv+TLjSCPNOiy2q6Z
rJjR+SN6cs8Yk2kjoJGHHdWpWvTFXjXkwQw/mR5L/wACz3j6nI1h9d5DiVvWb/S44+NOUHD7XLty
rVd8VforirH/ADnoHkbUNLlvvN2m2N7YaZHJcPPfwxyiGNF5yMGcEqKLvTrir5B1mz1TzD5V83/m
7ZWn6H0iwMWj+TbK2jWFLa0e4WKaSJY+KpRJWUlducj03XFUq0+Dy35V1P8AK3WvIetyXXmfVWT/
ABFaxzCQxzPNCvoPEgDKJDJIhRvtBQe9Sqzj/nKLzfq99+amneSdb1CfR/Iw+pyXbwgkSxzPWa5Z
QP3npbqq7gFa0rirzzz2dH/LjXr1Py082RatoXmLT5rO7hjkEs0UUq8XjmdFVK1PKNlow3BFPtKv
pL/nERrE/lOPS1Fb6/mvp7jUYeZeS3duMUcbhviHKOFWHY12xV7ZirsVdirsVYr5U/K3yD5S1K51
Py7pEen314hiuZ0eVy6M4cikjuPtKDsMVZVirsVdirsVdirHta/L7ydrfmHTvMeqaZHda1pPA6de
M0gaIxuZEoqsENHNdxirtC/L3yboOu6lr+kaZHa6xrDO+pXitIzStLIZXJDsyjk55fCBirIcVYJ+
bP5Q+XvzF0J7G7WGz1Osf1fWhbxzXMSI4dkRiUbi4FCOWKon8uvyp8oeRtKtLfTLC2OqQwLBdayI
ES5uCAAzM/xMORFSvKmKsyxVLvMXl3RvMej3Gjazb/W9MugouLYu6BwrBwCY2RqclHfFVOy8q+XL
Hy4nlq20+FNBSE2w04ryhMLV5IytXlyqeVevfFWM+WPyL/KjyxrS63onl6K21OMsYrhpbif0y1am
NJpJEQ79VAxVOfOH5d+SfOVvHB5m0iDUlhqIZJAyyxg9Qk0ZSRQe4DYqx7Q/+ce/ya0S6+tWPle2
aahWt0894oBFDRLqSZR160xVNvKn5T/l95S1KXUvLekLpl5MhjmeGWfi6E14tG0jIRXcfDt2xVlu
KuxV2KuxV2KuxV2KuxV2KuxV2KuxV2KuxV2KuxV2KuxV2KuxV2KuxV2KuxV2KuxV4F+UP/OSWt+e
vzEbyrd6NbWduI7mT6zFJIz1g6Cjbb4q99xV2KvnaT/nKDXkt/zAl/QlqT5OkjS2HqSfvw+orZfv
PD4X5bd8Vev/AJW+cbnzn5B0jzNc26Wk+pRu728RLIpSV49i2/7FcVZViryL8+fz1b8trbTRplva
6pf3k0kdzaySkNCsaKwLBCWBPMUriqRRf85KXb/mnpHk36np/wCj72G0e+1T6yeMTz2i3MoBNE+A
txFTX6cVe9AhgCDUHcEdCMVeL/m9/wA5PeWvy/1l9AtdOk1vW4AjXcKyi3gh9RQyq0pWUl+LBuIT
6cVeV/kx/wA5ReY5fOkmnebmu9XttduYbXSYYFgrayzTFFWnGIup9RVJ5V26HFX15irw382v+cid
Y8ted18jeT/L51/zAkaSXKn1Hozxev6UcMI5uRDRy3LYYqmf5Yf85F6B5t8j655k1e3/AEPL5aRZ
NWhD+ohSRWMTRMQpJlaNlVOvLbeoxVNvyP8AzJ80fmHoN35g1XSIdJ0tpjDpQjd5JJglfVdiwUcV
NFBHUhulMVQX55fn3pv5YxWdpHYnVNc1BGlgtS/pRRxKePqSvRm3bZVA3odxiry+w/5zE806Zqlt
H5z8nmx067pLHJD60Ewt2PwyxpcDjMPkVBxV9P2F7a39jb31pIJbW7iSe3lHRo5FDIwr4qcVeZ+Y
Pzh1LS/zx0T8uY9PhkstVt1nkv2dxKhZJmoFHw/7pH34q9TxV2KuxV8Qf84sf+T5f/jBf4q+38Vd
iryR/wDnGXyG0XmqI3+qcfN7q+pH1besZS7W9Hof6P8AD+8Wnxcvh998VZ/5J8oab5O8rWHlrTJZ
prHTkZIJLlkaUh5GkPMosandz0UYqnmKvhH/AJyhsvKJ/Mu5v9E1pdQ1C/nlj1u1pRbKe29O3EZN
PFGr8sVYxpfk38vrz805fLkvmUw+Ug8iQeYCq1k4xVSi9Pjl+HFX6I2sAt7aKAHkIkVAx6kKKVxV
8Z/85Lfl75o8l/mEfzKsZYpNM1DUIZbSZwkjwXyx+oI5IZAVdT6DMpoRTY+6rGPyN/Mfy35b8+TX
XnHRkvV1i6t7iLUCi+pYXHqNIlzGjDlxPrVPFgePTl0xV974q+dfzX/Jv80Y/wA3E/Mz8upbefUZ
kUSwTtGjQyLa/UyQJv3bo8I8ag9sVfPWreXtW8qTXvkbVL9Y3uJLfUPOL2pEwgitgzQwepVVkkHr
livLi0jRrXkMVe9+Qf8AnK3yJZHR/LX+G7rQfLahbLT9QeRZUREPBXkUIvf+8ZWYg+OKpb/zmrZ+
TZE0e8k1H0vN8KGOHTUXn6tkzkl5CP7rg/LgT9rcUNKqq8L1Hzhq/n3UbFPPmum3stAsTFB+5rO6
QgVhiVQqtcTUHxSso23PQFV9sfkf+YXlvzn5NVvLmn3WnaVobR6TBDd8C3G3gj4gFGcGiMoxVF6r
+UXlvU/zL038w57m8XWtLiEFvbxvELVlVZFq6GJpCf3x6SDtirN8VdirsVeBflDpX5m2/wCYjTa/
+X+h+X9J9O5A1fT7G0t7nkfsL6sUjvR/2tt8Ve+4q7FXYq7FXYq+UPzh/wCccdV1L827K78t6Nc3
GgaxOl55jv8A6xFRJ7u9ka64CQqyhIiGFAeuKoT8vf8AnF+8m/NPWE8yaNd2Xku1e6k0Sczx85PT
ulForGN3aphJY1HbFX11ir40/wCcs/JHnvTdbvvNN5qKz+UtavrZLexjlkAiuYrRo4vUt2+DkIop
KOpPU9K4qhfy/wD+cd/zO893/l/XPNsiW3lhLSy+qzyyxSyyaZFEpt4YIYS/ENHQfvOJFSSCdiq+
1cVSfzjqWuab5Y1G80HT21XWo4T+j7BSq+pO3wpyLsg4KTybfoDTfFXz35Z/5xx8zXn5SebH134P
zD81OLhjcOrFBb3K3KxO6ErW4kQs5rTdf5cVefwfk5+eHm208qeSNX8vDSNH8tPdxrqsnBQsV5OJ
Z3dldllKlaJ6Y3792xVnH/OSX5E+f9c88jzp5Vtl1WKSGAXFmGjE0UtuOIKxykLIjKqmgqa12pir
B/NX5X/n9+aHmKK/1fylbaXfpCIp78KlmkqoPgM3KRy7CnEFVrTboBRV7B/zjRYfmZ5P05/KHmfy
jJY6Y0slxbaxE8DUlfd1uVWVmYHiAjqNtgRTcKvfMVdirsVdirsVdirsVdirsVdirsVdirsVU57e
3nQJPEkqA1CuoYV6VocVXoiIioihUUAKoFAANgABireKuxV2KuxV2KuxV2KuxV2KuxV2Kv8A/9k=
									</xapGImg:image>
							</rdf:li>
						</rdf:Alt>
					</xap:Thumbnails>
				</rdf:Description>
				<rdf:Description  rdf:about="" xmlns:dc="http://purl.org/dc/elements/1.1/">
					<dc:format>image/svg+xml</dc:format>
				</rdf:Description>
			</rdf:RDF>
		</x:xmpmeta>
<?xpacket begin='﻿' id='W5M0MpCehiHzreSzNTczkc9d'?><x:xmpmeta xmlns:x='adobe:ns:meta/' x:xmptk='XMP toolkit 3.0-29, framework 1.6'>
<rdf:RDF xmlns:rdf='http://www.w3.org/1999/02/22-rdf-syntax-ns#' xmlns:iX='http://ns.adobe.com/iX/1.0/'>

 <rdf:Description rdf:about='uuid:783850b0-2594-11de-a3d1-001124740a56'
  xmlns:pdf='http://ns.adobe.com/pdf/1.3/'>
  <pdf:Producer>Adobe PDF library 6.66</pdf:Producer>
 </rdf:Description>

 <rdf:Description rdf:about='uuid:783850b0-2594-11de-a3d1-001124740a56'
  xmlns:tiff='http://ns.adobe.com/tiff/1.0/'>
 </rdf:Description>

 <rdf:Description rdf:about='uuid:783850b0-2594-11de-a3d1-001124740a56'
  xmlns:xap='http://ns.adobe.com/xap/1.0/'
  xmlns:xapGImg='http://ns.adobe.com/xap/1.0/g/img/'>
  <xap:CreateDate>2006-01-25T10:39:25+09:00</xap:CreateDate>
  <xap:ModifyDate>2009-04-10T06:02:52Z</xap:ModifyDate>
  <xap:CreatorTool>Illustrator</xap:CreatorTool>
  <xap:MetadataDate>2009-04-10T12:58:18+09:00</xap:MetadataDate>
  <xap:Thumbnails>
   <rdf:Alt>
    <rdf:li rdf:parseType='Resource'>
     <xapGImg:format>JPEG</xapGImg:format>
     <xapGImg:width>196</xapGImg:width>
     <xapGImg:height>256</xapGImg:height>
     <xapGImg:image>/9j/4AAQSkZJRgABAgEASABIAAD/7QAsUGhvdG9zaG9wIDMuMAA4QklNA+0AAAAAABAASAAAAAEA&#xA;AQBIAAAAAQAB/+4ADkFkb2JlAGTAAAAAAf/bAIQABgQEBAUEBgUFBgkGBQYJCwgGBggLDAoKCwoK&#xA;DBAMDAwMDAwQDA4PEA8ODBMTFBQTExwbGxscHx8fHx8fHx8fHwEHBwcNDA0YEBAYGhURFRofHx8f&#xA;Hx8fHx8fHx8fHx8fHx8fHx8fHx8fHx8fHx8fHx8fHx8fHx8fHx8fHx8fHx8f/8AAEQgBAADEAwER&#xA;AAIRAQMRAf/EAaIAAAAHAQEBAQEAAAAAAAAAAAQFAwIGAQAHCAkKCwEAAgIDAQEBAQEAAAAAAAAA&#xA;AQACAwQFBgcICQoLEAACAQMDAgQCBgcDBAIGAnMBAgMRBAAFIRIxQVEGE2EicYEUMpGhBxWxQiPB&#xA;UtHhMxZi8CRygvElQzRTkqKyY3PCNUQnk6OzNhdUZHTD0uIIJoMJChgZhJRFRqS0VtNVKBry4/PE&#xA;1OT0ZXWFlaW1xdXl9WZ2hpamtsbW5vY3R1dnd4eXp7fH1+f3OEhYaHiImKi4yNjo+Ck5SVlpeYmZ&#xA;qbnJ2en5KjpKWmp6ipqqusra6voRAAICAQIDBQUEBQYECAMDbQEAAhEDBCESMUEFURNhIgZxgZEy&#xA;obHwFMHR4SNCFVJicvEzJDRDghaSUyWiY7LCB3PSNeJEgxdUkwgJChgZJjZFGidkdFU38qOzwygp&#xA;0+PzhJSktMTU5PRldYWVpbXF1eX1RlZmdoaWprbG1ub2R1dnd4eXp7fH1+f3OEhYaHiImKi4yNjo&#xA;+DlJWWl5iZmpucnZ6fkqOkpaanqKmqq6ytrq+v/aAAwDAQACEQMRAD8A9KaVpWlnS7MmzgJMEdT6&#xA;afyD2xVFfonSv+WKD/kUn9MVd+idK/5YoP8AkUn9MVS3y1pWlny5pRNnASbO3JJjT/fS+2Kpl+id&#xA;K/5YoP8AkUn9MVd+idK/5YoP+RSf0xVLfLOlaWfLmlE2cBJs7ckmNP8AfS+2Kpl+idK/5YoP+RSf&#xA;0xV36J0r/lig/wCRSf0xVLfL+laWbCUmzgP+mXw3jTteSjwxVMv0TpX/ACxQf8ik/pirv0TpX/LF&#xA;B/yKT+mKpb5f0rSzYSk2cBP1y+G8adryUeGKpl+idK/5YoP+RSf0xV36J0r/AJYoP+RSf0xVLfL+&#xA;laWbCUmzgP8Apl8N407Xko8MVTL9E6V/yxQf8ik/pirv0TpX/LFB/wAik/piqW6VpWlm/wBZBs4C&#xA;BeIB+7Tb/Q7c+GKpl+idK/5YoP8AkUn9MVd+idK/5YoP+RSf0xVLdK0rSzf6yDZwEC8QD92m3+h2&#xA;58MVTL9E6V/yxQf8ik/pirv0TpX/ACxQf8ik/piqWfo7T/8AEvo/VovS+p8/T4Lx5erTlSlK0xVW&#xA;TV7PTdK0gXBYyXzW1paxRjk7yyJXYDsiK0jnsise2KrLjSbf/FNtqdpeLa6gYGi1C1oGN3aKT6fJ&#xA;eSkNDK9Uk3oGZafFsqjdO1e1v5r6CIOk+nzm2uYpBxYNwWRWFCaq6OrKf4ggKpbp+r2ml+UtFnuA&#xA;7etDZW0EUa8pHlnVI0VV27tUnoACTsDiqeNcW63CWzSoLiRHkjhLAOyRlQ7KvUhTIoJ7VHjiqGs9&#xA;WtLu9vrGPkt1p7olxG44mkqCRJE/mRgSAw/aVh1BxVLLDV7PSfJmmXt2W9MWtnEiRjlJJLMqRRRo&#xA;o6s7uFA98VVb/SYLrzLp93fXitHaI8mm6UQFrc0KyXLEtWQxxvxQBRw5MTUleKqNtdXtbjVL3TFD&#xA;pd2IieRHFA0U6kxyxmpqhZHSv8ytiqW2+rWmkeXb3Ubvl6Fvd3xKRrzkdmvZVSONR9p3chVXuTTF&#xA;UHL5ZvLa9F/b+Y7q11e9uJfSiu5GuLKVWLypbCxeQIPShXrbtG54lix+LFUz0O6W3kOg3V1Ld6rZ&#xA;wR3FxczLw9dZ2cepHu3wh0ZeNfg2HcEqqdnqdnpXl6+1K9f07S0uNQlmcAseK3cxoqjdmPQAbk7D&#xA;FUBP5eufro1WHX7yw1e/mJtLe4laS0K+lyFqbB5PSPGOJmYxcJNmblSuKplo10bO6Gg311Jd6qIX&#xA;v2upE4JMss7+oIBychYGZU4EkopQVNa4qr+Xv94Jf+Yy+/6jJcVTPFXYqlmk/wC9+tf8xif9Qdvi&#xA;qZ4q7FUs0n/e/Wv+YxP+oO3xVM8VdiqU/wDTVf8ARj/zOxVKDT/EHlH1v7j6jd+j4fW/Tt/T+n0P&#xA;Xp7VxVfNqNsPzRtNO5f6S2iXE/HwQXcKj7zX7jiqIsSv/KwNYEf/AFa9N9cdg3r3vClO5WvKvbji&#xA;qWJw4fl/6v8Ad8qxV6ev+ipuP0+n6mKovU9Ss4fzM8v2TyAXFxpOq+mnuJ7BgPpWNyP9U+GKq68P&#xA;+Vhyej9s6RH9dA8Bcv8AVeX3z8fpxVLZKfo78v8An/cfWoPVr9mv6KuvS5f89uHH/KpiqL1/Uba2&#xA;8/eU7SRqT30epJAvj6cUUjfcFxVEXJX/AJWFp4j+2dJvfrQHgLm09Dl98vH/AGWKpZqXD9G6UJv9&#xA;5T5jb16/ZqL6cwV/6ORFx/yqYqi/NupWdv5m8l2c0gSe61S4aEHuI9Mu1P8Aw0qj5kDviqvqXD/H&#xA;uhFP7/6hqQcf8UepZ8v+Sgj/AM64qlus0/w1B6n+8/8AiGH16fy/pscfo9Tjy9q4qi/Ouo21jq/k&#xA;5p24+trfoRjxabTryNf+Gcfq74qiNcKjzZ5Z9P8A3qLXgcd/qn1esv8AyXEHt+GKo/y9/vBL/wAx&#xA;l9/1GS4qmeKuxVLNJ/3v1r/mMT/qDt8VTPFXYqlmk/7361/zGJ/1B2+KpnirsVSn/pqv+jH/AJnY&#xA;qpS6HZaxoGnwXRkjeBYLi1uYHMc0MyJRZI3HQ0YqezKSrAqSMVY4dC0Ea/fWd/qE8Wt2y2moQeYJ&#xA;biJL0+uLi3RVHprAsa+nIvpCPgeRJWpqVWWaJoNnpEU4heW4ubuT1729uG5zTS8QnJ2AVRRVCqqg&#xA;KoFABiqB0/SLLVvJ2lWl2GCi1tZYpYmaOWOWNFZJI3UhlZWH8DtUYqkEuh6Euv3thquo3H6Uhgsd&#xA;RtfMFzcRRXauJLuFVhCpFAiQryDKsfFhKQ4PLdVleieX7XSfrEiyzXd7eMHvL+6YPPKVFEBKqiKq&#xA;D7KIqqN6CpOKoOx0ex1jyVpthfIzQSWdqwKM0ciPGiPHJG6EMjo6hlZTUEYqkN7oGgprkllrd/cT&#xA;XktpHd2euXVxHFcw/VJqcbf0khii9MupYhaycqPyGKso0Ty/aabLcXguJr/UL4J9Z1G6ZXlkSPl6&#xA;aD01jjSNObFUjRVqSaVJOKqFjptlqeg3dhex+pbT3d8rqCyMKXspVldSGRlYBlZSCp3G+KoST8v9&#xA;LuRK2p3l7qV00aRW15cTKs1sscizJ9XMKQqjCWJHL0LMVXkWoMVTHRvLdvptzPeyXVxqOpXKrHLf&#xA;3jI0vpISUiVYkiiRAWJoiCp3NTiqlYadZaloN7p99EJ7O6udQiniaoDI13MCKihHzG4xVIdR8seX&#xA;4tTtbDXb261EXlrPFY3V/cAPbehJBKFgeNYqS8lWQTMTJWMfFiqfaF5esbW4OrfXrjV7y4hWKLUb&#xA;qRJCLY0cJCIViiVWIDMyrV6AsWoKKony9/vBL/zGX3/UZLiqZ4q7FUs0n/e/Wv8AmMT/AKg7fFUz&#xA;xV2KpZpP+9+tf8xif9QdviqZ4q7FUp/6ar/ox/5nYqoaVP5j/RdnSxsyPQjoTeSj9gf8u2Kt3Nnq&#xA;V1NFPdaLpk80G8Mstw7shrX4Wa0JX6MVRP1jzL/ywWf/AEmS/wDZLiqW+Wp/Mf8AhzSuNjZlfqdv&#xA;xJu5QSPSXqPqxxVE3dnqV68b3mi6ZcvCawtNcPIUO26lrQ06dsVRP1jzL/ywWf8A0mS/9kuKpb5a&#xA;n8x/4c0rjY2ZX6nb8SbuUGnpL2+rHFUTe2mp3wQXujabdCI8oxNcPJxPivK0NMVRIn8yAUFhZADo&#xA;Prkv/ZLiqW6BP5j+oy8bGzI+uXvW7lG/1yWv/Hse+Kpl9Y8y/wDLBZ/9Jkv/AGS4q76x5l/5YLP/&#xA;AKTJf+yXFUt0CfzH9Rl42NmR9cvet3KN/rktf+PY98VRV7b6tfRCG+0fTbqEMGEc1y8ihgCAaNak&#xA;V3xVWSTzDGixx6dYoiAKiLdygADYAAWuKpfoE/mP6jLxsbMj65e9buUb/XJa/wDHse+Kpl9Y8y/8&#xA;sFn/ANJkv/ZLirvrHmX/AJYLP/pMl/7JcVS3Sp/Mf17WKWNmT9cTlW7lFD9Tt+n+jeGKpl9Y8y/8&#xA;sFn/ANJkv/ZLirvrHmX/AJYLP/pMl/7JcVS3Sp/Mf17WKWNmT9cTlW7lFD9Tt+n+jeGKpl9Y8y/8&#xA;sFn/ANJkv/ZLirvrHmX/AJYLP/pMl/7JcVS71tc/xDy+qWv1n6pT0/rMnDh6v2ufoV5V7cfpxVOd&#xA;J/45Vl/xgi/4gMVSebzlb2vnWHytf2r2r39ubjR79mBgumi/v4F6FZox8XHuu46HFWR4qlnlj/lG&#xA;tJ/5g7f/AJNLiqZ4q7FUs8sf8o1pP/MHb/8AJpcVQGsecrex8z6T5ZtbaS/1bUuU80URCra2Uez3&#xA;U7HovKiIvV22HQ4qyLFUs8vf7wS/8xl9/wBRkuKscX84PJi6xc6feSXGnW8F1LYLrN5A0Omy3dux&#xA;SWBLtv3YdXVlo5WpB41xVkflzzDpvmLRbbWdMZnsLwM1vI6lSyq5TkAf2W41U9xvirvL3+8Ev/MZ&#xA;ff8AUZLirHpvzc8n22t3Wm3zXNlb2tybGTWriBk0362qqzQG73RHHMD95xBOwJOKsh8t+YtL8xaR&#xA;Fq+lyGWwneaOGUigf0JngZl8VZoyVbuKHFXeXv8AeCX/AJjL7/qMlxVM8VdiqWaT/vfrX/MYn/UH&#xA;b4qmeKuxVLNJ/wB79a/5jE/6g7fFUzxV2KpT/wBNV/0Y/wDM7FWM+Ydc1mG78keXNHuPqlzrc3q3&#xA;t1wR2Sw0+ATXCoHDLylZo4uVDTke9DiqY32uRT/mRYeVbmwguIBpc2twXUqh5Iri3uYbdPTDAhTx&#xA;uCeQ3xVR8ra3rQ88eavLWrTm6W0NtqejzlEQixvg6egfTVQfQmt5FDH4iCKkmuKpZrmu6xaaJ5E0&#xA;LRLn6nqfmGe0tzd8EkMVpbWpu7tkWQMnIxQ8ByB+1XtirJtR8xz2vnTRPL6wq0Oq2eoXUk5J5I1i&#xA;9qqqo6Ub60a/LFUs0TXdYh/MjX/LGp3H1m2e0ttY0NyqK0dvIzW9xbtwC8hHNEGUmpo+52xVLfMu&#xA;u6zp/krynpuhz/VdY8wz6fpdtecUkNvG8PrXM6xuGRilvBJx5CnKlcVTjWdcj0nz55c0uCxgaXzK&#xA;t4l5f8Qs4XT4PViXkB8Qq52PTtiqjY63rVt+aeo+Xb6c3OmahpkeraNVEU25t5VtbuDkqguC0sUi&#xA;liSORHTFUu84eYNW0jyYIdFmFvreta2+kabdMiyLDLeajIjTFGqrelFzcA7EgYqnWuajDpmp+W9A&#xA;NpDdWvmG8uLW9aVFFTHZXF40hRVCM0kkHxbdziqDTWNU0r80IPL08qtoOs6U9xo1uEjT6tcac6R3&#xA;EKFFUskkVwj/ABVoQQNsVQvm/wAxanoP5f31xpBUa3e6lNpuk8xyAu7/AFN7aJ+P7XAyc6d6Yqjv&#xA;M2rt5bg8s6a0EWojX9Vh0nUZpkRDIZraaWS4ZI1WMu7W+4403xVTudU1TRPzK0bRg6ny1run3EVl&#xA;ZJFGgtL3T6SkqyKp4TQSH4STQptSuKsh8vf7wS/8xl9/1GS4qmeKuxVLNJ/3v1r/AJjE/wCoO3xV&#xA;M8VdiqWaT/vfrX/MYn/UHb4qmeKuxVKf+mq/6Mf+Z2KsM85Qahp155K852tjPqVtoKT22qWtohlu&#xA;Baajbxo00US1aT0pIYyyqC3GtMVSCbzNrE35mw/mDBo+ot5Js7E6BJKbK5F431iT61LepZmMXJt4&#xA;5IYom/d16kCgOKso8ii/13zrr/nWexuLDTLi1tNI0NLyJ7e4mt7V5p5bhoZArokktxSPmAxC1puM&#xA;VQfma21e00XyL5r0yzm1L/DjRyajp1svqTyWV3ZNbTPDGPikki5q4QdaHFUl1bzLq9/+YGk+e9O0&#xA;nUZfJ+gwS6beu1lcxXUo1AFpp4LSREuHitnt4A5Ee9W414nFWR+UTd+Y/wAxdT86LZXNjosOmxaL&#xA;pTXsMltNdETvcXFwIJgkqRglETmoJ3OKofzbpuqt5R8meYNLs5NRuvLNxZajLYQDlPNatatbXKwp&#xA;+3Isc5dV78aDc4qkPmHzPrOuedvLvnDQ9F1Kfyx5RE36UMtlcQXNwdTQQP8AVbaZEnl+qKoeTiu9&#xA;SF5YqyTy3c3Xmr8yn81Q2N1aeXtI0uTTNOnvreW0kuri7njmnljhnWOURxpbonJ1FSTTpirXnTTN&#xA;aufKVtqWi27XuoaBr76smnx053MdvfTrPCldubQyPx/yqYqx7zX5l1rzF5j8t+ZPLejanLpHk+R7&#xA;/V1uLK4tbiY3ai0e2tYJ1ieaWG3lmkfiCNgoJLYqn+lXU3nL8y9O8xWdld23l7y3p93BBe3ttNZv&#xA;dXmotCHWKG4WOUxxR2/xOVHxGgriqp520PVdV8iSS6PB9a1fR9aOsWFoW4+tLp+qtOYanasiIyrX&#xA;uRirGfO3mfXPN935dvfK2hanJa+Vb2PXtYivbKazldoR6BsrdZ1Qy3PozzNRKr8IHIkjFU/tdSm8&#xA;7fmLoOp6dp97baB5Yhu55b+/tZ7Iz3l5CLdIYY7lIpG9KNpC7ceNaDFWceXv94Jf+Yy+/wCoyXFU&#xA;zxV2KpZpP+9+tf8AMYn/AFB2+KpnirsVSzSf979a/wCYxP8AqDt8VTPFXYqlP/TVf9GP/M7FUXpP&#xA;/HKsv+MEX/EBirDrrRfPWl+ftV1zQrWx1PTtdtbGGZL29mtGtZLEzAsqx290JFkWcdCDUb4qzzFU&#xA;s8sf8o1pP/MHb/8AJpcVY3rmlee7PzzL5g8vWthqNpfaXBp01tfXk1mYJraeeZZgY7e6DqwueJFA&#xA;duuKs2Fab9e+Kpb5Y/5RrSf+YO3/AOTS4qxnzHonnW38+W/mjy7b2eoxPpbaVc2N9dy2axt9YE6X&#xA;CtHBdcx1Vl4g+GKs2hMxhjM6qkxUeqqEsoanxBWIUkV6GgxVL/L3+8Ev/MZff9RkuKpnirsVSzy9&#xA;/vBL/wAxl9/1GS4qx7ztofmuXzN5c8yeXoba9k0ZL6C6027uZLNJUvkiAdZUhufijaDoU3BxVlmn&#xA;tqDWMDajHFDfmNTdRW7tLCslPiEbukTMtehKD5YqhPL3+8Ev/MZff9RkuKpnirsVSzSf979a/wCY&#xA;xP8AqDt8VTPFXYqlmk/7361/zGJ/1B2+KpnirsVSn/pqv+jH/mdiqhpXl+wOl2ZMt5vBGdr68H7A&#xA;8JcVRX+HrD/ft5/0nXn/AFVxV3+HrD/ft5/0nXn/AFVxVLfLWgWLeXNKYy3lTZ25NL28A3iXsJaY&#xA;qmX+HrD/AH7ef9J15/1VxV3+HrD/AH7ef9J15/1VxVLfLWgWLeXNKYy3lTZ25NL28A3iXsJcVTL/&#xA;AA9Yf79vP+k68/6q4q7/AA9Yf79vP+k68/6q4qlugaBYtYyky3n+9l6Nr28HS8lHaXFUy/w9Yf79&#xA;vP8ApOvP+quKu/w9Yf79vP8ApOvP+quKpboGgWLWMpMt5/vZeja9vB0vJR2lxVMv8PWH+/bz/pOv&#xA;P+quKu/w9Yf79vP+k68/6q4qlugaBYtYyky3n+9l6Nr28HS8lHaXFUy/w9Yf79vP+k68/wCquKu/&#xA;w9Yf79vP+k68/wCquKpbpWgWJvtZHq3nw3iAUvbwf8edud/3u+Kpl/h6w/37ef8ASdef9VcVd/h6&#xA;w/37ef8ASdef9VcVS3StAsTfawPVvPhvEApe3g/487c70l364qmX+HrD/ft5/wBJ15/1VxV3+HrD&#xA;/ft5/wBJ15/1VxVLv0LZ/wCIvq/qXXp/VPUr9buedfVp/eepz4/5NaYqiJvMWh6DoOm3WsXsVjbz&#xA;i3tYZJm4h5pVASNfFmpiqQ6l5X86Wf5j2PmXQtVkudCvV+q+YNAvrmYwRptwurFDzSORePxKAA30&#xA;k4qyjRvMWh60bwaVexXh0+4ezvREamK4joXjcdmFcVS238xaF5e8k6XqWt30Wn2K2tpGbiduK85E&#xA;VUUeJJOKsjBBAI6HcYql2leYtC1a5v7XTb6K6udKnNrqMMbVaGYCvBx2OKpfa69o2g+R9P1XWbyK&#xA;w063srX1rqZuKLyRFWp92YDFUl13y15x8x+e9KvP0tJpnkfS4hci30+6mhudRunoVW49MR0t0H7P&#xA;I8vp2VZVp/mLQ9R1LUNMsb2K41DSWRNStUNZIGlBZA47cgDTFUDb6zpWi+XL3VdWuo7LTrS6vnuL&#xA;qY8URfrso3PuTQYqwWw0f88DJd+Z9M8z6fqKX11LPYeXryI/o9tNc1tDFcxKs8Uvpb9CCfteJVZX&#xA;+XWp3aaYvlvX9ct9Y866TGJNfEJAKNcs0sQ48Y/gWNgqnjuACeuKpnY6np+l6BfajqNwlrY2lxqE&#xA;1zcSniiRpdzFmY+wxVgNjpX5zXt7qHmzRvNFjcWV5dvLoehXKepps+kMiG1f140SeCZgWYlQw6Vr&#xA;irJ/y61TU4bQeW/NWtWuo+ebZHvdTtbY/wB1BcTMYQoKxkoiMqVp/Uqsg8vf7wS/8xl9/wBRkuKp&#xA;nirsVSzSf979a/5jE/6g7fFUzxV2KpZpP+9+tf8AMYn/AFB2+KpnirsVSn/pqv8Aox/5nYq8t8+A&#xA;X35p/k5o92ldOY39+Q32XubOyWSA0PeN9/pxVH6jqUa/85PaRY+sQW8rTH0aniWa7YjbpXjG2Krf&#xA;JarYf85DefbC0HG01DT9O1G5jWnBbkL6ZNK7M6tyO2/ftiqWfmCsd7qv5M6NeMP0Zc3yXc8TfZea&#xA;ytFe3VuxqzkUPWuKpp5n1NIf+ckvJlkZiDc6NqA9ENQE/E6krXfaFqfLFVujIlh/zk95gtrTaDV/&#xA;LNtqGoqtafWre6FtFy7V9E4qlf5sgXmj/lNolynPTNS1vSxfKfsSLFECsLjuHLdPbFU3/MXUo4fz&#xA;3/Ki2MxQEa4ZYwSAfVslSKoHWrqaYqtZV0//AJyhQWg4jWvKxk1KNaUaS3u+EUzioNeC8AfDFUt/&#xA;O8Lc+TfLejzuE03W/O0Gn6oG+y1s99cyMG3G3KNT9GKpl+bOpR2P5qflPEZfTSbUL+MxK3EMHt0i&#xA;WoqKgNIMVa11EsP+cl/LFxabTazoV7a6kq13itn9aJ27fb2r7Yql35+SyH8pv0f8QtdV8xLZXzKe&#xA;NIH1OV2qf9aNRiqY/nXd22na3+V9nE/1aNvM1pHHElVX0lUx8aLtxBkUUxVvzwq2H/OQ35b3trtd&#xA;avZ6xp+oBaBntraAXEQapGyysW+jbFXpHl7/AHgl/wCYy+/6jJcVTPFXYqlmk/7361/zGJ/1B2+K&#xA;pnirsVSzSf8Ae/Wv+YxP+oO3xVM8VdiqU/8ATVf9GP8AzOxVjnm/8ubLzn5f0RhfT6TrWjmK70bW&#xA;LWhmt5uADfC2zo4A5L3oMVed6Z+Xltqvn7XrN/MupH8ztBaxvz5zMFsiCGeBkjtorNT6Xo+mzCRC&#xA;ByY13G2KvSvy8/LaDyjJquo3Wpz655i12ZZtX1m6VEeX0gVijSNPhjjRTso/VQBVC69+XunedvIe&#xA;g2dxczaff6fHZ32k6rakCa2uool4yLXZhvQqf10OKvOofINrq/5lanompeZdUu/zJ0u1tNVsfOHo&#xA;WsMdtDEWjjt4bVPgKt9YYyqwo361XpnkD8s4/K+o6rrmo6rP5g8z62yfpDWLlEiJjiFI4YoY/giR&#xA;fBf1AAKrNc8g6V54/LrSdIv5ZbSWGGzu9P1C2PGe1uoYwY5oj4ipHyPbrirzq4/Lq11P8yZPLnmL&#xA;zNqeqef4tIg1rRPNSw21tHYQW14YUjhgiPFneViZOQoy9wcVeieRPywby9r2peZ9Z1q48yeadUjS&#xA;2m1S4jigWO2jIZYYYYhwjUsAWp1IGw3qqq675G0fzt5KvtA1UyRwzX15JDcwHjNBNFeytHLG2/xK&#xA;fw2xVjFx+QMuru995r823+t69bQxQ6DqwigtX04wTJOssUcYKvKZI15O25Xb3xVP/Jf5Wy6L5mu/&#xA;NnmDXbjzP5nubdbGLULiKK3SC1UhvShgh+BeTCrH+rVVR2q+TtG85eSdT8u6wjNZXt1egvGQskbr&#xA;fSskkbEGjIwBG3z2xV5brf5a2M/nHQvKfnjzLqvmXVtS0+6j8r6j6cFqNMNn6c7XHKM85Lg+mlJG&#xA;qSAeVeyrP/KP5UXWmebD5u8zeY7nzT5gitjY2FxcQw20VtA27enDD8PNt6v3BPzxVl/l7/eCX/mM&#xA;vv8AqMlxVM8VdiqWaT/vfrX/ADGJ/wBQdviqZ4q7FUs0n/e/Wv8AmMT/AKg7fFUzxV2KpT/01X/R&#xA;j/zOxVQ0rVb8aXZgaNeECCPcPZ7/AADxuMVY55l/LzyV5m1Y6trfkue71Fo1hkuPVgjZ40+ysgju&#xA;0D0/ygfDFWW/pa//AOrLef8AB2f/AGUYqlvlrVb4eXNKA0e8YCztwGD2dD+6XcVuAcVSfzT5C8n+&#xA;atRTUtf8m3F7fJD9WFwZYI2MPIt6b+ldpzWpOzVxVk8OoXcMMcMWiXixRKERednsqigG9xiqA8ta&#xA;rfDy5pQGj3jAWduAwezof3S773AOKpT5s8j+U/Nt5Be+YfJ1xfXlvGYIbgy28UgiJLFC0V2hK1JN&#xA;D4nxxVkVndzWdpBZ2ug3cVtbRrDBEr2dFjjUKqj/AEjsBiqD0DVb4WMtNHvG/wBMvTUPZ97yU03u&#xA;B0xVMv0tf/8AVlvP+Ds/+yjFXfpa/wD+rLef8HZ/9lGKpboGq3wsZQNHvG/0y9NQ9n3vJTTe4HTF&#xA;UB5t8qeXfN31Q+YvKVxfvYl2s5Glto5I/UAD8XiukajcRUVpiqa6OqaNpdtpWmeXru10+zQRW1ur&#xA;2hCIOgBa5J+84qo6Bqt8LGWmj3jf6Zemoez73kppvcDpiqZfpa//AOrLef8AB2f/AGUYq79LX/8A&#xA;1Zbz/g7P/soxVLdK1W+F9rBGj3hreISA9nt/oduKGtxiqZfpa/8A+rLef8HZ/wDZRirv0tf/APVl&#xA;vP8Ag7P/ALKMVS3StVvhfawRo94a3iEgPZ7f6HbihrcYqmX6Wv8A/qy3n/B2f/ZRirv0tf8A/Vlv&#xA;P+Ds/wDsoxVLv0jef4h9X9F3XqfVOP1flbc6erXnX1uHHt9qvtiqc6T/AMcqy/4wRf8AEBirG7f8&#xA;0/Kknn6TyJM09p5iVDLDDcRFI50A5VhkqVeqVYfI9wRirL8VSzyx/wAo1pP/ADB2/wDyaXFUzxV2&#xA;KpZ5Y/5RrSf+YO3/AOTS4qkXm781PKnlbXtK8v3zT3Ot6yf9B06ziM8zDlxDMARxVmrQnwPgcVZe&#xA;Onh7Yqlvl7/eCX/mMvv+oyXFWN2f51/lXd+Ybry9F5ktV1ayd4p4JucKc4iVdUmlVIpCCOiOcVZF&#xA;5Z80aD5n0eHWdBu1vtMnLrDcorqGMbFGoHCtsykdMVXeXv8AeCX/AJjL7/qMlxVj0f5zflg/mq48&#xA;qnzDbRa7ayGCa1mEkKiZTQxrNIqws9duKuTXbriqfeWfNXl/zPpn6U0G8W/sPUeH10DKvqRmjr8Y&#xA;U7HFV/l7/eCX/mMvv+oyXFUzxV2KpZpP+9+tf8xif9QdviqZ4q7FUs0n/e/Wv+YxP+oO3xVM8Vdi&#xA;qU/9NV/0Y/8AM7FXn/5k/mdrXlNPJGg+XbW2vNf80XEVrCl2HMUcCrGskjCNkYfFKtDWlA2KonzD&#xA;qfkHWvzg0XylrOiyXXmbTbT9LaZq4JjSGjVoGSRZK8oq0IIxVv8ALP8AM7XNe87ecPJ3mO1trXVf&#xA;LlwptGtBIqz2b1CyMJHkPL7DdtnAptiqX/mJ+Z2seSfJ/ku08v2lvf8AmLzFLZWFhbXfP0irRoHY&#xA;+myNXk6KN/2q70pirKtR/MrT9M/MTQfIN3bTS6vrlrJdR3kQUWy+jHK7hgzcxX6u1Nj1GKpL5G/M&#xA;3XtT/NLzb5B8wWttBdaIqXelz2iyKJrN+PxSiR3+Ok0X2dqkjtiqD/Mn8ztQ8g/lr5cudItIr/Xt&#xA;WaxsNNtJ+RjZniDOzBGRj8K8RRvtMO2Kq19qnkzQPzc8uwanovr+fvM9mY21qEs0EQhi/eKizSMY&#xA;lPpkDgtaHc7nFVby3+Z2uT/nN5h/LzXbW2hjtbZL/Qbq3EitNbniWEvN3DOBIPshd1b2xVQ/M/8A&#xA;Mu5/Lz8t7jWrG3jutVuNVuLLTbeYO0bTS3s7HkqMjmkcbnY9aYqkGv6F+Vnly18peSfNPlGG5vvP&#xA;F5LLOLYvJFb6k4gW5kSeaY3EalpVA9N+gxVNvKPm6Xyz+bDflF+i7PT/AC7FpovPK72olEjJUvIs&#xA;xkkk5Gokqw3LKSftbKpj+Yv5it+X35Y6p5ihijnv0vrq306Cbl6b3E19KF58SrFVUM5AIrSlRirG&#xA;NU0n8udC0Dy5p3nDynFc6n+YuqxNqUMJllSHVL8p6kgkuZnmjClwG9Jh0NBiqZaB5mXyN+bWn/lN&#xA;baTZ6d5SvtPe78uy2/rGczDlJKs8kkkgYkxS9uX2d98Vem+Xv94Jf+Yy+/6jJcVTPFXYqlmk/wC9&#xA;+tf8xif9QdviqZ4q7FUs0n/e/Wv+YxP+oO3xVM8VdiqU/wDTVf8ARj/zOxV4h+drz+W/N/5ZfmFd&#xA;W8lz5e0atvqrxoZBbiZUCylR4hmI91A60xVi19+aWky/nza/mjax3D/l1ZRJoF3r4glEfqTQSScg&#xA;jJ6tFkYA/DXb3FVWX/kle/4w/O3z5+YmlxSL5Zu4LfTrG6lRkE8kSQoWQMAfs23IjqOS13xVC/nk&#xA;l5pNp+U/no20lzo/la4ik1YQrydIp1tmD06UpbsN9uRA74qxrzN+amk6r+d+hfmdpMNxd+QfKscW&#xA;lanrS28wRJNQjuVaTgyrLxjE4B+HqB/MtVWWflbqUfnv/nITzJ5+0SKQ+VbPTV0u31F0eMXM9Yj8&#xA;IcKeiMd9wONQOWKrfz8stRtvJ/5c+cILV72w8qXlle6nbIvP9xwifm6/ygw8Cf8AKxVinnz81NK8&#xA;wfmt5Z/MHy1Dc6h5Q8mrAmv6skEirD9ekdHHCRQx4RnsOv34qynyJrlp+Yf/ADkleecfLayT+WNF&#xA;0gWD6m8bxxyzOahUDqrA/vG2YdFr3GKoj/nIzSdUn/LjTtbsLZrtPLnmKbUb2BAS31dLq4Vn2rsr&#xA;MvLwG/QYqwz80PzY0zzn528oea/KVrdap5f8hGPVvMFysEiGBLq4gEkZDBauiQ9qr1NSFJxVk+he&#xA;YbD8zP8AnJbSPM/lQSXXlzyrpcsN5qrRSRRySzxzosa+oqN1udgRU8WPTFUz/wCcjfLur6x+Tcs2&#xA;mW7XT6Prk+pXNsql+cEVzdRvVBuyr6wZvYE9sVYH+bf5saf591Pyfrvki0utTh8luPMHmDjC6m1C&#xA;zwcY25gKzKY2rxqKbioDUVZJD5t0r80f+civKWqeT/VvdF8sWU02p6k0UkUatMkgEdJFVq8mVd+p&#xA;rTZa4q988vf7wS/8xl9/1GS4qmeKuxVLNJ/3v1r/AJjE/wCoO3xVM8VdiqWaT/vfrX/MYn/UHb4q&#xA;meKuxVKf+mq/6Mf+Z2KonTY45NHtI5FDxvbxhkYAggoNiDirx7UL381/K35k69FF5ZuvNPkbULaJ&#xA;dD061e3jtrduCc0ZH2QF+YNR74q9otI44rWJIoVtkVRxgUBQm32QF229sVQPltEfyxpaOoZGsoAy&#xA;kVBBiWoIxV5Tr1z+aXlb80r6fTfLlz5i8g3unLBp+j2L28VvDdH0ubujU4/3b1qKUevjir1/SQo0&#xA;y042Y0/lEjGxAUeiWUEx/B8Pwk022xVDeWgG8s6UCKg2VuCD0I9JcVeW+a5/zQ8q/mil9omhXOv+&#xA;Q7rT/S/Q2ntBFHHdk/E7I1KE0rU7EN7Yq9W0Af7hbGQ6cukyTQRyzaYvD/R5JEDPETGAhKMeJI2O&#xA;KrPL4B0+YHcG8vqj/o8mxVGW1hY2sTRW1vFBE5LPHGiopLdSQoANcVbtrS1tYvRtYY4Iqk+nEoRa&#xA;nqaKAMVQXl7/AHgl/wCYy+/6jJcVeafmN/ysry5+YHl7XfKOlT6r5TWKZNd0PTjDEZbhhIEldWoS&#xA;f3isD4rvir0XylLLPoNtdz6L/h+6ueUlxpRMZaJ+ZHxNF8DFgA304qreXv8AeCX/AJjL7/qMlxVM&#xA;8VdiqWaT/vfrX/MYn/UHb4qmeKuxVLNJ/wB79a/5jE/6g7fFUzxV2KpT/wBNV/0Y/wDM7FVDStKv&#xA;zpdmRrN4AYI9glnt8A8bfFUV+ib/AP6vV5/wFn/2T4q79E3/AP1erz/gLP8A7J8VS3y1pV8fLmlE&#xA;axeKDZ25ChLOg/dLsK25OKpl+ib/AP6vV5/wFn/2T4q79E3/AP1erz/gLP8A7J8VS3y1pV8fLmlE&#xA;azeKDZ25ChLOg/dLtvbk4qmX6Jv/APq9Xn/AWf8A2T4q79E3/wD1erz/AICz/wCyfFUt0DSr42Mt&#xA;NZvF/wBMvRQJZ9ryXfe374qmX6Jv/wDq9Xn/AAFn/wBk+Ku/RN//ANXq8/4Cz/7J8VS3QNKvjYyk&#xA;axeL/pl6KBLPteSiu9ueuKpl+ib/AP6vV5/wFn/2T4q79E3/AP1erz/gLP8A7J8VS3QNKvjYy01m&#xA;8X/TL0UCWfa8l33t++Kpl+ib/wD6vV5/wFn/ANk+Ku/RN/8A9Xq8/wCAs/8AsnxVLdK0q+N9rAGs&#xA;XgpeICQlnv8A6Hbmprb4qmX6Jv8A/q9Xn/AWf/ZPirv0Tf8A/V6vP+As/wDsnxVLdK0q+N9rAGsX&#xA;gpeICQlnv/oduamtviqZfom//wCr1ef8BZ/9k+Ku/RN//wBXq8/4Cz/7J8VS79HXn+IfS/Sl16n1&#xA;Tl9Y423Onq04U9Hhx7/Zr74qmlhdW1vpNgZ5UhDxRIhkYLyb068RXqaAnFXm2rN+eWhfmrZT2sz+&#xA;Zvy71FyLqzEVjDPYCQ0+2FhkkWIkMpqSy1U/FRiq9UhuraZpFhlSVojxlCMGKt4NTocVS3QLm3t/&#xA;LGkPcSpChtLdQ0jBRUxLQVNMVTYEEVG4PQ4qpxXVtLJJHFKkkkW0qKwLKSSPiA6fZOKpboFxb2/l&#xA;bSpbiVIYxZ2wLyMFWrRqAKmnUmmKvPfN8v5361+ZdhpXlaVvLvkm2jDalrzRWdw1yxo7iFJ1mYUF&#xA;ET4RvyY1FMVepw3Nu8jW6TrLPCB6qBlLitQCyr0rQ9sVS/RJ4INMmlnkWKMXt6C7kKoJvZQNz4k0&#xA;xV4naecf+cpI31LzAvl211HRHu5obPQH4Q3kdvQNDPE609RCHAqS5ND8IG+KvUPyq1Pzle+UbR/O&#xA;5hh80yGSW6sYgiPDEXIiDohahKUJ+fjiqeaJNDBpc8s0ixRJeXxeRyFUD65LuSdsVeNt5s/5ydj1&#xA;vWdcstBs9S8sW19JBY6DIViupbNT+7uLeYU58lAqSzbnZPBV6D+UWree7/ytG3n5YbbzNLLLJ9Qj&#xA;CRyR2ylVQvGjNQ13+RGKsm8vf7wS/wDMZff9RkuKpnirsVSzSf8Ae/Wv+YxP+oO3xVM8VdiqWaT/&#xA;AL361/zGJ/1B2+KpnirsVSn/AKar/ox/5nYq+dv+chP+dh8/flZ5HuCRpt21vPeJUgOtxNHCendY&#xA;4nC/62Kstv8AzZrEH/OVOjeVrbUpodBOksX0hXKWxlWCeRaRbKSFVTt4e2Ksd/Ii3/w1/wA5D/mJ&#xA;5OsaLo7RSX8UCn4Yyk8RiRQP5UvSv0Yql/8AzkjLcarbflT5NMhi0/WJIWuiDSrkW9vG29AOCzyd&#xA;fHFWU+bvMWt6T/zkx5G8p6VqE1n5bfSoxLo8MhW2PD64q8ogeOyxJ9wxVI/yxRfKv/OV3nTyzZfD&#xA;pmqQNdNAuyLLIkV6hp/kevIoHauKof8A5yiv7qfyR+XPlWGT049ckjeRu1beGGJOVO1buv0YqyXz&#xA;7rt/5Y/On8sfKGiahNp2gGBIJ9MikZIHiVjDCrrsrfY4jFUl8sQf4X/5zD1nTNOomn+YrOS4uIAd&#xA;g8kC3TtQftetGxHs2Krf+cr9Zvbb8sNO0mBuEWqa7e/WTXiGSC4ndUau1ObK2/8AKMVR35nX2r+R&#xA;/PH5O+UPLupT2Gjm5trK9tLeQxpcRLdW0R9ZFPxcwzVr1qcVQEiL5V/5zKgSw/d2vmmzL30KbAtL&#xA;A7Maf5U9qsh+ZxVH/wDOU2uXGn/k0LCBiv6X16e3uAO8Mdzc3BH/ACMiTFUP+ZN/qP5e6b+TnlvQ&#xA;dSl0u0luI4dQS3kaJLhFe1M7S0oCGeZmNf5jiqn5ttz5X/5y/wDLd/p3wJ5mtFGoxA8VdpFltmqB&#xA;/wAYI5Pdhir6B8vf7wS/8xl9/wBRkuKpnirsVSzSf979a/5jE/6g7fFUzxV2KpZpP+9+tf8AMYn/&#xA;AFB2+KpnirsVSn/pqv8Aox/5nYq80/Nz8l73z9pXlvV9C1JdJ806Akcmn3UnL0mFEkUMyBmRkdAy&#xA;MFPfbfZV5fpX5beY9f8AO2qX8Pn+3ufzv0S4S5nC21xHYQW8KCAxF2t4425eooPBCKbcTUnFXqn5&#xA;KfktrPk7Wda82ebNVi1jzdrlUubiAN6UcbOJJArMsZb1HVT9hQOIAGKqP5m/k3L+Y3knytPpl+NL&#xA;8xaJBDNpt44b0yJIoy6OU+NfijRlYA0I6b4q8vh/LrXvMnn2+XUfzBt5vzt0V7e5s44LW4WyggtF&#xA;B4vI1tFE3P1kJ4oR1qG5NRV6j+T35KeYPLfmvV/PHnbVodZ83aqpi9S25ejHG5UuQXSKrHgqqAgC&#xA;qKDrsqr/AJl/lBH+Zf5b6BZw3g0/WNNhguNNu2BZKtCqvHIF3CvQGo3BA+WKvJpfyy8xeYvPE2ne&#xA;aPzBhm/OLSYLWXQI7aC5NvBDa/6QrSzm3hjJbny+EVB3PKtMVemflV+SfmvSPPl/+YPn/WbfWfNF&#xA;1GYYBaK3oxBgELhmSHf014KqoABXriqa/mX+U9t+ZfkGTSPrIstRtNSvbrTrtlLosoup1KSAUPB1&#xA;ahp0NDvShVYBc/8AONf5m+ZkOpedfOMM/mPSraG38rz2isYoTBKJBJOxjgZmNCCeJap5EniBirJf&#xA;y3/JDzna/mLL+Yf5ja3b6z5hiiMOnpZBhClYzDzNY4FFIyQFVKVJatcVZJ5//LKz/Mf8vLvy/PcG&#xA;zuE1K7u7C748xHcR3c6qWWoqrI7Kd++KvDtT/KbWdS8x6b5K/Mbz/C3muDTRH5FsrKC6kCKrsUmn&#xA;nFvCg2tXQ1YvsDy2FVXo3kT8jPPh/Mi38+/mXr9rrWp6ZCIdMhtFbgOKsiM5aO3VeHNm4qm7HlXx&#xA;Vew+Xv8AeCX/AJjL7/qMlxVM8VdiqWaT/vfrX/MYn/UHb4qmeKuxVLNJ/wB79a/5jE/6g7fFUzxV&#xA;2KpT/wBNV/0Y/wDM7FVDSvMFgNLswYrzaCMbWN4f2B4RYq8x81fkh5A1/wA23nmmLUfMuialqS8d&#xA;Q/RUVzAsoKhW+1ayMORRSwrQ06Yq9SstX060s4LVVv5Vt40iWSWyvGdgiheTn0RVjTfFUH5a1+xX&#xA;y5pSmK8qLO3BpZXhG0S9xFTFXn3nT8mfInmfzdN5sTUPMeiaxdokV7LpUNzAJURBHvytnYEqig0N&#xA;DTpXfFXpGkX+maZpNlpsX6RnjsYIrZJp7O8eV1iQIGkb0RyduNWNOuKqHlrX7FfLmlKYryos7cGl&#xA;leEbRL3EWKsD8+flB5E83+a081Pe+YdF1sRrDLdaVDcwNIirw3LW0jBuHw1UjbqDirPvL0+laHod&#xA;jo8LandQ2EKW8dxdWl3JO6xjiDI4gUM1Oppiq3QNfsVsZQYrz/ey9O1leHreSntFiqZf4hsP99Xn&#xA;/SDef9UsVd/iGw/31ef9IN5/1SxVLdA1+xWxlBivP97L07WV4et5Ke0WKsM/Mr8r/I/n3WbDXL24&#xA;1zS9a06MQ22oabb3UMnpq7OqkvbSfZZ2KlaHfFWWeToNH8reXbTQrafWNQgtPU4XeoWt3Pcv6sjS&#xA;n1JBAnKhc026bYqr6Br9itjKDFef72Xp2srw9byU9osVTL/ENh/vq8/6Qbz/AKpYq7/ENh/vq8/6&#xA;Qbz/AKpYqlula/Yi+1k+lefFeIRSyvD/AMeduN/3W2Kpl/iGw/31ef8ASDef9UsVd/iGw/31ef8A&#xA;SDef9UsVS3StfsRfawfSvPivEIpZXh/487cb0i26YqmX+IbD/fV5/wBIN5/1SxV3+IbD/fV5/wBI&#xA;N5/1SxVLv01Z/wCIvrHp3Xp/VPTp9UuedfVr/d+nz4/5VKYqnOk/8cqy/wCMEX/EBirHNH/Nn8vN&#xA;Y8yP5Z0/WI5NfjaRH0545oZQ8NTItJUT4loajrirLsVSzyx/yjWk/wDMHb/8mlxVM8VdiqWeWP8A&#xA;lGtJ/wCYO3/5NLiqUecPzS8geTrq3tPMusxaddXaGW3hdZHdkB48qRq9BXYV64qya3njuLeK4ir6&#xA;UyLInJWRuLCoqrAMp36EVxVAeXv94Jf+Yy+/6jJcVS2y/MryBe6reaTa+YLGXUrD1PrdoJ09RPRr&#xA;6mxPxcKHlxrTviqZ6D5j0HzBYfpDQ7+DUrEu0YubZxJHzX7S8l2qK4q15e/3gl/5jL7/AKjJcVQN&#xA;t+YXka68wT+XYNdsn1y2YxzaeJ0EwdftIFJ+Jl/aUbjviqN8veaPLvmSye+0DUrfVLOOQwSXFrIs&#xA;qLKqqxQstdwrqae+Kt+Xv94Jf+Yy+/6jJcVTPFXYqlmk/wC9+tf8xif9QdviqZ4q7FUs0n/e/Wv+&#xA;YxP+oO3xVM8VdiqU/wDTVf8ARj/zOxV57+Z/556V+WOm+XILjTZdVu9WhqtvDIsbJHEqAuaq9eTP&#xA;RR3ocVSPzdoP5UeYfzj0Nbi51DQvzRSGO8ig07jGJXihNwi3EzwTwsUjhZK7VX4TUUGKsj/Kb89t&#xA;O/MHX9a0E6TNo2p6OObW88qys6rIYpa8VXiY34gjfriqG/MH86tK/K/yb5Vmu7F9SudUgjSG1jkE&#xA;REcMCGSTkVcfCXQU98VZEv5v+U4PMOi+V9VaXT/NGt28FzDpbRyScPrCkiN5kX0+SlGB37Yqkn5a&#xA;fnvY+dPOuteUJ9Hm0bVtHWQsk0qy8zbyiGZfhVeLIzDxqK+GKu8/fnBpn5Y/l95d1K6sn1Ge/jt7&#xA;e3s45BExC24d5CxV9loB06sMVYnJZflFdfmn5X82+a5tT/xl5nt7S70TQbzjNaW/q0S2A9GFQrRk&#xA;Vo8hAapO++Kss8lfnxY+Y/zK1XyDdaPNpOp6b64WWWZZVme2cK6qFUUqp5qamqjFVfz9+aum/lp5&#xA;J/Td5atfyXGq3drbWSOI2dmup3Y8ir0CqhPTwHfFXh8H5YfkJH5d8vQeZrrV9O8yec2S/wBJuGPq&#xA;3KpcsqRRuYovq/FyVf4k5Dl1GKvRfyb89eV/K/nCT8krTSbuym0xrow6jeTxyvdzL+/ZiiJGFEkN&#xA;XSn7IG3fFWZ+d/zL078uvINz5ivbZrw/pO5trazRxG0sst7MacyGpxRWbp2xV4VH5C/Iafyvpeue&#xA;bpNW0zVfzAuprvR5S5muIiJQrKDDEYeDmdG/eJWh6jFWd/lV5w8qfl957P5J2ulXdtJ9YmlGs3c8&#xA;chuZ5IRMjlI0QKJIEUL4bKd98Ve1+Xv94Jf+Yy+/6jJcVTPFXYqlmk/7361/zGJ/1B2+KpnirsVS&#xA;zSf979a/5jE/6g7fFUzxV2KpT/01X/Rj/wAzsVfLH/OTgl0z8x/y98wX8bNoUNnZ8iF5Ata3RluF&#xA;HifTkTbFUFqX5teUpv8AnKCw8+wzvJ5RsuFi+qCGVUBmsZYeZUrz+F5GNONSFNBiqbf8463UWv8A&#xA;/ORvnLzJoyOdDnS/mE/FkUpdXiPDyBpQycS4U+B8MVQv/OU1vPbt+W2r3UDzaNFZJHKBXiXT0pHT&#xA;wBePp409sVS/zv8Amn5R1X/nIny/54sJ5J/K2k/ULe91IQyBUZ/Vckqyh/hDnalTxalcVTT8ntQt&#xA;/NH/ADlXrXmPy8Gk0Mi9uJLgqVDRPGIlcggEepMQwBocVXf85d2Gov5T/LzUFVm06G1lgkYD4Uml&#xA;ht2UMf8ALWJqf6pxVKPzO/NvyjrX51eTPNmjNJceWvLsen/pC4WGRPSJuXlkXiV/YjYUFN2BAxVN&#xA;PImsWHm//nMObzF5Z5XGiATzSXCqyKYk0z6o0pVgpCvcMKVHcYqmn/OXlhfy+SNAvYkZrG21jVY7&#xA;lhXirzXDmLl8/TehxVhP5rfmZ5T8webPIGr6B6s+l+V7Oxm1UJE4+rhLmPlEeQFSlFWv2SSKHFU8&#xA;sde03zx/zl5p+teUWa709XikmvQjIrR21lwmkIZVZV29MchuaeIxVlH/ADlpYajP+V2m3cCs9lZ6&#xA;/em84ivEyTXKRux7CtV+bDFXmX5qfmX5b17Sfywj0ESXa+T9Pik1eJInT0HH1WJoizADZranIfD8&#xA;Q33xVkereaNF8/f85VeV9U8nu97ZxNZGe5WOSPkLYNLOxDhWASP4TUdsVfWHl7/eCX/mMvv+oyXF&#xA;UzxV2KpZpP8AvfrX/MYn/UHb4qmeKuxVLNJ/3v1r/mMT/qDt8VTPFXYqlP8A01X/AEY/8zsVQ915&#xA;Z8v+Y/LNppuvadb6lYtDE3oXMayKGCABlr9lhXZhvir5kuvOtt5I85eZPI/nLyRFcfl8JrmTStO0&#xA;/To+UjmVTZ3LSu0fqfuKqz8uQPypir6W8haJ5V0zy1Zy+W9Hi0Wx1GGK8NrHEsUlZow49am7Ooah&#xA;qTirrby9ofmDyTpuma3YQajYS2dsXtrlFkTkIlowDdGHYjcYq+btc812v5e/mDrfkzXvJUUv5azM&#xA;0sFjY6bG73JMatBL60jIJODNQtyqvQdMVfRP5a6N5OsvK1lf+V9Dj0K01aCK8ktREIpwZEDBZ+rF&#xA;k5U3Jp2xVF2Gi6RrXkrT9N1ezhv7CeytxNa3CLJG1IlIqrAioO4PbFXzl5n8xxfll+ZeqeVdR8mQ&#xA;SfldqKq8ltY6dHLLdobcGM+rKUEhiuCdmccd6e6r3j8qNK8kR+VLTWvKvl+PQLfWIxPJAYljuNiQ&#xA;FmYcmPHeg5UHbFU4stK0zVtBu9P1S0hvrC4u75Z7W4RZI3H12U0ZGBB3xVCaR+V35d6Rp97p2neX&#xA;bGCy1JQl/B6KusyDcLJz5FlB3APTFUR5W/L/AMleVPWPlzRrXTHuKCeSCMB3A6KzmrEDwrTFVbTb&#xA;Cx1DRLuyv7eO7s7i6v0ntp0WSN1N5LVWRgVI+eKvnf8AMTUj+Uv5kQ2mmeT7T/lXuswRDVha6ek8&#xA;txExZbi39WT4f2eXpFgKU8cVeu/kxY/lzd+Xx5m8oeWF8vi/aWJ1mgSK74RvxoxBkIVuIYKGpirM&#xA;vL3+8Ev/ADGX3/UZLiqZ4q7FUs0n/e/Wv+YxP+oO3xVM8VdiqWaT/vfrX/MYn/UHb4qmeKuxVKf+&#xA;mq/6Mf8AmdiqhpUHmP8ARdnS+swPQjoDZyn9gf8ALziqK+r+Zf8Alvs/+kOX/sqxV31fzL/y32f/&#xA;AEhy/wDZViqW+WoPMf8AhzSuN9ZhfqdvxBtJSQPSXqfrIxVMvq/mX/lvs/8ApDl/7KsVd9X8y/8A&#xA;LfZ/9Icv/ZViqW+WoPMf+HNK431mF+p29AbSUmnpL3+sjFUy+r+Zf+W+z/6Q5f8AsqxV31fzL/y3&#xA;2f8A0hy/9lWKpboEHmP6jLxvrMD65e9bSU7/AFyWv/HyO+Kpl9X8y/8ALfZ/9Icv/ZVirvq/mX/l&#xA;vs/+kOX/ALKsVS3QIPMf1GXjfWYH1y962kp3+uS1/wCPkd8VTL6v5l/5b7P/AKQ5f+yrFXfV/Mv/&#xA;AC32f/SHL/2VYqlugQeY/qMvG+swPrl71tJTv9clr/x8jviqZfV/Mv8Ay32f/SHL/wBlWKu+r+Zf&#xA;+W+z/wCkOX/sqxVLdKg8x/XtYpfWYP1xOVbSU1P1O36f6T4YqmX1fzL/AMt9n/0hy/8AZVirvq/m&#xA;X/lvs/8ApDl/7KsVS3SoPMf17WKX1mD9cTlW0lNT9Tt+n+k+GKpl9X8y/wDLfZ/9Icv/AGVYq76v&#xA;5l/5b7P/AKQ5f+yrFUu9HXP8Q8frdr9Z+qV9T6tJw4er9nh69eVe/L6MVTnSf+OVZf8AGCL/AIgM&#xA;VeFap+bX5xeTvzUtNB816bb33lG6mAXV9Ps56/VpSVSUsryBWiahlSnStOqnFX0BiqWeWP8AlGtJ&#xA;/wCYO3/5NLiqZ4q7FUs8sf8AKNaT/wAwdv8A8mlxV4z5/wDzb/NeX81IvJX5eaRFNbxhIbvUr+2l&#xA;MHr0LyuJQ0aiOJKA9ywIFdqqvcrGO7js4I7yZbi7WNRcTonpI8gHxMqcn4gnoORp44qgtBdE02d3&#xA;YKi3l+WYmgAF5NUk4q+Y9N/5y1/M2aHVNePlGG98qRSyQQ3MCTqbWTjyiFxMGlRqKQWHFa9iMVe4&#xA;fkd5381+dvIcPmHzLZQWN3c3Eq2sdtHLFG9ulFWQLM8rbty35UxVlvl7/eCX/mMvv+oyXFXzTF/z&#xA;lh+YravreoW3lSLUvKGm3DW5kt1nE0AJYQvPMDInxcKmsYHYEYq9f/IP8wPOPnzyXL5h8zWNtYNJ&#xA;dvFp62kc0SS26In72k0kxNZCy1B/ZxVm/l7/AHgl/wCYy+/6jJcVTPFXYqlmk/7361/zGJ/1B2+K&#xA;pnirsVSzSf8Ae/Wv+YxP+oO3xVM8VdiqU/8ATVf9GP8AzOxV8vf85ReffNdn5k8o+W/LuqXemyR6&#xA;bFcs1jPJbs812/pIrmJlJ4iDb/W98VZlcfmR5007899M/Kj6/wCt5fNrBaz3Tgm+cnTubS/WSxk9&#xA;RpBy5da4qxL/AJxm86+cYvzh13yn5g1i81hHhuYTJeXEtwVnsJgodTKz0BTmNvbwxVZ/zk/5/wDM&#xA;mjWPkXRtE1O60sjTVv7iWzmkgdyypFFV4yp+H03798VZHqP5ofmD5V/N3yl+WjXwu9Nlh0u21K4u&#xA;gZruWSdQtw5uC3PkzVNcVY5+Rnm/zhpP/OQ+q+TNb1y/1e2kfUNOQX1xNcVeyLSxSr6rNQ+nA30H&#xA;FUd/zlD5917Q/KnkTR9E1C406W5the3U1pM8EtIYY44RzjZW41kckeIGKo+//ND8wvJnnb8sPIq3&#xA;/wBcttZsdHfW7i+DXN1JNf3rxXJ9aRi/QUWvTFUg/LTzd5w0L/nJ+88p6lrd/q2mTXN9pyR3t1Nc&#xA;hYlV7i3YCRnAYemo27E4qn3/ADlL531zy/5P0LTdHvp9On1LV9VnkubWR4ZeFncuOHNCpoWuAevY&#xA;Yqlesfm1+ZPkSH8ttBh1M351zTLO+1W61Gt3cvLfXLM6+tIxaiI4RfliqG0fzb5v8r/85XyeXr/X&#xA;L++0i4v3tEs7u5mnjWC/i9e2RVkZgPTaWOlPDFWV/wDOT3nTVvL35bWNjpN5NY3eq61fCS4t5Gik&#xA;9C3uZnZVZCrCrslcVYtqn5sfmV5B8iflulvqj3935lt5r7UrrU+d5MwlmjaFVeZmZVWKUD8cVWap&#xA;5u84eVP+csYNIl1vUL3RrzU7eGKwuLqWWBYdWRBwWJ2ZVWJ5/hAG3EYq+pPL3+8Ev/MZff8AUZLi&#xA;qZ4q7FUs0n/e/Wv+YxP+oO3xVM8VdiqWaT/vfrX/ADGJ/wBQdviqZ4q7FUp/6ar/AKMf+Z2KvBv+&#xA;cgvyL81ecn0DzX5QVJ9Xs7KC0ubIyRwOyxkyxSxySFE5KXYNyYbUpirzmw8hfm9rfmafzva+ZNIv&#xA;PzUsrpWOgW99p8t2IraP6vI7pFI1uvGioUPatSDsVXo//OOv5F+ePLvnHUPO/ngLbalOkyQWYljm&#xA;leW5cNLPK0BeIAitFDHr2puq789/yO8x+fvLflbW/LCx3Gq6dp0VtcWMkixGWFkV0MbuVQMrFqhm&#xA;FQeu26rzNPIH5teZfMkvmW58y6RL+aGkXMCWPl9dQ0+W+c6eCJCyQyNCjRGMVR+vx86ftKvRPyI/&#xA;Iv8AMTT/AMybn8wvP6x2uocrmWK3EsU0st1eBlklb6uzxInCR6AN36ADFU0/PT8ldb/MHyR5W1Ly&#xA;6I5Nb0izSM2cjLF9YgmijNFkchQyMlQGIFCd+mKvJl/Lb82fMeux3+q+ZNJi/Mby6LW30Hy+b+wf&#xA;UJPqFZgOEEjojRAGT49zuWoN8VZ9+TP5GfmcPzVf8w/zDVLS7hkmuRCJYJZLi5njaMNS2Z40jQOT&#xA;So3AFKYqyf8APX8ndY/MXydZS6E0Z1rRdR1N4LeVxGs0VxduJUDn4Q9YkK8qDrviryxv+ce/+cgf&#xA;NFpFqPmKWGy1Ly1Y29n5ctZZrZpJUtnBjQSW7PGvFSx5yNyLUB2+IKsk/LH8i/zZ1P8ANuLz/wDm&#xA;SkdrLazC7kBlt5JbieOMJAEW1Z40SPivUj7NAN6hVnf51/lJqH5jeQEg0h411vStTv7izSUhUlR7&#xA;qZZYeZ+wW+FgTtUUPWoVeDTflR+Z3mCS08u+bvMGlaRrXlyyjs/LGhXWoWBvJWZ1eKBY7eV3Xkn2&#xA;XffZR03CrN/In5F/nHr/AObdl53/ADJVLQ6fcW95JL6ts8k8lmF+rpHHaM6KoaNeVabeJOKvpny9&#xA;/vBL/wAxl9/1GS4qmeKuxVLNJ/3v1r/mMT/qDt8VTPFXYqlmk/7361/zGJ/1B2+KpnirsVSn/pqv&#xA;+jH/AJnYq3pWq6WNLswbyAEQR1HqJ/IPfFXz5r3/ADjdqUXnjUvM/kzz/HobapNPNIFZo54VuXLy&#xA;xrLFKC61O1adu4rir3vyzJFpflzS9N1HWotSv7K0ht7rUHkHOeSKMI0r83dizkciSxqcVd5a1XSx&#xA;5c0oG8gBFnbggyJ/vpffFXhPm7/nHO8n/MG/85eTfPMOh3eozy3LipSWKS5r6/pzQuKq5Ztio698&#xA;Ve4eT1GjeWNN0rVdej1fUbOBYrnU5ZBznZf225O7E+5Yk4qreWdV0seXNKBvIARZ24IMif76X3xV&#xA;4j+YH/OPc+q/mHceePKHnaLQ9SupPWZWYh4pWj9ORop4pA1HHVSvc702xV7D5CtpPL/lLT9H1rzE&#xA;muanaK63GqzSkyTcpWdSxkkleqowXdu3bpiqN8v6rpYsJQbyAf6ZfHeRO95KfHFUy/S2lf8ALbB/&#xA;yNT+uKu/S2lf8tsH/I1P64qlvl/VdLFhKDeQA/XL47yJ3vJT44q8e/N38hovN/neLzr5d83Q6LrK&#xA;rDyDmtJbegjmiljkVkIVV24ncVrir0f8sdM1Hyx5XXTPMfmpPMepevJM2ozSsX4SUIjrLJIxCmtO&#xA;gp2xVOvL+q6WLCUG8gH+mXx3kTveSnxxVMv0tpX/AC2wf8jU/rirv0tpX/LbB/yNT+uKpbpWq6WL&#xA;/WSbyAA3iEfvE3/0O3HjiqZfpbSv+W2D/kan9cVd+ltK/wCW2D/kan9cVS3StV0sX+sk3kABvEI/&#xA;eJv/AKHbjxxVMv0tpX/LbB/yNT+uKu/S2lf8tsH/ACNT+uKpZ+kdP/xL631mL0vqfD1Oa8eXq141&#xA;rStMVf/Z</xapGImg:image>
    </rdf:li>
   </rdf:Alt>
  </xap:Thumbnails>
 </rdf:Description>

 <rdf:Description rdf:about='uuid:783850b0-2594-11de-a3d1-001124740a56'
  xmlns:xapMM='http://ns.adobe.com/xap/1.0/mm/'>
  <xapMM:DocumentID>uuid:831aaf18-81ce-11da-9137-001124808cba</xapMM:DocumentID>
 </rdf:Description>

 <rdf:Description rdf:about='uuid:783850b0-2594-11de-a3d1-001124740a56'
  xmlns:dc='http://purl.org/dc/elements/1.1/'>
  <dc:format>image/svg+xml</dc:format>
 </rdf:Description>

</rdf:RDF>
</x:xmpmeta>
                                                                                                                                                                                                                                                                                                                                                                                                                                                                                                                                                                                                                                                                                                                                                                                                                                                                                                                                                                                                                                                                                                                                                                                                                                                                                                                                                                                                                                                                                                                                                                                                                                                                                                                                                                                                                                                                                                                                                                                                                                                                                                                                <?xpacket end='w'?>
			</metadata>
		<g id="レイヤー1">
			<g>
				<rect x="0.125" y="0.125" fill="none" stroke="#000000" stroke-width="0.25" width="100" height="150"/> 
				<rect x="100.125" y="0.125" fill="none" stroke="#000000" stroke-width="0.25" width="100" height="150"/> 
				<rect x="200.125" y="0.125" fill="none" stroke="#000000" stroke-width="0.25" width="100" height="150"/> 
				<rect x="300.125" y="0.125" fill="none" stroke="#000000" stroke-width="0.25" width="100" height="150"/> 
				<rect x="400.125" y="0.125" fill="none" stroke="#000000" stroke-width="0.25" width="100" height="150"/> 
				<rect x="500.125" y="0.125" fill="none" stroke="#000000" stroke-width="0.25" width="100" height="150"/> 
				<rect x="600.125" y="0.125" fill="none" stroke="#000000" stroke-width="0.25" width="100" height="150"/> 
				<rect x="0.125" y="150.125" fill="none" stroke="#000000" stroke-width="0.25" width="100" height="150"/> 
				<rect x="100.125" y="150.125" fill="none" stroke="#000000" stroke-width="0.25" width="100" height="150"/> 
				<rect x="200.125" y="150.125" fill="none" stroke="#000000" stroke-width="0.25" width="100" height="150"/> 
				<rect x="300.125" y="150.125" fill="none" stroke="#000000" stroke-width="0.25" width="100" height="150"/> 
				<rect x="400.125" y="150.125" fill="none" stroke="#000000" stroke-width="0.25" width="100" height="150"/> 
				<rect x="500.125" y="150.125" fill="none" stroke="#000000" stroke-width="0.25" width="100" height="150"/> 
				<rect x="600.125" y="150.125" fill="none" stroke="#000000" stroke-width="0.25" width="100" height="150"/> 
				<rect x="0.125" y="300.125" fill="none" stroke="#000000" stroke-width="0.25" width="100" height="150"/> 
				<rect x="100.125" y="300.125" fill="none" stroke="#000000" stroke-width="0.25" width="100" height="150"/> 
				<rect x="200.125" y="300.125" fill="none" stroke="#000000" stroke-width="0.25" width="100" height="150"/> 
				<rect x="300.125" y="300.125" fill="none" stroke="#000000" stroke-width="0.25" width="100" height="150"/> 
				<rect x="400.125" y="300.125" fill="none" stroke="#000000" stroke-width="0.25" width="100" height="150"/> 
				<rect x="500.125" y="300.125" fill="none" stroke="#000000" stroke-width="0.25" width="100" height="150"/> 
				<rect x="600.125" y="300.125" fill="none" stroke="#000000" stroke-width="0.25" width="100" height="150"/> 
				<rect x="0.125" y="450.125" fill="none" stroke="#000000" stroke-width="0.25" width="100" height="150"/> 
				<rect x="100.125" y="450.125" fill="none" stroke="#000000" stroke-width="0.25" width="100" height="150"/> 
				<rect x="200.125" y="450.125" fill="none" stroke="#000000" stroke-width="0.25" width="100" height="150"/> 
				<rect x="300.125" y="450.125" fill="none" stroke="#000000" stroke-width="0.25" width="100" height="150"/> 
				<rect x="400.125" y="450.125" fill="none" stroke="#000000" stroke-width="0.25" width="100" height="150"/> 
				<rect x="500.125" y="450.125" fill="none" stroke="#000000" stroke-width="0.25" width="100" height="150"/> 
				<rect x="600.125" y="450.125" fill="none" stroke="#000000" stroke-width="0.25" width="100" height="150"/> 
				<rect x="0.125" y="600.125" fill="none" stroke="#000000" stroke-width="0.25" width="100" height="150"/> 
				<rect x="100.125" y="600.125" fill="none" stroke="#000000" stroke-width="0.25" width="100" height="150"/> 
				<rect x="200.125" y="600.125" fill="none" stroke="#000000" stroke-width="0.25" width="100" height="150"/> 
				<rect x="300.125" y="600.125" fill="none" stroke="#000000" stroke-width="0.25" width="100" height="150"/> 
				<rect x="400.125" y="600.125" fill="none" stroke="#000000" stroke-width="0.25" width="100" height="150"/> 
				<rect x="500.125" y="600.125" fill="none" stroke="#000000" stroke-width="0.25" width="100" height="150"/> 
				<rect x="600.125" y="600.125" fill="none" stroke="#000000" stroke-width="0.25" width="100" height="150"/> 
				<rect x="0.125" y="750.125" fill="none" stroke="#000000" stroke-width="0.25" width="100" height="150"/> 
				<rect x="100.125" y="750.125" fill="none" stroke="#000000" stroke-width="0.25" width="100" height="150"/> 
				<rect x="200.125" y="750.125" fill="none" stroke="#000000" stroke-width="0.25" width="100" height="150"/> 
				<rect x="300.125" y="750.125" fill="none" stroke="#000000" stroke-width="0.25" width="100" height="150"/> 
				<rect x="400.125" y="750.125" fill="none" stroke="#000000" stroke-width="0.25" width="100" height="150"/> 
				<rect x="500.125" y="750.125" fill="none" stroke="#000000" stroke-width="0.25" width="100" height="150"/> 
				<rect x="600.125" y="750.125" fill="none" stroke="#000000" stroke-width="0.25" width="100" height="150"/> 
				<rect x="0.125" y="900.125" fill="none" stroke="#000000" stroke-width="0.25" width="100" height="150"/> 
				<rect x="100.125" y="900.125" fill="none" stroke="#000000" stroke-width="0.25" width="100" height="150"/> 
				<rect x="200.125" y="900.125" fill="none" stroke="#000000" stroke-width="0.25" width="100" height="150"/> 
				<rect x="300.125" y="900.125" fill="none" stroke="#000000" stroke-width="0.25" width="100" height="150"/> 
				<rect x="400.125" y="900.125" fill="none" stroke="#000000" stroke-width="0.25" width="100" height="150"/> 
				<rect x="500.125" y="900.125" fill="none" stroke="#000000" stroke-width="0.25" width="100" height="150"/> 
				<rect x="600.125" y="900.125" fill="none" stroke="#000000" stroke-width="0.25" width="100" height="150"/> 
				<rect x="700.125" y="0.125" fill="none" stroke="#000000" stroke-width="0.25" width="100" height="150"/> 
				<rect x="700.125" y="150.125" fill="none" stroke="#000000" stroke-width="0.25" width="100" height="150"/> 
				<rect x="700.125" y="300.125" fill="none" stroke="#000000" stroke-width="0.25" width="100" height="150"/> 
				<rect x="700.125" y="450.125" fill="none" stroke="#000000" stroke-width="0.25" width="100" height="150"/> 
				<rect x="700.125" y="600.125" fill="none" stroke="#000000" stroke-width="0.25" width="100" height="150"/> 
				<rect x="700.125" y="750.125" fill="none" stroke="#000000" stroke-width="0.25" width="100" height="150"/> 
				<rect x="700.125" y="900.125" fill="none" stroke="#000000" stroke-width="0.25" width="100" height="150"/> 
			</g>
			<g>
				<path d="M82.125,83.125c0-11.5957031-3.0253906-20.7724609-9-28l-1.5410156,1.2744141
					C77.3310547,63.3515625,80.125,72.09375,80.125,83.125c0,16.4892578-7.7753906,24-15,24c-8.1464844,0-14-7.5537109-14-28.5
					v-16.5h-2v16.5c0,20.9462891-5.8535156,28.5-14,28.5c-7.2246094,0-15-7.5107422-15-24
					c0-11.03125,2.7939453-19.7734375,8.5410156-26.7255859L27.125,55.125c-5.9746094,7.2275391-9,16.4042969-9,28
					c0,16.7822266,8.0800781,26,17,26c7.9863281,0,12.9003906-5.5107422,14.9003906-17h0.1992188
					c2,11.4892578,6.9140625,17,14.9003906,17C74.0449219,109.125,82.125,99.9072266,82.125,83.125z"/>
				<path d="M83.1245117,233.375c0-11.2753906-2.9946289-20.9199219-8.6665039-28.25l-4.3608398,1.3496094
					c5.4467773,7.1235352,8.2773438,16.2783203,8.2773438,26.8168945c0,14.7749023-6.8032227,21.75-13.5,21.75
					c-7.1499023,0-12.4165039-7.2714844-12.4165039-27v-15.9169922h-4.6665039v15.9169922c0,19.7285156-5.2666016,27-12.4169922,27
					c-6.6967773,0-13.5-6.9750977-13.5-21.75c0-10.5385742,2.8310547-19.6933594,8.277832-26.8168945L25.7915039,205.125
					C20.1191406,212.4550781,17.125,222.0996094,17.125,233.375c0,16.5883789,8.2480469,25.75,17.8330078,25.75
					c7.8759766,0,13.0600586-5.2348633,15.0668945-16h0.1992188c2.0073242,10.7651367,7.190918,16,15.0668945,16
					C74.8764648,259.125,83.1245117,249.9633789,83.1245117,233.375z"/>
				<path d="M84.125,383.625c0-10.9545898-2.9643555-21.0664062-8.3334961-28.5l-7.1801758,1.4248047
					C73.7568359,363.8452148,76.625,373.4130859,76.625,383.4584961c0,13.0605469-5.831543,19.5-12,19.5
					c-6.1542969,0-10.8330078-6.9892578-10.8330078-25.5V362.125h-7.3334961v15.3334961
					c0,18.5107422-4.6791992,25.5-10.8334961,25.5c-6.168457,0-12-6.4394531-12-19.5
					c0-10.0454102,2.8681641-19.6132812,8.0136719-26.9086914L24.4584961,355.125
					c-5.3701172,7.4335938-8.3334961,17.5454102-8.3334961,28.5c0,16.3945312,8.4160156,25.5,18.6665039,25.5
					c7.7666016,0,13.2197266-4.9584961,15.2338867-15h0.1992188c2.0141602,10.0415039,7.4672852,15,15.2338867,15
					C75.7089844,409.125,84.125,400.0195312,84.125,383.625z"/>
				<path d="M50.2246094,545.125c2.0214844,9.3173828,7.7441406,14,15.4003906,14c10.9160156,0,19.5-9.0488281,19.5-25.25
					c0-10.6337891-2.9335938-21.2138672-8-28.75l-10,1.5c4.8447266,7.4667969,7.75,17.4472656,7.75,27
					c0,11.3466797-4.859375,17.25-10.5,17.25c-5.1582031,0-9.25-6.7070312-9.25-24v-14.75h-10v14.75
					c0,17.2929688-4.0917969,24-9.25,24c-5.640625,0-10.5-5.9033203-10.5-17.25c0-9.5527344,2.9052734-19.5332031,7.75-27l-10-1.5
					c-5.0673828,7.5361328-8,18.1162109-8,28.75c0,16.2011719,8.5839844,25.25,19.5,25.25
					c7.65625,0,13.3789062-4.6826172,15.4003906-14H50.2246094z"/>
				<path d="M86.1245117,684.125c0-10.3134766-2.9023438-21.3613281-7.6665039-29l-12.6665039,1.6669922
					c4.543457,7.6376953,7.3330078,17.9394531,7.3330078,27c0,10.0253906-4.1025391,15-9,15c-4.4536133,0-8-5.5126953-8-19.1669922
					v-17.5H44.125v17.5c0,13.6542969-3.5463867,19.1669922-8.0004883,19.1669922c-4.8969727,0-9-4.9746094-9-15
					c0-9.0605469,2.7900391-19.3623047,7.3334961-27L21.7910156,655.125c-4.7641602,7.6386719-7.6660156,18.6865234-7.6660156,29
					c0,16.0068359,8.7509766,25,20.3330078,25c7.5463867,0,13.5380859-4.7402344,15.5668945-13.3339844h0.1992188
					c2.0288086,8.59375,8.0209961,13.3339844,15.5673828,13.3339844C77.3730469,709.125,86.1245117,700.1318359,86.1245117,684.125z
					"/>
				<path d="M87.125,834.375c0-9.9931641-2.871582-21.5087891-7.3334961-29.25l-15.3330078,1.8330078
					c4.2426758,7.8105469,6.9165039,18.4335938,6.9165039,27c0,8.7060547-3.3461914,12.75-7.5,12.75
					c-3.7490234,0-6.75-4.3164062-6.75-14.3330078v-20.25h-14v20.25c0,10.0166016-3.0004883,14.3330078-6.75,14.3330078
					c-4.1538086,0-7.5-4.0439453-7.5-12.75c0-8.5664062,2.6743164-19.1894531,6.9169922-27L20.4584961,805.125
					C15.996582,812.8662109,13.125,824.3818359,13.125,834.375c0,15.8134766,8.9189453,24.75,21.1669922,24.75
					c7.4360352,0,13.6977539-4.796875,15.7333984-12.6669922h0.1992188
					C52.2602539,854.328125,58.5224609,859.125,65.9584961,859.125C78.2055664,859.125,87.125,850.1884766,87.125,834.375z"/>
				<path d="M50.2246094,997.125c2.0429688,7.1455078,8.5742188,12,15.9003906,12c12.9130859,0,22-8.8798828,22-24.5
					c0-9.6728516-2.8408203-21.65625-7-29.5l-18,2c3.9414062,7.9814453,6.5,18.9257812,6.5,27c0,7.3847656-2.5898438,10.5-6,10.5
					c-3.0449219,0-5.5-3.1220703-5.5-9.5v-23h-16v23c0,6.3779297-2.4550781,9.5-5.5,9.5c-3.4101562,0-6-3.1152344-6-10.5
					c0-8.0742188,2.5585938-19.0185547,6.5-27l-18-2c-4.1591797,7.84375-7,19.8271484-7,29.5c0,15.6201172,9.0859375,24.5,22,24.5
					c7.3261719,0,13.8574219-4.8544922,15.9003906-12H50.2246094z"/>
			</g>
			<g>
				<path d="M182.125,83.125c0-11.5957031-3.0253906-20.7724609-9-28l-1.5410156,1.2744141
					C177.3310547,63.3515625,180.125,72.09375,180.125,83.125c0,16.4892578-7.7753906,24-15,24c-8.1464844,0-14-7.5537109-14-28.5
					v-16.5h-2v16.5c0,20.9462891-5.8535156,28.5-14,28.5c-7.2246094,0-15-7.5107422-15-24
					c0-11.03125,2.7939453-19.7734375,8.5410156-26.7255859L127.125,55.125c-5.9746094,7.2275391-9,16.4042969-9,28
					c0,16.7822266,8.0800781,26,17,26c7.9863281,0,12.9003906-5.5107422,14.9003906-17h0.1992188
					c2,11.4892578,6.9140625,17,14.9003906,17C174.0449219,109.125,182.125,99.9072266,182.125,83.125z"/>
				<path d="M183.1245117,233.375c0-11.2753906-2.9946289-20.9199219-8.6665039-28.25l-4.3608398,1.3496094
					c5.4462891,7.1235352,8.277832,16.2783203,8.277832,26.8168945c0,14.7749023-6.8037109,21.75-13.5,21.75
					c-7.1508789,0-12.4169922-7.2714844-12.4169922-27v-15.9169922h-4.6669922v15.9169922c0,19.7285156-5.2661133,27-12.4160156,27
					c-6.6967773,0-13.5-6.9750977-13.5-21.75c0-10.5385742,2.8305664-19.6933594,8.2768555-26.8168945L125.7915039,205.125
					c-5.6723633,7.3300781-8.6669922,16.9746094-8.6669922,28.25c0,16.5883789,8.2480469,25.75,17.8334961,25.75
					c7.8764648,0,13.0600586-5.2348633,15.0673828-16h0.1992188c2.0068359,10.7651367,7.1904297,16,15.0668945,16
					C174.8764648,259.125,183.1245117,249.9633789,183.1245117,233.375z"/>
				<path d="M184.125,383.625c0-10.9545898-2.9638672-21.0664062-8.3334961-28.5l-7.1801758,1.4248047
					c5.1455078,7.2954102,8.0136719,16.8632812,8.0136719,26.9086914c0,13.0605469-5.8310547,19.5-12,19.5
					c-6.1542969,0-10.8334961-6.9892578-10.8334961-25.5V362.125h-7.3330078v15.3334961
					c0,18.5107422-4.6791992,25.5-10.8334961,25.5c-6.168457,0-12-6.4394531-12-19.5
					c0-10.0454102,2.8681641-19.6132812,8.0136719-26.9086914L124.4584961,355.125
					c-5.3696289,7.4335938-8.3334961,17.5454102-8.3334961,28.5c0,16.3945312,8.4160156,25.5,18.6669922,25.5
					c7.7661133,0,13.2192383-4.9584961,15.2333984-15h0.1992188c2.0141602,10.0415039,7.4677734,15,15.2338867,15
					C175.7089844,409.125,184.125,400.0195312,184.125,383.625z"/>
				<path d="M150.2246094,545.125c2.0214844,9.3173828,7.7441406,14,15.4003906,14c10.9160156,0,19.5-9.0488281,19.5-25.25
					c0-10.6337891-2.9335938-21.2138672-8-28.75l-10,1.5c4.8447266,7.4667969,7.75,17.4472656,7.75,27
					c0,11.3466797-4.859375,17.25-10.5,17.25c-5.1582031,0-9.25-6.7070312-9.25-24v-14.75h-10v14.75
					c0,17.2929688-4.0917969,24-9.25,24c-5.640625,0-10.5-5.9033203-10.5-17.25c0-9.5527344,2.9052734-19.5332031,7.75-27l-10-1.5
					c-5.0673828,7.5361328-8,18.1162109-8,28.75c0,16.2011719,8.5839844,25.25,19.5,25.25
					c7.65625,0,13.3789062-4.6826172,15.4003906-14H150.2246094z"/>
				<path d="M186.1245117,684.125c0-10.3134766-2.9023438-21.3613281-7.6665039-29l-12.6669922,1.6669922
					c4.5439453,7.6376953,7.3339844,17.9394531,7.3339844,27c0,10.0253906-4.1030273,15-9,15
					c-4.4541016,0-8.0004883-5.5126953-8.0004883-19.1669922v-17.5h-12v17.5
					c0,13.6542969-3.5463867,19.1669922-7.9995117,19.1669922c-4.8974609,0-9-4.9746094-9-15
					c0-9.0605469,2.7890625-19.3623047,7.3330078-27L121.7915039,655.125c-4.7646484,7.6386719-7.6669922,18.6865234-7.6669922,29
					c0,16.0068359,8.7514648,25,20.3334961,25c7.5458984,0,13.5385742-4.7402344,15.5673828-13.3339844h0.1992188
					c2.0283203,8.59375,8.0205078,13.3339844,15.5664062,13.3339844
					C177.3730469,709.125,186.1245117,700.1318359,186.1245117,684.125z"/>
				<path d="M187.125,834.375c0-9.9931641-2.871582-21.5087891-7.3330078-29.25l-15.3334961,1.8330078
					c4.2421875,7.8105469,6.9165039,18.4335938,6.9165039,27c0,8.7060547-3.3461914,12.75-7.5,12.75
					c-3.7495117,0-6.75-4.3164062-6.75-14.3330078v-20.25h-14v20.25c0,10.0166016-3.0004883,14.3330078-6.75,14.3330078
					c-4.1538086,0-7.5-4.0439453-7.5-12.75c0-8.5664062,2.6743164-19.1894531,6.9165039-27L120.4584961,805.125
					c-4.4619141,7.7412109-7.3334961,19.2568359-7.3334961,29.25c0,15.8134766,8.918457,24.75,21.1665039,24.75
					c7.4365234,0,13.6982422-4.796875,15.7338867-12.6669922h0.1992188
					c2.0361328,7.8701172,8.2973633,12.6669922,15.7338867,12.6669922C178.2055664,859.125,187.125,850.1884766,187.125,834.375z"/>
				<path d="M150.2246094,997.125c2.0429688,7.1455078,8.5742188,12,15.9003906,12c12.9130859,0,22-8.8798828,22-24.5
					c0-9.6728516-2.8408203-21.65625-7-29.5l-18,2c3.9414062,7.9814453,6.5,18.9257812,6.5,27c0,7.3847656-2.5898438,10.5-6,10.5
					c-3.0449219,0-5.5-3.1220703-5.5-9.5v-23h-16v23c0,6.3779297-2.4550781,9.5-5.5,9.5c-3.4101562,0-6-3.1152344-6-10.5
					c0-8.0742188,2.5585938-19.0185547,6.5-27l-18-2c-4.1591797,7.84375-7,19.8271484-7,29.5c0,15.6201172,9.0859375,24.5,22,24.5
					c7.3261719,0,13.8574219-4.8544922,15.9003906-12H150.2246094z"/>
			</g>
			<g>
				<path d="M282.125,83.125c0-11.5957031-3.0253906-20.7724609-9-28l-1.5410156,1.2744141
					C277.3310547,63.3515625,280.125,72.09375,280.125,83.125c0,16.4892578-7.7753906,24-15,24c-8.1464844,0-14-7.5537109-14-28.5
					v-16.5h-2v16.5c0,20.9462891-5.8535156,28.5-14,28.5c-7.2246094,0-15-7.5107422-15-24
					c0-11.03125,2.7939453-19.7734375,8.5410156-26.7255859L227.125,55.125c-5.9746094,7.2275391-9,16.4042969-9,28
					c0,16.7822266,8.0800781,26,17,26c7.9863281,0,12.9003906-5.5107422,14.9003906-17h0.1992188
					c2,11.4892578,6.9140625,17,14.9003906,17C274.0449219,109.125,282.125,99.9072266,282.125,83.125z"/>
				<path d="M283.125,233.375c0-11.2753906-2.9951172-20.9199219-8.6669922-28.25l-4.3603516,1.3496094
					c5.4458008,7.1235352,8.2768555,16.2783203,8.2768555,26.8168945c0,14.7749023-6.8032227,21.75-13.5,21.75
					c-7.1503906,0-12.4165039-7.2714844-12.4165039-27v-15.9169922h-4.6665039v15.9169922c0,19.7285156-5.2661133,27-12.4169922,27
					c-6.6962891,0-13.5-6.9750977-13.5-21.75c0-10.5385742,2.831543-19.6933594,8.2773438-26.8168945L225.7910156,205.125
					c-5.671875,7.3300781-8.6665039,16.9746094-8.6665039,28.25c0,16.5883789,8.2480469,25.75,17.8334961,25.75
					c7.8764648,0,13.0595703-5.2348633,15.0668945-16h0.1992188c2.0073242,10.7651367,7.190918,16,15.0673828,16
					C274.8769531,259.125,283.125,249.9633789,283.125,233.375z"/>
				<path d="M284.125,383.625c0-10.9545898-2.9643555-21.0664062-8.3330078-28.5l-7.1806641,1.4248047
					c5.1455078,7.2954102,8.0136719,16.8632812,8.0136719,26.9086914c0,13.0605469-5.831543,19.5-12,19.5
					c-6.1542969,0-10.8334961-6.9892578-10.8334961-25.5V362.125h-7.3330078v15.3334961
					c0,18.5107422-4.6791992,25.5-10.8334961,25.5c-6.168457,0-12-6.4394531-12-19.5
					c0-10.0454102,2.8681641-19.6132812,8.0136719-26.9086914L224.4584961,355.125
					c-5.3701172,7.4335938-8.3334961,17.5454102-8.3334961,28.5c0,16.3945312,8.4160156,25.5,18.6665039,25.5
					c7.7666016,0,13.2197266-4.9584961,15.2338867-15h0.1992188c2.0146484,10.0415039,7.4672852,15,15.2338867,15
					C275.7089844,409.125,284.125,400.0195312,284.125,383.625z"/>
				<path d="M250.2246094,545.125c2.0214844,9.3173828,7.7441406,14,15.4003906,14c10.9160156,0,19.5-9.0488281,19.5-25.25
					c0-10.6337891-2.9335938-21.2138672-8-28.75l-10,1.5c4.8447266,7.4667969,7.75,17.4472656,7.75,27
					c0,11.3466797-4.859375,17.25-10.5,17.25c-5.1582031,0-9.25-6.7070312-9.25-24v-14.75h-10v14.75
					c0,17.2929688-4.0917969,24-9.25,24c-5.640625,0-10.5-5.9033203-10.5-17.25c0-9.5527344,2.9052734-19.5332031,7.75-27l-10-1.5
					c-5.0673828,7.5361328-8,18.1162109-8,28.75c0,16.2011719,8.5839844,25.25,19.5,25.25
					c7.65625,0,13.3789062-4.6826172,15.4003906-14H250.2246094z"/>
				<path d="M286.125,684.125c0-10.3134766-2.9033203-21.3613281-7.6669922-29l-12.6665039,1.6669922
					c4.543457,7.6376953,7.3330078,17.9394531,7.3330078,27c0,10.0253906-4.1030273,15-9,15
					c-4.4536133,0-7.9995117-5.5126953-7.9995117-19.1669922v-17.5h-12.0004883v17.5
					c0,13.6542969-3.5458984,19.1669922-8,19.1669922c-4.8969727,0-9-4.9746094-9-15c0-9.0605469,2.7900391-19.3623047,7.3334961-27
					L221.7915039,655.125c-4.7651367,7.6386719-7.6669922,18.6865234-7.6669922,29c0,16.0068359,8.7514648,25,20.3334961,25
					c7.5463867,0,13.5385742-4.7402344,15.5668945-13.3339844h0.1992188
					c2.0288086,8.59375,8.0209961,13.3339844,15.5673828,13.3339844C277.3730469,709.125,286.125,700.1318359,286.125,684.125z"/>
				<path d="M287.125,834.375c0-9.9931641-2.871582-21.5087891-7.3334961-29.25l-15.3330078,1.8330078
					c4.2421875,7.8105469,6.9165039,18.4335938,6.9165039,27c0,8.7060547-3.3461914,12.75-7.5,12.75
					c-3.7495117,0-6.75-4.3164062-6.75-14.3330078v-20.25h-14v20.25c0,10.0166016-3.0004883,14.3330078-6.75,14.3330078
					c-4.1533203,0-7.5-4.0439453-7.5-12.75c0-8.5664062,2.6743164-19.1894531,6.9165039-27L220.4584961,805.125
					c-4.4619141,7.7412109-7.3334961,19.2568359-7.3334961,29.25c0,15.8134766,8.918457,24.75,21.1665039,24.75
					c7.4365234,0,13.6982422-4.796875,15.7338867-12.6669922h0.1992188
					c2.0356445,7.8701172,8.2973633,12.6669922,15.7338867,12.6669922C278.2060547,859.125,287.125,850.1884766,287.125,834.375z"/>
				<path d="M250.2246094,997.125c2.0429688,7.1455078,8.5742188,12,15.9003906,12c12.9130859,0,22-8.8798828,22-24.5
					c0-9.6728516-2.8408203-21.65625-7-29.5l-18,2c3.9414062,7.9814453,6.5,18.9257812,6.5,27c0,7.3847656-2.5898438,10.5-6,10.5
					c-3.0449219,0-5.5-3.1220703-5.5-9.5v-23h-16v23c0,6.3779297-2.4550781,9.5-5.5,9.5c-3.4101562,0-6-3.1152344-6-10.5
					c0-8.0742188,2.5585938-19.0185547,6.5-27l-18-2c-4.1591797,7.84375-7,19.8271484-7,29.5c0,15.6201172,9.0859375,24.5,22,24.5
					c7.3261719,0,13.8574219-4.8544922,15.9003906-12H250.2246094z"/>
			</g>
			<g>
				<path d="M382.125,83.125c0-11.5957031-3.0253906-20.7724609-9-28l-1.5410156,1.2744141
					C377.3310547,63.3515625,380.125,72.09375,380.125,83.125c0,16.4892578-7.7753906,24-15,24c-8.1464844,0-14-7.5537109-14-28.5
					v-16.5h-2v16.5c0,20.9462891-5.8535156,28.5-14,28.5c-7.2246094,0-15-7.5107422-15-24
					c0-11.03125,2.7939453-19.7734375,8.5410156-26.7255859L327.125,55.125c-5.9746094,7.2275391-9,16.4042969-9,28
					c0,16.7822266,8.0800781,26,17,26c7.9863281,0,12.9003906-5.5107422,14.9003906-17h0.1992188
					c2,11.4892578,6.9140625,17,14.9003906,17C374.0449219,109.125,382.125,99.9072266,382.125,83.125z"/>
				<path d="M383.125,233.375c0-11.2753906-2.9951172-20.9199219-8.6669922-28.25l-4.3603516,1.3496094
					c5.4462891,7.1235352,8.2773438,16.2783203,8.2773438,26.8168945c0,14.7749023-6.8037109,21.75-13.5,21.75
					c-7.1503906,0-12.4169922-7.2714844-12.4169922-27v-15.9169922h-4.6665039v15.9169922c0,19.7285156-5.2666016,27-12.4169922,27
					c-6.6967773,0-13.5-6.9750977-13.5-21.75c0-10.5385742,2.8310547-19.6933594,8.277832-26.8168945L325.7915039,205.125
					c-5.6723633,7.3300781-8.6665039,16.9746094-8.6665039,28.25c0,16.5883789,8.2480469,25.75,17.8330078,25.75
					c7.8759766,0,13.0600586-5.2348633,15.0668945-16h0.1992188c2.0073242,10.7651367,7.190918,16,15.0668945,16
					C374.8769531,259.125,383.125,249.9633789,383.125,233.375z"/>
				<path d="M384.125,383.625c0-10.9545898-2.9638672-21.0664062-8.3330078-28.5l-7.1806641,1.4248047
					c5.1455078,7.2954102,8.0136719,16.8632812,8.0136719,26.9086914c0,13.0605469-5.8310547,19.5-12,19.5
					c-6.1542969,0-10.8330078-6.9892578-10.8330078-25.5V362.125h-7.3334961v15.3334961
					c0,18.5107422-4.6791992,25.5-10.8334961,25.5c-6.168457,0-12-6.4394531-12-19.5
					c0-10.0454102,2.8681641-19.6132812,8.0136719-26.9086914L324.4584961,355.125
					c-5.3701172,7.4335938-8.3334961,17.5454102-8.3334961,28.5c0,16.3945312,8.4160156,25.5,18.6665039,25.5
					c7.7666016,0,13.2197266-4.9584961,15.2338867-15h0.1992188c2.0146484,10.0415039,7.4677734,15,15.2333984,15
					C375.7089844,409.125,384.125,400.0195312,384.125,383.625z"/>
				<path d="M350.2246094,545.125c2.0214844,9.3173828,7.7441406,14,15.4003906,14c10.9160156,0,19.5-9.0488281,19.5-25.25
					c0-10.6337891-2.9335938-21.2138672-8-28.75l-10,1.5c4.8447266,7.4667969,7.75,17.4472656,7.75,27
					c0,11.3466797-4.859375,17.25-10.5,17.25c-5.1582031,0-9.25-6.7070312-9.25-24v-14.75h-10v14.75
					c0,17.2929688-4.0917969,24-9.25,24c-5.640625,0-10.5-5.9033203-10.5-17.25c0-9.5527344,2.9052734-19.5332031,7.75-27l-10-1.5
					c-5.0673828,7.5361328-8,18.1162109-8,28.75c0,16.2011719,8.5839844,25.25,19.5,25.25
					c7.65625,0,13.3789062-4.6826172,15.4003906-14H350.2246094z"/>
				<path d="M386.125,684.125c0-10.3134766-2.9023438-21.3613281-7.6669922-29l-12.6669922,1.6669922
					c4.5439453,7.6376953,7.3339844,17.9394531,7.3339844,27c0,10.0253906-4.1025391,15-9,15c-4.4541016,0-8-5.5126953-8-19.1669922
					v-17.5h-12v17.5c0,13.6542969-3.5463867,19.1669922-8.0004883,19.1669922c-4.8969727,0-9-4.9746094-9-15
					c0-9.0605469,2.7900391-19.3623047,7.3334961-27L321.7910156,655.125c-4.7641602,7.6386719-7.6660156,18.6865234-7.6660156,29
					c0,16.0068359,8.7509766,25,20.3330078,25c7.5463867,0,13.5380859-4.7402344,15.5668945-13.3339844h0.1992188
					c2.0288086,8.59375,8.0209961,13.3339844,15.5668945,13.3339844C377.3730469,709.125,386.125,700.1318359,386.125,684.125z"/>
				<path d="M387.125,834.375c0-9.9931641-2.8720703-21.5087891-7.3330078-29.25l-15.3339844,1.8330078
					c4.2431641,7.8105469,6.9169922,18.4335938,6.9169922,27c0,8.7060547-3.3466797,12.75-7.5,12.75
					c-3.7490234,0-6.75-4.3164062-6.75-14.3330078v-20.25h-14v20.25c0,10.0166016-3.0004883,14.3330078-6.75,14.3330078
					c-4.1538086,0-7.5-4.0439453-7.5-12.75c0-8.5664062,2.6743164-19.1894531,6.9169922-27L320.4584961,805.125
					c-4.4619141,7.7412109-7.3334961,19.2568359-7.3334961,29.25c0,15.8134766,8.9189453,24.75,21.1669922,24.75
					c7.4360352,0,13.6977539-4.796875,15.7333984-12.6669922h0.1992188
					c2.0361328,7.8701172,8.2978516,12.6669922,15.7333984,12.6669922C378.2060547,859.125,387.125,850.1884766,387.125,834.375z"/>
				<path d="M350.2246094,997.125c2.0429688,7.1455078,8.5742188,12,15.9003906,12c12.9130859,0,22-8.8798828,22-24.5
					c0-9.6728516-2.8408203-21.65625-7-29.5l-18,2c3.9414062,7.9814453,6.5,18.9257812,6.5,27c0,7.3847656-2.5898438,10.5-6,10.5
					c-3.0449219,0-5.5-3.1220703-5.5-9.5v-23h-16v23c0,6.3779297-2.4550781,9.5-5.5,9.5c-3.4101562,0-6-3.1152344-6-10.5
					c0-8.0742188,2.5585938-19.0185547,6.5-27l-18-2c-4.1591797,7.84375-7,19.8271484-7,29.5c0,15.6201172,9.0859375,24.5,22,24.5
					c7.3261719,0,13.8574219-4.8544922,15.9003906-12H350.2246094z"/>
			</g>
			<g>
				<path d="M482.125,83.125c0-11.5957031-3.0253906-20.7724609-9-28l-1.5410156,1.2744141
					C477.3310547,63.3515625,480.125,72.09375,480.125,83.125c0,16.4892578-7.7753906,24-15,24c-8.1464844,0-14-7.5537109-14-28.5
					v-16.5h-2v16.5c0,20.9462891-5.8535156,28.5-14,28.5c-7.2246094,0-15-7.5107422-15-24
					c0-11.03125,2.7939453-19.7734375,8.5410156-26.7255859L427.125,55.125c-5.9746094,7.2275391-9,16.4042969-9,28
					c0,16.7822266,8.0800781,26,17,26c7.9863281,0,12.9003906-5.5107422,14.9003906-17h0.1992188
					c2,11.4892578,6.9140625,17,14.9003906,17C474.0449219,109.125,482.125,99.9072266,482.125,83.125z"/>
				<path d="M483.125,233.375c0-11.2753906-2.9951172-20.9199219-8.6669922-28.25l-4.3603516,1.3496094
					c5.4462891,7.1235352,8.2773438,16.2783203,8.2773438,26.8168945c0,14.7749023-6.8037109,21.75-13.5,21.75
					c-7.1503906,0-12.4169922-7.2714844-12.4169922-27v-15.9169922h-4.6669922v15.9169922c0,19.7285156-5.265625,27-12.4160156,27
					c-6.6962891,0-13.5-6.9750977-13.5-21.75c0-10.5385742,2.8310547-19.6933594,8.2773438-26.8168945L425.7910156,205.125
					c-5.671875,7.3300781-8.6660156,16.9746094-8.6660156,28.25c0,16.5883789,8.2480469,25.75,17.8330078,25.75
					c7.8769531,0,13.0595703-5.2348633,15.0673828-16h0.1992188c2.0068359,10.7651367,7.1904297,16,15.0673828,16
					C474.8769531,259.125,483.125,249.9633789,483.125,233.375z"/>
				<path d="M484.125,383.625c0-10.9545898-2.9638672-21.0664062-8.3330078-28.5l-7.1806641,1.4248047
					c5.1455078,7.2954102,8.0136719,16.8632812,8.0136719,26.9086914c0,13.0605469-5.8310547,19.5-12,19.5
					c-6.1542969,0-10.8330078-6.9892578-10.8330078-25.5V362.125h-7.3339844v15.3334961
					c0,18.5107422-4.6787109,25.5-10.8330078,25.5c-6.1689453,0-12-6.4394531-12-19.5
					c0-10.0454102,2.8681641-19.6132812,8.0136719-26.9086914L424.4580078,355.125
					c-5.3691406,7.4335938-8.3330078,17.5454102-8.3330078,28.5c0,16.3945312,8.4160156,25.5,18.6669922,25.5
					c7.765625,0,13.21875-4.9584961,15.2333984-15h0.1992188c2.0146484,10.0415039,7.4677734,15,15.2333984,15
					C475.7089844,409.125,484.125,400.0195312,484.125,383.625z"/>
				<path d="M450.2246094,545.125c2.0214844,9.3173828,7.7441406,14,15.4003906,14c10.9160156,0,19.5-9.0488281,19.5-25.25
					c0-10.6337891-2.9335938-21.2138672-8-28.75l-10,1.5c4.8447266,7.4667969,7.75,17.4472656,7.75,27
					c0,11.3466797-4.859375,17.25-10.5,17.25c-5.1582031,0-9.25-6.7070312-9.25-24v-14.75h-10v14.75
					c0,17.2929688-4.0917969,24-9.25,24c-5.640625,0-10.5-5.9033203-10.5-17.25c0-9.5527344,2.9052734-19.5332031,7.75-27l-10-1.5
					c-5.0673828,7.5361328-8,18.1162109-8,28.75c0,16.2011719,8.5839844,25.25,19.5,25.25
					c7.65625,0,13.3789062-4.6826172,15.4003906-14H450.2246094z"/>
				<path d="M486.125,684.125c0-10.3134766-2.9033203-21.3613281-7.6669922-29l-12.6669922,1.6669922
					c4.5439453,7.6376953,7.3339844,17.9394531,7.3339844,27c0,10.0253906-4.1035156,15-9,15c-4.4541016,0-8-5.5126953-8-19.1669922
					v-17.5h-12v17.5c0,13.6542969-3.546875,19.1669922-8,19.1669922c-4.8974609,0-9-4.9746094-9-15
					c0-9.0605469,2.7890625-19.3623047,7.3330078-27L421.7919922,655.125c-4.765625,7.6386719-7.6669922,18.6865234-7.6669922,29
					c0,16.0068359,8.7509766,25,20.3330078,25c7.5458984,0,13.5390625-4.7402344,15.5673828-13.3339844h0.1992188
					c2.0283203,8.59375,8.0205078,13.3339844,15.5664062,13.3339844C477.3730469,709.125,486.125,700.1318359,486.125,684.125z"/>
				<path d="M487.125,834.375c0-9.9931641-2.8720703-21.5087891-7.3330078-29.25l-15.3339844,1.8330078
					c4.2431641,7.8105469,6.9169922,18.4335938,6.9169922,27c0,8.7060547-3.3466797,12.75-7.5,12.75
					c-3.7490234,0-6.75-4.3164062-6.75-14.3330078v-20.25h-14v20.25c0,10.0166016-3.0009766,14.3330078-6.75,14.3330078
					c-4.1533203,0-7.5-4.0439453-7.5-12.75c0-8.5664062,2.6738281-19.1894531,6.9169922-27L420.4580078,805.125
					c-4.4619141,7.7412109-7.3330078,19.2568359-7.3330078,29.25c0,15.8134766,8.9189453,24.75,21.1669922,24.75
					c7.4355469,0,13.6972656-4.796875,15.7333984-12.6669922h0.1992188
					c2.0361328,7.8701172,8.2978516,12.6669922,15.7333984,12.6669922C478.2060547,859.125,487.125,850.1884766,487.125,834.375z"/>
				<path d="M450.2246094,997.125c2.0429688,7.1455078,8.5742188,12,15.9003906,12c12.9130859,0,22-8.8798828,22-24.5
					c0-9.6728516-2.8408203-21.65625-7-29.5l-18,2c3.9414062,7.9814453,6.5,18.9257812,6.5,27c0,7.3847656-2.5898438,10.5-6,10.5
					c-3.0449219,0-5.5-3.1220703-5.5-9.5v-23h-16v23c0,6.3779297-2.4550781,9.5-5.5,9.5c-3.4101562,0-6-3.1152344-6-10.5
					c0-8.0742188,2.5585938-19.0185547,6.5-27l-18-2c-4.1591797,7.84375-7,19.8271484-7,29.5c0,15.6201172,9.0859375,24.5,22,24.5
					c7.3261719,0,13.8574219-4.8544922,15.9003906-12H450.2246094z"/>
			</g>
			<g>
				<path d="M45.125,120.125c0,10.703125,0.8613281,13,10,13c2.7373047,0,5.5732422-0.53125,8-1.5l-0.7412109-1.8574219
					c-2.1923828,0.875-4.7705078,1.3574219-7.2587891,1.3574219c-7.3574219,0-8-0.5742188-8-11v-6h-2V120.125z"/>
				<path d="M48.4580078,269.6245117c0,9.6201172,0.6386719,10.1669922,7.5,10.1669922
					c2.4941406,0,5.230957-0.5048828,7.4658203-1.3808594l0.8676758,3.5478516c-2.8061523,0.9785156-5.8540039,1.5-8.9169922,1.5
					c-10.1181641,0-11.7495117-2.519043-11.7495117-13.8339844v-5.5h4.8330078V269.6245117z"/>
				<path d="M49.7915039,419.125c0,8.8139648,0.6342773,9.3334961,7,9.3334961c2.5009766,0,5.3959961-0.5268555,7.6723633-1.4052734
					l0.9946289,5.2382812c-3.1855469,0.9897461-6.4443359,1.5-9.8334961,1.5c-11.0981445,0-13.5-2.7407227-13.5-14.6665039v-5
					h7.6665039V419.125z"/>
				<path d="M51.125,568.625c0,8.0078125,0.6298828,8.5,6.5,8.5c2.5068359,0,5.5605469-0.5488281,7.8789062-1.4287109
					L66.625,582.625c-3.5644531,1-7.0351562,1.5-10.75,1.5c-12.078125,0-15.25-2.9628906-15.25-15.5v-4.5h10.5V568.625z"/>
				<path d="M52.125,718.125c0,7.2021484,0.6259766,7.6669922,6.3330078,7.6669922
					c2.5131836,0,5.7246094-0.5722656,8.0859375-1.453125l1.2470703,8.6191406c-3.9433594,1.0097656-7.6254883,1.5-11.6665039,1.5
					c-13.3671875,0-16.9995117-3.4179688-16.9995117-16.3330078v-4h13V718.125z"/>
				<path d="M53.125,867.625c0,6.3964844,0.6230469,6.8330078,6.1665039,6.8330078
					c2.5195312,0,5.8886719-0.59375,8.293457-1.4755859l1.3735352,10.3095703c-4.3237305,1.0195312-8.2163086,1.5-12.5834961,1.5
					c-14.65625,0-18.75-3.8730469-18.75-17.1669922v-3.5h15.5V867.625z"/>
				<path d="M54.125,1017.125c0,5.5908203,0.6191406,6,6,6c2.5253906,0,6.0527344-0.6162109,8.5-1.5l1.5,12
					c-4.703125,1.0302734-8.8066406,1.5-13.5,1.5c-15.9453125,0-20.5-4.328125-20.5-18v-3h18V1017.125z"/>
			</g>
			<g>
				<path d="M145.125,120.125c0,10.703125,0.8613281,13,10,13c2.7373047,0,5.5732422-0.53125,8-1.5l-0.7412109-1.8574219
					c-2.1923828,0.875-4.7705078,1.3574219-7.2587891,1.3574219c-7.3574219,0-8-0.5742188-8-11v-6h-2V120.125z"/>
				<path d="M148.4580078,269.6245117c0,9.6201172,0.6381836,10.1669922,7.5,10.1669922
					c2.4946289,0,5.2314453-0.5048828,7.465332-1.3808594l0.8681641,3.5478516c-2.8061523,0.9785156-5.8535156,1.5-8.9169922,1.5
					c-10.1181641,0-11.75-2.519043-11.75-13.8339844v-5.5h4.8334961V269.6245117z"/>
				<path d="M149.7919922,419.125c0,8.8139648,0.6337891,9.3334961,6.9995117,9.3334961
					c2.5009766,0,5.3959961-0.5268555,7.6723633-1.4052734l0.9946289,5.2382812c-3.1850586,0.9897461-6.4443359,1.5-9.8334961,1.5
					c-11.0981445,0-13.5-2.7407227-13.5-14.6665039v-5h7.6669922V419.125z"/>
				<path d="M151.125,568.625c0,8.0078125,0.6298828,8.5,6.5,8.5c2.5068359,0,5.5605469-0.5488281,7.8789062-1.4287109
					L166.625,582.625c-3.5644531,1-7.0351562,1.5-10.75,1.5c-12.078125,0-15.25-2.9628906-15.25-15.5v-4.5h10.5V568.625z"/>
				<path d="M152.1245117,718.125c0,7.2021484,0.6264648,7.6669922,6.3334961,7.6669922
					c2.5126953,0,5.7246094-0.5722656,8.0859375-1.453125l1.2475586,8.6191406c-3.9443359,1.0097656-7.6259766,1.5-11.6669922,1.5
					c-13.3666992,0-17-3.4179688-17-16.3330078v-4h13V718.125z"/>
				<path d="M153.125,867.625c0,6.3964844,0.6225586,6.8330078,6.1669922,6.8330078
					c2.519043,0,5.8886719-0.59375,8.2924805-1.4755859l1.3740234,10.3095703c-4.3237305,1.0195312-8.2163086,1.5-12.5834961,1.5
					c-14.65625,0-18.75-3.8730469-18.75-17.1669922v-3.5h15.5V867.625z"/>
				<path d="M154.125,1017.125c0,5.5908203,0.6191406,6,6,6c2.5253906,0,6.0527344-0.6162109,8.5-1.5l1.5,12
					c-4.703125,1.0302734-8.8066406,1.5-13.5,1.5c-15.9453125,0-20.5-4.328125-20.5-18v-3h18V1017.125z"/>
			</g>
			<g>
				<path d="M245.125,120.125c0,10.703125,0.8613281,13,10,13c2.7373047,0,5.5732422-0.53125,8-1.5l-0.7412109-1.8574219
					c-2.1923828,0.875-4.7705078,1.3574219-7.2587891,1.3574219c-7.3574219,0-8-0.5742188-8-11v-6h-2V120.125z"/>
				<path d="M248.4580078,269.6245117c0,9.6201172,0.6381836,10.1669922,7.5,10.1669922
					c2.4946289,0,5.230957-0.5048828,7.465332-1.3808594l0.8676758,3.5478516c-2.8056641,0.9785156-5.8530273,1.5-8.9160156,1.5
					c-10.1191406,0-11.7504883-2.519043-11.7504883-13.8339844v-5.5h4.8334961V269.6245117z"/>
				<path d="M249.7915039,419.125c0,8.8139648,0.6342773,9.3334961,7.0004883,9.3334961
					c2.5004883,0,5.3955078-0.5268555,7.671875-1.4052734l0.9946289,5.2382812c-3.1855469,0.9897461-6.4443359,1.5-9.8334961,1.5
					c-11.0981445,0-13.5-2.7407227-13.5-14.6665039v-5h7.6665039V419.125z"/>
				<path d="M251.125,568.625c0,8.0078125,0.6298828,8.5,6.5,8.5c2.5068359,0,5.5605469-0.5488281,7.8789062-1.4287109
					L266.625,582.625c-3.5644531,1-7.0351562,1.5-10.75,1.5c-12.078125,0-15.25-2.9628906-15.25-15.5v-4.5h10.5V568.625z"/>
				<path d="M252.1245117,718.125c0,7.2021484,0.6264648,7.6669922,6.3334961,7.6669922
					c2.5131836,0,5.7246094-0.5722656,8.0859375-1.453125l1.2475586,8.6191406c-3.9443359,1.0097656-7.6254883,1.5-11.6665039,1.5
					c-13.3676758,0-17.0004883-3.4179688-17.0004883-16.3330078v-4h13V718.125z"/>
				<path d="M253.125,867.625c0,6.3964844,0.6225586,6.8330078,6.1665039,6.8330078
					c2.5195312,0,5.8886719-0.59375,8.2929688-1.4755859l1.3740234,10.3095703c-4.3237305,1.0195312-8.2163086,1.5-12.5834961,1.5
					c-14.65625,0-18.75-3.8730469-18.75-17.1669922v-3.5h15.5V867.625z"/>
				<path d="M254.125,1017.125c0,5.5908203,0.6191406,6,6,6c2.5253906,0,6.0527344-0.6162109,8.5-1.5l1.5,12
					c-4.703125,1.0302734-8.8066406,1.5-13.5,1.5c-15.9453125,0-20.5-4.328125-20.5-18v-3h18V1017.125z"/>
			</g>
			<g>
				<path d="M445.125,120.125c0,10.703125,0.8613281,13,10,13c2.7363281,0,5.5732422-0.53125,8-1.5l-0.7412109-1.8574219
					c-2.1923828,0.875-4.7705078,1.3574219-7.2587891,1.3574219c-7.3574219,0-8-0.5742188-8-11v-6h-2V120.125z"/>
				<path d="M448.4580078,269.6245117c0,9.6201172,0.6386719,10.1669922,7.5,10.1669922
					c2.4951172,0,5.2314453-0.5048828,7.4658203-1.3808594l0.8671875,3.5478516c-2.8056641,0.9785156-5.8535156,1.5-8.9160156,1.5
					c-10.1191406,0-11.75-2.519043-11.75-13.8339844v-5.5h4.8330078V269.6245117z"/>
				<path d="M449.7919922,419.125c0,8.8139648,0.6337891,9.3334961,7,9.3334961c2.5,0,5.3955078-0.5268555,7.671875-1.4052734
					l0.9941406,5.2382812c-3.1845703,0.9897461-6.4443359,1.5-9.8330078,1.5c-11.0986328,0-13.5-2.7407227-13.5-14.6665039v-5
					h7.6669922V419.125z"/>
				<path d="M451.125,568.625c0,8.0078125,0.6298828,8.5,6.5,8.5c2.5068359,0,5.5605469-0.5488281,7.8789062-1.4287109
					L466.625,582.625c-3.5644531,1-7.0351562,1.5-10.75,1.5c-12.078125,0-15.25-2.9628906-15.25-15.5v-4.5h10.5V568.625z"/>
				<path d="M452.125,718.125c0,7.2021484,0.6259766,7.6669922,6.3330078,7.6669922
					c2.5126953,0,5.7246094-0.5722656,8.0859375-1.453125l1.2480469,8.6191406c-3.9443359,1.0097656-7.6259766,1.5-11.6669922,1.5
					c-13.3671875,0-17-3.4179688-17-16.3330078v-4h13V718.125z"/>
				<path d="M453.125,867.625c0,6.3964844,0.6230469,6.8330078,6.1669922,6.8330078
					c2.5185547,0,5.8886719-0.59375,8.2929688-1.4755859l1.3730469,10.3095703c-4.3232422,1.0195312-8.2158203,1.5-12.5830078,1.5
					c-14.65625,0-18.75-3.8730469-18.75-17.1669922v-3.5h15.5V867.625z"/>
				<path d="M454.125,1017.125c0,5.5908203,0.6191406,6,6,6c2.5253906,0,6.0527344-0.6162109,8.5-1.5l1.5,12
					c-4.703125,1.0302734-8.8066406,1.5-13.5,1.5c-15.9453125,0-20.5-4.328125-20.5-18v-3h18V1017.125z"/>
			</g>
			<g>
				<polygon points="55.9492188,49.125 43.9394531,33.125 46.4394531,33.125 58.4472656,49.125 "/>
				<polygon points="54.8408203,199.125 41.8344727,182.7910156 48.1674805,182.7910156 59.8393555,199.125 "/>
				<polygon points="53.7329102,349.125 39.7299805,332.4584961 49.8964844,332.4584961 61.2324219,349.125 "/>
				<polygon points="51.625,482.125 62.625,499.125 52.625,499.125 37.625,482.125 "/>
				<polygon points="51.4580078,649.125 36.125,631.7910156 52.7910156,631.7910156 63.4580078,649.125 "/>
				<polygon points="50.2919922,799.125 34.625,781.4580078 53.9584961,781.4580078 64.2915039,799.125 "/>
				<polygon points="49.125,949.125 33.125,931.125 55.125,931.125 65.125,949.125 "/>
			</g>
			<g>
				<polygon points="251.125,949.125 267.125,931.125 245.125,931.125 235.125,949.125 "/>
				<polygon points="246.2910156,781.4580078 235.9580078,799.125 249.9580078,799.125 265.625,781.4580078 "/>
				<polygon points="247.4584961,631.7919922 236.7915039,649.125 248.7915039,649.125 264.125,631.7919922 "/>
				<polygon points="248.625,482.125 237.625,499.125 247.625,499.125 262.625,482.125 "/>
				<polygon points="246.5166016,349.125 260.5200195,332.4580078 250.3530273,332.4580078 239.0170898,349.125 "/>
				<polygon points="245.4091797,199.125 258.4155273,182.7915039 252.0820312,182.7915039 240.4101562,199.125 "/>
				<polygon points="244.3007812,49.125 256.3105469,33.125 253.8105469,33.125 241.8027344,49.125 "/>
			</g>
			<g>
				<path d="M352.125,935.625c2.2802734,1.4160156,4.0195312,2,5,2c1.3574219,0,2-0.8857422,2-5.5h13c0,13.9189453-4.15625,19-11,19
					c-3.78125,0-7.7939453-1.265625-13-4.5c-2.2802734-1.4179688-4.0205078-2-5-2c-1.4023438,0-2,0.9394531-2,6.5h-13
					c0-14.6982422,4.015625-20,11-20C342.90625,931.125,346.9179688,932.3886719,352.125,935.625z"/>
				<path d="M351.875,786.625c2.8554688,1.7949219,4.5869141,2.4160156,5.6669922,2.4160156
					c1.5087891,0,2.2490234-1.0664062,2.2490234-5.9160156h11.5009766c0,12.7783203-3.953125,17.5-10.3339844,17.5
					c-3.5673828,0-7.3271484-1.2060547-12.5830078-4.5c-2.855957-1.796875-4.5883789-2.4169922-5.6669922-2.4169922
					c-1.5576172,0-2.25,1.1386719-2.25,6.9169922h-11.5c0-13.5517578,3.7919922-18.5,10.3334961-18.5
					C342.8779297,782.125,346.6425781,783.3457031,351.875,786.625z"/>
				<path d="M351.625,637.625c3.4306641,2.1738281,5.1552734,2.8330078,6.3330078,2.8330078
					c1.6621094,0,2.5-1.2470703,2.5-6.3330078h10c0,11.6386719-3.7480469,16-9.6660156,16
					c-3.3544922,0-6.8603516-1.1455078-12.1669922-4.5c-3.4306641-2.1748047-5.1552734-2.8330078-6.3334961-2.8330078
					c-1.7128906,0-2.5,1.3378906-2.5,7.3330078h-10c0-12.4042969,3.5688477-17,9.6669922-17
					C342.8510742,633.125,346.3681641,634.3027344,351.625,637.625z"/>
				<path d="M351.375,488.625c4.0058594,2.5527344,5.7226562,3.25,7,3.25c1.8144531,0,2.75-1.4277344,2.75-6.75h8.5
					c0,10.4980469-3.5439453,14.5-9,14.5c-3.140625,0-6.3935547-1.0849609-11.75-4.5c-4.0058594-2.5527344-5.7226562-3.25-7-3.25
					c-1.8681641,0-2.75,1.5371094-2.75,7.75h-8.5c0-11.2578125,3.3447266-15.5,9-15.5
					C342.8232422,484.125,346.0927734,485.2597656,351.375,488.625z"/>
				<path d="M339.7910156,335.125c2.9702148,0,6.222168,1.1669922,11.3339844,4.5449219
					c4.1679688,2.7685547,6.2802734,3.621582,7.8330078,3.621582c2.1230469,0,3.3330078-1.6782227,3.3330078-7.1669922H368.625
					c0,9.7539062-3.5410156,13-8.1669922,13c-3.0068359,0-6.3046875-1.2246094-11.3867188-4.5786133
					c-4.0117188-2.6582031-6.1748047-3.5878906-7.7802734-3.5878906c-1.6162109,0-3.3330078,1.0249023-3.3330078,8.1665039
					h-6.3334961C331.6245117,339.0229492,334.6855469,335.125,339.7910156,335.125z"/>
				<path d="M339.9584961,186.125c2.7412109,0,5.9755859,1.199707,10.9165039,4.5898438
					c4.3300781,2.9848633,6.8388672,3.9936523,8.6669922,3.9936523c2.4296875,0,3.9160156-1.9291992,3.9160156-7.5834961H367.625
					c0,9.0097656-3.5380859,11.5-7.3330078,11.5c-2.8730469,0-6.2158203-1.3647461-11.0244141-4.6577148
					c-4.0170898-2.7636719-6.6254883-3.9257812-8.559082-3.9257812c-1.3647461,0-3.9165039,0.5126953-3.9165039,8.5834961H332.625
					C332.625,189.6791992,335.4018555,186.125,339.9584961,186.125z"/>
				<path d="M333.625,48.125c0-7.7900391,2.4931641-11,6.5-11c2.5126953,0,5.7294922,1.2324219,10.5,4.6347656
					c4.4921875,3.2011719,7.3964844,4.3652344,9.5,4.3652344c2.7382812,0,4.5-2.1796875,4.5-8h2c0,8.265625-3.5351562,10-6.5,10
					c-2.7392578,0-6.1269531-1.5048828-10.6611328-4.7363281C345.4414062,40.5195312,342.3867188,39.125,340.125,39.125
					c-1.1132812,0-4.5,0-4.5,9H333.625z"/>
			</g>
			<g>
				<path d="M452.125,935.625c2.2802734,1.4160156,4.0195312,2,5,2c1.3574219,0,2-0.8857422,2-5.5h13c0,13.9189453-4.15625,19-11,19
					c-3.78125,0-7.7939453-1.265625-13-4.5c-2.2802734-1.4179688-4.0205078-2-5-2c-1.4023438,0-2,0.9394531-2,6.5h-13
					c0-14.6982422,4.015625-20,11-20C442.90625,931.125,446.9179688,932.3886719,452.125,935.625z"/>
				<path d="M451.875,786.625c2.8554688,1.7949219,4.5869141,2.4160156,5.6660156,2.4160156
					c1.5097656,0,2.2509766-1.0664062,2.2509766-5.9160156h11.4990234c0,12.7783203-3.9521484,17.5-10.3330078,17.5
					c-3.5673828,0-7.3271484-1.2060547-12.5830078-4.5c-2.8554688-1.796875-4.5878906-2.4169922-5.6669922-2.4169922
					c-1.5576172,0-2.25,1.1386719-2.25,6.9169922h-11.5c0-13.5517578,3.7919922-18.5,10.3330078-18.5
					C442.8789062,782.125,446.6425781,783.3457031,451.875,786.625z"/>
				<path d="M451.625,637.625c3.4306641,2.1738281,5.1552734,2.8330078,6.3330078,2.8330078
					c1.6621094,0,2.5-1.2470703,2.5-6.3330078h10c0,11.6386719-3.7480469,16-9.6660156,16
					c-3.3544922,0-6.8603516-1.1455078-12.1669922-4.5c-3.4306641-2.1748047-5.1552734-2.8330078-6.3330078-2.8330078
					c-1.7128906,0-2.5,1.3378906-2.5,7.3330078h-10c0-12.4042969,3.5683594-17,9.6660156-17
					C442.8505859,633.125,446.3681641,634.3027344,451.625,637.625z"/>
				<path d="M451.375,488.625c4.0058594,2.5527344,5.7226562,3.25,7,3.25c1.8144531,0,2.75-1.4277344,2.75-6.75h8.5
					c0,10.4980469-3.5439453,14.5-9,14.5c-3.140625,0-6.3935547-1.0849609-11.75-4.5c-4.0058594-2.5527344-5.7226562-3.25-7-3.25
					c-1.8681641,0-2.75,1.5371094-2.75,7.75h-8.5c0-11.2578125,3.3447266-15.5,9-15.5
					C442.8232422,484.125,446.0927734,485.2597656,451.375,488.625z"/>
				<path d="M439.7919922,335.125c2.96875,0,6.2207031,1.1669922,11.3330078,4.5449219
					c4.1679688,2.7685547,6.2802734,3.621582,7.8330078,3.621582c2.1220703,0,3.3330078-1.6782227,3.3330078-7.1669922H468.625
					c0,9.7539062-3.5410156,13-8.1669922,13c-3.0068359,0-6.3046875-1.2246094-11.3867188-4.5786133
					c-4.0117188-2.6582031-6.1738281-3.5878906-7.7792969-3.5878906c-1.6171875,0-3.3339844,1.0249023-3.3339844,8.1665039H431.625
					C431.625,339.0229492,434.6855469,335.125,439.7919922,335.125z"/>
				<path d="M439.9580078,186.125c2.7412109,0,5.9755859,1.199707,10.9169922,4.5898438
					c4.3300781,2.9848633,6.8388672,3.9936523,8.6669922,3.9936523c2.4296875,0,3.9160156-1.9291992,3.9160156-7.5834961H467.625
					c0,9.0097656-3.5380859,11.5-7.3330078,11.5c-2.8730469,0-6.2158203-1.3647461-11.0244141-4.6577148
					c-4.0166016-2.7636719-6.6259766-3.9257812-8.5595703-3.9257812c-1.3642578,0-3.9160156,0.5126953-3.9160156,8.5834961H432.625
					C432.625,189.6791992,435.4023438,186.125,439.9580078,186.125z"/>
				<path d="M433.625,48.125c0-7.7900391,2.4931641-11,6.5-11c2.5126953,0,5.7294922,1.2324219,10.5,4.6347656
					c4.4921875,3.2011719,7.3964844,4.3652344,9.5,4.3652344c2.7382812,0,4.5-2.1796875,4.5-8h2c0,8.265625-3.5351562,10-6.5,10
					c-2.7392578,0-6.1269531-1.5048828-10.6611328-4.7363281C445.4414062,40.5195312,442.3867188,39.125,440.125,39.125
					c-1.1132812,0-4.5,0-4.5,9H433.625z"/>
			</g>
		</g>
	</svg>
