<?xml version="1.0" encoding="utf-8"?>
<!-- Generator: Adobe Illustrator 11 Build 225, SVG Export Plug-In . SVG Version: 6.0.0 Build 78)  -->
<!DOCTYPE svg PUBLIC "-//W3C//DTD SVG 1.0//EN"    "http://www.w3.org/TR/2001/REC-SVG-20010904/DTD/svg10.dtd" [
	<!ENTITY ns_flows "http://ns.adobe.com/Flows/1.0/">
	<!ENTITY ns_svg "http://www.w3.org/2000/svg">
	<!ENTITY ns_xlink "http://www.w3.org/1999/xlink">
]>
<svg  xmlns="&ns_svg;" xmlns:xlink="&ns_xlink;" xmlns:a="http://ns.adobe.com/AdobeSVGViewerExtensions/3.0/"
	 width="1381.7246094" height="1050.25" viewBox="0 0 1381.7246094 1050.25"
	 overflow="visible" enable-background="new 0 0 1381.7246094 1050.25" xml:space="preserve">
	<metadata>
		<x:xmpmeta  x:xmptk="XMP toolkit 3.0-29, framework 1.6" xmlns:x="adobe:ns:meta/">
			<rdf:RDF  xmlns:iX="http://ns.adobe.com/iX/1.0/" xmlns:rdf="http://www.w3.org/1999/02/22-rdf-syntax-ns#">
				<rdf:Description  rdf:about="" xmlns:pdf="http://ns.adobe.com/pdf/1.3/"></rdf:Description>
				<rdf:Description  rdf:about="" xmlns:tiff="http://ns.adobe.com/tiff/1.0/"></rdf:Description>
				<rdf:Description  rdf:about="" xmlns:xapGImg="http://ns.adobe.com/xap/1.0/g/img/" xmlns:xap="http://ns.adobe.com/xap/1.0/">
					<xap:CreateDate>2005-10-18T08:31:30Z</xap:CreateDate>
					<xap:ModifyDate>2005-10-18T08:31:30Z</xap:ModifyDate>
					<xap:CreatorTool>Illustrator</xap:CreatorTool>
					<xap:Thumbnails>
						<rdf:Alt>
							<rdf:li  rdf:parseType="Resource">
								<xapGImg:format>JPEG</xapGImg:format>
								<xapGImg:width>172</xapGImg:width>
								<xapGImg:height>256</xapGImg:height>
								<xapGImg:image>/9j/4AAQSkZJRgABAgEASABIAAD/7QAsUGhvdG9zaG9wIDMuMAA4QklNA+0AAAAAABAASAAAAAEA
AQBIAAAAAQAB/+4ADkFkb2JlAGTAAAAAAf/bAIQABgQEBAUEBgUFBgkGBQYJCwgGBggLDAoKCwoK
DBAMDAwMDAwQDA4PEA8ODBMTFBQTExwbGxscHx8fHx8fHx8fHwEHBwcNDA0YEBAYGhURFRofHx8f
Hx8fHx8fHx8fHx8fHx8fHx8fHx8fHx8fHx8fHx8fHx8fHx8fHx8fHx8fHx8f/8AAEQgBAACsAwER
AAIRAQMRAf/EAaIAAAAHAQEBAQEAAAAAAAAAAAQFAwIGAQAHCAkKCwEAAgIDAQEBAQEAAAAAAAAA
AQACAwQFBgcICQoLEAACAQMDAgQCBgcDBAIGAnMBAgMRBAAFIRIxQVEGE2EicYEUMpGhBxWxQiPB
UtHhMxZi8CRygvElQzRTkqKyY3PCNUQnk6OzNhdUZHTD0uIIJoMJChgZhJRFRqS0VtNVKBry4/PE
1OT0ZXWFlaW1xdXl9WZ2hpamtsbW5vY3R1dnd4eXp7fH1+f3OEhYaHiImKi4yNjo+Ck5SVlpeYmZ
qbnJ2en5KjpKWmp6ipqqusra6voRAAICAQIDBQUEBQYECAMDbQEAAhEDBCESMUEFURNhIgZxgZEy
obHwFMHR4SNCFVJicvEzJDRDghaSUyWiY7LCB3PSNeJEgxdUkwgJChgZJjZFGidkdFU38qOzwygp
0+PzhJSktMTU5PRldYWVpbXF1eX1RlZmdoaWprbG1ub2R1dnd4eXp7fH1+f3OEhYaHiImKi4yNjo
+DlJWWl5iZmpucnZ6fkqOkpaanqKmqq6ytrq+v/aAAwDAQACEQMRAD8A9U4q7FXYq7FXYq7FXYq7
FXYqhtT1Kx0vTbvU7+UQWNjDJc3c5BISKFC8jkKCfhVSdhiqJxV2KuxV2KuxV2KuxV2KuxV2KuxV
2KsW/Kx3f8uvLruxZmsYSWJqSePjirKcVdirzfyzp2tRXXlUz21yiwXmvtdGRJAESW4mMBkqNg6k
FK9R0xV6RirsVedfmP5ovob/AEXTItC1SZf0zaFbiBbb0rj0Fa6KRFp1ev7mvxKv2T2xVS0PzfqF
z+Y+tyny3q6RtZ6VYlGW0pAUlu5mkkpcmgZbpfs1NF6Yq9KxV4n5/i0vWNG/MyPX72WTW9L0+/fS
NGeeSGKGzSwLw3MNurIk3qPyLSsGofg2pTFXp2ieStJ0PUGu9KmvLeB42jk01rqaazLFgwlEMzSC
NxxpWMrWp5V2oqn2KvPrfyx5b81ec/Nb+ZbGDWJNLubax020vY1mit7V7C3ufUhjkDKryTzSgyqO
R4ha/DiqWadrmpxeU18r6HdSSalf6pqOkaBfuxleHT7S5dJrss1eS2UdYkLV5OIwftYq9J0jS7LS
dLtNLskKWdlCkECkliEjUKOTHdjtuTuTirEvzIt7CbUfLia/H63lGW5kg1SJ/wDeY3MyBbH62vRo
DJySjVT1GTl2xVBeWtN8s2v5jPD5KtIbLSbGxuIPMSaeixaebxpYTaxCOICE3MapMXKjkqkBvtCi
r0XFWN6Tb3qefPMU8kUi2ctnpi28rKwjZ0N16gRj8JK8l5U8RXFWSYq7FXYqxr8tLS6s/IGgWt3D
Jb3MNlEk0EqlJEYLurKwBB+eKslxV2KuxV2KuxV5r5x8weY285+V7WPyvdyrZajeXVs63NiouFis
Lm15JymBUcbrlR6H6dsVXeR9c8wXXnHzTLN5buoIp9St7ae4e4s3W3EGn254twmZm+KQmkYYb+NQ
FXpGKsG/OfRtE1T8sfNM1/ZW95NYaRqM1nLNGkjwTR2sjB42YEowKjcYqutbW68q+bdH0mz1C4vN
D1tbmJdOvZXupLSW2i9YSw3Epeb0So9NkdmAJTjx3BVZvirHvMnk3ynqkzarq0TwzwQlJ763urix
c26VcpNLbSQGSJak8XJXrtirzvStPubufRLrTuegWnmeU2Oki2VYpbLy9Y28lzFDCGBEU17IgkkI
HII1PtICFWY6XBf+XvPNroiald6hpGr6fdXkUN9K1zLbXFjLbxsUmespjlW7FQ7EKyjjTliqjqum
nzr5k1fQNTmkj8r6OsEN3pcLGJr+e4jE5NxIhEn1dI2VRGpAduXOqjjiqVfpf/lVWlS6NexmTy3F
DO3le/RSWWRVaRNMuAo+KVj8Nu/WX7J+MVdVn3lu31G38vaXb6nK0+pQ2kEd9MxqzzrEolYkdSzg
nFUxxV2KuxV2KoXStP8A0dpttY/WZ7z6tGI/rV2/qzycf2pHoOTHuaYqisVdirsVdirsVS+60S1u
dasNXkeQXOnR3EUEYI9Mi69PmWBBPIeiONCOpxV2k6JaaXJqEkDyO+pXb3twZCD+8dEjovELRQkS
gfrxVMMVYL57/K601zR/MK6Ncz6TrGtWVzBKYbiSKzuJpoDEpuoKSxEGoDusfqce9aYqnmh+S9L0
q/bVGnutS1d4zAdR1Cdp5ViJDNHEvwxRKzKCwjReRpXoMVT7FUs8yeX7PzBpMmk3skqWVw0Zuo4S
q+tEjh2gclW/dyheEgFCVJFcVWeYvLVlrlnBBLLNZ3FnMtzp9/aMqT206KyCSIusifYdkKurKykg
gg4qhdA8oDTdTm1i/wBTuta1maEWwvbwQp6VuG5mKGK3jhjRWajMeJZiBU7CirWteTo77VBrGn6l
eaJq/pLBNd2JhYTxRlmjjnhuI54ZAhduLcQ4qaMMVS+4/LHTtVP/ADtepXvmZFVhFa3xhitY2deP
Nbe0itkLqCeDycmU7qQcVZLo2nNpml2untd3F/8AVYxELu8ZXuJAuwMjosYZqbcqVPU1O+KozFXY
q7FXYq7FXYq7FXYq7FXYq7FXYq7FXYq7FXYq7FXYq7FXYq7FXYq7FXYq7FXYqkPkXzhY+cPK9p5h
sYZbe1u3nRIZ+PqA21xJbtXiWG7REjfpiqfYq7FWIaT+ZelanJpKRWs6HV9U1DR4OfD4ZdNS4eR2
ox+BhaNxpvuK4qy/FXYqkvmnzVZ+XYdNkuopJv0nqVppUCxcaiW9lEaseRHwr9pqb0xV0Pmqzm85
XflVIZDd2dhBqM1xQeiFuJZIkjrWvP8AclunTFU6xV5t+ZP5y6d5bttd03RrS81jzJpWnzXc6Wds
09tYt6LSQyX0paJEj25MA3Lj26YqmHkX807HzHJZ6Ze6bqWj63cWouUg1C0aCKdVVTJJbyqZYnSr
VHx1p2xVnOKsK1/8yLm08xXHl7y95evfMup6fDHcasLSS3gitUmBMSPLcSRqZXUcljXfjviqZaL5
+8uap5Qk81iV7TS7ZJ31AXS+nLatalluIp034vEyEECvtUUxVMPLOtNrmgWGsGzmsBfwrOlpc8RM
iPunMKWAJWhpXbFUr87+frHyr+jrb6ldarrOszNBpOkWKq087xrzkasjIiRxru7s2wxVAaB+ZU91
5kt/LXmLy/e+WtZvYZLjTY7l7e4guUgoZVintZJU5orBmVqbYqzbFUqs/MVrdeZdU0BInW50q2s7
qaU04Mt806oFoa1X6q1ajuMVTXFXYq7FXmv/ADjj/wCSd0X/AIz6l/3U7nFXpWKuxVhGi/ljBpcm
jOuoNL+h9X1LWVBjC+o2ppcoYj8R4iP659rvx6CuKs3xV2KvH/ze8r3955o8nxJ5k1WFNU8wQtHZ
xmyEFqLW0nm9W35WzSeoGjFPUZ13O3Siqh5O8n6lL+bnnB2826zI2jx6PbtKzWBe4VopLow3FLQL
wHqCgjCNRjU7iir2fFXhX5laB548paV+Y99pNhBrnlfzZZXdzfkTLb3unytYtBLKQ44TwhV5cVIc
dKeKrOPyt/Mjyx5g02z0O3eaz17T7G3N1pF/C9tciMRqvqorikkZ7MhI3HjirPcVeaTS+ZPJ3n7z
Nqi+Xr3XtG8zfVLq3m0sQvNBc2lqlq8E8cskJ4usSsrgkCtDirz71VhS70Xzg66Vo/6Ul82efIEb
6wkbX1wG0zRf3QYyySlUllVF+ILt9rFXtHlf8w/LPmS9uNPsJLiDU7WNZ5tOv7aeyufRc0WZYrlI
2aMnbktRX5jFWGfnlf2+mXnljW9KuBL560q6kfQNDRHml1CG4QR3lt6cQZ0Vo1B9UjihUVxVD/l5
qF75+19fzI1uWLT7Py8t5YaZ5ajLPcWUrEJdy6gzLGwnZI6CPjRVodzuVXqWia1put6RZ6xpc31j
Tr+JLi0n4unOOQVVuLhXFR2IriqDsfLiWnmvV/MInLvqtrY2jW/GgjFi1wwYNXfn9a6U2piqc4q7
FXYqwz8nbLRrH8vNNttG+uDTklvTD+ko1iuqtezNJzRdgPULcPFaHFWZ4q7FXYq7FXYq8e87fl89
5+anlDhq2uehdSave3Ekd7KEtStuqqsDdIAxuOAUdV26A4q3+WXkF083+b9Wm1TWh9V1xILcT3kt
LqO1s7ejXAP9+tWKgn9kU7Yq9gxV5J+b3n++sPK3nPQtW8t6lDbXGl30Ol63axG8splls2VTO8NW
tmDsQfUWlBy5UxVL/Kj3/nLzj5C1jT9CvLDSfKWnzi91rUbdrT6011ZC3jt7VXpJKgYmQuV47be6
r2vFUl85+Y/8OeWr7V0tZb64gQLaWMCs8k9xIQkMSqtT8UjAE9hv2xV5hrfkrUfLHlfyxrWoQNrO
oWPmGLzF50e2iMrySzRSxyXEcagu62byp6aqPsJWm2KprYa/pvnf82NB1fyys1xpPl/T79dU1gwS
QQyPfeiILRGlVGkZTE0jACi7b1JGKofVNVg8k/nFrPmXzPa3B0PW9Os7XSddigluYrI2xf6xay+i
sjxCZ2WSvHiaexoqw38xtU/xNf3Wp/k1DqF55j1K0msvMc1vaywadPZmB1DTyXIgQ3cdR6DIS37J
22xV7V+W91os/kbRU0ZZotPtLSG0iguo2huIvq6CIxzRtusi8fi8eoJG+KskxV2KuxV2KuxV2Kux
V2KuxV2KuxV2KuxVD6jp9lqOn3On30K3FleRPb3UD/ZkilUo6N7MpIxVUt7eG2t4reBBHBCixxRj
oqKKKB8gMVVMVdirsVdirsVdirsVdirsVdirsVdirsVdirsVdirsVdirsVdiqncXFvbW8tzcypBb
wI0k00jBEREHJmZmoAoAqScVdb3Fvc28VzbSpPbzoskM0bB0dHHJWVlqCpBqCMVVMVdirsVdirsV
dirsVdirsVdirsVeS/8AOM/mLXde8h6hea1fz6jdR6xdwJPcOZHESLHxQFv2RU0GKvWsVdirwGy8
3+aH0by9K2q3JkuPzIl0udzK1XsRJdAWzb7xfAvw9NsVe/Yq7FXhH57fnh5Z0i80zy5p3mCWx1ux
12w/xBHCl3GYtPoZLgtIkfGROLJVY2LGuw2xVBaT/wA5F+R7z86LmX/E0x8qTaVBY6ZAYbwQyajJ
chmYQ+jVW4njzdR86Yq+hMVfOH5leaPPfnTUvzM0HTdaTy/5b8laVM17YpBHLc6lztZXdWdzyjjP
plSU7EbEnZVln5I+XPzP03RPKV7N5og1byde6RbSy6TdWqxXNoJLRWgjtp46l1QlVPqH7I6VNcVe
x4q8bvrXzF5//NrzX5ebzNqfl7Q/KFvp6W9voswtZri41CA3Bmml4uzKlOPDp0/yuSqA8v8A5ueY
dJ/LDXP0lMNb82aTr135U0OQKofUryNlW2fiKA7SVbxCnvir1byNomraJ5V07TtZ1KbVtXjj5ahq
E7mRpJ3JeTiT0RWPFB/KBirz/wDPfzL5hs9Z8k+WtO1p/Lem+Zr2e31TXIVHqxCJYzFCkjCkbTNI
QG67eFcVSRG8xfl/+cflLyppnmvVfNOn+YI7k6tpeszre3FrHEnKO5WYKjIpPLt0Ujwoq94xVgGm
6vqkn5463pL3UraZBoNlcQ2ZY+ksz3MqtIF6BmVQCcVZ/irsVdirxj/nFGCeH8utSWaNo2Ot3pCu
CpoVi33xV7PirsVU/qtsAAIkor+oo4jZ/wCYf5XviqpirsVfOf5x/m15bn8/eTtONrqXHy5r0txq
I+pyfvGs1aMG32rN8VT8O1N8Vd+XP5teW7v88PON/wDVtTCeYJNG07SlNnIPTKQmKQ3Ip+6HqsCC
x+zvir6MxV5B+fH5ReTda8t+YvOBjmsPMenaTeTG/sZTC06wWzMIblaMsiMq8G25Fdq0xViX5V+b
vzB8mXv5d+XPMF7DrflXzppcLaHKIxFdWDx2scv1c8f7yNBKiVbcjeooVKr6MxVgfm38odM13zGf
MthrOqeW9cmtxZ3t5pE6wm4gX7Kyq6SAsv7LChH0CirwuN00Z7TW/JlqlxpOnasnlT8vpL9jLHd6
xqLML/WLhl4mT+7McbD4fADjTFXrGleYPzJ8qfmN5f8AK3m/V7XzHpvmqG6+pahFaJYSW11ZRes8
bIjOro6bKTuT4U3VSj83J7/8yPNz/k7pMVtbwW1vFqnmDW7qP1Xtk5KYls46r+9PMVavRiPHFWK+
WtQtvyS1PzLYecbcSa7f211eaB55l9SY6ksUfNbSV5GkMcqsi/ADRjT/ACSyr3D8rdY1/Wvy90HW
Nf4fpbUbRLq49NPTWkxLx0Xt+7ZcVZOIohIZQiiQjiXoORA7VxVdirsVdirHvI/l7zBoOkzWeua/
J5ju5LmSeO+mhEDJE4XjDxDy1CUO9e+KshxV2KuxV2KuxVifmDyIdZ8/eVPNjX3op5WW/Edh6XL1
21CAQFjLzHDgFrTia+2Ku8meQv8ADeu+atXa9F5L5mvxfFBD6XoKqcEi5c5PUp/Nt8sVZZiryH8z
PyV1XUrfzNqnlHzDqWnajrdpcfX9CWVJbG/la2MQj4TlVhaUKsZfl8I6UxVr8p/yNfQ30DzJ5r1O
81bzLpemw2tjY3Lp9W0wGARvBAsZdWMYrHz5UPXrvir1/FUk866Fqmv+V9R0XTNT/Q11qERg/SIi
9do43NJOCc4viZKqG5fDWuKsf8y/lFoWq/l9YeTdPnk0iLR2t59Fv4AGktrm1NY56HiHYkty3Fan
cHfFUD5c/LDzQfOdh5u87eZF17UdGt5bfRbe2tFs4ITcrwnmYBn5ySJ8PYfhRV3nX8pNS1LzhF52
8o+YZPLPmgW31O8m9BLu3uoAQVSWF2UbUG+/QbVFcVSbW/yM80edikH5jecpNU0m3YyW2k6ZZxWE
YmKFFleQmZ3K8jQH+JGKs/8AIHlzXvLflu30bWdb/T8ln+6tb9rf6tL6CgBEl/ezCRlG3Pao6iu5
VZHirsVdirsVdirsVdirsVdirsVdirsVdirsVdirsVdirsVdirsVdirsVdirsVdirsVY75N/MPyf
5zivJfLWofX49Pl+r3bejPDwkIrx/fJHXp1FRirIsVdirD3/ADc/L1NNn1JtWpZW2qnQJpfq9z8O
pChMHH0uR6j4wOH+VirMMVdiqR+bvO3ljyhYW9/5ivfqVpd3KWVvJ6Usxe4lVmRAsKSNuI23pTFW
/wDGnlr/ABd/hD65/wA7ELX6+bH05f8Aeblw5+rw9L7X7PKvtiqd4qw38x/zW8oeQ9KubjVb+3Gq
LbS3Gn6Q0vCe5dFYxxqFWRkWR14cytBiqD/Lf86vI3nmysls9StrfXbiFZLjQ2mrPFIV5PGnNYjL
w7si4qz7FWE+evzl/LzyPfQ6f5h1P0b+eMzJaQxS3EgiFf3jrEr8F+E/a8MVT7y75v8ALXmPQI/M
GjahFdaPKrOLsEoqhPt+oHCtGVp8QYCmKu8p+bvL/m3Rk1ry/cteaZK7xxXJimhDtGeLcRMkbMA2
3ICmKqHnPz55S8l6WNT8y6jHp9qzcIuQZ5JH68Y40DO58aDbvirHPJv5+flX5v1dNH0XWQ+pygmC
2nhmtzLQVIjMqqrNQfZrXFXoWKpOnm7y8/myTykt3XzBFZ/pJ7L05drUyCL1PU4+l9tgOPLl7Yqn
GKuxV2KvnX/nDb/jlecv+2qv/EGxV9FYq7FXhE35D+b38p6jo4vNP+s3fnVvNEbmSb0xZEKPTY+j
X1vh+zTj/lYq93xV2KvmX/nJaz/Mq680eV9KfU9OOiatr1qvlyz4OJorlQsSyXLBfiRXnP2a7HFU
t8t6X+dV5/zkJ5h9PV9I/wAT6Tpttb6nfNA/1VrWcQTKkKcOQk4kfER44q+rMVfHX5z6Vc+V/wAy
/O+u+bvLs2taT5i0y4tfLmshBNDaXM1sIrdjy+BGiYcd6Mv2kr3Venf84/W35Ma9ofla+0yLT288
6BZILoxJ9XvBKYTBM8qUjM4o5HMhgDShrir3fFXz1rfmGy/Lj/nIPzJ5n816fctovmHTrWLRtVgg
e4VHhiijkt/h+yZHiO3+rXY1xV5/5cutdPlK58hWkbeXG8/6vd6xcLcARDTPLYCCSaQNxEYlETIl
aBlX/KU4q+mfIPmL8t59Nt/L3k3V7C9g0m3SKOzs7iOV0hjAQOyqeRqerdyfHFXl/wDzlTotxajy
p5/Vba8tPKd6HvNJu3VFuEmliYBA+zEmHiygE0NaGhxVjUGqy/nZ+Z/lrzboel/oXyh5ImS51LXL
z045ZZImjuTA3FiOKekAN6KrMxpUDFX0zYajp+o2kd5p9zFeWctfSubd1ljbixVuLoSpowIPvirD
LfyHq8f53XPntprc6RNoA0hYAz/WfXF0k/Irw4cOKdeda9sVZ3irsVdirxP/AJxi0nynp2neZ18u
+YH1+OXUA9272Ulj6MnE/uwJHk5/6wpir2zFXYq7FXYq7FXyv+cHlP8AMm4/OXyjpjecPVk1TUL6
+8u1tYwNLRGEiDr++4ooX4v5ffFVP8pPJ35lah+b3nS7h85cLzRb+yttevjZof0kiM4aIA0EXFbf
iePiDir6sxV4T+cP566Fpll528j69pt9pl1cabd2uh37xM9te/WLMopVgAV/fOVrQrtUkdMVeP8A
5XQaZ5j/ADK/LiTyNpU9teaDZ25846nGhhgdo1pKWptVkqhY7yFqb9Sq+1sVSvzT5k0vyx5d1DX9
Vk9Ow02Fp5jtU8fsoterOxCqO5OKvlrzz5W8y3n5N63+ZWtwyfprzdf2d3qNvGSWttBV/wDR7dR2
WvpOfbjy3BxVPmu/y11D87Py1P5UxWwkt47l9bfS4vSRbIxKIxc0UDnx9QNz+LcA7lcVU/zfv9Jt
P+cjtGm/MqN5PIUdoDpAmR5LL1uHxNJGgYPSc/GKHbhy+HFWG/mpr/lHRfMN7e/k1rf1mTzTaXNp
5i8uWMEslv6ckL8riKihFKhmai7oakfCSMVfQX/ONl75al/KDQbLQ79b36hEU1BRUPDdzO1xNG6n
cUeU8T0I3GKvT8VdirsVdiqC0zRNF0pZV0uwtrBZ25zLbQxwh2/mbgFqfc4qjcVdirsVdirsVQs+
k6VPfwahPZQS39qCLW7eJGmiDAhhHIRyWtd6HFXWmlaXZT3M9nZwW094/qXcsMaRvM+/xSMoBdtz
ucVRWKpf5g0LTdf0S+0bUo/VsdQgltp1GzcJkMbFTvxajGh7Yqt8t+XdL8uaFZaJpcZjsbCJIIFY
8m4oAoLN+01BucVTLFUNqOmabqVq1pqNpDe2jkF7e4jWWMlTUEo4ZTQ4qrvDE8TQuitEylGjIBUq
RQqQdqUxVL9H8seWtFaVtG0mz0xp95zZ28UBc9fj9NV5fTiqI1HStL1O2NrqVnBfWxIJguY0lSo6
Hi4YYqhdF8q+V9C5foTR7HS+Y4v9StobeorWh9JV774qq6Z5e0DSXmk0vTbWwe4p9Ye1gjhMnGpH
MxqvKnI9cVR+KuxV2KuxV2KuxV2KuxV2KuxV2KuxV2KuxV2KuxV2KuxV2KuxV2KuxV2KuxV2KuxV
4l/zjf8Amx5v8/X3m6HzDJBImjy2iWXoRCKgma5D8qE8v7lcVe24q7FXzNq35+fmFa+SPPOsRTWw
vdA8xLpWnkwKVFsZHWjrX4moo3xV9JWEzz2NtNJ9uWJHamwqygnFVfFXiH/OQv56P5Os7PT/ACpq
1j/iT68kOpWsvGZ4IDEzVkjr8HxMhqcVQR/5yL05vztGip5h01PIMdl6kl+SnBrn0q8BcFqfaYfd
TFXvmKvnj82Pz585yecNU/L38vtGivb2ytpf0rf3BPwKsXOZogJIlQRK1Obtu2wXpVVjv/OM/n/8
2Y7bR9Jm0JtX8o6nezR/4gZ5XmgcAtJ6snKUBV4fCrotenLfFX1Tirwvzt+YX5r67+bt7+XP5dzW
OlyaLZJe6jqN+nqczIkbhRVJQF/0iNQAla1NaYqv8hf85CzS/lZ5h8x+cYIodY8rTvY3UcB4pdTk
AQKg+LizueDUqBTlsNgqz38oNQ886r5HstY86NENW1Ot1FawxeiILaQAwxstSSxX4zXcVp1GKsN/
5yD/ADj8yeSrjQvLvlW2hk1/zC5WK7uhWKJeaxIFBKqXZ36seKgbg12VYXqn5tfnl+WPm/QrD8xZ
tM1rSNbahaxULIiBlSQoVSA84zIpoyEN0B7hV9NYq8vufzB8xx/85CWvkZXi/QMujm/dPTHq+sC4
r6nWnwjbFXqGKuxV2KvmD/nC3/jqfmF/xnsP+J3uKvp/FXYqxWb8rPy9msNQ0+XQrZ7LVbkX2oQE
NxmuQSfVff7VWOKsojjSONY4xxRAFVR0AAoBiq7FXxp/zkZq35N6j+ZGjfo9ka/j1aWDz5c+neKU
S2lhgZWDJR6KkorBX7PeoxVLfJsf5Aal+emsW93FE3ke9hitfLVrwvwr3shto1oAPWWrerUy0Xf5
Yq+3cVfM/wDzkX+T1xo82s/mx5W1qXTL5I1/S1kKgSCbhbOY3U7c1Yc0cENuajpirGfyI/NHzX+X
N55b8j+Z9HRPL/mgwXmj36keqqamV9KXkrNG8ZZl5KeLJvXwxV9fYq8f8/fkl5mvvPz+fPInmb/D
mv3lsLPU/UhE0cyKqoGFeQHwRoKFTuoYEHFXz1qWm6T5Zvr7TZZZPMflnyTeLqPmac0jj1TXpyIY
bSv7zjFFxYNy5GgmP7SjFXtXlr8+vzDtPNXlfSvP3la30nTfOIRdEvLSRiweUqIxIheXvLGGU8Sv
IH2xVJf+csNV8u+Yb3R/IOm6XNq/n95Fl057dgn1VJ6ckdmBD+qqVK7BQA5YU3VeaaLqC6B+YWqX
n51ve33mzy3YGfyzaX0nOyuZrWNngjaRQ9RIygxsPhZq8qtsVX1Z+UHn698++R7XzPd6cNLN3LMk
NushlVkhkMfMMVTqysOnbFU+byp5cbzInmZrCI69HB9VTUaH1RDueFa0p8RxVNsVdirsVefflVpP
5q6fca23nu406eGZ4TpA0+OOMqqmX1fV4RQ12aOla98Veg4q7FXYq7FXYq8U/MP8hovMX5qeWfMF
jpOlRaBaStc+Y4jFEkl5K8pkYyxiJhPyp8XqHepxVZ+Wv5BQaF+Y3mzzBrej6TLpV5dCbyxbRxxy
/VEWd3VkjaJVgYLwpw6dMVe3Yq+bP+cgvye8/GLzT5p8ueYbq603WBA+reVxHI5l9P0oU9JY+auV
EakVQMAPtHFVP8p/+cdvNN9qXlXzn581s3Uek2dlLo2iBZA8EcKLJbQTeosfp+iackVTVq1Piq+l
8VSTzsnmqTyrqUPlQwr5gmhMVhLcsUijdyFMpIV941JZRTcgV2xV5ev/ADjpbf8AKjJfIS3SRa7d
smoXeqHkyPqIYOSx+0Y6D0gaVp8VK4qkuh/lB+cPmHzb5PvvzCu9Ng0nyKyPpy6eWaa5kiaNkZ6i
g5G3j5H4dhstSTiqYfm5+R3nTU/zCs/zH/L/AFW3svMVsiLNb3dQpaNDEHjbjKp5RHgyOtKd96Yq
xfzL+R356/mheWZ8/ajo+l2mnq6wSWkIlnJYD+QKSrEbgygDqFxV6l+Rnlr8yPKflpfLHm1NPmst
OHHSb2xkYuYyxJiljMcfStQ/U999yq9LxV2KuxV2KuxV2KuxV2KuxV2KuxV2KuxV2KuxV2KuxV2K
uxV2KuxV2KuxV2KuxV2KpPo3nLyhrd1LZ6Lrmn6ndwKXnt7O6huJEUEKWdI2ZlHI03xVOMVdiqRH
z75GWG+mPmLTBDpciw6nKb23420kjFESdudImZ0ZQGpUgjFU4tLu1vLWG8s5o7m0uY1mt7iFg8ck
bgMjo6kqyspqCOuKquKpdrfmTy7oNvHc65qlnpVvK/pxTX08VsjPQnirSsgJoCaYqpnzZ5WGrw6K
dZsRrNwokt9N+sw/WZEKlwyQ8vUYFAWqB03xVNcVQeraxpmkWMl9qVzFa20SlmkmdIwaAmgLlRXb
xxVin5W/m95X/MnTru+0KO5thZTehLb3qwpMfhVuapFLN8HxUqT1xVm+KpP5h84+U/LcccnmDWLP
SlmqIfrc8cJenXgHILU70xVH6dqem6nZRX2m3cN9ZTjlDdW0iyxOK0qroWVvoOKobRvMvlzXBOdE
1Wz1QWzBLk2VxFcCNzWiv6TNxO3Q4qiNT1bS9Ks3vtUvILCyi/vLq6kSGJf9Z3KqPvxVJ9C/MXyF
r939S0XzFp2o3m5Ftb3MUkpA3JCBuRA8QMVZFiqXv5h0CPWY9DfU7Rdalj9WLS2njF00YBPNYC3q
FaKd6dsVTDFXYq7FXx//AM4d/wDk0/NP/MBL/wBRkeKvsDFXYq+Sbn8nPzLfy1+bVouhym48w6tY
3OjR+pDW4ihvrmWR1+Og4pIp+KnXFX0r+XWm32l/l95Y0y/iMF9Y6TY213ASCUlhtkSRCVJHwspG
xxVkOKvjb/nLrzH59vfMVv5d1TS4rby5DdNJ5evUR1lu2EMay8mMjI3BpqbIuKsZtvNf5wT/AJ7R
63B5cgk896ZB6Q0MRzGGONbP0N4zPz/uZeX971P0Yq+67V5ntonmXhMyKZUHQMR8Q798VfD358ag
dV/Py+07z1fXdl5csnEVr6C8zDbG3DxNCh5D97JQuwBO52NOOKph/wA4uflZpnmbUrbzSuuGz1Xy
7qkcsmlIVLT20apIp+FlkVWkqpJBVgCMVfauKvkP80/8ID/nKC9P5oer/hH6hEdP5+sY+H1NePH0
P3nD6z6v2f2+u2KsQ/Ln8xde8ufldr3lzQTPLqXmvVI9P8tQA/GnqJwupU8HKvDGN/tGo+ycVfWf
5O+RNI8ieSbPy5aSxT38Y9fV5o2DGS7kA9VjTfitOC1H2QO+KvFf+c19M8xyx+XNRVJpfLFsZUvB
EfgjuZGXi0goQC6VVGNabjvuq8h842PkPV/OPlu0/JKy1Aai8cTyqzSl1vOSshUysxVoqEyOD6Y6
g0BOKvv23EwgjE5DTBVErL0LU+Ijp3xV49qnknzTN/zk7pHm6OwdvLtvpL202ock4LKY5wE48ufW
Rf2cVeyYq7FXYq+af+cZvJelaH+YPmC8s/NOl65LPaSI9nYNMZYgblG5P6kca0BHHY9cVfS2KuxV
2KuxV2Kvib/nIA/m5f8A5taTpGsNDJI2pS/4IgU24/cXN4I7Yycehb04wTLvtviqG/Ln/ldWofnr
rF7p7QTebrSRovMshNrwWBJ44LhU5fu6jgF+DfbFX3Fir5P/AOcpPzO8i6suv+TLjSCPNOiy2q6Z
rJjR+SN6cs8Yk2kjoJGHHdWpWvTFXjXkwQw/mR5L/wACz3j6nI1h9d5DiVvWb/S44+NOUHD7XLty
rVd8VforirH/ADnoHkbUNLlvvN2m2N7YaZHJcPPfwxyiGNF5yMGcEqKLvTrir5B1mz1TzD5V83/m
7ZWn6H0iwMWj+TbK2jWFLa0e4WKaSJY+KpRJWUlducj03XFUq0+Dy35V1P8AK3WvIetyXXmfVWT/
ABFaxzCQxzPNCvoPEgDKJDJIhRvtBQe9Sqzj/nKLzfq99+amneSdb1CfR/Iw+pyXbwgkSxzPWa5Z
QP3npbqq7gFa0rirzzz2dH/LjXr1Py082RatoXmLT5rO7hjkEs0UUq8XjmdFVK1PKNlow3BFPtKv
pL/nERrE/lOPS1Fb6/mvp7jUYeZeS3duMUcbhviHKOFWHY12xV7ZirsVdirsVYr5U/K3yD5S1K51
Py7pEen314hiuZ0eVy6M4cikjuPtKDsMVZVirsVdirsVdirHta/L7ydrfmHTvMeqaZHda1pPA6de
M0gaIxuZEoqsENHNdxirtC/L3yboOu6lr+kaZHa6xrDO+pXitIzStLIZXJDsyjk55fCBirIcVYJ+
bP5Q+XvzF0J7G7WGz1Osf1fWhbxzXMSI4dkRiUbi4FCOWKon8uvyp8oeRtKtLfTLC2OqQwLBdayI
ES5uCAAzM/xMORFSvKmKsyxVLvMXl3RvMej3Gjazb/W9MugouLYu6BwrBwCY2RqclHfFVOy8q+XL
Hy4nlq20+FNBSE2w04ryhMLV5IytXlyqeVevfFWM+WPyL/KjyxrS63onl6K21OMsYrhpbif0y1am
NJpJEQ79VAxVOfOH5d+SfOVvHB5m0iDUlhqIZJAyyxg9Qk0ZSRQe4DYqx7Q/+ce/ya0S6+tWPle2
aahWt0894oBFDRLqSZR160xVNvKn5T/l95S1KXUvLekLpl5MhjmeGWfi6E14tG0jIRXcfDt2xVlu
KuxV2KuxV2KuxV2KuxV2KuxV2KuxV2KuxV2KuxV2KuxV2KuxV2KuxV2KuxV2KuxV4F+UP/OSWt+e
vzEbyrd6NbWduI7mT6zFJIz1g6Cjbb4q99xV2KvnaT/nKDXkt/zAl/QlqT5OkjS2HqSfvw+orZfv
PD4X5bd8Vev/AJW+cbnzn5B0jzNc26Wk+pRu728RLIpSV49i2/7FcVZViryL8+fz1b8trbTRplva
6pf3k0kdzaySkNCsaKwLBCWBPMUriqRRf85KXb/mnpHk36np/wCj72G0e+1T6yeMTz2i3MoBNE+A
txFTX6cVe9AhgCDUHcEdCMVeL/m9/wA5PeWvy/1l9AtdOk1vW4AjXcKyi3gh9RQyq0pWUl+LBuIT
6cVeV/kx/wA5ReY5fOkmnebmu9XttduYbXSYYFgrayzTFFWnGIup9RVJ5V26HFX15irw382v+cid
Y8ted18jeT/L51/zAkaSXKn1Hozxev6UcMI5uRDRy3LYYqmf5Yf85F6B5t8j655k1e3/AEPL5aRZ
NWhD+ohSRWMTRMQpJlaNlVOvLbeoxVNvyP8AzJ80fmHoN35g1XSIdJ0tpjDpQjd5JJglfVdiwUcV
NFBHUhulMVQX55fn3pv5YxWdpHYnVNc1BGlgtS/pRRxKePqSvRm3bZVA3odxiry+w/5zE806Zqlt
H5z8nmx067pLHJD60Ewt2PwyxpcDjMPkVBxV9P2F7a39jb31pIJbW7iSe3lHRo5FDIwr4qcVeZ+Y
Pzh1LS/zx0T8uY9PhkstVt1nkv2dxKhZJmoFHw/7pH34q9TxV2KuxV8Qf84sf+T5f/jBf4q+38Vd
iryR/wDnGXyG0XmqI3+qcfN7q+pH1besZS7W9Hof6P8AD+8Wnxcvh998VZ/5J8oab5O8rWHlrTJZ
prHTkZIJLlkaUh5GkPMosandz0UYqnmKvhH/AJyhsvKJ/Mu5v9E1pdQ1C/nlj1u1pRbKe29O3EZN
PFGr8sVYxpfk38vrz805fLkvmUw+Ug8iQeYCq1k4xVSi9Pjl+HFX6I2sAt7aKAHkIkVAx6kKKVxV
8Z/85Lfl75o8l/mEfzKsZYpNM1DUIZbSZwkjwXyx+oI5IZAVdT6DMpoRTY+6rGPyN/Mfy35b8+TX
XnHRkvV1i6t7iLUCi+pYXHqNIlzGjDlxPrVPFgePTl0xV974q+dfzX/Jv80Y/wA3E/Mz8upbefUZ
kUSwTtGjQyLa/UyQJv3bo8I8ag9sVfPWreXtW8qTXvkbVL9Y3uJLfUPOL2pEwgitgzQwepVVkkHr
livLi0jRrXkMVe9+Qf8AnK3yJZHR/LX+G7rQfLahbLT9QeRZUREPBXkUIvf+8ZWYg+OKpb/zmrZ+
TZE0e8k1H0vN8KGOHTUXn6tkzkl5CP7rg/LgT9rcUNKqq8L1Hzhq/n3UbFPPmum3stAsTFB+5rO6
QgVhiVQqtcTUHxSso23PQFV9sfkf+YXlvzn5NVvLmn3WnaVobR6TBDd8C3G3gj4gFGcGiMoxVF6r
+UXlvU/zL038w57m8XWtLiEFvbxvELVlVZFq6GJpCf3x6SDtirN8VdirsVeBflDpX5m2/wCYjTa/
+X+h+X9J9O5A1fT7G0t7nkfsL6sUjvR/2tt8Ve+4q7FXYq7FXYq+UPzh/wCccdV1L827K78t6Nc3
GgaxOl55jv8A6xFRJ7u9ka64CQqyhIiGFAeuKoT8vf8AnF+8m/NPWE8yaNd2Xku1e6k0Sczx85PT
ulForGN3aphJY1HbFX11ir40/wCcs/JHnvTdbvvNN5qKz+UtavrZLexjlkAiuYrRo4vUt2+DkIop
KOpPU9K4qhfy/wD+cd/zO893/l/XPNsiW3lhLSy+qzyyxSyyaZFEpt4YIYS/ENHQfvOJFSSCdiq+
1cVSfzjqWuab5Y1G80HT21XWo4T+j7BSq+pO3wpyLsg4KTybfoDTfFXz35Z/5xx8zXn5SebH134P
zD81OLhjcOrFBb3K3KxO6ErW4kQs5rTdf5cVefwfk5+eHm208qeSNX8vDSNH8tPdxrqsnBQsV5OJ
Z3dldllKlaJ6Y3792xVnH/OSX5E+f9c88jzp5Vtl1WKSGAXFmGjE0UtuOIKxykLIjKqmgqa12pir
B/NX5X/n9+aHmKK/1fylbaXfpCIp78KlmkqoPgM3KRy7CnEFVrTboBRV7B/zjRYfmZ5P05/KHmfy
jJY6Y0slxbaxE8DUlfd1uVWVmYHiAjqNtgRTcKvfMVdirsVdirsVdirsVdirsVdirsVdirsVU57e
3nQJPEkqA1CuoYV6VocVXoiIioihUUAKoFAANgABireKuxV2KuxV2KuxV2KuxV2KuxV2Kv8A/9k=
									</xapGImg:image>
							</rdf:li>
						</rdf:Alt>
					</xap:Thumbnails>
				</rdf:Description>
				<rdf:Description  rdf:about="" xmlns:dc="http://purl.org/dc/elements/1.1/">
					<dc:format>image/svg+xml</dc:format>
				</rdf:Description>
			</rdf:RDF>
		</x:xmpmeta>
<?xpacket begin='﻿' id='W5M0MpCehiHzreSzNTczkc9d'?><x:xmpmeta xmlns:x='adobe:ns:meta/' x:xmptk='XMP toolkit 3.0-29, framework 1.6'>
<rdf:RDF xmlns:rdf='http://www.w3.org/1999/02/22-rdf-syntax-ns#' xmlns:iX='http://ns.adobe.com/iX/1.0/'>

 <rdf:Description rdf:about='uuid:994c815c-ae30-11de-b5f1-001124740a56'
  xmlns:pdf='http://ns.adobe.com/pdf/1.3/'>
  <pdf:Producer>Adobe PDF library 6.66</pdf:Producer>
 </rdf:Description>

 <rdf:Description rdf:about='uuid:994c815c-ae30-11de-b5f1-001124740a56'
  xmlns:tiff='http://ns.adobe.com/tiff/1.0/'>
 </rdf:Description>

 <rdf:Description rdf:about='uuid:994c815c-ae30-11de-b5f1-001124740a56'
  xmlns:xap='http://ns.adobe.com/xap/1.0/'
  xmlns:xapGImg='http://ns.adobe.com/xap/1.0/g/img/'>
  <xap:CreateDate>2008-01-04T13:45:48+09:00</xap:CreateDate>
  <xap:ModifyDate>2009-10-01T02:25:52Z</xap:ModifyDate>
  <xap:CreatorTool>Illustrator</xap:CreatorTool>
  <xap:MetadataDate>2009-10-01T11:03:44+09:00</xap:MetadataDate>
  <xap:Thumbnails>
   <rdf:Alt>
    <rdf:li rdf:parseType='Resource'>
     <xapGImg:format>JPEG</xapGImg:format>
     <xapGImg:width>256</xapGImg:width>
     <xapGImg:height>196</xapGImg:height>
     <xapGImg:image>/9j/4AAQSkZJRgABAgEASABIAAD/7QAsUGhvdG9zaG9wIDMuMAA4QklNA+0AAAAAABAASAAAAAEA&#xA;AQBIAAAAAQAB/+4ADkFkb2JlAGTAAAAAAf/bAIQABgQEBAUEBgUFBgkGBQYJCwgGBggLDAoKCwoK&#xA;DBAMDAwMDAwQDA4PEA8ODBMTFBQTExwbGxscHx8fHx8fHx8fHwEHBwcNDA0YEBAYGhURFRofHx8f&#xA;Hx8fHx8fHx8fHx8fHx8fHx8fHx8fHx8fHx8fHx8fHx8fHx8fHx8fHx8fHx8f/8AAEQgAxAEAAwER&#xA;AAIRAQMRAf/EAaIAAAAHAQEBAQEAAAAAAAAAAAQFAwIGAQAHCAkKCwEAAgIDAQEBAQEAAAAAAAAA&#xA;AQACAwQFBgcICQoLEAACAQMDAgQCBgcDBAIGAnMBAgMRBAAFIRIxQVEGE2EicYEUMpGhBxWxQiPB&#xA;UtHhMxZi8CRygvElQzRTkqKyY3PCNUQnk6OzNhdUZHTD0uIIJoMJChgZhJRFRqS0VtNVKBry4/PE&#xA;1OT0ZXWFlaW1xdXl9WZ2hpamtsbW5vY3R1dnd4eXp7fH1+f3OEhYaHiImKi4yNjo+Ck5SVlpeYmZ&#xA;qbnJ2en5KjpKWmp6ipqqusra6voRAAICAQIDBQUEBQYECAMDbQEAAhEDBCESMUEFURNhIgZxgZEy&#xA;obHwFMHR4SNCFVJicvEzJDRDghaSUyWiY7LCB3PSNeJEgxdUkwgJChgZJjZFGidkdFU38qOzwygp&#xA;0+PzhJSktMTU5PRldYWVpbXF1eX1RlZmdoaWprbG1ub2R1dnd4eXp7fH1+f3OEhYaHiImKi4yNjo&#xA;+DlJWWl5iZmpucnZ6fkqOkpaanqKmqq6ytrq+v/aAAwDAQACEQMRAD8A9O2esaXe3d5Z2l1HPc6e&#xA;6x3sUbcjE7ryVXp0NO2KozFXYq7FXYq7FXYq7FXYq7FXYq7FXYqgtXSKSzCSqrxma35KwBUj106g&#xA;4qhdJPlfV7FNQ0tLS8spGkSO5hRGjYxSNE/FgKGjoRUYqtj/AEO95btp6Q8oLuS3neFFFHWBy6cg&#xA;BXjUVp0O3UYqgNM1Lyk7WWnskL3ssaJy+rlozMI+TRGfh6Xq0Un0y/LvTFUZrVvoMNrLbNBbpd3F&#xA;vO1vF6ac2ESVdgAK0XkKnxI8RirepXGhW2qc9Va3T6wLS1tTOFJeaaWVI405blmY9BiqJvbby/Y2&#xA;sl1d29tDbxCryNGlBU0A6bkk0AHU4qgLv9F2ZkN0IYNPiveUgcKsQH1Ku4O32vxxVEaVL5Y1VJXs&#xA;raJjA/pzxS2zQSoxAYcopkjcclYMpIoRuNsVbsjpEmrK+npD+6S5t5nhUACSOSEOnIAV4tsfA7dQ&#xA;cVQGn3vleNdN0+e2WO8ukSKD1LORUlkWH1GCStGI2PBS2zdsVRerw6BFFPZ+jbrfSWs88MQjXnwi&#xA;AVnFBsFaRRXxOKoqGxsp7u+ee3jlcTKAzorGnoR7VIxVX/ROlf8ALFB/yKT+mKpfFaWpgs7cwxmA&#xA;X1zSLiOHW4P2aUxVMP0TpX/LFB/yKT+mKqKWdpb6tAYII4S0E3Ixqq1o8XWgxVT0rStLOl2ZNnAS&#xA;YI6n00/kHtird/pmmxwxvHaQo63FuVZY1BB9dNwQMVQOg6QmneYtYFvai2sHhsxb8F4xsy+s0nGm&#xA;xPJ6t7nfFWRYq7FXYq7FXYq7FXYq7FXYq7FXYq7FUv121trvTWtbqJZ7aeSGOaFwGR0aZAysDsQR&#xA;sRirFrGfVbLS/wDD+mx/V9av9Q1WWNnUBbSyfUp3+tspBG6OvorQ8mI24hiFVHyPq09xdfoiGGxT&#xA;TNEufqizWtxJNI9yIZjNzWRVf7XWR93bkdx8RVauNfhZ7NtThurPQ9DWGfmbS4c3t0Ih6QjdY2QR&#xA;o7jhQ8pJaAUUfvFUtvtX8wWOvhL2CwOseYYGZraa5ZJrLTokZjCgCtG7qa1CMTJJU7Rr8CrL9f0u&#xA;G61FblbVZr22fTvRm4BpI4jfh5uLdQOMVW+WKsc8z+ZPrN/p1+ZLOHQoNRNpp8mpTm3tri9ihmla&#xA;5LANySFoCkIOzSVf9mNiqniayU08au6C/IuPWCaXW6E3+g1UW9Kc+Xbt9GKpGdZ1D6tqBhMlt5l1&#xA;aNrq+d4ZYY9NsLdCqlWuI05sq1VGKkNKzNTgpCqo78vNWt72KzgtptLe2tLLjHBpd2bxoi5iYrO7&#xA;CvM9eRqWNScVS/Ub6HS9Q03XrcajJexxW9jcWz27NatbMteFvJJHxEk0rIqiKTlI/AMCq/Cqo6fr&#xA;V6ms67aalcaTHrc/GK9t3vK3np/U1uYoLeHjUxwidgK/abnJtyoFXodl/vTf/wDGdf8AkxFiqLxV&#xA;KYf+PP8A5jrr/sYxVNsVQkn/AB1bf/jBP/xOHFXaT/xyrL/jBF/xAYq7U/8AeZP+M9v/AMn0xVF4&#xA;q7FXYq7FXYq7FXYq7FXYq7FXYq7FXYqhNT/3mT/jPb/8n0xVCaNoslh9cup5hc6rqEhkuroqQoC1&#xA;EMKLX4YoVNFWu55MfiZjiqXRaNq48x2GratdW008SyWkC2kDwKyyRtI7y85Zi3xRjgv7Hxbty2VR&#xA;FtozX0mj3dzNzsbC3jkt7LjsborQTSGvxemn92tNiS3ULxVQ3nPRdY1XT7m3N3bR6UDFcMht3a4H&#xA;1V1m4rJ6vCrvGKNw+HwJ3xVG6xp11qUt3YwXTWaTxWyXM0dfV9D1JfUSNgRwZ1+Hn1WtRvTFUXdW&#xA;l/BYwW+hta2i24VEhmhZ4hEi8VjQRyRenTah3FNqYqlWhaZJpoS1llWec6lNPPKiekjS3Fs80nBK&#xA;txXnIeILE06knfFUdpGi3FjBdzSTpPrN+zS3N6yHhzoRFGsfIEQwrRVTl4knkzMVUFp2lavH5pGp&#xA;ardW88z2L20KWsLwIESVHLvzkmLFi+wr8PvU4qq2OitdXOlajdS+pbWFpH9QtAKBLiRCslw5r8Te&#xA;meCbfCC/XlsqhvN2jazqdrcRS3dsujxtFdiIQSfWeVoyzqnq+twPKWIEtwHw/DT9rFU9sv8Aem//&#xA;AOM6/wDJiLFUXiqUw/8AHn/zHXX/AGMYqm2KoST/AI6tv/xgn/4nDirtJ/45Vl/xgi/4gMVdqf8A&#xA;vMn/ABnt/wDk+mKovFXYq7FXYq7FXYq7FXYq7FXYq7FXYq7FUBrQnaxAgdY5jNb8HkUuoPrp1UMh&#xA;P/BDFVP6v5l/5b7P/pDl/wCyrFVMxawt9Ym8ureaL1mokNu8TV9CSh5NNKKfRiqnpsHmA6damK9t&#xA;FjMMfBWtJGYLxFAWFytT70GKrdUg8x/oy85X1mV9CSoFpKDTge/1k4qr3Eeqvq8xsriCFBbwcxNA&#xA;8xJ5zdCs0NPuxVf9X8y/8t9n/wBIcv8A2VYqgvT1T1eH1iD679f/AL70X9Kn1L/fXq8un/Fn9MVR&#xA;v1fzL/y32f8A0hy/9lWKrLeLVk1iA3lzBNH9Xn4rDA8JB5w7ktNNX7sVUNLg8xfoy0431mF9GPiD&#xA;aSkgcB1P1kYq3qcHmIabdl720ZPRk5KtpKpI4moBNyafdiqqItXe9vjZ3NvDF6y1Wa3eVuXox78l&#xA;miFPamKqn1fzL/y32f8A0hy/9lWKoOOPU/qdkizwi8+vXPKYwuYjvcdIvVDdP8vFUZ9X8y/8t9n/&#xA;ANIcv/ZViq23j1RNXh+u3EEym3m4CGB4SDzi6lpZq4qh9Kg8x/ouzpfWYHoR0Bs5T+wP+XnFV1/B&#xA;r62ryy3to8VuVuHjS1kRmELCXiGNw3HlwpXiaeGKpV5R1XzXcea/MVhr8lvwt47K5sLS1UlbeO5N&#xA;wpjaVgrSsRArMxAFSQBTFWYYq7FXYq7FXYq7FXYq7FXYq7FXYq7FUs8ySX0ejzSWEKXF8jRNawSu&#xA;Yo3lEqlEaQK/EFtieJpirGfLPnC90/yTqWsecLyO4uNLvr62uZrWH01kMF08MUUEIJYsx4pGtSzG&#xA;m5OKonynrV1qVpp8mp6haXGrXFzJdSWFpLDKLOKSGT07flGfj9JaK8h+01abUGKpZcXfmbT9a8sx&#xA;W2tNdtqkqKdAFtCsKackNbi4eUI84aI8aOZFRmITjVhiqo3ne21XXNbt4dTtbfRdLhm09YneIS3u&#xA;o9JSnM8/TtyPSHH7UhcfsCqq/wDMTVvNumXENzob29vZrJpy6nczD1JTHLfCAQQxkcQZBMxaQn4Q&#xA;tAKsCqqM86+bXs9QsfL2nXsNjqd8RNd6hOU9OysUb95K3qfAZZSPTgVurVahVGxVHTSvfq76TexI&#xA;814RbXqqLiMH6lTkFDKHp/rYqx7RvONxpFj5nvdX1SXXNF0aeO3sdSeGCOe4uyvGazhW2SGKXjOy&#xA;RIQv2yyEkqTiqceTtUur6KxbUtRtL7WWt7ia+ispI5IrczSxskCmP7SxL8Adt2py74qx5tY8w2Xn&#xA;Ty/YHUb+00C6ji9WWe2t5bOeeSEmKygkitxJEfgLNJLL4ItS1VVR1n51g1vUdddNSt4dFt4pdP02&#xA;zZ4xNeXKV9e5Xl8fpqw9KLj9oh23HHFWZ2X+9N//AMZ1/wCTEWKovFUph/48/wDmOuv+xjFU2xVC&#xA;Sf8AHVt/+ME//E4cVdpP/HKsv+MEX/EBirtW/wCOVe/8YJf+IHFVlvo9lb6tearGG+t38cENwSaq&#xA;UtjIY6Dt/fNXFUdirsVdirsVdirsVdirsVdirsVdirsVQmp/7zJ/xnt/+T6YqwHy9pWm67rVxqyA&#xA;/wCD9Gvru605ZDyS81SSRzdX2/WG3ZnjgHQtyfshxVKPIP6Ei/Mi8/RN9puuxagrXR1PToViexjQ&#xA;SJFpsvpSSRDZ2cAKjkqS4J3xVE6x5fNtfWkHlzVL2382ea44TPKJEdLaxto0Wa4IdGZY4VfjEgah&#xA;lcbbscVSn8xtL8o6LdaPaadcaVLPov1a3h8pzQq19cvKyxJcpIsizM8EbmQF0dKgu3xAMqrPvPt3&#xA;pFrpt++pxSXKEWH1OxgNJ7m8S6eS1gi8WeZFHyqTsDirGNe8o2djo2n6p5o17TdL1u51VdS1e+1K&#xA;Jbiyll+qT28dkglltwsNuk37ks32l5EFnOKo/wAocvM/kuOG6Iso7y+u7ZbnSg9islvHFLDFdWwq&#xA;zxLcxIsy0Y0DbHviqW6L5Xs9RnvFt72VPJnldJbXRWmETQHUY43inuo440iUxWYZo0HeTmf2VOKr&#xA;vyquLC38wjQ9K1DSdb02w0iIHVdIthBwlEix+hO6TXId+CBwGbmu/KtRirXmfy4NVvdD0Kw1K/8A&#xA;0jfql/PGbhmt7C0jjEU10i/aWV+fpW68uKueYX92cVSzX7fQvK/mG8g0W/0a6vLm6061h8rG0VtR&#xA;t7UW8Fm7QyiYuqW8CNc8vSoKMpPcKvYLL/em/wD+M6/8mIsVReKpTD/x5/8AMddf9jGKptiqEk/4&#xA;6tv/AMYJ/wDicOKu0n/jlWX/ABgi/wCIDFXat/xyr3/jBL/xA4qi8VdirsVdirsVdirsVdirsVdi&#xA;rsVdirsVQOtTwW9iJp5FhhSa3LySMFVR66bknYYqpf4n8tf9Xaz/AOkiL/mrFVJta0a8vrCG0v7e&#xA;4m9Zj6cUqO1BBLU0Uk4qs03zF5fi061il1O0SRIY1dGnjDKwUAggtsRiq3VPMvlxtMvFXVbMsYJA&#xA;ALiIkkof8rFVebV9Js9WmF3ewW5kt4GjEsqJyHOXcciKjFV/+J/LX/V2s/8ApIi/5qxVBDVtKMpv&#xA;ReQGzW/obn1U9IH6lSnOvHrt1xVG/wCJ/LX/AFdrP/pIi/5qxVZBrGk3msW8dne29zILeclIZUkI&#xA;HOLspOKqOl+ZfLq6ZaK2q2assMYZTcRAghBsfixV2p+ZPLr6bdomqWbO0MgVRPESSUNAByxVVGs6&#xA;RZXt9FeX1vbSmZWEc0qRsVMMYrRiDTbFVT/E/lr/AKu1n/0kRf8ANWKoOLVdMW0s7xryAWf1+5H1&#xA;kyJ6e/1inx144qjP8T+Wv+rtZ/8ASRF/zViq231bSr3V4UsryC6dLecusMqSEDnDuQpOKofSvMvl&#xA;waXZg6rZgiCMEG4i/kH+Viq7UvMXl+XTrqKLU7R5HhkVEWeMszFSAAA25OKrtH84+Wta1jVtH0q/&#xA;S71HQmiTVYYwxELzc+CmSnBm/dMGCseJFGocVTnFXYq7FXYq7FXYq7FXYq7FXYq7FXYqgtXkjish&#xA;JIwSNJoGd2ICqomQkknoBiqF8r+bfL3mnTW1PQLxb+wWaS3+sorqpkiPF+PNV5DwYbHscVUdN8x6&#xA;L5gS1vdHuPrdnFfTWxuFR1jaSCKVJPTZ1USKGBHNKqexxVJ7D80fI1vqel+WJtRMer3IS1hRoJxC&#xA;bgRhvQ+sGP0PUI6Lzr94xVkaeYtHfzDJ5dS45axFarfS2ypIQlu8hjVnkC+mpZgeKluRoSBQHFUg&#xA;1Lzt5W8o2NtfeYtQSwt57ayggLK8jySP6lFSONXdvE0XYbnbFU+8w+ZNF8vaeNQ1e4+r2zSxW8ZC&#xA;SSu807iOKOOKJXkdmY7BVJxVBapqdhpRn1G/lEFnbXhknmIJCqLHrRQSfoGKrPKn5g+UvNcd++iX&#xA;pmOlyCLUIpoZrWSFiCyl47hInAZRUGmKojTNf0nzBY6Tq+kTm5066mc29xwkjDqsUyclWRUbiSvw&#xA;tShG4qMVSSz/ADQ8l2mo6V5Zurq5h1m89O1tIHsL4RyyiNSRHP6HoMFBqWD0Hc4qnN95i0a5udY0&#xA;GC49XVdPshcXtuqORFHcK4i5ycfTDPwJCcuVN6UxVMrL/em//wCM6/8AJiLFUXiqU/8ASx/6Pv8A&#xA;sRxVNsVQkn/HVt/+ME//ABOHFXaT/wAcqy/4wRf8QGKu1b/jlXv/ABgl/wCIHFWLeVPKY0Pz15hm&#xA;stPjsNCuNO0qCwEKokZkglvnnCou4INwrMSNy3zxVmmKuxV2KuxV2KuxV2KuxV2KuxV2KuxVLPMe&#xA;n2Wo6RLYX0CXNldvDDc28gDJJHJMisrA9QQcVeTyp5hjOp/lxoqnTtY8xarqN/cXkZUCw0KSbibl&#xA;eFeMk4/dQL1Bq23HFUd+WHm+e88xyeTrSHSodF8qEWSLZPKk5nSF1IS3m/eGFACGmYDk/wBnlucV&#xA;S3zh5n1e31TT9R8yeXNRi8i+Uhb6hbXlqbN1ur1Y+Ec8xkuIpUihMnwRxozu30KVUJpXmTzf5R8w&#xA;abFqS6WfNX5h3aX1/FfSSwPaw8eMVsZSAn+jxgQxRryZ35bbnFWUfmX5RfzB5Kuxp+npe68mm2EV&#xA;g9EEqxvdJLOqO5HEMsIJ37YqxTzX55udQ13SPPAW3bytaav+hfKpvS/1aS4aCdrrV3WOrOF9Aw29&#xA;K/tMNyMVehaZ5ou7zywvmGxjg8w3T3EkttDpMlIrlltGVUiecrxO1H5dCD8sVeVXGoeZ7qHWtG1L&#xA;TL3S/OvnFPr/AJouZBbJFBoVhG6vFZ/V7i4cAJ/o6PKFLtIzdjxVZ9+VHnuPzLYaNDHNpMMcFtbS&#xA;x6Pp5mE1rG9rIFjdZQAUSnDkm1RirFvPWoX+g67pvne20fWIL3Skt7W4vZZbR9NudOK0Nvbp6k0q&#xA;zXMzoiKqK3M1bYYqoeUfNmqaDrGv+Wtau9KtfMF5dQXGvTXbTia5vNTtEn+r2zLWICCNlghUnfjs&#xA;N8Ve72X+9N//AMZ1/wCTEWKovFUp/wClj/0ff9iOKptiqEk/46tv/wAYJ/8AicOKu0n/AI5Vl/xg&#xA;i/4gMVdq3/HKvf8AjBL/AMQOKovFXYq7FXYq7FXYq7FXYq7FXYq7FXYq7FUJqf8AvMn/ABnt/wDk&#xA;+mKpL5X8mJocus38t417ruu3DXF9qboFYKoKW8MaVfjFbx/Ciknue+KpTpXkXVbPzlY+Ztc11ta1&#xA;GO3k0u0ItYbRUgkDTyFxGW9R2aJN9gKGi74qj9U8oReZLXyz9duWGl6XJDf3GmhAVupoox9WErE/&#xA;YikPqcaHkwXwxVQ84eQ9X8z3P1e68wPD5cee1uJ9IW0hZybSRJQqXR+NA8kYZvhJ7AgYqu1jy7ce&#xA;Y/L76LFqEmmw3tlYx3s8C1ma1Jk9aGNiR6ZlSqc96A9MVTXUtA1FNHs9N8sahH5fSy4JCFtY7mL0&#xA;I0KCH0mKUA2oVYHbFUo8k+VIvK2nw6Qly97INTuLm5vJFVGlnuoHuJX4J8KDnIeKjoMVR2k+TTYa&#xA;z5h1x75p9Y1xlSK7aNR9UtYU429vEhLArGzM7fzsSSMVSvSPJGqWPm638ya5rja1qjwjTbcrbR2k&#xA;cduFlmaqRl+bu9KtUDwGKo278oRa9P5Wvr25J0/Qwt6mmcAUmvPSCQTSPX/dFWKLT7RqegxVAeev&#xA;I+t6+Lj655gZfLscsF9+hktIg5eyKzIn1qvPg00Su3w8uwYDFWYWX+9N/wD8Z1/5MRYqi8VSn/pY&#xA;/wDR9/2I4qm2KoST/jq2/wDxgn/4nDirtJ/45Vl/xgi/4gMVdq3/AByr3/jBL/xA4qi8VdirsVdi&#xA;rsVdirsVdirsVdirsVdirsVQOtCdrECB1jmM1vweRS6g+unVQyE/8EMVUvq/mX/lvs/+kOX/ALKs&#xA;VUmi1lb6wN3dW0sPrNVIrd4mr6EtPiaeUf8AC4qs02DzAdOtTFe2ixmGPgrWkjMF4igLC5Wp96DF&#xA;UR9X8y/8t9n/ANIcv/ZViqBsItWYwfU7mCFRYWnMTQPKSf3m44zRU/HFUd9X8y/8t9n/ANIcv/ZV&#xA;iqBWLVvWZGuYDefX/hmEDiID6kNjF6xY7f5eKo76v5l/5b7P/pDl/wCyrFVMxawt9Ym8ureaL1mo&#xA;kNu8TV9CSh5NNKKfRiqlpcHmL9GWnG+swvox8QbSUkDgOp+sjFWtUg8x/oy85X1mV9CSoFpKDTge&#xA;/wBZOKqwi1d72+Nnc28MXrLVZrd5W5ejHvyWaIU9qYqqfV/Mv/LfZ/8ASHL/ANlWKoL09V9Xh9Yg&#xA;+ufX/wC+9B/Sp9S/316vLp/l4qjfq/mX/lvs/wDpDl/7KsVWW8eqprEBvbiCZPq8/FYYHhIPOHcl&#xA;ppq/diqhpUHmP9F2dL6zA9COgNnKf2B/y84q3qUHmEaddGS9tGjEMnNVtJVJHE1AJuWofoxVhH5b&#xA;67+YVx+ZfmzR/N15byC1tLG7tNOsl/0e1Fw0w4LIyiSRuMal2b9qtABir1PFXYq7FXYq7FXYq7FX&#xA;Yq7FXYq7FXYqk/m5tXTy9dNoyQy6uPTOnx3JZYWn9VfTEhWrceVK0xV5H5I/NfXtA/LvzrrPni/G&#xA;savoPmO+0aySJEiFxPEkKQ28CKq/C0rMRsSFqe2Ksx/LTXJbzRtIg1jzLZ695puJZL7UYbSe2kFv&#xA;6sL/ALiNICaRw8lTka1PfcYqxfWtS89af588o6do3muTUJtRubea98rJZ24httECgXE80wBlUr0R&#xA;2YcmNANjVVMvIP5o2Ou+avM2rah5ksrTy4lyum+WtMmuLeJpVtqrPe0YiRhNLtH7A7YqlH57+Y/z&#xA;E8ueRTrPlO8g060sbGxk1O9ZQ9zV7hYIYYVdWQBjMzOxHRad8VTv8yvzBmHm7SvJGj61DocvOO98&#xA;za3LJBGtpZCrJbo09U+sXNPhHUL8VKdFWVXlz+mdPnm8vaxDbtcXTiz1mERXkMbLZFS4Xl6cnEqQ&#xA;RXFXkul/mp5p0Pyx571eXW5PNWkwXNvpnkjVZoIYHu9SmRkmjiESossUUpU8qUIVuOKvU/Jur2lx&#xA;pGhafJ5jtfMWt2iqdUu7aeCVmlMEvN+MOypzJC7dMVeb69rHnbRPzN8sQz67quneSr+WzWa5kgtZ&#xA;bGS5mA9LT42WISxrJxo0jueu3jiqdeRPzMt/MUfmjWtU1+1ttP1KeS18qaHNNbxSi0gQxLcBCVmL&#xA;3clTRq9Bx2OKvVbL/em//wCM6/8AJiLFUXiqU/8ASx/6Pv8AsRxVNsVQkn/HVt/+ME//ABOHFXaT&#xA;/wAcqy/4wRf8QGKu1b/jlXv/ABgl/wCIHFUPa+W9Ftdevtfgt+GrajFDb3tzzkPOO35ekvAsUXjz&#xA;O6qCe+KpnirsVdirsVdirsVdirsVdirsVdirsVQmp/7zJ/xnt/8Ak+mKvGvJ/krSPMH5g635nGly&#xA;W3k3R9QvLnTrGYTS/pHWrgAX2pmGUueAChIVUcf2lANRiqTflJa6fD+dOpXehwfXdL1OB5rm+l0m&#xA;bSX02VeQi0xFcJGVMfxtxUFioYk0xVH/AJq/lt5Yg0SHVNA0i5fz75rns7G2voLu/VUlkVQ1zNHH&#xA;MIhHDGhPxLxBpUUxVIPzK8oeWNE1vynpHl+xN/qfll7KGDy3No0zxaqXKq9xJqKKqN6cblzzZkVg&#xA;ajrir078y20L/lXOpQ61pcuuWtxp9hHDo0BmWS6uRIz20Qa3KyqPWRSxU7AHFWB+avy0s9L/AC/0&#xA;y883601h5l1DW4te8w6wumSayj3iwTKls0MYZVt4Vl4LyUpXtRsVZP8Albp0/mj8sLfS/NumJDBe&#xA;3tzbzWsMD6Ws1t6L8JfQi9FoPWX46LSta98VY1F+VPliT8xdRs9HsbrT/J/k7TWeb1JL29jm1W4h&#xA;kERt4riWXmLWB2akVDzNPDFVP8hkudO85LoWlyprHla0sI/9zraKdHnS8RXT6pIzokk1UDSEuzb9&#xA;8VRn5t/ltoF9YaJa6TY3MnmnzVcwQw3Jnu5bW0HAG71BrcyGBWjgJRTxFOVV3GKsX85+W7Hyn58m&#xA;TylKL++luNKtD5ZudBaZUsrSzit2mh1OSN1HBE5s8bLRvtVpir6asv8Aem//AOM6/wDJiLFUXiqU&#xA;/wDSx/6Pv+xHFU2xVCSf8dW3/wCME/8AxOHFXaT/AMcqy/4wRf8AEBirtW/45V7/AMYJf+IHFUXi&#xA;rsVdirsVdirsVdirsVdirsVdirsVdiqA1q4gt7ETTyLDCk1uXkkYKqj103JOwxVT/wAT+Wv+rtZ/&#xA;9JEX/NWKqT63ot3fafDa6hbXExnYiKKaN2IEEpPwqScVWab5i8vxadaxS6naJIkMaujTxhlYKAQQ&#xA;W2IxVEf4n8tf9Xaz/wCkiL/mrFUDp+saTZmAXd7b25k0+0aMSyonJf3m45EVGKo7/E/lr/q7Wf8A&#xA;0kRf81YqgV1jSWma9W9tzZpqHF7kSoYg31IChevGu4xVHf4n8tf9Xaz/AOkiL/mrFVNta0e8vrCG&#xA;0v7e4l9Zm9OKVHaggkqaKScVUdL8y+XV0y0VtVs1ZYYwym4iBBCDY/Firep+ZPLr6bdomqWbO0Mg&#xA;VRPESSUNAByxVUj1zRbW7vFudQtoGeVJEWSaNCyNBHRhyIqD44qq/wCJ/LX/AFdrP/pIi/5qxVA/&#xA;pfSfW+u/XYPqYv8Aibn1U9Kv1KlOdeNfpxVHf4n8tf8AV2s/+kiL/mrFVOHWNIvNYt0tL63uH9Cf&#xA;4YpUc/aiPRSfA4qo6V5m8uDS7MHVbMEQRgg3EX8g/wArFW9U8yeXX027RNUs2doZAqieIkkoaADl&#xA;iqXeV/zS8l+aPMmq+X9Cvfrt7owBvZY1PobtwIjl6PRtvh2xVluKuxV2KuxV2KuxV2KuxV2KuxV2&#xA;KuxVLvMF7Z2OlyXt7OltaW0kMtxcSsEjjjSZCzMzUAAHU4qlXkf8xvKvnbSLzWNAuWm02xupLOa5&#xA;lQxKXhRJGZedDw4SKanFVnljzronnGytNX0QzSaaL6a3hupYzEkxihlVpIeW7R12DU8cVSGH87fy&#xA;/wBP1jTfK13dXEeoSvDp/rNazrardui8YTOyhOR5DcVG/XFWURedtCm85zeT4Gkm1m1tFvrwJGTD&#xA;BE7cUEsn2Vd6gqvWm/TFWP8Amb8zPJ/kHTLbUPMl59XS4tLSO2gjUyTSsPU5cIxuQoNWPQfMjFU9&#xA;82effLvlXRbbVtVlkEN9NDbWNvDGZbiea4/u44ol3Zqb0xVT1rXdN0S2udZ1R2t7CzuvWuXCPKyL&#xA;9R3+CIOxO/7IOKoHyp+b/kfzPba1PYXUsH+H19XVor2GS2khi4M4lKSAHjxRj+vtiqZ6D5m03zRo&#xA;+h6/pglFhqEjS23roY5CgimUMVPQNxqPbFWMR/nT5R03XNI8pXtvqMOq30kFjZu1nKLeWVwi1jmN&#xA;FZF5jkw6YqyrRvOmh6z5h1rQdPaSa70Boo9Sl4EQLLMvNY1k6M4A+ID7PfFUR5c/3jb/AJ4/9QsO&#xA;KptiqU/9LH/o+/7EcVTbFUJe/wC9Nh/xnb/kxLirtJ/45Vl/xgi/4gMVdq3/AByr3/jBL/xA4q8/&#xA;8o+QbrQPzc17VbLS4rDyvcaTZ2mntAYljM0cjPKoiRua7tUkrue+KvS8VdirsVdirsVdirsVdirs&#xA;VdirsVdiqWeZNOsdS0ebTr+FbmyvHigubeQVR45JUV1YeBBxV85Q6P5rOp+aPye0iBdLm8y+Y9S1&#xA;rU7uF42S08uTeksIAgLCNrrhwWNqMF6qAwOKsh/Jr8wfNF756byBdx6FbaP5XR7eCLToru3nkeFH&#xA;irCl1K7PEnxB3KirEGpriqXfmXqvn+11rT/Mfmbyubn8tPJ5t77T1hv7OH17tVRIrudXdpX4M5Ec&#xA;SoNzvXuqx/TfN35n/l7ren3F82hjXfzIuYtR1SbU47xXtI5SVijmnEkUMaRJ8KRjkwNfbFXpv52e&#xA;RZfNf5aalFpunQXnmGHTNPXTppWhiaKL62k1zxmnaNIwY7erEsNhTFXmPmfzv5pvp9H/ADStrW3f&#xA;QNL1KHQPKVvqENxcQBWhl+uau8NsyysQ8AWOldv2eSiqr13yn538x6/+Xp8y6UNO8x6/JdTmzg07&#xA;1rO0lmS1ZEj/ANNKyRlaDnzI9tiMVeMazb/mIlpqflnzFok1n54/MCdbrXNVF1azh9J05Hkmigit&#xA;ml+rxxRoka8yedSN6UCr0T8ifzU1jzXeWGjajNotoNPtlaDQrC1v7W7gRIWjSpumaJ4kX4f3ZNDT&#xA;t1VYx+bkfnfRNe038xLHQ20uLy+tuJPMLaqjw3lkqKq2f1AfGrXDtx+EHrUnuqqA/Lzz75w8h+ZX&#xA;8o6tc6Rps1/e2V/rOoara6g9xd3mrxJczxrPAxgR4VcRD1AF5Cu/xYq+l/Ln+8bf88f+oWHFU2xV&#xA;Kf8ApY/9H3/YjiqbYqhL3/emw/4zt/yYlxV2k/8AHKsv+MEX/EBirtW/45V7/wAYJf8AiBxVF4q7&#xA;FXYq7FXYq7FXYq7FXYq7FXYq7FXYqhNT/wB5k/4z2/8AyfTFWPeTfy603yw2tXUd5cX2seYLhrrU&#xA;9XuSn1hmIpGicVVFSIE8F40GKpB5f/KKDQ/PNp5rv/MGqeYdTWNtPsX1OSN/Qtmikdh+7SPk5I+1&#xA;t1O1d8VTnzD5A0zzjpnluLVZ5v0dpU1vqD6cnD0bqWJB6S3HIEtGpJ+Ede+Kpd5//J238734Oq+Y&#xA;9VTQpJIZbvy9FJEtnKbenED93zUMw5MORqdxQgUVR3mDyjH5v8szeXp7+50+0vrGyS8lsyiyvCDI&#xA;Xi5Or0V+jUHTbviqO1ryS9x5esNF8vavdeVotM4CzfThCR6ccZjWKRJkkDJQ1ptuAcVS3yB5H0zy&#xA;Vpseh2E010g1OW4uLu5KtNNNPaF5JHKhV3J7DpiqM/5V1p7ec9W83SX10dW1KwXS7V1MY+o24FW+&#xA;q1VqMz/GS1fi7U2xVJfLf5UR6D5yt/NOpa9f+YtbeI6Zb3N/6Q9G0CSS8AIkTkxcbscVTbX/ACHp&#xA;vm/TvLSancTLY6RPb6ibCMqIrmWFB6Sz1UkopJPEHfviqW+b/wAoE8162LnVvMmpyaCbmC8k8uAw&#xA;/VDLbBQiq3p+osZ41deW5Nag4qy3y5/vG3/PH/qFhxVNsVSn/pY/9H3/AGI4qm2KoS9/3psP+M7f&#xA;8mJcVdpP/HKsv+MEX/EBirtW/wCOVe/8YJf+IHFUXirsVdirsVdirsVdirsVdirsVdirsVdiqA1q&#xA;N5LERpK0DNNbgSxhSy/v03HNXX7xiqn+ib//AKvV5/wFn/2T4qoz6fd28ltcvqdzc+jPHSGVbYIf&#xA;VPomvpwxtsshIo3XFVum6Xevp1q66vdxq0MZEaracVBUbDlAzUHucVRH6Jv/APq9Xn/AWf8A2T4q&#xA;gdOsbmYwenqFxbcdPsw3pLbnkf3nxN6kUm/yoMVR36Jv/wDq9Xn/AAFn/wBk+KoF7G5jvltP0hcM&#xA;8s0dx9aK2/qqzQTRlVAiEfHjCOqE7nfpRVHfom//AOr1ef8AAWf/AGT4qpNYXUF9YPLqVxdL6zD0&#xA;pVtwv9xLv+6hjb8cVUtL0q+OmWhGsXigwxkKEtKD4BsK25OKor9E3/8A1erz/gLP/snxVAaPY3U9&#xA;uXi1G4tVCwAxxLblSfq0XxfvYpGr9NMVR/6Jv/8Aq9Xn/AWf/ZPiqBFlc+sYP0hcGU6hX61xg9QD&#xA;6l0p6Xp0/wBhiqO/RN//ANXq8/4Cz/7J8VUzY3UF9YvLqNxdL6zD0pltwtfQk3/dRRtX6cVUdK0q&#xA;/Ol2ZGs3grBHsEs9vgHjb4q7VNKvhpl4TrN4wEElVKWdD8B8LcYq8l/KjWvzJP56eadC85asLxod&#xA;MjvE0+2ZvqNuZpISiwo1PsRvxLdTvueuKvd8VdirsVdirsVdirsVdirsVdirsVdiqTecTrI8t3h0&#xA;QQtrICHTlua+ibj1F9IScaHjzpXFXhfkT82Nf8oeR/PV75w1OTzBr2leYbjR9MhZifrN2qqiwwJt&#xA;xjLhn4qBRa0HbFWW/lB5s0y68t21jqfnO38x+ctSuItQv7aO6Wf0Oc8bG3gjUlVjhGx47Vr2pirE&#xA;vM2sebLP80PK2l+XvO93qGpXN1bzal5fVIY9PsNJ4KZFuWXYvSvHmOZBHRuJZVM/y+/Ojy5qfnfz&#xA;Z5i17zfb2GhmYad5a0a4uljjNvb7SXoiYjeZlBViK/aGKu/5yF1P8w9J8hLq/lbVF0nTrCxspdXn&#xA;iLJeOZLhYLeKF1+ypMzM52PwgdyMVUvzF/NWaX/DPkfT/MK6FcXVtZ3vmzzM8wiaztmjWQRJIx/3&#xA;ouOoFa09mJCr0C+1nSNc0OW68t+Z4rS0SFIovMkbxXSQGGK65SO0xKOVA+Lkfprirxzy3+aXmfy9&#xA;5U/MDXk8xXfmPQFki0/yVfakoFzc6hKGjd4Y/tekj/FQ0BC7AHkMVeq/lT5r0C80Hy7oK+a4PMvm&#xA;a2iNzqsi3S3U/NonMpJDMeEbyiNT4UxV5Z551bzP5d/NTyzJL5n1my8nahc2aXjpdwyW6zuqt9VS&#xA;1V43jiAA9Rnrs3TpVVlX5S/nBoer655j8weYvNUNpDrF+Lbyx5furlU9Kzg/dJKsBOz3DdfcHxxV&#xA;7B5c/wB42/54/wDULDiqbYqlP/Sx/wCj7/sRxVNsVQl7/vTYf8Z2/wCTEuKu0n/jlWX/ABgi/wCI&#xA;DFXat/xyr3/jBL/xA4qgrbyl5dtfM155ngslTXb+FLa7vgzlnij48UKluApwXoMVTjFXYq7FXYq7&#xA;FXYq7FXYq7FXYq7FXYqhNTNLZD/xfb/8n0xV4l5C/LyPXfzK1vz7qWhXGj6Bp19cTaBo11DNHNdX&#xA;0wBudUlgn+MNJQemKDtQAruqxn8rNL1v/ldOpazHoWpQaVfRo15da1pSafJZSm6T0rW1ZHdOPDiv&#xA;w05DcjvirIfzk/KjyxL5POr6D5TfU/PGuPa29vfW4upDDLMF5XUvpsUjSNFPxsOINMVYb+bfkS50&#xA;tvKfljyt5c1PU7vyyLZIIzpKz6RqMzgPNNc3XME8Ty5I6lRU9BXFXsf5ltbH8udSt59AuPM7XOn2&#xA;EdvottFPMZpw7yQmT6v8axpIgd2qNhTqQCq8y8yfk1B5f/KnS11n9K3fma81i21fXL/RrBdTnSeK&#xA;3nWONoy0arbwCTgDuOR+zRtlWW/lFomua55CTSPzA09jHeTNELa4t1sZprLjc+k08MPAo7EH3pTr&#xA;1KrG9X/JTy8fzVSz0Lyzc6T5U8u6bJqV9eQw3MgvtRKMLWK2aVisrwcw6hD9rkp3piqG/wCcf9J8&#xA;zaP57g021tdW/wAH29k6vca5pMemTxXzcm9CNgXdxwqW+MjxGykqp1+c/wCVmhX3l/T5/LvlUXfn&#xA;LzHNa2baxDDNIlokoHrXlwUrEnFfh5uKitR0xVh3nDyRrPlX8wfS/L+y1ubUY30mzt7abR45tJkt&#xA;rS1ijd/r0hfavxSMEX4y3s2Kvpry5/vG3/PH/qFhxVNsVSn/AKWP/R9/2I4qm2KoS9/3psP+M7f8&#xA;mJcVdpP/AByrL/jBF/xAYq7Vv+OVe/8AGCX/AIgcVReKuxV2KuxV2KuxV2KuxV2KuxV2KuxV2KoD&#xA;WpkgsRK4Yqk1uSI0aRv79OiIGY/QMVU/8Q2H++rz/pBvP+qWKqN3rVncJFCkd0Hee3oZLS5jX++Q&#xA;7vJGqj6Tiq3Tddso9OtY2iuyyQxqStldstQoGzLEVI9wcVRH+IbD/fV5/wBIN5/1SxVAabqtrb/V&#xA;/US4b1NPs2X0ra4loD6n2vTjbifZt8VR/wDiGw/31ef9IN5/1SxVAS6tatqiXIS49OMwqym2uBJU&#xA;x3X2YjGJGG/ULiqP/wAQ2H++rz/pBvP+qWKqT6vaXN9p8UcdyrmdiDLa3MK7QS/tyRov44qpaXr9&#xA;iumWimK8qIYwaWV2Rsg6ERUOKor/ABDYf76vP+kG8/6pYqgNH1a1tbcxyJcMzLAwMVtcTLQ2sXVo&#xA;o3APt1xVH/4hsP8AfV5/0g3n/VLFUCNUtjMbrhcekNQ4lfq1x6lfqP8Avrh6lPfjiqO/xDYf76vP&#xA;+kG8/wCqWKqbata3V9YRRJcK3rMay21xCu0En7UsaL+OKqOleYLAaXZgxXm0EY2sbw/sDwixV2q+&#xA;YLA6XeARXm8Eg3sbwfsHxixVIvJf5z+R/OfmjU/Lvl6eW8uNLjMs14EAtZFV1jJhk5Vccn68aHqC&#xA;RirOsVdirsVdirsVdirsVdirsVdirsVdiqWeY9QstN0eXUL+dLaytHimubiQ8UjjjlRmZj4ADFWP&#xA;/l1+bPlL8wLHUb7QWnW00yUQ3E11GIQaqWDr8TfDxFfipirvK35iaF540y7vtCjuW06z1CG1S/mj&#xA;EcNw6Tpya3PIs6Db4iB1+dFWMt/zkJ5I0fXrHyrf2mpwzGWDT21RrUCxW5dEonqs4Y/bBqEOxr0x&#xA;VmekfmBoWr+c9Y8pWCzy6hoMcUmpXARfqyNMAUi9TlUyEE7cex8MVY95v/Nnyd+XVjY3XmKeQPe2&#xA;lqlpaW6CSeTh6hdghKjilRUk9xiqceZvzT8qeW/J9h5q1J5vqWqC3/R1rFGHup3ulDxxxxA7txNS&#xA;K9sVXeYvM1notqfMWowXEVraW8N1c2yx+pcIvpXJKFELAstaGjU96YqkXlb8/vI/mCy8wXPo6hpL&#xA;+Wrc3eqWmpwLBOIApbkqq8gNaUCkgkkbb4qyjy/5msvNGiaD5gsYZ4LLUXaa2jukEcvpmKYKxVWc&#xA;AOByXfoRirCrn8/vKWg6zp/lW/0zWF1Kcw2trItn+5ndgi8oXLqZFBcVKjFWY+XfzB0LzD5m17y/&#xA;pizy3HlySOHUroqothNID+6R+RZmUqwYcdiPliqYeXP942/54/8AULDiqbYqlP8A0sf+j7/sRxVN&#xA;sVQl7/vTYf8AGdv+TEuKu0n/AI5Vl/xgi/4gMVdq3/HKvf8AjBL/AMQOKvNvJ35XXnl3859f8x2V&#xA;lbWXla90uCz0+G3KoRKhiaSsSgUqyMa9zir1TFXYq7FXYq7FXYq7FXYq7FXYq7FXYqlvmKxs9Q0m&#xA;WwvYUuLO7eKC5t5BySSKSVVdGB6hlNDir5efy95wi85eb/ym8vmCzk836xPqmp3lqwZLDQndisbq&#xA;gAjeVHUenXpRej1xVOPyk83ec9P/ADCX8r7u+sIdC8ukQxWq2b2kt00FwEZrYtz5gS1dnZgXFW33&#xA;xVd+aGn/AJnw6za+ddfsrC//AC/8pJFeaXpkl0YUMiqgSeaMAtLNzNEUmlaDoW5KsKtPM35qfltp&#xA;ema0uoWVpd/mHP8ApfU7q8s3kjg+sOTG9xcDnxHF+axqhIq2KvbPzh8kf4t/K6/igjs5NZg0mwe0&#xA;1C5ZY0hiW5S4unWVq+mrRW9SfAYq8M1bX/PF9oPlv8yYoB+i/L9xZ+XvKFnJA9zGzxW7i61Ewnjy&#xA;PO3om3Wg6pir2n8vfPXm3zd5Gu9Z0jULPXPM6SmCyL272UMc6wTlYp4yeq8+RIahqN8VeM695Z/M&#xA;XT7mbyZ5kghm8y+erldS13V4bj6xcyadYc5pIwiqiRRr6YKL3K02FAFWff8AOP35s+Z/MvmPS9A1&#xA;zULe3FtayNbaElg9sypDG0cbRz1Ksqxj7O3XvQ4qlP54+XPP9hqdp+ZMcGnadaeX0szZa1BeXIu3&#xA;t0AWO1eA/BylllYNxWlDQnjyJVYp5P8AzA89fl1qTaFe6nDo8OoPa6prGqXenvd8rvU4UuGE0qmq&#xA;8Y3VTQH4q7dcVfX/AJc/3jb/AJ4/9QsOKptiqU/9LH/o+/7EcVTbFUJe/wC9Nh/xnb/kxLirtJ/4&#xA;5Vl/xgi/4gMVdq3/AByr3/jBL/xA4qi8VdirsVdirsVdirsVdirsVdirsVdirsVQmp/7zJ/xnt/+&#xA;T6YqxzyR+WWg+UX1i5tLi7v9V12drnU9Xvnje7kYjZA8UcKqiEkqAu1flirHNC/Inyn5Y8xQ+aIb&#xA;/VdU1OD0bWxOqXf1lLaJ51BWH4FcCjEUZj1OKp/5t/L7SPPnk7TtE1i5uoNOVra5nitHSP1/RWqx&#xA;Sl0krHU1IWhqBviqU+efyH8pedNUW81bUNVitAIRJo9rd+lYSLbikYaDg3GgruhU74qjvMPkTT/O&#xA;flj/AA3e3t5YabPZ2H1j9HvHHJJHH6hELNJHL+7JoSAATTrSoKqP8xflzpWr+WtP8u2l/qHl6x0t&#xA;o2sZNEuPqcyCGNokT1OL/CFfp40OKpf5G/L3y95DEOi6GJmgkmW6ubi5k9WeaeSK5VpJGAUciqKN&#xA;lA2xVGN+WWhv521TzlJdXj6xqVh+i0rJH6dpb0AP1QCMMjsw5FmZtyabGmKpH5W/JXy35U822nmR&#xA;NT1bWtXZWsoLnWLv60YLcxSN6UXwIQtf5q0+k4qnHmf8u9E88eX9BstanuVsNPmtr82lu6JHcPCn&#xA;wx3AZHLR7moUqffFUr84fkX5a83a/LqmtavrU1nPLDPcaAt5x0yRoEWNK2/A02XfiwNSd98VZj5c&#xA;/wB42/54/wDULDiqbYqlP/Sx/wCj7/sRxVNsVQl7/vTYf8Z2/wCTEuKu0n/jlWX/ABgi/wCIDFXa&#xA;t/xyr3/jBL/xA4qi8VdirsVdirsVdirsVdirsVdirsVdirsVQeq8PqZ5ep/eRcPR4c+fqrwp6nw/&#xA;apWuKoX/AHI/8v3/AE44qtk+sVi+s/XPS9WL7f1Tjy9ReHL0/ipyp0xVba/Wfq0X1b699X4L6NPq&#xA;dOFPh+18XTxxVU/3I/8AL9/044qoW/S3+p/XK/U7evH6rX0/j9Pn6n7fWvHbFVf/AHI/8v3/AE44&#xA;qoN/vT+8+ufXax+lX6rypxmpxp+7pTnXliqv/uR/5fv+nHFWl9f67Z/WPrn943pep9V4c/Sf7Xpf&#xA;H9mvTviqlZ/WvqcH1f6/6Hpp6VfqVeHEcevtiqt/uR/5fv8ApxxVQs/7sfUPrnpcYuXD6rSvopxr&#xA;6u9eHGtNsVV/9yP/AC/f9OOKqK0o1frn1r65tX6t6nqfVh0p+74+n471xVW/3I/8v3/Tjiro/W+u&#xA;Wv1n63/eN6Pq/VuHP036+l8X2eWKqNj9b+pW/ofX/Q9NPSr9Rrw4jjX6MVdffW/qVx6/1/0PTf1a&#xA;fUa8OJ5U+jFX/9k=</xapGImg:image>
    </rdf:li>
   </rdf:Alt>
  </xap:Thumbnails>
 </rdf:Description>

 <rdf:Description rdf:about='uuid:994c815c-ae30-11de-b5f1-001124740a56'
  xmlns:xapMM='http://ns.adobe.com/xap/1.0/mm/'>
  <xapMM:DocumentID>uuid:831aaf18-81ce-11da-9137-001124808cba</xapMM:DocumentID>
 </rdf:Description>

 <rdf:Description rdf:about='uuid:994c815c-ae30-11de-b5f1-001124740a56'
  xmlns:dc='http://purl.org/dc/elements/1.1/'>
  <dc:format>image/svg+xml</dc:format>
 </rdf:Description>

</rdf:RDF>
</x:xmpmeta>
                                                                                                                                                                                                                                                                                                                                                                                                                                                                                                                                                                                                                                                                                                                                                                                                                                                                                                                                                                                                                                                                                                                                                                                                                                                                                                                                                                                                                                                                                                                                                                                                                                                                                                                                                                                                                                                                                                                                                                                                                                                                                                                                <?xpacket end='w'?>
			</metadata>
		<g id="レイヤー1">
			<g>
				<g>
					<polygon points="16,37.78125 16,78.9248047 18,78.9248047 18,35.125 16,35.125 2.2001953,48.3251953 3.5830078,49.7695312 
						15.9003906,37.78125 "/>
					<polygon points="19.5458984,228.9243164 19.5458984,185.1245117 15.5678711,185.1245117 1.8574219,198.0805664 
						3.6679688,201.1992188 15.4663086,189.9404297 15.5678711,189.9404297 15.5678711,228.9243164 "/>
					<polygon points="21.0927734,378.9248047 21.0927734,335.125 15.1367188,335.125 1.5146484,347.8364258 3.7529297,352.6289062 
						15.0327148,342.0996094 15.1367188,342.0996094 15.1367188,378.9248047 "/>
					<polygon points="14.7050781,528.9248047 22.6386719,528.9248047 22.6386719,485.125 14.7050781,485.125 1.171875,497.5917969 
						3.8378906,504.0585938 14.5986328,494.2587891 14.7050781,494.2587891 "/>
					<polygon points="23.4916992,678.9248047 23.4916992,635.125 14.0029297,635.125 0.78125,647.4355469 3.7583008,655.1474609 
						13.9121094,645.8144531 14.0029297,645.8144531 14.0029297,678.9248047 "/>
					<polygon points="24.3457031,828.9248047 24.3457031,785.125 13.3012695,785.125 0.390625,797.2802734 3.6791992,806.2363281 
						13.2265625,797.3701172 13.3012695,797.3701172 13.3012695,828.9248047 "/>
					<polygon points="12.5996094,948.9257812 12.5996094,978.9248047 25.1992188,978.9248047 25.1992188,935.125 
						12.5996094,935.125 0,947.125 3.5996094,957.3251953 12.5400391,948.9257812 "/>
				</g>
				<rect x="595.5996094" y="900.125" fill="none" stroke="#000000" stroke-width="0.25" width="86" height="150"/> 
				<rect x="595.5996094" y="0.125" fill="none" stroke="#000000" stroke-width="0.25" width="80" height="150"/> 
				<rect x="595.5996094" y="450.125" fill="none" stroke="#000000" stroke-width="0.25" width="83" height="150"/> 
				<rect x="595.5996094" y="150.125" fill="none" stroke="#000000" stroke-width="0.25" width="81" height="150"/> 
				<rect x="595.5996094" y="600.125" fill="none" stroke="#000000" stroke-width="0.25" width="84" height="150"/> 
				<rect x="595.5996094" y="300.125" fill="none" stroke="#000000" stroke-width="0.25" width="82" height="150"/> 
				<rect x="595.5996094" y="750.125" fill="none" stroke="#000000" stroke-width="0.25" width="85" height="150"/> 
				<rect x="695.5996094" y="900.125" fill="none" stroke="#000000" stroke-width="0.25" width="86" height="150"/> 
				<rect x="695.5996094" y="0.125" fill="none" stroke="#000000" stroke-width="0.25" width="80" height="150"/> 
				<rect x="695.5996094" y="450.125" fill="none" stroke="#000000" stroke-width="0.25" width="83" height="150"/> 
				<rect x="695.5996094" y="150.125" fill="none" stroke="#000000" stroke-width="0.25" width="81" height="150"/> 
				<rect x="695.5996094" y="600.125" fill="none" stroke="#000000" stroke-width="0.25" width="84" height="150"/> 
				<rect x="695.5996094" y="300.125" fill="none" stroke="#000000" stroke-width="0.25" width="82" height="150"/> 
				<rect x="695.5996094" y="750.125" fill="none" stroke="#000000" stroke-width="0.25" width="85" height="150"/> 
				<rect x="795.5996094" y="900.125" fill="none" stroke="#000000" stroke-width="0.25" width="86" height="150"/> 
				<rect x="795.5996094" y="0.125" fill="none" stroke="#000000" stroke-width="0.25" width="80" height="150"/> 
				<rect x="795.5996094" y="450.125" fill="none" stroke="#000000" stroke-width="0.25" width="83" height="150"/> 
				<rect x="795.5996094" y="150.125" fill="none" stroke="#000000" stroke-width="0.25" width="81" height="150"/> 
				<rect x="795.5996094" y="600.125" fill="none" stroke="#000000" stroke-width="0.25" width="84" height="150"/> 
				<rect x="795.5996094" y="300.125" fill="none" stroke="#000000" stroke-width="0.25" width="82" height="150"/> 
				<rect x="795.5996094" y="750.125" fill="none" stroke="#000000" stroke-width="0.25" width="85" height="150"/> 
				<rect x="895.5996094" y="900.125" fill="none" stroke="#000000" stroke-width="0.25" width="86" height="150"/> 
				<rect x="895.5996094" y="0.125" fill="none" stroke="#000000" stroke-width="0.25" width="80" height="150"/> 
				<rect x="895.5996094" y="450.125" fill="none" stroke="#000000" stroke-width="0.25" width="83" height="150"/> 
				<rect x="895.5996094" y="150.125" fill="none" stroke="#000000" stroke-width="0.25" width="81" height="150"/> 
				<rect x="895.5996094" y="600.125" fill="none" stroke="#000000" stroke-width="0.25" width="84" height="150"/> 
				<rect x="895.5996094" y="300.125" fill="none" stroke="#000000" stroke-width="0.25" width="82" height="150"/> 
				<rect x="895.5996094" y="750.125" fill="none" stroke="#000000" stroke-width="0.25" width="85" height="150"/> 
				<rect x="995.5996094" y="900.125" fill="none" stroke="#000000" stroke-width="0.25" width="86" height="150"/> 
				<rect x="995.5996094" y="0.125" fill="none" stroke="#000000" stroke-width="0.25" width="80" height="150"/> 
				<rect x="995.5996094" y="450.125" fill="none" stroke="#000000" stroke-width="0.25" width="83" height="150"/> 
				<rect x="995.5996094" y="150.125" fill="none" stroke="#000000" stroke-width="0.25" width="81" height="150"/> 
				<rect x="995.5996094" y="600.125" fill="none" stroke="#000000" stroke-width="0.25" width="84" height="150"/> 
				<rect x="995.5996094" y="300.125" fill="none" stroke="#000000" stroke-width="0.25" width="82" height="150"/> 
				<rect x="995.5996094" y="750.125" fill="none" stroke="#000000" stroke-width="0.25" width="85" height="150"/> 
				<rect x="1095.5996094" y="900.125" fill="none" stroke="#000000" stroke-width="0.25" width="86" height="150"/> 
				<rect x="1095.5996094" y="0.125" fill="none" stroke="#000000" stroke-width="0.25" width="80" height="150"/> 
				<rect x="1095.5996094" y="450.125" fill="none" stroke="#000000" stroke-width="0.25" width="83" height="150"/> 
				<rect x="1095.5996094" y="150.125" fill="none" stroke="#000000" stroke-width="0.25" width="81" height="150"/> 
				<rect x="1095.5996094" y="600.125" fill="none" stroke="#000000" stroke-width="0.25" width="84" height="150"/> 
				<rect x="1095.5996094" y="300.125" fill="none" stroke="#000000" stroke-width="0.25" width="82" height="150"/> 
				<rect x="1095.5996094" y="750.125" fill="none" stroke="#000000" stroke-width="0.25" width="85" height="150"/> 
				<rect x="1195.5996094" y="900.125" fill="none" stroke="#000000" stroke-width="0.25" width="86" height="150"/> 
				<rect x="1195.5996094" y="0.125" fill="none" stroke="#000000" stroke-width="0.25" width="80" height="150"/> 
				<rect x="1195.5996094" y="450.125" fill="none" stroke="#000000" stroke-width="0.25" width="83" height="150"/> 
				<rect x="1195.5996094" y="150.125" fill="none" stroke="#000000" stroke-width="0.25" width="81" height="150"/> 
				<rect x="1195.5996094" y="600.125" fill="none" stroke="#000000" stroke-width="0.25" width="84" height="150"/> 
				<rect x="1195.5996094" y="300.125" fill="none" stroke="#000000" stroke-width="0.25" width="82" height="150"/> 
				<rect x="1195.5996094" y="750.125" fill="none" stroke="#000000" stroke-width="0.25" width="85" height="150"/> 
				<rect x="1295.5996094" y="900.125" fill="none" stroke="#000000" stroke-width="0.25" width="86" height="150"/> 
				<rect x="1295.5996094" y="0.125" fill="none" stroke="#000000" stroke-width="0.25" width="80" height="150"/> 
				<rect x="1295.5996094" y="450.125" fill="none" stroke="#000000" stroke-width="0.25" width="83" height="150"/> 
				<rect x="1295.5996094" y="150.125" fill="none" stroke="#000000" stroke-width="0.25" width="81" height="150"/> 
				<rect x="1295.5996094" y="600.125" fill="none" stroke="#000000" stroke-width="0.25" width="84" height="150"/> 
				<rect x="1295.5996094" y="300.125" fill="none" stroke="#000000" stroke-width="0.25" width="82" height="150"/> 
				<rect x="1295.5996094" y="750.125" fill="none" stroke="#000000" stroke-width="0.25" width="85" height="150"/> 
			</g>
			<g>
				<path d="M718.1992188,948.9238281c0-2.9238281-1.6552734-4.5-5.0996094-4.5c-2.6230469,0-6.8955078,1.5097656-11.7001953,4.5
					l-3-9.5996094c4.0048828-2.7011719,11.0117188-4.8007812,16.5-4.8007812
					c10.1513672,0,15.6005859,5.0800781,15.6005859,13.1992188c0,6.5058594-2.9746094,11.1152344-15.3007812,21.4804688v0.1210938
					h15.5996094v9.5996094h-31.1992188v-9.5996094C715.8291016,957.1210938,718.1992188,953.625,718.1992188,948.9238281z"/>
				<polygon points="760.5996094,935.125 729.5996094,1008.1240234 717.5996094,1008.1240234 748.5996094,935.125 "/>
				<path d="M767.0996094,982.3242188c6.5048828,0,11.0996094,4.6992188,11.0996094,12
					c0,9.3359375-5.9140625,14.4003906-16.7998047,14.4003906c-5.3876953,0-10.1689453-1.0996094-15-3.5996094l2.9238281-9
					c4.5908203,2.3066406,7.7578125,3.1191406,10.8759766,3.1191406c4.1074219,0,6.3007812-1.7539062,6.3007812-4.6191406
					c0-3.3808594-1.7978516-4.5-10.8007812-4.5h-2.4003906v-7.8007812L763.5,974.0439453v-0.1201172h-16.2011719v-9.5996094
					h30.3007812v9.5996094L766.5,982.2050781v0.1191406H767.0996094z"/>
			</g>
			<g>
				<path d="M718.7836914,798.6240234c0-3.3652344-1.9091797-5.1875-5.7592773-5.1875
					c-2.7885742,0-7.1572266,1.5449219-11.7705078,4.4833984l-2.7792969-8.5966797
					c3.9580078-2.7197266,10.7753906-4.7998047,16.125-4.7998047c9.8505859,0,15.1972656,5.0058594,15.1972656,13.0498047
					c0,6.6337891-3.2348633,11.5244141-16.1782227,22.5820312v0.1181641h16.5053711v8.6503906h-30.5249023v-8.6503906
					C716.2158203,807.3886719,718.7836914,803.5546875,718.7836914,798.6240234z"/>
				<polygon points="760.0996094,785.125 727.9326172,858.1240234 716.9326172,858.1240234 749.0996094,785.125 "/>
				<path d="M765.6328125,832.3994141c6.9223633,0,11.565918,4.6162109,11.565918,12
					c0,9.3095703-5.8125,14.3251953-16.574707,14.3251953c-5.2119141,0-9.855957-1.1005859-14.4746094-3.5625l2.7011719-8.0800781
					c4.3662109,2.2626953,7.5439453,3.0976562,10.7231445,3.0976562c4.703125,0,7.1381836-2.0039062,7.1381836-5.5175781
					c0-3.4941406-1.7387695-5.1875-11.0541992-5.1875h-2.7001953v-7.1318359l10.9506836-9.2509766v-0.1181641h-16.9345703
					v-8.6494141h29.6254883v8.6494141l-11.793457,9.3085938v0.1171875H765.6328125z"/>
			</g>
			<g>
				<path d="M719.3686523,648.3242188c0-3.8056641-2.1625977-5.875-6.4189453-5.875
					c-2.9536133,0-7.418457,1.5820312-11.8413086,4.4677734l-2.5585938-7.59375
					c3.9111328-2.7392578,10.5405273-4.7998047,15.75-4.7998047c9.5507812,0,14.7939453,4.9316406,14.7939453,12.9003906
					c0,6.7617188-3.4941406,11.9335938-17.0546875,23.6845703v0.1152344h17.4111328v7.7001953h-29.8505859v-7.7001953
					C716.6030273,657.65625,719.3686523,653.4853516,719.3686523,648.3242188z"/>
				<polygon points="762.8496094,635.125 723.5161133,708.125 713.2661133,708.125 752.5996094,635.125 "/>
				<path d="M764.1665039,682.4736328c7.3398438,0,12.0327148,4.5341797,12.0327148,12
					c0,9.2841797-5.7109375,14.2509766-16.3496094,14.2509766c-5.0371094,0-9.543457-1.1025391-13.9501953-3.5244141
					l2.4794922-7.1601562c4.1416016,2.21875,7.3291016,3.0751953,10.5703125,3.0751953
					c5.2983398,0,7.9755859-2.2539062,7.9755859-6.4150391c0-3.6083984-1.6801758-5.875-11.3081055-5.875h-3v-6.4648438
					l11.699707-10.2207031v-0.1152344h-17.6669922v-7.7001953h28.9501953v7.7001953l-12.4882812,10.3359375v0.1132812H764.1665039z"
					/>
			</g>
			<g>
				<g>
					<path d="M719.953125,498.0239258c0-4.2460938-2.4160156-6.5625-7.078125-6.5625
						c-3.1191406,0-7.6806641,1.6181641-11.9121094,4.4521484L698.625,489.3227539
						c3.8642578-2.7578125,10.3046875-4.7988281,15.375-4.7988281c9.25,0,14.390625,4.8574219,14.390625,12.75
						c0,6.890625-3.7539062,12.3432617-17.9316406,24.7866211v0.1132812h18.3164062v6.75h-29.1757812v-6.75
						C716.9902344,507.9238281,719.953125,503.4155273,719.953125,498.0239258z"/>
					<polygon points="759.0996094,485.1245117 724.5996094,558.125 715.5996094,558.125 750.0996094,485.1245117 "/>
					<path d="M762.7001953,532.5488281c7.7568359,0,12.4990234,4.4511719,12.4990234,12
						c0,9.2578125-5.609375,14.1757812-16.125,14.1757812c-4.8613281,0-9.2304688-1.1035156-13.4248047-3.4863281
						l2.2568359-6.2402344c3.9169922,2.1738281,7.1152344,3.0527344,10.4179688,3.0527344
						c5.8935547,0,8.8125-2.5039062,8.8125-7.3125c0-3.7226562-1.6210938-6.5625-11.5615234-6.5625h-3.2998047v-5.796875
						L764.7246094,521.1875v-0.1132812h-18.4003906v-6.75h28.2753906v6.75L761.4169922,532.4375v0.1113281H762.7001953z"/>
				</g>
				<g>
					<path d="M720.9277344,347.5239258c0-4.9804688-2.8393555-7.7084961-8.1782227-7.7084961
						c-3.3945312,0-8.1166992,1.6782227-12.0297852,4.425293l-1.9702148-4.918457
						c3.7866211-2.7890625,9.9121094-4.7983398,14.75-4.7983398c8.75,0,13.7197266,4.7333984,13.7197266,12.5
						c0,7.1049805-4.1884766,13.0258789-19.3945312,26.6240234v0.109375h19.8251953v5.1665039h-28.0507812v-5.1665039
						C717.6347656,358.3696289,720.9277344,353.2993164,720.9277344,347.5239258z"/>
					<polygon points="760.9326172,335.1240234 719.9960938,408.1245117 713.1660156,408.1245117 754.1030273,335.1240234 "/>
					<path d="M760.9223633,382.6733398c8.4516602,0,13.2768555,4.3134766,13.2768555,12
						c0,9.2143555-5.4404297,14.0512695-15.75,14.0512695c-4.5683594,0-8.7099609-1.1069336-12.5498047-3.4248047
						l1.8862305-4.7060547c3.5424805,2.0986328,6.7573242,3.0146484,10.1635742,3.0146484
						c6.8857422,0,10.2084961-2.9194336,10.2084961-8.8085938c0-3.9125977-1.5239258-7.7080078-11.9853516-7.7080078h-3.800293
						v-4.6826172l13.699707-12.8100586v-0.1079102h-19.6225586v-5.1669922h27.1499023v5.1669922l-14.3393555,13.0751953v0.1069336
						H760.9223633z"/>
				</g>
				<g>
					<path d="M721.9023438,197.0244141c0-5.7148438-3.262207-8.8540039-9.277832-8.8540039
						c-3.6699219,0-8.5527344,1.7373047-12.1469727,4.3979492l-1.6030273-3.2451172
						c3.7084961-2.8212891,9.5200195-4.7988281,14.125-4.7988281c8.2504883,0,13.0488281,4.6103516,13.0488281,12.25
						c0,7.3193359-4.6225586,13.7084961-20.8574219,28.4624023v0.1044922h21.3339844v3.5830078h-26.925293v-3.5830078
						C718.2797852,208.815918,721.9023438,203.184082,721.9023438,197.0244141z"/>
					<polygon points="762.7666016,185.125 715.3925781,258.125 710.7333984,258.125 758.1069336,185.125 "/>
					<path d="M759.1450195,232.7993164c9.1474609,0,14.0546875,4.175293,14.0546875,12
						c0,9.1699219-5.2705078,13.9257812-15.375,13.9257812c-4.2758789,0-8.1894531-1.1103516-11.675293-3.362793
						l1.5161133-3.1723633c3.1679688,2.0239258,6.3999023,2.9770508,9.9091797,2.9770508
						c7.8774414,0,11.6044922-3.3344727,11.6044922-10.3046875c0-4.1030273-1.4272461-8.8540039-12.4091797-8.8540039h-4.2998047
						v-3.5678711l14.9492188-14.4282227v-0.1040039H746.574707v-3.5830078h26.0249023v3.5830078l-15.4960938,14.7875977v0.1035156
						H759.1450195z"/>
				</g>
				<g>
					<path d="M702.5566406,76.9248047h22.8427734v2h-25.7998047v-2
						c19.3251953-17.6625977,23.2773438-23.8569336,23.2773438-30.3999023c0-6.4492188-3.6855469-10-10.3779297-10
						c-3.9453125,0-8.9882812,1.796875-12.2646484,4.3710938l-1.2353516-1.5727539
						c3.6308594-2.8530273,9.1279297-4.7983398,13.5-4.7983398c7.7509766,0,12.3779297,4.4863281,12.3779297,12
						c0,7.5336914-5.0566406,14.3911133-22.3203125,30.2998047V76.9248047z"/>
					<polygon points="764.5996094,35.125 710.7890625,108.125 708.2998047,108.125 762.1103516,35.125 "/>
					<path d="M768.7666016,66.3251953h-22.0664062v-2h24.8994141v2l-16.6533203,16.5v0.0991211h2.4208984
						c9.8427734,0,14.8330078,4.0371094,14.8330078,12c0,9.1264648-5.1015625,13.8007812-15,13.8007812
						c-3.9833984,0-7.6689453-1.1132812-10.8007812-3.3007812l1.1455078-1.6386719
						c2.7939453,1.9492188,6.0419922,2.9394531,9.6552734,2.9394531c8.8691406,0,13-3.75,13-11.8007812
						c0-4.2929688-1.3300781-10-12.8330078-10h-4.7998047v-2.453125l16.1992188-16.046875V66.3251953z"/>
				</g>
			</g>
			<g>
				<path d="M918.1992188,948.9238281c0-2.9238281-1.6552734-4.5-5.0996094-4.5c-2.6230469,0-6.8955078,1.5097656-11.7001953,4.5
					l-3-9.5996094c4.0048828-2.7011719,11.0117188-4.8007812,16.5-4.8007812
					c10.1513672,0,15.6005859,5.0800781,15.6005859,13.1992188c0,6.5058594-2.9746094,11.1152344-15.3007812,21.4804688v0.1210938
					h15.5996094v9.5996094h-31.1992188v-9.5996094C915.8291016,957.1210938,918.1992188,953.625,918.1992188,948.9238281z"/>
				<polygon points="960.5996094,935.125 929.5996094,1008.1240234 917.5996094,1008.1240234 948.5996094,935.125 "/>
				<path d="M959.8203125,980.2246094c1.7597656-0.6259766,3.3339844-0.9003906,4.9785156-0.9003906
					c9.2167969,0,14.4003906,4.9501953,14.4003906,13.8007812c0,10.3574219-6.1855469,15.5996094-19.1992188,15.5996094
					c-4.6582031,0-8.9316406-0.7841797-13.2011719-2.4003906l2.4003906-9.4804688
					c4.1445312,1.5986328,7.7587891,2.4003906,10.2001953,2.4003906c5.6982422,0,8.1005859-2.2480469,8.1005859-6.1191406
					c0-2.9765625-1.4833984-4.8007812-5.1005859-4.8007812c-1.6835938,0-2.6738281,0.7402344-4.2001953,2.0996094H948
					l1.1992188-26.0996094h27.9003906v9.5996094H960l-0.3007812,6.3007812H959.8203125z"/>
			</g>
			<g>
				<path d="M918.7836914,798.6240234c0-3.3652344-1.9086914-5.1875-5.7592773-5.1875
					c-2.7880859,0-7.1572266,1.5449219-11.7709961,4.4833984l-2.7792969-8.5966797
					c3.9580078-2.7197266,10.7763672-4.7998047,16.125-4.7998047c9.8510742,0,15.1972656,5.0058594,15.1972656,13.0498047
					c0,6.6337891-3.234375,11.5244141-16.1772461,22.5820312v0.1181641h16.5048828v8.6503906h-30.5249023v-8.6503906
					C916.2158203,807.3886719,918.7836914,803.5546875,918.7836914,798.6240234z"/>
				<polygon points="961.0996094,785.125 928.9326172,858.1240234 917.9326172,858.1240234 950.0996094,785.125 "/>
				<path d="M958.4091797,830.6708984c1.8603516-0.7412109,3.5810547-1.0839844,5.3896484-1.0839844
					c9.1845703,0,14.3623047,4.9189453,14.3623047,13.6875c0,10.2246094-6.0664062,15.4501953-18.6367188,15.4501953
					c-4.5615234,0-8.8095703-0.8369141-12.9375-2.5126953l2.2382812-8.5039062
					c3.9804688,1.6337891,7.5976562,2.4707031,10.1738281,2.4707031c6.0390625,0,8.6757812-2.4882812,8.6757812-6.9042969
					c0-3.7304688-2.1201172-5.5625-5.9755859-5.5625c-1.8564453,0-3.09375,0.7724609-4.7460938,2.1992188h-9.1757812
					l1.2519531-25.5869141h27.0703125v8.6494141h-17.3867188l-0.4248047,7.6972656H958.4091797z"/>
			</g>
			<g>
				<path d="M919.3686523,648.3242188c0-3.8056641-2.1625977-5.875-6.4189453-5.875
					c-2.9536133,0-7.4189453,1.5820312-11.8413086,4.4677734l-2.5585938-7.59375
					c3.9111328-2.7392578,10.5405273-4.7998047,15.75-4.7998047c9.550293,0,14.7939453,4.9316406,14.7939453,12.9003906
					c0,6.7617188-3.4941406,11.9335938-17.0546875,23.6845703v0.1152344h17.4106445v7.7001953h-29.8500977v-7.7001953
					C916.6035156,657.65625,919.3686523,653.4853516,919.3686523,648.3242188z"/>
				<polygon points="960.5996094,635.125 927.2661133,708.125 917.2661133,708.125 950.5996094,635.125 "/>
				<path d="M956.9990234,681.1181641c1.9599609-0.8574219,3.8271484-1.2685547,5.7998047-1.2685547
					c9.1533203,0,14.3251953,4.8876953,14.3251953,13.5751953c0,10.0917969-5.9472656,15.2998047-18.0742188,15.2998047
					c-4.4648438,0-8.6875-0.8886719-12.6757812-2.625l2.078125-7.5263672
					c3.8144531,1.6689453,7.4365234,2.5410156,10.1474609,2.5410156c6.3798828,0,9.25-2.7285156,9.25-7.6894531
					c0-4.484375-2.7568359-6.3251953-6.8505859-6.3251953c-2.0292969,0-3.5126953,0.8056641-5.2919922,2.2998047h-8.1513672
					l1.3046875-25.0751953h26.2392578v7.7001953h-17.6738281l-0.5478516,9.09375H956.9990234z"/>
			</g>
			<g>
				<g>
					<path d="M919.953125,498.0239258c0-4.2460938-2.4160156-6.5625-7.078125-6.5625
						c-3.1191406,0-7.6806641,1.6181641-11.9121094,4.4521484L898.625,489.3227539
						c3.8642578-2.7578125,10.3046875-4.7988281,15.375-4.7988281c9.25,0,14.390625,4.8574219,14.390625,12.75
						c0,6.890625-3.7539062,12.3432617-17.9316406,24.7866211v0.1132812h18.3164062v6.75h-29.1757812v-6.75
						C916.9902344,507.9238281,919.953125,503.4155273,919.953125,498.0239258z"/>
					<polygon points="959.0996094,485.1245117 924.5996094,558.125 915.5996094,558.125 950.0996094,485.1245117 "/>
					<path d="M955.5878906,531.5654297c2.0605469-0.9736328,4.0742188-1.453125,6.2109375-1.453125
						c9.1210938,0,14.2880859,4.8564453,14.2880859,13.4628906c0,9.9580078-5.8291016,15.1494141-17.5126953,15.1494141
						c-4.3681641,0-8.5644531-0.9414062-12.4121094-2.7373047l1.9160156-6.5498047
						c3.6503906,1.7050781,7.2753906,2.6123047,10.1210938,2.6123047c6.7207031,0,9.8251953-2.9697266,9.8251953-8.4746094
						c0-5.2392578-3.3935547-7.0878906-7.7255859-7.0878906c-2.2021484,0-3.9316406,0.8388672-5.8378906,2.3994141h-7.1279297
						l1.3583984-24.5625h25.4082031v6.75h-17.9609375l-0.6708984,10.4912109H955.5878906z"/>
				</g>
				<g>
					<path d="M920.9272461,347.5239258c0-4.9804688-2.8388672-7.7084961-8.1782227-7.7084961
						c-3.394043,0-8.1162109,1.6782227-12.0292969,4.425293l-1.9707031-4.918457
						c3.7866211-2.7890625,9.9130859-4.7983398,14.75-4.7983398c8.7509766,0,13.7197266,4.7333984,13.7197266,12.5
						c0,7.1049805-4.1879883,13.0258789-19.394043,26.6240234v0.109375h19.8251953v5.1665039h-28.0507812v-5.1665039
						C917.6347656,358.3696289,920.9272461,353.2993164,920.9272461,347.5239258z"/>
					<polygon points="960.9326172,335.1240234 919.9956055,408.1245117 913.1660156,408.1245117 954.1025391,335.1240234 "/>
					<path d="M953.9033203,382.3105469c2.2275391-1.1674805,4.484375-1.7607422,6.8955078-1.7607422
						c9.0673828,0,14.2255859,4.8041992,14.2255859,13.2749023c0,9.7363281-5.6318359,14.8999023-16.5751953,14.8999023
						c-4.2070312,0-8.3603516-1.0292969-11.9746094-2.9248047l1.6464844-4.921875
						c3.3769531,1.7651367,7.0078125,2.7299805,10.078125,2.7299805c7.2890625,0,10.7832031-3.3706055,10.7832031-9.7832031
						c0-6.4956055-4.4560547-8.3583984-9.1835938-8.3583984c-2.4912109,0-4.6318359,0.8935547-6.7490234,2.5664062h-5.4208984
						l1.4462891-23.7084961h24.0244141v5.1669922h-18.4394531l-0.8769531,12.8193359H953.9033203z"/>
				</g>
				<g>
					<path d="M921.9023438,197.0244141c0-5.7148438-3.262207-8.8540039-9.277832-8.8540039
						c-3.6699219,0-8.5522461,1.7373047-12.1474609,4.3979492l-1.6025391-3.2451172
						c3.7084961-2.8212891,9.5200195-4.7988281,14.125-4.7988281c8.2504883,0,13.0488281,4.6103516,13.0488281,12.25
						c0,7.3193359-4.6225586,13.7084961-20.8574219,28.4624023v0.1044922h21.3339844v3.5830078h-26.925293v-3.5830078
						C918.2797852,208.815918,921.9023438,203.184082,921.9023438,197.0244141z"/>
					<polygon points="962.7666016,185.125 915.3925781,258.125 910.7329102,258.125 958.1064453,185.125 "/>
					<path d="M952.2197266,233.0556641c2.3935547-1.3598633,4.8945312-2.0683594,7.5791016-2.0683594
						c9.0146484,0,14.1630859,4.753418,14.1630859,13.0878906c0,9.5141602-5.4345703,14.6499023-15.6376953,14.6499023
						c-4.0458984,0-8.1572266-1.1166992-11.5371094-3.112793l1.3779297-3.2929688
						c3.1025391,1.824707,6.7392578,2.8476562,10.0341797,2.8476562c7.8583984,0,11.7421875-3.7714844,11.7421875-11.0917969
						c0-7.7524414-5.5185547-9.6293945-10.6425781-9.6293945c-2.7792969,0-5.3310547,0.9482422-7.6591797,2.7333984h-3.7138672
						l1.5341797-22.8540039h22.6396484v3.5830078h-18.9179688l-1.0830078,15.1474609H952.2197266z"/>
				</g>
				<g>
					<path d="M902.5566406,76.9248047h22.8427734v2h-25.7998047v-2
						c19.3251953-17.6625977,23.2773438-23.8569336,23.2773438-30.3999023c0-6.4492188-3.6855469-10-10.3779297-10
						c-3.9453125,0-8.9882812,1.796875-12.2646484,4.3710938l-1.2353516-1.5727539
						c3.6308594-2.8530273,9.1279297-4.7983398,13.5-4.7983398c7.7509766,0,12.3779297,4.4863281,12.3779297,12
						c0,7.5336914-5.0566406,14.3911133-22.3203125,30.2998047V76.9248047z"/>
					<polygon points="964.5996094,35.125 910.7890625,108.125 908.2998047,108.125 962.1103516,35.125 "/>
					<path d="M950.5351562,83.8007812c2.5605469-1.5532227,5.3056641-2.3759766,8.2636719-2.3759766
						c8.9609375,0,14.1005859,4.7016602,14.1005859,12.9003906c0,9.2924805-5.2373047,14.3999023-14.7001953,14.3999023
						c-3.8847656,0-7.953125-1.2045898-11.0996094-3.300293l1.1083984-1.6645508
						c2.8291016,1.8842773,6.4716797,2.9648438,9.9912109,2.9648438c8.4267578,0,12.7001953-4.171875,12.7001953-12.3999023
						c0-9.0092773-6.5800781-10.9003906-12.1005859-10.9003906c-3.0673828,0-6.03125,1.0029297-8.5703125,2.9003906h-2.0058594
						l1.6210938-22h21.2558594v2H951.703125l-1.2890625,17.4755859H950.5351562z"/>
				</g>
			</g>
			<g>
				<g>
					<polygon points="1060.5996094,935.125 1029.5996094,1008.1240234 1017.5996094,1008.1240234 1048.5996094,935.125 "/>
					<path d="M1021.9003906,953.125c6.5039062,0,11.0996094,4.6992188,11.0996094,12
						c0,9.3359375-5.9140625,14.4003906-16.8007812,14.4003906c-5.3876953,0-10.1679688-1.0996094-15-3.5996094l2.9238281-9
						c4.5917969,2.3066406,7.7578125,3.1191406,10.8769531,3.1191406c4.1074219,0,6.2998047-1.7539062,6.2998047-4.6191406
						c0-3.3808594-1.7978516-4.5-10.7998047-4.5h-2.4003906V953.125l10.2001953-8.28125v-0.1191406h-16.2001953V935.125h30.3007812
						v9.5996094l-11.1005859,8.28125V953.125H1021.9003906z"/>
					<path d="M1059.8203125,980.2246094c1.7597656-0.6259766,3.3339844-0.9003906,4.9785156-0.9003906
						c9.2167969,0,14.4003906,4.9501953,14.4003906,13.8007812c0,10.3574219-6.1855469,15.5996094-19.1992188,15.5996094
						c-4.6582031,0-8.9316406-0.7841797-13.2011719-2.4003906l2.4003906-9.4804688
						c4.1445312,1.5986328,7.7587891,2.4003906,10.2001953,2.4003906c5.6982422,0,8.1005859-2.2480469,8.1005859-6.1191406
						c0-2.9765625-1.4833984-4.8007812-5.1005859-4.8007812c-1.6835938,0-2.6738281,0.7402344-4.2001953,2.0996094H1048
						l1.1992188-26.0996094h27.9003906v9.5996094H1060l-0.3007812,6.3007812H1059.8203125z"/>
				</g>
				<g>
					<polygon points="1060.0996094,785.125 1027.9326172,858.1240234 1016.9326172,858.1240234 1049.0996094,785.125 "/>
					<path d="M1020.5087891,803.1992188c6.9208984,0,11.5654297,4.6171875,11.5654297,12
						c0,9.3105469-5.8125,14.3261719-16.5751953,14.3261719c-5.2119141,0-9.8554688-1.1015625-14.4746094-3.5625
						l2.7011719-8.0791016c4.3671875,2.2607422,7.5439453,3.0957031,10.7236328,3.0957031
						c4.703125,0,7.1376953-2.0029297,7.1376953-5.5166016c0-3.4951172-1.7382812-5.1875-11.0537109-5.1875h-2.7001953v-7.1328125
						l10.9501953-9.2519531v-0.1162109h-16.9335938V785.125h29.625v8.6494141l-11.7939453,9.3085938v0.1162109H1020.5087891z"/>
					<path d="M1058.4091797,830.6708984c1.8603516-0.7412109,3.5810547-1.0839844,5.3896484-1.0839844
						c9.1845703,0,14.3623047,4.9189453,14.3623047,13.6875c0,10.2246094-6.0664062,15.4501953-18.6367188,15.4501953
						c-4.5615234,0-8.8095703-0.8369141-12.9384766-2.5126953l2.2392578-8.5039062
						c3.9794922,1.6337891,7.5976562,2.4707031,10.1738281,2.4707031c6.0390625,0,8.6757812-2.4882812,8.6757812-6.9042969
						c0-3.7304688-2.1201172-5.5625-5.9755859-5.5625c-1.8564453,0-3.09375,0.7724609-4.7460938,2.1992188h-9.1757812
						l1.2519531-25.5869141h27.0703125v8.6494141h-17.3867188l-0.4248047,7.6972656H1058.4091797z"/>
				</g>
				<g>
					<polygon points="1059.5996094,635.125 1026.2666016,708.125 1016.2666016,708.125 1049.5996094,635.125 "/>
					<path d="M1019.1171875,653.2744141c7.3388672,0,12.0322266,4.5341797,12.0322266,12
						c0,9.2841797-5.7109375,14.2509766-16.3496094,14.2509766c-5.0371094,0-9.5429688-1.1035156-13.9501953-3.5253906
						l2.4794922-7.1591797c4.1416016,2.2167969,7.3291016,3.0742188,10.5703125,3.0742188
						c5.2988281,0,7.9755859-2.2529297,7.9755859-6.4150391c0-3.6083984-1.6806641-5.875-11.3076172-5.875h-3v-6.4638672
						l11.6992188-10.2216797v-0.1152344h-17.6669922V635.125h28.9501953v7.6992188l-12.4882812,10.3359375v0.1142578H1019.1171875z"
						/>
					<path d="M1056.9990234,681.1181641c1.9599609-0.8574219,3.8271484-1.2685547,5.7998047-1.2685547
						c9.1533203,0,14.3251953,4.8876953,14.3251953,13.5751953c0,10.0917969-5.9472656,15.2998047-18.0742188,15.2998047
						c-4.4648438,0-8.6875-0.8886719-12.6757812-2.625l2.078125-7.5263672
						c3.8144531,1.6689453,7.4365234,2.5410156,10.1474609,2.5410156c6.3798828,0,9.25-2.7285156,9.25-7.6894531
						c0-4.484375-2.7568359-6.3251953-6.8505859-6.3251953c-2.0292969,0-3.5126953,0.8056641-5.2919922,2.2998047h-8.1513672
						l1.3046875-25.0751953h26.2392578v7.7001953h-17.6738281l-0.5478516,9.09375H1056.9990234z"/>
				</g>
				<g>
					<polygon points="1059.0996094,485.1245117 1024.5996094,558.125 1015.5996094,558.125 1050.0996094,485.1245117 "/>
					<path d="M1017.7255859,503.3491211c7.7568359,0,12.4990234,4.4516602,12.4990234,12.0004883
						c0,9.2578125-5.609375,14.1757812-16.125,14.1757812c-4.8613281,0-9.2304688-1.1054688-13.4248047-3.4882812
						l2.2568359-6.2382812c3.9169922,2.171875,7.1152344,3.0507812,10.4179688,3.0507812
						c5.8935547,0,8.8125-2.5019531,8.8125-7.3125c0-3.7226562-1.6210938-6.5625-11.5615234-6.5625h-3.2998047v-5.7954102
						L1019.75,491.9868164v-0.1123047h-18.4003906v-6.75H1029.625v6.75l-13.1826172,11.3632812v0.1113281H1017.7255859z"/>
					<path d="M1055.5878906,531.5654297c2.0605469-0.9736328,4.0742188-1.453125,6.2109375-1.453125
						c9.1210938,0,14.2880859,4.8564453,14.2880859,13.4628906c0,9.9580078-5.8291016,15.1494141-17.5126953,15.1494141
						c-4.3681641,0-8.5644531-0.9414062-12.4121094-2.7373047l1.9160156-6.5498047
						c3.6503906,1.7050781,7.2753906,2.6123047,10.1210938,2.6123047c6.7207031,0,9.8251953-2.9697266,9.8251953-8.4746094
						c0-5.2392578-3.3935547-7.0878906-7.7255859-7.0878906c-2.2021484,0-3.9316406,0.8388672-5.8378906,2.3994141h-7.1279297
						l1.3583984-24.5625h25.4082031v6.75h-17.9609375l-0.6708984,10.4912109H1055.5878906z"/>
				</g>
				<g>
					<polygon points="1060.9326172,335.1240234 1019.9960938,408.1245117 1013.1660156,408.1245117 1054.1035156,335.1240234 "/>
					<path d="M1015.90625,353.4736328c8.4511719,0,13.2763672,4.3134766,13.2763672,12.0004883
						c0,9.2143555-5.4404297,14.0507812-15.75,14.0507812c-4.5683594,0-8.7099609-1.1079102-12.5498047-3.4257812
						l1.8867188-4.7050781c3.5419922,2.0976562,6.7568359,3.0136719,10.1630859,3.0136719
						c6.8857422,0,10.2089844-2.9179688,10.2089844-8.8085938c0-3.9125977-1.5244141-7.7080078-11.9853516-7.7080078h-3.8007812
						v-4.6816406l13.6992188-12.8105469v-0.1079102h-19.6220703v-5.1669922h27.1503906v5.1669922l-14.3398438,13.0756836v0.1069336
						H1015.90625z"/>
					<path d="M1053.9033203,382.3105469c2.2275391-1.1674805,4.4853516-1.7607422,6.8955078-1.7607422
						c9.0673828,0,14.2255859,4.8041992,14.2255859,13.2749023c0,9.7363281-5.6318359,14.8999023-16.5751953,14.8999023
						c-4.2070312,0-8.3613281-1.0292969-11.9746094-2.9248047l1.6464844-4.921875
						c3.3769531,1.7651367,7.0078125,2.7299805,10.078125,2.7299805c7.2890625,0,10.7832031-3.3706055,10.7832031-9.7832031
						c0-6.4956055-4.4550781-8.3583984-9.1835938-8.3583984c-2.4912109,0-4.6318359,0.8935547-6.7490234,2.5664062h-5.4208984
						l1.4462891-23.7084961h24.0244141v5.1669922h-18.4394531l-0.8769531,12.8193359H1053.9033203z"/>
				</g>
				<g>
					<polygon points="1062.7666016,185.125 1015.3925781,258.125 1010.7333984,258.125 1058.1064453,185.125 "/>
					<path d="M1014.0869141,203.5991211c9.1464844,0,14.0546875,4.175293,14.0546875,12.0004883
						c0,9.1699219-5.2714844,13.925293-15.375,13.925293c-4.2763672,0-8.1894531-1.1103516-11.6757812-3.362793l1.515625-3.1723633
						c3.1689453,2.0239258,6.4003906,2.9770508,9.9101562,2.9770508c7.8769531,0,11.6035156-3.3339844,11.6035156-10.3046875
						c0-4.1030273-1.4267578-8.8544922-12.4082031-8.8544922h-4.3007812v-3.5673828l14.9492188-14.4282227v-0.1040039h-20.84375
						V185.125h26.0244141v3.5830078l-15.4960938,14.7880859v0.1030273H1014.0869141z"/>
					<path d="M1052.2197266,233.0556641c2.3935547-1.3598633,4.8945312-2.0683594,7.5791016-2.0683594
						c9.0146484,0,14.1630859,4.753418,14.1630859,13.0878906c0,9.5141602-5.4345703,14.6499023-15.6376953,14.6499023
						c-4.0458984,0-8.1572266-1.1166992-11.5371094-3.112793l1.3779297-3.2929688
						c3.1025391,1.824707,6.7392578,2.8476562,10.0341797,2.8476562c7.8583984,0,11.7421875-3.7714844,11.7421875-11.0917969
						c0-7.7524414-5.5185547-9.6293945-10.6425781-9.6293945c-2.7792969,0-5.3310547,0.9482422-7.6591797,2.7333984h-3.7138672
						l1.5341797-22.8540039h22.6396484v3.5830078h-18.9179688l-1.0830078,15.1474609H1052.2197266z"/>
				</g>
				<g>
					<polygon points="1064.5996094,35.125 1010.7890625,108.125 1008.2998047,108.125 1062.1103516,35.125 "/>
					<path d="M1023.6660156,37.125h-22.0664062v-2h24.8994141v2l-16.6533203,16.5v0.0991211h2.421875
						c9.8417969,0,14.8320312,4.0371094,14.8320312,12c0,9.1264648-5.1015625,13.8007812-15,13.8007812
						c-3.9833984,0-7.6679688-1.1132812-10.8007812-3.3007812l1.1455078-1.6386719
						c2.7939453,1.9492188,6.0419922,2.9394531,9.6552734,2.9394531c8.8691406,0,13-3.75,13-11.8007812
						c0-4.2929688-1.3300781-10-12.8320312-10h-4.8007812v-2.453125l16.1992188-16.046875V37.125z"/>
					<path d="M1050.5351562,83.8007812c2.5605469-1.5532227,5.3056641-2.3759766,8.2636719-2.3759766
						c8.9609375,0,14.1005859,4.7016602,14.1005859,12.9003906c0,9.2924805-5.2373047,14.3999023-14.7001953,14.3999023
						c-3.8847656,0-7.953125-1.2045898-11.0996094-3.300293l1.1083984-1.6645508
						c2.8291016,1.8842773,6.4716797,2.9648438,9.9912109,2.9648438c8.4267578,0,12.7001953-4.171875,12.7001953-12.3999023
						c0-9.0092773-6.5800781-10.9003906-12.1005859-10.9003906c-3.0673828,0-6.03125,1.0029297-8.5703125,2.9003906h-2.0058594
						l1.6210938-22h21.2558594v2h-19.3964844l-1.2890625,17.4755859H1050.5351562z"/>
				</g>
			</g>
			<g>
				<polygon points="668.5996094,935.125 617.5996094,1008.1240234 604.5996094,1008.1240234 655.5996094,935.125 "/>
				<path d="M667.0996094,982.3242188c6.5048828,0,11.0996094,4.6992188,11.0996094,12
					c0,9.3359375-5.9140625,14.4003906-16.7998047,14.4003906c-5.3876953,0-10.1689453-1.0996094-15-3.5996094l2.9238281-9
					c4.5908203,2.3066406,7.7578125,3.1191406,10.8759766,3.1191406c4.1074219,0,6.3007812-1.7539062,6.3007812-4.6191406
					c0-3.3808594-1.7978516-4.5-10.8007812-4.5h-2.4003906v-7.8007812L663.5,974.0439453v-0.1201172h-16.2011719v-9.5996094
					h30.3007812v9.5996094L666.5,982.2050781v0.1191406H667.0996094z"/>
				<polygon points="610.4394531,948.9257812 601.5,957.3242188 597.8994141,947.125 610.5,935.125 623.0996094,935.125 
					623.0996094,978.9238281 610.5,978.9238281 610.5,948.9257812 "/>
			</g>
			<g>
				<polygon points="665.7661133,785.125 615.9326172,858.1240234 604.0996094,858.1240234 653.9326172,785.125 "/>
				<path d="M665.6328125,832.3994141c6.921875,0,11.5664062,4.6162109,11.5664062,12
					c0,9.3095703-5.8129883,14.3251953-16.5751953,14.3251953c-5.2124023,0-9.8564453-1.1005859-14.4750977-3.5625
					l2.7016602-8.0800781c4.3662109,2.2626953,7.543457,3.0976562,10.7236328,3.0976562
					c4.7026367,0,7.1376953-2.0039062,7.1376953-5.5175781c0-3.4941406-1.7387695-5.1875-11.0541992-5.1875h-2.7006836v-7.1318359
					l10.9506836-9.2509766v-0.1181641h-16.934082v-8.6494141h29.6254883v8.6494141l-11.7939453,9.3085938v0.1171875H665.6328125z"/>
				<polygon points="610.5092773,797.5322266 601.1474609,806.3798828 597.8242188,797.2744141 610.574707,785.125 
					621.8491211,785.125 621.8491211,828.9238281 610.574707,828.9238281 610.574707,797.5322266 "/>
			</g>
			<g>
				<polygon points="664.4331055,635.125 615.7661133,708.125 605.0996094,708.125 653.7666016,635.125 "/>
				<path d="M664.1665039,682.4736328c7.3398438,0,12.0327148,4.5341797,12.0327148,12
					c0,9.2841797-5.7109375,14.2509766-16.3500977,14.2509766c-5.0366211,0-9.5429688-1.1025391-13.949707-3.5244141
					l2.4790039-7.1601562c4.1416016,2.21875,7.3295898,3.0751953,10.5708008,3.0751953
					c5.2983398,0,7.9750977-2.2539062,7.9750977-6.4150391c0-3.6083984-1.6796875-5.875-11.3076172-5.875h-3v-6.4648438
					l11.699707-10.2207031v-0.1152344h-17.6674805v-7.7001953h28.9506836v7.7001953l-12.4882812,10.3359375v0.1132812H664.1665039z"
					/>
				<polygon points="610.5800781,646.1396484 600.7958984,655.4355469 597.75,647.4248047 610.6499023,635.125 620.5996094,635.125 
					620.5996094,678.9238281 610.6499023,678.9238281 610.6499023,646.1396484 "/>
			</g>
			<g>
				<g>
					<polygon points="663.0996094,485.1245117 615.5996094,558.125 606.0996094,558.125 653.5996094,485.1245117 "/>
					<path d="M662.7001953,532.5488281c7.7568359,0,12.4990234,4.4511719,12.4990234,12
						c0,9.2578125-5.609375,14.1757812-16.125,14.1757812c-4.8613281,0-9.2304688-1.1035156-13.4248047-3.4863281
						l2.2568359-6.2402344c3.9169922,2.1738281,7.1152344,3.0527344,10.4179688,3.0527344
						c5.8935547,0,8.8125-2.5039062,8.8125-7.3125c0-3.7226562-1.6210938-6.5625-11.5615234-6.5625h-3.2998047v-5.796875
						L664.7246094,521.1875v-0.1132812h-18.4003906v-6.75h28.2753906v6.75L661.4169922,532.4375v0.1113281H662.7001953z"/>
					<polygon points="610.6503906,494.746582 600.4433594,504.4916992 597.6748047,497.574707 610.7246094,485.1245117 
						619.3496094,485.1245117 619.3496094,528.9238281 610.7246094,528.9238281 610.7246094,494.746582 "/>
				</g>
				<g>
					<polygon points="663.0996094,335.1240234 613.4956055,408.1245117 606.3330078,408.1245117 655.9360352,335.1240234 "/>
					<path d="M660.921875,382.6733398c8.4526367,0,13.2773438,4.3134766,13.2773438,12
						c0,9.2143555-5.4399414,14.0512695-15.75,14.0512695c-4.5688477,0-8.7099609-1.1069336-12.550293-3.4248047
						l1.8867188-4.7060547c3.5424805,2.0986328,6.7573242,3.0146484,10.1635742,3.0146484
						c6.8852539,0,10.2084961-2.9194336,10.2084961-8.8085938c0-3.9125977-1.5244141-7.7080078-11.9858398-7.7080078h-3.7993164
						v-4.6826172l13.6987305-12.8100586v-0.1079102h-19.6220703v-5.1669922h27.1499023v5.1669922l-14.3393555,13.0751953v0.1069336
						H660.921875z"/>
					<polygon points="611.2666016,342.4243164 600.355957,352.9169922 598.0493164,347.8242188 611.3491211,335.1240234 
						617.765625,335.1240234 617.765625,378.9238281 611.3491211,378.9238281 611.3491211,342.4243164 "/>
				</g>
				<g>
					<polygon points="663.0996094,185.125 611.3925781,258.125 606.5664062,258.125 658.2734375,185.125 "/>
					<path d="M659.1450195,232.7993164c9.1474609,0,14.0551758,4.175293,14.0551758,12
						c0,9.1699219-5.2709961,13.9257812-15.375,13.9257812c-4.2763672,0-8.1899414-1.1103516-11.6757812-3.362793
						l1.5161133-3.1723633c3.168457,2.0239258,6.3994141,2.9770508,9.909668,2.9770508
						c7.8769531,0,11.6040039-3.3344727,11.6040039-10.3046875c0-4.1030273-1.4272461-8.8540039-12.4091797-8.8540039h-4.2998047
						v-3.5678711l14.9492188-14.4282227v-0.1040039h-20.8442383v-3.5830078h26.0244141v3.5830078l-15.496582,14.7875977v0.1035156
						H659.1450195z"/>
					<polygon points="611.8833008,190.1030273 600.269043,201.3432617 598.4248047,198.0742188 611.9746094,185.125 
						616.1831055,185.125 616.1831055,228.9243164 611.9746094,228.9243164 611.9746094,190.1030273 "/>
				</g>
				<g>
					<polygon points="663.0996094,35.125 609.2890625,108.125 606.7998047,108.125 660.6103516,35.125 "/>
					<path d="M668.7666016,66.3251953h-22.0664062v-2h24.8994141v2l-16.6533203,16.5v0.0991211h2.4208984
						c9.8427734,0,14.8330078,4.0371094,14.8330078,12c0,9.1264648-5.1015625,13.8007812-15,13.8007812
						c-3.9833984,0-7.6689453-1.1132812-10.8007812-3.3007812l1.1455078-1.6386719
						c2.7939453,1.9492188,6.0419922,2.9394531,9.6552734,2.9394531c8.8691406,0,13-3.75,13-11.8007812
						c0-4.2929688-1.3300781-10-12.8330078-10h-4.7998047v-2.453125l16.1992188-16.046875V66.3251953z"/>
					<polygon points="612.5,37.7807617 600.1816406,49.769043 598.7998047,48.3242188 612.5996094,35.125 614.5996094,35.125 
						614.5996094,78.9248047 612.5996094,78.9248047 612.5996094,37.7807617 "/>
				</g>
			</g>
			<g>
				<g>
					<path d="M859.8203125,980.2246094c1.7597656-0.6259766,3.3339844-0.9003906,4.9785156-0.9003906
						c9.2167969,0,14.4003906,4.9501953,14.4003906,13.8007812c0,10.3574219-6.1855469,15.5996094-19.1992188,15.5996094
						c-4.6582031,0-8.9316406-0.7841797-13.2011719-2.4003906l2.4003906-9.4804688
						c4.1445312,1.5986328,7.7587891,2.4003906,10.2001953,2.4003906c5.6982422,0,8.1005859-2.2480469,8.1005859-6.1191406
						c0-2.9765625-1.4833984-4.8007812-5.1005859-4.8007812c-1.6835938,0-2.6738281,0.7402344-4.2001953,2.0996094H848
						l1.1992188-26.0996094h27.9003906v9.5996094H860l-0.3007812,6.3007812H859.8203125z"/>
					<polygon points="868.5996094,935.125 817.5996094,1008.1240234 804.5996094,1008.1240234 855.5996094,935.125 "/>
					<polygon points="810.4394531,948.9257812 801.5,957.3242188 797.8994141,947.125 810.5,935.125 823.0996094,935.125 
						823.0996094,978.9238281 810.5,978.9238281 810.5,948.9257812 "/>
				</g>
				<g>
					<path d="M858.4091797,830.6708984c1.8603516-0.7412109,3.5805664-1.0839844,5.3891602-1.0839844
						c9.1850586,0,14.3632812,4.9189453,14.3632812,13.6875c0,10.2246094-6.0668945,15.4501953-18.637207,15.4501953
						c-4.5615234,0-8.809082-0.8369141-12.9384766-2.5126953l2.2392578-8.5039062
						c3.9794922,1.6337891,7.5976562,2.4707031,10.1738281,2.4707031c6.0390625,0,8.675293-2.4882812,8.675293-6.9042969
						c0-3.7304688-2.1201172-5.5625-5.9755859-5.5625c-1.855957,0-3.0927734,0.7724609-4.7456055,2.1992188h-9.1757812
						l1.2524414-25.5869141h27.0693359v8.6494141h-17.3867188l-0.4238281,7.6972656H858.4091797z"/>
					<polygon points="866.7661133,785.125 816.9326172,858.1240234 805.0991211,858.1240234 854.9326172,785.125 "/>
					<polygon points="810.5097656,797.5322266 801.1474609,806.3798828 797.8242188,797.2744141 810.5742188,785.125 
						821.8491211,785.125 821.8491211,828.9238281 810.5742188,828.9238281 810.5742188,797.5322266 "/>
				</g>
				<g>
					<path d="M856.9985352,681.1181641c1.9604492-0.8574219,3.8276367-1.2685547,5.800293-1.2685547
						c9.152832,0,14.3256836,4.8876953,14.3256836,13.5751953c0,10.0917969-5.9482422,15.2998047-18.0751953,15.2998047
						c-4.4648438,0-8.6865234-0.8886719-12.6748047-2.625l2.0776367-7.5263672
						c3.8149414,1.6689453,7.4360352,2.5410156,10.1469727,2.5410156c6.3798828,0,9.2504883-2.7285156,9.2504883-7.6894531
						c0-4.484375-2.7568359-6.3251953-6.8505859-6.3251953c-2.0292969,0-3.512207,0.8056641-5.2919922,2.2998047h-8.1518555
						l1.3056641-25.0751953h26.2387695v7.7001953h-17.6738281l-0.5473633,9.09375H856.9985352z"/>
					<polygon points="864.9331055,635.125 816.2666016,708.125 805.5996094,708.125 854.2661133,635.125 "/>
					<polygon points="810.5800781,646.1396484 800.7954102,655.4355469 797.7495117,647.4248047 810.6499023,635.125 
						820.5996094,635.125 820.5996094,678.9238281 810.6499023,678.9238281 810.6499023,646.1396484 "/>
				</g>
				<g>
					<path d="M855.5878906,531.5654297c2.0605469-0.9736328,4.0742188-1.453125,6.2109375-1.453125
						c9.1210938,0,14.2880859,4.8564453,14.2880859,13.4628906c0,9.9580078-5.8291016,15.1494141-17.5126953,15.1494141
						c-4.3681641,0-8.5644531-0.9414062-12.4121094-2.7373047l1.9160156-6.5498047
						c3.6503906,1.7050781,7.2753906,2.6123047,10.1210938,2.6123047c6.7207031,0,9.8251953-2.9697266,9.8251953-8.4746094
						c0-5.2392578-3.3935547-7.0878906-7.7255859-7.0878906c-2.2021484,0-3.9316406,0.8388672-5.8378906,2.3994141h-7.1279297
						l1.3583984-24.5625h25.4082031v6.75h-17.9609375l-0.6708984,10.4912109H855.5878906z"/>
					<polygon points="863.0996094,485.1245117 815.5996094,558.125 806.0996094,558.125 853.5996094,485.1245117 "/>
					<polygon points="810.6503906,494.746582 800.4433594,504.4916992 797.6748047,497.574707 810.7246094,485.1245117 
						819.3496094,485.1245117 819.3496094,528.9238281 810.7246094,528.9238281 810.7246094,494.746582 "/>
				</g>
				<g>
					<path d="M853.9033203,382.3105469c2.2275391-1.1674805,4.4848633-1.7607422,6.8950195-1.7607422
						c9.0678711,0,14.2255859,4.8041992,14.2255859,13.2749023c0,9.7363281-5.6313477,14.8999023-16.574707,14.8999023
						c-4.2070312,0-8.3613281-1.0292969-11.9750977-2.9248047l1.6469727-4.921875
						c3.3764648,1.7651367,7.0073242,2.7299805,10.078125,2.7299805c7.2890625,0,10.7832031-3.3706055,10.7832031-9.7832031
						c0-6.4956055-4.4555664-8.3583984-9.184082-8.3583984c-2.4902344,0-4.6313477,0.8935547-6.7485352,2.5664062h-5.4204102
						l1.4458008-23.7084961h24.0239258v5.1669922H854.659668l-0.8769531,12.8193359H853.9033203z"/>
					<polygon points="863.0991211,335.1240234 813.4956055,408.1245117 806.3325195,408.1245117 855.9365234,335.1240234 "/>
					<polygon points="811.2666016,342.4243164 800.355957,352.9169922 798.0498047,347.8242188 811.3491211,335.1240234 
						817.7661133,335.1240234 817.7661133,378.9238281 811.3491211,378.9238281 811.3491211,342.4243164 "/>
				</g>
				<g>
					<path d="M852.2192383,233.0556641c2.394043-1.3598633,4.8955078-2.0683594,7.5795898-2.0683594
						c9.0146484,0,14.1630859,4.753418,14.1630859,13.0878906c0,9.5141602-5.4345703,14.6499023-15.6376953,14.6499023
						c-4.0458984,0-8.1567383-1.1166992-11.5371094-3.112793l1.3774414-3.2929688
						c3.1030273,1.824707,6.7397461,2.8476562,10.034668,2.8476562c7.8583984,0,11.7416992-3.7714844,11.7416992-11.0917969
						c0-7.7524414-5.5175781-9.6293945-10.6420898-9.6293945c-2.7788086,0-5.331543,0.9482422-7.6591797,2.7333984h-3.7133789
						l1.5332031-22.8540039h22.6401367v3.5830078h-18.9179688l-1.0830078,15.1474609H852.2192383z"/>
					<polygon points="863.0996094,185.125 811.3925781,258.125 806.5664062,258.125 858.2734375,185.125 "/>
					<polygon points="811.8837891,190.1030273 800.269043,201.3432617 798.4248047,198.0742188 811.9746094,185.125 
						816.1831055,185.125 816.1831055,228.9243164 811.9746094,228.9243164 811.9746094,190.1030273 "/>
				</g>
				<g>
					<path d="M850.5351562,83.8007812c2.5605469-1.5532227,5.3056641-2.3759766,8.2636719-2.3759766
						c8.9609375,0,14.1005859,4.7016602,14.1005859,12.9003906c0,9.2924805-5.2373047,14.3999023-14.7001953,14.3999023
						c-3.8847656,0-7.953125-1.2045898-11.0996094-3.300293l1.1083984-1.6645508
						c2.8291016,1.8842773,6.4716797,2.9648438,9.9912109,2.9648438c8.4267578,0,12.7001953-4.171875,12.7001953-12.3999023
						c0-9.0092773-6.5800781-10.9003906-12.1005859-10.9003906c-3.0673828,0-6.03125,1.0029297-8.5703125,2.9003906h-2.0058594
						l1.6210938-22h21.2558594v2H851.703125l-1.2890625,17.4755859H850.5351562z"/>
					<polygon points="863.0996094,35.125 809.2890625,108.125 806.7998047,108.125 860.6103516,35.125 "/>
					<polygon points="812.5,37.7807617 800.1816406,49.769043 798.7998047,48.3242188 812.5996094,35.125 814.5996094,35.125 
						814.5996094,78.9248047 812.5996094,78.9248047 812.5996094,37.7807617 "/>
				</g>
			</g>
		</g>
	</svg>
