<?xml version="1.0" encoding="utf-8"?>
<!-- Generator: Adobe Illustrator 15.0.2, SVG Export Plug-In . SVG Version: 6.00 Build 0)  -->
<!DOCTYPE svg PUBLIC "-//W3C//DTD SVG 1.1//EN" "http://www.w3.org/Graphics/SVG/1.1/DTD/svg11.dtd">
<svg version="1.1" id="レイヤー1" xmlns="http://www.w3.org/2000/svg" xmlns:xlink="http://www.w3.org/1999/xlink" x="0px"
	 y="0px" width="841.8896484px" height="595.2753906px" viewBox="0 0 841.8896484 595.2753906"
	 enable-background="new 0 0 841.8896484 595.2753906" xml:space="preserve">
<g>
	<rect x="71.5" y="-226.5" fill="none" stroke="#000000" stroke-width="0.25" width="100" height="150"/>
	<rect x="171.5" y="-226.5" fill="none" stroke="#000000" stroke-width="0.25" width="100" height="150"/>
	<rect x="271.5" y="-226.5" fill="none" stroke="#000000" stroke-width="0.25" width="100" height="150"/>
	<rect x="371.5" y="-226.5" fill="none" stroke="#000000" stroke-width="0.25" width="100" height="150"/>
	<rect x="471.5" y="-226.5" fill="none" stroke="#000000" stroke-width="0.25" width="100" height="150"/>
	<rect x="571.5" y="-226.5" fill="none" stroke="#000000" stroke-width="0.25" width="100" height="150"/>
	<rect x="671.5" y="-226.5" fill="none" stroke="#000000" stroke-width="0.25" width="100" height="150"/>
	<rect x="71.5" y="-76.5" fill="none" stroke="#000000" stroke-width="0.25" width="100" height="150"/>
	<rect x="171.5" y="-76.5" fill="none" stroke="#000000" stroke-width="0.25" width="100" height="150"/>
	<rect x="271.5" y="-76.5" fill="none" stroke="#000000" stroke-width="0.25" width="100" height="150"/>
	<rect x="371.5" y="-76.5" fill="none" stroke="#000000" stroke-width="0.25" width="100" height="150"/>
	<rect x="471.5" y="-76.5" fill="none" stroke="#000000" stroke-width="0.25" width="100" height="150"/>
	<rect x="571.5" y="-76.5" fill="none" stroke="#000000" stroke-width="0.25" width="100" height="150"/>
	<rect x="671.5" y="-76.5" fill="none" stroke="#000000" stroke-width="0.25" width="100" height="150"/>
	<rect x="71.5" y="73.5" fill="none" stroke="#000000" stroke-width="0.25" width="100" height="150"/>
	<rect x="171.5" y="73.5" fill="none" stroke="#000000" stroke-width="0.25" width="100" height="150"/>
	<rect x="271.5" y="73.5" fill="none" stroke="#000000" stroke-width="0.25" width="100" height="150"/>
	<rect x="371.5" y="73.5" fill="none" stroke="#000000" stroke-width="0.25" width="100" height="150"/>
	<rect x="471.5" y="73.5" fill="none" stroke="#000000" stroke-width="0.25" width="100" height="150"/>
	<rect x="571.5" y="73.5" fill="none" stroke="#000000" stroke-width="0.25" width="100" height="150"/>
	<rect x="671.5" y="73.5" fill="none" stroke="#000000" stroke-width="0.25" width="100" height="150"/>
	<rect x="71.5" y="223.5" fill="none" stroke="#000000" stroke-width="0.25" width="100" height="150"/>
	<rect x="171.5" y="223.5" fill="none" stroke="#000000" stroke-width="0.25" width="100" height="150"/>
	<rect x="271.5" y="223.5" fill="none" stroke="#000000" stroke-width="0.25" width="100" height="150"/>
	<rect x="371.5" y="223.5" fill="none" stroke="#000000" stroke-width="0.25" width="100" height="150"/>
	<rect x="471.5" y="223.5" fill="none" stroke="#000000" stroke-width="0.25" width="100" height="150"/>
	<rect x="571.5" y="223.5" fill="none" stroke="#000000" stroke-width="0.25" width="100" height="150"/>
	<rect x="671.5" y="223.5" fill="none" stroke="#000000" stroke-width="0.25" width="100" height="150"/>
	<rect x="71.5" y="373.5" fill="none" stroke="#000000" stroke-width="0.25" width="100" height="150"/>
	<rect x="171.5" y="373.5" fill="none" stroke="#000000" stroke-width="0.25" width="100" height="150"/>
	<rect x="271.5" y="373.5" fill="none" stroke="#000000" stroke-width="0.25" width="100" height="150"/>
	<rect x="371.5" y="373.5" fill="none" stroke="#000000" stroke-width="0.25" width="100" height="150"/>
	<rect x="471.5" y="373.5" fill="none" stroke="#000000" stroke-width="0.25" width="100" height="150"/>
	<rect x="571.5" y="373.5" fill="none" stroke="#000000" stroke-width="0.25" width="100" height="150"/>
	<rect x="671.5" y="373.5" fill="none" stroke="#000000" stroke-width="0.25" width="100" height="150"/>
	<rect x="71.5" y="523.5" fill="none" stroke="#000000" stroke-width="0.25" width="100" height="150"/>
	<rect x="171.5" y="523.5" fill="none" stroke="#000000" stroke-width="0.25" width="100" height="150"/>
	<rect x="271.5" y="523.5" fill="none" stroke="#000000" stroke-width="0.25" width="100" height="150"/>
	<rect x="371.5" y="523.5" fill="none" stroke="#000000" stroke-width="0.25" width="100" height="150"/>
	<rect x="471.5" y="523.5" fill="none" stroke="#000000" stroke-width="0.25" width="100" height="150"/>
	<rect x="571.5" y="523.5" fill="none" stroke="#000000" stroke-width="0.25" width="100" height="150"/>
	<rect x="671.5" y="523.5" fill="none" stroke="#000000" stroke-width="0.25" width="100" height="150"/>
	<rect x="71.5" y="673.5" fill="none" stroke="#000000" stroke-width="0.25" width="100" height="150"/>
	<rect x="171.5" y="673.5" fill="none" stroke="#000000" stroke-width="0.25" width="100" height="150"/>
	<rect x="271.5" y="673.5" fill="none" stroke="#000000" stroke-width="0.25" width="100" height="150"/>
	<rect x="371.5" y="673.5" fill="none" stroke="#000000" stroke-width="0.25" width="100" height="150"/>
	<rect x="471.5" y="673.5" fill="none" stroke="#000000" stroke-width="0.25" width="100" height="150"/>
	<rect x="571.5" y="673.5" fill="none" stroke="#000000" stroke-width="0.25" width="100" height="150"/>
	<rect x="671.5" y="673.5" fill="none" stroke="#000000" stroke-width="0.25" width="100" height="150"/>
	<rect x="771.5" y="-226.5" fill="none" stroke="#000000" stroke-width="0.25" width="100" height="150"/>
	<rect x="771.5" y="-76.5" fill="none" stroke="#000000" stroke-width="0.25" width="100" height="150"/>
	<rect x="771.5" y="73.5" fill="none" stroke="#000000" stroke-width="0.25" width="100" height="150"/>
	<rect x="771.5" y="223.5" fill="none" stroke="#000000" stroke-width="0.25" width="100" height="150"/>
	<rect x="771.5" y="373.5" fill="none" stroke="#000000" stroke-width="0.25" width="100" height="150"/>
	<rect x="771.5" y="523.5" fill="none" stroke="#000000" stroke-width="0.25" width="100" height="150"/>
	<rect x="771.5" y="673.5" fill="none" stroke="#000000" stroke-width="0.25" width="100" height="150"/>
</g>
<g>
	<polygon points="421.4003906,736.5 429.7998047,781.5 450,781.5 434.5,725.5 408.5,725.5 393,781.5 412.7998047,781.5 
		421.2001953,736.5 	"/>
	<polygon fill="#17100E" points="431.6328125,631.5 448.8330078,631.5 432.5,575.5 410.5,575.5 394.1660156,631.5 
		410.9667969,631.5 421.199707,584.8330078 421.3999023,584.8330078 	"/>
	<polygon fill="#0C0807" points="433.4667969,481.5 447.6669922,481.5 430.5,425.5 412.5,425.5 395.3330078,481.5 
		409.1337891,481.5 421.199707,433.1669922 421.4003906,433.1669922 	"/>
	<polygon points="435.3007812,331.5 446.5,331.5 428.5,275.5 414.5,275.5 396.5,331.5 407.3007812,331.5 421.1992188,281.5 
		421.4003906,281.5 	"/>
	<polygon fill="#0C0807" points="437.6503906,181.4995117 445.8330078,181.4995117 426.6660156,125.5 416.3330078,125.5 
		397.1665039,181.4995117 405.0839844,181.4995117 421.2661133,130.0336914 421.4667969,130.0336914 	"/>
	<polygon fill="#17100E" points="440,31.5 445.1669922,31.5 424.8330078,-24.5 418.1665039,-24.5 397.8334961,31.5 
		402.8671875,31.5 421.3330078,-21.4326172 421.5341797,-21.4326172 	"/>
	<polygon points="421.6005859,-172.8984375 442.3496094,-118.5 444.5,-118.5 423,-174.5 420,-174.5 398.5,-118.5 
		400.6503906,-118.5 421.4003906,-172.8984375 	"/>
</g>
<g>
	<polygon points="116.3637695,765.5 142.9638672,722.4335938 128.5,713.5 86.5,781.5 154.5,781.5 154.5,765.5 	"/>
	<polygon points="112.8515625,617.6660156 141.4609375,571.7353516 129,564 87,631.5 154.4995117,631.5 154.4995117,617.6660156 	
		"/>
	<polygon points="109.3393555,469.8330078 139.9580078,421.0380859 129.5,414.5 87.5,481.5 154.5,481.5 154.5,469.8330078 	"/>
	<polygon points="105.8271484,322 138.4550781,270.3398438 130,265 88,331.5 154.5,331.5 154.5,322 	"/>
	<polygon points="101.609375,174.5 136.6962891,119.4213867 130.5,115.5 88.5,181.4995117 154.4995117,181.4995117 
		154.4995117,174.5 	"/>
	<polygon points="97.3916016,27 134.9384766,-31.4960938 131,-34 89,31.5 154.5,31.5 154.5,27 	"/>
	<polygon points="93.1738281,-120.5 133.1796875,-182.4140625 131.5,-183.5 89.5,-118.5 154.5,-118.5 154.5,-120.5 	"/>
</g>
<g>
	<g>
		
			<rect x="212.0000153" y="-200.2706909" transform="matrix(0.8339983 0.551767 -0.551767 0.8339983 -52.648468 -144.0036469)" width="1.9999666" height="81.5413971"/>
		
			<rect x="229.0000153" y="-190.2706909" transform="matrix(0.8339983 0.551767 -0.551767 0.8339983 -44.3087769 -151.7236633)" width="1.9999666" height="81.5413971"/>
	</g>
	<g>
		<polygon points="192.0263672,25.3491211 188.3066406,22.8168945 233.6401367,-44.7666016 237.359375,-42.2338867 		"/>
		<polygon points="209.359375,35.7661133 205.6396484,33.2333984 250.9731445,-34.3500977 254.6928711,-31.8173828 		"/>
	</g>
	<g>
		<polygon points="192.71875,175.6474609 186.9482422,171.6855469 232.6142578,104.519043 238.3852539,108.4804688 		"/>
		<polygon points="210.3857422,186.4804688 204.6142578,182.519043 250.28125,115.3525391 256.0517578,119.3139648 		"/>
	</g>
	<g>
		
			<rect x="207.7500916" y="249.3424072" transform="matrix(0.8234115 0.5674447 -0.5674447 0.8234115 202.0130768 -69.3934021)" width="9.4998245" height="81.0651779"/>
		
			<rect x="225.7500916" y="260.5924072" transform="matrix(0.8234115 0.5674447 -0.5674447 0.8234115 211.5754242 -77.6207886)" width="9.4998245" height="81.0651779"/>
	</g>
	<g>
		<polygon points="193.9404297,476.1845703 184.3925781,469.4814453 230.7255859,403.1484375 240.2734375,409.8515625 		"/>
		<polygon points="212.2739258,487.8515625 202.7255859,481.1484375 249.0585938,414.8144531 258.6069336,421.5175781 		"/>
	</g>
	<g>
		<polygon points="194.4702148,626.4248047 183.1962891,618.4091797 229.8632812,552.4921875 241.1367188,560.5078125 		"/>
		<polygon points="213.137207,638.5078125 201.862793,630.4921875 248.5292969,564.5751953 259.8037109,572.5908203 		"/>
	</g>
	<g>
		
			<rect x="203.9997864" y="698.94104" transform="matrix(0.8124779 0.582992 -0.582992 0.8124779 470.7315063 15.0314331)" width="16.0004349" height="80.6179276"/>
		
			<rect x="222.9997864" y="711.44104" transform="matrix(0.8124779 0.582992 -0.582992 0.8124779 481.5817871 6.298584)" width="16.0004349" height="80.6179276"/>
	</g>
</g>
<g>
	<g>
		
			<rect x="288.6975708" y="-155.500061" transform="matrix(0.6097108 0.792624 -0.792624 0.6097108 3.0175781 -315.1282959)" width="65.6048813" height="2.0001373"/>
		
			<rect x="312.0000305" y="-200.2706909" transform="matrix(0.8339983 0.551767 -0.551767 0.8339983 -36.0482788 -199.1803436)" width="1.9999666" height="81.5413971"/>
		
			<rect x="329.0000305" y="-190.2706909" transform="matrix(0.8339983 0.551767 -0.551767 0.8339983 -27.7085876 -206.9003754)" width="1.9999666" height="81.5413971"/>
	</g>
	<g>
		
			<rect x="288.1639099" y="-6.5833178" transform="matrix(0.6099542 0.7924367 -0.7924367 0.6099542 121.8337555 -256.5235901)" width="66.6722031" height="4.166635"/>
		<polygon points="292.0258789,25.3491211 288.3066406,22.8168945 333.6401367,-44.7666016 337.359375,-42.2338867 		"/>
		<polygon points="309.359375,35.7661133 305.6401367,33.2333984 350.9736328,-34.3500977 354.6928711,-31.8173828 		"/>
	</g>
	<g>
		
			<rect x="287.6303406" y="142.3340607" transform="matrix(0.6101775 0.7922648 -0.7922648 0.6101775 240.6026611 -197.9938354)" width="67.7393265" height="6.3323598"/>
		<polygon points="292.71875,175.6474609 286.9477539,171.6855469 332.6147461,104.519043 338.3857422,108.4804688 		"/>
		<polygon points="310.3852539,186.4804688 304.6142578,182.519043 350.28125,115.3525391 356.0522461,119.3139648 		"/>
	</g>
	<g>
		
			<rect x="287.0966797" y="291.2509155" transform="matrix(0.610406 0.7920887 -0.7920887 0.610406 359.3170471 -139.531311)" width="68.8066635" height="8.499156"/>
		
			<rect x="307.7500916" y="249.3424072" transform="matrix(0.8234115 0.5674447 -0.5674447 0.8234115 219.6719208 -126.1378784)" width="9.4998245" height="81.0651779"/>
		
			<rect x="325.7500916" y="260.5924072" transform="matrix(0.8234115 0.5674447 -0.5674447 0.8234115 229.2342682 -134.3652649)" width="9.4998245" height="81.0651779"/>
	</g>
	<g>
		
			<rect x="286.5632019" y="440.333313" transform="matrix(0.610631 0.7919153 -0.7919153 0.610631 477.9804077 -81.1368408)" width="69.8736191" height="10.3333549"/>
		<polygon points="293.9404297,476.1845703 284.3920898,469.4814453 330.7255859,403.1484375 340.2739258,409.8515625 		"/>
		<polygon points="312.2734375,487.8515625 302.7255859,481.1484375 349.059082,414.8144531 358.6074219,421.5175781 		"/>
	</g>
	<g>
		
			<rect x="286.0298462" y="589.416687" transform="matrix(0.6108448 0.7917504 -0.7917504 0.6108448 596.600708 -22.8058472)" width="70.9402771" height="12.1665716"/>
		<polygon points="294.4707031,626.4248047 283.1962891,618.4091797 329.8632812,552.4921875 341.1367188,560.5078125 		"/>
		<polygon points="313.1367188,638.5078125 301.8632812,630.4921875 348.5292969,564.5751953 359.8037109,572.5908203 		"/>
	</g>
	<g>
		
			<rect x="285.496521" y="738.5001221" transform="matrix(0.6110522 0.7915903 -0.7915903 0.6110522 715.1772461 35.4642944)" width="72.0069427" height="13.9997892"/>
		
			<rect x="303.9997864" y="698.94104" transform="matrix(0.8124779 0.582992 -0.582992 0.8124779 489.4837036 -43.2677612)" width="16.0004349" height="80.6179276"/>
		
			<rect x="322.9997864" y="711.44104" transform="matrix(0.8124779 0.582992 -0.582992 0.8124779 500.3340149 -52.0006104)" width="16.0004349" height="80.6179276"/>
	</g>
</g>
</svg>
