<?xml version="1.0" encoding="utf-8"?>
<!-- Generator: Adobe Illustrator 15.0.2, SVG Export Plug-In . SVG Version: 6.00 Build 0)  -->
<!DOCTYPE svg PUBLIC "-//W3C//DTD SVG 1.1//EN" "http://www.w3.org/Graphics/SVG/1.1/DTD/svg11.dtd">
<svg version="1.1" id="レイヤー1" xmlns="http://www.w3.org/2000/svg" xmlns:xlink="http://www.w3.org/1999/xlink" x="0px"
	 y="0px" width="841.8896484px" height="595.2753906px" viewBox="0 0 841.8896484 595.2753906"
	 enable-background="new 0 0 841.8896484 595.2753906" xml:space="preserve">
<g>
	<rect x="71.5" y="-204.5" fill="none" stroke="#000000" stroke-width="0.25" width="100" height="100"/>
	<rect x="171.5" y="-204.5" fill="none" stroke="#000000" stroke-width="0.25" width="100" height="100"/>
	<rect x="271.5" y="-204.5" fill="none" stroke="#000000" stroke-width="0.25" width="100" height="100"/>
	<rect x="371.5" y="-204.5" fill="none" stroke="#000000" stroke-width="0.25" width="100" height="100"/>
	<rect x="471.5" y="-204.5" fill="none" stroke="#000000" stroke-width="0.25" width="100" height="100"/>
	<rect x="571.5" y="-204.5" fill="none" stroke="#000000" stroke-width="0.25" width="100" height="100"/>
	<rect x="671.5" y="-204.5" fill="none" stroke="#000000" stroke-width="0.25" width="100" height="100"/>
	<rect x="71.5" y="-54.5" fill="none" stroke="#000000" stroke-width="0.25" width="100" height="100"/>
	<rect x="171.5" y="-54.5" fill="none" stroke="#000000" stroke-width="0.25" width="100" height="100"/>
	<rect x="271.5" y="-54.5" fill="none" stroke="#000000" stroke-width="0.25" width="100" height="100"/>
	<rect x="371.5" y="-54.5" fill="none" stroke="#000000" stroke-width="0.25" width="100" height="100"/>
	<rect x="471.5" y="-54.5" fill="none" stroke="#000000" stroke-width="0.25" width="100" height="100"/>
	<rect x="571.5" y="-54.5" fill="none" stroke="#000000" stroke-width="0.25" width="100" height="100"/>
	<rect x="671.5" y="-54.5" fill="none" stroke="#000000" stroke-width="0.25" width="100" height="100"/>
	<rect x="71.5" y="95.5" fill="none" stroke="#000000" stroke-width="0.25" width="100" height="100"/>
	<rect x="171.5" y="95.5" fill="none" stroke="#000000" stroke-width="0.25" width="100" height="100"/>
	<rect x="271.5" y="95.5" fill="none" stroke="#000000" stroke-width="0.25" width="100" height="100"/>
	<rect x="371.5" y="95.5" fill="none" stroke="#000000" stroke-width="0.25" width="100" height="100"/>
	<rect x="471.5" y="95.5" fill="none" stroke="#000000" stroke-width="0.25" width="100" height="100"/>
	<rect x="571.5" y="95.5" fill="none" stroke="#000000" stroke-width="0.25" width="100" height="100"/>
	<rect x="671.5" y="95.5" fill="none" stroke="#000000" stroke-width="0.25" width="100" height="100"/>
	<rect x="71.5" y="245.5" fill="none" stroke="#000000" stroke-width="0.25" width="100" height="100"/>
	<rect x="171.5" y="245.5" fill="none" stroke="#000000" stroke-width="0.25" width="100" height="100"/>
	<rect x="271.5" y="245.5" fill="none" stroke="#000000" stroke-width="0.25" width="100" height="100"/>
	<rect x="371.5" y="245.5" fill="none" stroke="#000000" stroke-width="0.25" width="100" height="100"/>
	<rect x="471.5" y="245.5" fill="none" stroke="#000000" stroke-width="0.25" width="100" height="100"/>
	<rect x="571.5" y="245.5" fill="none" stroke="#000000" stroke-width="0.25" width="100" height="100"/>
	<rect x="671.5" y="245.5" fill="none" stroke="#000000" stroke-width="0.25" width="100" height="100"/>
	<rect x="71.5" y="395.5" fill="none" stroke="#000000" stroke-width="0.25" width="100" height="100"/>
	<rect x="171.5" y="395.5" fill="none" stroke="#000000" stroke-width="0.25" width="100" height="100"/>
	<rect x="271.5" y="395.5" fill="none" stroke="#000000" stroke-width="0.25" width="100" height="100"/>
	<rect x="371.5" y="395.5" fill="none" stroke="#000000" stroke-width="0.25" width="100" height="100"/>
	<rect x="471.5" y="395.5" fill="none" stroke="#000000" stroke-width="0.25" width="100" height="100"/>
	<rect x="571.5" y="395.5" fill="none" stroke="#000000" stroke-width="0.25" width="100" height="100"/>
	<rect x="671.5" y="395.5" fill="none" stroke="#000000" stroke-width="0.25" width="100" height="100"/>
	<rect x="71.5" y="545.5" fill="none" stroke="#000000" stroke-width="0.25" width="100" height="100"/>
	<rect x="171.5" y="545.5" fill="none" stroke="#000000" stroke-width="0.25" width="100" height="100"/>
	<rect x="271.5" y="545.5" fill="none" stroke="#000000" stroke-width="0.25" width="100" height="100"/>
	<rect x="371.5" y="545.5" fill="none" stroke="#000000" stroke-width="0.25" width="100" height="100"/>
	<rect x="471.5" y="545.5" fill="none" stroke="#000000" stroke-width="0.25" width="100" height="100"/>
	<rect x="571.5" y="545.5" fill="none" stroke="#000000" stroke-width="0.25" width="100" height="100"/>
	<rect x="671.5" y="545.5" fill="none" stroke="#000000" stroke-width="0.25" width="100" height="100"/>
	<rect x="71.5" y="695.5" fill="none" stroke="#000000" stroke-width="0.25" width="100" height="100"/>
	<rect x="171.5" y="695.5" fill="none" stroke="#000000" stroke-width="0.25" width="100" height="100"/>
	<rect x="271.5" y="695.5" fill="none" stroke="#000000" stroke-width="0.25" width="100" height="100"/>
	<rect x="371.5" y="695.5" fill="none" stroke="#000000" stroke-width="0.25" width="100" height="100"/>
	<rect x="471.5" y="695.5" fill="none" stroke="#000000" stroke-width="0.25" width="100" height="100"/>
	<rect x="571.5" y="695.5" fill="none" stroke="#000000" stroke-width="0.25" width="100" height="100"/>
	<rect x="671.5" y="695.5" fill="none" stroke="#000000" stroke-width="0.25" width="100" height="100"/>
	<rect x="771.5" y="-204.5" fill="none" stroke="#000000" stroke-width="0.25" width="100" height="100"/>
	<rect x="771.5" y="-54.5" fill="none" stroke="#000000" stroke-width="0.25" width="100" height="100"/>
	<rect x="771.5" y="95.5" fill="none" stroke="#000000" stroke-width="0.25" width="100" height="100"/>
	<rect x="771.5" y="245.5" fill="none" stroke="#000000" stroke-width="0.25" width="100" height="100"/>
	<rect x="771.5" y="395.5" fill="none" stroke="#000000" stroke-width="0.25" width="100" height="100"/>
	<rect x="771.5" y="545.5" fill="none" stroke="#000000" stroke-width="0.25" width="100" height="100"/>
	<rect x="771.5" y="695.5" fill="none" stroke="#000000" stroke-width="0.25" width="100" height="100"/>
</g>
<g>
	<rect x="73.5" y="705.5" width="13" height="80"/>
	<rect x="74.1660156" y="556.1660156" width="11.3339844" height="78.6669922"/>
	<rect x="74.8330078" y="406.8339844" width="9.6669922" height="77.3330078"/>
	<rect x="75.5" y="257.5" width="8" height="76"/>
	<rect x="76.1665039" y="108.1665039" width="6" height="74.6665039"/>
	<rect x="76.8334961" y="-41.1669922" width="3.9995117" height="73.3334961"/>
	<rect x="77.5" y="-190.5" width="2" height="72"/>
</g>
</svg>
