<?xml version="1.0" encoding="utf-8"?>
<!-- Generator: Adobe Illustrator 15.0.2, SVG Export Plug-In . SVG Version: 6.00 Build 0)  -->
<!DOCTYPE svg PUBLIC "-//W3C//DTD SVG 1.1//EN" "http://www.w3.org/Graphics/SVG/1.1/DTD/svg11.dtd">
<svg version="1.1" id="レイヤー1" xmlns="http://www.w3.org/2000/svg" xmlns:xlink="http://www.w3.org/1999/xlink" x="0px"
	 y="0px" width="841.8896484px" height="595.2753906px" viewBox="0 0 841.8896484 595.2753906"
	 enable-background="new 0 0 841.8896484 595.2753906" xml:space="preserve">
<g>
	<rect x="71.5" y="-204.5" fill="none" stroke="#000000" stroke-width="0.25" width="100" height="100"/>
	<rect x="171.5" y="-204.5" fill="none" stroke="#000000" stroke-width="0.25" width="100" height="100"/>
	<rect x="271.5" y="-204.5" fill="none" stroke="#000000" stroke-width="0.25" width="100" height="100"/>
	<rect x="371.5" y="-204.5" fill="none" stroke="#000000" stroke-width="0.25" width="100" height="100"/>
	<rect x="471.5" y="-204.5" fill="none" stroke="#000000" stroke-width="0.25" width="100" height="100"/>
	<rect x="571.5" y="-204.5" fill="none" stroke="#000000" stroke-width="0.25" width="100" height="100"/>
	<rect x="671.5" y="-204.5" fill="none" stroke="#000000" stroke-width="0.25" width="100" height="100"/>
	<rect x="71.5" y="-54.5" fill="none" stroke="#000000" stroke-width="0.25" width="100" height="100"/>
	<rect x="171.5" y="-54.5" fill="none" stroke="#000000" stroke-width="0.25" width="100" height="100"/>
	<rect x="271.5" y="-54.5" fill="none" stroke="#000000" stroke-width="0.25" width="100" height="100"/>
	<rect x="371.5" y="-54.5" fill="none" stroke="#000000" stroke-width="0.25" width="100" height="100"/>
	<rect x="471.5" y="-54.5" fill="none" stroke="#000000" stroke-width="0.25" width="100" height="100"/>
	<rect x="571.5" y="-54.5" fill="none" stroke="#000000" stroke-width="0.25" width="100" height="100"/>
	<rect x="671.5" y="-54.5" fill="none" stroke="#000000" stroke-width="0.25" width="100" height="100"/>
	<rect x="71.5" y="95.5" fill="none" stroke="#000000" stroke-width="0.25" width="100" height="100"/>
	<rect x="171.5" y="95.5" fill="none" stroke="#000000" stroke-width="0.25" width="100" height="100"/>
	<rect x="271.5" y="95.5" fill="none" stroke="#000000" stroke-width="0.25" width="100" height="100"/>
	<rect x="371.5" y="95.5" fill="none" stroke="#000000" stroke-width="0.25" width="100" height="100"/>
	<rect x="471.5" y="95.5" fill="none" stroke="#000000" stroke-width="0.25" width="100" height="100"/>
	<rect x="571.5" y="95.5" fill="none" stroke="#000000" stroke-width="0.25" width="100" height="100"/>
	<rect x="671.5" y="95.5" fill="none" stroke="#000000" stroke-width="0.25" width="100" height="100"/>
	<rect x="71.5" y="245.5" fill="none" stroke="#000000" stroke-width="0.25" width="100" height="100"/>
	<rect x="171.5" y="245.5" fill="none" stroke="#000000" stroke-width="0.25" width="100" height="100"/>
	<rect x="271.5" y="245.5" fill="none" stroke="#000000" stroke-width="0.25" width="100" height="100"/>
	<rect x="371.5" y="245.5" fill="none" stroke="#000000" stroke-width="0.25" width="100" height="100"/>
	<rect x="471.5" y="245.5" fill="none" stroke="#000000" stroke-width="0.25" width="100" height="100"/>
	<rect x="571.5" y="245.5" fill="none" stroke="#000000" stroke-width="0.25" width="100" height="100"/>
	<rect x="671.5" y="245.5" fill="none" stroke="#000000" stroke-width="0.25" width="100" height="100"/>
	<rect x="71.5" y="395.5" fill="none" stroke="#000000" stroke-width="0.25" width="100" height="100"/>
	<rect x="171.5" y="395.5" fill="none" stroke="#000000" stroke-width="0.25" width="100" height="100"/>
	<rect x="271.5" y="395.5" fill="none" stroke="#000000" stroke-width="0.25" width="100" height="100"/>
	<rect x="371.5" y="395.5" fill="none" stroke="#000000" stroke-width="0.25" width="100" height="100"/>
	<rect x="471.5" y="395.5" fill="none" stroke="#000000" stroke-width="0.25" width="100" height="100"/>
	<rect x="571.5" y="395.5" fill="none" stroke="#000000" stroke-width="0.25" width="100" height="100"/>
	<rect x="671.5" y="395.5" fill="none" stroke="#000000" stroke-width="0.25" width="100" height="100"/>
	<rect x="71.5" y="545.5" fill="none" stroke="#000000" stroke-width="0.25" width="100" height="100"/>
	<rect x="171.5" y="545.5" fill="none" stroke="#000000" stroke-width="0.25" width="100" height="100"/>
	<rect x="271.5" y="545.5" fill="none" stroke="#000000" stroke-width="0.25" width="100" height="100"/>
	<rect x="371.5" y="545.5" fill="none" stroke="#000000" stroke-width="0.25" width="100" height="100"/>
	<rect x="471.5" y="545.5" fill="none" stroke="#000000" stroke-width="0.25" width="100" height="100"/>
	<rect x="571.5" y="545.5" fill="none" stroke="#000000" stroke-width="0.25" width="100" height="100"/>
	<rect x="671.5" y="545.5" fill="none" stroke="#000000" stroke-width="0.25" width="100" height="100"/>
	<rect x="71.5" y="695.5" fill="none" stroke="#000000" stroke-width="0.25" width="100" height="100"/>
	<rect x="171.5" y="695.5" fill="none" stroke="#000000" stroke-width="0.25" width="100" height="100"/>
	<rect x="271.5" y="695.5" fill="none" stroke="#000000" stroke-width="0.25" width="100" height="100"/>
	<rect x="371.5" y="695.5" fill="none" stroke="#000000" stroke-width="0.25" width="100" height="100"/>
	<rect x="471.5" y="695.5" fill="none" stroke="#000000" stroke-width="0.25" width="100" height="100"/>
	<rect x="571.5" y="695.5" fill="none" stroke="#000000" stroke-width="0.25" width="100" height="100"/>
	<rect x="671.5" y="695.5" fill="none" stroke="#000000" stroke-width="0.25" width="100" height="100"/>
	<rect x="771.5" y="-204.5" fill="none" stroke="#000000" stroke-width="0.25" width="100" height="100"/>
	<rect x="771.5" y="-54.5" fill="none" stroke="#000000" stroke-width="0.25" width="100" height="100"/>
	<rect x="771.5" y="95.5" fill="none" stroke="#000000" stroke-width="0.25" width="100" height="100"/>
	<rect x="771.5" y="245.5" fill="none" stroke="#000000" stroke-width="0.25" width="100" height="100"/>
	<rect x="771.5" y="395.5" fill="none" stroke="#000000" stroke-width="0.25" width="100" height="100"/>
	<rect x="771.5" y="545.5" fill="none" stroke="#000000" stroke-width="0.25" width="100" height="100"/>
	<rect x="771.5" y="695.5" fill="none" stroke="#000000" stroke-width="0.25" width="100" height="100"/>
</g>
<g>
	<rect x="81.5" y="737" width="80" height="17"/>
	<rect x="82.1665039" y="588.1660156" width="78.6665039" height="14.6669922"/>
	<rect x="82.8334961" y="439.3339844" width="77.3334961" height="12.3330078"/>
	<rect x="83.5" y="290.5" width="76" height="10"/>
	<rect x="84.1665039" y="141.8330078" width="74.6665039" height="7.3334961"/>
	<rect x="84.8330078" y="-6.8330078" width="73.3334961" height="4.6665039"/>
	<rect x="85.5" y="-155.5" width="72" height="2"/>
</g>
</svg>
