<?xml version="1.0" encoding="utf-8"?>
<!-- Generator: Adobe Illustrator 11 Build 225, SVG Export Plug-In . SVG Version: 6.0.0 Build 78)  -->
<!DOCTYPE svg PUBLIC "-//W3C//DTD SVG 1.0//EN"    "http://www.w3.org/TR/2001/REC-SVG-20010904/DTD/svg10.dtd" [
	<!ENTITY ns_flows "http://ns.adobe.com/Flows/1.0/">
	<!ENTITY ns_svg "http://www.w3.org/2000/svg">
	<!ENTITY ns_xlink "http://www.w3.org/1999/xlink">
]>
<svg  xmlns="&ns_svg;" xmlns:xlink="&ns_xlink;" xmlns:a="http://ns.adobe.com/AdobeSVGViewerExtensions/3.0/"
	 width="100.25" height="1050.25" viewBox="0 0 100.25 1050.25" overflow="visible" enable-background="new 0 0 100.25 1050.25"
	 xml:space="preserve">
	<metadata>
		<x:xmpmeta  x:xmptk="XMP toolkit 3.0-29, framework 1.6" xmlns:x="adobe:ns:meta/">
			<rdf:RDF  xmlns:rdf="http://www.w3.org/1999/02/22-rdf-syntax-ns#" xmlns:iX="http://ns.adobe.com/iX/1.0/">
				<rdf:Description  rdf:about="" xmlns:pdf="http://ns.adobe.com/pdf/1.3/"></rdf:Description>
				<rdf:Description  rdf:about="" xmlns:tiff="http://ns.adobe.com/tiff/1.0/"></rdf:Description>
				<rdf:Description  rdf:about="" xmlns:xap="http://ns.adobe.com/xap/1.0/" xmlns:xapGImg="http://ns.adobe.com/xap/1.0/g/img/">
					<xap:CreateDate>2005-10-18T08:31:30Z</xap:CreateDate>
					<xap:ModifyDate>2005-10-18T08:31:30Z</xap:ModifyDate>
					<xap:CreatorTool>Illustrator</xap:CreatorTool>
					<xap:Thumbnails>
						<rdf:Alt>
							<rdf:li  rdf:parseType="Resource">
								<xapGImg:format>JPEG</xapGImg:format>
								<xapGImg:width>172</xapGImg:width>
								<xapGImg:height>256</xapGImg:height>
								<xapGImg:image>/9j/4AAQSkZJRgABAgEASABIAAD/7QAsUGhvdG9zaG9wIDMuMAA4QklNA+0AAAAAABAASAAAAAEA
AQBIAAAAAQAB/+4ADkFkb2JlAGTAAAAAAf/bAIQABgQEBAUEBgUFBgkGBQYJCwgGBggLDAoKCwoK
DBAMDAwMDAwQDA4PEA8ODBMTFBQTExwbGxscHx8fHx8fHx8fHwEHBwcNDA0YEBAYGhURFRofHx8f
Hx8fHx8fHx8fHx8fHx8fHx8fHx8fHx8fHx8fHx8fHx8fHx8fHx8fHx8fHx8f/8AAEQgBAACsAwER
AAIRAQMRAf/EAaIAAAAHAQEBAQEAAAAAAAAAAAQFAwIGAQAHCAkKCwEAAgIDAQEBAQEAAAAAAAAA
AQACAwQFBgcICQoLEAACAQMDAgQCBgcDBAIGAnMBAgMRBAAFIRIxQVEGE2EicYEUMpGhBxWxQiPB
UtHhMxZi8CRygvElQzRTkqKyY3PCNUQnk6OzNhdUZHTD0uIIJoMJChgZhJRFRqS0VtNVKBry4/PE
1OT0ZXWFlaW1xdXl9WZ2hpamtsbW5vY3R1dnd4eXp7fH1+f3OEhYaHiImKi4yNjo+Ck5SVlpeYmZ
qbnJ2en5KjpKWmp6ipqqusra6voRAAICAQIDBQUEBQYECAMDbQEAAhEDBCESMUEFURNhIgZxgZEy
obHwFMHR4SNCFVJicvEzJDRDghaSUyWiY7LCB3PSNeJEgxdUkwgJChgZJjZFGidkdFU38qOzwygp
0+PzhJSktMTU5PRldYWVpbXF1eX1RlZmdoaWprbG1ub2R1dnd4eXp7fH1+f3OEhYaHiImKi4yNjo
+DlJWWl5iZmpucnZ6fkqOkpaanqKmqq6ytrq+v/aAAwDAQACEQMRAD8A9U4q7FXYq7FXYq7FXYq7
FXYqhtT1Kx0vTbvU7+UQWNjDJc3c5BISKFC8jkKCfhVSdhiqJxV2KuxV2KuxV2KuxV2KuxV2KuxV
2KsW/Kx3f8uvLruxZmsYSWJqSePjirKcVdirzfyzp2tRXXlUz21yiwXmvtdGRJAESW4mMBkqNg6k
FK9R0xV6RirsVedfmP5ovob/AEXTItC1SZf0zaFbiBbb0rj0Fa6KRFp1ev7mvxKv2T2xVS0PzfqF
z+Y+tyny3q6RtZ6VYlGW0pAUlu5mkkpcmgZbpfs1NF6Yq9KxV4n5/i0vWNG/MyPX72WTW9L0+/fS
NGeeSGKGzSwLw3MNurIk3qPyLSsGofg2pTFXp2ieStJ0PUGu9KmvLeB42jk01rqaazLFgwlEMzSC
NxxpWMrWp5V2oqn2KvPrfyx5b81ec/Nb+ZbGDWJNLubax020vY1mit7V7C3ufUhjkDKryTzSgyqO
R4ha/DiqWadrmpxeU18r6HdSSalf6pqOkaBfuxleHT7S5dJrss1eS2UdYkLV5OIwftYq9J0jS7LS
dLtNLskKWdlCkECkliEjUKOTHdjtuTuTirEvzIt7CbUfLia/H63lGW5kg1SJ/wDeY3MyBbH62vRo
DJySjVT1GTl2xVBeWtN8s2v5jPD5KtIbLSbGxuIPMSaeixaebxpYTaxCOICE3MapMXKjkqkBvtCi
r0XFWN6Tb3qefPMU8kUi2ctnpi28rKwjZ0N16gRj8JK8l5U8RXFWSYq7FXYqxr8tLS6s/IGgWt3D
Jb3MNlEk0EqlJEYLurKwBB+eKslxV2KuxV2KuxV5r5x8weY285+V7WPyvdyrZajeXVs63NiouFis
Lm15JymBUcbrlR6H6dsVXeR9c8wXXnHzTLN5buoIp9St7ae4e4s3W3EGn254twmZm+KQmkYYb+NQ
FXpGKsG/OfRtE1T8sfNM1/ZW95NYaRqM1nLNGkjwTR2sjB42YEowKjcYqutbW68q+bdH0mz1C4vN
D1tbmJdOvZXupLSW2i9YSw3Epeb0So9NkdmAJTjx3BVZvirHvMnk3ynqkzarq0TwzwQlJ763urix
c26VcpNLbSQGSJak8XJXrtirzvStPubufRLrTuegWnmeU2Oki2VYpbLy9Y28lzFDCGBEU17IgkkI
HII1PtICFWY6XBf+XvPNroiald6hpGr6fdXkUN9K1zLbXFjLbxsUmespjlW7FQ7EKyjjTliqjqum
nzr5k1fQNTmkj8r6OsEN3pcLGJr+e4jE5NxIhEn1dI2VRGpAduXOqjjiqVfpf/lVWlS6NexmTy3F
DO3le/RSWWRVaRNMuAo+KVj8Nu/WX7J+MVdVn3lu31G38vaXb6nK0+pQ2kEd9MxqzzrEolYkdSzg
nFUxxV2KuxV2KoXStP8A0dpttY/WZ7z6tGI/rV2/qzycf2pHoOTHuaYqisVdirsVdirsVS+60S1u
dasNXkeQXOnR3EUEYI9Mi69PmWBBPIeiONCOpxV2k6JaaXJqEkDyO+pXb3twZCD+8dEjovELRQkS
gfrxVMMVYL57/K601zR/MK6Ncz6TrGtWVzBKYbiSKzuJpoDEpuoKSxEGoDusfqce9aYqnmh+S9L0
q/bVGnutS1d4zAdR1Cdp5ViJDNHEvwxRKzKCwjReRpXoMVT7FUs8yeX7PzBpMmk3skqWVw0Zuo4S
q+tEjh2gclW/dyheEgFCVJFcVWeYvLVlrlnBBLLNZ3FnMtzp9/aMqT206KyCSIusifYdkKurKykg
gg4qhdA8oDTdTm1i/wBTuta1maEWwvbwQp6VuG5mKGK3jhjRWajMeJZiBU7CirWteTo77VBrGn6l
eaJq/pLBNd2JhYTxRlmjjnhuI54ZAhduLcQ4qaMMVS+4/LHTtVP/ADtepXvmZFVhFa3xhitY2deP
Nbe0itkLqCeDycmU7qQcVZLo2nNpml2untd3F/8AVYxELu8ZXuJAuwMjosYZqbcqVPU1O+KozFXY
q7FXYq7FXYq7FXYq7FXYq7FXYq7FXYq7FXYq7FXYq7FXYq7FXYq7FXYq7FXYqkPkXzhY+cPK9p5h
sYZbe1u3nRIZ+PqA21xJbtXiWG7REjfpiqfYq7FWIaT+ZelanJpKRWs6HV9U1DR4OfD4ZdNS4eR2
ox+BhaNxpvuK4qy/FXYqkvmnzVZ+XYdNkuopJv0nqVppUCxcaiW9lEaseRHwr9pqb0xV0Pmqzm85
XflVIZDd2dhBqM1xQeiFuJZIkjrWvP8AclunTFU6xV5t+ZP5y6d5bttd03RrS81jzJpWnzXc6Wds
09tYt6LSQyX0paJEj25MA3Lj26YqmHkX807HzHJZ6Ze6bqWj63cWouUg1C0aCKdVVTJJbyqZYnSr
VHx1p2xVnOKsK1/8yLm08xXHl7y95evfMup6fDHcasLSS3gitUmBMSPLcSRqZXUcljXfjviqZaL5
+8uap5Qk81iV7TS7ZJ31AXS+nLatalluIp034vEyEECvtUUxVMPLOtNrmgWGsGzmsBfwrOlpc8RM
iPunMKWAJWhpXbFUr87+frHyr+jrb6ldarrOszNBpOkWKq087xrzkasjIiRxru7s2wxVAaB+ZU91
5kt/LXmLy/e+WtZvYZLjTY7l7e4guUgoZVintZJU5orBmVqbYqzbFUqs/MVrdeZdU0BInW50q2s7
qaU04Mt806oFoa1X6q1ajuMVTXFXYq7FXmv/ADjj/wCSd0X/AIz6l/3U7nFXpWKuxVhGi/ljBpcm
jOuoNL+h9X1LWVBjC+o2ppcoYj8R4iP659rvx6CuKs3xV2KvH/ze8r3955o8nxJ5k1WFNU8wQtHZ
xmyEFqLW0nm9W35WzSeoGjFPUZ13O3Siqh5O8n6lL+bnnB2826zI2jx6PbtKzWBe4VopLow3FLQL
wHqCgjCNRjU7iir2fFXhX5laB548paV+Y99pNhBrnlfzZZXdzfkTLb3unytYtBLKQ44TwhV5cVIc
dKeKrOPyt/Mjyx5g02z0O3eaz17T7G3N1pF/C9tciMRqvqorikkZ7MhI3HjirPcVeaTS+ZPJ3n7z
Nqi+Xr3XtG8zfVLq3m0sQvNBc2lqlq8E8cskJ4usSsrgkCtDirz71VhS70Xzg66Vo/6Ul82efIEb
6wkbX1wG0zRf3QYyySlUllVF+ILt9rFXtHlf8w/LPmS9uNPsJLiDU7WNZ5tOv7aeyufRc0WZYrlI
2aMnbktRX5jFWGfnlf2+mXnljW9KuBL560q6kfQNDRHml1CG4QR3lt6cQZ0Vo1B9UjihUVxVD/l5
qF75+19fzI1uWLT7Py8t5YaZ5ajLPcWUrEJdy6gzLGwnZI6CPjRVodzuVXqWia1put6RZ6xpc31j
Tr+JLi0n4unOOQVVuLhXFR2IriqDsfLiWnmvV/MInLvqtrY2jW/GgjFi1wwYNXfn9a6U2piqc4q7
FXYqwz8nbLRrH8vNNttG+uDTklvTD+ko1iuqtezNJzRdgPULcPFaHFWZ4q7FXYq7FXYq8e87fl89
5+anlDhq2uehdSave3Ekd7KEtStuqqsDdIAxuOAUdV26A4q3+WXkF083+b9Wm1TWh9V1xILcT3kt
LqO1s7ejXAP9+tWKgn9kU7Yq9gxV5J+b3n++sPK3nPQtW8t6lDbXGl30Ol63axG8splls2VTO8NW
tmDsQfUWlBy5UxVL/Kj3/nLzj5C1jT9CvLDSfKWnzi91rUbdrT6011ZC3jt7VXpJKgYmQuV47be6
r2vFUl85+Y/8OeWr7V0tZb64gQLaWMCs8k9xIQkMSqtT8UjAE9hv2xV5hrfkrUfLHlfyxrWoQNrO
oWPmGLzF50e2iMrySzRSxyXEcagu62byp6aqPsJWm2KprYa/pvnf82NB1fyys1xpPl/T79dU1gwS
QQyPfeiILRGlVGkZTE0jACi7b1JGKofVNVg8k/nFrPmXzPa3B0PW9Os7XSddigluYrI2xf6xay+i
sjxCZ2WSvHiaexoqw38xtU/xNf3Wp/k1DqF55j1K0msvMc1vaywadPZmB1DTyXIgQ3cdR6DIS37J
22xV7V+W91os/kbRU0ZZotPtLSG0iguo2huIvq6CIxzRtusi8fi8eoJG+KskxV2KuxV2KuxV2Kux
V2KuxV2KuxV2KuxVD6jp9lqOn3On30K3FleRPb3UD/ZkilUo6N7MpIxVUt7eG2t4reBBHBCixxRj
oqKKKB8gMVVMVdirsVdirsVdirsVdirsVdirsVdirsVdirsVdirsVdirsVdiqncXFvbW8tzcypBb
wI0k00jBEREHJmZmoAoAqScVdb3Fvc28VzbSpPbzoskM0bB0dHHJWVlqCpBqCMVVMVdirsVdirsV
dirsVdirsVdirsVeS/8AOM/mLXde8h6hea1fz6jdR6xdwJPcOZHESLHxQFv2RU0GKvWsVdirwGy8
3+aH0by9K2q3JkuPzIl0udzK1XsRJdAWzb7xfAvw9NsVe/Yq7FXhH57fnh5Z0i80zy5p3mCWx1ux
12w/xBHCl3GYtPoZLgtIkfGROLJVY2LGuw2xVBaT/wA5F+R7z86LmX/E0x8qTaVBY6ZAYbwQyajJ
chmYQ+jVW4njzdR86Yq+hMVfOH5leaPPfnTUvzM0HTdaTy/5b8laVM17YpBHLc6lztZXdWdzyjjP
plSU7EbEnZVln5I+XPzP03RPKV7N5og1byde6RbSy6TdWqxXNoJLRWgjtp46l1QlVPqH7I6VNcVe
x4q8bvrXzF5//NrzX5ebzNqfl7Q/KFvp6W9voswtZri41CA3Bmml4uzKlOPDp0/yuSqA8v8A5ueY
dJ/LDXP0lMNb82aTr135U0OQKofUryNlW2fiKA7SVbxCnvir1byNomraJ5V07TtZ1KbVtXjj5ahq
E7mRpJ3JeTiT0RWPFB/KBirz/wDPfzL5hs9Z8k+WtO1p/Lem+Zr2e31TXIVHqxCJYzFCkjCkbTNI
QG67eFcVSRG8xfl/+cflLyppnmvVfNOn+YI7k6tpeszre3FrHEnKO5WYKjIpPLt0Ujwoq94xVgGm
6vqkn5463pL3UraZBoNlcQ2ZY+ksz3MqtIF6BmVQCcVZ/irsVdirxj/nFGCeH8utSWaNo2Ot3pCu
CpoVi33xV7PirsVU/qtsAAIkor+oo4jZ/wCYf5XviqpirsVfOf5x/m15bn8/eTtONrqXHy5r0txq
I+pyfvGs1aMG32rN8VT8O1N8Vd+XP5teW7v88PON/wDVtTCeYJNG07SlNnIPTKQmKQ3Ip+6HqsCC
x+zvir6MxV5B+fH5ReTda8t+YvOBjmsPMenaTeTG/sZTC06wWzMIblaMsiMq8G25Fdq0xViX5V+b
vzB8mXv5d+XPMF7DrflXzppcLaHKIxFdWDx2scv1c8f7yNBKiVbcjeooVKr6MxVgfm38odM13zGf
MthrOqeW9cmtxZ3t5pE6wm4gX7Kyq6SAsv7LChH0CirwuN00Z7TW/JlqlxpOnasnlT8vpL9jLHd6
xqLML/WLhl4mT+7McbD4fADjTFXrGleYPzJ8qfmN5f8AK3m/V7XzHpvmqG6+pahFaJYSW11ZRes8
bIjOro6bKTuT4U3VSj83J7/8yPNz/k7pMVtbwW1vFqnmDW7qP1Xtk5KYls46r+9PMVavRiPHFWK+
WtQtvyS1PzLYecbcSa7f211eaB55l9SY6ksUfNbSV5GkMcqsi/ADRjT/ACSyr3D8rdY1/Wvy90HW
Nf4fpbUbRLq49NPTWkxLx0Xt+7ZcVZOIohIZQiiQjiXoORA7VxVdirsVdirHvI/l7zBoOkzWeua/
J5ju5LmSeO+mhEDJE4XjDxDy1CUO9e+KshxV2KuxV2KuxVifmDyIdZ8/eVPNjX3op5WW/Edh6XL1
21CAQFjLzHDgFrTia+2Ku8meQv8ADeu+atXa9F5L5mvxfFBD6XoKqcEi5c5PUp/Nt8sVZZiryH8z
PyV1XUrfzNqnlHzDqWnajrdpcfX9CWVJbG/la2MQj4TlVhaUKsZfl8I6UxVr8p/yNfQ30DzJ5r1O
81bzLpemw2tjY3Lp9W0wGARvBAsZdWMYrHz5UPXrvir1/FUk866Fqmv+V9R0XTNT/Q11qERg/SIi
9do43NJOCc4viZKqG5fDWuKsf8y/lFoWq/l9YeTdPnk0iLR2t59Fv4AGktrm1NY56HiHYkty3Fan
cHfFUD5c/LDzQfOdh5u87eZF17UdGt5bfRbe2tFs4ITcrwnmYBn5ySJ8PYfhRV3nX8pNS1LzhF52
8o+YZPLPmgW31O8m9BLu3uoAQVSWF2UbUG+/QbVFcVSbW/yM80edikH5jecpNU0m3YyW2k6ZZxWE
YmKFFleQmZ3K8jQH+JGKs/8AIHlzXvLflu30bWdb/T8ln+6tb9rf6tL6CgBEl/ezCRlG3Pao6iu5
VZHirsVdirsVdirsVdirsVdirsVdirsVdirsVdirsVdirsVdirsVdirsVdirsVdirsVY75N/MPyf
5zivJfLWofX49Pl+r3bejPDwkIrx/fJHXp1FRirIsVdirD3/ADc/L1NNn1JtWpZW2qnQJpfq9z8O
pChMHH0uR6j4wOH+VirMMVdiqR+bvO3ljyhYW9/5ivfqVpd3KWVvJ6Usxe4lVmRAsKSNuI23pTFW
/wDGnlr/ABd/hD65/wA7ELX6+bH05f8Aeblw5+rw9L7X7PKvtiqd4qw38x/zW8oeQ9KubjVb+3Gq
LbS3Gn6Q0vCe5dFYxxqFWRkWR14cytBiqD/Lf86vI3nmysls9StrfXbiFZLjQ2mrPFIV5PGnNYjL
w7si4qz7FWE+evzl/LzyPfQ6f5h1P0b+eMzJaQxS3EgiFf3jrEr8F+E/a8MVT7y75v8ALXmPQI/M
GjahFdaPKrOLsEoqhPt+oHCtGVp8QYCmKu8p+bvL/m3Rk1ry/cteaZK7xxXJimhDtGeLcRMkbMA2
3ICmKqHnPz55S8l6WNT8y6jHp9qzcIuQZ5JH68Y40DO58aDbvirHPJv5+flX5v1dNH0XWQ+pygmC
2nhmtzLQVIjMqqrNQfZrXFXoWKpOnm7y8/myTykt3XzBFZ/pJ7L05drUyCL1PU4+l9tgOPLl7Yqn
GKuxV2KvnX/nDb/jlecv+2qv/EGxV9FYq7FXhE35D+b38p6jo4vNP+s3fnVvNEbmSb0xZEKPTY+j
X1vh+zTj/lYq93xV2KvmX/nJaz/Mq680eV9KfU9OOiatr1qvlyz4OJorlQsSyXLBfiRXnP2a7HFU
t8t6X+dV5/zkJ5h9PV9I/wAT6Tpttb6nfNA/1VrWcQTKkKcOQk4kfER44q+rMVfHX5z6Vc+V/wAy
/O+u+bvLs2taT5i0y4tfLmshBNDaXM1sIrdjy+BGiYcd6Mv2kr3Venf84/W35Ma9ofla+0yLT288
6BZILoxJ9XvBKYTBM8qUjM4o5HMhgDShrir3fFXz1rfmGy/Lj/nIPzJ5n816fctovmHTrWLRtVgg
e4VHhiijkt/h+yZHiO3+rXY1xV5/5cutdPlK58hWkbeXG8/6vd6xcLcARDTPLYCCSaQNxEYlETIl
aBlX/KU4q+mfIPmL8t59Nt/L3k3V7C9g0m3SKOzs7iOV0hjAQOyqeRqerdyfHFXl/wDzlTotxajy
p5/Vba8tPKd6HvNJu3VFuEmliYBA+zEmHiygE0NaGhxVjUGqy/nZ+Z/lrzboel/oXyh5ImS51LXL
z045ZZImjuTA3FiOKekAN6KrMxpUDFX0zYajp+o2kd5p9zFeWctfSubd1ljbixVuLoSpowIPvirD
LfyHq8f53XPntprc6RNoA0hYAz/WfXF0k/Irw4cOKdeda9sVZ3irsVdirxP/AJxi0nynp2neZ18u
+YH1+OXUA9272Ulj6MnE/uwJHk5/6wpir2zFXYq7FXYq7FXyv+cHlP8AMm4/OXyjpjecPVk1TUL6
+8u1tYwNLRGEiDr++4ooX4v5ffFVP8pPJ35lah+b3nS7h85cLzRb+yttevjZof0kiM4aIA0EXFbf
iePiDir6sxV4T+cP566Fpll528j69pt9pl1cabd2uh37xM9te/WLMopVgAV/fOVrQrtUkdMVeP8A
5XQaZ5j/ADK/LiTyNpU9teaDZ25846nGhhgdo1pKWptVkqhY7yFqb9Sq+1sVSvzT5k0vyx5d1DX9
Vk9Ow02Fp5jtU8fsoterOxCqO5OKvlrzz5W8y3n5N63+ZWtwyfprzdf2d3qNvGSWttBV/wDR7dR2
WvpOfbjy3BxVPmu/y11D87Py1P5UxWwkt47l9bfS4vSRbIxKIxc0UDnx9QNz+LcA7lcVU/zfv9Jt
P+cjtGm/MqN5PIUdoDpAmR5LL1uHxNJGgYPSc/GKHbhy+HFWG/mpr/lHRfMN7e/k1rf1mTzTaXNp
5i8uWMEslv6ckL8riKihFKhmai7oakfCSMVfQX/ONl75al/KDQbLQ79b36hEU1BRUPDdzO1xNG6n
cUeU8T0I3GKvT8VdirsVdiqC0zRNF0pZV0uwtrBZ25zLbQxwh2/mbgFqfc4qjcVdirsVdirsVQs+
k6VPfwahPZQS39qCLW7eJGmiDAhhHIRyWtd6HFXWmlaXZT3M9nZwW094/qXcsMaRvM+/xSMoBdtz
ucVRWKpf5g0LTdf0S+0bUo/VsdQgltp1GzcJkMbFTvxajGh7Yqt8t+XdL8uaFZaJpcZjsbCJIIFY
8m4oAoLN+01BucVTLFUNqOmabqVq1pqNpDe2jkF7e4jWWMlTUEo4ZTQ4qrvDE8TQuitEylGjIBUq
RQqQdqUxVL9H8seWtFaVtG0mz0xp95zZ28UBc9fj9NV5fTiqI1HStL1O2NrqVnBfWxIJguY0lSo6
Hi4YYqhdF8q+V9C5foTR7HS+Y4v9StobeorWh9JV774qq6Z5e0DSXmk0vTbWwe4p9Ye1gjhMnGpH
MxqvKnI9cVR+KuxV2KuxV2KuxV2KuxV2KuxV2KuxV2KuxV2KuxV2KuxV2KuxV2KuxV2KuxV2KuxV
4l/zjf8Amx5v8/X3m6HzDJBImjy2iWXoRCKgma5D8qE8v7lcVe24q7FXzNq35+fmFa+SPPOsRTWw
vdA8xLpWnkwKVFsZHWjrX4moo3xV9JWEzz2NtNJ9uWJHamwqygnFVfFXiH/OQv56P5Os7PT/ACpq
1j/iT68kOpWsvGZ4IDEzVkjr8HxMhqcVQR/5yL05vztGip5h01PIMdl6kl+SnBrn0q8BcFqfaYfd
TFXvmKvnj82Pz585yecNU/L38vtGivb2ytpf0rf3BPwKsXOZogJIlQRK1Obtu2wXpVVjv/OM/n/8
2Y7bR9Jm0JtX8o6nezR/4gZ5XmgcAtJ6snKUBV4fCrotenLfFX1Tirwvzt+YX5r67+bt7+XP5dzW
OlyaLZJe6jqN+nqczIkbhRVJQF/0iNQAla1NaYqv8hf85CzS/lZ5h8x+cYIodY8rTvY3UcB4pdTk
AQKg+LizueDUqBTlsNgqz38oNQ886r5HstY86NENW1Ot1FawxeiILaQAwxstSSxX4zXcVp1GKsN/
5yD/ADj8yeSrjQvLvlW2hk1/zC5WK7uhWKJeaxIFBKqXZ36seKgbg12VYXqn5tfnl+WPm/QrD8xZ
tM1rSNbahaxULIiBlSQoVSA84zIpoyEN0B7hV9NYq8vufzB8xx/85CWvkZXi/QMujm/dPTHq+sC4
r6nWnwjbFXqGKuxV2KvmD/nC3/jqfmF/xnsP+J3uKvp/FXYqxWb8rPy9msNQ0+XQrZ7LVbkX2oQE
NxmuQSfVff7VWOKsojjSONY4xxRAFVR0AAoBiq7FXxp/zkZq35N6j+ZGjfo9ka/j1aWDz5c+neKU
S2lhgZWDJR6KkorBX7PeoxVLfJsf5Aal+emsW93FE3ke9hitfLVrwvwr3shto1oAPWWrerUy0Xf5
Yq+3cVfM/wDzkX+T1xo82s/mx5W1qXTL5I1/S1kKgSCbhbOY3U7c1Yc0cENuajpirGfyI/NHzX+X
N55b8j+Z9HRPL/mgwXmj36keqqamV9KXkrNG8ZZl5KeLJvXwxV9fYq8f8/fkl5mvvPz+fPInmb/D
mv3lsLPU/UhE0cyKqoGFeQHwRoKFTuoYEHFXz1qWm6T5Zvr7TZZZPMflnyTeLqPmac0jj1TXpyIY
bSv7zjFFxYNy5GgmP7SjFXtXlr8+vzDtPNXlfSvP3la30nTfOIRdEvLSRiweUqIxIheXvLGGU8Sv
IH2xVJf+csNV8u+Yb3R/IOm6XNq/n95Fl057dgn1VJ6ckdmBD+qqVK7BQA5YU3VeaaLqC6B+YWqX
n51ve33mzy3YGfyzaX0nOyuZrWNngjaRQ9RIygxsPhZq8qtsVX1Z+UHn698++R7XzPd6cNLN3LMk
NushlVkhkMfMMVTqysOnbFU+byp5cbzInmZrCI69HB9VTUaH1RDueFa0p8RxVNsVdirsVefflVpP
5q6fca23nu406eGZ4TpA0+OOMqqmX1fV4RQ12aOla98Veg4q7FXYq7FXYq8U/MP8hovMX5qeWfMF
jpOlRaBaStc+Y4jFEkl5K8pkYyxiJhPyp8XqHepxVZ+Wv5BQaF+Y3mzzBrej6TLpV5dCbyxbRxxy
/VEWd3VkjaJVgYLwpw6dMVe3Yq+bP+cgvye8/GLzT5p8ueYbq603WBA+reVxHI5l9P0oU9JY+auV
EakVQMAPtHFVP8p/+cdvNN9qXlXzn581s3Uek2dlLo2iBZA8EcKLJbQTeosfp+iackVTVq1Piq+l
8VSTzsnmqTyrqUPlQwr5gmhMVhLcsUijdyFMpIV941JZRTcgV2xV5ev/ADjpbf8AKjJfIS3SRa7d
smoXeqHkyPqIYOSx+0Y6D0gaVp8VK4qkuh/lB+cPmHzb5PvvzCu9Ng0nyKyPpy6eWaa5kiaNkZ6i
g5G3j5H4dhstSTiqYfm5+R3nTU/zCs/zH/L/AFW3svMVsiLNb3dQpaNDEHjbjKp5RHgyOtKd96Yq
xfzL+R356/mheWZ8/ajo+l2mnq6wSWkIlnJYD+QKSrEbgygDqFxV6l+Rnlr8yPKflpfLHm1NPmst
OHHSb2xkYuYyxJiljMcfStQ/U999yq9LxV2KuxV2KuxV2KuxV2KuxV2KuxV2KuxV2KuxV2KuxV2K
uxV2KuxV2KuxV2KuxV2KpPo3nLyhrd1LZ6Lrmn6ndwKXnt7O6huJEUEKWdI2ZlHI03xVOMVdiqRH
z75GWG+mPmLTBDpciw6nKb23420kjFESdudImZ0ZQGpUgjFU4tLu1vLWG8s5o7m0uY1mt7iFg8ck
bgMjo6kqyspqCOuKquKpdrfmTy7oNvHc65qlnpVvK/pxTX08VsjPQnirSsgJoCaYqpnzZ5WGrw6K
dZsRrNwokt9N+sw/WZEKlwyQ8vUYFAWqB03xVNcVQeraxpmkWMl9qVzFa20SlmkmdIwaAmgLlRXb
xxVin5W/m95X/MnTru+0KO5thZTehLb3qwpMfhVuapFLN8HxUqT1xVm+KpP5h84+U/LcccnmDWLP
SlmqIfrc8cJenXgHILU70xVH6dqem6nZRX2m3cN9ZTjlDdW0iyxOK0qroWVvoOKobRvMvlzXBOdE
1Wz1QWzBLk2VxFcCNzWiv6TNxO3Q4qiNT1bS9Ks3vtUvILCyi/vLq6kSGJf9Z3KqPvxVJ9C/MXyF
r939S0XzFp2o3m5Ftb3MUkpA3JCBuRA8QMVZFiqXv5h0CPWY9DfU7Rdalj9WLS2njF00YBPNYC3q
FaKd6dsVTDFXYq7FXx//AM4d/wDk0/NP/MBL/wBRkeKvsDFXYq+Sbn8nPzLfy1+bVouhym48w6tY
3OjR+pDW4ihvrmWR1+Og4pIp+KnXFX0r+XWm32l/l95Y0y/iMF9Y6TY213ASCUlhtkSRCVJHwspG
xxVkOKvjb/nLrzH59vfMVv5d1TS4rby5DdNJ5evUR1lu2EMay8mMjI3BpqbIuKsZtvNf5wT/AJ7R
63B5cgk896ZB6Q0MRzGGONbP0N4zPz/uZeX971P0Yq+67V5ntonmXhMyKZUHQMR8Q798VfD358ag
dV/Py+07z1fXdl5csnEVr6C8zDbG3DxNCh5D97JQuwBO52NOOKph/wA4uflZpnmbUrbzSuuGz1Xy
7qkcsmlIVLT20apIp+FlkVWkqpJBVgCMVfauKvkP80/8ID/nKC9P5oer/hH6hEdP5+sY+H1NePH0
P3nD6z6v2f2+u2KsQ/Ln8xde8ufldr3lzQTPLqXmvVI9P8tQA/GnqJwupU8HKvDGN/tGo+ycVfWf
5O+RNI8ieSbPy5aSxT38Y9fV5o2DGS7kA9VjTfitOC1H2QO+KvFf+c19M8xyx+XNRVJpfLFsZUvB
EfgjuZGXi0goQC6VVGNabjvuq8h842PkPV/OPlu0/JKy1Aai8cTyqzSl1vOSshUysxVoqEyOD6Y6
g0BOKvv23EwgjE5DTBVErL0LU+Ijp3xV49qnknzTN/zk7pHm6OwdvLtvpL202ock4LKY5wE48ufW
Rf2cVeyYq7FXYq+af+cZvJelaH+YPmC8s/NOl65LPaSI9nYNMZYgblG5P6kca0BHHY9cVfS2KuxV
2KuxV2Kvib/nIA/m5f8A5taTpGsNDJI2pS/4IgU24/cXN4I7Yycehb04wTLvtviqG/Ln/ldWofnr
rF7p7QTebrSRovMshNrwWBJ44LhU5fu6jgF+DfbFX3Fir5P/AOcpPzO8i6suv+TLjSCPNOiy2q6Z
rJjR+SN6cs8Yk2kjoJGHHdWpWvTFXjXkwQw/mR5L/wACz3j6nI1h9d5DiVvWb/S44+NOUHD7XLty
rVd8VforirH/ADnoHkbUNLlvvN2m2N7YaZHJcPPfwxyiGNF5yMGcEqKLvTrir5B1mz1TzD5V83/m
7ZWn6H0iwMWj+TbK2jWFLa0e4WKaSJY+KpRJWUlducj03XFUq0+Dy35V1P8AK3WvIetyXXmfVWT/
ABFaxzCQxzPNCvoPEgDKJDJIhRvtBQe9Sqzj/nKLzfq99+amneSdb1CfR/Iw+pyXbwgkSxzPWa5Z
QP3npbqq7gFa0rirzzz2dH/LjXr1Py082RatoXmLT5rO7hjkEs0UUq8XjmdFVK1PKNlow3BFPtKv
pL/nERrE/lOPS1Fb6/mvp7jUYeZeS3duMUcbhviHKOFWHY12xV7ZirsVdirsVYr5U/K3yD5S1K51
Py7pEen314hiuZ0eVy6M4cikjuPtKDsMVZVirsVdirsVdirHta/L7ydrfmHTvMeqaZHda1pPA6de
M0gaIxuZEoqsENHNdxirtC/L3yboOu6lr+kaZHa6xrDO+pXitIzStLIZXJDsyjk55fCBirIcVYJ+
bP5Q+XvzF0J7G7WGz1Osf1fWhbxzXMSI4dkRiUbi4FCOWKon8uvyp8oeRtKtLfTLC2OqQwLBdayI
ES5uCAAzM/xMORFSvKmKsyxVLvMXl3RvMej3Gjazb/W9MugouLYu6BwrBwCY2RqclHfFVOy8q+XL
Hy4nlq20+FNBSE2w04ryhMLV5IytXlyqeVevfFWM+WPyL/KjyxrS63onl6K21OMsYrhpbif0y1am
NJpJEQ79VAxVOfOH5d+SfOVvHB5m0iDUlhqIZJAyyxg9Qk0ZSRQe4DYqx7Q/+ce/ya0S6+tWPle2
aahWt0894oBFDRLqSZR160xVNvKn5T/l95S1KXUvLekLpl5MhjmeGWfi6E14tG0jIRXcfDt2xVlu
KuxV2KuxV2KuxV2KuxV2KuxV2KuxV2KuxV2KuxV2KuxV2KuxV2KuxV2KuxV2KuxV4F+UP/OSWt+e
vzEbyrd6NbWduI7mT6zFJIz1g6Cjbb4q99xV2KvnaT/nKDXkt/zAl/QlqT5OkjS2HqSfvw+orZfv
PD4X5bd8Vev/AJW+cbnzn5B0jzNc26Wk+pRu728RLIpSV49i2/7FcVZViryL8+fz1b8trbTRplva
6pf3k0kdzaySkNCsaKwLBCWBPMUriqRRf85KXb/mnpHk36np/wCj72G0e+1T6yeMTz2i3MoBNE+A
txFTX6cVe9AhgCDUHcEdCMVeL/m9/wA5PeWvy/1l9AtdOk1vW4AjXcKyi3gh9RQyq0pWUl+LBuIT
6cVeV/kx/wA5ReY5fOkmnebmu9XttduYbXSYYFgrayzTFFWnGIup9RVJ5V26HFX15irw382v+cid
Y8ted18jeT/L51/zAkaSXKn1Hozxev6UcMI5uRDRy3LYYqmf5Yf85F6B5t8j655k1e3/AEPL5aRZ
NWhD+ohSRWMTRMQpJlaNlVOvLbeoxVNvyP8AzJ80fmHoN35g1XSIdJ0tpjDpQjd5JJglfVdiwUcV
NFBHUhulMVQX55fn3pv5YxWdpHYnVNc1BGlgtS/pRRxKePqSvRm3bZVA3odxiry+w/5zE806Zqlt
H5z8nmx067pLHJD60Ewt2PwyxpcDjMPkVBxV9P2F7a39jb31pIJbW7iSe3lHRo5FDIwr4qcVeZ+Y
Pzh1LS/zx0T8uY9PhkstVt1nkv2dxKhZJmoFHw/7pH34q9TxV2KuxV8Qf84sf+T5f/jBf4q+38Vd
iryR/wDnGXyG0XmqI3+qcfN7q+pH1besZS7W9Hof6P8AD+8Wnxcvh998VZ/5J8oab5O8rWHlrTJZ
prHTkZIJLlkaUh5GkPMosandz0UYqnmKvhH/AJyhsvKJ/Mu5v9E1pdQ1C/nlj1u1pRbKe29O3EZN
PFGr8sVYxpfk38vrz805fLkvmUw+Ug8iQeYCq1k4xVSi9Pjl+HFX6I2sAt7aKAHkIkVAx6kKKVxV
8Z/85Lfl75o8l/mEfzKsZYpNM1DUIZbSZwkjwXyx+oI5IZAVdT6DMpoRTY+6rGPyN/Mfy35b8+TX
XnHRkvV1i6t7iLUCi+pYXHqNIlzGjDlxPrVPFgePTl0xV974q+dfzX/Jv80Y/wA3E/Mz8upbefUZ
kUSwTtGjQyLa/UyQJv3bo8I8ag9sVfPWreXtW8qTXvkbVL9Y3uJLfUPOL2pEwgitgzQwepVVkkHr
livLi0jRrXkMVe9+Qf8AnK3yJZHR/LX+G7rQfLahbLT9QeRZUREPBXkUIvf+8ZWYg+OKpb/zmrZ+
TZE0e8k1H0vN8KGOHTUXn6tkzkl5CP7rg/LgT9rcUNKqq8L1Hzhq/n3UbFPPmum3stAsTFB+5rO6
QgVhiVQqtcTUHxSso23PQFV9sfkf+YXlvzn5NVvLmn3WnaVobR6TBDd8C3G3gj4gFGcGiMoxVF6r
+UXlvU/zL038w57m8XWtLiEFvbxvELVlVZFq6GJpCf3x6SDtirN8VdirsVeBflDpX5m2/wCYjTa/
+X+h+X9J9O5A1fT7G0t7nkfsL6sUjvR/2tt8Ve+4q7FXYq7FXYq+UPzh/wCccdV1L827K78t6Nc3
GgaxOl55jv8A6xFRJ7u9ka64CQqyhIiGFAeuKoT8vf8AnF+8m/NPWE8yaNd2Xku1e6k0Sczx85PT
ulForGN3aphJY1HbFX11ir40/wCcs/JHnvTdbvvNN5qKz+UtavrZLexjlkAiuYrRo4vUt2+DkIop
KOpPU9K4qhfy/wD+cd/zO893/l/XPNsiW3lhLSy+qzyyxSyyaZFEpt4YIYS/ENHQfvOJFSSCdiq+
1cVSfzjqWuab5Y1G80HT21XWo4T+j7BSq+pO3wpyLsg4KTybfoDTfFXz35Z/5xx8zXn5SebH134P
zD81OLhjcOrFBb3K3KxO6ErW4kQs5rTdf5cVefwfk5+eHm208qeSNX8vDSNH8tPdxrqsnBQsV5OJ
Z3dldllKlaJ6Y3792xVnH/OSX5E+f9c88jzp5Vtl1WKSGAXFmGjE0UtuOIKxykLIjKqmgqa12pir
B/NX5X/n9+aHmKK/1fylbaXfpCIp78KlmkqoPgM3KRy7CnEFVrTboBRV7B/zjRYfmZ5P05/KHmfy
jJY6Y0slxbaxE8DUlfd1uVWVmYHiAjqNtgRTcKvfMVdirsVdirsVdirsVdirsVdirsVdirsVU57e
3nQJPEkqA1CuoYV6VocVXoiIioihUUAKoFAANgABireKuxV2KuxV2KuxV2KuxV2KuxV2Kv8A/9k=
									</xapGImg:image>
							</rdf:li>
						</rdf:Alt>
					</xap:Thumbnails>
				</rdf:Description>
				<rdf:Description  rdf:about="" xmlns:dc="http://purl.org/dc/elements/1.1/">
					<dc:format>image/svg+xml</dc:format>
				</rdf:Description>
			</rdf:RDF>
		</x:xmpmeta>
<?xpacket begin='﻿' id='W5M0MpCehiHzreSzNTczkc9d'?><x:xmpmeta xmlns:x='adobe:ns:meta/' x:xmptk='XMP toolkit 3.0-29, framework 1.6'>
<rdf:RDF xmlns:rdf='http://www.w3.org/1999/02/22-rdf-syntax-ns#' xmlns:iX='http://ns.adobe.com/iX/1.0/'>

 <rdf:Description rdf:about='uuid:0edbebd0-7436-11df-8f18-001124740a56'
  xmlns:pdf='http://ns.adobe.com/pdf/1.3/'>
 </rdf:Description>

 <rdf:Description rdf:about='uuid:0edbebd0-7436-11df-8f18-001124740a56'
  xmlns:tiff='http://ns.adobe.com/tiff/1.0/'>
 </rdf:Description>

 <rdf:Description rdf:about='uuid:0edbebd0-7436-11df-8f18-001124740a56'
  xmlns:xap='http://ns.adobe.com/xap/1.0/'
  xmlns:xapGImg='http://ns.adobe.com/xap/1.0/g/img/'>
  <xap:CreateDate>2005-10-18T08:31:30Z</xap:CreateDate>
  <xap:ModifyDate>2010-06-10T02:17:52Z</xap:ModifyDate>
  <xap:CreatorTool>Illustrator</xap:CreatorTool>
  <xap:MetadataDate>2010-06-10T11:12:27+09:00</xap:MetadataDate>
  <xap:Thumbnails>
   <rdf:Alt>
    <rdf:li rdf:parseType='Resource'>
     <xapGImg:format>JPEG</xapGImg:format>
     <xapGImg:width>24</xapGImg:width>
     <xapGImg:height>256</xapGImg:height>
     <xapGImg:image>/9j/4AAQSkZJRgABAgEASABIAAD/7QAsUGhvdG9zaG9wIDMuMAA4QklNA+0AAAAAABAASAAAAAEA&#xA;AQBIAAAAAQAB/+4ADkFkb2JlAGTAAAAAAf/bAIQABgQEBAUEBgUFBgkGBQYJCwgGBggLDAoKCwoK&#xA;DBAMDAwMDAwQDA4PEA8ODBMTFBQTExwbGxscHx8fHx8fHx8fHwEHBwcNDA0YEBAYGhURFRofHx8f&#xA;Hx8fHx8fHx8fHx8fHx8fHx8fHx8fHx8fHx8fHx8fHx8fHx8fHx8fHx8fHx8f/8AAEQgBAAAYAwER&#xA;AAIRAQMRAf/EAaIAAAAHAQEBAQEAAAAAAAAAAAQFAwIGAQAHCAkKCwEAAgIDAQEBAQEAAAAAAAAA&#xA;AQACAwQFBgcICQoLEAACAQMDAgQCBgcDBAIGAnMBAgMRBAAFIRIxQVEGE2EicYEUMpGhBxWxQiPB&#xA;UtHhMxZi8CRygvElQzRTkqKyY3PCNUQnk6OzNhdUZHTD0uIIJoMJChgZhJRFRqS0VtNVKBry4/PE&#xA;1OT0ZXWFlaW1xdXl9WZ2hpamtsbW5vY3R1dnd4eXp7fH1+f3OEhYaHiImKi4yNjo+Ck5SVlpeYmZ&#xA;qbnJ2en5KjpKWmp6ipqqusra6voRAAICAQIDBQUEBQYECAMDbQEAAhEDBCESMUEFURNhIgZxgZEy&#xA;obHwFMHR4SNCFVJicvEzJDRDghaSUyWiY7LCB3PSNeJEgxdUkwgJChgZJjZFGidkdFU38qOzwygp&#xA;0+PzhJSktMTU5PRldYWVpbXF1eX1RlZmdoaWprbG1ub2R1dnd4eXp7fH1+f3OEhYaHiImKi4yNjo&#xA;+DlJWWl5iZmpucnZ6fkqOkpaanqKmqq6ytrq+v/aAAwDAQACEQMRAD8A9KaVpWlnS7MmzgJMEdT6&#xA;afyD2xVFfonSv+WKD/kUn9MVd+idK/5YoP8AkUn9MVYdoXl7RdY1XVJNTtEu2gWxjhMlTwU2cbEL&#xA;vt8RJxVfPc6T5P8AMkUFvczR6XPYzXF9pxkmuhG6zwQWrW8TGV4zK8zRLFGKSHoKqcVT2z80ST3U&#xA;UFxoup2KznjBPNCkkZr05fV5J2iH/GUL74qx3QfLmn6rq2ryXMt7GyrYoBaX97ZrT6lGd1tZoVJ3&#xA;+0RXFVmi+U9Ptm1ryiZJYLkTW2q2GrkrLeTRJMJrdpppQ5ne1uYSh9Tl+74cqljiqcT6t5q0SW1b&#xA;WVs9R0y5uYLN7+zWS1mhkupVggLW0j3CujSyKrMsoIrXiRWiqaaBpttbWwu4gRNfRW7zkmoJjhWN&#xA;aDt8K4q1rflnTtYlgmuJLiC4t0kjiuLSeS2lCSlHZfUiKvx5wo1K0PEVqKgqoWLyfG15b3Gparf6&#xA;qtnIJrS2unhWFJENUdktorf1Sh3X1edD8X2hXFV+lT+Y/wBF2dLGzI9COhN5KP2B/wAu2Kor6x5l&#xA;/wCWCz/6TJf+yXFXfWPMv/LBZ/8ASZL/ANkuKsVj/Mk211Lolh5Z1nWZ9KgtReXFgtl6KtPbrMig&#xA;3F1buTxb+XFU28sfmDouv6jPpH1e80rW7aIXEuk6nA1tcGAnj60e7Ryx8vhLRuwB69sVZPiryDQP&#xA;OEOgec/NiSaTquoiRNJk56ZZS3iqF06MUb060bwGKpLrnnfWtZS9/NHRLQaZpPl+yl0axkv0WS6F&#xA;xeX9vDe3NzbQtI8UdlHEX9OQhj1IAxV6D5d0nzDcSWWp2P5hS67Ycle7ie202W2mQ9RE9pFA8VV6&#xA;Hm1OpBxVb5Asb2HzN5puZreSK2uxpRtZ3RlSUR6fGjmNiKNxYUNOhxVLbv8ASPkv8wtYv7bR7/Vf&#xA;Lnme0S+uIdNgNw0Op2hSCU8Kqi/WLZlc1NWMZ48m2xVjep23lLVPMOiXf5c+X73TPNCajbSX+owa&#xA;Xd6RbpZCUG8W+aaG2imDxclC/Exbpir2XSf+OVZf8YIv+IDFUXirsVSLSvL9gdLsyZbzeCM7X14P&#xA;2B4S4qiv8PWH+/bz/pOvP+quKu/w9Yf79vP+k68/6q4q8P8ALln5685/mJ5z0q3866loWneXRpS2&#xA;VraLE6Uu7UswIkG1Gir9OKsh8v8Am3zj5Q/M5vJPnHX4dd0a60qTV7PXLiKKymtUhcq6XBTjEUop&#xA;+M+3yxVmGk/nH+Vur6lFpmneZ9PuL+dxFBAJgpkkY8VSPlxDsx2AXr2xV5B5I8v+dNY/NX8yB5Y8&#xA;1t5XeEaN9YK2NtficvZv6fIXH2fT4t9k78t+gxVLdD/La985WP5k+Vde1GWb81LZ4LaXWryRmhls&#xA;RKl1aiGNVHowS+kOaqpp8J/ycVZvb+ebzy7d6Fpv5jfl3baNbPdQWmna9YNbXlhHd1pC4QKJLUVX&#xA;4akkYqzfyH5Bs9B1vXfM0N3JNP5pj097i3dVCQmzgaNQhG55epvXFUH5s/KKHW/NzeatO12+8var&#xA;NYDTbufTiiPLGkomjYswahV0UNt8SfDiqXy/k75k1m70wec/O935h0jS7mO9j0sWVrZLLPASYmmk&#xA;gHN1Wu474qzTStVvxpdmBo14QII9w9nv8A8bjFUV+lr/AP6st5/wdn/2UYq79LX/AP1Zbz/g7P8A&#xA;7KMVYXL+e35TaEU0jVvMMNrqNlHHFc27RXDFHCKaErGy9+xxVlPlPz55O83W8lx5b1e21NIaessL&#xA;/vI+X2fUjajpXtyXFU+xV8neQvMnkDQvzt8+zec7izgtJo4VtjfRiRWcBCwQFX344qlzeddA0T8z&#xA;/MH5peQNHb/BejacLW6aCFrO0vL65dIVRQVXgPUkSRvh/YJpVhVV7D5Y81/85F376Pql7oHl658v&#xA;ao1u8q2VxMl1Ba3BUmZnkkeJ/TjbkQgNe2KsF/KLy75f1z88fzDt9a0y11O3SG3KRXkEc6AngCQs&#xA;isBiqX2d/wCVvyu87efPy783Wct35B1iJNV0vT41eakcki8liQFWpGpbkwNR6NeuKsevNQ8i6Brv&#xA;lyb8ivM2rXmsXuoRx3Hlv/SGtWt25F+aTRxd6Ahi2x5VFK4q+vdGt7dNPtZUiRZZIIubqoDN8A6k&#xA;bnFUW1vbvKszRI0ybJIVBYD2PUYqpW2mabazST21pDBNL/eyxxqjN/rMoBOKpXpWlX50uzI1m8AM&#xA;EewSz2+AeNviqK/RN/8A9Xq8/wCAs/8AsnxV36Jv/wDq9Xn/AAFn/wBk+KvnXTfze/PfXfPOu+Uf&#xA;JlrpE6aDz4LdoyOYInWJauZVUtVh4Yqyr8r/AM8/Ol7+Y0n5b/mFosGmeYuDtbT2ZPBmji9fiyl5&#xA;lPOEFw6vTalPBV7PbaxpN1O1vbXtvPcJ9uGOVHcfNVJOKvjnyVqH5oWP51+eZfy80yy1TVSs4uob&#xA;5uKrB66HlHWa3HPnxAqTiqR2fl7zn+Zq+d/NDXc9x+Y9hJFDPoUMYgcWZrBMIaMCWRY/SMYFeNQe&#xA;TPiqc+QI/wAgYNV8vab5l0XXfKvmu1ltWkv7iRhby3UTLX1A/wAUcckg3pEKA/aHXFXuX5T/AJQa&#xA;35Z/MfzD51u722msPMEDfVraL1PWj9WVJh6nJQuwWmxxVIfNP/OPv5gL+Z2secvIfmS28vrrAVpw&#xA;RL6okJjkmFFRkZZJoQ7VPcimKoLXfyE/Ojz7qOlw/mP5p0y60PTJTIosIitw6vxEgoILZVZ1QCvI&#xA;hfDFXuOleYLAaXZgxXm0EY2sbw/sDwixVFf4hsP99Xn/AEg3n/VLFXf4hsP99Xn/AEg3n/VLFUrs&#xA;fPXki2sre2ufMOmQXEEaRzQyXlujo6KAyspcEEEUIOKp9Y6jp+oQC4sLqG7tz0mgkWVD/skJGKon&#xA;FXwf5N8meT/N355eatL823jWOkx3GqXJuFnjtqSR3dFBklDLSjHFVDyx530T8pfzpv5/Lmo3Gr+T&#xA;7aSa3kELo/1uExHgpI9ON/TnIpINtqjY0Kr3bSv+crrq7n083PkDVrew1KWKG1vlbmjtOwWPgXii&#xA;RuRYU+PFXi/kD8udB/MH8+PNeg63JcRWYm1S5V7V1SQSR3fFd3WQU+M9sVSzQNH8o6Lrvmv8svzC&#xA;vP0TYLc87LXo4DJNDe2bMkLERq7tDPBMxKk0G1OJqcVTQ/mP5u/LTVtHtPJ35gjzppNFRNLEc5iW&#xA;JCqpbmKcSenzBooheq07bVVfYPlfyN5O0yaPXdP0a0tdZvIeV1qEUSrPIZqPKXcCp5tucVU9e/Kr&#xA;8t/MF/NqOs+XLG+v7jj693LCvqvwUIvJxRjRQB1xVR0T8nvyv0PUI9R0ryzYW19CeUNwIg7o38yF&#xA;+XE+43xVNNKg8x/ouzpfWYHoR0Bs5T+wP+XnFUV9X8y/8t9n/wBIcv8A2VYq76v5l/5b7P8A6Q5f&#xA;+yrFXzRd/wDOYusaZqVxodv5Tjuzp0slojrdPycW7GPlxELUrxrirO/yl/5yl8vee/MEPl2+0qXQ&#xA;9Xug31KsouYJXRSzJ6nCJkcqCQCtO1a0qq9vxV+eXlrz3deRfzk1HzJa2H6TmtLzUVFoXMYYStJG&#xA;TyVXI4hq9MVSLU/MHmPVvMGref7J106/N8bmU2LNFJbvdFyskfH41QH4fUr9ojerYqz38vtQ1HWb&#xA;7SxH+bt7pes3EsSz2F9JfwpRnHNEuucsLMR9kOAGOKvS/wAn/wAkvzD0P86f8YanYRR6BNJfzJcC&#xA;eF2KXSSekfTVi/xcx22xVjd7+Qf52+UvP+sat5C02CfS55riOzWSWxeOSynfmIZYLpwpAFBuOori&#xA;qWXX/OOP51+bfMNs+reXNL8s2polxcWZsYYFXkSz+hZySMz0O3w/dir7E0rVdLGl2YN5ACII6j1E&#xA;/kHviqK/S2lf8tsH/I1P64q79LaV/wAtsH/I1P64q//Z</xapGImg:image>
    </rdf:li>
   </rdf:Alt>
  </xap:Thumbnails>
 </rdf:Description>

 <rdf:Description rdf:about='uuid:0edbebd0-7436-11df-8f18-001124740a56'
  xmlns:xapMM='http://ns.adobe.com/xap/1.0/mm/'>
  <xapMM:DocumentID>uuid:831aaf18-81ce-11da-9137-001124808cba</xapMM:DocumentID>
 </rdf:Description>

 <rdf:Description rdf:about='uuid:0edbebd0-7436-11df-8f18-001124740a56'
  xmlns:dc='http://purl.org/dc/elements/1.1/'>
  <dc:format>image/svg+xml</dc:format>
 </rdf:Description>

</rdf:RDF>
</x:xmpmeta>
                                                                                                                                                                                                                                                                                                                                                                                                                                                                                                                                                                                                                                                                                                                                                                                                                                                                                                                                                                                                                                                                                                                                                                                                                                                                                                                                                                                                                                                                                                                                                                                                                                                                                                                                                                                                                                                                                                                                                                                                                                                                                                                                <?xpacket end='w'?>
			</metadata>
		<g id="レイヤー1">
			<g>
				<rect x="0.125" y="0.125" fill="none" stroke="#000000" stroke-width="0.25" width="100" height="150"/> 
				<rect x="0.125" y="150.125" fill="none" stroke="#000000" stroke-width="0.25" width="100" height="150"/> 
				<rect x="0.125" y="300.125" fill="none" stroke="#000000" stroke-width="0.25" width="100" height="150"/> 
				<rect x="0.125" y="450.125" fill="none" stroke="#000000" stroke-width="0.25" width="100" height="150"/> 
				<rect x="0.125" y="600.125" fill="none" stroke="#000000" stroke-width="0.25" width="100" height="150"/> 
				<rect x="0.125" y="750.125" fill="none" stroke="#000000" stroke-width="0.25" width="100" height="150"/> 
				<rect x="0.125" y="900.125" fill="none" stroke="#000000" stroke-width="0.25" width="100" height="150"/> 
			</g>
			<g>
				<path d="M28.125,950.125c8.0859375,0,11,2.5039062,11,8.5c0,5.8242188-4.1875,9.5-11,9.5h-5.5v14.5h4.5
					c3.7763672,0,5.8056641,1.921875,7.2998047,6.5l6.2001953,19h20.5l-7.2001953-20
					c-2.3818359-6.6152344-4.8378906-9.7363281-8.7998047-11.9003906v-0.1992188c8.0976562-3.0214844,14-11.0429688,14-19.4003906
					c0-14.296875-9.2490234-21.5-32-21.5h-24v73h19.5v-58H28.125z"/>
				<path d="M75.625,1009.125c15.4980469,0,23.5-6.5976562,23.5-16.5c0-9.5605469-6.234375-15.3710938-23-17.5
					c-4.7207031-0.6015625-6-1.6230469-6-3.5c0-1.9550781,1.4013672-3.0996094,7.5-3.0996094
					c5.5058594,0,10.3964844,0.9101562,17,3.2988281l3.5-13.1992188c-7.3398438-2.3847656-14.6582031-3.5-22.5-3.5
					c-16.46875,0-24,6.4453125-24,16c0,9.6132812,5.9501953,15.3945312,22.5,18c5.5253906,0.8710938,6,1.2734375,6,3
					c0,2.0097656-1.9921875,3.4003906-6.5,3.4003906c-6.8525391,0-13.0234375-0.9101562-19-2.8007812l-3.5,13.4003906
					C58.6728516,1008.1621094,66.4550781,1009.125,75.625,1009.125z"/>
			</g>
			<g>
				<g>
					<path d="M25.625,493.9238281c14.0957031,0,19.1992188,3.9960938,19.1992188,11.7011719
						c0,9.1660156-6.1982422,13.8945312-21.1992188,13.9003906h-6V528.125h6c9.4628906,0,11.515625,1.2890625,14.2998047,8.5
						l8.2998047,21.5H57.625l-8.5-21.5c-2.5087891-6.3457031-5.2363281-10.171875-8-11.9003906v-0.1992188
						c9.0419922-2.7578125,14.5-9.9101562,14.5-19.9003906c0-12.6777344-8.7236328-19.5-31-19.5h-18v73h11v-64.2011719H25.625z"/>
					<path d="M77.125,513.125c5.8935547,0,10.7958984,1.2441406,16,4l2-8c-5.6601562-2.7519531-11.2089844-4-18-4
						c-13.1425781,0-20,5.875-20,14.5c0,9.0058594,5.4912109,14.2089844,19.5,16.5
						c8.0019531,1.3105469,10.2998047,3.5605469,10.2998047,8c0,4.4980469-3.2158203,7-9.7998047,7
						c-6.3037109,0-12.4091797-1.6367188-18-5l-2,8c5.8779297,3.34375,12.4951172,5,20,5c12.8046875,0,20-5.7851562,20-15
						c0-9.546875-5.2373047-14.8300781-19.5-17c-8.0185547-1.2207031-10.5-3.4628906-10.5-7.5
						C67.125,515.5410156,70.03125,513.125,77.125,513.125z"/>
				</g>
				<g>
					<path d="M25.2915039,341.6572266c15.9521484,0,21.7993164,4.3857422,21.7993164,12.6337891
						c0,10.4477539-6.6933594,15.5913086-23.1328125,15.6005859h-8v6.3994141h8
						c10.4047852,0,12.1044922,1.065918,16.1391602,10.7675781l8.5307617,21.065918h8.3300781l-8.7851562-21.3369141
						c-3.0942383-7.4238281-5.6557617-11.2905273-8.9458008-13.0053711v-0.1992188
						c10.1899414-2.5546875,15.730957-9.4399414,15.730957-19.9584961c0-13.3813477-11.3325195-18.5-30.3334961-18.5H7.9580078v73h8
						v-66.4672852H25.2915039z"/>
					<path d="M94.1245117,359.1245117C88.4135742,356.3579102,82.9594727,355.125,76.4580078,355.125
						c-12.3056641,0-19.1665039,5.6166992-19.1665039,13.9995117c0,8.5214844,5.3320312,13.3408203,18.7700195,15.6601562
						c9.2856445,1.6352539,12.4296875,4.3925781,12.4296875,9.6733398c0,5.4663086-4.2509766,8.6665039-12.0332031,8.6665039
						c-6.2084961,0-11.9716797-1.5756836-17.4873047-4.9038086l-1.6791992,5.9038086
						C63.1323242,407.5205078,69.3452148,409.125,76.4580078,409.125c12.340332,0,19.5-5.6455078,19.5-14.6669922
						c0-9.0410156-5.3173828-14.0566406-19.1035156-16.3276367c-9.6860352-1.652832-12.2299805-4.5166016-12.2299805-9.0058594
						c0-4.9501953,3.9658203-8,11.8334961-8c5.8266602,0,10.7529297,1.2207031,16.0444336,3.934082L94.1245117,359.1245117z"/>
				</g>
				<g>
					<path d="M24.9584961,189.3911133c17.8085938,0,24.3994141,4.7763672,24.3994141,13.5673828
						c0,11.7285156-7.1884766,17.2875977-25.0664062,17.2998047h-10v4.2001953h10
						c11.347168,0,12.6928711,0.8422852,17.9790039,13.0336914L51.0317383,258.125h5.2597656l-9.0703125-21.1743164
						c-3.6796875-8.5019531-6.0751953-12.4086914-9.8911133-14.1098633v-0.1992188
						c11.3369141-2.3520508,16.9619141-8.9702148,16.9619141-20.0166016c0-14.0849609-13.9418945-17.5-29.6669922-17.5H9.2915039v73
						h5v-68.7338867H24.9584961z"/>
					<path d="M93.125,209.125c-5.7617188-2.7817383-11.1210938-4-17.3334961-4c-11.4677734,0-18.3330078,5.359375-18.3330078,13.5
						c0,8.0371094,5.1733398,12.472168,18.0395508,14.8203125c10.5703125,1.9604492,14.5600586,5.2246094,14.5600586,11.3466797
						c0,6.434082-5.2866211,10.3330078-14.2666016,10.3330078c-6.1132812,0-11.5336914-1.5141602-16.9746094-4.8071289
						L57.4584961,254.125c5.8041992,3.4477539,11.6123047,5,18.3330078,5c11.8759766,0,19-5.5053711,19-14.3330078
						c0-8.5356445-5.3964844-13.2832031-18.7070312-15.6552734C64.730957,227.0512695,62.125,223.565918,62.125,218.625
						c0-5.8168945,5.0249023-9.5,13.6665039-9.5c5.7597656,0,10.7109375,1.1972656,16.0888672,3.8671875L93.125,209.125z"/>
				</g>
				<g>
					<path d="M35.4326172,71.6992188C47.9169922,69.5507812,53.625,63.1992188,53.625,51.625c0-14.7890625-16.5507812-16.5-29-16.5
						h-14v73h2v-71h12c19.6655273,0,27,5.1660156,27,14.5c0,13.0097656-7.6835938,18.984375-27,19h-12v2h12
						c12.2890625,0,13.28125,0.6191406,19.8183594,15.3007812L53.4355469,108.125H55.625l-9.3554688-21.0117188
						c-4.265625-9.5800781-6.4951172-13.5273438-10.8369141-15.2148438V71.6992188z"/>
					<path d="M92.125,59.125c-5.8125-2.796875-11.0771484-4-17-4c-10.6308594,0-17.5,5.1015625-17.5,13
						c0,7.5527344,5.0146484,11.6035156,17.3095703,13.9804688C86.7890625,84.390625,91.625,88.1621094,91.625,95.125
						c0,7.4023438-6.3222656,12-16.5,12c-6.0185547,0-11.0966797-1.453125-16.4619141-4.7109375L57.625,104.125
						c5.7675781,3.5,11.1708984,5,17.5,5c11.4111328,0,18.5-5.3652344,18.5-14
						c0-8.0292969-5.4765625-12.5097656-18.3105469-14.9824219C62.2929688,77.625,59.625,73.5175781,59.625,68.125
						c0-6.6835938,6.0839844-11,15.5-11c5.6923828,0,10.6679688,1.1738281,16.1328125,3.8007812L92.125,59.125z"/>
				</g>
			</g>
			<g>
				<path d="M27.2919922,798.0576172c10.0888672,0,13.7329102,3.0019531,13.7329102,9.5673828
					c0,6.9384766-4.8579102,10.9648438-14.3999023,10.9667969h-5.6665039V831.125h5
					c5.671875,0,7.7089844,1.7109375,9.6328125,7.1669922L42.4916992,858.125h17.4667969l-7.6337891-20.5
					c-2.4238281-6.5253906-4.9702148-9.8818359-8.5332031-11.9003906v-0.1992188
					c8.4125977-2.9335938,14.1669922-10.6650391,14.1669922-19.5673828c0-13.7568359-9.0742188-20.8330078-31.6669922-20.8330078
					h-22v73h16.6669922v-60.0673828H27.2919922z"/>
				<path d="M76.1245117,859.125c14.6005859,0,22.3334961-6.3271484,22.3334961-16
					c0-9.5566406-5.9023438-15.1914062-21.8330078-17.3339844c-5.8203125-0.8076172-7.5-2.2363281-7.5-4.8330078
					c0-2.6650391,1.902832-4.2324219,8.3330078-4.2324219c5.6352539,0,10.5292969,1.0205078,16.6665039,3.5322266l3-11.4667969
					c-6.7797852-2.5068359-13.5083008-3.6660156-21-3.6660156c-15.3598633,0-22.6665039,6.2548828-22.6665039,15.5
					c0,9.4101562,5.7973633,14.9990234,21.5,17.5c6.3510742,1.0175781,7.4331055,2.0361328,7.4331055,4.6660156
					c0,2.8398438-2.3999023,4.6005859-7.6000977,4.6005859c-7.2060547,0-13.8486328-0.8261719-20.1669922-2.5332031
					l-2.9995117,11.8496094C59.0717773,858.3378906,66.9477539,859.125,76.1245117,859.125z"/>
			</g>
			<g>
				<path d="M26.4580078,645.9902344c12.0922852,0,16.4663086,3.4990234,16.4663086,10.6347656
					c0,8.0517578-5.5283203,12.4296875-17.7998047,12.4335938h-5.8330078V679.625h5.5
					c7.5673828,0,9.6123047,1.5,11.9663086,7.8330078L44.3579102,708.125h14.4331055l-8.0664062-21
					c-2.4663086-6.4355469-5.1035156-10.0263672-8.2666016-11.9003906v-0.1992188
					c8.7275391-2.8457031,14.3334961-10.2880859,14.3334961-19.734375c0-13.2167969-8.8989258-20.1660156-31.3334961-20.1660156h-20
					v73h13.8334961v-62.1347656H26.4580078z"/>
				<path d="M93.625,668.6914062l2.4995117-9.7333984c-6.2202148-2.6289062-12.3588867-3.8330078-19.5-3.8330078
					c-14.2514648,0-21.3330078,6.0644531-21.3330078,15c0,9.2080078,5.644043,14.6035156,20.5,17
					c7.1762695,1.1640625,8.8662109,2.7978516,8.8662109,6.3330078c0,3.6689453-2.8076172,5.7998047-8.699707,5.7998047
					c-6.4863281,0-12.6137695-1.6113281-18.3334961-4.9335938L55.125,704.125c6.434082,3.3603516,13.4399414,5,21.4995117,5
					c13.7026367,0,21.1669922-6.0566406,21.1669922-15.5c0-9.5517578-5.5698242-15.0107422-20.6669922-17.1669922
					c-6.9189453-1.0146484-9-2.8496094-9-6.1669922c0-3.3740234,2.4047852-5.3662109,9.1665039-5.3662109
					C83.0556641,664.9248047,87.9541016,666.0576172,93.625,668.6914062z"/>
			</g>
		</g>
	</svg>
