<?xml version="1.0" encoding="utf-8"?>
<!-- Generator: Adobe Illustrator 11 Build 225, SVG Export Plug-In . SVG Version: 6.0.0 Build 78)  -->
<!DOCTYPE svg PUBLIC "-//W3C//DTD SVG 1.0//EN"    "http://www.w3.org/TR/2001/REC-SVG-20010904/DTD/svg10.dtd" [
	<!ENTITY ns_flows "http://ns.adobe.com/Flows/1.0/">
	<!ENTITY ns_svg "http://www.w3.org/2000/svg">
	<!ENTITY ns_xlink "http://www.w3.org/1999/xlink">
]>
<svg  xmlns="&ns_svg;" xmlns:xlink="&ns_xlink;" xmlns:a="http://ns.adobe.com/AdobeSVGViewerExtensions/3.0/"
	 width="200.25" height="1050.25" viewBox="0 0 200.25 1050.25" overflow="visible" enable-background="new 0 0 200.25 1050.25"
	 xml:space="preserve">
	<metadata>
		<x:xmpmeta  x:xmptk="XMP toolkit 3.0-29, framework 1.6" xmlns:x="adobe:ns:meta/">
			<rdf:RDF  xmlns:iX="http://ns.adobe.com/iX/1.0/" xmlns:rdf="http://www.w3.org/1999/02/22-rdf-syntax-ns#">
				<rdf:Description  rdf:about="" xmlns:pdf="http://ns.adobe.com/pdf/1.3/"></rdf:Description>
				<rdf:Description  rdf:about="" xmlns:tiff="http://ns.adobe.com/tiff/1.0/"></rdf:Description>
				<rdf:Description  rdf:about="" xmlns:xapGImg="http://ns.adobe.com/xap/1.0/g/img/" xmlns:xap="http://ns.adobe.com/xap/1.0/">
					<xap:CreateDate>2005-10-18T08:31:30Z</xap:CreateDate>
					<xap:ModifyDate>2005-10-18T08:31:30Z</xap:ModifyDate>
					<xap:CreatorTool>Illustrator</xap:CreatorTool>
					<xap:Thumbnails>
						<rdf:Alt>
							<rdf:li  rdf:parseType="Resource">
								<xapGImg:format>JPEG</xapGImg:format>
								<xapGImg:width>172</xapGImg:width>
								<xapGImg:height>256</xapGImg:height>
								<xapGImg:image>/9j/4AAQSkZJRgABAgEASABIAAD/7QAsUGhvdG9zaG9wIDMuMAA4QklNA+0AAAAAABAASAAAAAEA
AQBIAAAAAQAB/+4ADkFkb2JlAGTAAAAAAf/bAIQABgQEBAUEBgUFBgkGBQYJCwgGBggLDAoKCwoK
DBAMDAwMDAwQDA4PEA8ODBMTFBQTExwbGxscHx8fHx8fHx8fHwEHBwcNDA0YEBAYGhURFRofHx8f
Hx8fHx8fHx8fHx8fHx8fHx8fHx8fHx8fHx8fHx8fHx8fHx8fHx8fHx8fHx8f/8AAEQgBAACsAwER
AAIRAQMRAf/EAaIAAAAHAQEBAQEAAAAAAAAAAAQFAwIGAQAHCAkKCwEAAgIDAQEBAQEAAAAAAAAA
AQACAwQFBgcICQoLEAACAQMDAgQCBgcDBAIGAnMBAgMRBAAFIRIxQVEGE2EicYEUMpGhBxWxQiPB
UtHhMxZi8CRygvElQzRTkqKyY3PCNUQnk6OzNhdUZHTD0uIIJoMJChgZhJRFRqS0VtNVKBry4/PE
1OT0ZXWFlaW1xdXl9WZ2hpamtsbW5vY3R1dnd4eXp7fH1+f3OEhYaHiImKi4yNjo+Ck5SVlpeYmZ
qbnJ2en5KjpKWmp6ipqqusra6voRAAICAQIDBQUEBQYECAMDbQEAAhEDBCESMUEFURNhIgZxgZEy
obHwFMHR4SNCFVJicvEzJDRDghaSUyWiY7LCB3PSNeJEgxdUkwgJChgZJjZFGidkdFU38qOzwygp
0+PzhJSktMTU5PRldYWVpbXF1eX1RlZmdoaWprbG1ub2R1dnd4eXp7fH1+f3OEhYaHiImKi4yNjo
+DlJWWl5iZmpucnZ6fkqOkpaanqKmqq6ytrq+v/aAAwDAQACEQMRAD8A9U4q7FXYq7FXYq7FXYq7
FXYqhtT1Kx0vTbvU7+UQWNjDJc3c5BISKFC8jkKCfhVSdhiqJxV2KuxV2KuxV2KuxV2KuxV2KuxV
2KsW/Kx3f8uvLruxZmsYSWJqSePjirKcVdirzfyzp2tRXXlUz21yiwXmvtdGRJAESW4mMBkqNg6k
FK9R0xV6RirsVedfmP5ovob/AEXTItC1SZf0zaFbiBbb0rj0Fa6KRFp1ev7mvxKv2T2xVS0PzfqF
z+Y+tyny3q6RtZ6VYlGW0pAUlu5mkkpcmgZbpfs1NF6Yq9KxV4n5/i0vWNG/MyPX72WTW9L0+/fS
NGeeSGKGzSwLw3MNurIk3qPyLSsGofg2pTFXp2ieStJ0PUGu9KmvLeB42jk01rqaazLFgwlEMzSC
NxxpWMrWp5V2oqn2KvPrfyx5b81ec/Nb+ZbGDWJNLubax020vY1mit7V7C3ufUhjkDKryTzSgyqO
R4ha/DiqWadrmpxeU18r6HdSSalf6pqOkaBfuxleHT7S5dJrss1eS2UdYkLV5OIwftYq9J0jS7LS
dLtNLskKWdlCkECkliEjUKOTHdjtuTuTirEvzIt7CbUfLia/H63lGW5kg1SJ/wDeY3MyBbH62vRo
DJySjVT1GTl2xVBeWtN8s2v5jPD5KtIbLSbGxuIPMSaeixaebxpYTaxCOICE3MapMXKjkqkBvtCi
r0XFWN6Tb3qefPMU8kUi2ctnpi28rKwjZ0N16gRj8JK8l5U8RXFWSYq7FXYqxr8tLS6s/IGgWt3D
Jb3MNlEk0EqlJEYLurKwBB+eKslxV2KuxV2KuxV5r5x8weY285+V7WPyvdyrZajeXVs63NiouFis
Lm15JymBUcbrlR6H6dsVXeR9c8wXXnHzTLN5buoIp9St7ae4e4s3W3EGn254twmZm+KQmkYYb+NQ
FXpGKsG/OfRtE1T8sfNM1/ZW95NYaRqM1nLNGkjwTR2sjB42YEowKjcYqutbW68q+bdH0mz1C4vN
D1tbmJdOvZXupLSW2i9YSw3Epeb0So9NkdmAJTjx3BVZvirHvMnk3ynqkzarq0TwzwQlJ763urix
c26VcpNLbSQGSJak8XJXrtirzvStPubufRLrTuegWnmeU2Oki2VYpbLy9Y28lzFDCGBEU17IgkkI
HII1PtICFWY6XBf+XvPNroiald6hpGr6fdXkUN9K1zLbXFjLbxsUmespjlW7FQ7EKyjjTliqjqum
nzr5k1fQNTmkj8r6OsEN3pcLGJr+e4jE5NxIhEn1dI2VRGpAduXOqjjiqVfpf/lVWlS6NexmTy3F
DO3le/RSWWRVaRNMuAo+KVj8Nu/WX7J+MVdVn3lu31G38vaXb6nK0+pQ2kEd9MxqzzrEolYkdSzg
nFUxxV2KuxV2KoXStP8A0dpttY/WZ7z6tGI/rV2/qzycf2pHoOTHuaYqisVdirsVdirsVS+60S1u
dasNXkeQXOnR3EUEYI9Mi69PmWBBPIeiONCOpxV2k6JaaXJqEkDyO+pXb3twZCD+8dEjovELRQkS
gfrxVMMVYL57/K601zR/MK6Ncz6TrGtWVzBKYbiSKzuJpoDEpuoKSxEGoDusfqce9aYqnmh+S9L0
q/bVGnutS1d4zAdR1Cdp5ViJDNHEvwxRKzKCwjReRpXoMVT7FUs8yeX7PzBpMmk3skqWVw0Zuo4S
q+tEjh2gclW/dyheEgFCVJFcVWeYvLVlrlnBBLLNZ3FnMtzp9/aMqT206KyCSIusifYdkKurKykg
gg4qhdA8oDTdTm1i/wBTuta1maEWwvbwQp6VuG5mKGK3jhjRWajMeJZiBU7CirWteTo77VBrGn6l
eaJq/pLBNd2JhYTxRlmjjnhuI54ZAhduLcQ4qaMMVS+4/LHTtVP/ADtepXvmZFVhFa3xhitY2deP
Nbe0itkLqCeDycmU7qQcVZLo2nNpml2untd3F/8AVYxELu8ZXuJAuwMjosYZqbcqVPU1O+KozFXY
q7FXYq7FXYq7FXYq7FXYq7FXYq7FXYq7FXYq7FXYq7FXYq7FXYq7FXYq7FXYqkPkXzhY+cPK9p5h
sYZbe1u3nRIZ+PqA21xJbtXiWG7REjfpiqfYq7FWIaT+ZelanJpKRWs6HV9U1DR4OfD4ZdNS4eR2
ox+BhaNxpvuK4qy/FXYqkvmnzVZ+XYdNkuopJv0nqVppUCxcaiW9lEaseRHwr9pqb0xV0Pmqzm85
XflVIZDd2dhBqM1xQeiFuJZIkjrWvP8AclunTFU6xV5t+ZP5y6d5bttd03RrS81jzJpWnzXc6Wds
09tYt6LSQyX0paJEj25MA3Lj26YqmHkX807HzHJZ6Ze6bqWj63cWouUg1C0aCKdVVTJJbyqZYnSr
VHx1p2xVnOKsK1/8yLm08xXHl7y95evfMup6fDHcasLSS3gitUmBMSPLcSRqZXUcljXfjviqZaL5
+8uap5Qk81iV7TS7ZJ31AXS+nLatalluIp034vEyEECvtUUxVMPLOtNrmgWGsGzmsBfwrOlpc8RM
iPunMKWAJWhpXbFUr87+frHyr+jrb6ldarrOszNBpOkWKq087xrzkasjIiRxru7s2wxVAaB+ZU91
5kt/LXmLy/e+WtZvYZLjTY7l7e4guUgoZVintZJU5orBmVqbYqzbFUqs/MVrdeZdU0BInW50q2s7
qaU04Mt806oFoa1X6q1ajuMVTXFXYq7FXmv/ADjj/wCSd0X/AIz6l/3U7nFXpWKuxVhGi/ljBpcm
jOuoNL+h9X1LWVBjC+o2ppcoYj8R4iP659rvx6CuKs3xV2KvH/ze8r3955o8nxJ5k1WFNU8wQtHZ
xmyEFqLW0nm9W35WzSeoGjFPUZ13O3Siqh5O8n6lL+bnnB2826zI2jx6PbtKzWBe4VopLow3FLQL
wHqCgjCNRjU7iir2fFXhX5laB548paV+Y99pNhBrnlfzZZXdzfkTLb3unytYtBLKQ44TwhV5cVIc
dKeKrOPyt/Mjyx5g02z0O3eaz17T7G3N1pF/C9tciMRqvqorikkZ7MhI3HjirPcVeaTS+ZPJ3n7z
Nqi+Xr3XtG8zfVLq3m0sQvNBc2lqlq8E8cskJ4usSsrgkCtDirz71VhS70Xzg66Vo/6Ul82efIEb
6wkbX1wG0zRf3QYyySlUllVF+ILt9rFXtHlf8w/LPmS9uNPsJLiDU7WNZ5tOv7aeyufRc0WZYrlI
2aMnbktRX5jFWGfnlf2+mXnljW9KuBL560q6kfQNDRHml1CG4QR3lt6cQZ0Vo1B9UjihUVxVD/l5
qF75+19fzI1uWLT7Py8t5YaZ5ajLPcWUrEJdy6gzLGwnZI6CPjRVodzuVXqWia1put6RZ6xpc31j
Tr+JLi0n4unOOQVVuLhXFR2IriqDsfLiWnmvV/MInLvqtrY2jW/GgjFi1wwYNXfn9a6U2piqc4q7
FXYqwz8nbLRrH8vNNttG+uDTklvTD+ko1iuqtezNJzRdgPULcPFaHFWZ4q7FXYq7FXYq8e87fl89
5+anlDhq2uehdSave3Ekd7KEtStuqqsDdIAxuOAUdV26A4q3+WXkF083+b9Wm1TWh9V1xILcT3kt
LqO1s7ejXAP9+tWKgn9kU7Yq9gxV5J+b3n++sPK3nPQtW8t6lDbXGl30Ol63axG8splls2VTO8NW
tmDsQfUWlBy5UxVL/Kj3/nLzj5C1jT9CvLDSfKWnzi91rUbdrT6011ZC3jt7VXpJKgYmQuV47be6
r2vFUl85+Y/8OeWr7V0tZb64gQLaWMCs8k9xIQkMSqtT8UjAE9hv2xV5hrfkrUfLHlfyxrWoQNrO
oWPmGLzF50e2iMrySzRSxyXEcagu62byp6aqPsJWm2KprYa/pvnf82NB1fyys1xpPl/T79dU1gwS
QQyPfeiILRGlVGkZTE0jACi7b1JGKofVNVg8k/nFrPmXzPa3B0PW9Os7XSddigluYrI2xf6xay+i
sjxCZ2WSvHiaexoqw38xtU/xNf3Wp/k1DqF55j1K0msvMc1vaywadPZmB1DTyXIgQ3cdR6DIS37J
22xV7V+W91os/kbRU0ZZotPtLSG0iguo2huIvq6CIxzRtusi8fi8eoJG+KskxV2KuxV2KuxV2Kux
V2KuxV2KuxV2KuxVD6jp9lqOn3On30K3FleRPb3UD/ZkilUo6N7MpIxVUt7eG2t4reBBHBCixxRj
oqKKKB8gMVVMVdirsVdirsVdirsVdirsVdirsVdirsVdirsVdirsVdirsVdiqncXFvbW8tzcypBb
wI0k00jBEREHJmZmoAoAqScVdb3Fvc28VzbSpPbzoskM0bB0dHHJWVlqCpBqCMVVMVdirsVdirsV
dirsVdirsVdirsVeS/8AOM/mLXde8h6hea1fz6jdR6xdwJPcOZHESLHxQFv2RU0GKvWsVdirwGy8
3+aH0by9K2q3JkuPzIl0udzK1XsRJdAWzb7xfAvw9NsVe/Yq7FXhH57fnh5Z0i80zy5p3mCWx1ux
12w/xBHCl3GYtPoZLgtIkfGROLJVY2LGuw2xVBaT/wA5F+R7z86LmX/E0x8qTaVBY6ZAYbwQyajJ
chmYQ+jVW4njzdR86Yq+hMVfOH5leaPPfnTUvzM0HTdaTy/5b8laVM17YpBHLc6lztZXdWdzyjjP
plSU7EbEnZVln5I+XPzP03RPKV7N5og1byde6RbSy6TdWqxXNoJLRWgjtp46l1QlVPqH7I6VNcVe
x4q8bvrXzF5//NrzX5ebzNqfl7Q/KFvp6W9voswtZri41CA3Bmml4uzKlOPDp0/yuSqA8v8A5ueY
dJ/LDXP0lMNb82aTr135U0OQKofUryNlW2fiKA7SVbxCnvir1byNomraJ5V07TtZ1KbVtXjj5ahq
E7mRpJ3JeTiT0RWPFB/KBirz/wDPfzL5hs9Z8k+WtO1p/Lem+Zr2e31TXIVHqxCJYzFCkjCkbTNI
QG67eFcVSRG8xfl/+cflLyppnmvVfNOn+YI7k6tpeszre3FrHEnKO5WYKjIpPLt0Ujwoq94xVgGm
6vqkn5463pL3UraZBoNlcQ2ZY+ksz3MqtIF6BmVQCcVZ/irsVdirxj/nFGCeH8utSWaNo2Ot3pCu
CpoVi33xV7PirsVU/qtsAAIkor+oo4jZ/wCYf5XviqpirsVfOf5x/m15bn8/eTtONrqXHy5r0txq
I+pyfvGs1aMG32rN8VT8O1N8Vd+XP5teW7v88PON/wDVtTCeYJNG07SlNnIPTKQmKQ3Ip+6HqsCC
x+zvir6MxV5B+fH5ReTda8t+YvOBjmsPMenaTeTG/sZTC06wWzMIblaMsiMq8G25Fdq0xViX5V+b
vzB8mXv5d+XPMF7DrflXzppcLaHKIxFdWDx2scv1c8f7yNBKiVbcjeooVKr6MxVgfm38odM13zGf
MthrOqeW9cmtxZ3t5pE6wm4gX7Kyq6SAsv7LChH0CirwuN00Z7TW/JlqlxpOnasnlT8vpL9jLHd6
xqLML/WLhl4mT+7McbD4fADjTFXrGleYPzJ8qfmN5f8AK3m/V7XzHpvmqG6+pahFaJYSW11ZRes8
bIjOro6bKTuT4U3VSj83J7/8yPNz/k7pMVtbwW1vFqnmDW7qP1Xtk5KYls46r+9PMVavRiPHFWK+
WtQtvyS1PzLYecbcSa7f211eaB55l9SY6ksUfNbSV5GkMcqsi/ADRjT/ACSyr3D8rdY1/Wvy90HW
Nf4fpbUbRLq49NPTWkxLx0Xt+7ZcVZOIohIZQiiQjiXoORA7VxVdirsVdirHvI/l7zBoOkzWeua/
J5ju5LmSeO+mhEDJE4XjDxDy1CUO9e+KshxV2KuxV2KuxVifmDyIdZ8/eVPNjX3op5WW/Edh6XL1
21CAQFjLzHDgFrTia+2Ku8meQv8ADeu+atXa9F5L5mvxfFBD6XoKqcEi5c5PUp/Nt8sVZZiryH8z
PyV1XUrfzNqnlHzDqWnajrdpcfX9CWVJbG/la2MQj4TlVhaUKsZfl8I6UxVr8p/yNfQ30DzJ5r1O
81bzLpemw2tjY3Lp9W0wGARvBAsZdWMYrHz5UPXrvir1/FUk866Fqmv+V9R0XTNT/Q11qERg/SIi
9do43NJOCc4viZKqG5fDWuKsf8y/lFoWq/l9YeTdPnk0iLR2t59Fv4AGktrm1NY56HiHYkty3Fan
cHfFUD5c/LDzQfOdh5u87eZF17UdGt5bfRbe2tFs4ITcrwnmYBn5ySJ8PYfhRV3nX8pNS1LzhF52
8o+YZPLPmgW31O8m9BLu3uoAQVSWF2UbUG+/QbVFcVSbW/yM80edikH5jecpNU0m3YyW2k6ZZxWE
YmKFFleQmZ3K8jQH+JGKs/8AIHlzXvLflu30bWdb/T8ln+6tb9rf6tL6CgBEl/ezCRlG3Pao6iu5
VZHirsVdirsVdirsVdirsVdirsVdirsVdirsVdirsVdirsVdirsVdirsVdirsVdirsVY75N/MPyf
5zivJfLWofX49Pl+r3bejPDwkIrx/fJHXp1FRirIsVdirD3/ADc/L1NNn1JtWpZW2qnQJpfq9z8O
pChMHH0uR6j4wOH+VirMMVdiqR+bvO3ljyhYW9/5ivfqVpd3KWVvJ6Usxe4lVmRAsKSNuI23pTFW
/wDGnlr/ABd/hD65/wA7ELX6+bH05f8Aeblw5+rw9L7X7PKvtiqd4qw38x/zW8oeQ9KubjVb+3Gq
LbS3Gn6Q0vCe5dFYxxqFWRkWR14cytBiqD/Lf86vI3nmysls9StrfXbiFZLjQ2mrPFIV5PGnNYjL
w7si4qz7FWE+evzl/LzyPfQ6f5h1P0b+eMzJaQxS3EgiFf3jrEr8F+E/a8MVT7y75v8ALXmPQI/M
GjahFdaPKrOLsEoqhPt+oHCtGVp8QYCmKu8p+bvL/m3Rk1ry/cteaZK7xxXJimhDtGeLcRMkbMA2
3ICmKqHnPz55S8l6WNT8y6jHp9qzcIuQZ5JH68Y40DO58aDbvirHPJv5+flX5v1dNH0XWQ+pygmC
2nhmtzLQVIjMqqrNQfZrXFXoWKpOnm7y8/myTykt3XzBFZ/pJ7L05drUyCL1PU4+l9tgOPLl7Yqn
GKuxV2KvnX/nDb/jlecv+2qv/EGxV9FYq7FXhE35D+b38p6jo4vNP+s3fnVvNEbmSb0xZEKPTY+j
X1vh+zTj/lYq93xV2KvmX/nJaz/Mq680eV9KfU9OOiatr1qvlyz4OJorlQsSyXLBfiRXnP2a7HFU
t8t6X+dV5/zkJ5h9PV9I/wAT6Tpttb6nfNA/1VrWcQTKkKcOQk4kfER44q+rMVfHX5z6Vc+V/wAy
/O+u+bvLs2taT5i0y4tfLmshBNDaXM1sIrdjy+BGiYcd6Mv2kr3Venf84/W35Ma9ofla+0yLT288
6BZILoxJ9XvBKYTBM8qUjM4o5HMhgDShrir3fFXz1rfmGy/Lj/nIPzJ5n816fctovmHTrWLRtVgg
e4VHhiijkt/h+yZHiO3+rXY1xV5/5cutdPlK58hWkbeXG8/6vd6xcLcARDTPLYCCSaQNxEYlETIl
aBlX/KU4q+mfIPmL8t59Nt/L3k3V7C9g0m3SKOzs7iOV0hjAQOyqeRqerdyfHFXl/wDzlTotxajy
p5/Vba8tPKd6HvNJu3VFuEmliYBA+zEmHiygE0NaGhxVjUGqy/nZ+Z/lrzboel/oXyh5ImS51LXL
z045ZZImjuTA3FiOKekAN6KrMxpUDFX0zYajp+o2kd5p9zFeWctfSubd1ljbixVuLoSpowIPvirD
LfyHq8f53XPntprc6RNoA0hYAz/WfXF0k/Irw4cOKdeda9sVZ3irsVdirxP/AJxi0nynp2neZ18u
+YH1+OXUA9272Ulj6MnE/uwJHk5/6wpir2zFXYq7FXYq7FXyv+cHlP8AMm4/OXyjpjecPVk1TUL6
+8u1tYwNLRGEiDr++4ooX4v5ffFVP8pPJ35lah+b3nS7h85cLzRb+yttevjZof0kiM4aIA0EXFbf
iePiDir6sxV4T+cP566Fpll528j69pt9pl1cabd2uh37xM9te/WLMopVgAV/fOVrQrtUkdMVeP8A
5XQaZ5j/ADK/LiTyNpU9teaDZ25846nGhhgdo1pKWptVkqhY7yFqb9Sq+1sVSvzT5k0vyx5d1DX9
Vk9Ow02Fp5jtU8fsoterOxCqO5OKvlrzz5W8y3n5N63+ZWtwyfprzdf2d3qNvGSWttBV/wDR7dR2
WvpOfbjy3BxVPmu/y11D87Py1P5UxWwkt47l9bfS4vSRbIxKIxc0UDnx9QNz+LcA7lcVU/zfv9Jt
P+cjtGm/MqN5PIUdoDpAmR5LL1uHxNJGgYPSc/GKHbhy+HFWG/mpr/lHRfMN7e/k1rf1mTzTaXNp
5i8uWMEslv6ckL8riKihFKhmai7oakfCSMVfQX/ONl75al/KDQbLQ79b36hEU1BRUPDdzO1xNG6n
cUeU8T0I3GKvT8VdirsVdiqC0zRNF0pZV0uwtrBZ25zLbQxwh2/mbgFqfc4qjcVdirsVdirsVQs+
k6VPfwahPZQS39qCLW7eJGmiDAhhHIRyWtd6HFXWmlaXZT3M9nZwW094/qXcsMaRvM+/xSMoBdtz
ucVRWKpf5g0LTdf0S+0bUo/VsdQgltp1GzcJkMbFTvxajGh7Yqt8t+XdL8uaFZaJpcZjsbCJIIFY
8m4oAoLN+01BucVTLFUNqOmabqVq1pqNpDe2jkF7e4jWWMlTUEo4ZTQ4qrvDE8TQuitEylGjIBUq
RQqQdqUxVL9H8seWtFaVtG0mz0xp95zZ28UBc9fj9NV5fTiqI1HStL1O2NrqVnBfWxIJguY0lSo6
Hi4YYqhdF8q+V9C5foTR7HS+Y4v9StobeorWh9JV774qq6Z5e0DSXmk0vTbWwe4p9Ye1gjhMnGpH
MxqvKnI9cVR+KuxV2KuxV2KuxV2KuxV2KuxV2KuxV2KuxV2KuxV2KuxV2KuxV2KuxV2KuxV2KuxV
4l/zjf8Amx5v8/X3m6HzDJBImjy2iWXoRCKgma5D8qE8v7lcVe24q7FXzNq35+fmFa+SPPOsRTWw
vdA8xLpWnkwKVFsZHWjrX4moo3xV9JWEzz2NtNJ9uWJHamwqygnFVfFXiH/OQv56P5Os7PT/ACpq
1j/iT68kOpWsvGZ4IDEzVkjr8HxMhqcVQR/5yL05vztGip5h01PIMdl6kl+SnBrn0q8BcFqfaYfd
TFXvmKvnj82Pz585yecNU/L38vtGivb2ytpf0rf3BPwKsXOZogJIlQRK1Obtu2wXpVVjv/OM/n/8
2Y7bR9Jm0JtX8o6nezR/4gZ5XmgcAtJ6snKUBV4fCrotenLfFX1Tirwvzt+YX5r67+bt7+XP5dzW
OlyaLZJe6jqN+nqczIkbhRVJQF/0iNQAla1NaYqv8hf85CzS/lZ5h8x+cYIodY8rTvY3UcB4pdTk
AQKg+LizueDUqBTlsNgqz38oNQ886r5HstY86NENW1Ot1FawxeiILaQAwxstSSxX4zXcVp1GKsN/
5yD/ADj8yeSrjQvLvlW2hk1/zC5WK7uhWKJeaxIFBKqXZ36seKgbg12VYXqn5tfnl+WPm/QrD8xZ
tM1rSNbahaxULIiBlSQoVSA84zIpoyEN0B7hV9NYq8vufzB8xx/85CWvkZXi/QMujm/dPTHq+sC4
r6nWnwjbFXqGKuxV2KvmD/nC3/jqfmF/xnsP+J3uKvp/FXYqxWb8rPy9msNQ0+XQrZ7LVbkX2oQE
NxmuQSfVff7VWOKsojjSONY4xxRAFVR0AAoBiq7FXxp/zkZq35N6j+ZGjfo9ka/j1aWDz5c+neKU
S2lhgZWDJR6KkorBX7PeoxVLfJsf5Aal+emsW93FE3ke9hitfLVrwvwr3shto1oAPWWrerUy0Xf5
Yq+3cVfM/wDzkX+T1xo82s/mx5W1qXTL5I1/S1kKgSCbhbOY3U7c1Yc0cENuajpirGfyI/NHzX+X
N55b8j+Z9HRPL/mgwXmj36keqqamV9KXkrNG8ZZl5KeLJvXwxV9fYq8f8/fkl5mvvPz+fPInmb/D
mv3lsLPU/UhE0cyKqoGFeQHwRoKFTuoYEHFXz1qWm6T5Zvr7TZZZPMflnyTeLqPmac0jj1TXpyIY
bSv7zjFFxYNy5GgmP7SjFXtXlr8+vzDtPNXlfSvP3la30nTfOIRdEvLSRiweUqIxIheXvLGGU8Sv
IH2xVJf+csNV8u+Yb3R/IOm6XNq/n95Fl057dgn1VJ6ckdmBD+qqVK7BQA5YU3VeaaLqC6B+YWqX
n51ve33mzy3YGfyzaX0nOyuZrWNngjaRQ9RIygxsPhZq8qtsVX1Z+UHn698++R7XzPd6cNLN3LMk
NushlVkhkMfMMVTqysOnbFU+byp5cbzInmZrCI69HB9VTUaH1RDueFa0p8RxVNsVdirsVefflVpP
5q6fca23nu406eGZ4TpA0+OOMqqmX1fV4RQ12aOla98Veg4q7FXYq7FXYq8U/MP8hovMX5qeWfMF
jpOlRaBaStc+Y4jFEkl5K8pkYyxiJhPyp8XqHepxVZ+Wv5BQaF+Y3mzzBrej6TLpV5dCbyxbRxxy
/VEWd3VkjaJVgYLwpw6dMVe3Yq+bP+cgvye8/GLzT5p8ueYbq603WBA+reVxHI5l9P0oU9JY+auV
EakVQMAPtHFVP8p/+cdvNN9qXlXzn581s3Uek2dlLo2iBZA8EcKLJbQTeosfp+iackVTVq1Piq+l
8VSTzsnmqTyrqUPlQwr5gmhMVhLcsUijdyFMpIV941JZRTcgV2xV5ev/ADjpbf8AKjJfIS3SRa7d
smoXeqHkyPqIYOSx+0Y6D0gaVp8VK4qkuh/lB+cPmHzb5PvvzCu9Ng0nyKyPpy6eWaa5kiaNkZ6i
g5G3j5H4dhstSTiqYfm5+R3nTU/zCs/zH/L/AFW3svMVsiLNb3dQpaNDEHjbjKp5RHgyOtKd96Yq
xfzL+R356/mheWZ8/ajo+l2mnq6wSWkIlnJYD+QKSrEbgygDqFxV6l+Rnlr8yPKflpfLHm1NPmst
OHHSb2xkYuYyxJiljMcfStQ/U999yq9LxV2KuxV2KuxV2KuxV2KuxV2KuxV2KuxV2KuxV2KuxV2K
uxV2KuxV2KuxV2KuxV2KpPo3nLyhrd1LZ6Lrmn6ndwKXnt7O6huJEUEKWdI2ZlHI03xVOMVdiqRH
z75GWG+mPmLTBDpciw6nKb23420kjFESdudImZ0ZQGpUgjFU4tLu1vLWG8s5o7m0uY1mt7iFg8ck
bgMjo6kqyspqCOuKquKpdrfmTy7oNvHc65qlnpVvK/pxTX08VsjPQnirSsgJoCaYqpnzZ5WGrw6K
dZsRrNwokt9N+sw/WZEKlwyQ8vUYFAWqB03xVNcVQeraxpmkWMl9qVzFa20SlmkmdIwaAmgLlRXb
xxVin5W/m95X/MnTru+0KO5thZTehLb3qwpMfhVuapFLN8HxUqT1xVm+KpP5h84+U/LcccnmDWLP
SlmqIfrc8cJenXgHILU70xVH6dqem6nZRX2m3cN9ZTjlDdW0iyxOK0qroWVvoOKobRvMvlzXBOdE
1Wz1QWzBLk2VxFcCNzWiv6TNxO3Q4qiNT1bS9Ks3vtUvILCyi/vLq6kSGJf9Z3KqPvxVJ9C/MXyF
r939S0XzFp2o3m5Ftb3MUkpA3JCBuRA8QMVZFiqXv5h0CPWY9DfU7Rdalj9WLS2njF00YBPNYC3q
FaKd6dsVTDFXYq7FXx//AM4d/wDk0/NP/MBL/wBRkeKvsDFXYq+Sbn8nPzLfy1+bVouhym48w6tY
3OjR+pDW4ihvrmWR1+Og4pIp+KnXFX0r+XWm32l/l95Y0y/iMF9Y6TY213ASCUlhtkSRCVJHwspG
xxVkOKvjb/nLrzH59vfMVv5d1TS4rby5DdNJ5evUR1lu2EMay8mMjI3BpqbIuKsZtvNf5wT/AJ7R
63B5cgk896ZB6Q0MRzGGONbP0N4zPz/uZeX971P0Yq+67V5ntonmXhMyKZUHQMR8Q798VfD358ag
dV/Py+07z1fXdl5csnEVr6C8zDbG3DxNCh5D97JQuwBO52NOOKph/wA4uflZpnmbUrbzSuuGz1Xy
7qkcsmlIVLT20apIp+FlkVWkqpJBVgCMVfauKvkP80/8ID/nKC9P5oer/hH6hEdP5+sY+H1NePH0
P3nD6z6v2f2+u2KsQ/Ln8xde8ufldr3lzQTPLqXmvVI9P8tQA/GnqJwupU8HKvDGN/tGo+ycVfWf
5O+RNI8ieSbPy5aSxT38Y9fV5o2DGS7kA9VjTfitOC1H2QO+KvFf+c19M8xyx+XNRVJpfLFsZUvB
EfgjuZGXi0goQC6VVGNabjvuq8h842PkPV/OPlu0/JKy1Aai8cTyqzSl1vOSshUysxVoqEyOD6Y6
g0BOKvv23EwgjE5DTBVErL0LU+Ijp3xV49qnknzTN/zk7pHm6OwdvLtvpL202ock4LKY5wE48ufW
Rf2cVeyYq7FXYq+af+cZvJelaH+YPmC8s/NOl65LPaSI9nYNMZYgblG5P6kca0BHHY9cVfS2KuxV
2KuxV2Kvib/nIA/m5f8A5taTpGsNDJI2pS/4IgU24/cXN4I7Yycehb04wTLvtviqG/Ln/ldWofnr
rF7p7QTebrSRovMshNrwWBJ44LhU5fu6jgF+DfbFX3Fir5P/AOcpPzO8i6suv+TLjSCPNOiy2q6Z
rJjR+SN6cs8Yk2kjoJGHHdWpWvTFXjXkwQw/mR5L/wACz3j6nI1h9d5DiVvWb/S44+NOUHD7XLty
rVd8VforirH/ADnoHkbUNLlvvN2m2N7YaZHJcPPfwxyiGNF5yMGcEqKLvTrir5B1mz1TzD5V83/m
7ZWn6H0iwMWj+TbK2jWFLa0e4WKaSJY+KpRJWUlducj03XFUq0+Dy35V1P8AK3WvIetyXXmfVWT/
ABFaxzCQxzPNCvoPEgDKJDJIhRvtBQe9Sqzj/nKLzfq99+amneSdb1CfR/Iw+pyXbwgkSxzPWa5Z
QP3npbqq7gFa0rirzzz2dH/LjXr1Py082RatoXmLT5rO7hjkEs0UUq8XjmdFVK1PKNlow3BFPtKv
pL/nERrE/lOPS1Fb6/mvp7jUYeZeS3duMUcbhviHKOFWHY12xV7ZirsVdirsVYr5U/K3yD5S1K51
Py7pEen314hiuZ0eVy6M4cikjuPtKDsMVZVirsVdirsVdirHta/L7ydrfmHTvMeqaZHda1pPA6de
M0gaIxuZEoqsENHNdxirtC/L3yboOu6lr+kaZHa6xrDO+pXitIzStLIZXJDsyjk55fCBirIcVYJ+
bP5Q+XvzF0J7G7WGz1Osf1fWhbxzXMSI4dkRiUbi4FCOWKon8uvyp8oeRtKtLfTLC2OqQwLBdayI
ES5uCAAzM/xMORFSvKmKsyxVLvMXl3RvMej3Gjazb/W9MugouLYu6BwrBwCY2RqclHfFVOy8q+XL
Hy4nlq20+FNBSE2w04ryhMLV5IytXlyqeVevfFWM+WPyL/KjyxrS63onl6K21OMsYrhpbif0y1am
NJpJEQ79VAxVOfOH5d+SfOVvHB5m0iDUlhqIZJAyyxg9Qk0ZSRQe4DYqx7Q/+ce/ya0S6+tWPle2
aahWt0894oBFDRLqSZR160xVNvKn5T/l95S1KXUvLekLpl5MhjmeGWfi6E14tG0jIRXcfDt2xVlu
KuxV2KuxV2KuxV2KuxV2KuxV2KuxV2KuxV2KuxV2KuxV2KuxV2KuxV2KuxV2KuxV4F+UP/OSWt+e
vzEbyrd6NbWduI7mT6zFJIz1g6Cjbb4q99xV2KvnaT/nKDXkt/zAl/QlqT5OkjS2HqSfvw+orZfv
PD4X5bd8Vev/AJW+cbnzn5B0jzNc26Wk+pRu728RLIpSV49i2/7FcVZViryL8+fz1b8trbTRplva
6pf3k0kdzaySkNCsaKwLBCWBPMUriqRRf85KXb/mnpHk36np/wCj72G0e+1T6yeMTz2i3MoBNE+A
txFTX6cVe9AhgCDUHcEdCMVeL/m9/wA5PeWvy/1l9AtdOk1vW4AjXcKyi3gh9RQyq0pWUl+LBuIT
6cVeV/kx/wA5ReY5fOkmnebmu9XttduYbXSYYFgrayzTFFWnGIup9RVJ5V26HFX15irw382v+cid
Y8ted18jeT/L51/zAkaSXKn1Hozxev6UcMI5uRDRy3LYYqmf5Yf85F6B5t8j655k1e3/AEPL5aRZ
NWhD+ohSRWMTRMQpJlaNlVOvLbeoxVNvyP8AzJ80fmHoN35g1XSIdJ0tpjDpQjd5JJglfVdiwUcV
NFBHUhulMVQX55fn3pv5YxWdpHYnVNc1BGlgtS/pRRxKePqSvRm3bZVA3odxiry+w/5zE806Zqlt
H5z8nmx067pLHJD60Ewt2PwyxpcDjMPkVBxV9P2F7a39jb31pIJbW7iSe3lHRo5FDIwr4qcVeZ+Y
Pzh1LS/zx0T8uY9PhkstVt1nkv2dxKhZJmoFHw/7pH34q9TxV2KuxV8Qf84sf+T5f/jBf4q+38Vd
iryR/wDnGXyG0XmqI3+qcfN7q+pH1besZS7W9Hof6P8AD+8Wnxcvh998VZ/5J8oab5O8rWHlrTJZ
prHTkZIJLlkaUh5GkPMosandz0UYqnmKvhH/AJyhsvKJ/Mu5v9E1pdQ1C/nlj1u1pRbKe29O3EZN
PFGr8sVYxpfk38vrz805fLkvmUw+Ug8iQeYCq1k4xVSi9Pjl+HFX6I2sAt7aKAHkIkVAx6kKKVxV
8Z/85Lfl75o8l/mEfzKsZYpNM1DUIZbSZwkjwXyx+oI5IZAVdT6DMpoRTY+6rGPyN/Mfy35b8+TX
XnHRkvV1i6t7iLUCi+pYXHqNIlzGjDlxPrVPFgePTl0xV974q+dfzX/Jv80Y/wA3E/Mz8upbefUZ
kUSwTtGjQyLa/UyQJv3bo8I8ag9sVfPWreXtW8qTXvkbVL9Y3uJLfUPOL2pEwgitgzQwepVVkkHr
livLi0jRrXkMVe9+Qf8AnK3yJZHR/LX+G7rQfLahbLT9QeRZUREPBXkUIvf+8ZWYg+OKpb/zmrZ+
TZE0e8k1H0vN8KGOHTUXn6tkzkl5CP7rg/LgT9rcUNKqq8L1Hzhq/n3UbFPPmum3stAsTFB+5rO6
QgVhiVQqtcTUHxSso23PQFV9sfkf+YXlvzn5NVvLmn3WnaVobR6TBDd8C3G3gj4gFGcGiMoxVF6r
+UXlvU/zL038w57m8XWtLiEFvbxvELVlVZFq6GJpCf3x6SDtirN8VdirsVeBflDpX5m2/wCYjTa/
+X+h+X9J9O5A1fT7G0t7nkfsL6sUjvR/2tt8Ve+4q7FXYq7FXYq+UPzh/wCccdV1L827K78t6Nc3
GgaxOl55jv8A6xFRJ7u9ka64CQqyhIiGFAeuKoT8vf8AnF+8m/NPWE8yaNd2Xku1e6k0Sczx85PT
ulForGN3aphJY1HbFX11ir40/wCcs/JHnvTdbvvNN5qKz+UtavrZLexjlkAiuYrRo4vUt2+DkIop
KOpPU9K4qhfy/wD+cd/zO893/l/XPNsiW3lhLSy+qzyyxSyyaZFEpt4YIYS/ENHQfvOJFSSCdiq+
1cVSfzjqWuab5Y1G80HT21XWo4T+j7BSq+pO3wpyLsg4KTybfoDTfFXz35Z/5xx8zXn5SebH134P
zD81OLhjcOrFBb3K3KxO6ErW4kQs5rTdf5cVefwfk5+eHm208qeSNX8vDSNH8tPdxrqsnBQsV5OJ
Z3dldllKlaJ6Y3792xVnH/OSX5E+f9c88jzp5Vtl1WKSGAXFmGjE0UtuOIKxykLIjKqmgqa12pir
B/NX5X/n9+aHmKK/1fylbaXfpCIp78KlmkqoPgM3KRy7CnEFVrTboBRV7B/zjRYfmZ5P05/KHmfy
jJY6Y0slxbaxE8DUlfd1uVWVmYHiAjqNtgRTcKvfMVdirsVdirsVdirsVdirsVdirsVdirsVU57e
3nQJPEkqA1CuoYV6VocVXoiIioihUUAKoFAANgABireKuxV2KuxV2KuxV2KuxV2KuxV2Kv8A/9k=
									</xapGImg:image>
							</rdf:li>
						</rdf:Alt>
					</xap:Thumbnails>
				</rdf:Description>
				<rdf:Description  rdf:about="" xmlns:dc="http://purl.org/dc/elements/1.1/">
					<dc:format>image/svg+xml</dc:format>
				</rdf:Description>
			</rdf:RDF>
		</x:xmpmeta>
<?xpacket begin='﻿' id='W5M0MpCehiHzreSzNTczkc9d'?><x:xmpmeta xmlns:x='adobe:ns:meta/' x:xmptk='XMP toolkit 3.0-29, framework 1.6'>
<rdf:RDF xmlns:rdf='http://www.w3.org/1999/02/22-rdf-syntax-ns#' xmlns:iX='http://ns.adobe.com/iX/1.0/'>

 <rdf:Description rdf:about='uuid:edb884e2-f419-11dd-8862-001124740a56'
  xmlns:pdf='http://ns.adobe.com/pdf/1.3/'>
 </rdf:Description>

 <rdf:Description rdf:about='uuid:edb884e2-f419-11dd-8862-001124740a56'
  xmlns:tiff='http://ns.adobe.com/tiff/1.0/'>
 </rdf:Description>

 <rdf:Description rdf:about='uuid:edb884e2-f419-11dd-8862-001124740a56'
  xmlns:xap='http://ns.adobe.com/xap/1.0/'
  xmlns:xapGImg='http://ns.adobe.com/xap/1.0/g/img/'>
  <xap:CreateDate>2005-10-18T08:31:30Z</xap:CreateDate>
  <xap:ModifyDate>2009-02-06T06:48:01Z</xap:ModifyDate>
  <xap:CreatorTool>Illustrator</xap:CreatorTool>
  <xap:MetadataDate>2008-09-17T15:26:24+09:00</xap:MetadataDate>
  <xap:Thumbnails>
   <rdf:Alt>
    <rdf:li rdf:parseType='Resource'>
     <xapGImg:format>JPEG</xapGImg:format>
     <xapGImg:width>52</xapGImg:width>
     <xapGImg:height>256</xapGImg:height>
     <xapGImg:image>/9j/4AAQSkZJRgABAgEASABIAAD/7QAsUGhvdG9zaG9wIDMuMAA4QklNA+0AAAAAABAASAAAAAEA&#xA;AQBIAAAAAQAB/+4ADkFkb2JlAGTAAAAAAf/bAIQABgQEBAUEBgUFBgkGBQYJCwgGBggLDAoKCwoK&#xA;DBAMDAwMDAwQDA4PEA8ODBMTFBQTExwbGxscHx8fHx8fHx8fHwEHBwcNDA0YEBAYGhURFRofHx8f&#xA;Hx8fHx8fHx8fHx8fHx8fHx8fHx8fHx8fHx8fHx8fHx8fHx8fHx8fHx8fHx8f/8AAEQgBAAA0AwER&#xA;AAIRAQMRAf/EAaIAAAAHAQEBAQEAAAAAAAAAAAQFAwIGAQAHCAkKCwEAAgIDAQEBAQEAAAAAAAAA&#xA;AQACAwQFBgcICQoLEAACAQMDAgQCBgcDBAIGAnMBAgMRBAAFIRIxQVEGE2EicYEUMpGhBxWxQiPB&#xA;UtHhMxZi8CRygvElQzRTkqKyY3PCNUQnk6OzNhdUZHTD0uIIJoMJChgZhJRFRqS0VtNVKBry4/PE&#xA;1OT0ZXWFlaW1xdXl9WZ2hpamtsbW5vY3R1dnd4eXp7fH1+f3OEhYaHiImKi4yNjo+Ck5SVlpeYmZ&#xA;qbnJ2en5KjpKWmp6ipqqusra6voRAAICAQIDBQUEBQYECAMDbQEAAhEDBCESMUEFURNhIgZxgZEy&#xA;obHwFMHR4SNCFVJicvEzJDRDghaSUyWiY7LCB3PSNeJEgxdUkwgJChgZJjZFGidkdFU38qOzwygp&#xA;0+PzhJSktMTU5PRldYWVpbXF1eX1RlZmdoaWprbG1ub2R1dnd4eXp7fH1+f3OEhYaHiImKi4yNjo&#xA;+DlJWWl5iZmpucnZ6fkqOkpaanqKmqq6ytrq+v/aAAwDAQACEQMRAD8A9KaVpWlnS7MmzgJMEdT6&#xA;afyD2xVFfonSv+WKD/kUn9MVd+idK/5YoP8AkUn9MVS3y1pWlny5pRNnASbO3JJjT/fS+2Kpl+id&#xA;K/5YoP8AkUn9MVd+idK/5YoP+RSf0xVBenH/AIR9PiPT/R/HhQcePo0pTwxVJNY8v6jqMWhXkNvB&#xA;qdnaWpSfSbq4ltomaRYik6lElSR0EbKFkWnxbMu/JVjXmLUCmj6fb6BbXOl32i6tLe6jo7yl2IsL&#xA;J7yS3VleVDHOJYePE8aP+y22Kpx5T1efUPzB1LUkuTNpWr20sWlIDWMRaLNHBK6ivVri8l37jj4Y&#xA;q15j0TSrv8tob+4tlkvLfS4BBPuHQcFOxBHjiqH89WcGgNox0KM2UelzzeYb6K3qPVtbBEhukYV+&#xA;LlBdsAP5qYqjPJOoXd5528w38s7yWOrRxtpMJNUSHTZ5rKRk7UmbjKCOoYYqyf8A6ZX/AKMf+ZOK&#xA;qB8u6Rq+l6a99CzTW9ugguIpZbeaMOi8gk0LRyKG4ioDb0GKorT/AC3oWn+l9Ts44TD6pRhUtynK&#xA;mVmYkl2fgKs1Tiq7TfL+iaZFZxafZxWsWnwPa2SRjisUEjIzxqOwZokP0Yqh9Es7a88o6ba3UYlt&#xA;5bG3WSNujD0l2OKphPp1jcXC3E8CSTJDLbK7Cp9GcoZU+TmJK/LFVGx0PSLBbNLK0jgXT7Y2VkEF&#xA;PStzw/dr/k/uk+7FVD/plf8Aox/5k4qi9J/45Vl/xgi/4gMVReKuxVLPLH/KNaT/AMwdv/yaXFUz&#xA;xV2KpT/0yv8A0Y/8ycVUNKn8x/ouzpY2ZHoR0JvJR+wP+XbFUV9Y8y/8sFn/ANJkv/ZLirvrHmX/&#xA;AJYLP/pMl/7JcVS3y1P5j/w5pXGxsyv1O34k3coJHpL1H1Y4qmX1jzL/AMsFn/0mS/8AZLirvrHm&#xA;X/lgs/8ApMl/7JcVUaz/AOD68F9f9H19PkeHP0OnPjWle/H6MVS6683x6Smj6Vb6Ze6xqt7Z/WIr&#xA;KwWAMsECxrJLJJdTW0KKGlVd5KknYHFVPUPzJ0zSrHSLrWtNv9KfWdUi0W3tblIfVS4nDFHkMU0k&#xA;fpUQ1dXbFUfp/nbRb/zjq3lK3Mh1TRYLe5vSQoj43QLIqnlyLKtC3w0AZd8VSe685TeWPKGnXsmg&#xA;6jqenW+mQT3V7YtY8IlWMVVkubq2lJoK/AhGKq91+ZNpps+jW2u6Pf6Lc67qA0zT4bprGQmVoy6y&#xA;MbW6uVEZb4OvLkRtTfFUy0bzno2r+Zte8uWfqG/8ufVRqDso9Im8jaSMRsGPLiIyGqBQ7YqiP+mV&#xA;/wCjH/mTirGPNWm2d3YaHLc+V73XRBbj07/SrmO1vbRmVBRHNxZTcZP2vTk7CoxViNx5C87eZNPt&#xA;dN1mK6iskk1ifSn1C4hub2ySSzjt7AXM0ZlDzCaWaRSHaigBmJGKpv8Al15Z822XmSw8x63ZGC/1&#xA;6y1SfzCisrLb3Ul3atZQtRvi42qGOoB+x2xVkGuabfan+Ucun2ERnvLrR44oIQQCztCtBViBiqXf&#xA;ml5R1rzLqFpFYxMFsdK1K5s7okBF1ZZLR9OFOQ6PE7VK0264qhvy38q+YdL8xx61qdkYLnXdLmud&#xA;bbkjelfSag91HbEjc+lFeNGpBpRPvVZx/wBMr/0Y/wDMnFUXpP8AxyrL/jBF/wAQGKovFXYqlnlj&#xA;/lGtJ/5g7f8A5NLiqZ4q7FUp/wCmV/6Mf+ZOKovSf+OVZf8AGCL/AIgMVReKuxVLPLH/ACjWk/8A&#xA;MHb/APJpcVTPFXYqlP8A0yv/AEY/8ycVUNK8v2B0uzJlvN4IztfXg/YHhLiqK/w9Yf79vP8ApOvP&#xA;+quKu/w9Yf79vP8ApOvP+quKpb5a0Cxby5pTGW8qbO3Jpe3gG8S9hLTFUy/w9Yf79vP+k68/6q4q&#xA;7/D1h/v28/6Trz/qriqj6Kf4O9GrcP0dwrzbnT0Kfbrzr71rirBfPz+dV/w41gdXXyqLRv0ofLa2&#xA;z6l9Z4x+hyW4DN6HHnX0hWvXtirC/N35kavpflny3P5X8w6jq4tNXurjWv0nDHBfpZ6Tb+veWN1E&#xA;sNu1VU1aq8twa0ocVZT+X/n7Wte/OXzPZPdmbyy9s50GEUMf+42aO0upUI6855G3+WKrPzRs9as/&#xA;yn/xVpPmPVNIu9I0aB4bOykhS1kcKvxSq8Ujk/FT4XGKpV+ZOqeZvy61HypFY+Y9T1aza8m1TX21&#xA;OWKSQ6bbPbQzxgwwwrwVbgybjsd+2Kpz+V3njzBrn5pec7W/uGk0SZEuPLcBNUS3sru402d06f3s&#xA;1vyPXtir0f8A6ZX/AKMf+ZOKpTqPkyDXrPSroatqmk3VtbJGsumXb24dGVSRJGQ8T7jYlK++KoGz&#xA;/Jryba+if9LuJUXURczXM5mkupNWijhupbh3BLuY4FVSKADtiqK8rflZ5W8sSaNJpfrq+h2Vzp9q&#xA;ZHVucV5OtzKZSFBdjKvIHbqdsVV5fLOneaPy4g8v6kZBY6jp0ENwYWCycTGh+FiGAO3hiqr5j8ga&#xA;B5hv5L3UxLI8mmXejGIMBGLe+KGZgKH95+7ADV28MVQ/lf8ALPyz5Zu9NudKEyPpmlfoWBXcFWt/&#xA;WFxykAUVk9QE8hTqdsVTb/plf+jH/mTiqL0n/jlWX/GCL/iAxVF4q7FUs8sf8o1pP/MHb/8AJpcV&#xA;TPFXYqlP/TK/9GP/ADJxVQ0rVb8aXZgaNeECCPcPZ7/APG4xVFfpa/8A+rLef8HZ/wDZRirv0tf/&#xA;APVlvP8Ag7P/ALKMVS3y1qt8PLmlAaPeMBZ24DB7Oh/dLuK3AOKpl+lr/wD6st5/wdn/ANlGKu/S&#xA;1/8A9WW8/wCDs/8AsoxVR9R/8H+p6Tc/0fy9Gq86+hXjXlxr2+1T3xVKNb/MjyT5N0rSh5j1RLKW&#xA;8gT6rAI5Z5pAiLyKxQJLIQK7njTFWrb83/y3udP0/UIdchNnql7+jbGRkmXnd/D+5KsgZCOYryAA&#xA;xVOLHzh5av8AzHqPluzvkm1vSkSTULJQ/KJZVVkJYjgahx0OKsdn/M7yN5Q0PRbfzHqi6fLLp1vM&#xA;gaKeQGPgF5Fo0dR8QpucVVrD85vy0vprGC21tGl1K5FjYq0NxH6tw3HjGvONdzzX23xVPNJ84+Wt&#xA;X1rVNE06/S51TRWRdTtVDAwtJXiCSAp+yfsk4qv/AOmV/wCjH/mTiry78zLXSYtR8t6vXzHpet22&#xA;n+la+YdBsjfQrFJTlbXKBJq1PxKOP04q8y82ad+aHn/SNGt9Ysr+SfTX8wX+m6jJYGwmuUtbSFtN&#xA;lmgT4IpZpuYVaCu1O+Ksm/JHSvNUX5qr5v1rTbq0m866XqN1fRyRSKltMmoj6vC5ZPgP1eIcQxFQ&#xA;fHFWcfm5Y31//wA48X9pY28t3dy6ZZCK3gRpJGIeEniigsdhirDfz48teYte1fy3+i7O5e58r6Fd&#xA;a1ZzRxSFReQyWzpECq/FI4tiAla+Ariqp+RGjeY7D8yr3WNVsLm1fzhokut6g0sTrFFeS6tMUti7&#xA;AD1Ft5FPGladhir27/plf+jH/mTiqL0n/jlWX/GCL/iAxVF4q7FUs8sf8o1pP/MHb/8AJpcVTPFX&#xA;YqlP/TK/9GP/ADJxVF6T/wAcqy/4wRf8QGKovFXYqlnlj/lGtJ/5g7f/AJNLiqZ4q7FUp/6ZX/ox&#xA;/wCZOKqGlaVfnS7MjWbwAwR7BLPb4B42+Kor9E3/AP1erz/gLP8A7J8Vd+ib/wD6vV5/wFn/ANk+&#xA;Kpb5a0q+PlzSiNYvFBs7chQlnQful2FbcnFUy/RN/wD9Xq8/4Cz/AOyfFXfom/8A+r1ef8BZ/wDZ&#xA;Piqj6b/4P9P1W5/o/j61F519CnKnHjXv9mntiry381PzU81eT73yzp1lJZaPol/ZCS78yala3d3A&#xA;kyrRLcLbfZY7H4vHtTdVjvnP8/fOnlfyf5e1WPUNC8wz6pqNwsl1pMc7wtYWscbuCjyBo519Q8+w&#xA;FPfFWVeQPzn1TzP+dnmbygVt/wDD2nW8r6VOiMJJJLWWGCashajjm7/ZXt7Yq3+Y/mP8yvKn5e2/&#xA;mny5d6YmjaZpNm1zZXlvLLcPM7LGSjpIiheMibEdjirHPPn5vfml+X03lUa7c6TqEWszm41BrS2m&#xA;j9HT42tw/wBuU0c+u1G6bYqyb8rvzi1jzd+aXm/yzcxwLpOkmRtGkiRlkkit7k2sjuxYhgzCo2GK&#xA;vSf+mV/6Mf8AmTirGPMfkzzhrltpl15d843Hlsx2SQTWv1O3v7WWorzaGeg5b0rXpirDrH/nF3RI&#xA;BA1xrc93LTWWvmaCNFln1u1FpJKkcZVIhGigqoB37jaiqcfl9+Qlh5L1fQtUtNXluZ9Is7yyuucX&#xA;E3f1ydp+bESHiULAUoa0xVkGu+TYvOf5Tp5Ylumso9S0+0RrpUEhTgI5KhCVr9inXFUs8+fkrY+c&#xA;b+3ub3UmiitdGutHggEIcK9yvH6yCXHxJRTxpvTriqh+Xf5Gaf5I17TNXstUkuGsNGk0WeJoVT6w&#xA;Zb171rh3DMQ3N+NN9gN8VZ1/0yv/AEY/8ycVRek/8cqy/wCMEX/EBiqLxV2KpZ5Y/wCUa0n/AJg7&#xA;f/k0uKpnirsVSn/plf8Aox/5k4qoaV5gsBpdmDFebQRjaxvD+wPCLFUV/iGw/wB9Xn/SDef9UsVd&#xA;/iGw/wB9Xn/SDef9UsVS3y1r9ivlzSlMV5UWduDSyvCNol7iKmKpl/iGw/31ef8ASDef9UsVd/iG&#xA;w/31ef8ASDef9UsVUfWT/B3rUbh+judODc6ehX7FOdfalcVcuuaJpGjafLquoW2nxyQxrG91NHCr&#xA;EIKhTIVriqofNnlYWcV8dZsRZTyejBdG5h9J5KV4I/LizU7A1xVEw6zpE+ozaZDfW8upWyh7iySV&#xA;GnjU0ozxg81HxDqO+KpJpnmryxpOhaPbarq9lp9w9hbSJDdXMULlDGAGCyMppVSK+2Ko2Hzt5Mm9&#xA;P0df06X1pBDDwu4G5ymlI1o+7fENhviqOttZ0i6vbiwtr63nvrT/AHqtYpUeWKv+/EUll+kYqhf+&#xA;mV/6Mf8AmTir55/Pyw8rN5s8sahe6/ptlrNtoyLDo/mC0uLnTJoWd6Sc4Ek4Py5A1HQA9sVeV+Zd&#xA;VTzd5O0HR9G0O10WSO+17UJf0Ssy2l3Jp1hDN9Yt0mHqKHRClOW3Hp2CrN/yC13VNS/PdfNeoEqf&#xA;O9lqTQJSgEdvMtFqAQafVKdumKs9/wCchPK/l24/ISfzFPptvLrtnp2lQWmptGpuI4jdQAokn2gK&#xA;Svt7nFXmn55+V9NsY/I9h5VsbfTLi10a78xXv1ZBGZHgt4pfVcL9ph9Wbc++Kpz/AM456vfXH526&#xA;jrd7+7Tz1pV9rFrATugGqPGiH/VW3kp7UxV9Mf8ATK/9GP8AzJxVfa6fYX2i2UV7bRXUQhiIjmRZ&#xA;FrwG9GBGKog6TpReJzZQF4EMcDGJKojAqyoafCCCQQMVag0bSIHgeCxt4ntQwtmSJFMQevMRkD4e&#xA;XI1p1riqD0K0tbvynpdvdwx3Fu9nbc4ZVDo1I1IqrAg0IriqNl0rS5ZFkls4JJEjMCO0aEiJgQYw&#xA;SPskEinTFXQaRpNvLFLBZQRSwp6UMiRIrJHUngpAqFqSaDFUJ/0yv/Rj/wAycVRek/8AHKsv+MEX&#xA;/EBiqLxV2KpZ5Y/5RrSf+YO3/wCTS4qmeKuxVKf+mV/6Mf8AmTiqhpUHmP8ARdnS+swPQjoDZyn9&#xA;gf8ALziqK+r+Zf8Alvs/+kOX/sqxV31fzL/y32f/AEhy/wDZViqW+WoPMf8AhzSuN9ZhfqdvxBtJ&#xA;SQPSXqfrIxVMvq/mX/lvs/8ApDl/7KsVd9X8y/8ALfZ/9Icv/ZViqjSf/B9Oa+v+j6epxPDn6HXh&#xA;yrSvbl9OKvMvzE/PS58latoHlTS9Fh1PVtR06K89W8v4NNtkjPJFX1Z6IXJhbYsvalScVSvzh/zk&#xA;h5l8q+TNM1zV/KEdpqGo3s1rFYnUEnjeGCJHNzHNDGylWeTiBv0O+Kp/5K/Pu280fm3qvka309I7&#xA;KygkltdT9arzPF6fJTFxoPtt0Y9MVQn5g/mr51/L3yvpOqWPlWPVvLMWmWRu9We9jgMdxKfTEPoU&#xA;eVtuB5BafF7YqkPmj/nJXzr5R0zRL7zR5Ki0/wDTkjtaIuoRz8rSNIWaYeir0P78fC1DirLfy+/P&#xA;NPN/5peZPJMenxwwaGty1vqCTGQ3AtblLdjx4KoBL1FGOKvQf+mV/wCjH/mTiry780Pyy88+cRpM&#xA;ukL5dvNKhsIomsdetpGkSbctLFcwI068lKjiGA+GuKsAt/8AnEzzh+idK0u81bT5rO3fVbm6gSS4&#xA;VIZr+1jhgFuGifksckCuzNxPse6qfflJ/wA45+cfJPnPy95hu7/Tphax3ya8IJJzJK1ysghMRaJA&#xA;9Kx8ufGlDSuKs5/MfyHq/nv8loPLekTW8F9dW+nvHJds6RAQmORqmNJW6Lt8OKsZ/NT8hvM3na78&#xA;uKlzp62GiaHdWDJO8vI38tq0cMiBYWHprMsTFieQAJC16qoX8oP+cffNvkbzro/mC6vLCdE0y6tN&#xA;faGa4eWa6nuppUkj9SFQy+mYFYsymoO3iq9p/wCmV/6Mf+ZOKovSf+OVZf8AGCL/AIgMVReKuxVL&#xA;PLH/ACjWk/8AMHb/APJpcVTPFXYqlP8A0yv/AEY/8ycVb0rVdLGl2YN5ACII6j1E/kHviqK/S2lf&#xA;8tsH/I1P64q79LaV/wAtsH/I1P64qlvlrVdLHlzSgbyAEWduCDIn++l98VTL9LaV/wAtsH/I1P64&#xA;q79LaV/y2wf8jU/riqC9SP8Awj6nIen+j+XOo48fRrWvhir/AP/Z</xapGImg:image>
    </rdf:li>
   </rdf:Alt>
  </xap:Thumbnails>
 </rdf:Description>

 <rdf:Description rdf:about='uuid:edb884e2-f419-11dd-8862-001124740a56'
  xmlns:xapMM='http://ns.adobe.com/xap/1.0/mm/'>
  <xapMM:DocumentID>uuid:831aaf18-81ce-11da-9137-001124808cba</xapMM:DocumentID>
 </rdf:Description>

 <rdf:Description rdf:about='uuid:edb884e2-f419-11dd-8862-001124740a56'
  xmlns:dc='http://purl.org/dc/elements/1.1/'>
  <dc:format>image/svg+xml</dc:format>
 </rdf:Description>

</rdf:RDF>
</x:xmpmeta>
                                                                                                                                                                                                                                                                                                                                                                                                                                                                                                                                                                                                                                                                                                                                                                                                                                                                                                                                                                                                                                                                                                                                                                                                                                                                                                                                                                                                                                                                                                                                                                                                                                                                                                                                                                                                                                                                                                                                                                                                                                                                                                                                <?xpacket end='w'?>
			</metadata>
		<g id="レイヤー1">
			<g>
				<rect x="0.125" y="0.125" fill="none" stroke="#000000" stroke-width="0.25" width="100" height="150"/> 
				<rect x="0.125" y="150.125" fill="none" stroke="#000000" stroke-width="0.25" width="100" height="150"/> 
				<rect x="0.125" y="300.125" fill="none" stroke="#000000" stroke-width="0.25" width="100" height="150"/> 
				<rect x="0.125" y="450.125" fill="none" stroke="#000000" stroke-width="0.25" width="100" height="150"/> 
				<rect x="0.125" y="600.125" fill="none" stroke="#000000" stroke-width="0.25" width="100" height="150"/> 
				<rect x="0.125" y="750.125" fill="none" stroke="#000000" stroke-width="0.25" width="100" height="150"/> 
				<rect x="0.125" y="900.125" fill="none" stroke="#000000" stroke-width="0.25" width="100" height="150"/> 
				<rect x="100.125" y="0.125" fill="none" stroke="#000000" stroke-width="0.25" width="100" height="150"/> 
				<rect x="100.125" y="150.125" fill="none" stroke="#000000" stroke-width="0.25" width="100" height="150"/> 
				<rect x="100.125" y="300.125" fill="none" stroke="#000000" stroke-width="0.25" width="100" height="150"/> 
				<rect x="100.125" y="450.125" fill="none" stroke="#000000" stroke-width="0.25" width="100" height="150"/> 
				<rect x="100.125" y="600.125" fill="none" stroke="#000000" stroke-width="0.25" width="100" height="150"/> 
				<rect x="100.125" y="750.125" fill="none" stroke="#000000" stroke-width="0.25" width="100" height="150"/> 
				<rect x="100.125" y="900.125" fill="none" stroke="#000000" stroke-width="0.25" width="100" height="150"/> 
			</g>
			<g>
				<g>
					<polygon points="145.125,935.125 145.125,943.375 133.25,943.375 133.25,971.625 123,971.625 123,943.375 111.125,943.375 
						111.125,935.125 "/>
					<polygon points="175.5751953,948.625 177.2753906,971.625 187.125,971.625 182.625,935.125 170.625,935.125 
						166.1757812,960.625 166.0751953,960.625 161.625,935.125 149.625,935.125 145.125,971.625 154.7753906,971.625 
						156.4746094,948.625 156.5742188,948.625 161.0253906,971.625 171.0253906,971.625 175.4746094,948.625 "/>
				</g>
				<g>
					<polygon points="144.9580078,785.125 144.9580078,792.5634766 132.777832,792.5634766 132.777832,821.625 123.5830078,821.625 
						123.5830078,792.5634766 111.402832,792.5634766 111.402832,785.125 "/>
					<polygon points="175.4638672,797.4033203 177.4082031,821.625 186.2915039,821.625 181.8466797,785.125 171.0688477,785.125 
						165.7861328,811.625 165.6860352,811.625 160.4023438,785.125 149.6245117,785.125 145.1801758,821.625 153.8637695,821.625 
						155.8076172,797.4033203 155.9072266,797.4033203 161.0800781,821.625 170.1918945,821.625 175.362793,797.4033203 "/>
				</g>
				<g>
					<polygon points="144.7915039,635.1259766 144.7915039,641.7529297 132.3061523,641.7529297 132.3061523,671.6259766 
						124.1665039,671.6259766 124.1665039,641.7529297 111.6811523,641.7529297 111.6811523,635.1259766 "/>
					<polygon points="175.3525391,646.1816406 177.5415039,671.6259766 185.4584961,671.6259766 181.0688477,635.1259766 
						171.5136719,635.1259766 165.3979492,662.6259766 165.2973633,662.6259766 159.1801758,635.1259766 149.625,635.1259766 
						145.2358398,671.6259766 152.9526367,671.6259766 155.1411133,646.1816406 155.2407227,646.1816406 161.1362305,671.6259766 
						169.3588867,671.6259766 175.2519531,646.1816406 "/>
				</g>
				<g>
					<polygon points="144.625,485.1259766 144.625,490.9423828 131.8339844,490.9423828 131.8339844,521.6259766 
						124.75,521.6259766 124.75,490.9423828 111.9589844,490.9423828 111.9589844,485.1259766 "/>
					<polygon points="175.2412109,494.9599609 177.6748047,521.6259766 184.625,521.6259766 180.2910156,485.1259766 
						171.9580078,485.1259766 165.0087891,513.6259766 164.9082031,513.6259766 157.9580078,485.1259766 149.625,485.1259766 
						145.2910156,521.6259766 152.0410156,521.6259766 154.4746094,494.9599609 154.5742188,494.9599609 161.1914062,521.6259766 
						168.5253906,521.6259766 175.140625,494.9599609 "/>
				</g>
				<g>
					<polygon points="144.4580078,335.125 144.4580078,339.6699219 130.9306641,339.6699219 130.9306641,371.6254883 
						125.5410156,371.6254883 125.5410156,339.6699219 112.0136719,339.6699219 112.0136719,335.125 "/>
					<polygon points="175.8066406,343.0429688 178.8183594,371.6254883 184.125,371.6254883 179.6518555,335.125 
						173.3183594,335.125 165.2304688,365.3398438 165.1303711,365.3398438 157.0415039,335.125 150.7080078,335.125 
						146.2353516,371.6254883 151.4082031,371.6254883 154.4199219,343.0429688 154.5195312,343.0429688 162.262207,371.6254883 
						167.9648438,371.6254883 175.7060547,343.0429688 "/>
				</g>
				<g>
					<polygon points="144.2915039,185.1254883 144.2915039,188.3974609 130.027832,188.3974609 130.027832,221.6254883 
						126.3334961,221.6254883 126.3334961,188.3974609 112.0698242,188.3974609 112.0698242,185.1254883 "/>
					<polygon points="176.3720703,191.1264648 179.9624023,221.6254883 183.625,221.6254883 179.0136719,185.1254883 
						174.6791992,185.1254883 165.4526367,217.0541992 165.3530273,217.0541992 156.1259766,185.1254883 151.7915039,185.1254883 
						147.1806641,221.6254883 150.7753906,221.6254883 154.3666992,191.1264648 154.4663086,191.1264648 163.3339844,221.6254883 
						167.4047852,221.6254883 176.2719727,191.1264648 "/>
				</g>
				<g>
					<polygon points="144.125,35.125 112.125,35.125 112.125,37.125 127.125,37.125 127.125,71.625 129.125,71.625 129.125,37.125 
						144.125,37.125 "/>
					<polygon points="176.9375,39.2099609 181.1064453,71.625 183.125,71.625 178.375,35.125 176.0400391,35.125 
						165.6748047,68.7685547 165.5751953,68.7685547 155.2099609,35.125 152.875,35.125 148.125,71.625 150.1425781,71.625 
						154.3125,39.2099609 154.4121094,39.2099609 164.4052734,71.625 166.8447266,71.625 176.8378906,39.2099609 "/>
				</g>
			</g>
			<g>
				<g>
					<path d="M22.625,945.875c0,1.6318359,1.0166016,2.4814453,5.5,3c13.3632812,1.5458984,18,5.5019531,18,11.75
						c0,6.7851562-5.7734375,11.25-16.75,11.25c-6.21875,0-11.6943359-1.0830078-17.25-3.5l2-8.25
						c5.6113281,2.46875,10.4833984,3.5,15.75,3.5c4.3027344,0,6-1.1220703,6-2.75c0-1.5966797-0.8886719-2.3066406-5.75-3
						c-13.6894531-1.9501953-17.75-5.6914062-17.75-12c0-6.6230469,5.4873047-11,17-11c5.5546875,0,10.8232422,0.7929688,16,2.5
						l-2,8c-5.7363281-1.6894531-9.5625-2.25-14-2.25C24.0527344,943.125,22.625,944.1015625,22.625,945.875z"/>
					<polygon points="78.5751953,948.625 80.2753906,971.625 90.125,971.625 85.625,935.125 73.625,935.125 69.1757812,960.625 
						69.0751953,960.625 64.625,935.125 52.625,935.125 48.125,971.625 57.7753906,971.625 59.4746094,948.625 59.5742188,948.625 
						64.0253906,971.625 74.0253906,971.625 78.4746094,948.625 "/>
				</g>
				<g>
					<path d="M14.6191406,810.9824219c5.3632812,2.4375,10.0478516,3.4589844,15.2138672,3.4589844
						c4.8071289,0,6.8300781-1.3466797,6.8300781-3.4121094c0-1.9921875-1.0805664-2.9443359-6.6308594-3.7714844
						c-12.9780273-1.9072266-17.0327148-5.5449219-17.0327148-11.7167969c0-6.3818359,5.3969727-10.6660156,16.4169922-10.6660156
						c5.3964844,0,10.5117188,0.8095703,15.5830078,2.5410156l-1.7954102,7.2001953
						c-5.4819336-1.7158203-9.3486328-2.3076172-13.7875977-2.3076172c-5.5205078,0-7.2832031,1.2324219-7.2832031,3.2744141
						c0,1.9248047,1.2749023,2.9960938,6.2880859,3.6386719c12.9931641,1.6279297,17.3701172,5.3779297,17.3701172,11.6943359
						c0,6.6035156-5.6904297,10.9589844-16.375,10.9589844c-6.0029297,0-11.253418-1.0761719-16.625-3.5L14.6191406,810.9824219z"/>
					<polygon points="78.4628906,797.4023438 80.4082031,821.625 89.2915039,821.625 84.8466797,785.125 74.0693359,785.125 
						68.7866211,811.625 68.6860352,811.625 63.402832,785.125 52.625,785.125 48.1801758,821.625 56.8637695,821.625 
						58.8076172,797.4023438 58.9072266,797.4023438 64.0805664,821.625 73.1914062,821.625 78.362793,797.4023438 "/>
				</g>
				<g>
					<path d="M15.1137695,661.8408203c5.1157227,2.40625,9.612793,3.4179688,14.6777344,3.4179688
						c5.3115234,0,7.6611328-1.5712891,7.6611328-4.0751953c0-2.3867188-1.2734375-3.5820312-7.5131836-4.5419922
						C17.6738281,654.7773438,13.625,651.2412109,13.625,645.2080078c0-6.1416016,5.3061523-10.3330078,15.8334961-10.3330078
						c5.2382812,0,10.2006836,0.8261719,15.1665039,2.5830078l-1.590332,6.3984375
						c-5.2280273-1.7402344-9.1347656-2.3652344-13.5761719-2.3652344c-5.7182617,0-7.8164062,1.4902344-7.8164062,3.8007812
						c0,2.2177734,1.5327148,3.5107422,7.0761719,4.2763672c12.6235352,1.7109375,16.7402344,5.2548828,16.7402344,11.6396484
						c0,6.421875-5.6069336,10.6669922-16,10.6669922c-5.7866211,0-10.8125-1.0683594-16-3.5L15.1137695,661.8408203z"/>
					<polygon points="78.3520508,646.1806641 80.5410156,671.625 88.4584961,671.625 84.0693359,635.125 74.5146484,635.125 
						68.3979492,662.625 68.2973633,662.625 62.1811523,635.125 52.625,635.125 48.2358398,671.625 55.9526367,671.625 
						58.1416016,646.1806641 58.2412109,646.1806641 64.1362305,671.625 72.3588867,671.625 78.2519531,646.1806641 "/>
				</g>
				<g>
					<path d="M15.6083984,512.6992188c4.8671875,2.375,9.1767578,3.3759766,14.1416016,3.3759766
						c5.8154297,0,8.4912109-1.7949219,8.4912109-4.7373047c0-2.7822266-1.4658203-4.2197266-8.3945312-5.3134766
						C18.2929688,504.203125,14.25,500.7705078,14.25,494.875c0-5.9013672,5.2158203-10,15.25-10
						c5.0800781,0,9.8896484,0.8427734,14.75,2.625l-1.3857422,5.5976562
						c-4.9736328-1.765625-8.9208984-2.4228516-13.3642578-2.4228516c-5.9160156,0-8.3496094,1.7460938-8.3496094,4.3251953
						c0,2.5117188,1.7910156,4.0263672,7.8642578,4.9150391C41.2685547,501.7080078,45.125,505.046875,45.125,511.5
						c0,6.2402344-5.5234375,10.375-15.625,10.375c-5.5703125,0-10.3710938-1.0615234-15.375-3.5L15.6083984,512.6992188z"/>
					<polygon points="78.2402344,494.9580078 80.6738281,521.625 87.625,521.625 83.2910156,485.125 74.9589844,485.125 
						68.0087891,513.625 67.9082031,513.625 60.9589844,485.125 52.625,485.125 48.2910156,521.625 55.0410156,521.625 
						57.4746094,494.9580078 57.5742188,494.9580078 64.1914062,521.625 71.5253906,521.625 78.140625,494.9580078 "/>
				</g>
				<g>
					<path d="M16.1025391,364.0073242c4.6191406,2.3432617,8.7416992,3.3339844,13.6054688,3.3339844
						c6.4863281,0,9.8276367-2.1308594,9.8276367-5.6582031c0-2.8735352-1.453125-5.0830078-9.7817383-6.4418945
						c-10.8017578-1.7421875-14.8793945-5.0380859-14.8793945-10.699707c0-5.6611328,5.1254883-9.6665039,14.6665039-9.6665039
						c4.9223633,0,9.5834961,0.8466797,14.3334961,2.6665039l-1.1806641,4.3461914
						c-4.7280273-1.7666016-8.7075195-2.4799805-13.152832-2.4799805c-6.2724609,0-9.3994141,2.0795898-9.3994141,5.2172852
						c0,2.6337891,1.6582031,4.7197266,9.1694336,5.8857422c11.4433594,1.7758789,15.4804688,5.0751953,15.4804688,11.2807617
						c0,6.0585938-5.4399414,10.0830078-15.2504883,10.0830078c-5.3535156,0-9.9296875-1.0537109-14.75-3.5L16.1025391,364.0073242z
						"/>
					<polygon points="78.8056641,343.0410156 81.8178711,371.625 87.1245117,371.625 82.6518555,335.1245117 
						76.3193359,335.1245117 68.2304688,365.3383789 68.1298828,365.3383789 60.0424805,335.1245117 53.7080078,335.1245117 
						49.2353516,371.625 54.4077148,371.625 57.4204102,343.0410156 57.5200195,343.0410156 65.262207,371.625 70.9648438,371.625 
						78.7060547,343.0410156 "/>
				</g>
				<g>
					<path d="M16.5976562,215.315918c4.3706055,2.3110352,8.3061523,3.2924805,13.0693359,3.2924805
						c7.15625,0,11.1635742-2.4672852,11.1635742-6.5791016c0-2.9658203-1.4404297-5.9462891-11.1694336-7.5712891
						C19.6118164,202.7954102,15.5,199.6362305,15.5,194.2084961c0-5.4208984,5.034668-9.3334961,14.0834961-9.3334961
						c4.7641602,0,9.2763672,0.8520508,13.9165039,2.7084961l-0.9760742,3.0957031
						c-4.4824219-1.7680664-8.4941406-2.5375977-12.9404297-2.5375977c-6.6298828,0-10.4501953,2.4135742-10.4501953,6.1083984
						c0,2.7563477,1.5273438,5.4003906,10.4746094,6.8579102c10.6376953,1.7324219,14.8505859,5.0175781,14.8505859,10.9755859
						c0,5.8769531-5.3564453,9.7915039-14.875,9.7915039c-5.1376953,0-9.4882812-1.0463867-14.125-3.5L16.5976562,215.315918z"/>
					<polygon points="79.371582,191.1254883 82.9624023,221.625 86.625,221.625 82.0136719,185.125 77.6801758,185.125 
						68.4521484,217.0527344 68.3530273,217.0527344 59.1269531,185.125 54.7919922,185.125 50.1801758,221.625 53.7753906,221.625 
						57.3666992,191.1254883 57.4663086,191.1254883 66.3334961,221.625 70.4047852,221.625 79.2719727,191.1254883 "/>
				</g>
				<g>
					<path d="M29.9042969,51.7041016C39.7392578,53.3740234,44.125,56.6650391,44.125,62.375c0,5.6953125-5.2724609,9.5-14.5,9.5
						c-4.9208984,0-9.046875-1.0390625-13.5-3.5l0.9667969-1.7509766C21.2148438,68.9033203,24.9628906,69.875,29.625,69.875
						c7.8271484,0,12.5-2.8037109,12.5-7.5c0-3.0576172-1.4277344-6.8095703-12.5566406-8.7001953
						C20.2714844,52.0917969,16.125,49.0693359,16.125,43.875c0-5.1806641,4.9443359-9,13.5-9
						c4.6064453,0,8.9697266,0.8564453,13.5,2.75l-0.7714844,1.8447266C38.1171875,37.7001953,34.0732422,36.875,29.625,36.875
						c-6.9863281,0-11.5,2.7470703-11.5,7C18.125,46.7539062,19.5244141,49.9355469,29.9042969,51.7041016z"/>
					<polygon points="79.9375,39.2089844 84.1064453,71.625 86.125,71.625 81.375,35.125 79.0410156,35.125 68.6738281,68.7666016 
						68.5751953,68.7666016 58.2109375,35.125 55.875,35.125 51.125,71.625 53.1425781,71.625 57.3125,39.2089844 
						57.4121094,39.2089844 67.4042969,71.625 69.8447266,71.625 79.8378906,39.2089844 "/>
				</g>
			</g>
		</g>
	</svg>
