<?xml version="1.0" encoding="utf-8"?>
<!-- Generator: Adobe Illustrator 11 Build 225, SVG Export Plug-In . SVG Version: 6.0.0 Build 78)  -->
<!DOCTYPE svg PUBLIC "-//W3C//DTD SVG 1.0//EN"    "http://www.w3.org/TR/2001/REC-SVG-20010904/DTD/svg10.dtd" [
	<!ENTITY ns_flows "http://ns.adobe.com/Flows/1.0/">
	<!ENTITY ns_svg "http://www.w3.org/2000/svg">
	<!ENTITY ns_xlink "http://www.w3.org/1999/xlink">
]>
<svg  xmlns="&ns_svg;" xmlns:xlink="&ns_xlink;" xmlns:a="http://ns.adobe.com/AdobeSVGViewerExtensions/3.0/"
	 width="200.25" height="1050.25" viewBox="0 0 200.25 1050.25" overflow="visible" enable-background="new 0 0 200.25 1050.25"
	 xml:space="preserve">
	<metadata>
		<x:xmpmeta  x:xmptk="XMP toolkit 3.0-29, framework 1.6" xmlns:x="adobe:ns:meta/">
			<rdf:RDF  xmlns:rdf="http://www.w3.org/1999/02/22-rdf-syntax-ns#" xmlns:iX="http://ns.adobe.com/iX/1.0/">
				<rdf:Description  rdf:about="" xmlns:pdf="http://ns.adobe.com/pdf/1.3/"></rdf:Description>
				<rdf:Description  rdf:about="" xmlns:tiff="http://ns.adobe.com/tiff/1.0/"></rdf:Description>
				<rdf:Description  rdf:about="" xmlns:xap="http://ns.adobe.com/xap/1.0/" xmlns:xapGImg="http://ns.adobe.com/xap/1.0/g/img/">
					<xap:CreateDate>2005-10-18T08:31:30Z</xap:CreateDate>
					<xap:ModifyDate>2005-10-18T08:31:30Z</xap:ModifyDate>
					<xap:CreatorTool>Illustrator</xap:CreatorTool>
					<xap:Thumbnails>
						<rdf:Alt>
							<rdf:li  rdf:parseType="Resource">
								<xapGImg:format>JPEG</xapGImg:format>
								<xapGImg:width>172</xapGImg:width>
								<xapGImg:height>256</xapGImg:height>
								<xapGImg:image>/9j/4AAQSkZJRgABAgEASABIAAD/7QAsUGhvdG9zaG9wIDMuMAA4QklNA+0AAAAAABAASAAAAAEA
AQBIAAAAAQAB/+4ADkFkb2JlAGTAAAAAAf/bAIQABgQEBAUEBgUFBgkGBQYJCwgGBggLDAoKCwoK
DBAMDAwMDAwQDA4PEA8ODBMTFBQTExwbGxscHx8fHx8fHx8fHwEHBwcNDA0YEBAYGhURFRofHx8f
Hx8fHx8fHx8fHx8fHx8fHx8fHx8fHx8fHx8fHx8fHx8fHx8fHx8fHx8fHx8f/8AAEQgBAACsAwER
AAIRAQMRAf/EAaIAAAAHAQEBAQEAAAAAAAAAAAQFAwIGAQAHCAkKCwEAAgIDAQEBAQEAAAAAAAAA
AQACAwQFBgcICQoLEAACAQMDAgQCBgcDBAIGAnMBAgMRBAAFIRIxQVEGE2EicYEUMpGhBxWxQiPB
UtHhMxZi8CRygvElQzRTkqKyY3PCNUQnk6OzNhdUZHTD0uIIJoMJChgZhJRFRqS0VtNVKBry4/PE
1OT0ZXWFlaW1xdXl9WZ2hpamtsbW5vY3R1dnd4eXp7fH1+f3OEhYaHiImKi4yNjo+Ck5SVlpeYmZ
qbnJ2en5KjpKWmp6ipqqusra6voRAAICAQIDBQUEBQYECAMDbQEAAhEDBCESMUEFURNhIgZxgZEy
obHwFMHR4SNCFVJicvEzJDRDghaSUyWiY7LCB3PSNeJEgxdUkwgJChgZJjZFGidkdFU38qOzwygp
0+PzhJSktMTU5PRldYWVpbXF1eX1RlZmdoaWprbG1ub2R1dnd4eXp7fH1+f3OEhYaHiImKi4yNjo
+DlJWWl5iZmpucnZ6fkqOkpaanqKmqq6ytrq+v/aAAwDAQACEQMRAD8A9U4q7FXYq7FXYq7FXYq7
FXYqhtT1Kx0vTbvU7+UQWNjDJc3c5BISKFC8jkKCfhVSdhiqJxV2KuxV2KuxV2KuxV2KuxV2KuxV
2KsW/Kx3f8uvLruxZmsYSWJqSePjirKcVdirzfyzp2tRXXlUz21yiwXmvtdGRJAESW4mMBkqNg6k
FK9R0xV6RirsVedfmP5ovob/AEXTItC1SZf0zaFbiBbb0rj0Fa6KRFp1ev7mvxKv2T2xVS0PzfqF
z+Y+tyny3q6RtZ6VYlGW0pAUlu5mkkpcmgZbpfs1NF6Yq9KxV4n5/i0vWNG/MyPX72WTW9L0+/fS
NGeeSGKGzSwLw3MNurIk3qPyLSsGofg2pTFXp2ieStJ0PUGu9KmvLeB42jk01rqaazLFgwlEMzSC
NxxpWMrWp5V2oqn2KvPrfyx5b81ec/Nb+ZbGDWJNLubax020vY1mit7V7C3ufUhjkDKryTzSgyqO
R4ha/DiqWadrmpxeU18r6HdSSalf6pqOkaBfuxleHT7S5dJrss1eS2UdYkLV5OIwftYq9J0jS7LS
dLtNLskKWdlCkECkliEjUKOTHdjtuTuTirEvzIt7CbUfLia/H63lGW5kg1SJ/wDeY3MyBbH62vRo
DJySjVT1GTl2xVBeWtN8s2v5jPD5KtIbLSbGxuIPMSaeixaebxpYTaxCOICE3MapMXKjkqkBvtCi
r0XFWN6Tb3qefPMU8kUi2ctnpi28rKwjZ0N16gRj8JK8l5U8RXFWSYq7FXYqxr8tLS6s/IGgWt3D
Jb3MNlEk0EqlJEYLurKwBB+eKslxV2KuxV2KuxV5r5x8weY285+V7WPyvdyrZajeXVs63NiouFis
Lm15JymBUcbrlR6H6dsVXeR9c8wXXnHzTLN5buoIp9St7ae4e4s3W3EGn254twmZm+KQmkYYb+NQ
FXpGKsG/OfRtE1T8sfNM1/ZW95NYaRqM1nLNGkjwTR2sjB42YEowKjcYqutbW68q+bdH0mz1C4vN
D1tbmJdOvZXupLSW2i9YSw3Epeb0So9NkdmAJTjx3BVZvirHvMnk3ynqkzarq0TwzwQlJ763urix
c26VcpNLbSQGSJak8XJXrtirzvStPubufRLrTuegWnmeU2Oki2VYpbLy9Y28lzFDCGBEU17IgkkI
HII1PtICFWY6XBf+XvPNroiald6hpGr6fdXkUN9K1zLbXFjLbxsUmespjlW7FQ7EKyjjTliqjqum
nzr5k1fQNTmkj8r6OsEN3pcLGJr+e4jE5NxIhEn1dI2VRGpAduXOqjjiqVfpf/lVWlS6NexmTy3F
DO3le/RSWWRVaRNMuAo+KVj8Nu/WX7J+MVdVn3lu31G38vaXb6nK0+pQ2kEd9MxqzzrEolYkdSzg
nFUxxV2KuxV2KoXStP8A0dpttY/WZ7z6tGI/rV2/qzycf2pHoOTHuaYqisVdirsVdirsVS+60S1u
dasNXkeQXOnR3EUEYI9Mi69PmWBBPIeiONCOpxV2k6JaaXJqEkDyO+pXb3twZCD+8dEjovELRQkS
gfrxVMMVYL57/K601zR/MK6Ncz6TrGtWVzBKYbiSKzuJpoDEpuoKSxEGoDusfqce9aYqnmh+S9L0
q/bVGnutS1d4zAdR1Cdp5ViJDNHEvwxRKzKCwjReRpXoMVT7FUs8yeX7PzBpMmk3skqWVw0Zuo4S
q+tEjh2gclW/dyheEgFCVJFcVWeYvLVlrlnBBLLNZ3FnMtzp9/aMqT206KyCSIusifYdkKurKykg
gg4qhdA8oDTdTm1i/wBTuta1maEWwvbwQp6VuG5mKGK3jhjRWajMeJZiBU7CirWteTo77VBrGn6l
eaJq/pLBNd2JhYTxRlmjjnhuI54ZAhduLcQ4qaMMVS+4/LHTtVP/ADtepXvmZFVhFa3xhitY2deP
Nbe0itkLqCeDycmU7qQcVZLo2nNpml2untd3F/8AVYxELu8ZXuJAuwMjosYZqbcqVPU1O+KozFXY
q7FXYq7FXYq7FXYq7FXYq7FXYq7FXYq7FXYq7FXYq7FXYq7FXYq7FXYq7FXYqkPkXzhY+cPK9p5h
sYZbe1u3nRIZ+PqA21xJbtXiWG7REjfpiqfYq7FWIaT+ZelanJpKRWs6HV9U1DR4OfD4ZdNS4eR2
ox+BhaNxpvuK4qy/FXYqkvmnzVZ+XYdNkuopJv0nqVppUCxcaiW9lEaseRHwr9pqb0xV0Pmqzm85
XflVIZDd2dhBqM1xQeiFuJZIkjrWvP8AclunTFU6xV5t+ZP5y6d5bttd03RrS81jzJpWnzXc6Wds
09tYt6LSQyX0paJEj25MA3Lj26YqmHkX807HzHJZ6Ze6bqWj63cWouUg1C0aCKdVVTJJbyqZYnSr
VHx1p2xVnOKsK1/8yLm08xXHl7y95evfMup6fDHcasLSS3gitUmBMSPLcSRqZXUcljXfjviqZaL5
+8uap5Qk81iV7TS7ZJ31AXS+nLatalluIp034vEyEECvtUUxVMPLOtNrmgWGsGzmsBfwrOlpc8RM
iPunMKWAJWhpXbFUr87+frHyr+jrb6ldarrOszNBpOkWKq087xrzkasjIiRxru7s2wxVAaB+ZU91
5kt/LXmLy/e+WtZvYZLjTY7l7e4guUgoZVintZJU5orBmVqbYqzbFUqs/MVrdeZdU0BInW50q2s7
qaU04Mt806oFoa1X6q1ajuMVTXFXYq7FXmv/ADjj/wCSd0X/AIz6l/3U7nFXpWKuxVhGi/ljBpcm
jOuoNL+h9X1LWVBjC+o2ppcoYj8R4iP659rvx6CuKs3xV2KvH/ze8r3955o8nxJ5k1WFNU8wQtHZ
xmyEFqLW0nm9W35WzSeoGjFPUZ13O3Siqh5O8n6lL+bnnB2826zI2jx6PbtKzWBe4VopLow3FLQL
wHqCgjCNRjU7iir2fFXhX5laB548paV+Y99pNhBrnlfzZZXdzfkTLb3unytYtBLKQ44TwhV5cVIc
dKeKrOPyt/Mjyx5g02z0O3eaz17T7G3N1pF/C9tciMRqvqorikkZ7MhI3HjirPcVeaTS+ZPJ3n7z
Nqi+Xr3XtG8zfVLq3m0sQvNBc2lqlq8E8cskJ4usSsrgkCtDirz71VhS70Xzg66Vo/6Ul82efIEb
6wkbX1wG0zRf3QYyySlUllVF+ILt9rFXtHlf8w/LPmS9uNPsJLiDU7WNZ5tOv7aeyufRc0WZYrlI
2aMnbktRX5jFWGfnlf2+mXnljW9KuBL560q6kfQNDRHml1CG4QR3lt6cQZ0Vo1B9UjihUVxVD/l5
qF75+19fzI1uWLT7Py8t5YaZ5ajLPcWUrEJdy6gzLGwnZI6CPjRVodzuVXqWia1put6RZ6xpc31j
Tr+JLi0n4unOOQVVuLhXFR2IriqDsfLiWnmvV/MInLvqtrY2jW/GgjFi1wwYNXfn9a6U2piqc4q7
FXYqwz8nbLRrH8vNNttG+uDTklvTD+ko1iuqtezNJzRdgPULcPFaHFWZ4q7FXYq7FXYq8e87fl89
5+anlDhq2uehdSave3Ekd7KEtStuqqsDdIAxuOAUdV26A4q3+WXkF083+b9Wm1TWh9V1xILcT3kt
LqO1s7ejXAP9+tWKgn9kU7Yq9gxV5J+b3n++sPK3nPQtW8t6lDbXGl30Ol63axG8splls2VTO8NW
tmDsQfUWlBy5UxVL/Kj3/nLzj5C1jT9CvLDSfKWnzi91rUbdrT6011ZC3jt7VXpJKgYmQuV47be6
r2vFUl85+Y/8OeWr7V0tZb64gQLaWMCs8k9xIQkMSqtT8UjAE9hv2xV5hrfkrUfLHlfyxrWoQNrO
oWPmGLzF50e2iMrySzRSxyXEcagu62byp6aqPsJWm2KprYa/pvnf82NB1fyys1xpPl/T79dU1gwS
QQyPfeiILRGlVGkZTE0jACi7b1JGKofVNVg8k/nFrPmXzPa3B0PW9Os7XSddigluYrI2xf6xay+i
sjxCZ2WSvHiaexoqw38xtU/xNf3Wp/k1DqF55j1K0msvMc1vaywadPZmB1DTyXIgQ3cdR6DIS37J
22xV7V+W91os/kbRU0ZZotPtLSG0iguo2huIvq6CIxzRtusi8fi8eoJG+KskxV2KuxV2KuxV2Kux
V2KuxV2KuxV2KuxVD6jp9lqOn3On30K3FleRPb3UD/ZkilUo6N7MpIxVUt7eG2t4reBBHBCixxRj
oqKKKB8gMVVMVdirsVdirsVdirsVdirsVdirsVdirsVdirsVdirsVdirsVdiqncXFvbW8tzcypBb
wI0k00jBEREHJmZmoAoAqScVdb3Fvc28VzbSpPbzoskM0bB0dHHJWVlqCpBqCMVVMVdirsVdirsV
dirsVdirsVdirsVeS/8AOM/mLXde8h6hea1fz6jdR6xdwJPcOZHESLHxQFv2RU0GKvWsVdirwGy8
3+aH0by9K2q3JkuPzIl0udzK1XsRJdAWzb7xfAvw9NsVe/Yq7FXhH57fnh5Z0i80zy5p3mCWx1ux
12w/xBHCl3GYtPoZLgtIkfGROLJVY2LGuw2xVBaT/wA5F+R7z86LmX/E0x8qTaVBY6ZAYbwQyajJ
chmYQ+jVW4njzdR86Yq+hMVfOH5leaPPfnTUvzM0HTdaTy/5b8laVM17YpBHLc6lztZXdWdzyjjP
plSU7EbEnZVln5I+XPzP03RPKV7N5og1byde6RbSy6TdWqxXNoJLRWgjtp46l1QlVPqH7I6VNcVe
x4q8bvrXzF5//NrzX5ebzNqfl7Q/KFvp6W9voswtZri41CA3Bmml4uzKlOPDp0/yuSqA8v8A5ueY
dJ/LDXP0lMNb82aTr135U0OQKofUryNlW2fiKA7SVbxCnvir1byNomraJ5V07TtZ1KbVtXjj5ahq
E7mRpJ3JeTiT0RWPFB/KBirz/wDPfzL5hs9Z8k+WtO1p/Lem+Zr2e31TXIVHqxCJYzFCkjCkbTNI
QG67eFcVSRG8xfl/+cflLyppnmvVfNOn+YI7k6tpeszre3FrHEnKO5WYKjIpPLt0Ujwoq94xVgGm
6vqkn5463pL3UraZBoNlcQ2ZY+ksz3MqtIF6BmVQCcVZ/irsVdirxj/nFGCeH8utSWaNo2Ot3pCu
CpoVi33xV7PirsVU/qtsAAIkor+oo4jZ/wCYf5XviqpirsVfOf5x/m15bn8/eTtONrqXHy5r0txq
I+pyfvGs1aMG32rN8VT8O1N8Vd+XP5teW7v88PON/wDVtTCeYJNG07SlNnIPTKQmKQ3Ip+6HqsCC
x+zvir6MxV5B+fH5ReTda8t+YvOBjmsPMenaTeTG/sZTC06wWzMIblaMsiMq8G25Fdq0xViX5V+b
vzB8mXv5d+XPMF7DrflXzppcLaHKIxFdWDx2scv1c8f7yNBKiVbcjeooVKr6MxVgfm38odM13zGf
MthrOqeW9cmtxZ3t5pE6wm4gX7Kyq6SAsv7LChH0CirwuN00Z7TW/JlqlxpOnasnlT8vpL9jLHd6
xqLML/WLhl4mT+7McbD4fADjTFXrGleYPzJ8qfmN5f8AK3m/V7XzHpvmqG6+pahFaJYSW11ZRes8
bIjOro6bKTuT4U3VSj83J7/8yPNz/k7pMVtbwW1vFqnmDW7qP1Xtk5KYls46r+9PMVavRiPHFWK+
WtQtvyS1PzLYecbcSa7f211eaB55l9SY6ksUfNbSV5GkMcqsi/ADRjT/ACSyr3D8rdY1/Wvy90HW
Nf4fpbUbRLq49NPTWkxLx0Xt+7ZcVZOIohIZQiiQjiXoORA7VxVdirsVdirHvI/l7zBoOkzWeua/
J5ju5LmSeO+mhEDJE4XjDxDy1CUO9e+KshxV2KuxV2KuxVifmDyIdZ8/eVPNjX3op5WW/Edh6XL1
21CAQFjLzHDgFrTia+2Ku8meQv8ADeu+atXa9F5L5mvxfFBD6XoKqcEi5c5PUp/Nt8sVZZiryH8z
PyV1XUrfzNqnlHzDqWnajrdpcfX9CWVJbG/la2MQj4TlVhaUKsZfl8I6UxVr8p/yNfQ30DzJ5r1O
81bzLpemw2tjY3Lp9W0wGARvBAsZdWMYrHz5UPXrvir1/FUk866Fqmv+V9R0XTNT/Q11qERg/SIi
9do43NJOCc4viZKqG5fDWuKsf8y/lFoWq/l9YeTdPnk0iLR2t59Fv4AGktrm1NY56HiHYkty3Fan
cHfFUD5c/LDzQfOdh5u87eZF17UdGt5bfRbe2tFs4ITcrwnmYBn5ySJ8PYfhRV3nX8pNS1LzhF52
8o+YZPLPmgW31O8m9BLu3uoAQVSWF2UbUG+/QbVFcVSbW/yM80edikH5jecpNU0m3YyW2k6ZZxWE
YmKFFleQmZ3K8jQH+JGKs/8AIHlzXvLflu30bWdb/T8ln+6tb9rf6tL6CgBEl/ezCRlG3Pao6iu5
VZHirsVdirsVdirsVdirsVdirsVdirsVdirsVdirsVdirsVdirsVdirsVdirsVdirsVY75N/MPyf
5zivJfLWofX49Pl+r3bejPDwkIrx/fJHXp1FRirIsVdirD3/ADc/L1NNn1JtWpZW2qnQJpfq9z8O
pChMHH0uR6j4wOH+VirMMVdiqR+bvO3ljyhYW9/5ivfqVpd3KWVvJ6Usxe4lVmRAsKSNuI23pTFW
/wDGnlr/ABd/hD65/wA7ELX6+bH05f8Aeblw5+rw9L7X7PKvtiqd4qw38x/zW8oeQ9KubjVb+3Gq
LbS3Gn6Q0vCe5dFYxxqFWRkWR14cytBiqD/Lf86vI3nmysls9StrfXbiFZLjQ2mrPFIV5PGnNYjL
w7si4qz7FWE+evzl/LzyPfQ6f5h1P0b+eMzJaQxS3EgiFf3jrEr8F+E/a8MVT7y75v8ALXmPQI/M
GjahFdaPKrOLsEoqhPt+oHCtGVp8QYCmKu8p+bvL/m3Rk1ry/cteaZK7xxXJimhDtGeLcRMkbMA2
3ICmKqHnPz55S8l6WNT8y6jHp9qzcIuQZ5JH68Y40DO58aDbvirHPJv5+flX5v1dNH0XWQ+pygmC
2nhmtzLQVIjMqqrNQfZrXFXoWKpOnm7y8/myTykt3XzBFZ/pJ7L05drUyCL1PU4+l9tgOPLl7Yqn
GKuxV2KvnX/nDb/jlecv+2qv/EGxV9FYq7FXhE35D+b38p6jo4vNP+s3fnVvNEbmSb0xZEKPTY+j
X1vh+zTj/lYq93xV2KvmX/nJaz/Mq680eV9KfU9OOiatr1qvlyz4OJorlQsSyXLBfiRXnP2a7HFU
t8t6X+dV5/zkJ5h9PV9I/wAT6Tpttb6nfNA/1VrWcQTKkKcOQk4kfER44q+rMVfHX5z6Vc+V/wAy
/O+u+bvLs2taT5i0y4tfLmshBNDaXM1sIrdjy+BGiYcd6Mv2kr3Venf84/W35Ma9ofla+0yLT288
6BZILoxJ9XvBKYTBM8qUjM4o5HMhgDShrir3fFXz1rfmGy/Lj/nIPzJ5n816fctovmHTrWLRtVgg
e4VHhiijkt/h+yZHiO3+rXY1xV5/5cutdPlK58hWkbeXG8/6vd6xcLcARDTPLYCCSaQNxEYlETIl
aBlX/KU4q+mfIPmL8t59Nt/L3k3V7C9g0m3SKOzs7iOV0hjAQOyqeRqerdyfHFXl/wDzlTotxajy
p5/Vba8tPKd6HvNJu3VFuEmliYBA+zEmHiygE0NaGhxVjUGqy/nZ+Z/lrzboel/oXyh5ImS51LXL
z045ZZImjuTA3FiOKekAN6KrMxpUDFX0zYajp+o2kd5p9zFeWctfSubd1ljbixVuLoSpowIPvirD
LfyHq8f53XPntprc6RNoA0hYAz/WfXF0k/Irw4cOKdeda9sVZ3irsVdirxP/AJxi0nynp2neZ18u
+YH1+OXUA9272Ulj6MnE/uwJHk5/6wpir2zFXYq7FXYq7FXyv+cHlP8AMm4/OXyjpjecPVk1TUL6
+8u1tYwNLRGEiDr++4ooX4v5ffFVP8pPJ35lah+b3nS7h85cLzRb+yttevjZof0kiM4aIA0EXFbf
iePiDir6sxV4T+cP566Fpll528j69pt9pl1cabd2uh37xM9te/WLMopVgAV/fOVrQrtUkdMVeP8A
5XQaZ5j/ADK/LiTyNpU9teaDZ25846nGhhgdo1pKWptVkqhY7yFqb9Sq+1sVSvzT5k0vyx5d1DX9
Vk9Ow02Fp5jtU8fsoterOxCqO5OKvlrzz5W8y3n5N63+ZWtwyfprzdf2d3qNvGSWttBV/wDR7dR2
WvpOfbjy3BxVPmu/y11D87Py1P5UxWwkt47l9bfS4vSRbIxKIxc0UDnx9QNz+LcA7lcVU/zfv9Jt
P+cjtGm/MqN5PIUdoDpAmR5LL1uHxNJGgYPSc/GKHbhy+HFWG/mpr/lHRfMN7e/k1rf1mTzTaXNp
5i8uWMEslv6ckL8riKihFKhmai7oakfCSMVfQX/ONl75al/KDQbLQ79b36hEU1BRUPDdzO1xNG6n
cUeU8T0I3GKvT8VdirsVdiqC0zRNF0pZV0uwtrBZ25zLbQxwh2/mbgFqfc4qjcVdirsVdirsVQs+
k6VPfwahPZQS39qCLW7eJGmiDAhhHIRyWtd6HFXWmlaXZT3M9nZwW094/qXcsMaRvM+/xSMoBdtz
ucVRWKpf5g0LTdf0S+0bUo/VsdQgltp1GzcJkMbFTvxajGh7Yqt8t+XdL8uaFZaJpcZjsbCJIIFY
8m4oAoLN+01BucVTLFUNqOmabqVq1pqNpDe2jkF7e4jWWMlTUEo4ZTQ4qrvDE8TQuitEylGjIBUq
RQqQdqUxVL9H8seWtFaVtG0mz0xp95zZ28UBc9fj9NV5fTiqI1HStL1O2NrqVnBfWxIJguY0lSo6
Hi4YYqhdF8q+V9C5foTR7HS+Y4v9StobeorWh9JV774qq6Z5e0DSXmk0vTbWwe4p9Ye1gjhMnGpH
MxqvKnI9cVR+KuxV2KuxV2KuxV2KuxV2KuxV2KuxV2KuxV2KuxV2KuxV2KuxV2KuxV2KuxV2KuxV
4l/zjf8Amx5v8/X3m6HzDJBImjy2iWXoRCKgma5D8qE8v7lcVe24q7FXzNq35+fmFa+SPPOsRTWw
vdA8xLpWnkwKVFsZHWjrX4moo3xV9JWEzz2NtNJ9uWJHamwqygnFVfFXiH/OQv56P5Os7PT/ACpq
1j/iT68kOpWsvGZ4IDEzVkjr8HxMhqcVQR/5yL05vztGip5h01PIMdl6kl+SnBrn0q8BcFqfaYfd
TFXvmKvnj82Pz585yecNU/L38vtGivb2ytpf0rf3BPwKsXOZogJIlQRK1Obtu2wXpVVjv/OM/n/8
2Y7bR9Jm0JtX8o6nezR/4gZ5XmgcAtJ6snKUBV4fCrotenLfFX1Tirwvzt+YX5r67+bt7+XP5dzW
OlyaLZJe6jqN+nqczIkbhRVJQF/0iNQAla1NaYqv8hf85CzS/lZ5h8x+cYIodY8rTvY3UcB4pdTk
AQKg+LizueDUqBTlsNgqz38oNQ886r5HstY86NENW1Ot1FawxeiILaQAwxstSSxX4zXcVp1GKsN/
5yD/ADj8yeSrjQvLvlW2hk1/zC5WK7uhWKJeaxIFBKqXZ36seKgbg12VYXqn5tfnl+WPm/QrD8xZ
tM1rSNbahaxULIiBlSQoVSA84zIpoyEN0B7hV9NYq8vufzB8xx/85CWvkZXi/QMujm/dPTHq+sC4
r6nWnwjbFXqGKuxV2KvmD/nC3/jqfmF/xnsP+J3uKvp/FXYqxWb8rPy9msNQ0+XQrZ7LVbkX2oQE
NxmuQSfVff7VWOKsojjSONY4xxRAFVR0AAoBiq7FXxp/zkZq35N6j+ZGjfo9ka/j1aWDz5c+neKU
S2lhgZWDJR6KkorBX7PeoxVLfJsf5Aal+emsW93FE3ke9hitfLVrwvwr3shto1oAPWWrerUy0Xf5
Yq+3cVfM/wDzkX+T1xo82s/mx5W1qXTL5I1/S1kKgSCbhbOY3U7c1Yc0cENuajpirGfyI/NHzX+X
N55b8j+Z9HRPL/mgwXmj36keqqamV9KXkrNG8ZZl5KeLJvXwxV9fYq8f8/fkl5mvvPz+fPInmb/D
mv3lsLPU/UhE0cyKqoGFeQHwRoKFTuoYEHFXz1qWm6T5Zvr7TZZZPMflnyTeLqPmac0jj1TXpyIY
bSv7zjFFxYNy5GgmP7SjFXtXlr8+vzDtPNXlfSvP3la30nTfOIRdEvLSRiweUqIxIheXvLGGU8Sv
IH2xVJf+csNV8u+Yb3R/IOm6XNq/n95Fl057dgn1VJ6ckdmBD+qqVK7BQA5YU3VeaaLqC6B+YWqX
n51ve33mzy3YGfyzaX0nOyuZrWNngjaRQ9RIygxsPhZq8qtsVX1Z+UHn698++R7XzPd6cNLN3LMk
NushlVkhkMfMMVTqysOnbFU+byp5cbzInmZrCI69HB9VTUaH1RDueFa0p8RxVNsVdirsVefflVpP
5q6fca23nu406eGZ4TpA0+OOMqqmX1fV4RQ12aOla98Veg4q7FXYq7FXYq8U/MP8hovMX5qeWfMF
jpOlRaBaStc+Y4jFEkl5K8pkYyxiJhPyp8XqHepxVZ+Wv5BQaF+Y3mzzBrej6TLpV5dCbyxbRxxy
/VEWd3VkjaJVgYLwpw6dMVe3Yq+bP+cgvye8/GLzT5p8ueYbq603WBA+reVxHI5l9P0oU9JY+auV
EakVQMAPtHFVP8p/+cdvNN9qXlXzn581s3Uek2dlLo2iBZA8EcKLJbQTeosfp+iackVTVq1Piq+l
8VSTzsnmqTyrqUPlQwr5gmhMVhLcsUijdyFMpIV941JZRTcgV2xV5ev/ADjpbf8AKjJfIS3SRa7d
smoXeqHkyPqIYOSx+0Y6D0gaVp8VK4qkuh/lB+cPmHzb5PvvzCu9Ng0nyKyPpy6eWaa5kiaNkZ6i
g5G3j5H4dhstSTiqYfm5+R3nTU/zCs/zH/L/AFW3svMVsiLNb3dQpaNDEHjbjKp5RHgyOtKd96Yq
xfzL+R356/mheWZ8/ajo+l2mnq6wSWkIlnJYD+QKSrEbgygDqFxV6l+Rnlr8yPKflpfLHm1NPmst
OHHSb2xkYuYyxJiljMcfStQ/U999yq9LxV2KuxV2KuxV2KuxV2KuxV2KuxV2KuxV2KuxV2KuxV2K
uxV2KuxV2KuxV2KuxV2KpPo3nLyhrd1LZ6Lrmn6ndwKXnt7O6huJEUEKWdI2ZlHI03xVOMVdiqRH
z75GWG+mPmLTBDpciw6nKb23420kjFESdudImZ0ZQGpUgjFU4tLu1vLWG8s5o7m0uY1mt7iFg8ck
bgMjo6kqyspqCOuKquKpdrfmTy7oNvHc65qlnpVvK/pxTX08VsjPQnirSsgJoCaYqpnzZ5WGrw6K
dZsRrNwokt9N+sw/WZEKlwyQ8vUYFAWqB03xVNcVQeraxpmkWMl9qVzFa20SlmkmdIwaAmgLlRXb
xxVin5W/m95X/MnTru+0KO5thZTehLb3qwpMfhVuapFLN8HxUqT1xVm+KpP5h84+U/LcccnmDWLP
SlmqIfrc8cJenXgHILU70xVH6dqem6nZRX2m3cN9ZTjlDdW0iyxOK0qroWVvoOKobRvMvlzXBOdE
1Wz1QWzBLk2VxFcCNzWiv6TNxO3Q4qiNT1bS9Ks3vtUvILCyi/vLq6kSGJf9Z3KqPvxVJ9C/MXyF
r939S0XzFp2o3m5Ftb3MUkpA3JCBuRA8QMVZFiqXv5h0CPWY9DfU7Rdalj9WLS2njF00YBPNYC3q
FaKd6dsVTDFXYq7FXx//AM4d/wDk0/NP/MBL/wBRkeKvsDFXYq+Sbn8nPzLfy1+bVouhym48w6tY
3OjR+pDW4ihvrmWR1+Og4pIp+KnXFX0r+XWm32l/l95Y0y/iMF9Y6TY213ASCUlhtkSRCVJHwspG
xxVkOKvjb/nLrzH59vfMVv5d1TS4rby5DdNJ5evUR1lu2EMay8mMjI3BpqbIuKsZtvNf5wT/AJ7R
63B5cgk896ZB6Q0MRzGGONbP0N4zPz/uZeX971P0Yq+67V5ntonmXhMyKZUHQMR8Q798VfD358ag
dV/Py+07z1fXdl5csnEVr6C8zDbG3DxNCh5D97JQuwBO52NOOKph/wA4uflZpnmbUrbzSuuGz1Xy
7qkcsmlIVLT20apIp+FlkVWkqpJBVgCMVfauKvkP80/8ID/nKC9P5oer/hH6hEdP5+sY+H1NePH0
P3nD6z6v2f2+u2KsQ/Ln8xde8ufldr3lzQTPLqXmvVI9P8tQA/GnqJwupU8HKvDGN/tGo+ycVfWf
5O+RNI8ieSbPy5aSxT38Y9fV5o2DGS7kA9VjTfitOC1H2QO+KvFf+c19M8xyx+XNRVJpfLFsZUvB
EfgjuZGXi0goQC6VVGNabjvuq8h842PkPV/OPlu0/JKy1Aai8cTyqzSl1vOSshUysxVoqEyOD6Y6
g0BOKvv23EwgjE5DTBVErL0LU+Ijp3xV49qnknzTN/zk7pHm6OwdvLtvpL202ock4LKY5wE48ufW
Rf2cVeyYq7FXYq+af+cZvJelaH+YPmC8s/NOl65LPaSI9nYNMZYgblG5P6kca0BHHY9cVfS2KuxV
2KuxV2Kvib/nIA/m5f8A5taTpGsNDJI2pS/4IgU24/cXN4I7Yycehb04wTLvtviqG/Ln/ldWofnr
rF7p7QTebrSRovMshNrwWBJ44LhU5fu6jgF+DfbFX3Fir5P/AOcpPzO8i6suv+TLjSCPNOiy2q6Z
rJjR+SN6cs8Yk2kjoJGHHdWpWvTFXjXkwQw/mR5L/wACz3j6nI1h9d5DiVvWb/S44+NOUHD7XLty
rVd8VforirH/ADnoHkbUNLlvvN2m2N7YaZHJcPPfwxyiGNF5yMGcEqKLvTrir5B1mz1TzD5V83/m
7ZWn6H0iwMWj+TbK2jWFLa0e4WKaSJY+KpRJWUlducj03XFUq0+Dy35V1P8AK3WvIetyXXmfVWT/
ABFaxzCQxzPNCvoPEgDKJDJIhRvtBQe9Sqzj/nKLzfq99+amneSdb1CfR/Iw+pyXbwgkSxzPWa5Z
QP3npbqq7gFa0rirzzz2dH/LjXr1Py082RatoXmLT5rO7hjkEs0UUq8XjmdFVK1PKNlow3BFPtKv
pL/nERrE/lOPS1Fb6/mvp7jUYeZeS3duMUcbhviHKOFWHY12xV7ZirsVdirsVYr5U/K3yD5S1K51
Py7pEen314hiuZ0eVy6M4cikjuPtKDsMVZVirsVdirsVdirHta/L7ydrfmHTvMeqaZHda1pPA6de
M0gaIxuZEoqsENHNdxirtC/L3yboOu6lr+kaZHa6xrDO+pXitIzStLIZXJDsyjk55fCBirIcVYJ+
bP5Q+XvzF0J7G7WGz1Osf1fWhbxzXMSI4dkRiUbi4FCOWKon8uvyp8oeRtKtLfTLC2OqQwLBdayI
ES5uCAAzM/xMORFSvKmKsyxVLvMXl3RvMej3Gjazb/W9MugouLYu6BwrBwCY2RqclHfFVOy8q+XL
Hy4nlq20+FNBSE2w04ryhMLV5IytXlyqeVevfFWM+WPyL/KjyxrS63onl6K21OMsYrhpbif0y1am
NJpJEQ79VAxVOfOH5d+SfOVvHB5m0iDUlhqIZJAyyxg9Qk0ZSRQe4DYqx7Q/+ce/ya0S6+tWPle2
aahWt0894oBFDRLqSZR160xVNvKn5T/l95S1KXUvLekLpl5MhjmeGWfi6E14tG0jIRXcfDt2xVlu
KuxV2KuxV2KuxV2KuxV2KuxV2KuxV2KuxV2KuxV2KuxV2KuxV2KuxV2KuxV2KuxV4F+UP/OSWt+e
vzEbyrd6NbWduI7mT6zFJIz1g6Cjbb4q99xV2KvnaT/nKDXkt/zAl/QlqT5OkjS2HqSfvw+orZfv
PD4X5bd8Vev/AJW+cbnzn5B0jzNc26Wk+pRu728RLIpSV49i2/7FcVZViryL8+fz1b8trbTRplva
6pf3k0kdzaySkNCsaKwLBCWBPMUriqRRf85KXb/mnpHk36np/wCj72G0e+1T6yeMTz2i3MoBNE+A
txFTX6cVe9AhgCDUHcEdCMVeL/m9/wA5PeWvy/1l9AtdOk1vW4AjXcKyi3gh9RQyq0pWUl+LBuIT
6cVeV/kx/wA5ReY5fOkmnebmu9XttduYbXSYYFgrayzTFFWnGIup9RVJ5V26HFX15irw382v+cid
Y8ted18jeT/L51/zAkaSXKn1Hozxev6UcMI5uRDRy3LYYqmf5Yf85F6B5t8j655k1e3/AEPL5aRZ
NWhD+ohSRWMTRMQpJlaNlVOvLbeoxVNvyP8AzJ80fmHoN35g1XSIdJ0tpjDpQjd5JJglfVdiwUcV
NFBHUhulMVQX55fn3pv5YxWdpHYnVNc1BGlgtS/pRRxKePqSvRm3bZVA3odxiry+w/5zE806Zqlt
H5z8nmx067pLHJD60Ewt2PwyxpcDjMPkVBxV9P2F7a39jb31pIJbW7iSe3lHRo5FDIwr4qcVeZ+Y
Pzh1LS/zx0T8uY9PhkstVt1nkv2dxKhZJmoFHw/7pH34q9TxV2KuxV8Qf84sf+T5f/jBf4q+38Vd
iryR/wDnGXyG0XmqI3+qcfN7q+pH1besZS7W9Hof6P8AD+8Wnxcvh998VZ/5J8oab5O8rWHlrTJZ
prHTkZIJLlkaUh5GkPMosandz0UYqnmKvhH/AJyhsvKJ/Mu5v9E1pdQ1C/nlj1u1pRbKe29O3EZN
PFGr8sVYxpfk38vrz805fLkvmUw+Ug8iQeYCq1k4xVSi9Pjl+HFX6I2sAt7aKAHkIkVAx6kKKVxV
8Z/85Lfl75o8l/mEfzKsZYpNM1DUIZbSZwkjwXyx+oI5IZAVdT6DMpoRTY+6rGPyN/Mfy35b8+TX
XnHRkvV1i6t7iLUCi+pYXHqNIlzGjDlxPrVPFgePTl0xV974q+dfzX/Jv80Y/wA3E/Mz8upbefUZ
kUSwTtGjQyLa/UyQJv3bo8I8ag9sVfPWreXtW8qTXvkbVL9Y3uJLfUPOL2pEwgitgzQwepVVkkHr
livLi0jRrXkMVe9+Qf8AnK3yJZHR/LX+G7rQfLahbLT9QeRZUREPBXkUIvf+8ZWYg+OKpb/zmrZ+
TZE0e8k1H0vN8KGOHTUXn6tkzkl5CP7rg/LgT9rcUNKqq8L1Hzhq/n3UbFPPmum3stAsTFB+5rO6
QgVhiVQqtcTUHxSso23PQFV9sfkf+YXlvzn5NVvLmn3WnaVobR6TBDd8C3G3gj4gFGcGiMoxVF6r
+UXlvU/zL038w57m8XWtLiEFvbxvELVlVZFq6GJpCf3x6SDtirN8VdirsVeBflDpX5m2/wCYjTa/
+X+h+X9J9O5A1fT7G0t7nkfsL6sUjvR/2tt8Ve+4q7FXYq7FXYq+UPzh/wCccdV1L827K78t6Nc3
GgaxOl55jv8A6xFRJ7u9ka64CQqyhIiGFAeuKoT8vf8AnF+8m/NPWE8yaNd2Xku1e6k0Sczx85PT
ulForGN3aphJY1HbFX11ir40/wCcs/JHnvTdbvvNN5qKz+UtavrZLexjlkAiuYrRo4vUt2+DkIop
KOpPU9K4qhfy/wD+cd/zO893/l/XPNsiW3lhLSy+qzyyxSyyaZFEpt4YIYS/ENHQfvOJFSSCdiq+
1cVSfzjqWuab5Y1G80HT21XWo4T+j7BSq+pO3wpyLsg4KTybfoDTfFXz35Z/5xx8zXn5SebH134P
zD81OLhjcOrFBb3K3KxO6ErW4kQs5rTdf5cVefwfk5+eHm208qeSNX8vDSNH8tPdxrqsnBQsV5OJ
Z3dldllKlaJ6Y3792xVnH/OSX5E+f9c88jzp5Vtl1WKSGAXFmGjE0UtuOIKxykLIjKqmgqa12pir
B/NX5X/n9+aHmKK/1fylbaXfpCIp78KlmkqoPgM3KRy7CnEFVrTboBRV7B/zjRYfmZ5P05/KHmfy
jJY6Y0slxbaxE8DUlfd1uVWVmYHiAjqNtgRTcKvfMVdirsVdirsVdirsVdirsVdirsVdirsVU57e
3nQJPEkqA1CuoYV6VocVXoiIioihUUAKoFAANgABireKuxV2KuxV2KuxV2KuxV2KuxV2Kv8A/9k=
									</xapGImg:image>
							</rdf:li>
						</rdf:Alt>
					</xap:Thumbnails>
				</rdf:Description>
				<rdf:Description  rdf:about="" xmlns:dc="http://purl.org/dc/elements/1.1/">
					<dc:format>image/svg+xml</dc:format>
				</rdf:Description>
			</rdf:RDF>
		</x:xmpmeta>
<?xpacket begin='﻿' id='W5M0MpCehiHzreSzNTczkc9d'?><x:xmpmeta xmlns:x='adobe:ns:meta/' x:xmptk='XMP toolkit 3.0-29, framework 1.6'>
<rdf:RDF xmlns:rdf='http://www.w3.org/1999/02/22-rdf-syntax-ns#' xmlns:iX='http://ns.adobe.com/iX/1.0/'>

 <rdf:Description rdf:about='uuid:8b28b146-6069-11de-85a2-001124740a56'
  xmlns:pdf='http://ns.adobe.com/pdf/1.3/'>
 </rdf:Description>

 <rdf:Description rdf:about='uuid:8b28b146-6069-11de-85a2-001124740a56'
  xmlns:tiff='http://ns.adobe.com/tiff/1.0/'>
 </rdf:Description>

 <rdf:Description rdf:about='uuid:8b28b146-6069-11de-85a2-001124740a56'
  xmlns:xap='http://ns.adobe.com/xap/1.0/'
  xmlns:xapGImg='http://ns.adobe.com/xap/1.0/g/img/'>
  <xap:CreateDate>2005-10-18T08:31:30Z</xap:CreateDate>
  <xap:ModifyDate>2009-06-24T02:49:28Z</xap:ModifyDate>
  <xap:CreatorTool>Illustrator</xap:CreatorTool>
  <xap:MetadataDate>2009-03-25T01:40:53+09:00</xap:MetadataDate>
  <xap:Thumbnails>
   <rdf:Alt>
    <rdf:li rdf:parseType='Resource'>
     <xapGImg:format>JPEG</xapGImg:format>
     <xapGImg:width>52</xapGImg:width>
     <xapGImg:height>256</xapGImg:height>
     <xapGImg:image>/9j/4AAQSkZJRgABAgEASABIAAD/7QAsUGhvdG9zaG9wIDMuMAA4QklNA+0AAAAAABAASAAAAAEA&#xA;AQBIAAAAAQAB/+4ADkFkb2JlAGTAAAAAAf/bAIQABgQEBAUEBgUFBgkGBQYJCwgGBggLDAoKCwoK&#xA;DBAMDAwMDAwQDA4PEA8ODBMTFBQTExwbGxscHx8fHx8fHx8fHwEHBwcNDA0YEBAYGhURFRofHx8f&#xA;Hx8fHx8fHx8fHx8fHx8fHx8fHx8fHx8fHx8fHx8fHx8fHx8fHx8fHx8fHx8f/8AAEQgBAAA0AwER&#xA;AAIRAQMRAf/EAaIAAAAHAQEBAQEAAAAAAAAAAAQFAwIGAQAHCAkKCwEAAgIDAQEBAQEAAAAAAAAA&#xA;AQACAwQFBgcICQoLEAACAQMDAgQCBgcDBAIGAnMBAgMRBAAFIRIxQVEGE2EicYEUMpGhBxWxQiPB&#xA;UtHhMxZi8CRygvElQzRTkqKyY3PCNUQnk6OzNhdUZHTD0uIIJoMJChgZhJRFRqS0VtNVKBry4/PE&#xA;1OT0ZXWFlaW1xdXl9WZ2hpamtsbW5vY3R1dnd4eXp7fH1+f3OEhYaHiImKi4yNjo+Ck5SVlpeYmZ&#xA;qbnJ2en5KjpKWmp6ipqqusra6voRAAICAQIDBQUEBQYECAMDbQEAAhEDBCESMUEFURNhIgZxgZEy&#xA;obHwFMHR4SNCFVJicvEzJDRDghaSUyWiY7LCB3PSNeJEgxdUkwgJChgZJjZFGidkdFU38qOzwygp&#xA;0+PzhJSktMTU5PRldYWVpbXF1eX1RlZmdoaWprbG1ub2R1dnd4eXp7fH1+f3OEhYaHiImKi4yNjo&#xA;+DlJWWl5iZmpucnZ6fkqOkpaanqKmqq6ytrq+v/aAAwDAQACEQMRAD8A9KaVpWlnS7MmzgJMEdT6&#xA;afyD2xVFfonSv+WKD/kUn9MVd+idK/5YoP8AkUn9MVS3y1pWlny5pRNnASbO3JJjT/fS+2Kpl+id&#xA;K/5YoP8AkUn9MVd+idK/5YoP+RSf0xVBenH/AIR9PiPT/R/HhQcePo0pTwxVJLWbUfMMq6TZ3Mun&#xA;6PpcUEeqXdueFxcXDwpL9Whk6xIkbqZJE+KrBVZSrYqk9lpWgahp6X1t5ANzDOC8d8JLP6861pzE&#xA;8syTczTq0oPviqZ6Dq82nSafJHc3F55X1aU2lub4ubzT71WaP6tO8lZJI2kjMVZCXSWi8mDDgqs0&#xA;q51PXLaw0LTbl7DTtPsbT9NahDQTtJLbpIlnbsQRG3psryyfaVWUJRm5Iql9jpugXunpqEXkF7+G&#xA;UF472SWznv3UGgcTXM4m5bV+KWv04qmWk6k+kJpl9Z3dzfeUdWkS3437O91p9xM/pwgyTH1mieb9&#xA;yyScnRyN+FQqrI/+mV/6Mf8AmTiqUfliY18uT252urfUL4XSmnIGa4e4i5U8beaIrX9kjFUB5Mg8&#xA;7SeVdNW0vdNtrYxfunktZ55AnI0BAuIVLe/T2xVF6/pUOkeTbfTEle5uJNRsik8nH1ZbyfUo53mI&#xA;UKoPqs0p4iiitNhiqn+VJC6FdwP/AL1RXKm4O+/q2sEsJ36/uHjX6KdsVSbTU/MGD8v7S90rUbZ4&#xA;LeH1vqNtYt9ee3ViXjhmlnnhM/CvDlBxZqAgA7Kpzr0OkwfldJb6VKZ7a7tYotJuS3qPLcXjKtrM&#xA;WP2meeVHr3JxVP8A/plf+jH/AJk4qlA0bV7VrXXdAMb3E9rBHqelzsY4rtY0HpyJIA3pTxqSobiQ&#xA;60Vuisiq7T9dl07T4bG28q6tCYF4xWQ+qvQeAnNyYe/7Uv8AHFVbT9J1nU9Ug1nzCkdt9SLNpWjw&#xA;uZVhd1KNcTy0VZJ/TZlUKOKBmAL15YqgbHRNTi0/SNf0FohqZ061t76yuCyQXkEcfKNWdQzRSxs7&#xA;cJArbMVZTsVVROna5Lp1hFYQeVtVgNuoSKzX6tKKf5M5uTHTfq7g7+xoqpaH5Zvpbu1ub+BdN0rT&#xA;pJJ9J0GOQzlJpi7NPcybryX1WEUMZMcfYt8HBVOf+mV/6Mf+ZOKqGlT+Y/0XZ0sbMj0I6E3ko/YH&#xA;/LtiqK+seZf+WCz/AOkyX/slxV31jzL/AMsFn/0mS/8AZLiqW+Wp/Mf+HNK42NmV+p2/Em7lBI9J&#xA;eo+rHFUy+seZf+WCz/6TJf8AslxV31jzL/ywWf8A0mS/9kuKqNZ/8H14L6/6Pr6fI8OfodOfGtK9&#xA;+P0Yqhr/AM16F5a8t2N7rFz6EcscMNtEivLNPM6DjFBDGGklduyqpOKpV/ysPzAV+sp5C15tPG5m&#xA;J05JqeItWvFn+jjy9sVT3yv5w0HzNbSzaXOxltX9K+sp0eC6tpaV9O4gkCyRt4chv1FRiqCi8zaF&#xA;5c8k6VqOtXa2lr9VtY0JDM8kjxKFjijQM8jt2VFJOKoBfzC1+UC4tvIeuy6fSvrudOglI8RazXcc&#xA;/wBDKG9sVTryx5z0HzIk40+WSO8tCEv9Nuo3try3ZhULNBKFda9mpxbsTiqt/wBMr/0Y/wDMnFWH&#xA;flxaJr2taj5uvqTNp8r6HoEbfEttBZqsV3InhJPchw7deKquKsd/L/RJdX/Lmy806z511vTruYXL&#xA;z3p1Hjbx+ncSxqfTuFkh4hUGzDFXaPqWrXPlPyd+Z9xT9Oi4h0zWbiKL0hqOlXl99SjlkiUD+aK6&#xA;j/l+IDZjiqc/lvZx+Y9cn8xagBND5cjt9F8vwPuIHFnDLe3KqdhJK8oj5deCf5RxVifk670a6/L2&#xA;18x6/wDmRqWkau/1l5pG1SNlR455VRRaTiVX+FB8HElu2Kp1Lc62PIflb8z9Vg+qebdLS2GsOsfo&#xA;vc6ZczrHcRTR7UrE4uFQ/YkG1N8Vemf9Mr/0Y/8AMnFWG/l7eL5e16/8p6h+4XVZG1ry7O3wpcx3&#xA;SLLeQIenqwXHN2WtSjBqdcVS78qfyd8oW3k7TJ/MXlOwPmINO91JeWsMs3I3MjRsxcNvw40OKp35&#xA;6u49Z1nRvImmUeZrq01PWzF9m00+wmS5QSFfsNczQpFGvccj0XFUs/Lu8j8ta7LoGoEQ2nmaK21j&#xA;QLlzRZZzaQw3tpyNB6iNEsqr1KuafZOKpb5T/JzT738o7bTNR0mDSfNoW4lt9V9CNL22vEupJbWf&#xA;1lHqVQ8D9rddsVRmta/qfmry/oHkq/s2tPNeufV5vMlhsfqdjaTqbyd+JIVJ2i9OCv2uY8Dir0H/&#xA;AKZX/ox/5k4qhrzyzoXmPy1Z6frNot3bCOGWOpZJI5UQcZYpEKyRyL2dGBGKpQfyzvOPor518yLa&#xA;U4/VvrVsx4+H1hrZrr/Zery98VT7y15T0Dy1aSW2j2voCeQzXc7u8088p6yzzyl5ZXP8zscVQUHl&#xA;zQ/MPkjTNM1qzjvbKS0tmMUlaq6xLxdHUh0df2XUhh2OKpav5ZXMaCC385+ZILMCi231q2lovh68&#xA;9tLc/T6tcVT3yz5P8v8AlqCZNKtyk10wkvr2Z3nurmQCnOe4lLySHw5Nt2piqp/0yv8A0Y/8ycVU&#xA;NK8v2B0uzJlvN4IztfXg/YHhLiqK/wAPWH+/bz/pOvP+quKu/wAPWH+/bz/pOvP+quKpb5a0Cxby&#xA;5pTGW8qbO3Jpe3gG8S9hLTFUy/w9Yf79vP8ApOvP+quKu/w9Yf79vP8ApOvP+quKqPop/g70atw/&#xA;R3CvNudPQp9uvOvvWuKsK1vzr5mvNTsvIvkRIDrsdlBc63rN2pktdLt5UHp1jUj1LiQbxxnam5+G&#xA;tFXm8HnPybLE19dfm55rhvo2Mf6QNk0emGVWIP7hbJ4eIYGoMn04q9G8kfmHrtvr1h5Y82XVrqia&#xA;1A1z5V83aeoS11NI15SRSRqWWK4Vfiop4sOm/VVbqPnfzEU0HyR5IgguPM1xplvd3+oXXI2mmWhR&#xA;VWaZV3eWQ1EUdfc/D1VecWPnnyVe2i6pffm95piu3biuoLYta6Y0hJG0C2csKgEbhpMVejeUPPnm&#xA;PStb0zy/5vvrbW9O19eXlXzlYosUF43Hn6FzGhaOOZl3jKHi/wA8VZ7/ANMr/wBGP/MnFWAfkGok&#xA;i863c4H6Tk8x3UNwx+36EEMKWin/ACRDQr8zirAfyd8z/mBH+Vr6L5e8jPrkclxqEceo3N5aQWTe&#xA;tcyBuccreo6oWoy8fixVOdX8lXPkf8mvIehXdwlx5h0fzBpj2MkRPFry5v2d4oyRVlEc8idNwOnb&#xA;FU//ACHWGTUPOl1Pvqxv7KCUsKMLSHTLf6oP9X4npirx7yD588++Xf8AnHQraeU4Lvy0xurefzBP&#xA;dpKkaXU7xSPJp6x+oyxtJQ/Fv16Yq9J86eWLHyt/zjvomnadejULrSbnSbjRdQjUAy3cmoRSLJCt&#xA;ejCZ+O/2cVeu/wDTK/8ARj/zJxV57qGg+avKevJ558o2J1ix1e1to/NXlyNlSeRreIJFe2ZchDKq&#xA;fC8e3Mf5W4VS3yL+Zn5V+SvLcflzT/08bqKSaddJvdLvG1D1LiVpGQiO3SH7b8R8X04qnGiaV5r8&#xA;9+btP81+Z9Nk0Ly1oTNN5c8v3JBu5rtwUF9eopKxGNCRHF9pSSa/zKoW68veafL91pnn7ydaDU3u&#xA;9Ls7XzR5e5iN7yKCNfQuLd2+H6xCrFaMaMuw3xVIfKXnD8nfLP5ev5Alj19IZo7mCbRtT0y7bUWF&#xA;0WMqH0LcQ1/eEChxVGfl75H8wa3/AIcj1O31DTPIXlBxP5e0zWTEdUvbmMt9XnvFiVFhjtQ1IY6V&#xA;2BOKvWP+mV/6Mf8AmTiqhpWq340uzA0a8IEEe4ez3+AeNxiqK/S1/wD9WW8/4Oz/AOyjFXfpa/8A&#xA;+rLef8HZ/wDZRiqW+WtVvh5c0oDR7xgLO3AYPZ0P7pdxW4BxVMv0tf8A/VlvP+Ds/wDsoxV36Wv/&#xA;APqy3n/B2f8A2UYqo+o/+D/U9Juf6P5ejVedfQrxry417fap74qqJqmm6X5cgv8AU7qGysbe2jae&#xA;6uHWKJF4AVZ3IAxVgjf85M/kctz9WPmiP1OXDkLW9Mdf+Mgh9Onvypir0PR9a0jWtPi1LSL2HULC&#xA;cViuraRZY2p1HJSRUdx2xVBaPf2On+TtPvb+4jtLO3sIHnuZ3WONFES1ZnYhQPnirCp/+cmPyPgu&#xA;jav5ojMitxLR215JHX2lSFoyPflTFWf6H5g0PX9Oj1LRb+DUbCXZLm2kWRKjqpKk0YV3B3GKqP8A&#xA;0yv/AEY/8ycVeNaRo8f5ufmBfJrhafyL5GMFhaaRUiG81QRgzyzgfaEJ+Hie1PFgVWGeQvO353+Z&#xA;/wAstW8y6Y3lseX9CaeGfQrix9NJEtbeO4kCpGBHx9OTYchuO2Ko7yFrcXlyXyd+Y3l+0/RHlPz3&#xA;efofzL5cjLfVLe/MjwRXdqp2RC8JJ8B8PfZVkOn6Y/5redl8v6pI58h+R7LT/rWnIxVL/U57cSD1&#xA;StCY4VqCviP8rFWHeSfPH516h+VGpeb9Lk8tW/lrRfXWfRJbL0FdLaNZHVUiCx7qw4jkKnbFUz0D&#xA;U4/LVl5Q/N/y7ZLoOg+a7lNN86eXYaizUvNJAl7DGdowjxlhx7ED9pqqvof/AKZX/ox/5k4q8n/J&#xA;fUIvLHn7zf5G1RxBdaxef4l0RnoPrUN9GpnWM7cjEYwKezeBOKvNP+cdPyWsvOv5dai2uazr2n2f&#xA;6Vlhl0Szuvq9jOqW9u/qSwPG/J258S1egHhir0L8z9L8vi8/L78nvK9sqmHU7bUrq1iJb6pp1lze&#xA;SSUk15yl2YMxqxB7sMVX/lFqEflj8zde8s6qwhfzTa6frWgTNstwFtRHcRKf50Zdl60BOKvEvKX5&#xA;Ny65+QGs+Z7ea/TXNLu5Zk0oufqk0FssUknK3Zd34MxB7kAYq9R81eb7Dzv+XH5e+StDtUtdW8zT&#xA;2ZudLgj4LY2unSf6VJ6YHwRpJCeG26g4q96/6ZX/AKMf+ZOKsb82/lf5a89aBpQ1L1rTU7CKOTS9&#xA;Zsn9G8tZCimscg7VAqD+vfFWOj8t/wA9Y4TYRfmnWxB4pcyaRbPdiOlKGQt8Tf5RNe+Ksp/Lz8rN&#xA;A8krd3VvLcapr2pENquvag/rXdww3oXP2Ur+yPprTFULrX5beWfPfkfRLLWY5I57W2t5tP1K1b0r&#xA;u1l9JfjhkoadBUEEHbbYYqkCflr+eVtAbC0/NMtYfZS4udJt5rxEPUeqzku3+UTX5YqyL8vPyj0H&#xA;ybc3WrNc3Ot+Z9RFNQ8wai/q3Mi7fAldo02Gw36VJoKKsk/6ZX/ox/5k4qoaVpV+dLsyNZvADBHs&#xA;Es9vgHjb4qiv0Tf/APV6vP8AgLP/ALJ8Vd+ib/8A6vV5/wABZ/8AZPiqW+WtKvj5c0ojWLxQbO3I&#xA;UJZ0H7pdhW3JxVMv0Tf/APV6vP8AgLP/ALJ8Vd+ib/8A6vV5/wABZ/8AZPiqj6b/AOD/AE/Vbn+j&#xA;+PrUXnX0KcqceNe/2ae2KsI87fm4PK8Wj+W9B0x/MHnPUrVJLTSo2CRwxBAPrF1Kdo4xQnfwNSo3&#xA;xVg9p+YH5xXzCe28+fl815J8aaJHdiQVOwi5qzPX/Zde+Ks+/Ln83bjW9dufJ3m3Sz5d872Seq1i&#xA;XD291CB/fWkn7S9+NTt3NDRVDeavzZtvJnl7y3pGnWD655u1ezg/ReiwsEJQRDlPNIQRHEvE1J8D&#xA;0AYhVhNn+Yf5w6mUng89/l9b3ctGj0VLxZqf8Vs6NK1T0PFj88VZz+X/AOb2p6h5jbyV550keXfO&#xA;QjM9pGj+pZ38IqTJaSVbsCePI7A71BAVZ1/0yv8A0Y/8ycVeN/knbw6nrP5n+Z7werqyX0ujRSNQ&#xA;mOzsYeEap4BwFr48Rir568i3n5XH8qNe03WdAutU873VxOuhXVrDIxjLwRLb1lVlFEm5MyUNR2Nc&#xA;Ver3Wg+YvLH5V/lN5g1hZYPNuj67BawRzVFwLG9llIs5Kjn/AHSKOJ+yKrirJvyZt4tW82/mH5iv&#xA;lD6nYW1po9iG6w2kdnvwHYTGNW+j3xV84+XNY/Lq1/KbWbHWfLN1f+abq8kXSdeRfTtrcNDF6aNO&#xA;JAeSMrv6fAgg9fBV7p5u8ran5V/IX8v9U1G4RvNXlfUbWezvI5BLSO7uWcW6yryDoImjB4nieGxI&#xA;xV9Df9Mr/wBGP/MnFXimvw65+VvmO+842llNqXkPzbaQDzJFaqZJtPu0h4C7Ee1Y35EsajckGlFq&#xA;qpfkT5t/KH8t/IN3ZTefLDUY7m9k1DmI5LeZRJBDF6f1ZucxI9Gv2e+Kphplzqv5z+fdF16Oyn0/&#xA;8tfKk/17TprpTHJqmoJ/dSoh/wB1REVB+YO7EKqgNc0/zB+XesR/mDpFhNqnlXzJpFpa+brG1XnP&#xA;byw24jhvY0qOSqp3HT7VSOQIVYr5QtPyWtPyL17yZfef7C5TVrl9Rgu2hkgmt5fTgWL/AEVyZmKv&#xA;b/Fx6gkYqj/y30nzJ+YieUtBaWW7/LfyPOLk69PA1qdWntnItIYoZGdvSiQhKn9mtaNQYq+iv+mV&#xA;/wCjH/mTiqhpev2H6LtFMV4f3EYP+g3hH2B/xViqUv5d/LGS9+vv5Utnvq1+tNochlr48zbcvxxV&#xA;Pxr+nqABDeADYAWN5QD/AJE4ql3lrX7FfLmlKYryos7cGlleEbRL3EVMVQVx5f8Ayzub46hc+Vbe&#xA;a/JqbuTRJHmqa7+obYt38cVT1Nd02NFjjgu0RAFRFsLwAAbAACHFVP1k/wAHetRuH6O504Nzp6Ff&#xA;sU519qVxVHaUQNJsydgII6n/AGAxVKX/ADF/L6O9+oyeZ9JS9rx+qtfWwl5eHAvyr9GKsgVlZQyk&#xA;MrCqsNwQe4xVLfLH/KNaT/zB2/8AyaXFUDP+Yn5f296bCfzNpMN8DxNrJfWyy8vDgX5V+jFU/jkj&#xA;ljWSNg8bgMjqQVZSKggjqDiqV/8ATK/9GP8AzJxV4f5gn1781PNF75Nsr+bTfIXlKzhPmSW0b05b&#xA;+7aLkLUPQ0ReJBFKVBJB+CirynRfMnlK/wDKF5qlr+SlteeWdNb0tS1CG/maeIhQxLTFGnFFcMW6&#xA;Yqz78qvN58man5Wk0i7urz8rPPUr2lhbag3O40nU1cx+gHHwmNpNh2Iq3VSWVR3m3WPMXn+9PkLR&#xA;b6XTvKvlfRbe9833ls3Ca4ke2EiWSPQ0DIKHt9rkDxClV5foXmbyjN5Nu9VtfyXtb7y3p7rBqep/&#xA;X5XmRuIJLTFDMlQ4PJfh3xVnn5feaV8iTeWPMXl65u5fyl85XLWE2lXzerJpGoF2jHCTf4C6E1/a&#xA;QGtWocVfR3/TK/8ARj/zJxV4t+SF1Bpmv/mh5WvAsOsSXsutQodmls7yPmjL4hA6V/18VeR/kR+X&#xA;v5medvImt6VoXmeDRPKt3eehq9o8IkmlcxRlirBOfEpQFRKoPfrir038yPJ2l+V/K/5Z/lTokrXm&#xA;qS6/b3iSuP3vCFpHubplU/AoafbwUEVNK4qo/lZcRaN5g/NHy7qB9PUtT02DV9PLnea2aydjwJ2P&#xA;p+so29/DFXg3l7QvP0v5L+Yda0jV3j8r21+kOuaLGWUychDxm2B5AF1DA0oBXfFXtPnG98qap+QX&#xA;5eeVfKURhuPMd/aR6fYq4eaOWKVvrsrMRvwuGIZqftVpTbFX0d/0yv8A0Y/8ycVYF58/J9fNkOje&#xA;ZNB1JtA866XaxpZaqih45Yin9xcxnZ0PIjvsSCGG2Ksa0HR/+cjvLthJo+ieXPJmnrI/7zUbON7W&#xA;J2oF9d4IfTBeg6+n/scVZV+W35P3eia9cec/OOrHzH55vIzE18V429rEesVrHReNenKi7bBRVuSq&#xA;H83/AJP2Xnfy55e1Wwvm0TzXpljCun6xEgesbRDlBOhp6kTciKHpU9QSpVYtp/lj8/8ARtEuvLdn&#xA;5U8kS2N3VLq4hgMFtccgFMk9qgiRzxG/7v6MVZB+U35BweVdafzV5jntdQ8zsrJaxWECWun2CPXm&#xA;lpCixrVuRq3Bep2qWJVek/8ATK/9GP8AzJxVQ0qDzH+i7Ol9ZgehHQGzlP7A/wCXnFUV9X8y/wDL&#xA;fZ/9Icv/AGVYq76v5l/5b7P/AKQ5f+yrFUt8tQeY/wDDmlcb6zC/U7fiDaSkgekvU/WRiqZfV/Mv&#xA;/LfZ/wDSHL/2VYq76v5l/wCW+z/6Q5f+yrFVGk/+D6c19f8AR9PU4nhz9Drw5VpXty+nFWM+dfzY&#xA;8sfl/wCXNLk1P1bvUr6KOPTdItFEl1cPwA+FK7LUgFj8hU7YqxEfmz+fskQ1OP8AKhxpNAxt3v4x&#xA;ekdf7oqJQadvR64qzL8s/wA4fLPn1bm1tY59M1/T9tS0K+X07qEg8WIH7ahtq9R+0BUYqoeYvzT8&#xA;q/l95G0S91uR5Lm6tYI9P022X1Lm5kESVEaVAoKjkzEAfMgFVikf5tfn1dxfpSy/Klxo4HIQ3F/H&#xA;FeMvY+k4SQEjt6RxVlf5Z/nR5e88XFzpRtrjRPNFgCb/AEC/XhOgUgMyVC81BYV2BHdRtirLP+mV&#xA;/wCjH/mTirwT8vtMTzT5n/Mrzxq6ie70COfQNBDbi2S0t5EkeMfsswoQf8p/E4q+e/Kx0Q+Stc1y&#xA;883Xuk+bNOkj/QdhDLJW4BoW+z8a0P7XIUxV6xaX+v23lj8rfzbv3f8AxI+rjQ9RumqJdQ0+Z5RG&#xA;09acmWKJ0DndgVJrQYqyHyTp8HnPzn538z6uon/wbpMOlaBbvusDi0k5zKD+2HjZlPi58Bir570O&#xA;50NfJurard+ZtQsfN9rNEuh6fA0hWZGI9VncD4OK8t+Y+RxV7Zrlr5o0X8r/AMv/AM2Nb9aDzrol&#xA;8kN7czgrc3OmTSyCNLkn43PpUUctyjGu+Kvp7/plf+jH/mTir56vL+f8p/OHmCPVY2XyT+Ytr69p&#xA;qgVmjtdTkgYOsxUfCHeRidvs8T2bFVn5Dfk55J0by/qGqfmAmgakrzJNp1+91b3VssASjVYt6VOX&#xA;jiqcatq9r+cX5j+XvL3lWL1fIHku7j1HWNTROFtLcQCkFtACFBWgKCnUMxHwqCVUm1Ka6/KvzJfa&#xA;vdwufJH5h6RBDcXyKWWz1NbUqhloCeLlmb3DGleFMVYh5a/IGC9/KHXWu73RH15rmC70HVYr6B4h&#xA;EgCzRSTqaKrKT8LdGocVTbyze+ZfzPtvJ/5XHhe6X5SuEufNWvW0hmtZYbRmS1himAAYmE8K78m+&#xA;IbKTir6i/wCmV/6Mf+ZOKoTj5W1fy3DpurGyvrGe3jWe1uDFJGw4j7StUbHFXn7/APOOX/OPb3v1&#xA;o6XCKnkYFv7gRE/6om2HsDTFXo+h23k/QdOj03RVsdOsIv7u2tjFGgJ6mindj3J3OKoPS38t6j5O&#xA;sNO1J7O7s7ixgjubS4Mckbr6S1V0aoP04qwWf/nHP/nHya9N22lwJU8mgjv7hIif9RZhQey0GKvQ&#xA;/L1h5L8uabHpmhJY6bYR7rb25jRSaULNQ1ZjTdm3OKqvqR/4R9TkPT/R/LnUcePo1rXwxV//2Q==</xapGImg:image>
    </rdf:li>
   </rdf:Alt>
  </xap:Thumbnails>
 </rdf:Description>

 <rdf:Description rdf:about='uuid:8b28b146-6069-11de-85a2-001124740a56'
  xmlns:xapMM='http://ns.adobe.com/xap/1.0/mm/'>
  <xapMM:DocumentID>uuid:831aaf18-81ce-11da-9137-001124808cba</xapMM:DocumentID>
 </rdf:Description>

 <rdf:Description rdf:about='uuid:8b28b146-6069-11de-85a2-001124740a56'
  xmlns:dc='http://purl.org/dc/elements/1.1/'>
  <dc:format>image/svg+xml</dc:format>
 </rdf:Description>

</rdf:RDF>
</x:xmpmeta>
                                                                                                                                                                                                                                                                                                                                                                                                                                                                                                                                                                                                                                                                                                                                                                                                                                                                                                                                                                                                                                                                                                                                                                                                                                                                                                                                                                                                                                                                                                                                                                                                                                                                                                                                                                                                                                                                                                                                                                                                                                                                                                                                <?xpacket end='w'?>
			</metadata>
		<g id="レイヤー1">
			<g>
				<rect x="0.125" y="0.125" fill="none" stroke="#000000" stroke-width="0.25" width="100" height="150"/> 
				<rect x="0.125" y="150.125" fill="none" stroke="#000000" stroke-width="0.25" width="100" height="150"/> 
				<rect x="0.125" y="300.125" fill="none" stroke="#000000" stroke-width="0.25" width="100" height="150"/> 
				<rect x="0.125" y="450.125" fill="none" stroke="#000000" stroke-width="0.25" width="100" height="150"/> 
				<rect x="0.125" y="600.125" fill="none" stroke="#000000" stroke-width="0.25" width="100" height="150"/> 
				<rect x="0.125" y="750.125" fill="none" stroke="#000000" stroke-width="0.25" width="100" height="150"/> 
				<rect x="0.125" y="900.125" fill="none" stroke="#000000" stroke-width="0.25" width="100" height="150"/> 
				<rect x="100.125" y="0.125" fill="none" stroke="#000000" stroke-width="0.25" width="100" height="150"/> 
				<rect x="100.125" y="150.125" fill="none" stroke="#000000" stroke-width="0.25" width="100" height="150"/> 
				<rect x="100.125" y="300.125" fill="none" stroke="#000000" stroke-width="0.25" width="100" height="150"/> 
				<rect x="100.125" y="450.125" fill="none" stroke="#000000" stroke-width="0.25" width="100" height="150"/> 
				<rect x="100.125" y="600.125" fill="none" stroke="#000000" stroke-width="0.25" width="100" height="150"/> 
				<rect x="100.125" y="750.125" fill="none" stroke="#000000" stroke-width="0.25" width="100" height="150"/> 
				<rect x="100.125" y="900.125" fill="none" stroke="#000000" stroke-width="0.25" width="100" height="150"/> 
			</g>
			<g>
				<g>
					<path d="M50.125,1026.125c25.4052734,0,46-20.59375,46-46c0-25.4042969-20.5947266-46-46-46s-46,20.5957031-46,46
						C4.125,1005.53125,24.7197266,1026.125,50.125,1026.125v-9c-20.4018555,0-37-16.5976562-37-37s16.5981445-37,37-37
						s37,16.5976562,37,37s-16.5981445,37-37,37V1026.125z"/>
					<path d="M46.4951172,979.3945312v10.5849609h5.0703125c15.4672852,0,23.3999023-6.5693359,23.3999023-19.3457031
						c0-11.390625-8.1054688-17.1542969-28.0800781-17.1542969H31.2851562v53.2900391h15.2099609v-42.3408203h3.5102539
						c7.7231445,0,10.5297852,2.1298828,10.5297852,6.9355469c0,5.3027344-3.7260742,8.0302734-10.5297852,8.0302734H46.4951172z"/>
				</g>
				<g>
					<path d="M50.1245117,875.7910156c25.3134766,0,45.8334961-20.5195312,45.8334961-45.8330078
						c0-25.3125-20.5200195-45.8330078-45.8334961-45.8330078c-25.3129883,0-45.8330078,20.5205078-45.8330078,45.8330078
						C4.2915039,855.2714844,24.8115234,875.7910156,50.1245117,875.7910156v-8.5
						c-20.5854492,0-37.3330078-16.7470703-37.3330078-37.3330078S29.5390625,792.625,50.1245117,792.625
						c20.5859375,0,37.3334961,16.7470703,37.3334961,37.3330078s-16.7475586,37.3330078-37.3334961,37.3330078V875.7910156z"/>
					<path d="M45.7080078,829.4550781v9.6279297h5.8500977c15.2910156,0,23.0537109-6.4394531,23.0537109-18.9404297
						c0-11.15625-7.8925781-16.8300781-27.0405273-16.8300781H31.9716797v53.2910156h13.7363281v-43.3476562h4.4633789
						c8.1923828,0,11.3447266,2.4130859,11.3447266,7.6181641c0,5.6455078-3.9829102,8.5810547-11.3447266,8.5810547H45.7080078z"/>
				</g>
				<g>
					<path d="M50.125,725.4580078c25.2211914,0,45.6669922-20.4453125,45.6669922-45.6660156
						c0-25.2216797-20.4458008-45.6669922-45.6669922-45.6669922S4.4584961,654.5703125,4.4584961,679.7919922
						C4.4584961,705.0126953,24.9038086,725.4580078,50.125,725.4580078v-8
						c-20.7695312,0-37.6665039-16.8964844-37.6665039-37.6660156S29.3554688,642.125,50.125,642.125
						s37.6669922,16.8974609,37.6669922,37.6669922S70.8945312,717.4580078,50.125,717.4580078V725.4580078z"/>
					<path d="M44.9213867,679.5146484V688.1875h6.6298828c15.1147461,0,22.7070312-6.3095703,22.7070312-18.5351562
						c0-10.921875-7.6791992-16.5058594-26-16.5058594H32.6582031v53.2900391h12.2631836v-44.3525391h5.4169922
						c8.6616211,0,12.1591797,2.6953125,12.1591797,8.2988281c0,5.9902344-4.2387695,9.1318359-12.1591797,9.1318359H44.9213867z"/>
				</g>
				<g>
					<path d="M50.125,575.125c25.1289062,0,45.5-20.3710938,45.5-45.5c0-25.1298828-20.3710938-45.5-45.5-45.5
						c-25.1293945,0-45.5,20.3701172-45.5,45.5C4.625,554.7539062,24.9956055,575.125,50.125,575.125v-7.5
						c-20.953125,0-38-17.046875-38-38s17.046875-38,38-38s38,17.046875,38,38s-17.046875,38-38,38V575.125z"/>
					<path d="M44.1347656,529.5751953v7.7158203h7.409668c14.9384766,0,22.3603516-6.1787109,22.3603516-18.1298828
						c0-10.6875-7.4658203-16.1806641-24.9599609-16.1806641H33.3447266v53.2900391h10.7900391v-45.359375h6.3701172
						c9.1303711,0,12.9736328,2.9785156,12.9736328,8.9814453c0,6.3330078-4.4951172,9.6826172-12.9736328,9.6826172H44.1347656z"/>
				</g>
				<g>
					<path d="M50.1245117,424.7915039c25.0371094,0,45.3334961-20.2963867,45.3334961-45.3334961
						S75.1616211,334.125,50.1245117,334.125S4.7915039,354.4208984,4.7915039,379.4580078
						S25.0874023,424.7915039,50.1245117,424.7915039v-5.6669922c-21.8720703,0-39.6665039-17.7944336-39.6665039-39.6665039
						c0-21.8725586,17.7944336-39.6665039,39.6665039-39.6665039s39.6669922,17.7939453,39.6669922,39.6665039
						c0,21.8720703-17.7949219,39.6665039-39.6669922,39.6665039V424.7915039z"/>
					<path d="M41.8979492,379.8525391v5.8110352c0.4936523,0,8.8061523,0,8.8061523,0
						c15.371582,0,22.8408203-5.7817383,22.8408203-17.3183594c0-10.4951172-7.3583984-15.5317383-24.8569336-15.5317383H34.0380859
						v53.2895508h7.8598633v-47.3359375c0.4887695,0,7.8300781,0,7.8300781,0
						c12.3530273,0,16.1987305,3.6157227,16.1987305,10.0654297c0,6.3476562-3.8222656,11.0200195-15.9155273,11.0200195
						C50.0112305,379.8525391,42.3916016,379.8525391,41.8979492,379.8525391z"/>
				</g>
				<g>
					<path d="M50.125,274.4584961c24.9448242,0,45.1665039-20.222168,45.1665039-45.1669922S75.0698242,184.125,50.125,184.125
						S4.9584961,204.3466797,4.9584961,229.2915039S25.1801758,274.4584961,50.125,274.4584961V270.625
						c-22.7910156,0-41.3330078-18.5415039-41.3330078-41.3334961c0-22.7915039,18.5419922-41.3330078,41.3330078-41.3330078
						S91.4584961,206.5,91.4584961,229.2915039c0,22.7919922-18.5424805,41.3334961-41.3334961,41.3334961V274.4584961z"/>
					<path d="M39.6616211,230.1313477v3.9052734c0.9873047,0,10.203125,0,10.203125,0
						c15.8041992,0,23.3203125-5.3847656,23.3203125-16.5068359c0-10.3027344-7.2495117-14.8833008-24.753418-14.8833008H34.7314453
						v53.2900391h4.9301758v-49.3129883c0.9770508,0,9.2900391,0,9.2900391,0
						c15.5756836,0,19.4248047,4.2529297,19.4248047,11.1499023c0,6.3618164-3.1503906,12.3579102-18.8583984,12.3579102
						C49.5180664,230.1313477,40.6489258,230.1313477,39.6616211,230.1313477z"/>
				</g>
				<g>
					<path d="M50.125,124.125c24.8525391,0,45-20.1474609,45-45s-20.1474609-45-45-45s-45,20.1474609-45,45
						S25.2724609,124.125,50.125,124.125v-2c-23.7099609,0-43-19.2890625-43-43s19.2900391-43,43-43s43,19.2890625,43,43
						s-19.2900391,43-43,43V124.125z"/>
					<path d="M37.4248047,54.4794922c1.4658203,0,10.75,0,10.75,0c18.7988281,0,22.6503906,4.890625,22.6503906,12.234375
						c0,6.3759766-2.4775391,13.6953125-21.800293,13.6953125c0,0-10.1191406,0-11.6000977,0v2
						c1.480957,0,11.6000977,0,11.6000977,0c16.2373047,0,23.800293-4.9873047,23.800293-15.6953125
						c0-10.1103516-7.1416016-14.234375-24.6503906-14.234375h-12.75v53.2900391h2V54.4794922z"/>
				</g>
			</g>
			<g>
				<g>
					<path d="M150.125,1026.125c25.4052734,0,46-20.59375,46-46c0-25.4042969-20.5947266-46-46-46s-46,20.5957031-46,46
						C104.125,1005.53125,124.7197266,1026.125,150.125,1026.125v-9c-20.4023438,0-37-16.5976562-37-37s16.5976562-37,37-37
						s37,16.5976562,37,37s-16.5976562,37-37,37V1026.125z"/>
					<path d="M149.0058594,964.4306641c6.3056641,0,8.5791016,1.8271484,8.5791016,6.2050781
						c0,4.2509766-3.2666016,6.9345703-8.5791016,6.9345703h-4.2910156V988.15625h3.5097656
						c2.9462891,0,4.5292969,1.4013672,5.6943359,4.7441406l4.8369141,13.8701172h15.9892578l-5.6162109-14.5996094
						c-1.8574219-4.8291016-3.7734375-7.1083984-6.8632812-8.6884766v-0.1464844
						c6.3164062-2.2041016,10.9199219-8.0595703,10.9199219-14.1601562c0-10.4375-7.2148438-15.6953125-24.9609375-15.6953125
						h-18.71875v53.2900391h15.2089844v-42.3398438H149.0058594z"/>
				</g>
				<g>
					<path d="M150.125,875.7910156c25.3125,0,45.8330078-20.5195312,45.8330078-45.8330078
						c0-25.3125-20.5205078-45.8330078-45.8330078-45.8330078c-25.3134766,0-45.8339844,20.5205078-45.8339844,45.8330078
						C104.2910156,855.2714844,124.8115234,875.7910156,150.125,875.7910156v-8.5
						c-20.5859375,0-37.3339844-16.7470703-37.3339844-37.3330078S129.5390625,792.625,150.125,792.625
						s37.3330078,16.7470703,37.3330078,37.3330078S170.7109375,867.2910156,150.125,867.2910156V875.7910156z"/>
					<path d="M148.6552734,813.2568359c7.3476562,0,10.0004883,2.0703125,10.0004883,6.7246094
						c0,4.7939453-3.6152344,7.6474609-10.347168,7.6484375h-4.3774414v9.6289062h3.7695312
						c3.9321289,0,5.519043,1.2998047,6.9077148,5.0693359l5.2006836,14.2753906h14.4121094l-5.8413086-14.8427734
						c-1.8798828-4.7861328-3.8427734-7.1796875-6.7246094-8.6884766v-0.1464844
						c6.4799805-2.1611328,11.0063477-7.8759766,11.0063477-14.2412109c0-10.1757812-7.1235352-15.3710938-24.7871094-15.3710938
						h-17.6791992v53.2900391h13.7358398v-43.3466797H148.6552734z"/>
				</g>
				<g>
					<path d="M150.125,725.4580078c25.2211914,0,45.6665039-20.4453125,45.6665039-45.6660156
						c0-25.2216797-20.4453125-45.6669922-45.6665039-45.6669922s-45.6665039,20.4453125-45.6665039,45.6669922
						C104.4584961,705.0126953,124.9038086,725.4580078,150.125,725.4580078v-8
						c-20.7695312,0-37.6665039-16.8964844-37.6665039-37.6660156S129.3554688,642.125,150.125,642.125
						s37.6665039,16.8974609,37.6665039,37.6669922S170.8945312,717.4580078,150.125,717.4580078V725.4580078z"/>
					<path d="M148.3056641,662.0839844c8.3891602,0,11.421875,2.3125,11.421875,7.2441406
						c0,5.3359375-3.9638672,8.3603516-12.1162109,8.3623047h-4.4628906v8.671875h4.0292969
						c4.9179688,0,6.5083008,1.1962891,8.1210938,5.3935547l5.5639648,14.6806641h12.8354492l-6.0668945-15.0859375
						c-1.9013672-4.7421875-3.9111328-7.25-6.5864258-8.6884766v-0.1464844
						c6.644043-2.1191406,11.09375-7.6923828,11.09375-14.3222656c0-9.9130859-7.0327148-15.0458984-24.6137695-15.0458984
						h-16.6401367v53.2890625h12.2636719v-44.3525391H148.3056641z"/>
				</g>
				<g>
					<path d="M150.125,575.125c25.1289062,0,45.5-20.3710938,45.5-45.5c0-25.1298828-20.3710938-45.5-45.5-45.5
						s-45.5,20.3701172-45.5,45.5C104.625,554.7539062,124.9960938,575.125,150.125,575.125v-7.5c-20.953125,0-38-17.046875-38-38
						s17.046875-38,38-38s38,17.046875,38,38s-17.046875,38-38,38V575.125z"/>
					<path d="M147.9550781,510.9111328c9.4316406,0,12.84375,2.5546875,12.84375,7.7636719
						c0,5.8779297-4.3125,9.0732422-13.8847656,9.0751953h-4.5488281v7.7158203h4.2890625
						c5.9033203,0,7.4980469,1.09375,9.3339844,5.7177734l5.9277344,15.0859375h11.2587891l-6.2919922-15.3291016
						c-1.9238281-4.6982422-3.9804688-7.3203125-6.4482422-8.6884766v-0.1464844
						c6.8076172-2.0761719,11.1806641-7.5087891,11.1806641-14.4033203c0-9.6503906-6.9414062-14.7216797-24.4404297-14.7216797
						h-15.6005859v53.2890625h10.7910156v-45.3583984H147.9550781z"/>
				</g>
				<g>
					<path d="M150.125,424.7915039c25.0366211,0,45.3330078-20.2963867,45.3330078-45.3334961S175.1616211,334.125,150.125,334.125
						c-25.0371094,0-45.3334961,20.2958984-45.3334961,45.3330078S125.0878906,424.7915039,150.125,424.7915039v-5.6669922
						c-21.8720703,0-39.6669922-17.7944336-39.6669922-39.6665039c0-21.8725586,17.7949219-39.6665039,39.6669922-39.6665039
						s39.6660156,17.7939453,39.6660156,39.6665039c0,21.8720703-17.7939453,39.6665039-39.6660156,39.6665039V424.7915039z"/>
					<path d="M147.1030273,358.7670898c11.2973633,0,16.112793,2.8857422,16.112793,8.690918
						c0,7.0004883-4.9311523,10.4116211-16.8066406,10.4165039h-6.3325195v5.8105469h6.1591797
						c7.1914062,0,8.7133789,0.949707,11.7636719,7.5541992l6.4433594,14.8632812h8.2563477l-6.8447266-15.3320312
						c-2.6918945-5.8510742-4.6210938-8.1699219-7.3027344-9.4282227v-0.1459961
						c8.0751953-1.9072266,12.5415039-6.9741211,12.5415039-14.3867188c0-8.996582-7.0581055-13.9960938-24.5102539-13.9960938
						h-14.3671875v53.2890625h7.8608398v-47.3354492H147.1030273z"/>
				</g>
				<g>
					<path d="M150.125,274.4584961c24.9448242,0,45.1665039-20.222168,45.1665039-45.1669922S175.0698242,184.125,150.125,184.125
						s-45.1665039,20.2216797-45.1665039,45.1665039S125.1801758,274.4584961,150.125,274.4584961V270.625
						c-22.7910156,0-41.3334961-18.5415039-41.3334961-41.3334961c0-22.7915039,18.5424805-41.3330078,41.3334961-41.3330078
						S191.4584961,206.5,191.4584961,229.2915039c0,22.7919922-18.5424805,41.3334961-41.3334961,41.3334961V274.4584961z"/>
					<path d="M146.2519531,206.6235352c13.1635742,0,19.3813477,3.2167969,19.3813477,9.6176758
						c0,8.1235352-5.5493164,11.7504883-19.7280273,11.7587891h-8.1166992v3.9052734h8.0297852
						c8.4794922,0,9.9291992,0.8051758,14.1928711,9.390625l6.9594727,14.6401367h5.2543945l-7.3989258-15.3354492
						c-3.4594727-7.0029297-5.2612305-9.019043-8.15625-10.1674805v-0.1455078
						c9.3432617-1.7373047,13.9023438-6.4394531,13.9023438-14.3706055c0-8.3422852-7.1757812-13.2705078-24.5800781-13.2705078
						h-13.1337891v53.2895508h4.9301758v-49.3125H146.2519531z"/>
				</g>
				<g>
					<path d="M150.125,124.125c24.8525391,0,45-20.1474609,45-45s-20.1474609-45-45-45s-45,20.1474609-45,45
						S125.2724609,124.125,150.125,124.125v-2c-23.7099609,0-43-19.2890625-43-43s19.2900391-43,43-43s43,19.2890625,43,43
						s-19.2900391,43-43,43V124.125z"/>
					<path d="M145.4003906,54.4794922c15.0292969,0,22.6503906,3.5478516,22.6503906,10.5449219
						c0,9.2460938-6.1679688,13.0888672-22.6503906,13.1005859H135.5v2h9.9003906
						c9.7675781,0,11.1445312,0.6611328,16.6220703,11.2265625l7.4755859,14.4179688H171.75l-7.9521484-15.3388672
						c-4.2275391-8.1552734-5.9013672-9.8681641-9.0107422-10.9072266v-0.1445312
						c10.6113281-1.5683594,15.2636719-5.9052734,15.2636719-14.3544922c0-7.6884766-7.2929688-12.5449219-24.6503906-12.5449219
						H133.5v53.2900391h2V54.4794922H145.4003906z"/>
				</g>
			</g>
		</g>
	</svg>
